<svg width="65" height="65" viewBox="0 0 65 65" fill="none" xmlns="http://www.w3.org/2000/svg">
<path fill-rule="evenodd" clip-rule="evenodd" d="M38.6719 54.3139C38.6719 55.193 37.6093 55.6328 36.9881 55.0116L28.768 46.7914C28.583 46.6067 28.4792 46.3556 28.4792 46.094V33.3506C28.4792 32.8057 28.0375 32.3643 27.4926 32.3643H17.3566C16.4812 32.3643 16.0395 31.3086 16.6544 30.6853L36.9832 10.074C37.6025 9.44606 38.6719 9.88455 38.6719 10.7668V54.3139ZM32.5 0C14.5506 0 0 14.5508 0 32.5C0 50.4494 14.5506 65 32.5 65C50.4492 65 65 50.4494 65 32.5C65 14.5508 50.4492 0 32.5 0Z" fill="url(#paint0_linear)"/>
<defs>
<linearGradient id="paint0_linear" x2="1" gradientUnits="userSpaceOnUse" gradientTransform="translate(32.5) scale(65) rotate(90)">
<stop stop-color="#ED5250"/>
<stop offset="1" stop-color="#C60401"/>
</linearGradient>
</defs>
</svg>
