<svg width="65" height="65" viewBox="0 0 65 65" fill="none" xmlns="http://www.w3.org/2000/svg">
<path fill-rule="evenodd" clip-rule="evenodd" d="M32.5 0C14.5506 0 0 14.5508 0 32.5C0 50.4495 14.5506 65 32.5 65C50.4492 65 65 50.4495 65 32.5C65 14.5508 50.4492 0 32.5 0ZM27.7546 56.3335L38.5583 47.3118V38.7356L46.6285 33.2083C46.0061 26.8699 40.6608 21.9175 34.1589 21.9175C27.2387 21.9175 21.6288 27.5273 21.6288 34.4475V44.8616L24.9701 41.5203V37.2878L31.987 33.501L30.3163 37.9561L27.7546 39.5154V56.3335ZM52.1466 31.8303C52.1466 33.2024 52.0193 34.5449 51.776 35.8464L49.1147 34.2939C48.6599 26.2136 41.9633 19.8013 33.7691 19.8013C30.9375 19.8013 28.2847 20.5669 26.0065 21.9026L18.7777 13.4971C22.1442 11.3533 26.1409 10.1113 30.4277 10.1113C42.4227 10.1113 52.1466 19.8352 52.1466 31.8303Z" fill="url(#paint0_linear)"/>
<defs>
<linearGradient id="paint0_linear" x2="1" gradientUnits="userSpaceOnUse" gradientTransform="translate(32.5) scale(65) rotate(90)">
<stop stop-color="#E4C079"/>
<stop offset="1" stop-color="#9C6114"/>
</linearGradient>
</defs>
</svg>
