<svg width="65" height="65" viewBox="0 0 65 65" fill="none" xmlns="http://www.w3.org/2000/svg">
<path fill-rule="evenodd" clip-rule="evenodd" d="M32.5 0C14.5506 0 0 14.5508 0 32.5C0 50.4495 14.5506 65 32.5 65C50.4492 65 65 50.4495 65 32.5C65 14.5508 50.4492 0 32.5 0ZM27.9224 32.5518C28.0798 32.9333 28.1666 33.3513 28.1666 33.7898C28.1666 40.3711 33.5019 45.7065 40.0833 45.7065C46.6646 45.7065 51.9999 40.3711 51.9999 33.7898V14.4446H43.3333V33.7898C43.3333 35.5847 41.8782 37.0398 40.0833 37.0398C38.2883 37.0398 36.8333 35.5847 36.8333 33.7898C36.8333 33.3718 36.8117 32.9587 36.7697 32.5518C36.1504 26.552 31.0799 21.873 24.9166 21.873C18.3352 21.873 12.9999 27.2085 12.9999 33.7898C12.9999 40.3711 18.3352 45.7065 24.9166 45.7065C27.3407 45.7065 29.5958 44.9827 31.4774 43.7393C29.2582 41.8181 27.6883 39.167 27.1413 36.1592C26.5598 36.7053 25.7773 37.0398 24.9166 37.0398C23.1216 37.0398 21.6666 35.5847 21.6666 33.7898C21.6666 31.9949 23.1216 30.5398 24.9166 30.5398C26.2731 30.5398 27.4355 31.3708 27.9224 32.5518ZM38.0747 31.1917C37.4929 28.2156 35.9306 25.5903 33.738 23.666C35.5635 22.5295 37.7188 21.873 40.0275 21.873C40.6055 21.873 41.1739 21.9143 41.7299 21.9937V31.0208C41.2348 30.7156 40.6517 30.5398 40.0275 30.5398C39.2946 30.5398 38.6183 30.7822 38.0747 31.1917Z" fill="url(#paint0_linear)"/>
<defs>
<linearGradient id="paint0_linear" x2="1" gradientUnits="userSpaceOnUse" gradientTransform="translate(32.5) scale(61.1693) rotate(90)">
<stop stop-color="#7EE6FE"/>
<stop offset="1" stop-color="#2C4DF4"/>
</linearGradient>
</defs>
</svg>
