<svg width="65" height="65" viewBox="0 0 65 65" fill="none" xmlns="http://www.w3.org/2000/svg">
<path fill-rule="evenodd" clip-rule="evenodd" d="M43.0319 34.3848C43.0366 33.6004 43.0366 32.8204 43.0319 32.0359C46.5793 32.0265 50.1218 32.0496 53.6646 32.0265C53.4148 30.6384 53.0885 29.2179 52.2388 28.0434C50.1651 24.9792 45.7826 23.7259 42.2783 25.0534C39.4844 26.0562 37.3818 28.2523 35.7595 30.5965C35.1354 29.7284 34.5161 28.8509 33.9161 27.9643C36.4747 24.7612 40.0461 21.9895 44.352 21.5903H45.9888C51.4276 21.9339 56.0549 26.4509 56.5015 31.6829V34.3662C52.0131 34.4082 47.5203 34.3801 43.0319 34.3848ZM46.0897 43.4099H44.4623C41.7405 43.1916 39.0957 42.1796 37.0364 40.4293C34.0456 37.9782 32.1255 34.6171 29.8022 31.6226C27.8053 28.9765 25.7651 26.0006 22.4577 24.7981C18.3727 23.3173 13.3803 25.634 11.8921 29.5707C10.5816 32.8112 11.6473 36.8313 14.5757 38.9065C16.7695 40.5499 19.8271 41.1629 22.4625 40.2065C25.3906 39.1852 27.5652 36.8638 29.2309 34.4035C29.8887 35.3132 30.5272 36.2371 31.1607 37.1657C28.5685 40.3227 24.9731 43.0338 20.6959 43.4099H18.9438C13.5533 43.0477 8.86803 38.6188 8.49847 33.3868V31.6737C8.8489 26.4509 13.4715 21.9709 18.867 21.5903H20.8401C23.9218 21.8828 26.7732 23.3823 28.8854 25.5409C33.2679 29.9884 35.6777 36.2651 41.2559 39.5751C45.288 41.9707 50.9283 40.0115 52.9108 35.9679C53.9191 35.9493 54.9318 35.9493 55.9398 35.954C54.5525 40.0626 50.5108 43.0152 46.0897 43.4099ZM32.5 0C14.5506 0 0 14.5508 0 32.5C0 50.4492 14.5506 65 32.5 65C50.4492 65 65 50.4492 65 32.5C65 14.5508 50.4492 0 32.5 0Z" fill="url(#paint0_linear)"/>
<defs>
<linearGradient id="paint0_linear" x2="1" gradientUnits="userSpaceOnUse" gradientTransform="translate(32.5) scale(65) rotate(90)">
<stop stop-color="#FF5785"/>
<stop offset="1" stop-color="#DE3F6B"/>
</linearGradient>
</defs>
</svg>
