<svg width="65" height="65" viewBox="0 0 65 65" fill="none" xmlns="http://www.w3.org/2000/svg">
<path fill-rule="evenodd" clip-rule="evenodd" d="M32.3768 20.4612C25.6959 20.4612 20.2603 25.8619 20.2603 32.5006C20.2603 39.1395 25.6959 44.5397 32.3768 44.5397C39.0579 44.5397 44.4933 39.1392 44.4933 32.5006C44.4933 25.8619 39.0579 20.4612 32.3768 20.4612ZM47.3266 50.0568L45.4188 47.8179C49.9625 43.994 52.5685 38.4116 52.5685 32.5005H55.521C55.5208 39.2749 52.5342 45.6735 47.3266 50.0568ZM32.3768 47.4732C24.0683 47.4732 17.3086 40.7564 17.3086 32.5009C17.3086 24.2446 24.0683 17.5281 32.3768 17.5281C40.6855 17.5281 47.4453 24.2448 47.4453 32.5009C47.4453 40.7564 40.6855 47.4732 32.3768 47.4732ZM32.3768 55.4975C27.0075 55.4975 21.7755 53.629 17.6433 50.2369L19.5244 47.9761C23.1282 50.9351 27.6929 52.5646 32.3768 52.5646C35.6522 52.5646 38.7757 51.8098 41.6613 50.3226L43.0203 52.9268C39.7582 54.609 36.0768 55.4975 32.3768 55.4975ZM13.2461 45.0086C10.7813 41.2934 9.47925 36.9683 9.47925 32.5006C9.47925 26.2807 11.9571 20.4729 16.4568 16.1462L18.1678 17.9039C14.1514 21.7648 11.9388 26.9486 11.9388 32.5006C11.9388 36.4878 13.1012 40.3483 15.3002 43.6627L13.2461 45.0086ZM32.3768 9.50293C36.6587 9.50293 40.8423 10.6742 44.4736 12.8903L42.9278 15.3901C39.7619 13.458 36.1138 12.4366 32.3768 12.4366C28.9449 12.4366 25.5565 13.307 22.5778 14.953L21.1428 12.3899C24.5593 10.501 28.4441 9.50293 32.3768 9.50293ZM49.9797 17.9478C52.071 20.4424 53.572 23.2856 54.4414 26.3993L52.0715 27.0527C51.2957 24.2758 49.9559 21.739 48.0892 19.5125L49.9797 17.9478ZM32.5 0C14.5508 0 0 14.5508 0 32.5C0 50.4494 14.5508 65 32.5 65C50.4492 65 65 50.4494 65 32.5C65 14.5508 50.4492 0 32.5 0Z" fill="url(#paint0_linear)"/>
<defs>
<linearGradient id="paint0_linear" x2="1" gradientUnits="userSpaceOnUse" gradientTransform="translate(32.5) scale(65) rotate(90)">
<stop stop-color="#B7F1FF"/>
<stop offset="1" stop-color="#00BFEC"/>
</linearGradient>
</defs>
</svg>
