<svg width="65" height="65" viewBox="0 0 65 65" fill="none" xmlns="http://www.w3.org/2000/svg">
<path fill-rule="evenodd" clip-rule="evenodd" d="M53.1333 34.1088C53.0628 37.8638 52.2857 41.3626 50.3976 44.5801C44.7858 54.1427 33.2774 57.3035 23.8162 52.9373C14.8787 48.8132 10.0239 39.205 12.5157 29.119C14.9104 19.4272 23.534 14.1587 30.3962 13.8657C24.4762 15.4585 20.3343 18.838 17.9833 24.2445C16.19 28.3688 16.0702 32.6269 17.641 36.8288C21.0139 45.8525 30.4782 50.4287 39.4749 47.6212C47.1753 45.2183 54.9169 35.6876 50.1394 23.7884C51.3222 24.9723 53.208 30.1238 53.1333 34.1088ZM26.2647 36.1067C30.4635 42.0668 36.4262 43.5005 43.3484 41.5814C41.2569 44.4723 35.4271 46.7222 30.0012 45.4303C23.4786 43.8774 18.9158 38.1013 18.6912 31.7368C18.45 24.9037 23.2241 19.4741 26.9333 18.1812C22.701 24.0537 22.0646 30.1446 26.2647 36.1067ZM36.8589 9.6188C36.9727 8.92241 37.0222 8.21579 37.1016 7.51416H37.2715C38.0709 8.56726 43.3909 15.5034 49.5103 20.4332C49.5038 20.3438 49.5103 21.7929 47.8106 23.3228C47.8106 23.3228 47.4429 22.5438 47.8093 23.3259C48.9898 25.8478 49.5612 28.4971 49.5324 31.3002C49.4907 35.3792 48.0497 38.9189 45.6004 42.1025C45.202 42.6204 44.742 43.0912 44.3106 43.5837C44.0708 43.3811 44.162 43.4885 44.0878 43.4405C44.2474 43.0317 44.4018 42.6207 44.5677 42.2142C46.5882 37.2679 45.9052 32.746 42.3939 28.7013C41.6574 27.8529 40.0982 26.3018 39.9826 26.3317C32.5118 28.2523 26.5134 24.9625 27.6124 24.1796C32.6567 20.5881 35.8512 15.7872 36.8589 9.6188ZM33.5316 8.704C33.5767 8.68015 33.5542 8.69194 33.5316 8.704C34.0076 9.22636 34.4545 9.79379 34.92 10.3253C35.3474 10.8139 35.5715 11.2537 35.5715 11.2537C35.7416 11.9338 34.5517 14.9935 33.8718 15.5033V15.5036C34.1001 15.5038 33.8409 15.5269 33.8718 15.5036C33.8703 15.5036 33.8697 15.5033 33.8682 15.5033C34.0417 13.1237 33.8718 11.0838 33.5316 8.704C33.4868 8.72785 33.5094 8.71579 33.5316 8.704ZM32.5 0C14.5508 0 0 14.5508 0 32.5C0 50.4494 14.5508 65 32.5 65C50.4494 65 65 50.4494 65 32.5C65 14.5508 50.4494 0 32.5 0Z" fill="url(#paint0_linear)"/>
<defs>
<linearGradient id="paint0_linear" x2="1" gradientUnits="userSpaceOnUse" gradientTransform="translate(-4.55568 25.7277) scale(63.6892) rotate(18.5402)">
<stop stop-color="#7268FF"/>
<stop offset="1" stop-color="#00A7DB"/>
</linearGradient>
</defs>
</svg>
