<svg width="65" height="65" viewBox="0 0 65 65" fill="none" xmlns="http://www.w3.org/2000/svg">
<path fill-rule="evenodd" clip-rule="evenodd" d="M53.0301 48.4051H38.4467V48.1692C38.4467 46.9893 43.4965 48.3108 43.4022 43.4025L42.9302 19.1438H42.8358L33.4913 38.2109L36.7004 44.0632L36.2286 44.3463C34.6712 42.6474 33.2079 42.1282 30.8011 42.081C27.2615 35.143 22.3058 27.5448 18.6718 19.9936H18.5774L18.1526 41.2787C18.1054 42.8361 18.3413 44.0632 18.6718 45.0542C19.6628 48.1692 23.5329 47.0836 23.5329 48.1692V48.4051H11.97V48.1692C11.97 46.8949 17.1144 48.7825 17.3031 41.2787L17.7752 21.4566C17.8695 16.8314 12.7722 18.0585 12.7722 16.9729V16.5952H21.5035L33.0664 37.4558L43.2607 16.5952H52.4637V16.9729C52.4637 18.0585 47.178 16.8785 47.2723 21.5038L47.7443 43.355C47.8387 48.4523 52.9829 47.0836 53.0301 48.1692V48.4051ZM32.5 0C14.5508 0 0 14.5508 0 32.5C0 50.4494 14.5508 65 32.5 65C50.4492 65 65 50.4494 65 32.5C65 14.5508 50.4492 0 32.5 0Z" fill="url(#paint0_linear)"/>
<defs>
<linearGradient id="paint0_linear" x2="1" gradientUnits="userSpaceOnUse" gradientTransform="translate(32.5) scale(65) rotate(90)">
<stop stop-color="#E4C079"/>
<stop offset="1" stop-color="#BD974C"/>
</linearGradient>
</defs>
</svg>
