<svg width="65" height="65" viewBox="0 0 65 65" fill="none" xmlns="http://www.w3.org/2000/svg">
<path fill-rule="evenodd" clip-rule="evenodd" d="M0 32.5C0 14.5508 14.5505 0 32.5 0C50.4492 0 65 14.5508 65 32.5C65 50.4495 50.4492 65 32.5 65C14.5505 65 0 50.4495 0 32.5ZM44.6366 21.7559C46.1161 22.8855 47.4554 24.1887 48.6252 25.6353C48.834 27.1404 48.9445 28.677 48.9445 30.2395C48.9445 36.3398 47.2981 42.0552 44.4281 46.9678C46.0909 43.012 47.0107 38.667 47.0107 34.1067C47.0107 29.7417 46.1671 25.5742 44.6366 21.7559ZM17.1421 21.2629C16.0161 22.0608 14.9651 22.9568 14 23.9377C23.7731 25.075 32.2518 30.4517 37.5461 38.1838C34.2915 29.4377 26.5623 22.8728 17.1421 21.2629ZM41.9244 19.97C43.9452 24.2598 45.0769 29.0508 45.0769 34.1067C45.0769 38.5349 44.2081 42.7595 42.6355 46.6226C43.2192 44.1567 43.53 41.5854 43.53 38.9409C43.53 30.8076 40.6049 23.3584 35.7515 17.5842C37.9437 18.0852 40.0172 18.8972 41.9244 19.97ZM30.5552 17.0002C29.2468 17.0002 27.9642 17.1101 26.7148 17.3181C35.79 22.9824 41.9325 32.9065 42.345 44.2922C42.4873 43.0435 42.5631 41.7749 42.5631 40.488C42.5631 31.377 38.8933 23.1238 32.9526 17.1228C32.1644 17.042 31.3646 17.0002 30.5552 17.0002ZM19.4828 19.8042C21.1862 18.8787 23.0189 18.1616 24.946 17.6836C33.3263 22.2351 39.2872 30.6763 40.4037 40.5854C37.0662 30.8044 29.2931 23.0781 19.4828 19.8042Z" fill="url(#paint0_linear)"/>
<defs>
<linearGradient id="paint0_linear" x2="1" gradientUnits="userSpaceOnUse" gradientTransform="translate(32.5) scale(65) rotate(90)">
<stop stop-color="#61B3FA"/>
<stop offset="1" stop-color="#5492CC"/>
</linearGradient>
</defs>
</svg>
