<svg width="65" height="65" viewBox="0 0 65 65" fill="none" xmlns="http://www.w3.org/2000/svg">
<path fill-rule="evenodd" clip-rule="evenodd" d="M42.5939 41.8441C44.7179 45.8068 43.2305 50.7392 39.2681 52.8632L38.9704 53.0238C35.008 55.1479 30.0756 53.6605 27.9513 49.6978L21.6683 37.9829C19.6205 34.1681 20.9305 29.442 24.5784 27.2042L22.4061 23.1558C20.2761 19.1932 21.7695 14.2608 25.7264 12.1368L26.0236 11.9761C29.9862 9.85205 34.9186 11.3395 37.0426 15.3021L43.3317 27.0113C45.3797 30.8321 44.0689 35.5538 40.4203 37.791L42.5939 41.8441ZM32.5 0C14.5508 0 0 14.5506 0 32.5C0 50.4492 14.5508 65 32.5 65C50.4494 65 65 50.4492 65 32.5C65 14.5506 50.4494 0 32.5 0Z" fill="url(#paint0_linear)"/>
<defs>
<linearGradient id="paint0_linear" x2="1" gradientUnits="userSpaceOnUse" gradientTransform="translate(10.486 15.7533) scale(71.4085) rotate(36.6825)">
<stop stop-color="#3D87FF"/>
<stop offset="1" stop-color="#E3372D"/>
</linearGradient>
</defs>
</svg>
