<svg width="65" height="65" viewBox="0 0 65 65" fill="none" xmlns="http://www.w3.org/2000/svg">
<path fill-rule="evenodd" clip-rule="evenodd" d="M32.5 0C14.5506 0 0 14.5508 0 32.5C0 50.4494 14.5506 65 32.5 65C50.4492 65 65 50.4494 65 32.5C65 14.5508 50.4492 0 32.5 0ZM17.5542 35.3124C16.3221 34.3915 15.1804 33.538 14.0011 32.6565C13.3876 33.3135 12.6938 34.0567 11.9999 34.7999V35.1496C13.1451 36.7733 14.8885 37.3619 16.7171 37.8741C17.0148 36.9633 17.3103 36.0586 17.5542 35.3124ZM51.5269 35.5298C51.3429 35.1565 51.1589 34.7833 50.975 34.41C51.2646 34.3206 51.5543 34.2313 52.0251 34.0859C51.903 34.742 51.8369 35.0976 51.7708 35.4531C51.6895 35.4788 51.6082 35.5043 51.5269 35.5298ZM39.402 25.1277L41.2482 26.1724C41.719 26.4387 42.2072 26.715 42.7289 27.0102C41.1145 27.3043 40.2618 26.8286 39.402 25.1277ZM35.8243 28.7288C34.7849 29.8847 33.9004 31.0868 34.5476 32.8477C33.4349 31.4732 34.4106 28.9799 36.6867 27.6924C36.3999 28.0384 36.1247 28.3948 35.8243 28.7288ZM50.4734 32.1759C48.8606 30.5776 47.3182 28.9048 45.8133 27.2038C45.4872 26.8354 45.2744 26.2148 45.2987 25.7246C45.3338 25.0115 45.0939 24.5596 44.5625 24.17C43.2473 23.206 41.9637 22.1961 40.6185 21.2765C39.734 20.6719 38.7867 20.1451 37.8216 19.6787C37.4021 19.4758 36.8401 19.3741 36.3882 19.4613C31.0559 20.4918 26.4759 22.8765 22.8339 26.9887C19.6573 30.5756 18.0845 34.9493 16.6154 39.3787C16.5464 39.5866 16.8003 40.0598 17.0267 40.1828C18.7084 41.0952 20.3522 42.1415 22.1376 42.786C26.6197 44.4038 31.2751 44.4356 35.9399 43.7779C37.8799 43.5044 39.7962 43.0636 41.7906 42.686C41.6679 42.4246 41.649 42.3354 41.5958 42.2781C39.8442 40.3893 37.9837 38.6864 35.5321 37.6725C31.0596 35.8229 30.2543 29.7319 34.1074 26.8947C35.1332 26.1394 35.1605 25.21 35.2762 24.0396C34.9066 24.2006 34.6418 24.2957 34.3956 24.4262C32.204 25.5875 30.4589 27.2273 29.2551 29.3974C27.2634 32.9885 26.7797 36.8701 27.1504 40.8994C27.2086 41.5331 27.3031 42.1637 27.3807 42.7958C24.377 34.8257 28.3521 24.756 36.1434 22.9571C36.0168 23.9322 35.8701 24.8732 35.7804 25.8194C35.7207 26.4494 35.4838 26.8677 34.899 27.1937C33.8783 27.7629 33.1407 28.6161 32.8211 29.7798C32.0735 32.501 33.768 35.4798 36.5311 36.1674C37.1148 36.3126 37.8758 36.3528 38.3817 36.0975C40.3473 35.1051 42.115 35.601 43.8485 36.6006C44.6646 37.0712 45.1722 37.8159 45.387 38.7406C45.6822 40.0109 46.14 40.2629 47.3282 39.7026C47.7851 39.4871 48.1742 39.1276 48.6665 38.7831C47.8537 37.8346 47.1254 36.9846 46.4056 36.1445C46.8183 35.6589 47.0916 35.6691 47.5262 36.0637C48.4969 36.9453 49.032 38.3148 50.6296 38.5369C51.2042 38.6168 51.5217 38.6796 51.6929 38.1667C52.1766 36.716 52.6044 35.2464 52.9999 33.9602C52.0042 33.2699 51.133 32.8295 50.4734 32.1759ZM41.2827 43.433C38.9663 43.9721 36.6175 44.4416 34.2555 44.6996C29.7521 45.191 25.2863 44.9045 21.036 43.1864C19.3612 42.5093 17.7983 41.556 16.1853 40.729C15.5687 42.0241 15.5701 42.0222 16.7706 42.8823C19.0857 44.5411 21.584 45.8252 24.3574 46.5187C28.5849 47.5756 32.8436 47.3934 37.0986 46.733C39.3136 46.389 41.4783 45.8436 43.4982 44.6102C43.3342 44.3803 43.2183 44.2474 43.1352 44.0965C42.7089 43.3228 42.1796 43.2242 41.2827 43.433ZM18.0264 34.2287C18.3733 33.4432 18.6643 32.7845 18.8872 32.2793C18.1489 31.2934 17.4823 30.4031 16.7795 29.4646C16.2871 29.783 15.7167 30.1749 15.1237 30.5287C14.621 30.8284 14.6241 31.2049 14.9116 31.6239C15.6987 32.7714 16.8414 33.4738 18.0264 34.2287ZM32.7555 20.1524C32.931 20.0733 33.1344 19.7907 33.1246 19.6118C33.0823 18.8414 32.9655 18.0751 32.8548 17.1263C32.4012 17.0301 31.787 16.9451 31.2199 17.0598C30.3617 18.3059 30.9118 19.4415 31.3289 20.6207C31.8276 20.464 32.3115 20.3524 32.7555 20.1524ZM25.5101 24.0137C26.0772 23.5732 26.5693 23.1908 26.9762 22.8748C26.5952 21.9513 26.2598 21.1388 25.8378 20.1162C25.4423 20.3971 24.4618 20.6198 24.0715 20.8423C24.0367 20.8622 24.0445 20.8734 24.0666 20.8786C23.8601 22.1087 24.7178 23.0012 25.5101 24.0137ZM21.1845 28.5224C21.6334 27.8404 21.9649 27.3368 22.2452 26.9108C21.7005 26.1419 21.2035 25.4403 20.6583 24.6709C20.3351 24.8484 19.9751 25.0941 19.5799 25.2522C18.9439 25.5064 18.869 25.9501 19.238 26.4063C19.8228 27.1294 20.495 27.7816 21.1845 28.5224ZM19.4749 31.1063C19.865 30.4173 20.1471 29.9189 20.395 29.4811C19.7756 28.7354 19.211 28.0555 18.6114 27.3335C18.3046 27.5423 17.9664 27.8188 17.5884 28.02C16.9384 28.3661 16.9823 28.841 17.4006 29.2644C18.032 29.9034 18.7427 30.464 19.4749 31.1063ZM27.4603 18.4504C27.4684 18.4744 27.4708 18.4819 27.4603 18.4504V18.4504ZM27.4537 18.4305C27.4467 18.4102 27.4371 18.3814 27.4238 18.342C27.4317 18.3655 27.4439 18.4018 27.4537 18.4305ZM28.2682 22.0378C28.8072 21.7797 29.3167 21.5357 29.7555 21.3257C29.5642 20.3045 29.391 19.3803 29.1871 18.2914C28.9913 18.0233 27.9384 18.1284 27.422 18.3369C27.422 18.3367 27.422 18.3367 27.422 18.3367C27.422 18.3367 27.422 18.3367 27.422 18.3369C26.92 19.9229 27.653 20.9368 28.2682 22.0378ZM27.422 18.3367C27.4154 18.3169 27.4131 18.3104 27.422 18.3367V18.3367ZM21.5689 22.9675C21.5646 22.9194 21.5663 22.9387 21.5689 22.9675V22.9675ZM21.569 22.9675C21.5693 22.9717 21.5695 22.9729 21.57 22.9782C21.5697 22.9745 21.5693 22.9712 21.569 22.9675ZM23.1497 26.1608C23.5881 25.6873 23.9967 25.2461 24.3477 24.867C23.9037 24.0204 23.4943 23.2398 23.0044 22.3057C22.5499 22.6584 22.0454 22.6094 21.5699 22.9784C21.5729 23.0118 21.5758 23.0427 21.5699 22.9784C21.4879 23.0142 21.406 23.0499 21.324 23.0858C21.2102 24.4763 22.2641 25.2484 23.1497 26.1608ZM35.5807 19.3496C35.5204 18.6089 35.4653 17.9313 35.4032 17.168C34.9538 17.194 34.4769 16.9655 33.8005 17.0048C33.9032 17.7555 34.0121 18.8093 34.1377 19.7279C34.7518 19.5668 35.1629 19.4591 35.5807 19.3496Z" fill="url(#paint0_linear)"/>
<defs>
<linearGradient id="paint0_linear" x2="1" gradientUnits="userSpaceOnUse" gradientTransform="translate(32.5 65) scale(65) rotate(-90)">
<stop stop-color="#6198F3"/>
<stop offset="1" stop-color="#71E2E6"/>
</linearGradient>
</defs>
</svg>
