<svg width="65" height="65" viewBox="0 0 65 65" fill="none" xmlns="http://www.w3.org/2000/svg">
<path fill-rule="evenodd" clip-rule="evenodd" d="M57.6654 40.1664H57.6277L55.4958 38.0342H55.5332L41.1469 23.648L34.0077 30.7872L41.2547 38.0342H52.6853L54.8172 40.1664H40.3717L32.5001 32.2948L24.6285 40.1664H10.1882L12.3204 38.0342H23.7452L30.9922 30.7872L23.8532 23.648L7.37773 40.1664H7.33474L7.23777 40.2633H4.2226L23.8532 20.6328L32.5001 29.2796L41.1469 20.6328L60.7775 40.2633H57.7624L57.6654 40.1664ZM32.5001 0C14.5506 0 0 14.5508 0 32.5C0 50.4492 14.5506 65 32.5001 65C50.4494 65 65 50.4492 65 32.5C65 14.5508 50.4494 0 32.5001 0Z" fill="url(#paint0_linear)"/>
<defs>
<linearGradient id="paint0_linear" x2="1" gradientUnits="userSpaceOnUse" gradientTransform="translate(10.486 15.7533) scale(71.4085) rotate(36.6825)">
<stop stop-color="#34A5FF"/>
<stop offset="1" stop-color="#4818F6"/>
</linearGradient>
</defs>
</svg>
