<svg width="65" height="65" viewBox="0 0 65 65" fill="none" xmlns="http://www.w3.org/2000/svg">
<path fill-rule="evenodd" clip-rule="evenodd" d="M56.1383 27.5665C55.7989 27.4409 55.6256 27.0641 55.7512 26.7246C55.877 26.3852 56.2539 26.212 56.5933 26.3375C56.9324 26.4631 57.1057 26.8402 56.9801 27.1794C56.8546 27.5188 56.4777 27.692 56.1383 27.5665ZM54.5406 26.9751C54.3898 27.3824 53.9375 27.5903 53.5302 27.4396C53.1231 27.2889 52.915 26.8365 53.0657 26.4292C53.2167 26.0219 53.6691 25.814 54.0761 25.965C54.4834 26.1157 54.6913 26.5678 54.5406 26.9751ZM51.7188 27.0484C51.5177 27.5915 50.9144 27.8685 50.3716 27.6677C49.8285 27.4667 49.5512 26.8634 49.7523 26.3206C49.9533 25.7775 50.5564 25.5002 51.0994 25.7012C51.6425 25.9023 51.9195 26.5053 51.7188 27.0484ZM48.4234 27.6453C48.1972 28.256 47.5187 28.5679 46.908 28.342C46.297 28.1158 45.9851 27.4372 46.2113 26.8262C46.4375 26.2156 47.1161 25.9037 47.7268 26.1299C48.3377 26.3558 48.6496 27.0344 48.4234 27.6453ZM45.5157 54.1562C45.1538 54.1562 44.8605 53.8629 44.8605 53.5009C44.8605 53.139 45.1538 52.8457 45.5157 52.8457C45.8777 52.8457 46.171 53.139 46.171 53.5009C46.171 53.8629 45.8777 54.1562 45.5157 54.1562ZM44.0742 51.0111C44.0742 50.5769 44.4262 50.2249 44.8605 50.2249C45.2948 50.2249 45.6468 50.5769 45.6468 51.0111C45.6468 51.4452 45.2948 51.7974 44.8605 51.7974C44.4262 51.7974 44.0742 51.4452 44.0742 51.0111ZM42.7637 48.128C42.7637 47.549 43.2331 47.0796 43.8121 47.0796C44.3911 47.0796 44.8605 47.549 44.8605 48.128C44.8605 48.7069 44.3911 49.1764 43.8121 49.1764C43.2331 49.1764 42.7637 48.7069 42.7637 48.128ZM40.929 45.114C40.929 44.4624 41.4572 43.9346 42.1085 43.9346C42.7601 43.9346 43.2879 44.4624 43.2879 45.114C43.2879 45.7653 42.7601 46.2934 42.1085 46.2934C41.4572 46.2934 40.929 45.7653 40.929 45.114ZM38.8323 41.8378C38.8323 41.1139 39.4188 40.5273 40.1428 40.5273C40.8664 40.5273 41.4532 41.1139 41.4532 41.8378C41.4532 42.5615 40.8664 43.1483 40.1428 43.1483C39.4188 43.1483 38.8323 42.5615 38.8323 41.8378ZM36.7355 39.0858C36.7355 38.2896 37.3811 37.6443 38.177 37.6443C38.9733 37.6443 39.6186 38.2896 39.6186 39.0858C39.6186 39.8818 38.9733 40.5274 38.177 40.5274C37.3811 40.5274 36.7355 39.8818 36.7355 39.0858ZM35.425 37.6442C34.4118 37.6442 33.5904 36.8225 33.5904 35.8095C33.5904 34.7963 34.4118 33.9749 35.425 33.9749C36.4383 33.9749 37.2597 34.7963 37.2597 35.8095C37.2597 36.8225 36.4383 37.6442 35.425 37.6442ZM33.3967 10.6805C33.1306 11.0238 32.6368 11.0865 32.2935 10.8202C31.9504 10.5544 31.8878 10.0604 32.1538 9.71703C32.4198 9.37394 32.9139 9.31156 33.257 9.57733C33.6 9.84336 33.6627 10.3374 33.3967 10.6805ZM32.6662 13.7623C32.3113 14.2199 31.6529 14.3033 31.1953 13.9487C30.7377 13.5938 30.6543 12.9354 31.009 12.4778C31.3638 12.0201 32.0222 11.9365 32.4798 12.2914C32.9375 12.646 33.0208 13.3044 32.6662 13.7623ZM32.3695 29.1182C31.7488 29.9192 30.5964 30.0652 29.7954 29.4443C28.9947 28.8233 28.8487 27.6709 29.4694 26.8702C30.0903 26.0695 31.2427 25.9232 32.0434 26.5442C32.8444 27.1651 32.9904 28.3172 32.3695 29.1182ZM30.7348 38.8474C29.7674 39.1482 28.7389 38.6081 28.4378 37.6407C28.1369 36.6733 28.6771 35.6448 29.6445 35.3436C30.6119 35.0425 31.6404 35.5827 31.9415 36.5503C32.2427 37.5177 31.7025 38.5462 30.7348 38.8474ZM28.3075 42.0735C27.5475 42.3099 26.7394 41.8855 26.503 41.1252C26.2663 40.3651 26.6907 39.5571 27.451 39.3207C28.2111 39.084 29.0191 39.5086 29.2558 40.2687C29.4922 41.0287 29.0679 41.8368 28.3075 42.0735ZM26.2251 44.6431C25.534 44.858 24.7996 44.4722 24.5844 43.781C24.3695 43.0901 24.7553 42.3555 25.4462 42.1403C26.1373 41.9254 26.872 42.3112 27.0869 43.0023C27.3021 43.6932 26.9163 44.4279 26.2251 44.6431ZM23.6422 47.3683C23.0203 47.562 22.3592 47.2148 22.1656 46.5928C21.9721 45.9708 22.3191 45.3096 22.9411 45.1161C23.5631 44.9225 24.2243 45.2697 24.418 45.8917C24.6114 46.5136 24.2642 47.1749 23.6422 47.3683ZM21.2314 49.7654C20.6787 49.9376 20.091 49.6289 19.9191 49.0761C19.7469 48.5233 20.0556 47.9355 20.6084 47.7635C21.1612 47.5913 21.7491 47.9001 21.921 48.4528C22.0929 49.0059 21.7844 49.5935 21.2314 49.7654ZM18.6429 30.921C18.2286 30.3276 18.3738 29.5106 18.9671 29.0963C19.5603 28.6819 20.3775 28.8271 20.7919 29.4202C21.2062 30.0136 21.061 30.8305 20.4676 31.2452C19.8745 31.6596 19.0573 31.5144 18.6429 30.921ZM18.7124 51.373C18.2978 51.502 17.8569 51.2706 17.728 50.8559C17.599 50.4413 17.8305 50.0004 18.2451 49.8715C18.6597 49.7423 19.1006 49.974 19.2295 50.3886C19.3585 50.8032 19.1271 51.2438 18.7124 51.373ZM16.9053 29.5771C16.3711 29.95 15.6359 29.8195 15.263 29.2856C14.89 28.7515 15.0205 28.0163 15.5547 27.6431C16.0886 27.2704 16.8238 27.4009 17.1967 27.9348C17.5699 28.4689 17.4394 29.2041 16.9053 29.5771ZM16.4906 52.6134C16.1452 52.7211 15.778 52.5282 15.6702 52.1825C15.5628 51.837 15.7557 51.4698 16.1014 51.3624C16.4468 51.2547 16.814 51.4476 16.9218 51.7933C17.0292 52.1387 16.8363 52.5059 16.4906 52.6134ZM13.7077 27.9742C13.233 28.3058 12.5794 28.1897 12.2478 27.715C11.9163 27.2403 12.0324 26.5867 12.507 26.2551C12.9817 25.9236 13.6353 26.0397 13.9669 26.5143C14.2984 26.989 14.1823 27.6427 13.7077 27.9742ZM11.0471 25.9958C10.6912 26.2445 10.2011 26.1575 9.95235 25.8016C9.70362 25.4454 9.7909 24.9553 10.1468 24.7065C10.5028 24.4581 10.9929 24.5451 11.2416 24.901C11.4903 25.2569 11.4033 25.7473 11.0471 25.9958ZM22.0793 30.1193C22.7319 29.6633 23.6306 29.8229 24.0867 30.4758C24.5425 31.1284 24.3829 32.0271 23.7302 32.4829C23.0774 32.939 22.1789 32.7793 21.7228 32.1265C21.2671 31.4738 21.4267 30.5751 22.0793 30.1193ZM25.9864 30.9072C26.8172 30.3269 27.961 30.53 28.541 31.3609C29.1213 32.1914 28.9182 33.3352 28.0876 33.9155C27.2568 34.4955 26.113 34.2924 25.5329 33.4618C24.9527 32.631 25.1558 31.4872 25.9864 30.9072ZM29.6122 22.8357C30.1 22.2064 31.0055 22.0916 31.6348 22.5793C32.2639 23.0671 32.3787 23.9726 31.8909 24.6019C31.4031 25.2312 30.4976 25.3458 29.8686 24.8583C29.2393 24.3702 29.1245 23.465 29.6122 22.8357ZM29.8481 19.5364C30.2916 18.9645 31.1148 18.8602 31.6867 19.3036C32.2589 19.7471 32.3632 20.5704 31.9197 21.1423C31.4763 21.7141 30.653 21.8185 30.0811 21.375C29.509 20.9318 29.4046 20.1085 29.8481 19.5364ZM30.4053 15.823C30.8043 15.3083 31.5452 15.2144 32.06 15.6136C32.575 16.0125 32.6688 16.7535 32.2696 17.2682C31.8705 17.783 31.1298 17.8771 30.615 17.4779C30.1 17.0787 30.0062 16.3381 30.4053 15.823ZM33.2648 7.4281C33.4866 7.14216 33.8983 7.09 34.1843 7.31173C34.4702 7.53321 34.5224 7.94496 34.3006 8.23091C34.0789 8.51685 33.6674 8.56901 33.3815 8.34728C33.0955 8.12581 33.0431 7.71405 33.2648 7.4281ZM34.5509 29.6365C34.9026 28.6861 35.9581 28.201 36.9082 28.553C37.8586 28.9047 38.3437 29.9602 37.992 30.9103C37.6403 31.8606 36.5848 32.3458 35.6344 31.994C34.6843 31.6423 34.1989 30.5866 34.5509 29.6365ZM38.9473 28.3296C39.2238 27.5829 40.0531 27.2015 40.7998 27.478C41.5463 27.7543 41.9274 28.5838 41.6511 29.3303C41.3746 30.077 40.5453 30.4581 39.7989 30.1818C39.0522 29.9053 38.6708 29.076 38.9473 28.3296ZM42.3336 27.487C42.5847 26.8082 43.3387 26.4617 44.0173 26.713C44.6961 26.9641 45.0429 27.7182 44.7915 28.3967C44.5402 29.0756 43.7864 29.422 43.1076 29.171C42.4287 28.9196 42.0822 28.1658 42.3336 27.487ZM9.00931 24.2224C8.71262 24.4294 8.30401 24.3568 8.09696 24.0604C7.88964 23.7637 7.96224 23.3551 8.25893 23.148C8.55562 22.9407 8.96397 23.0131 9.17129 23.3098C9.37835 23.6067 9.30601 24.0151 9.00931 24.2224ZM32.5 0C14.5508 0 0 14.5506 0 32.5C0 50.4492 14.5508 65 32.5 65C50.4492 65 65 50.4492 65 32.5C65 14.5506 50.4492 0 32.5 0Z" fill="url(#paint0_linear)"/>
<defs>
<linearGradient id="paint0_linear" x2="1" gradientUnits="userSpaceOnUse" gradientTransform="translate(32.5) scale(65) rotate(90)">
<stop stop-color="#6FD1F2"/>
<stop offset="1" stop-color="#36BEEB"/>
</linearGradient>
</defs>
</svg>
