<svg width="65" height="65" viewBox="0 0 65 65" fill="none" xmlns="http://www.w3.org/2000/svg">
<path fill-rule="evenodd" clip-rule="evenodd" d="M0 32.5C0 14.5508 14.5505 0 32.5 0C50.4492 0 65 14.5508 65 32.5C65 50.4495 50.4492 65 32.5 65C14.5505 65 0 50.4495 0 32.5ZM35.8485 15.9485C35.8485 16.0569 35.8433 16.1641 35.8333 16.2698L46.0266 22.1421C46.64 21.3689 47.5878 20.8728 48.6515 20.8728C50.5007 20.8728 52 22.3721 52 24.2212C52 26.0706 50.5007 27.5698 48.6515 27.5698C47.5879 27.5698 46.6403 27.074 46.0269 26.3008L35.8334 32.1731C35.8434 32.2786 35.8485 32.3857 35.8485 32.4939C35.8485 32.6023 35.8433 32.7095 35.8333 32.8152L46.0266 38.6875C46.64 37.9143 47.5878 37.4182 48.6515 37.4182C50.5007 37.4182 52 38.9175 52 40.7666C52 42.616 50.5007 44.1152 48.6515 44.1152C47.5879 44.1152 46.6403 43.6194 46.0269 42.8462L35.8334 48.7185C35.8434 48.824 35.8485 48.9312 35.8485 49.0393C35.8485 50.8887 34.3492 52.3879 32.5 52.3879C30.6506 52.3879 29.1515 50.8887 29.1515 49.0393C29.1515 48.9312 29.1566 48.8242 29.1666 48.7188L18.973 42.8462C18.3596 43.6194 17.4119 44.1152 16.3484 44.1152C14.499 44.1152 12.9999 42.616 12.9999 40.7666C12.9999 38.9175 14.499 37.4182 16.3484 37.4182C17.412 37.4182 18.3597 37.9141 18.9731 38.6873L29.1666 32.8149C29.1566 32.7092 29.1515 32.6023 29.1515 32.4939C29.1515 32.3857 29.1566 32.2788 29.1666 32.1733L18.973 26.3008C18.3596 27.074 17.4119 27.5698 16.3484 27.5698C14.499 27.5698 12.9999 26.0706 12.9999 24.2212C12.9999 22.3721 14.499 20.8728 16.3484 20.8728C17.412 20.8728 18.3597 21.3687 18.9731 22.1418L29.1666 16.2695C29.1566 16.1638 29.1515 16.0569 29.1515 15.9485C29.1515 14.0994 30.6506 12.6001 32.5 12.6001C34.3492 12.6001 35.8485 14.0994 35.8485 15.9485ZM31.515 45.8381C30.8397 46.0457 30.2554 46.4609 29.8367 47.0095L19.4154 42.1125C19.5964 41.7007 19.6969 41.2454 19.6969 40.7666C19.6969 40.2881 19.5964 39.833 19.4155 39.4211L29.8368 34.5239C30.2555 35.0725 30.8397 35.4878 31.515 35.6953V45.8381ZM35.1633 47.0095C34.7445 46.4609 34.1602 46.0457 33.4847 45.8381V35.6953C34.16 35.4878 34.7444 35.0728 35.1631 34.5242L45.5842 39.4211C45.4033 39.833 45.303 40.2881 45.303 40.7666C45.303 41.2454 45.4034 41.7007 45.5845 42.1125L35.1633 47.0095ZM35.1633 17.9785C34.7445 18.5271 34.1602 18.9424 33.4847 19.1499V29.2927C34.16 29.5002 34.7445 29.9153 35.1632 30.4639L45.5844 25.5669C45.4034 25.155 45.303 24.7 45.303 24.2212C45.303 23.7424 45.4034 23.2874 45.5844 22.8755L35.1633 17.9785ZM31.515 19.1499C30.8397 18.9424 30.2554 18.5269 29.8367 17.9783L19.4154 22.8755C19.5964 23.2874 19.6969 23.7424 19.6969 24.2212C19.6969 24.7 19.5964 25.155 19.4155 25.5669L29.8368 30.4641C30.2555 29.9155 30.8397 29.5002 31.515 29.2927V19.1499Z" fill="url(#paint0_linear)"/>
<defs>
<linearGradient id="paint0_linear" x2="1" gradientUnits="userSpaceOnUse" gradientTransform="translate(32.5) scale(65) rotate(90)">
<stop stop-color="#61B3FA"/>
<stop offset="1" stop-color="#009FEB"/>
</linearGradient>
</defs>
</svg>
