<svg width="65" height="65" viewBox="0 0 65 65" fill="none" xmlns="http://www.w3.org/2000/svg">
<path fill-rule="evenodd" clip-rule="evenodd" d="M32.5 0C14.5505 0 0 14.5508 0 32.5C0 50.4495 14.5505 65 32.5 65C50.4492 65 65 50.4495 65 32.5C65 14.5508 50.4492 0 32.5 0ZM35.3696 31.8438C35.4835 31.5439 35.5458 31.2185 35.5458 30.8787C35.5458 29.5403 34.5792 28.4275 33.306 28.2007L33.3412 14.644C33.8202 14.5225 34.2393 14.2507 34.5454 13.8818L48.074 21.6914C48.0569 21.8044 48.048 21.9202 48.048 22.0381C48.048 23.1453 48.83 24.0701 49.8717 24.29L49.8311 39.9868C49.4136 40.083 49.0394 40.2927 48.743 40.5818L35.3696 31.8438ZM35.075 12.4131C35.075 12.5957 35.0537 12.7737 35.0134 12.9441L48.4686 20.7112C48.8854 20.1213 49.5725 19.7363 50.3496 19.7363C51.6208 19.7363 52.6512 20.7668 52.6512 22.0381C52.6512 23.113 51.9143 24.0159 50.918 24.2688L50.8772 39.989C51.894 40.2275 52.6512 41.1404 52.6512 42.23C52.6512 43.501 51.6208 44.5315 50.3496 44.5315C49.6714 44.5315 49.0616 44.2383 48.6404 43.7715L34.8992 51.7036C35.0123 51.9758 35.075 52.2744 35.075 52.5874C35.075 53.8584 34.0446 54.8889 32.7733 54.8889C31.5022 54.8889 30.4717 53.8584 30.4717 52.5874C30.4717 52.283 30.5308 51.9922 30.6381 51.7263L16.957 43.8289C16.5385 44.2622 15.9515 44.5315 15.3015 44.5315C14.0304 44.5315 12.9999 43.501 12.9999 42.23C12.9999 41.1575 13.7335 40.2561 14.7262 40.0007V24.2671C13.7335 24.0117 12.9999 23.1104 12.9999 22.0381C12.9999 20.7668 14.0304 19.7363 15.3015 19.7363C16.0648 19.7363 16.7412 20.1079 17.1599 20.6799L30.5366 12.958C30.4941 12.7832 30.4717 12.6008 30.4717 12.4131C30.4717 11.1418 31.5022 10.1113 32.7733 10.1113C34.0446 10.1113 35.075 11.1418 35.075 12.4131ZM34.2841 50.8508L48.134 42.8557C48.0779 42.6567 48.048 42.4468 48.048 42.23C48.048 41.9609 48.0941 41.7026 48.179 41.4626L34.8165 32.7319C34.3199 33.2651 33.6117 33.5986 32.8256 33.5986C31.9474 33.5986 31.1663 33.1824 30.6689 32.5364L17.5015 41.5513C17.5676 41.7659 17.6031 41.9937 17.6031 42.23C17.6031 42.4744 17.5651 42.7102 17.4944 42.9312L31.2433 50.8677C31.6499 50.5056 32.1859 50.2856 32.7733 50.2856C33.3514 50.2856 33.8798 50.4988 34.2841 50.8508ZM17.5707 21.6506C17.592 21.7766 17.6031 21.906 17.6031 22.0381C17.6031 23.1477 16.8177 24.074 15.7725 24.2913V39.9766C16.2397 40.0737 16.6552 40.3125 16.9717 40.6462L30.1995 31.5901C30.1382 31.3633 30.1055 31.1248 30.1055 30.8787C30.1055 29.5703 31.0291 28.4778 32.2598 28.2173L32.2949 14.6648C31.7834 14.5566 31.3346 14.2786 31.0103 13.8926L17.5707 21.6506Z" fill="url(#paint0_linear)"/>
<defs>
<linearGradient id="paint0_linear" x2="1" gradientUnits="userSpaceOnUse" gradientTransform="translate(32.5) scale(65) rotate(90)">
<stop stop-color="#ACACAC"/>
<stop offset="1" stop-color="#555555"/>
</linearGradient>
</defs>
</svg>
