<svg width="65" height="65" viewBox="0 0 65 65" fill="none" xmlns="http://www.w3.org/2000/svg">
<path fill-rule="evenodd" clip-rule="evenodd" d="M29.9796 14.8083C20.2089 14.8083 12.2881 22.7292 12.2881 32.4999C12.2881 42.2706 20.2089 50.1914 29.9796 50.1914C39.7503 50.1914 47.6712 42.2706 47.6712 32.4999C47.6712 22.7292 39.7503 14.8083 29.9796 14.8083ZM32.5 53.4677C20.9198 53.4677 11.5323 44.0802 11.5323 32.5C11.5323 20.9197 20.9198 11.5322 32.5 11.5322C44.0803 11.5322 53.4678 20.9197 53.4678 32.5C53.4678 44.0802 44.0803 53.4677 32.5 53.4677ZM32.5 0C14.5508 0 0 14.5508 0 32.5C0 50.4492 14.5508 65 32.5 65C50.4492 65 65 50.4492 65 32.5C65 14.5508 50.4492 0 32.5 0Z" fill="url(#paint0_linear)"/>
<defs>
<linearGradient id="paint0_linear" x2="1" gradientUnits="userSpaceOnUse" gradientTransform="translate(32.5) scale(65) rotate(90)">
<stop stop-color="white"/>
<stop offset="1" stop-color="#B8B8B8"/>
</linearGradient>
</defs>
</svg>
