<svg width="65" height="65" viewBox="0 0 65 65" fill="none" xmlns="http://www.w3.org/2000/svg">
<path fill-rule="evenodd" clip-rule="evenodd" d="M32.5 0C14.5505 0 0 14.5508 0 32.5C0 50.4495 14.5505 65 32.5 65C50.4492 65 65 50.4495 65 32.5C65 14.5508 50.4492 0 32.5 0ZM35.6641 42.8828C35.8333 42.8972 36.0045 42.9048 36.1775 42.9048C39.4573 42.9048 42.116 40.2458 42.116 36.9661C42.116 36.8669 42.1135 36.7681 42.1088 36.6702L46.1613 35.9556C46.1946 36.2878 46.2115 36.625 46.2115 36.9661C46.2115 42.5078 41.7191 47.0002 36.1775 47.0002C30.6357 47.0002 26.1433 42.5078 26.1433 36.9661V17.0002H30.2389V28.8772C31.9016 27.6543 33.9552 26.9319 36.1775 26.9319C36.8864 26.9319 37.578 27.0056 38.2454 27.1453L36.8199 31.062C36.6089 31.0393 36.3945 31.0276 36.1775 31.0276C32.8977 31.0276 30.2389 33.6863 30.2389 36.9661C30.2389 39.1216 31.3873 41.009 33.1057 42.0496C34.8242 41.009 35.9727 39.1216 35.9727 36.9661C35.9727 36.8667 35.9702 36.7681 35.9653 36.6699L36.9954 36.4883L36.9966 36.9661C36.9966 39.3293 35.6161 41.3701 33.6176 42.3262C33.7841 42.4058 33.9547 42.478 34.1294 42.5422C36.4003 41.708 38.0204 39.5261 38.0204 36.9661C38.0204 36.8667 38.0179 36.7681 38.0131 36.6699L39.0431 36.4883L39.0443 36.9661C39.0443 39.7148 37.1768 42.0273 34.6412 42.7041C34.8091 42.749 34.9796 42.7866 35.153 42.8167C37.9451 42.3318 40.0682 39.8967 40.0682 36.9661C40.0682 36.8667 40.0658 36.7681 40.0609 36.6699L41.0909 36.4883L41.0922 36.9661C41.0922 40.074 38.7048 42.624 35.6641 42.8828ZM34.6415 46.9873C29.3378 46.7209 25.1194 42.3362 25.1194 36.9661V17.0002H24.0955V36.9661C24.0955 42.5078 28.5879 47.0002 34.1296 47.0002C34.3013 47.0002 34.4719 46.9958 34.6415 46.9873ZM32.5938 46.9873C27.29 46.7209 23.0717 42.3362 23.0717 36.9661V17.0002H22.0477V36.9661C22.0477 42.5078 26.5402 47.0002 32.0819 47.0002C32.2535 47.0002 32.4242 46.9958 32.5938 46.9873ZM21.0238 36.9661C21.0238 42.3362 25.2422 46.7209 30.5459 46.9873C30.3763 46.9958 30.2057 47.0002 30.0341 47.0002C24.4923 47.0002 19.9999 42.5078 19.9999 36.9661V17.0002H21.0238V36.9661ZM41.571 34.4773C41.5133 34.3525 41.4514 34.2302 41.3855 34.1101L44.2189 30.9634C44.8453 31.8013 45.344 32.7405 45.6858 33.752L41.571 34.4773ZM38.7914 31.6322C39.1369 31.8019 39.4635 32.0041 39.7672 32.2349L42.5134 29.185C41.8136 28.6144 41.0353 28.1364 40.1973 27.7695L38.7914 31.6322Z" fill="url(#paint0_linear)"/>
<defs>
<linearGradient id="paint0_linear" x2="1" gradientUnits="userSpaceOnUse" gradientTransform="translate(32.5 0.389927) scale(62.6683) rotate(90)">
<stop stop-color="#F7B658"/>
<stop offset="1" stop-color="#2282AA"/>
</linearGradient>
</defs>
</svg>
