<svg width="65" height="65" viewBox="0 0 65 65" fill="none" xmlns="http://www.w3.org/2000/svg">
<path fill-rule="evenodd" clip-rule="evenodd" d="M27.6616 23.9172C22.9279 23.923 19.0973 27.7166 19.097 32.3984C19.0968 37.1324 22.9548 40.9698 27.6857 40.9399C32.3961 40.91 36.2219 37.1309 36.2243 32.5048C36.2269 27.7135 32.4354 23.9112 27.6616 23.9172ZM50.2571 52.4767C49.0237 52.4426 47.9887 52.0023 47.1471 51.1416C46.3201 50.2955 45.9239 49.2649 45.9231 48.0866C45.9218 45.9971 45.9228 43.9079 45.9228 41.7168C42.1531 44.8735 37.9842 45.8194 33.2211 44.354C33.3956 44.2497 33.4845 44.1884 33.5804 44.1407C34.9632 43.4514 36.1927 42.5571 37.2437 41.4285C37.4773 41.1777 37.7378 41.0506 38.0882 41.0306C41.7956 40.8173 45.1352 37.8325 45.7632 34.1844C46.5888 29.3917 43.6758 25.1586 38.8588 24.2413C38.1409 24.1044 37.6274 23.8366 37.1486 23.3079C36.2609 22.3274 35.1847 21.5621 34.0351 20.9019C33.9395 20.8468 33.8462 20.7873 33.6855 20.6898C35.8685 20.0894 37.9975 19.9486 40.1564 20.438C42.3014 20.9239 44.1513 21.9765 45.8824 23.4143V20.5832H50.2571V52.4767ZM19.1068 41.5881V44.4117H14.7429V12.5234C15.9829 12.5455 17.0313 12.9881 17.8734 13.8672C18.678 14.7075 19.0798 15.7197 19.0746 16.8915C19.0654 18.9933 19.0722 21.0948 19.0722 23.2972C22.1181 20.7525 25.5122 19.4963 29.4649 20.1004C33.3832 20.6993 36.3924 22.6721 38.4417 26.0432C41.5389 31.1375 40.5356 37.6438 36.0498 41.6932C31.6736 45.6438 24.4056 46.2545 19.1068 41.5881ZM32.5 0C14.5508 0 0 14.5508 0 32.5C0 50.4494 14.5508 65 32.5 65C50.4492 65 65 50.4494 65 32.5C65 14.5508 50.4492 0 32.5 0Z" fill="url(#paint0_linear)"/>
<defs>
<linearGradient id="paint0_linear" x2="1" gradientUnits="userSpaceOnUse" gradientTransform="translate(18.0357) scale(72.874) rotate(63.1194)">
<stop stop-color="#41D4FC"/>
<stop offset="1" stop-color="#2E9CCB"/>
</linearGradient>
</defs>
</svg>
