<svg width="65" height="65" viewBox="0 0 65 65" fill="none" xmlns="http://www.w3.org/2000/svg">
<path fill-rule="evenodd" clip-rule="evenodd" d="M32.5 0C14.5506 0 0 14.5508 0 32.5C0 50.4494 14.5506 65 32.5 65C50.4492 65 65 50.4494 65 32.5C65 14.5508 50.4492 0 32.5 0ZM9.32214 26.1155H14.4725C15.4921 26.1155 16.2523 26.158 16.7533 26.2429C17.2543 26.3279 17.7025 26.5051 18.098 26.7747C18.4935 27.0442 18.8231 27.4031 19.0868 27.8513C19.3505 28.2996 19.4823 28.802 19.4823 29.3586C19.4823 29.9622 19.3197 30.5159 18.9945 31.0198C18.6693 31.5237 18.2284 31.9016 17.6718 32.1536C18.4569 32.3821 19.0604 32.7717 19.4823 33.3225C19.9042 33.8733 20.1151 34.5207 20.1151 35.2649C20.1151 35.8508 19.9789 36.4207 19.7064 36.9744C19.434 37.5281 19.0619 37.9705 18.5902 38.3015C18.1185 38.6326 17.537 38.8362 16.8456 38.9124C16.412 38.9592 15.3661 38.9885 13.7079 39.0002H9.32214V26.1155ZM11.9237 28.26V31.2395H13.6288C14.6425 31.2395 15.2723 31.2249 15.5184 31.1956C15.9637 31.1428 16.3138 30.989 16.5687 30.7341C16.8236 30.4792 16.951 30.1438 16.951 29.7278C16.951 29.3293 16.8412 29.0056 16.6215 28.7566C16.4017 28.5076 16.0751 28.3567 15.6415 28.304C15.3837 28.2747 14.6425 28.26 13.4178 28.26H11.9237ZM11.9237 33.384V36.8293H14.3319C15.2694 36.8293 15.8641 36.803 16.1161 36.7502C16.5028 36.6799 16.8177 36.5085 17.0609 36.2361C17.3041 35.9636 17.4257 35.5989 17.4257 35.1418C17.4257 34.7551 17.3319 34.427 17.1444 34.1575C16.9569 33.8879 16.6859 33.6917 16.3314 33.5686C15.9769 33.4456 15.2079 33.384 14.0243 33.384H11.9237ZM22.3212 39.0002V26.1155H27.7968C29.1737 26.1155 30.1742 26.2312 30.7982 26.4626C31.4222 26.6941 31.9218 27.1057 32.2968 27.6975C32.6718 28.2893 32.8593 28.9661 32.8593 29.7278C32.8593 30.6946 32.5751 31.4929 32.0067 32.1228C31.4384 32.7527 30.5888 33.1497 29.4579 33.3137C30.0204 33.6418 30.4847 34.0022 30.851 34.3948C31.2172 34.7874 31.7108 35.4846 32.3319 36.4866L33.9052 39.0002H30.7938L28.913 36.1965C28.245 35.1946 27.788 34.5632 27.5419 34.3025C27.2958 34.0417 27.035 33.863 26.7596 33.7664C26.4843 33.6697 26.0477 33.6213 25.4501 33.6213H24.9227V39.0002H22.3212ZM24.9227 31.5647H26.8475C28.0956 31.5647 28.8749 31.512 29.1854 31.4065C29.496 31.301 29.7391 31.1194 29.9149 30.8616C30.0907 30.6038 30.1786 30.2815 30.1786 29.8948C30.1786 29.4612 30.0629 29.1111 29.8314 28.8445C29.6 28.5779 29.2733 28.4094 28.8514 28.3391C28.6405 28.3098 28.0077 28.2952 26.953 28.2952H24.9227V31.5647ZM46.9305 39.0002H44.1005L42.9755 36.0735H37.8251L36.7616 39.0002H34.0018L39.0204 26.1155H41.7714L46.9305 39.0002ZM42.1405 33.9026L40.3651 29.1213L38.6249 33.9026H42.1405ZM51.2108 39.0002V28.2952H47.3876V26.1155H57.6268V28.2952H53.8124V39.0002H51.2108Z" fill="url(#paint0_linear)"/>
<defs>
<linearGradient id="paint0_linear" x2="1" gradientUnits="userSpaceOnUse" gradientTransform="translate(32.5) scale(65) rotate(90)">
<stop stop-color="#ACACAC"/>
<stop offset="1" stop-color="#555555"/>
</linearGradient>
</defs>
</svg>
