<svg width="65" height="65" viewBox="0 0 65 65" fill="none" xmlns="http://www.w3.org/2000/svg">
<path fill-rule="evenodd" clip-rule="evenodd" d="M31.6304 29.667L33.5524 21.9592C33.7726 22.0142 34.0422 22.0737 34.3478 22.1414C37.0667 22.7432 42.6354 23.9758 41.6163 28.0649C40.6186 32.0623 34.8907 30.5337 32.2643 29.833C32.0254 29.7693 31.8121 29.7122 31.6304 29.667ZM28.5408 42.0554L30.6606 33.5571C30.9236 33.6228 31.2449 33.6948 31.6089 33.7766C34.8668 34.5076 41.5435 36.0056 40.4221 40.5029C39.3278 44.9014 32.4426 43.0828 29.2929 42.2507C29.0096 42.1758 28.7567 42.1091 28.5408 42.0554ZM49.2427 28.1342C48.7358 31.5613 46.8359 33.2207 44.3135 33.8023C47.7771 35.6055 49.5397 38.3709 47.8607 43.1649C45.777 49.1187 40.8268 49.6211 34.244 48.3756L32.6462 54.7781L28.7858 53.816L30.3626 47.4992C29.3619 47.2507 28.3395 46.9868 27.2861 46.7008L25.7038 53.0475L21.8478 52.0854L23.4453 45.6705C22.5437 45.4396 21.6279 45.1946 20.6933 44.9602L15.6694 43.708L17.5859 39.289C17.5859 39.289 20.4304 40.0454 20.3919 39.9893C21.4848 40.2598 21.9697 39.5472 22.161 39.0722L24.6858 28.9511C24.8276 28.9852 24.965 29.0203 25.0936 29.0523C24.9395 28.9907 24.8001 28.9511 24.6924 28.9236L26.4932 21.6986C26.5407 20.8783 26.2581 19.8438 24.6945 19.4533C24.755 19.4126 21.8908 18.7563 21.8908 18.7563L22.9177 14.633L28.2417 15.9624L28.2372 15.982C29.0377 16.1812 29.8622 16.3702 30.7023 16.5615L32.2845 10.2217L36.1429 11.1838L34.5926 17.3992C35.6284 17.6359 36.6707 17.8744 37.6856 18.1273L39.2249 11.9523L43.0853 12.9145L41.5043 19.2564C46.3783 20.9354 49.943 23.4523 49.2427 28.1342ZM32.5 0C14.5508 0 0 14.5506 0 32.5C0 50.4492 14.5508 65 32.5 65C50.4494 65 65 50.4492 65 32.5C65 14.5506 50.4494 0 32.5 0Z" fill="url(#paint0_linear)"/>
<defs>
<linearGradient id="paint0_linear" x2="1" gradientUnits="userSpaceOnUse" gradientTransform="translate(32.5) scale(65) rotate(90)">
<stop stop-color="#FFB862"/>
<stop offset="0.981864" stop-color="#F76A1A"/>
</linearGradient>
</defs>
</svg>
