<svg width="65" height="65" viewBox="0 0 65 65" fill="none" xmlns="http://www.w3.org/2000/svg">
<path fill-rule="evenodd" clip-rule="evenodd" d="M43.4205 49.932L37.1847 43.6962V43.6959C37.5005 43.1463 37.7162 42.5448 37.8221 41.9197H46.6967C46.503 44.8753 45.3532 47.6876 43.4205 49.932ZM33.8393 54.7352V45.9052L33.838 45.9044C34.5265 45.7838 35.1841 45.5278 35.7731 45.1509L41.9654 51.3432C39.7064 53.3414 36.8485 54.5345 33.8393 54.7352ZM33.8393 27.2639C36.8479 27.4285 39.7116 28.6087 41.9627 30.6114L35.7298 36.8255C35.16 36.446 34.5152 36.1933 33.8393 36.0843V27.2639ZM46.6524 40.0792H37.8221V40.08C37.7207 39.4069 37.4633 38.7671 37.0707 38.2115L43.307 31.9531C45.2733 34.2279 46.4472 37.0795 46.6524 40.0792ZM32.0086 54.7477C28.9994 54.5844 26.1345 53.4049 23.8823 51.4025L30.1181 45.1638C30.6876 45.5433 31.3324 45.7963 32.0086 45.905V54.7477ZM19.2054 41.9666H28.0357C28.1314 42.6263 28.3895 43.2521 28.7869 43.7873L22.5508 50.0926C20.5843 47.8181 19.4103 44.9663 19.2054 41.9666ZM19.2054 28.5632L28.7869 38.1444C28.395 38.7252 28.1384 39.3863 28.0357 40.079H19.2054V28.5632ZM19.2277 10.2629L31.974 21.6652V36.0847C31.3622 36.2228 30.7775 36.4616 30.2444 36.7913C28.9921 35.5637 21.5721 28.0745 19.2054 25.708C19.2054 25.2848 19.2054 10.2629 19.2277 10.2629ZM32.5 0C14.5511 0 0 14.5506 0 32.5C0 50.4492 14.5511 65 32.5 65C50.4494 65 65 50.4492 65 32.5C65 14.5506 50.4494 0 32.5 0Z" fill="url(#paint0_linear)"/>
<defs>
<linearGradient id="paint0_linear" x2="1" gradientUnits="userSpaceOnUse" gradientTransform="translate(32.5) scale(65) rotate(90)">
<stop stop-color="#8EDBF8"/>
<stop offset="1" stop-color="#35BAEB"/>
</linearGradient>
</defs>
</svg>
