<svg width="65" height="65" viewBox="0 0 65 65" fill="none" xmlns="http://www.w3.org/2000/svg">
<path fill-rule="evenodd" clip-rule="evenodd" d="M0 32.5C0 14.5508 14.5505 0 32.5 0C50.4492 0 65 14.5508 65 32.5C65 50.4495 50.4492 65 32.5 65C14.5505 65 0 50.4495 0 32.5ZM53.0917 28.9448L43.886 13.0002H21.3694L10.1111 32.5002L21.3694 52.0002H43.886L53.0918 36.0554H49.4426L42.0614 48.8398H23.1938L13.7601 32.5002L23.1938 16.1604H42.0614L49.4425 28.9448H53.0917ZM46.8623 28.9448L40.7257 18.3159H24.5295L16.4315 32.3423L24.5295 46.3684H40.7257L46.6801 36.0554H43.0309L38.9012 43.2083H26.3542L20.0807 32.342L26.3542 21.4761H38.9012L43.2134 28.9448H46.8623ZM40.542 28.9448L37.5656 23.7896H27.6899L22.7521 32.342L27.6899 40.8948H37.5656L40.3595 36.0554H36.7103L35.741 37.7344H29.5144L26.4011 32.342L29.5144 26.9497H35.741L36.8928 28.9448H40.542Z" fill="url(#paint0_linear)"/>
<defs>
<linearGradient id="paint0_linear" x2="1" gradientUnits="userSpaceOnUse" gradientTransform="translate(32.5) scale(65) rotate(90)">
<stop stop-color="white"/>
<stop offset="1" stop-color="#B8B8B8"/>
</linearGradient>
</defs>
</svg>
