<svg width="65" height="65" viewBox="0 0 65 65" fill="none" xmlns="http://www.w3.org/2000/svg">
<path fill-rule="evenodd" clip-rule="evenodd" d="M51.1627 25.4697C49.3938 23.6697 47.0441 22.6792 44.5448 22.6792C42.0452 22.6792 39.6947 23.6697 37.9268 25.4697L31.2958 32.2187L37.9268 38.969C39.6947 40.7681 42.0452 41.7585 44.5448 41.7585C47.0441 41.7585 49.3938 40.7681 51.1617 38.969C54.8184 35.247 54.8184 29.1926 51.1627 25.4697ZM53.5032 41.3248C51.1115 43.7591 47.9297 45.1 44.5447 45.1C41.1597 45.1 37.9781 43.7591 35.5854 41.3248L26.6409 32.219L35.5854 23.1151C37.9771 20.6807 41.1597 19.3398 44.5447 19.3398C47.9297 19.3398 51.1115 20.6818 53.5032 23.1151C58.4356 28.1345 58.4356 36.3054 53.5032 41.3248ZM29.1394 41.3248C26.7467 43.7591 23.5659 45.1 20.1809 45.1C16.7959 45.1 13.6143 43.7591 11.2224 41.3248C6.28978 36.3054 6.28978 28.1345 11.2224 23.1151C13.6143 20.6807 16.7959 19.3398 20.1809 19.3398C23.5659 19.3398 26.7475 20.6807 29.1394 23.1151L29.5619 23.546L27.2206 25.8996L26.7978 25.4698C25.03 23.6697 22.6803 22.6792 20.1799 22.6792C17.6805 22.6792 15.3298 23.6697 13.5619 25.4698C9.90541 29.1926 9.90541 35.2462 13.5619 38.9691C15.3298 40.7681 17.6805 41.7588 20.1799 41.7588C22.6795 41.7588 25.0289 40.7681 26.7978 38.9691L27.2206 38.5382L29.5619 40.8921L29.1394 41.3248ZM32.5 0C14.5506 0 0 14.5508 0 32.5C0 50.4492 14.5506 65 32.5 65C50.4492 65 65 50.4492 65 32.5C65 14.5508 50.4492 0 32.5 0Z" fill="url(#paint0_linear)"/>
<defs>
<linearGradient id="paint0_linear" x2="1" gradientUnits="userSpaceOnUse" gradientTransform="translate(23.5956) scale(84.5513) rotate(63.5789)">
<stop stop-color="#6FD1F2"/>
<stop offset="1" stop-color="#36BEEB"/>
</linearGradient>
</defs>
</svg>
