<svg width="65" height="65" viewBox="0 0 65 65" fill="none" xmlns="http://www.w3.org/2000/svg">
<path fill-rule="evenodd" clip-rule="evenodd" d="M32.5 0C14.5505 0 0 14.5508 0 32.5C0 50.4495 14.5505 65 32.5 65C50.4492 65 65 50.4495 65 32.5C65 14.5508 50.4492 0 32.5 0ZM26.9041 47.6792C32.6089 49.7556 38.8071 47.7271 42.2633 43.1025C41.9418 42.7988 41.5787 42.4849 41.1741 42.1638C38.691 40.1934 35.0234 38.2412 30.8871 36.7358C26.7507 35.2302 22.6864 34.3682 19.5177 34.2817C19.0013 34.2676 18.5215 34.2749 18.08 34.3008C17.755 40.0649 21.1992 45.603 26.9041 47.6792ZM32.5723 32.1057C37.474 33.8899 41.6501 36.2871 44.4062 38.7947C46.3674 32.0564 42.7863 24.8601 36.0958 22.425C29.4055 19.99 22.0367 23.2002 19.2075 29.6228C22.9307 29.4734 27.6705 30.3218 32.5723 32.1057ZM13.5713 35.2C13.3245 35.8779 13.4734 36.666 13.9574 37.5164C12.9387 36.0791 12.5577 34.7104 12.9786 33.5542C14.29 29.9512 22.891 29.7739 32.1893 33.1582C41.4877 36.5425 47.9624 42.2068 46.6509 45.8101C46.2301 46.9663 45.0586 47.7698 43.3544 48.2158C44.2716 47.8757 44.8923 47.3677 45.139 46.6897C46.1967 43.7839 39.9873 38.8564 31.2701 35.6836C22.553 32.5107 14.6289 32.2942 13.5713 35.2ZM39.6981 18.5676L40.4583 21.3908L41.2184 18.5676L44.0416 17.8075L41.2184 17.0473L40.4583 14.2241L39.6981 17.0473L36.8749 17.8075L39.6981 18.5676ZM29.5642 16.8796L30.0681 18.7511L30.572 16.8796L32.4436 16.3757L30.572 15.8718L30.0681 14.0002L29.5642 15.8718L27.6927 16.3757L29.5642 16.8796ZM21.3579 20.335L21.761 21.8322L22.1641 20.335L23.6613 19.9318L22.1641 19.5287L21.761 18.0315L21.3579 19.5287L19.8606 19.9318L21.3579 20.335ZM16.6547 26.3818L17.0579 27.8791L17.461 26.3818L18.9582 25.9787L17.461 25.5756L17.0579 24.0784L16.6547 25.5756L15.1575 25.9787L16.6547 26.3818ZM47.6088 26.8616L48.4486 29.9809L49.2885 26.8616L52.4077 26.0218L49.2885 25.182L48.4486 22.0627L47.6088 25.182L44.4895 26.0218L47.6088 26.8616ZM48.1527 35.916L48.6566 37.7875L49.1605 35.916L51.0321 35.4121L49.1605 34.9081L48.6566 33.0366L48.1527 34.9081L46.2812 35.4121L48.1527 35.916Z" fill="url(#paint0_linear)"/>
<defs>
<linearGradient id="paint0_linear" x2="1" gradientUnits="userSpaceOnUse" gradientTransform="translate(32.5) scale(65) rotate(90)">
<stop stop-color="#FEF967"/>
<stop offset="1" stop-color="#FC8E00"/>
</linearGradient>
</defs>
</svg>
