<svg width="65" height="65" viewBox="0 0 65 65" fill="none" xmlns="http://www.w3.org/2000/svg">
<path fill-rule="evenodd" clip-rule="evenodd" d="M37.4458 10.5183L41.5314 11.4062L33.2887 12.0503L35.181 10.9988L36.438 10.3003L37.4458 10.5183ZM43.6611 13.5298L43.81 17.4868L39.819 21.6375L43.6611 13.5298ZM18.9238 25.4949V25.4917C18.9236 25.4902 18.9228 25.4893 18.922 25.4883L18.9204 25.4858L18.92 25.4819L18.9196 25.4783L18.1089 23.3518L19.4163 22.801L20.1376 28.6887L18.9257 25.501L18.9238 25.4949ZM18.5519 33.9597L20.9006 34.3594L15.8235 31.4458L18.5519 33.9597ZM22.2888 44.1836L23.1961 45.5198L24.6725 47.6938L23.144 48.7942L22.2888 44.1836ZM41.6064 48.3274L35.2568 46.3469L40.1677 45.8286L40.8436 47.0024L41.6064 48.3274ZM42.9455 40.7576L43.107 43.9426L44.0258 44.6672L48.1856 47.9475L46.4662 41.2441L42.9455 40.7576ZM30.6134 52.479L31.8882 53.0449L31.5184 52.8096L29.6559 51.6243L30.6134 52.479ZM21.9515 43.8198L21.3183 44.2869L21.0738 44.4675L22.7302 48.0081L21.9515 43.8198ZM21.6599 34.7463L24.2336 34.6042L24.2328 38.113L18.1915 38.5442L21.6599 34.7463ZM30.8099 52.8533L31.4958 54.3105L32.9557 53.8948L33.0734 53.8608L30.8099 52.8533ZM18.6339 38.7754L23.8894 40.2483L24.2063 38.3774L18.6339 38.7754ZM42.0018 48.679L44.9684 48.5586L47.8578 48.4414L41.5502 51.9507L41.9924 48.7478L42.0018 48.679ZM32.1166 12.2578L27.0277 11.3674L27.7361 12.4087L28.3633 13.3303L32.1166 12.2578ZM26.7545 38.8186L24.7096 34.8489L27.4367 36.635L26.7545 38.8186ZM24.1567 40.752L24.9457 47.3848L27.5262 43.897L24.1567 40.752ZM24.9361 27.1445L24.7495 27.8623L21.2654 29.4304L21.9511 28.8416L25.2263 26.0293L24.9361 27.1445ZM25.3535 17.6365L26.4066 20.8403L28.328 17.8599L28.1073 17.2676L27.5621 15.8062L25.3535 17.6365ZM24.2257 34.3403L21.8946 34.4653L24.0742 31.6155L24.2257 34.3403ZM21.9116 17.8928L23.0502 17.041L20.5629 18.3765L20.4491 18.5212L19.5983 19.6238L21.9116 17.8928ZM20.5936 28.4543L22.0084 22.7095L25.9327 21.4336L20.5936 28.4543ZM25.9958 21.1279L21.9207 19.2983L22.0237 22.4282L25.9958 21.1279ZM25.1254 17.8037L26.1525 20.9111L22.1084 19.0935L25.1254 17.8037ZM21.9924 43.415L23.775 40.4919L17.8898 38.8391L15.521 40.167L21.9924 43.415ZM18.6034 34.2344L21.3436 34.7039L18.0588 38.3008L18.6034 34.2344ZM24.4773 40.6848L27.6796 43.6812L28.7676 42.1023L28.9072 41.8992L24.4773 40.6848ZM25.4764 38.52L24.4983 38.144V35.0112L26.5101 38.917L25.4764 38.52ZM26.2178 39.0854L24.4697 38.4141L24.1675 40.1948L26.4432 39.1724L26.2178 39.0854ZM14.6821 25.8152L16.0479 30.1519L14.9958 30.5632L14.6821 25.8152ZM16.9349 39.0725L15.0673 39.5479L15.1343 39.6797L15.2929 39.9897L16.9349 39.0725ZM18.3201 34.1028L14.9125 39.1721L12.6121 32.697L14.8698 30.9238L18.3201 34.1028ZM25.1716 17.1562L26.2792 12.5562L25.6902 13.8792L24.7139 16.0759L25.1716 17.1562ZM18.73 20.3276L18.7276 20.335L18.1984 22.0205L18.5643 18.2764L18.73 20.3276ZM29.8824 52.1777L28.3934 50.8486L27.1993 52.7617L28.2133 52.6697L30.2289 52.4871L29.8824 52.1777ZM33.5571 53.7461L33.0728 51.8994L36.192 53.4475L33.8881 53.7095L33.5571 53.7461ZM29.3141 49.5615L25.5931 48.1538L28.359 50.4714L29.3141 49.5615ZM25.5984 25.6257L26.4561 21.3721L27.2227 22.0056L26.9422 27.4282L25.5984 25.6257ZM30.3705 20.0903L26.6466 21.1887L27.3708 21.7878L30.3705 20.0903ZM46.2276 19.2764L44.2766 17.6401L47.4189 17.3428L46.2276 19.2764ZM24.9681 28.084L24.5464 30.158L24.4321 30.7141L24.4211 30.7686L26.7562 27.9604L24.9681 28.084ZM27.6234 15.083L27.019 11.9231L26.9918 11.781L27.4339 12.4304L28.1628 13.502L27.6234 15.083ZM46.0864 19.5054L44.2682 17.9807L45.3766 20.6572L46.0864 19.5054ZM29.0887 52.8538L30.4618 52.7292L31.1721 54.2388L28.1493 53.1948L27.5654 52.9917L29.0887 52.8538ZM28.1931 50.6746L24.8618 47.8845L23.2615 49.0364L25.5939 51.3752L26.9246 52.7068L28.1931 50.6746ZM45.147 40.7971L42.9706 40.4963L43.1203 39.9233L43.9061 40.2288L45.4852 40.8438L45.147 40.7971ZM39.0635 51.7595L37.2458 53.2283L40.3187 52.3584L40.8712 52.2014L39.0635 51.7595ZM20.1864 44.0471L20.7025 44.4341L17.8566 46.9578L17.8066 46.8206L15.5125 40.542L20.1864 44.0471ZM40.5512 45.6401L47.7547 47.9417L43.2524 44.3911L42.9695 44.168L40.5512 45.6401ZM18.5824 25.3513L18.3835 25.3137L14.9296 24.6633L17.2554 23.7046L17.8606 23.4558L18.5824 25.3513ZM43.9024 17.7832L39.7652 22.074L43.8946 21.1409L45.1733 20.8508L43.9024 17.7832ZM36.1199 43.0422L34.5845 46.0979L29.5832 42.0186L29.9501 42.0759L36.1199 43.0422ZM44.1364 17.3875L47.4525 17.0764L46.2972 15.1992L45.4171 13.7759L44.1364 17.3875ZM25.4832 13.6995L24.4793 15.9546L19.0938 16.5713L25.3314 12.3101L26.4356 11.5562L25.4832 13.6995ZM34.858 14.22L38.7897 13.9253L42.0706 13.679L42.2968 11.6101L32.9937 12.3364L34.858 14.22ZM43.8466 12.8752L43.2187 12.1548L44.6044 13.0986L43.8466 12.8752ZM43.9096 13.1672L44.0485 16.8438L45.2172 13.5525L43.9096 13.1672ZM31.8357 14.6868L27.8078 15.3806L28.4109 13.5896L32.5077 12.4187L32.194 13.4771L31.8357 14.6868ZM39.9018 18.1426L38.2569 19.2471L39.304 21.8118L39.9018 18.1426ZM27.4385 15.5156L25.4346 17.2141L26.7303 11.8096L26.8093 12.2214L27.4385 15.5156ZM20.822 29.925L24.0891 31.0759L24.1866 30.6069L24.6796 28.1848L20.822 29.925ZM40.4265 45.4031L40.6928 44.4077L41.3842 41.8228L42.6882 40.8569L42.7906 42.8804L42.8443 43.937L40.4265 45.4031ZM39.8403 17.8682L34.9066 14.5884L34.4259 18.4102L38.0656 19.0596L39.8403 17.8682ZM30.6146 44.7605L27.9066 43.8135L29.1523 42.0054L30.4366 43.0527L33.9515 45.9202L30.6146 44.7605ZM29.0776 18.0769L31.4774 19.4797L33.7167 18.5967L29.0776 18.0769ZM21.3207 19.5669L19.4339 22.5034L18.1507 23.0491L18.9113 20.6245L18.97 20.4375L18.9724 20.4343L21.4418 19.3784L21.3207 19.5669ZM36.6463 53.376L38.6592 51.7485H33.4611L36.6463 53.376ZM18.3376 26.0854L17.2777 28.0193L17.9429 26.4194L18.0768 26.3062L18.3376 26.0854ZM40.5182 45.9121L41.961 48.4182L47.6537 48.1868L40.5182 45.9121ZM42.1931 40.8975L42.7626 40.2549L42.6916 40.5283L42.4999 40.6702L42.1931 40.8975ZM24.3844 40.3845L28.7211 41.5679L26.7496 39.3218L24.3844 40.3845ZM40.6068 42.0376L34.9989 45.8572L36.4077 43.054L40.6068 42.0376ZM41.7006 48.9448L39.2798 51.5425L41.2739 52.03L41.7006 48.9448ZM18.2872 34.6218L17.7552 38.593L15.1761 39.2498L18.2872 34.6218ZM17.8134 26.1853L18.5022 25.6028L15.412 25.0208L17.8134 26.1853ZM20.8649 44.6401L22.7953 48.7839L18.0584 47.1292L20.8649 44.6401ZM21.7945 43.6101L16.4928 40.9497L20.9102 44.2625L21.7945 43.6101ZM27.1509 36.1348L24.4918 34.3923L24.346 31.7488L27.1509 36.1348ZM42.3466 13.5669L43.5313 12.9653L43.5624 12.9492L42.5429 11.78L42.3466 13.5669ZM20.2319 18.374L18.9684 19.9885L18.7314 17.0576L20.0272 18.0869L20.2912 18.2971L20.2319 18.374ZM42.2863 13.8987L40.2031 17.9285L39.6399 21.4041L43.4885 13.2817L42.2863 13.8987ZM20.1942 17.885L18.9055 16.8589L23.8835 16.2891L20.4888 18.1187L20.1942 17.885ZM48.532 48.3285C48.5317 48.3293 48.5318 48.3301 48.5312 48.3312C48.5302 48.3348 48.5291 48.3382 48.5276 48.3416C48.5262 48.3448 48.5262 48.3485 48.5244 48.3516C48.5215 48.3568 48.516 48.3592 48.5126 48.3639C48.5089 48.3692 48.505 48.3741 48.5006 48.3789C48.4969 48.3825 48.4932 48.3857 48.4893 48.3888C48.4856 48.392 48.4846 48.3972 48.4804 48.3998C48.4796 48.4003 48.4785 48.4001 48.4775 48.4006C48.4738 48.4032 48.4696 48.4038 48.4654 48.4056L41.4473 52.3082C41.4462 52.3087 41.4449 52.3085 41.4439 52.309C41.4363 52.3129 41.4284 52.3163 41.4203 52.3187L40.7152 52.5181L36.6955 53.6596C36.6934 53.6604 36.691 53.6601 36.6889 53.6606C36.6863 53.6612 36.6845 53.6635 36.6818 53.6638L33.4735 54.0192C33.4722 54.0192 33.4706 54.0192 33.4691 54.0194L31.4635 54.5984C31.4514 54.6021 31.4391 54.6037 31.4271 54.6037C31.4126 54.6037 31.3982 54.6013 31.3841 54.5963L28.0945 53.453L26.9056 53.0423C26.8991 53.0402 26.8941 53.0347 26.8881 53.0313C26.8854 53.03 26.8833 53.0285 26.881 53.0269C26.8776 53.0248 26.8739 53.0229 26.8708 53.0206C26.8692 53.0193 26.8671 53.0188 26.8655 53.0172C26.8624 53.0148 26.8584 53.0138 26.8556 53.0112L25.3967 51.5487L22.9936 49.1429C22.9854 49.1387 22.9794 49.1326 22.9723 49.1266L17.7566 47.3074C17.7495 47.3048 17.7451 47.2988 17.7388 47.2953C17.7273 47.2888 17.7162 47.283 17.7073 47.2739C17.7005 47.267 17.6969 47.2589 17.6919 47.2508C17.6869 47.2432 17.6798 47.2372 17.6767 47.2285L17.6743 47.2217H17.6741L17.6455 47.1433L15.1123 40.2153C15.1121 40.2145 15.1126 40.2138 15.1123 40.213L14.7593 39.5208C14.759 39.5202 14.7593 39.5197 14.759 39.5189C14.7564 39.514 14.7538 39.509 14.7519 39.5037L12.333 32.695C12.3142 32.6418 12.3312 32.5825 12.3755 32.5479L14.7407 30.6907L14.3428 24.7272C14.3425 24.7259 14.3412 24.7251 14.3412 24.7238C14.341 24.723 14.3418 24.7223 14.3418 24.7212C14.3407 24.7078 14.3425 24.6945 14.3454 24.6811C14.3462 24.6782 14.3459 24.6753 14.3467 24.6727C14.347 24.6714 14.3467 24.6704 14.3473 24.6693C14.3496 24.6622 14.3541 24.6567 14.3575 24.6504C14.3596 24.6465 14.3611 24.6431 14.3635 24.6394C14.369 24.6308 14.3753 24.6237 14.3824 24.6169C14.384 24.6153 14.3842 24.6127 14.386 24.6111C14.3879 24.6096 14.3902 24.6098 14.3923 24.6085C14.4002 24.6022 14.4083 24.597 14.4175 24.5928C14.4214 24.5907 14.4233 24.586 14.4275 24.5841L17.2277 23.4325L17.8182 23.189L18.4451 16.7438C18.4451 16.7432 18.4454 16.7427 18.4454 16.7425C18.4462 16.7372 18.4438 16.7322 18.4454 16.727C18.4467 16.7218 18.4517 16.7186 18.4538 16.7136C18.4674 16.6754 18.4962 16.6457 18.5343 16.6332L24.8725 12.3062L26.6506 11.0914C26.6847 11.0537 26.7381 11.0369 26.789 11.0544C26.7903 11.055 26.7911 11.056 26.7924 11.0563L32.5763 12.0719L32.6775 12.0897L34.7913 10.9153L36.355 10.0464C36.3828 10.0309 36.4158 10.0265 36.4462 10.0328L37.5696 10.2771L42.4629 11.3357C42.4689 11.3367 42.4744 11.3383 42.4802 11.3401C42.4805 11.3401 42.4805 11.3404 42.4807 11.3404C42.4839 11.3414 42.4868 11.3433 42.4899 11.3443C42.4917 11.3451 42.4936 11.3459 42.4954 11.3467C42.5004 11.349 42.5056 11.3503 42.5103 11.3532C42.5137 11.3553 42.5174 11.3569 42.5206 11.3593L45.4615 13.3577C45.4629 13.3588 45.4631 13.3606 45.4644 13.3617C45.4807 13.3737 45.4951 13.3881 45.5045 13.4068C45.5061 13.4099 45.5061 13.4138 45.5072 13.417C45.5079 13.4188 45.5103 13.4199 45.5111 13.4217L46.5251 15.0695L47.7858 17.1089C47.7995 17.1306 47.8055 17.1553 47.805 17.1796C47.805 17.181 47.805 17.1817 47.805 17.1828C47.8052 17.1893 47.8016 17.1956 47.8008 17.2022C47.7992 17.2169 47.7984 17.2318 47.7916 17.2454C47.7908 17.247 47.7895 17.2478 47.7887 17.2491C47.7879 17.2504 47.7882 17.252 47.7874 17.2533L46.4242 19.5794C46.4221 19.5828 46.4219 19.5865 46.4195 19.5899L45.4655 21.0131L45.4647 21.0144C45.4647 21.0146 45.4644 21.0146 45.4644 21.0146L45.4629 21.017C45.4618 21.0186 45.46 21.0191 45.4589 21.0204C45.4534 21.0283 45.4466 21.0348 45.4395 21.0414C45.4369 21.0435 45.4356 21.0464 45.433 21.0485C45.4283 21.0519 45.4233 21.0542 45.418 21.0574C45.4152 21.0589 45.4125 21.0597 45.4094 21.0613C45.4005 21.0655 45.3921 21.0713 45.3819 21.0736L43.9993 21.386L39.411 22.4273C39.4048 22.43 39.3985 22.4313 39.3922 22.4334C39.3859 22.4349 39.3814 22.4407 39.3749 22.4412C39.3699 22.442 39.3649 22.4423 39.3599 22.4423C39.3576 22.4423 39.3555 22.4404 39.3531 22.4402C39.3411 22.4399 39.3287 22.4383 39.3167 22.4347C39.3075 22.4318 39.2997 22.4263 39.2915 22.4216C39.2897 22.4203 39.2876 22.42 39.286 22.419C39.2845 22.4179 39.2826 22.4184 39.2813 22.4174C39.2803 22.4166 39.2797 22.4155 39.2787 22.4148C39.2716 22.4095 39.2664 22.403 39.2603 22.3967C39.2559 22.3914 39.2506 22.387 39.2467 22.3812C39.2425 22.3749 39.2402 22.3676 39.2373 22.3605C39.2341 22.3537 39.2307 22.3471 39.2289 22.3398C39.2284 22.3372 39.2276 22.3351 39.2273 22.3327L37.997 19.317L34.286 18.6602L31.5209 19.7505C31.5185 19.7513 31.5159 19.7511 31.5135 19.7519C31.512 19.7524 31.5114 19.754 31.5099 19.7542L31.4831 19.7621L27.4867 22.0253L27.1874 27.782C27.1892 27.7914 27.1897 27.7998 27.1895 27.8092C27.1895 27.8197 27.1874 27.8292 27.1845 27.8394C27.1827 27.847 27.1842 27.8551 27.1808 27.8624C27.1793 27.8658 27.1756 27.8677 27.1735 27.8711C27.1648 27.9023 27.146 27.9269 27.1187 27.9442L24.3531 31.2658L27.7066 36.4962C27.7276 36.5289 27.7331 36.569 27.7215 36.606L26.9329 39.1297L29.1783 41.6896L30.0702 41.8293L36.3141 42.8041L41.202 41.6202L41.5893 41.1833L42.9326 39.6578C42.9727 39.6122 43.0393 39.6004 43.0922 39.629C43.0938 39.6298 43.0948 39.6311 43.0964 39.6319L44.1018 40.0235L46.6187 41.0016C46.631 41.0063 46.6402 41.0155 46.6504 41.0234C46.6525 41.0252 46.6551 41.026 46.657 41.0278C46.6575 41.0281 46.6583 41.0284 46.6588 41.0286C46.6596 41.0294 46.6601 41.0302 46.6609 41.031C46.6682 41.0378 46.6732 41.0456 46.6785 41.054C46.684 41.0619 46.6882 41.07 46.6918 41.0789C46.6934 41.0831 46.6971 41.0865 46.6981 41.091L48.5367 48.2515C48.5409 48.2685 48.5409 48.2855 48.5383 48.3023C48.5375 48.3112 48.5346 48.3196 48.532 48.3285ZM32.5 0C14.5506 0 0 14.5508 0 32.5C0 50.4492 14.5506 65 32.5 65C50.4492 65 65 50.4492 65 32.5C65 14.5508 50.4492 0 32.5 0Z" fill="url(#paint0_linear)"/>
<defs>
<linearGradient id="paint0_linear" x2="1" gradientUnits="userSpaceOnUse" gradientTransform="translate(23.5956) scale(84.5513) rotate(63.5789)">
<stop stop-color="#6FD1F2"/>
<stop offset="1" stop-color="#4397F7"/>
</linearGradient>
</defs>
</svg>
