<svg width="65" height="65" viewBox="0 0 65 65" fill="none" xmlns="http://www.w3.org/2000/svg">
<path fill-rule="evenodd" clip-rule="evenodd" d="M44.1528 31.6455L39.0233 22.909H39.0236L44.0244 14.0991L49.1539 22.8351H49.1541L49.1539 22.8353L54.2831 31.5713L44.1528 31.6455ZM49.1541 42.1649H49.1539L44.0244 50.9008L39.0236 42.091H39.0233L44.1528 33.3545L54.2831 33.4287L49.1539 42.1646L49.1541 42.1649ZM32.4716 51.5647V51.5649L32.4714 51.5647H22.3411L27.4061 42.7913H37.5374L37.5372 42.7915L42.6022 51.5647H32.4716ZM15.8464 42.1649H15.8461V42.1646L10.7169 33.4287L20.8472 33.3545L25.9767 42.091H25.9764L20.9756 50.9008L15.8464 42.1649ZM15.8461 22.8351H15.8464L20.9756 14.0991L25.9764 22.909H25.9767L20.8472 31.6455L10.7169 31.5713L15.8461 22.8353V22.8351ZM32.4714 13.4353L32.4716 13.4351V13.4353H42.6022L37.5372 22.2085L37.5374 22.2087H27.4061L22.3411 13.4353H32.4714ZM32.5 0C14.5508 0 0 14.5508 0 32.5C0 50.4494 14.5508 65 32.5 65C50.4492 65 65 50.4494 65 32.5C65 14.5508 50.4492 0 32.5 0Z" fill="url(#paint0_linear)"/>
<defs>
<linearGradient id="paint0_linear" x2="1" gradientUnits="userSpaceOnUse" gradientTransform="translate(32.5) scale(65) rotate(90)">
<stop stop-color="#71D9C2"/>
<stop offset="1" stop-color="#13BF99"/>
</linearGradient>
</defs>
</svg>
