<svg width="65" height="65" viewBox="0 0 65 65" fill="none" xmlns="http://www.w3.org/2000/svg">
<path fill-rule="evenodd" clip-rule="evenodd" d="M41.0014 20.5613L36.4791 21.009C36.4747 20.9872 35.7183 17.5509 33.4333 17.5509C30.3807 17.5509 28.8327 19.0988 28.8327 22.1517V37.4603C28.8327 37.5546 28.8686 37.6343 28.9394 37.6967C29.0076 37.7564 29.088 37.7837 29.1766 37.7743L41.0014 36.0633V40.7792L29.7742 42.4034C29.5653 42.4299 29.3564 42.443 29.1483 42.443C27.9427 42.443 26.7687 42.0045 25.8535 41.1983C24.7807 40.2526 24.1653 38.8903 24.1653 37.4603V22.1517C24.1653 16.5213 27.8035 12.8834 33.4333 12.8834C34.5035 12.8834 35.5133 13.117 36.4341 13.5662V11.7944H41.0014V20.5613ZM41.0014 50.7769L23.9986 53.2057V48.4909L41.0014 46.062V50.7769ZM32.5 0C14.5508 0 0 14.5508 0 32.5C0 50.4492 14.5508 65 32.5 65C50.4492 65 65 50.4492 65 32.5C65 14.5508 50.4492 0 32.5 0Z" fill="url(#paint0_linear)"/>
<defs>
<linearGradient id="paint0_linear" x2="1" gradientUnits="userSpaceOnUse" gradientTransform="translate(32.5) scale(65) rotate(90)">
<stop stop-color="#61A7E2"/>
<stop offset="1" stop-color="#4189C6"/>
</linearGradient>
</defs>
</svg>
