<svg width="65" height="65" viewBox="0 0 65 65" fill="none" xmlns="http://www.w3.org/2000/svg">
<path fill-rule="evenodd" clip-rule="evenodd" d="M0 32.5C0 14.5508 14.5505 0 32.5 0C50.4492 0 65 14.5508 65 32.5C65 50.4495 50.4492 65 32.5 65C14.5505 65 0 50.4495 0 32.5ZM22.2125 26.5576L23.7286 25.6851L22.2544 26.5576H22.2125ZM32.4654 18.2297L20.1201 25.344V39.6562H20.162L32.7165 46.8123L44.8106 39.74V37.3127L43.8481 36.8525L42.8438 36.3921L32.8002 41.958L24.3049 37.0615V27.7292L32.4654 23.0842L40.584 27.7712L42.7183 29.0266L44.8106 27.813L44.8107 25.344L42.7183 24.1304L32.4654 18.2297ZM42.7183 26.5576H42.6764L42.7183 26.5994V26.5576ZM48.5352 19.4016L32.4235 10.1113L13.1733 21.2429V43.7573L32.4235 54.8889L48.5352 45.5986L51.7993 43.7156V21.2849L48.5352 19.4016ZM51.7542 21.311L48.5352 23.168L48.4933 23.21L32.4654 13.9614L16.4793 23.168V41.8323L32.4654 51.0808L48.4933 41.7905V23.21L51.7542 21.311Z" fill="url(#paint0_linear)"/>
<defs>
<linearGradient id="paint0_linear" x2="1" gradientUnits="userSpaceOnUse" gradientTransform="translate(32.5) scale(65) rotate(90)">
<stop stop-color="#D7A938"/>
<stop offset="1" stop-color="#69581E"/>
</linearGradient>
</defs>
</svg>
