<svg width="65" height="65" viewBox="0 0 65 65" fill="none" xmlns="http://www.w3.org/2000/svg">
<path fill-rule="evenodd" clip-rule="evenodd" d="M53.5357 26.6199C53.3392 26.1615 53.0587 25.7875 52.6939 25.4971C52.329 25.2075 51.8657 25.0623 51.3042 25.0623C50.4621 25.0623 49.7138 25.4085 49.0591 26.1007C48.4039 26.7931 47.8522 27.6583 47.4032 28.6968C46.9542 29.7352 46.6127 30.858 46.3787 32.0647C46.1446 33.2717 46.0277 34.3992 46.0277 35.4468C46.0277 36.0646 46.0744 36.6446 46.1685 37.1871C46.2615 37.7299 46.4209 38.2022 46.6455 38.6045C46.8696 39.0071 47.1644 39.325 47.5293 39.5588C47.8946 39.7929 48.3384 39.9095 48.8628 39.9095C49.6669 39.9095 50.3924 39.5966 51.038 38.9694C51.6835 38.3427 52.2308 37.5428 52.6795 36.5696C53.1287 35.597 53.4699 34.5302 53.7045 33.3699C53.9378 32.2102 54.0547 31.0965 54.0547 30.03C54.0547 29.4125 54.0172 28.8047 53.9428 28.2056C53.8678 27.6072 53.7323 27.0786 53.5357 26.6199ZM55.0374 38.6606C54.2697 39.9236 53.3393 40.9482 52.2448 41.7339C51.15 42.5197 49.9197 42.9129 48.5542 42.9129C47.6177 42.9129 46.7858 42.7346 46.0559 42.3795C45.326 42.0241 44.7129 41.5235 44.2176 40.8777C43.7214 40.2324 43.3427 39.4561 43.0808 38.5482C42.8185 37.641 42.688 36.6354 42.688 35.5312C42.688 35.1155 42.7018 34.7001 42.7288 34.2849L41.3127 42.4356H37.7202L34.4364 28.1775H34.3522L31.9383 42.4356H29.0193L32.4717 22.5642H36.1203L39.292 36.9344H39.4044L41.8741 22.5642H44.7651L43.4525 30.1183C43.8433 28.756 44.3696 27.5149 45.0314 26.3953C45.7893 25.1139 46.7198 24.0754 47.8243 23.28C48.9277 22.4848 50.1724 22.0869 51.557 22.0869C52.53 22.0869 53.386 22.2696 54.1253 22.6344C54.8642 22.9993 55.4814 23.5091 55.9778 24.164C56.4735 24.819 56.843 25.605 57.0862 26.5216C57.3292 27.4387 57.4513 28.4491 57.4513 29.5527C57.4513 31.1623 57.2406 32.7666 56.8197 34.3661C56.3985 35.9662 55.8043 37.3976 55.0374 38.6606ZM27.6022 41.2567C27.0127 41.7997 26.3342 42.211 25.5673 42.4917C24.7999 42.7724 23.9858 42.9129 23.1256 42.9129C22.0211 42.9129 21.0063 42.7116 20.0803 42.3092C19.3068 41.9735 18.6823 41.5549 18.2024 41.0559C17.6978 41.524 17.1469 41.9208 16.5441 42.239C15.6923 42.6882 14.6774 42.9129 13.4988 42.9129C12.5445 42.9129 11.6976 42.7255 10.9585 42.3514C10.2191 41.9774 9.59746 41.458 9.09213 40.7938C8.58681 40.1297 8.20336 39.3389 7.94153 38.4221C7.67917 37.5055 7.54865 36.4949 7.54865 35.3907C7.54865 33.7256 7.773 32.0977 8.22223 30.5073C8.67121 28.9169 9.3026 27.4948 10.1167 26.2409C10.9305 24.9875 11.9081 23.9816 13.0498 23.2236C14.1907 22.4659 15.4446 22.0869 16.8106 22.0869C17.9515 22.0869 18.9158 22.2932 19.7015 22.7047C20.4873 23.1162 21.1048 23.687 21.5538 24.4167L19.2804 26.6901C18.9619 26.2037 18.5882 25.82 18.1578 25.5393C17.7272 25.2585 17.1846 25.1183 16.5299 25.1183C15.6503 25.1183 14.8643 25.4365 14.1724 26.0726C13.4799 26.7087 12.8904 27.5178 12.404 28.5002C11.9173 29.4825 11.5433 30.5589 11.2814 31.7281C11.0191 32.8976 10.8885 34.0155 10.8885 35.0822C10.8885 36.5043 11.1454 37.6599 11.6604 38.5482C12.1747 39.4372 12.984 39.8815 14.0882 39.8815C14.8179 39.8815 15.4446 39.699 15.9685 39.3342C16.4924 38.9694 16.9228 38.6003 17.2596 38.2255L18.5281 40.0474L19.9259 38.3938C20.2999 38.8808 20.7678 39.2736 21.3292 39.5727C21.8906 39.8723 22.4889 40.0217 23.1256 40.0217C24.0235 40.0217 24.7674 39.7509 25.3568 39.2079C25.9463 38.6653 26.2409 37.8887 26.2409 36.8783C26.2409 36.1673 26.0487 35.5592 25.6656 35.0539C25.2819 34.5488 24.6874 34.0532 23.8833 33.5665C23.4713 33.3235 23.0692 33.0473 22.6763 32.7385C22.2832 32.4298 21.937 32.0744 21.6379 31.6718C21.3383 31.2697 21.0998 30.8116 20.9221 30.2966C20.7442 29.7821 20.6556 29.1787 20.6556 28.4863C20.6556 27.532 20.8191 26.6618 21.1465 25.876C21.4738 25.0903 21.9186 24.4167 22.4798 23.8553C23.0412 23.2939 23.7051 22.8588 24.4725 22.5503C25.2397 22.2413 26.0726 22.0869 26.9705 22.0869C27.9812 22.0869 28.8883 22.251 29.6932 22.5783C30.4973 22.9057 31.1429 23.3597 31.6298 23.9394L29.6088 26.2128C28.9163 25.3524 28.0184 24.922 26.9145 24.922C26.5588 24.922 26.1989 24.992 25.8338 25.1322C25.4692 25.2724 25.1414 25.4787 24.8515 25.7497C24.5611 26.0212 24.3228 26.3628 24.136 26.7743C23.9486 27.186 23.8553 27.6633 23.8553 28.2056C23.8553 28.9169 24.0516 29.4925 24.4445 29.9317C24.8376 30.3715 25.361 30.7877 26.0162 31.1806C26.4277 31.443 26.8442 31.7329 27.2654 32.0508C27.6863 32.3692 28.0651 32.7385 28.4021 33.1595C28.7389 33.5804 29.0097 34.0577 29.2159 34.5908C29.4217 35.1241 29.5247 35.7372 29.5247 36.4291C29.5247 37.4958 29.3517 38.4315 29.0055 39.2359C28.659 40.0408 28.1914 40.7144 27.6022 41.2567ZM32.5 0C14.5506 0 0 14.5506 0 32.5C0 50.4492 14.5506 65 32.5 65C50.4492 65 65 50.4492 65 32.5C65 14.5506 50.4492 0 32.5 0Z" fill="url(#paint0_linear)"/>
<defs>
<linearGradient id="paint0_linear" x2="1" gradientUnits="userSpaceOnUse" gradientTransform="translate(23.5406 1.4166) scale(84.4076) rotate(68.9664)">
<stop stop-color="#7FDEF8"/>
<stop offset="1" stop-color="#41D4FC"/>
</linearGradient>
</defs>
</svg>
