<svg width="65" height="65" viewBox="0 0 65 65" fill="none" xmlns="http://www.w3.org/2000/svg">
<path fill-rule="evenodd" clip-rule="evenodd" d="M33.368 51.3711C22.9625 51.3711 14.4971 42.9056 14.4971 32.5001C14.4971 22.0946 22.9625 13.6292 33.368 13.6292C38.5043 13.6292 43.1655 15.6942 46.5714 19.0346L40.0879 25.5181C38.3434 23.8386 35.9751 22.8025 33.368 22.8025C28.0207 22.8025 23.6705 27.1528 23.6705 32.5001C23.6705 37.8474 28.0207 42.1977 33.368 42.1977C36.1083 42.1977 38.5845 41.0534 40.35 39.22L46.8335 45.7035C43.4066 49.1978 38.6372 51.3711 33.368 51.3711ZM32.5 0C14.5508 0 0 14.5508 0 32.5C0 50.4492 14.5508 65 32.5 65C50.4492 65 65 50.4492 65 32.5C65 14.5508 50.4492 0 32.5 0Z" fill="url(#paint0_linear)"/>
<defs>
<linearGradient id="paint0_linear" x2="1" gradientUnits="userSpaceOnUse" gradientTransform="translate(17.4078 2.53924) scale(61.3255) rotate(53.4457)">
<stop stop-color="#F8D175"/>
<stop offset="1" stop-color="#FFC029"/>
</linearGradient>
</defs>
</svg>
