<svg width="65" height="65" viewBox="0 0 65 65" fill="none" xmlns="http://www.w3.org/2000/svg">
<path fill-rule="evenodd" clip-rule="evenodd" d="M32.5 0C14.5506 0 0 14.5508 0 32.5C0 50.4494 14.5506 65 32.5 65C50.4492 65 65 50.4494 65 32.5C65 14.5508 50.4492 0 32.5 0ZM12.7802 25.6838H18.0634C19.2548 25.6838 20.163 25.775 20.788 25.9573C21.6278 26.2047 22.3472 26.6441 22.9462 27.2756C23.5452 27.9071 24.0009 28.6803 24.3134 29.595C24.6259 30.5097 24.7821 31.6376 24.7821 32.9788C24.7821 34.1572 24.6357 35.1728 24.3427 36.0256C23.9846 37.0673 23.4735 37.9104 22.8095 38.5549C22.3082 39.0432 21.6311 39.4241 20.7782 39.6975C20.1402 39.8993 19.2873 40.0002 18.2196 40.0002H12.7802V25.6838ZM15.6708 28.1057V37.5881H17.829C18.6363 37.5881 19.219 37.5426 19.5771 37.4514C20.0458 37.3342 20.4348 37.1357 20.744 36.8557C21.0533 36.5758 21.3056 36.1152 21.5009 35.4739C21.6962 34.8326 21.7939 33.9586 21.7939 32.8518C21.7939 31.745 21.6962 30.8954 21.5009 30.303C21.3056 29.7105 21.0321 29.2483 20.6806 28.9163C20.329 28.5842 19.883 28.3596 19.3427 28.2424C18.939 28.1513 18.148 28.1057 16.9696 28.1057H15.6708ZM40.1435 40.0002H36.9989L35.7489 36.7483H30.0263L28.8446 40.0002H25.7782L31.3544 25.6838H34.411L40.1435 40.0002ZM34.8212 34.3362L32.8485 29.0237L30.9149 34.3362H34.8212ZM41.6865 25.6838H47.4091C48.5419 25.6838 49.3867 25.731 49.9433 25.8254C50.4999 25.9198 50.998 26.1168 51.4374 26.4163C51.8769 26.7157 52.2431 27.1145 52.5361 27.6125C52.829 28.1106 52.9755 28.6689 52.9755 29.2874C52.9755 29.9579 52.7949 30.5732 52.4335 31.1331C52.0722 31.693 51.5823 32.1129 50.9638 32.3928C51.8362 32.6467 52.5068 33.0797 52.9755 33.6917C53.4443 34.3036 53.6786 35.023 53.6786 35.8499C53.6786 36.5009 53.5273 37.134 53.2245 37.7493C52.9218 38.3645 52.5084 38.856 51.9843 39.2239C51.4602 39.5917 50.8141 39.818 50.0458 39.9026C49.5641 39.9547 48.402 39.9872 46.5595 40.0002H41.6865V25.6838ZM44.5771 28.0667V31.3772H46.4716C47.5979 31.3772 48.2978 31.3609 48.5712 31.3284C49.066 31.2698 49.455 31.0989 49.7382 30.8157C50.0214 30.5325 50.163 30.1598 50.163 29.6975C50.163 29.2548 50.041 28.8951 49.7968 28.6184C49.5527 28.3417 49.1897 28.1741 48.7079 28.1155C48.4215 28.0829 47.5979 28.0667 46.2372 28.0667H44.5771ZM44.5771 33.76V37.5881H47.2529C48.2945 37.5881 48.9553 37.5588 49.2353 37.5002C49.665 37.4221 50.0149 37.2317 50.2851 36.929C50.5553 36.6262 50.6904 36.221 50.6904 35.7131C50.6904 35.2834 50.5862 34.9189 50.3779 34.6194C50.1695 34.3199 49.8684 34.1018 49.4745 33.9651C49.0807 33.8284 48.2262 33.76 46.9111 33.76H44.5771Z" fill="url(#paint0_linear)"/>
<defs>
<linearGradient id="paint0_linear" x2="1" gradientUnits="userSpaceOnUse" gradientTransform="translate(32.5) scale(65) rotate(90)">
<stop stop-color="#ACACAC"/>
<stop offset="1" stop-color="#555555"/>
</linearGradient>
</defs>
</svg>
