<svg width="65" height="65" viewBox="0 0 65 65" fill="none" xmlns="http://www.w3.org/2000/svg">
<path fill-rule="evenodd" clip-rule="evenodd" d="M32.5 0C14.5506 0 0 14.5508 0 32.5C0 50.4495 14.5506 65 32.5 65C50.4492 65 65 50.4495 65 32.5C65 14.5508 50.4492 0 32.5 0ZM32.4999 50.4399C42.4079 50.4399 50.4399 42.408 50.4399 32.5C50.4399 22.592 42.4079 14.5601 32.4999 14.5601C22.5919 14.5601 14.5599 22.592 14.5599 32.5C14.5599 42.408 22.5919 50.4399 32.4999 50.4399ZM32.4999 52.0002C21.7303 52.0002 12.9999 43.2698 12.9999 32.5002C12.9999 21.7307 21.7303 13.0002 32.4999 13.0002C43.2695 13.0002 51.9999 21.7307 51.9999 32.5002C51.9999 43.2698 43.2695 52.0002 32.4999 52.0002ZM22.8859 20.9971H30.4684C32.8158 20.9971 34.8329 21.2153 36.5197 21.6521C38.2065 22.0889 39.6122 22.7876 40.7368 23.7483C42.0251 24.8401 42.9941 26.0984 43.6437 27.5232L43.6896 27.6252H45.9549V31.3303H44.5888C44.6083 31.616 44.6181 31.9055 44.6181 32.199C44.6181 32.7666 44.5815 33.322 44.5085 33.8652H45.955V37.5703H43.3451C42.7941 38.6292 42.0747 39.5764 41.1871 40.4119C40.0681 41.4656 38.6869 42.2954 37.0438 42.9014C35.4006 43.5071 33.52 43.8101 31.4019 43.8101H22.8859V37.5703H20.6049V33.8652H22.8859V31.3303H20.6049V27.6252H22.8859V20.9971ZM40.0269 33.8652H37.6835C37.55 34.8574 37.2944 35.8088 36.917 36.719C36.7961 37.0103 36.6638 37.2942 36.5201 37.5703H38.8978C38.4824 38.3459 37.979 39.0256 37.3877 39.6094C36.5415 40.4446 35.5508 41.0752 34.4153 41.501C33.2798 41.9268 32.0679 42.1396 30.7796 42.1396H26.7181V37.5703H30.1599V33.8652H26.7181V31.3303H30.1599V27.6252H26.7181V22.6838H30.8123C32.1662 22.6838 33.4135 22.9214 34.5545 23.3962C35.6954 23.8711 36.678 24.5317 37.5023 25.3779C38.1374 26.0298 38.664 26.7788 39.082 27.6252H36.8645C37.3735 28.7742 37.6733 30.009 37.7638 31.3303H40.079C40.1027 31.636 40.1144 31.9473 40.1144 32.2644C40.1144 32.8206 40.0853 33.3542 40.0269 33.8652Z" fill="url(#paint0_linear)"/>
<defs>
<linearGradient id="paint0_linear" x2="1" gradientUnits="userSpaceOnUse" gradientTransform="translate(32.5) scale(65) rotate(90)">
<stop stop-color="#ACACAC"/>
<stop offset="1" stop-color="#555555"/>
</linearGradient>
</defs>
</svg>
