<svg width="65" height="65" viewBox="0 0 65 65" fill="none" xmlns="http://www.w3.org/2000/svg">
<path fill-rule="evenodd" clip-rule="evenodd" d="M32.5 0C14.5506 0 0 14.5508 0 32.5C0 50.4495 14.5506 65 32.5 65C50.4492 65 65 50.4495 65 32.5C65 14.5508 50.4492 0 32.5 0ZM48.2332 20.6357L51.3419 17.5273C52.0758 16.793 51.9255 15.4512 51.006 14.5315C50.0866 13.6116 48.7441 13.4614 48.0101 14.1958L42.1754 20.0305L41.9763 20.2295L36.8931 25.3125C33.4725 22.8105 28.6321 23.1033 25.5443 26.1912C22.4565 29.2788 22.1636 34.1189 24.6656 37.54L20.7852 41.4204C19.8428 40.1643 19.055 38.6863 18.4854 36.9473C17.1828 32.9722 17.5331 28.6167 19.6445 25.0286C22.9399 19.4292 28.8354 16.9946 34.4202 17.7085C35.6196 17.8616 36.6989 16.9907 36.7719 15.7844C36.8539 14.4312 35.8511 13.2437 34.5009 13.1042C28.8893 12.5239 23.0881 14.3704 18.8034 18.655C11.7055 25.7529 11.2892 37.0122 17.5282 44.6777L13.9673 48.2388C13.2653 48.9407 13.4408 50.2566 14.3606 51.176C15.2804 52.0957 16.5959 52.2727 17.2979 51.5706L21.1298 47.7385L21.1317 47.7371L23.9007 44.968L23.9067 44.9612L28.3989 40.469C31.5668 41.7688 35.3484 41.1348 37.9174 38.5657C40.4865 35.9966 41.1203 32.2153 39.8206 29.0476L44.9167 23.9519C48.6517 29.6265 47.9099 37.48 42.77 42.6196C39.4969 45.8928 35.122 47.3801 30.9112 47.0657C29.9017 46.9893 29.0077 47.7844 28.9189 48.7988L28.8647 49.4226C28.7645 50.5815 29.6252 51.5615 30.7827 51.6262C36.175 51.9312 41.7361 49.9766 45.9315 45.7812C52.8897 38.8223 53.6941 28.1045 48.2332 20.6357ZM28.7725 35.3367C30.4038 36.968 33.0591 36.968 34.6904 35.3367C36.3218 33.7053 36.3216 31.05 34.6904 29.4187C33.0593 27.7874 30.4038 27.7871 28.7725 29.4187C27.1411 31.0505 27.1411 33.7053 28.7725 35.3367Z" fill="url(#paint0_linear)"/>
<defs>
<linearGradient id="paint0_linear" x2="1" gradientUnits="userSpaceOnUse" gradientTransform="translate(32.5) scale(65) rotate(90)">
<stop stop-color="#EC8150"/>
<stop offset="1" stop-color="#E9570F"/>
</linearGradient>
</defs>
</svg>
