<svg width="65" height="65" viewBox="0 0 65 65" fill="none" xmlns="http://www.w3.org/2000/svg">
<path fill-rule="evenodd" clip-rule="evenodd" d="M39.3394 53.6245C36.2183 44.1172 33.915 37.1318 32.4297 32.6693C32.359 32.668 32.2885 32.6669 32.218 32.6656C30.6184 37.1627 28.1929 43.9929 24.9453 53.1474C22.0523 52.0241 19.4591 50.3032 17.3193 48.1312C17.3555 48.0675 17.3815 48.0219 17.3896 48.009C20.6799 42.8101 23.6348 37.43 25.8603 31.6817C28.2213 25.584 30.1097 19.3265 31.9103 13.0427C32.0712 12.4826 32.262 11.9309 32.4389 11.3752C32.6281 11.5936 32.6979 11.7959 32.7555 12.0014C33.8852 16.0327 34.9784 20.0748 36.1502 24.0935C38.2852 31.4139 41.2886 38.3586 45.2678 44.8673C45.7374 45.6355 46.5447 46.9316 47.6806 48.7421C45.3288 50.9456 42.4901 52.635 39.3394 53.6245ZM32.5 0C14.5508 0 0 14.5506 0 32.5C0 50.4492 14.5508 65 32.5 65C50.4494 65 65 50.4492 65 32.5C65 14.5506 50.4494 0 32.5 0Z" fill="url(#paint0_linear)"/>
<defs>
<linearGradient id="paint0_linear" x2="1" gradientUnits="userSpaceOnUse" gradientTransform="translate(32.5) scale(65) rotate(90)">
<stop stop-color="#44AFDA"/>
<stop offset="1" stop-color="#136485"/>
</linearGradient>
</defs>
</svg>
