<svg width="65" height="65" viewBox="0 0 65 65" fill="none" xmlns="http://www.w3.org/2000/svg">
<path fill-rule="evenodd" clip-rule="evenodd" d="M35.5648 19.8518C35.7593 19.5837 35.974 19.3318 36.2103 19.0957C36.5729 18.7332 36.9358 18.407 37.2924 18.1133L48.5289 29.3496C48.2354 29.7065 47.9095 30.0691 47.5466 30.4319C47.3104 30.6682 47.0586 30.8828 46.7904 31.0774L35.5648 19.8518ZM34.0872 24.1147L42.5272 32.5549C43.5782 32.4316 44.506 32.2148 45.3221 31.8835L34.7584 21.3198C34.4271 22.136 34.2103 23.0637 34.0872 24.1147ZM34.3347 32.3074C36.6425 32.5559 38.6467 32.7019 40.3802 32.6829L33.9591 26.262C33.9406 27.9958 34.0862 29.9998 34.3347 32.3074ZM32.0752 40.7617L25.8802 34.5669C27.6074 34.6025 29.5281 34.7988 31.6075 35.0344C31.8433 37.1138 32.0396 39.0344 32.0752 40.7617ZM31.399 45.8264L20.8156 35.2427C21.6611 34.9116 22.6162 34.7207 23.6675 34.6289L32.0134 42.9746C31.9214 44.0256 31.7306 44.9807 31.399 45.8264ZM17.6254 37.7944C17.9491 37.3992 18.3086 36.9971 18.7107 36.5947C18.9104 36.395 19.1233 36.2148 19.3466 36.0496L30.5923 47.2957C30.427 47.5188 30.2469 47.7317 30.0472 47.9312C29.6451 48.3335 29.2428 48.6931 28.8475 49.0166L17.6254 37.7944ZM53.9548 25.4007C53.9241 25.5496 53.1609 29.0842 49.68 32.5651C46.2059 36.0397 40.8583 36.0185 34.6815 35.3787C35.3485 41.4363 35.6114 46.6339 32.1805 50.0645C28.605 53.6398 24.9847 54.5162 24.8324 54.5519C24.7173 54.5789 24.6018 54.5917 24.4883 54.5917C23.8031 54.5917 23.1835 54.1218 23.021 53.4257C22.8316 52.6147 23.3356 51.8033 24.1468 51.6143C24.1625 51.6101 25.6391 51.2356 27.5383 49.9822L16.6602 39.1039C15.4095 40.9994 15.0329 42.475 15.0279 42.4954C14.8656 43.1913 14.2458 43.661 13.5607 43.6612C13.4472 43.6612 13.3321 43.6484 13.2168 43.6217C12.4053 43.4319 11.9013 42.621 12.0906 41.8101C12.1262 41.6575 13.0024 38.0372 16.5779 34.4617C20.0088 31.0311 25.2064 31.2937 31.2637 31.961C30.624 25.7844 30.6027 20.4369 34.0773 16.9625C37.5582 13.4816 41.0931 12.7184 41.242 12.6877C42.0571 12.5194 42.8555 13.0431 43.0245 13.859C43.1925 14.6718 42.672 15.4675 41.8611 15.6397C41.8286 15.647 40.4172 15.9736 38.6051 17.1507L49.4918 28.0374C50.6723 26.2205 50.9967 24.8086 51.0007 24.7892C51.1695 23.9733 51.9673 23.4499 52.7832 23.6177C53.5991 23.7867 54.1235 24.5845 53.9548 25.4007ZM32.5 0C14.5508 0 0 14.5508 0 32.5C0 50.4492 14.5508 65 32.5 65C50.4492 65 65 50.4492 65 32.5C65 14.5508 50.4492 0 32.5 0Z" fill="url(#paint0_linear)"/>
<defs>
<linearGradient id="paint0_linear" x2="1" gradientUnits="userSpaceOnUse" gradientTransform="translate(18.0357) scale(72.874) rotate(63.1194)">
<stop stop-color="#23CFFE"/>
<stop offset="1" stop-color="#0686BD"/>
</linearGradient>
</defs>
</svg>
