<svg width="65" height="65" viewBox="0 0 65 65" fill="none" xmlns="http://www.w3.org/2000/svg">
<path fill-rule="evenodd" clip-rule="evenodd" d="M32.3538 19.4665C33.5836 19.0409 34.7187 19.3245 34.6715 18.615C34.6243 17.9055 33.4418 16.3921 32.1646 16.4393C30.8402 16.4865 29.894 18.095 29.9415 18.8045C29.9886 19.514 30.982 19.9396 32.3538 19.4665ZM36.0433 36.495C35.4284 39.9953 32.1173 40.6102 29.3737 39.0494C23.4139 35.6435 28.4278 26.8929 34.3879 30.2985C36.1853 31.2919 36.3743 34.4612 36.0433 36.495ZM49.1929 32.9948C49.9499 36.0695 49.004 38.7657 50.7068 38.8603C51.4163 38.9075 52.5514 38.529 53.6394 37.6777C52.504 43.4485 49.335 49.1245 43.8952 52.2466C39.7328 54.659 34.5297 55.4631 29.4686 54.8479C28.7116 52.6723 26.7249 50.3543 23.2718 48.6043C17.8323 45.8134 15.2779 40.9888 12.9601 43.3537C12.7237 43.5903 12.5819 43.7796 12.4399 44.0632C12.3453 43.8742 12.2507 43.6375 12.156 43.4011C7.70982 32.4271 12.156 21.4059 21.049 13.5069C26.3465 8.82373 32.543 9.34425 38.0771 11.8984C37.4151 12.4189 37.0366 13.223 37.0366 14.1215V25.1901C35.3812 24.2442 33.4889 23.6765 31.455 23.6765C25.2588 23.6765 20.2446 28.6904 20.2446 34.8869C20.2446 41.0834 25.2588 46.0973 31.455 46.0973C33.6309 46.0973 35.6176 45.4824 37.3205 44.4416C37.7936 45.435 38.7869 46.0973 39.922 46.0973C41.4828 46.0973 42.8075 44.8201 42.8075 43.2119V14.6892C47.0644 17.6692 50.4701 21.4534 52.0312 24.055C52.7409 25.2373 53.3084 26.7037 53.6394 28.2648C52.7878 27.6971 51.984 27.366 51.3689 27.3186C49.6186 27.224 48.2945 29.5891 49.1929 32.9948ZM32.5 0C14.5508 0 0 14.5508 0 32.5C0 50.4492 14.5508 65 32.5 65C50.4492 65 65 50.4492 65 32.5C65 14.5508 50.4492 0 32.5 0Z" fill="url(#paint0_linear)"/>
<defs>
<linearGradient id="paint0_linear" x2="1" gradientUnits="userSpaceOnUse" gradientTransform="translate(63.1143 65) scale(64.8855) rotate(-132.222)">
<stop stop-color="#4358D3"/>
<stop offset="1" stop-color="#4EE0EA"/>
</linearGradient>
</defs>
</svg>
