<svg width="65" height="65" viewBox="0 0 65 65" fill="none" xmlns="http://www.w3.org/2000/svg">
<path fill-rule="evenodd" clip-rule="evenodd" d="M32.5 0C14.5506 0 0 14.5508 0 32.5C0 50.4494 14.5506 65 32.5 65C50.4492 65 65 50.4494 65 32.5C65 14.5508 50.4492 0 32.5 0ZM33.1507 37.1703V44.2323C33.0195 44.7925 32.5213 45.2199 31.9023 45.2964C31.9659 45.3036 32.0295 45.3117 32.0963 45.3117H39.9511C39.2903 45.3117 38.7374 44.906 38.5498 44.349V36.458C37.6934 36.6705 36.7292 36.8266 35.567 36.9425C34.7524 37.0238 33.9459 37.0995 33.1507 37.1703ZM41.2003 35.8511V44.9816C41.0606 45.5801 40.5614 46.0272 39.9512 46.1004C40.0148 46.1084 40.0783 46.1165 40.1451 46.1165H48C47.3391 46.1165 46.7862 45.6899 46.5987 45.1048V28.4092C45.7042 30.0331 44.8041 31.6539 43.8983 33.2714C43.2777 34.3484 42.3867 35.2015 41.2003 35.8511ZM29.9594 44.2332V37.2629C28.2249 37.411 26.5709 37.5285 25.0408 37.6219L25.0094 44.1785C24.9059 44.7614 24.4397 45.2119 23.8536 45.2956C23.9132 45.3037 23.9728 45.3117 24.0347 45.3117H30.9197C30.9808 45.3117 31.0396 45.3037 31.0975 45.2956C30.5336 45.2137 30.0799 44.7902 29.9594 44.2332ZM22.7219 44.2992V38.0679C20.7306 38.1604 19.0355 38.2087 17.7582 38.2272V44.2606C17.6313 44.813 17.1721 45.2267 16.6096 45.2957C16.6684 45.3037 16.7271 45.311 16.7883 45.311H23.6789C23.7384 45.311 23.7956 45.3029 23.8535 45.2957C23.3077 45.2256 22.8596 44.8304 22.7219 44.2976V44.2992ZM46.4883 18.3581C46.3941 17.9629 46.1326 17.9025 45.817 18.14C45.7172 18.2148 42.2386 20.7156 41.8627 21.0166C41.8788 21.0166 38.314 29.7898 37.4101 31.3046C36.9079 32.1456 36.1303 32.9401 35.5219 33.2145C30.7626 35.3619 15.6293 37.0305 15.0321 37.0498L14.9999 37.1576C15.6478 37.2944 24.6938 37.2124 35.1138 36.0807C36.2012 35.9624 37.3039 35.7845 38.3413 35.4489C39.902 34.9442 41.2944 34.1248 42.146 32.5948C42.5476 31.8736 47.1676 23.2147 47.1668 23.1801C47.1354 22.1466 46.8891 20.0491 46.4883 18.3581Z" fill="url(#paint0_linear)"/>
<defs>
<linearGradient id="paint0_linear" x2="1" gradientUnits="userSpaceOnUse" gradientTransform="translate(32.5) scale(65) rotate(90)">
<stop stop-color="#F1FF91"/>
<stop offset="1" stop-color="#B9CC32"/>
</linearGradient>
</defs>
</svg>
