<svg width="65" height="65" viewBox="0 0 65 65" fill="none" xmlns="http://www.w3.org/2000/svg">
<path fill-rule="evenodd" clip-rule="evenodd" d="M32.4575 28.103C29.8945 28.1059 27.8124 30.2271 27.8182 32.8294C27.8239 35.4428 29.9144 37.555 32.4953 37.5548C35.0426 37.5542 37.1284 35.4155 37.121 32.8111C37.1137 30.2153 35.0185 28.1001 32.4575 28.103ZM52.3428 36.3348C51.4591 41.2405 49.1345 45.341 45.3438 48.5866C43.1388 50.4744 40.613 51.7773 37.8174 52.5565C36.9132 52.8084 36.0826 52.3723 35.8106 51.5129C35.5472 50.6799 35.9988 49.783 36.875 49.5144C38.0478 49.1548 38.3823 47.7827 37.6298 46.9595C37.223 46.5136 36.7148 46.3826 36.1269 46.5079C35.3561 46.6722 34.6893 46.3834 34.3457 45.7512C33.8396 44.8192 34.3051 43.7063 35.3359 43.4151C37.2099 42.8854 38.8318 41.9338 40.1855 40.5342C41.7251 38.9422 42.6966 37.0519 43.1142 34.8786C43.2759 34.037 42.7679 33.2471 41.9664 33.0647C41.1492 32.8788 40.3325 33.3784 40.1535 34.2373C39.8702 35.597 39.362 36.8525 38.4473 37.9009C36.3201 40.3389 33.6648 41.2206 30.4973 40.4922C29.7428 40.3187 29.0909 40.5792 28.7437 41.2148C28.2677 42.0863 28.6949 43.1182 29.6712 43.455C30.4106 43.71 30.8276 44.2551 30.8344 44.9764C30.8446 46.0516 29.8874 46.8452 28.8624 46.5241C27.9078 46.2256 26.9391 45.9016 26.0666 45.4244C21.6283 42.9963 19.2073 39.1927 18.5966 34.2029C18.5452 33.782 18.546 33.3545 18.5284 32.9299C18.4917 32.0401 17.8412 31.3736 17.0151 31.3841C16.1368 31.3951 15.4868 32.0582 15.491 32.9784C15.5038 35.937 16.2228 38.721 17.6703 41.2979C19.8203 45.1256 22.9655 47.7908 27.1236 49.2376C27.4518 49.3519 27.7896 49.4381 28.1196 49.5471C28.9667 49.8271 29.4222 50.6854 29.1766 51.5278C28.93 52.3736 28.0879 52.8427 27.2101 52.5943C21.9918 51.116 17.9966 48.0262 15.2336 43.3755C12.8664 39.3911 11.9574 35.0684 12.4921 30.4612C12.6043 29.4954 12.8176 28.5382 13.0344 27.5887C13.2281 26.74 14.0555 26.237 14.862 26.4126C15.7043 26.5958 16.2131 27.396 16.0917 28.2735C16.0443 28.6177 16.0278 28.9967 16.1224 29.3237C16.3074 29.9641 16.9066 30.342 17.5584 30.3299C18.2181 30.3176 18.7706 29.9213 18.9745 29.2842C19.1022 28.886 19.2848 28.5351 19.6342 28.2911C20.165 27.9205 20.8446 27.9121 21.3793 28.2657C21.9341 28.6329 22.2054 29.3083 22.0377 29.9937C21.779 31.051 21.6285 32.1195 21.6778 33.208C21.8204 36.354 23.0454 38.9998 25.3755 41.1244C25.9712 41.6677 26.8044 41.6913 27.3868 41.2046C27.9699 40.7166 28.1186 39.8653 27.7217 39.209C27.6387 39.0719 27.5186 38.9516 27.3978 38.8436C24.3813 36.1506 23.7929 31.7741 26.0142 28.3993C26.3096 27.9504 26.6807 27.5488 27.0382 27.1442C27.5684 26.5442 27.5632 25.6562 27.0046 25.0678C26.4558 24.4894 25.5749 24.4301 24.9569 24.931C24.8819 24.9918 24.8127 25.0594 24.7393 25.1223C24.1331 25.6421 23.2787 25.6337 22.674 25.1032C22.1058 24.6044 21.9464 23.6423 22.4308 23.051C22.8549 22.5331 23.3605 22.0673 23.887 21.6503C28.3351 18.1257 34.351 17.6639 39.2855 20.4476C40.1097 20.9125 41.0087 20.701 41.4501 19.9378C41.8972 19.1657 41.6218 18.2169 40.7946 17.7535C37.5564 15.9395 34.0904 15.2274 30.4046 15.6795C26.557 16.1513 23.2734 17.7978 20.5256 20.5252C19.841 21.2045 18.8833 21.237 18.2522 20.6061C17.608 19.9622 17.6127 18.9806 18.2936 18.2976C21.3171 15.2636 24.9322 13.3469 29.1635 12.6481C30.3223 12.4568 31.5038 12.4046 32.1627 12.3394C38.1404 12.494 42.8172 14.4592 46.6808 18.3293C47.2514 18.9009 47.3195 19.7509 46.8695 20.3988C46.4475 21.0066 45.6499 21.2349 44.9643 20.9243C44.7837 20.8426 44.6189 20.7123 44.4687 20.5797C43.8271 20.0125 42.9257 20.0086 42.3473 20.581C41.7463 21.1757 41.7256 22.1072 42.2988 22.7543C42.9551 23.495 42.9367 24.5085 42.2563 25.1105C41.6082 25.6838 40.7105 25.6397 40.0665 25.0005C39.0181 23.9602 37.8222 23.1409 36.4448 22.5994C33.952 21.6192 31.4351 21.5801 28.9048 22.4453C28.0944 22.7226 27.6864 23.61 27.9681 24.4259C28.2441 25.2248 29.0757 25.6368 29.8854 25.354C34.2175 23.8412 38.6991 26.3214 39.9496 30.6012C40.1876 31.4158 40.6622 31.8614 41.3421 31.9203C42.3821 32.0105 43.1632 31.0764 42.9469 29.9945C42.818 29.3473 42.9496 28.7802 43.4622 28.3409C44.3458 27.5842 45.6756 28.0272 45.9849 29.1851C46.3568 30.576 46.5293 31.9945 46.4428 33.4321C46.1668 38.0204 44.1835 41.6945 40.4914 44.4381C40.1973 44.6564 39.8815 44.8462 39.5706 45.0409C38.7985 45.5247 38.5608 46.4515 39.0189 47.2095C39.4647 47.947 40.365 48.157 41.1463 47.68C44.9397 45.363 47.4623 42.0533 48.7537 37.8154C49.7022 34.7028 49.7337 31.5566 48.9332 28.4022C48.7603 27.7197 48.9214 27.1242 49.4726 26.6844C49.9968 26.2659 50.5894 26.2321 51.1857 26.5413C51.605 26.7589 51.8485 27.1232 51.966 27.5732C52.7195 30.4665 52.8731 33.3918 52.3428 36.3348ZM32.5 0C14.5508 0 0 14.5506 0 32.5C0 50.4492 14.5508 65 32.5 65C50.4492 65 65 50.4492 65 32.5C65 14.5506 50.4492 0 32.5 0Z" fill="url(#paint0_linear)"/>
<defs>
<linearGradient id="paint0_linear" x2="1" gradientUnits="userSpaceOnUse" gradientTransform="translate(11.3968 8.06895) scale(63.9171) rotate(47.6344)">
<stop stop-color="#E75B39"/>
<stop offset="1" stop-color="#E95290"/>
</linearGradient>
</defs>
</svg>
