<svg width="65" height="65" viewBox="0 0 65 65" fill="none" xmlns="http://www.w3.org/2000/svg">
<path fill-rule="evenodd" clip-rule="evenodd" d="M0 32.5C0 14.5508 14.5505 0 32.5 0C50.4492 0 65 14.5508 65 32.5C65 50.4495 50.4492 65 32.5 65C14.5505 65 0 50.4495 0 32.5ZM12.9999 32.5002C12.9999 43.2698 21.7303 52.0002 32.4999 52.0002C43.2694 52.0002 51.9999 43.2698 51.9999 32.5002C51.9999 21.7307 43.2694 13.0002 32.4999 13.0002C21.7303 13.0002 12.9999 21.7307 12.9999 32.5002ZM32.5 50.0503C42.1925 50.0503 50.0499 42.1929 50.0499 32.5002C50.0499 22.8076 42.1925 14.9502 32.5 14.9502C22.8074 14.9502 14.95 22.8076 14.95 32.5002C14.95 42.1929 22.8074 50.0503 32.5 50.0503ZM40.2999 30.7668H31.4122L33.2974 27.5166H43.3333V24.05H31.2L27.3248 30.7668H23.6166V34.2334H25.325L21.45 40.95H37.2666V37.4834H27.5166L29.4016 34.2334H40.2999V30.7668Z" fill="url(#paint0_linear)"/>
<defs>
<linearGradient id="paint0_linear" x2="1" gradientUnits="userSpaceOnUse" gradientTransform="translate(32.5) scale(65) rotate(90)">
<stop stop-color="#ACACAC"/>
<stop offset="1" stop-color="#555555"/>
</linearGradient>
</defs>
</svg>
