<svg width="65" height="65" viewBox="0 0 65 65" fill="none" xmlns="http://www.w3.org/2000/svg">
<path fill-rule="evenodd" clip-rule="evenodd" d="M32.5 0C14.5505 0 0 14.5508 0 32.5C0 50.4495 14.5505 65 32.5 65C50.4492 65 65 50.4495 65 32.5C65 14.5508 50.4492 0 32.5 0ZM44.1421 12.3501L32.4999 23.9924L20.8577 12.3501H44.1421ZM54.8889 32.5002L47.7244 19.5146L35.1866 32.5002L47.7244 45.4858L54.8889 32.5002ZM20.8577 52.6501L32.4999 41.0078L44.1421 52.6501H20.8577ZM10.111 32.5L17.2755 45.4856L29.8132 32.5L17.2755 19.5144L10.111 32.5Z" fill="url(#paint0_linear)"/>
<defs>
<linearGradient id="paint0_linear" x2="1" gradientUnits="userSpaceOnUse" gradientTransform="translate(32.5) scale(65) rotate(90)">
<stop stop-color="#00C0F9"/>
<stop offset="1" stop-color="#37C862"/>
</linearGradient>
</defs>
</svg>
