<svg width="65" height="65" viewBox="0 0 65 65" fill="none" xmlns="http://www.w3.org/2000/svg">
<path fill-rule="evenodd" clip-rule="evenodd" d="M32.5 0C14.5505 0 0 14.5508 0 32.5C0 50.4495 14.5505 65 32.5 65C50.4492 65 65 50.4495 65 32.5C65 14.5508 50.4492 0 32.5 0ZM27.798 32.502L23.9419 41.8794L31.0607 32.5024L23.938 23.1262L27.798 32.502ZM41.0881 41.8796L33.9675 32.5024L41.0898 23.1265L37.23 32.5022L41.0881 41.8796ZM45.5278 15.3738L45.5242 15.3787L45.5278 15.3801L45.5209 15.3828L32.5178 32.5L45.5211 49.6174L45.5278 49.6201V49.6262L45.5203 49.6233L32.5138 54.8889L19.5074 49.6233L19.4999 49.6262V49.6201L19.5066 49.6174L32.51 32.5L19.5068 15.3828L19.4999 15.3801L19.5035 15.3787L19.4999 15.3738L19.5078 15.377L32.5139 10.1113L45.5199 15.377L45.5278 15.3738Z" fill="url(#paint0_linear)"/>
<defs>
<linearGradient id="paint0_linear" x2="1" gradientUnits="userSpaceOnUse" gradientTransform="translate(32.5 63.7473) scale(63.7473) rotate(-90)">
<stop stop-color="#295BA7"/>
<stop offset="1" stop-color="#00ADED"/>
</linearGradient>
</defs>
</svg>
