<svg width="65" height="65" viewBox="0 0 65 65" fill="none" xmlns="http://www.w3.org/2000/svg">
<path fill-rule="evenodd" clip-rule="evenodd" d="M39.1721 17.7815C39.1168 17.6467 39.0413 17.5264 38.952 17.4209L37.3815 21.0696L40.0698 19.9646L39.1721 17.7815ZM19.2498 27.2561L19.2838 27.2483C19.3181 27.2405 19.3522 27.2327 19.3869 27.2261L19.4034 27.2231L19.4167 27.2209L20.8712 23.842L19.5358 24.3909C18.8454 24.6748 18.5146 25.4675 18.7985 26.1582L19.2498 27.2561ZM21.6929 35.561L21.8409 36.3247C21.8687 36.4675 21.9185 36.6006 21.9857 36.7214L24.2449 33.4541L24.0565 33.4907C23.565 34.4307 22.735 35.1841 21.6929 35.561ZM19.8372 29.5483C20.9042 29.3416 21.9408 30.0415 22.1478 31.1086C22.3549 32.176 21.6548 33.2122 20.5876 33.4194C19.5206 33.6262 18.484 32.9263 18.2769 31.8591C18.0701 30.792 18.77 29.7551 19.8372 29.5483ZM24.4535 22.3691L28.3853 20.7524L26.2853 25.6321L22.3533 27.2488L24.4535 22.3691ZM35.8995 17.6631L31.9675 19.2798L29.8673 24.1594L33.7993 22.5425L35.8995 17.6631ZM29.1997 36.2771L25.0261 37.0862L28.0475 32.717L32.2211 31.908L29.1997 36.2771ZM43.2038 30.7751L40.9778 33.9937L42.395 33.719C43.1281 33.5769 43.6089 32.8647 43.4669 32.1318L43.2038 30.7751ZM37.1755 34.7307L33.0022 35.5398L36.0236 31.1707L40.197 30.3616L37.1755 34.7307ZM44.8637 46.451L25.8965 50.1282C23.6975 50.5543 21.5614 49.1123 21.1352 46.9133L18.9483 35.6332C17.463 35.179 16.2707 33.9408 15.9544 32.3095C15.6939 30.9655 16.0849 29.6469 16.9061 28.6779L16.2935 27.1882C15.4417 25.1165 16.4343 22.738 18.5059 21.8862L36.3749 14.5394C38.4467 13.6875 40.825 14.6801 41.6768 16.7517L43.6043 21.4396L24.0571 29.4763C24.2458 29.8377 24.3868 30.2316 24.4691 30.652L45.1611 26.6406L48.0785 41.6897C48.505 43.889 47.0626 46.0248 44.8637 46.451ZM32.5 0C14.5508 0 0 14.5508 0 32.5C0 50.4492 14.5508 65 32.5 65C50.4494 65 65 50.4492 65 32.5C65 14.5508 50.4494 0 32.5 0Z" fill="url(#paint0_linear)"/>
<defs>
<linearGradient id="paint0_linear" x2="1" gradientUnits="userSpaceOnUse" gradientTransform="translate(32.5) scale(65) rotate(90)">
<stop stop-color="#F7E696"/>
<stop offset="1" stop-color="#F4F129"/>
</linearGradient>
</defs>
</svg>
