<svg width="65" height="65" viewBox="0 0 65 65" fill="none" xmlns="http://www.w3.org/2000/svg">
<path fill-rule="evenodd" clip-rule="evenodd" d="M29.1006 41.2035H45.115C47.0377 41.2035 48.5964 42.7624 48.5964 44.6849C48.5964 46.6074 47.0377 48.1663 45.115 48.1663H29.1006C20.6181 48.1663 13.6938 41.389 13.4461 32.9655C13.4451 32.9257 13.4346 32.8885 13.4346 32.8484C13.4346 32.8242 13.4411 32.802 13.4414 32.7781C13.4398 32.6853 13.4346 32.5933 13.4346 32.5C13.4346 23.8616 20.4622 16.834 29.1006 16.834H45.115C47.0377 16.834 48.5964 18.3927 48.5964 20.3154C48.5964 22.2379 47.0377 23.7966 45.115 23.7966H29.1006C25.4069 23.7966 22.2515 26.1135 20.99 29.3669H45.4631C47.3858 29.3669 48.9445 30.9256 48.9445 32.8484C48.9445 34.7708 47.3858 36.3295 45.4631 36.3295H21.2969C22.717 39.2113 25.6768 41.2035 29.1006 41.2035ZM32.5 0C14.5506 0 0 14.5508 0 32.5C0 50.4492 14.5506 65 32.5 65C50.4492 65 65 50.4492 65 32.5C65 14.5508 50.4492 0 32.5 0Z" fill="url(#paint0_linear)"/>
<defs>
<linearGradient id="paint0_linear" x2="1" gradientUnits="userSpaceOnUse" gradientTransform="translate(32.5) scale(65) rotate(90)">
<stop stop-color="#DA58DC"/>
<stop offset="1" stop-color="#6D84D6"/>
</linearGradient>
</defs>
</svg>
