<svg width="65" height="65" viewBox="0 0 65 65" fill="none" xmlns="http://www.w3.org/2000/svg">
<path fill-rule="evenodd" clip-rule="evenodd" d="M38.814 31.0669C39.6683 31.0669 40.3634 30.3718 40.3634 29.5173C40.3634 28.6631 39.6683 27.968 38.814 27.968C37.9595 27.968 37.2644 28.6631 37.2644 29.5173C37.2644 29.7354 37.3087 29.9458 37.396 30.1431C37.6437 30.7041 38.2003 31.0669 38.814 31.0669ZM22.8547 33.5461C23.4038 33.5461 23.9167 33.2512 24.194 32.7764C24.3317 32.541 24.4042 32.2712 24.4042 31.9966C24.4042 31.1421 23.7091 30.447 22.8547 30.447C22.0002 30.447 21.3052 31.1421 21.3052 31.9966C21.3052 32.8511 22.0002 33.5461 22.8547 33.5461ZM37.4052 32.2751C37.8336 32.4939 38.3138 32.6162 38.8138 32.6162C39.2867 32.6162 39.7333 32.5066 40.1346 32.3167L48.2439 39.8855C45.4614 45.793 39.451 49.8926 32.5 49.8926C29.0044 49.8926 25.5833 48.8311 22.7128 46.8784L37.4052 32.2751ZM32.5001 52.6815C27.841 52.6815 23.2955 51.056 19.7008 48.1045L18.5085 47.1253L35.7542 29.9839C35.7309 29.8303 35.7152 29.6752 35.7152 29.5174C35.7152 27.8088 37.1054 26.4186 38.814 26.4186C40.5228 26.4186 41.913 27.8088 41.913 29.5174C41.913 29.7192 41.892 29.9163 41.8551 30.1074L49.2887 37.0453C49.6815 35.5959 49.8925 34.0724 49.8925 32.5001C49.8925 22.9099 42.0902 15.1076 32.5001 15.1076C22.9099 15.1076 15.1076 22.9099 15.1076 32.5001C15.1076 33.9945 15.2945 35.4623 15.6643 36.8852L19.8416 32.7079C19.7876 32.4791 19.7559 32.2416 19.7559 31.9966C19.7559 30.288 21.146 28.8975 22.8549 28.8975C24.5635 28.8975 25.9537 30.288 25.9537 31.9966C25.9537 32.1997 25.9335 32.4015 25.8944 32.5991L28.5668 35.2715L26.5945 37.2435L24.1565 34.8055C23.7539 34.9923 23.3107 35.0953 22.8549 35.0953C22.4256 35.0953 22.0167 35.0075 21.6448 34.849L14.5399 41.9539L13.7546 39.99C12.8016 37.6073 12.3186 35.0872 12.3186 32.5001C12.3186 21.372 21.372 12.3186 32.5001 12.3186C43.6282 12.3186 52.6815 21.372 52.6815 32.5001C52.6815 43.6282 43.6282 52.6815 32.5001 52.6815ZM32.5 0C14.5508 0 0 14.5508 0 32.5C0 50.4492 14.5508 65 32.5 65C50.4492 65 65 50.4492 65 32.5C65 14.5508 50.4492 0 32.5 0Z" fill="url(#paint0_linear)"/>
<defs>
<linearGradient id="paint0_linear" x2="1" gradientUnits="userSpaceOnUse" gradientTransform="translate(32.5) scale(63.6864) rotate(90)">
<stop stop-color="#80BBFF"/>
<stop offset="1" stop-color="#004DA7"/>
</linearGradient>
</defs>
</svg>
