<svg width="65" height="65" viewBox="0 0 65 65" fill="none" xmlns="http://www.w3.org/2000/svg">
<path fill-rule="evenodd" clip-rule="evenodd" d="M34.4783 18.2471L34.3616 19.2117C33.1271 19.009 31.8745 19.011 30.6406 19.2173L30.5218 18.2529C31.1829 18.1423 31.8498 18.0869 32.5178 18.0869C33.1735 18.0869 33.8287 18.1406 34.4783 18.2471ZM41.8261 21.3989C40.7471 20.5134 39.5405 19.7788 38.2424 19.2173L37.8696 19.9929C39.0897 20.5208 40.2244 21.2109 41.2383 22.0435L41.8261 21.3989ZM26.7554 19.7827L27.1305 20.5554C25.9106 21.0847 24.7769 21.7761 23.764 22.6089L23.174 21.9673C24.2516 21.0815 25.4575 20.3457 26.7554 19.7827ZM18.6522 28.5835C19.0109 27.2708 19.5441 26.02 20.236 24.8706L20.9131 25.3359C20.2635 26.4172 19.7625 27.5923 19.4257 28.8262L18.6522 28.5835ZM20.3479 40.0112L21.1055 39.5652C21.8349 40.5977 22.7218 41.53 23.7392 42.3345L23.149 42.9565C22.067 42.1011 21.1236 41.1094 20.3479 40.0112ZM26.7033 31.468H24.121V30.2852H27.1305V28.8262H22.0435V35.6089H24.121V32.8286H26.7033V31.468ZM26.5652 45.3403C27.7838 45.8398 29.0762 46.1787 30.4025 46.3477L30.5218 45.5986C29.2752 45.4402 28.0608 45.1211 26.9155 44.6521L26.5652 45.3403ZM18.5535 36.739C18.2442 35.4541 18.087 34.1223 18.087 32.7832L18.779 32.7825C18.779 34.041 18.9266 35.2935 19.2174 36.5015L18.5535 36.739ZM44.1956 24.8696L43.5218 25.3364C44.1719 26.4167 44.674 27.592 45.013 28.8262L45.7827 28.583C45.4218 27.2698 44.8874 26.019 44.1956 24.8696ZM45.2173 36.5027C45.5079 35.3018 45.6551 34.0571 45.6542 32.8062V32.7844L46.3478 32.7825V32.8052C46.3484 34.137 46.1921 35.4614 45.883 36.739L45.2173 36.5027ZM35.0435 33.1304V28.8262H32.8652V33.2332C32.8652 33.6338 32.7542 33.9431 32.5403 34.1614C32.3268 34.3796 32.0276 34.4888 31.652 34.4888C31.273 34.4888 30.976 34.3779 30.7624 34.1562C30.5489 33.9348 30.4399 33.6272 30.4399 33.2332V28.8262H28.2617L28.2609 33.1306C28.2609 33.4851 28.3316 33.8923 28.4664 34.3518C28.5502 34.6375 28.7079 34.915 28.934 35.1843C29.1604 35.4531 29.4099 35.6611 29.683 35.8071C29.9561 35.9534 30.2956 36.0508 30.7018 36.1001C31.0753 36.1472 31.4508 36.1721 31.8268 36.1741C32.4213 36.1741 32.9303 36.0935 33.3541 35.9326C33.66 35.8176 33.952 35.6182 34.2296 35.3342C34.5054 35.0549 34.7155 34.7144 34.8436 34.3396C34.9767 33.9509 35.0443 33.5422 35.0435 33.1304ZM41.8511 42.9565L41.2608 42.3357C42.2779 41.531 43.1645 40.5981 43.8934 39.5652L44.6522 40.01C43.8766 41.1086 42.9333 42.1006 41.8511 42.9565ZM34.4783 45.6003L34.5971 46.3477C35.9236 46.1785 37.2162 45.8389 38.4349 45.3396L38.0835 44.6521C36.9388 45.1216 35.7245 45.4412 34.4783 45.6003ZM40.8745 28.8262H42.9566V35.6089H40.8844L38.2357 31.8813V35.6089H36.174V28.8262H38.2175L40.8745 32.5742V28.8262ZM52.3373 36.2562C52.1103 37.4823 51.7698 38.6842 51.3201 39.8469L49.1916 39.0202C48.7929 40.0511 48.2997 41.0423 47.7186 41.9817L49.6581 43.1876C49.0026 44.2467 48.2509 45.2432 47.413 46.1642L45.7261 44.6226C44.9826 45.4398 44.1656 46.1867 43.286 46.8543L44.6633 48.6785C43.6715 49.4307 42.6124 50.0896 41.5001 50.6466L40.4805 48.5996C39.4937 49.0931 38.4637 49.4934 37.4032 49.7961L38.0278 51.9969C36.8313 52.3376 35.606 52.5662 34.3674 52.6799L34.1585 50.4021C33.6102 50.4524 33.0514 50.4781 32.4978 50.4781C31.9495 50.4781 31.3965 50.4529 30.8534 50.4034L30.6466 52.6815C29.4082 52.5691 28.1824 52.3421 26.9857 52.0027L27.6074 49.799C26.5464 49.4976 25.5158 49.0984 24.5285 48.6059L23.5108 50.6539C22.3974 50.0978 21.3378 49.4399 20.3452 48.6882L21.7212 46.8627C20.8411 46.1959 20.0236 45.4497 19.2795 44.633L17.594 46.1757C16.7553 45.2558 16.003 44.2601 15.3465 43.2017L17.2852 41.9943C16.7034 41.0557 16.2096 40.065 15.8099 39.0352L13.6822 39.8642C13.2314 38.7021 12.8899 37.5003 12.6618 36.2745L14.9059 35.8546C14.7041 34.7675 14.6021 33.664 14.6013 32.5582L12.3185 32.5603V32.5423C12.3182 31.3025 12.4309 30.0657 12.6553 28.8467L14.8999 29.2616C15.1004 28.1752 15.4013 27.1098 15.7983 26.0789L13.6691 25.2544C14.1178 24.0915 14.6732 22.9726 15.3281 21.9127L17.269 23.1167C17.85 22.1766 18.516 21.292 19.2585 20.4743L17.5706 18.9339C18.4075 18.0124 19.3275 17.1698 20.3182 16.417L21.6971 18.2399C22.5762 17.5721 23.5147 16.9871 24.5007 16.4922L23.4796 14.446C24.5922 13.888 25.7541 13.4349 26.9506 13.0926L27.5767 15.2929C28.6374 14.9902 29.7235 14.7862 30.8215 14.684L30.6105 12.4061C31.2322 12.3477 31.8615 12.3186 32.4981 12.3186C33.1164 12.3197 33.7273 12.3472 34.3309 12.4012L34.1255 14.6798C35.2236 14.7789 36.3106 14.9797 37.3715 15.2795L37.9922 13.0776C39.19 13.4163 40.3534 13.8658 41.4681 14.4209L40.452 16.47C41.4401 16.9624 42.3807 17.5451 43.2616 18.2105L44.6358 16.384C45.6286 17.1341 46.5507 17.9744 47.3902 18.8938L45.7062 20.4381C46.4508 21.254 47.1194 22.1367 47.7026 23.0753L49.64 21.866C50.2976 22.9241 50.8559 24.0414 51.3075 25.2028L49.1806 26.0333C49.5808 27.0629 49.8848 28.1275 50.0887 29.2136L52.3331 28.7919C52.5624 30.0164 52.6793 31.2598 52.6814 32.5056L50.4025 32.5095V32.5423C50.4014 33.648 50.2994 34.7515 50.0971 35.8386L52.3373 36.2562ZM32.5 0C14.5508 0 0 14.5508 0 32.5C0 50.4492 14.5508 65 32.5 65C50.4494 65 65 50.4492 65 32.5C65 14.5508 50.4494 0 32.5 0Z" fill="url(#paint0_linear)"/>
<defs>
<linearGradient id="paint0_linear" x2="1" gradientUnits="userSpaceOnUse" gradientTransform="translate(32.5) scale(63.6864) rotate(90)">
<stop stop-color="#FF6C88"/>
<stop offset="1" stop-color="#F1385B"/>
</linearGradient>
</defs>
</svg>
