<svg width="65" height="65" viewBox="0 0 65 65" fill="none" xmlns="http://www.w3.org/2000/svg">
<path fill-rule="evenodd" clip-rule="evenodd" d="M32.5 0C14.5505 0 0 14.5508 0 32.5C0 50.4492 14.5505 65 32.5 65C50.4492 65 65 50.4492 65 32.5C65 14.5508 50.4492 0 32.5 0ZM24.5981 18C20.4086 18 12.9999 28.1567 12.9999 37.6685C12.9999 40.6482 15.2705 44.7725 17.7676 44.7725C19.9174 44.7725 21.3169 43.3535 22.9125 41.7358C25.0282 39.5908 27.4888 37.0964 32.4999 37.0964C37.511 37.0964 39.9716 39.5908 42.0873 41.7358C43.6829 43.3535 45.0824 44.7725 47.2322 44.7725C49.7292 44.7725 51.9999 40.6482 51.9999 37.6685C51.9999 28.1567 44.5912 18 40.4016 18C38.3068 18 37.3788 18.5635 36.4507 19.1272C35.5227 19.6909 34.5947 20.2544 32.4999 20.2544C30.405 20.2544 29.4771 19.6909 28.5491 19.1272C27.621 18.5635 26.693 18 24.5981 18ZM39.7552 23.8494C40.1459 23.459 40.7789 23.459 41.1696 23.8494L45.5005 28.1804C45.8911 28.571 45.8911 29.2041 45.5005 29.5947L41.1696 33.9258C40.7789 34.3162 40.1459 34.3162 39.7552 33.9258L35.4243 29.5947C35.0337 29.2041 35.0337 28.571 35.4243 28.1804L39.7552 23.8494ZM41.037 27.1641C40.7196 27.4812 40.2052 27.4812 39.8878 27.1641C39.5706 26.8467 39.5706 26.3323 39.8878 26.0149C40.2052 25.6978 40.7196 25.6978 41.037 26.0149C41.3542 26.3323 41.3542 26.8467 41.037 27.1641ZM42.1859 29.4622C42.5033 29.7793 43.0177 29.7793 43.3351 29.4622C43.6523 29.1448 43.6523 28.6304 43.3351 28.313C43.0177 27.9958 42.5033 27.9958 42.1859 28.313C41.8687 28.6304 41.8687 29.1448 42.1859 29.4622ZM38.7389 29.4622C38.4215 29.7793 37.9071 29.7793 37.5897 29.4622C37.2725 29.1448 37.2725 28.6304 37.5897 28.313C37.9071 27.9958 38.4215 27.9958 38.7389 28.313C39.0562 28.6304 39.0562 29.1448 38.7389 29.4622ZM39.8878 31.7603C40.2052 32.0774 40.7196 32.0774 41.037 31.7603C41.3542 31.4429 41.3542 30.9285 41.037 30.6111C40.7196 30.2939 40.2052 30.2939 39.8878 30.6111C39.5706 30.9285 39.5706 31.4429 39.8878 31.7603ZM20.7999 28.7251C20.7999 31.5969 23.1281 33.925 25.9999 33.925C28.8718 33.925 31.2 31.5969 31.2 28.7251C31.2 25.8533 28.8718 23.5251 25.9999 23.5251C23.1281 23.5251 20.7999 25.8533 20.7999 28.7251ZM30.4578 30.7012C30.726 30.0972 30.8749 29.4285 30.8749 28.7251C30.8749 28.0215 30.726 27.3528 30.4578 26.7488L28.2223 27.3748C28.4619 27.7683 28.6 28.2305 28.6 28.7249V28.7278C28.5995 29.2214 28.4614 29.6824 28.2223 30.0752L30.4578 30.7012ZM27.9761 24.2671L27.3502 26.5027C26.9567 26.2629 26.4944 26.125 25.9999 26.125C25.5055 26.125 25.0432 26.2629 24.6497 26.5027L24.0238 24.2671C24.6278 23.999 25.2965 23.8501 25.9999 23.8501C26.7039 23.8501 27.3717 23.9985 27.9761 24.2671ZM23.3999 28.7249C23.3999 28.2305 23.538 27.7683 23.7776 27.3748L21.5421 26.7488C21.2736 27.3533 21.1249 28.021 21.1249 28.7251C21.1249 29.4824 21.2975 30.1992 21.6056 30.8386C21.5837 30.7932 21.5626 30.7473 21.5421 30.7012L23.7776 30.0752C23.553 29.7063 23.4175 29.2769 23.4015 28.8171C23.4004 28.7864 23.3999 28.7559 23.3999 28.7249ZM24.0238 33.1826L24.6497 30.9473C25.0432 31.1868 25.5055 31.325 25.9999 31.325C26.4944 31.325 26.9567 31.1868 27.3502 30.9473L27.9761 33.1826C28.0222 33.1621 28.0681 33.1411 28.1134 33.1194C27.474 33.4275 26.7571 33.6001 25.9999 33.6001C25.2959 33.6001 24.6282 33.4512 24.0238 33.1826ZM25.756 26.8625C25.756 26.8386 25.761 26.8157 25.7719 26.7988C25.7838 26.783 25.8097 26.7749 25.8436 26.7749H26.1782C26.2141 26.7749 26.241 26.7939 26.2499 26.8147C26.257 26.8311 26.2573 26.8469 26.2576 26.8601L26.2579 26.8706V27.2371L26.2817 27.2388C26.3679 27.2454 26.4623 27.2524 26.5607 27.269C26.6692 27.2859 26.7728 27.3137 26.8634 27.3486C26.9341 27.3755 26.973 27.4084 26.9829 27.4363C26.9919 27.4631 26.9889 27.49 26.9829 27.5317L26.9352 27.7708C26.9202 27.8315 26.9062 27.8674 26.8794 27.8745C26.8514 27.8823 26.7977 27.8804 26.736 27.8745C26.6443 27.8606 26.545 27.8528 26.4412 27.8445L26.4172 27.8425L26.3923 27.8408C26.2864 27.8335 26.1754 27.8257 26.0508 27.8267C25.7898 27.8267 25.6604 27.9163 25.6604 28.0896C25.6593 28.1384 25.6633 28.1702 25.6763 28.2012C25.6912 28.23 25.7091 28.262 25.74 28.2808C25.7709 28.3018 25.8187 28.3157 25.8676 28.3286C25.9103 28.3406 25.9598 28.3503 26.0205 28.3623L26.0508 28.3684C26.1763 28.3962 26.3087 28.4292 26.4332 28.4641C26.5576 28.4988 26.6692 28.5447 26.7678 28.6074C26.8674 28.6711 26.946 28.7559 27.0068 28.8623C27.0665 28.968 27.0945 29.1133 27.0945 29.2847C27.0945 29.426 27.0656 29.5427 27.0227 29.6433C26.9789 29.7449 26.9221 29.8274 26.8475 29.8982C26.7728 29.9688 26.6862 30.0237 26.5846 30.0654C26.485 30.1074 26.3823 30.1421 26.2659 30.1611L26.2579 30.5356C26.2579 30.5471 26.2537 30.5566 26.2483 30.5686L26.2419 30.5833C26.233 30.6042 26.2151 30.6143 26.1782 30.6152H25.8436C25.8107 30.6162 25.7838 30.6072 25.7719 30.5913C25.761 30.5745 25.755 30.5525 25.756 30.5276V30.177C25.6484 30.1711 25.5328 30.1631 25.4054 30.1453C25.2769 30.1282 25.1573 30.0923 25.0548 30.0496C24.9832 30.0217 24.9463 30.0046 24.9353 29.9778C24.9253 29.95 24.9253 29.9082 24.9353 29.8662L24.9832 29.6113C24.9961 29.5605 25.0179 29.5327 25.0389 29.5237C25.0598 29.5146 25.0977 29.5068 25.1584 29.5156C25.1837 29.5186 25.2097 29.5242 25.2369 29.5303C25.2675 29.5369 25.2994 29.5439 25.3337 29.5476C25.3732 29.5525 25.4163 29.5552 25.46 29.5579L25.5408 29.5635C25.5764 29.5667 25.6119 29.5691 25.6473 29.5715L25.7479 29.5793L25.7693 29.5806C25.8276 29.5842 25.8778 29.5874 25.9313 29.5874C26.0836 29.5884 26.1882 29.5615 26.2579 29.5156C26.3267 29.469 26.3694 29.3982 26.3694 29.3086C26.3694 29.2549 26.3605 29.208 26.3456 29.1731C26.3306 29.1382 26.2997 29.1155 26.2659 29.0935C26.234 29.0715 26.1971 29.0527 26.1464 29.0376C26.0956 29.0227 26.0298 29.0049 25.9551 28.99L25.8667 28.9712C25.7695 28.9509 25.6757 28.9314 25.5807 28.9023C25.4581 28.8655 25.3427 28.8057 25.2461 28.7429C25.1494 28.6802 25.0737 28.5984 25.015 28.4958C24.9542 28.3953 24.9274 28.2649 24.9274 28.1055C24.9274 27.8545 24.9951 27.6553 25.1425 27.5081C25.2878 27.3625 25.494 27.2778 25.756 27.2451V26.8625Z" fill="url(#paint0_linear)"/>
<defs>
<linearGradient id="paint0_linear" x2="1" gradientUnits="userSpaceOnUse" gradientTransform="translate(32.5) scale(61.337) rotate(90)">
<stop stop-color="#DC3045"/>
<stop offset="1" stop-color="#5A1414"/>
</linearGradient>
</defs>
</svg>
