<svg width="65" height="65" viewBox="0 0 65 65" fill="none" xmlns="http://www.w3.org/2000/svg">
<path fill-rule="evenodd" clip-rule="evenodd" d="M32.5 0C14.5506 0 0 14.5508 0 32.5C0 50.4492 14.5506 65 32.5 65C50.4492 65 65 50.4492 65 32.5C65 14.5508 50.4492 0 32.5 0ZM14.8031 34.2627V32.0918H20.4105V37.2246C19.8656 37.752 19.0761 38.2163 18.0419 38.6177C17.0077 39.019 15.9603 39.2197 14.8998 39.2197C13.5521 39.2197 12.3773 38.937 11.3754 38.3716C10.3734 37.8061 9.62049 36.9976 9.11658 35.9458C8.61267 34.894 8.36072 33.75 8.36072 32.5137C8.36072 31.1719 8.64196 29.9795 9.20447 28.9365C9.76697 27.8935 10.5902 27.0938 11.6742 26.5371C12.5004 26.1094 13.5287 25.8955 14.7592 25.8955C16.3588 25.8955 17.6083 26.231 18.5077 26.9019C19.4071 27.5728 19.9857 28.5 20.2435 29.6836L17.6595 30.167C17.4779 29.5342 17.1366 29.0347 16.6356 28.6685C16.1346 28.3022 15.5092 28.1191 14.7592 28.1191C13.6224 28.1191 12.7186 28.4795 12.0477 29.2002C11.3768 29.9209 11.0414 30.9902 11.0414 32.4082C11.0414 33.9375 11.3812 35.0845 12.0609 35.8491C12.7406 36.6138 13.6312 36.9961 14.7328 36.9961C15.2777 36.9961 15.8241 36.8892 16.3719 36.6753C16.9198 36.4614 17.39 36.2021 17.7826 35.8975V34.2627H14.8031ZM22.8099 39V26.1152H32.3636V28.2949H25.4115V31.1514H31.8802V33.3223H25.4115V36.8291H32.6097V39H22.8099ZM34.8861 39V26.2207H37.4877V36.8291H43.9564V39H34.8861ZM45.8021 26.1152H50.557C51.6293 26.1152 52.4467 26.1973 53.0092 26.3613C53.765 26.584 54.4125 26.9795 54.9515 27.5479C55.4906 28.1162 55.9008 28.812 56.182 29.6353C56.4633 30.4585 56.6039 31.4736 56.6039 32.6807C56.6039 33.7412 56.472 34.6553 56.2084 35.4229C55.8861 36.3604 55.4262 37.1191 54.8285 37.6992C54.3773 38.1387 53.7679 38.4814 53.0004 38.7275C52.4261 38.9092 51.6586 39 50.6976 39H45.8021V26.1152ZM48.4037 28.2949V36.8291H50.3461C51.0726 36.8291 51.597 36.7881 51.9193 36.7061C52.3412 36.6006 52.6913 36.4219 52.9696 36.1699C53.2479 35.918 53.475 35.5034 53.6508 34.9263C53.8265 34.3491 53.9144 33.5625 53.9144 32.5664C53.9144 31.5703 53.8265 30.8057 53.6508 30.2725C53.475 29.7393 53.2289 29.3232 52.9125 29.0244C52.5961 28.7256 52.1947 28.5234 51.7084 28.418C51.3451 28.3359 50.6332 28.2949 49.5726 28.2949H48.4037Z" fill="url(#paint0_linear)"/>
<defs>
<linearGradient id="paint0_linear" x2="1" gradientUnits="userSpaceOnUse" gradientTransform="translate(32.5) scale(65) rotate(90)">
<stop stop-color="#ACACAC"/>
<stop offset="1" stop-color="#555555"/>
</linearGradient>
</defs>
</svg>
