<svg width="65" height="65" viewBox="0 0 65 65" fill="none" xmlns="http://www.w3.org/2000/svg">
<path fill-rule="evenodd" clip-rule="evenodd" d="M45.9661 19.598C42.3704 15.9509 37.4863 13.8523 32.3982 13.8523H32.3644C27.3104 13.8523 22.5958 15.779 19.0001 19.3228L32.568 33.1193L45.9661 19.598ZM32.4999 53.0747H32.4661C21.6457 53.0747 12.8267 44.0947 12.8605 33.1194C12.8605 29.438 13.8782 25.8599 15.7438 22.7635L16.083 22.1785L17.8807 24.0019C17.5416 24.5179 17.2362 25.0686 17.0328 25.6877C15.6081 29.6443 17.6433 34.014 21.5781 35.4592C23.9184 36.2848 26.3947 35.9063 28.3279 34.5987L32.4999 38.8651L37.2827 34.014C37.7235 34.3238 38.2325 34.5644 38.7751 34.7709C42.608 36.1472 46.8141 34.1172 48.171 30.2636C48.9848 27.9931 48.6116 25.619 47.4245 23.7267L48.9169 22.2128L49.2901 22.8321C51.1557 25.9631 52.1394 29.5413 52.1394 33.1881C52.1053 44.1637 43.3203 53.0747 32.4999 53.0747ZM25.7162 31.9153C25.0379 32.4657 24.1897 32.7752 23.274 32.7752C21.0692 32.7752 19.2715 30.9518 19.2715 28.7154C19.2715 27.7865 19.5768 26.9263 20.0856 26.2383L25.7162 31.9153ZM45.966 28.1993C45.966 30.4357 44.1683 32.2592 41.9635 32.2592C41.1157 32.2592 40.3695 32.0183 39.725 31.5711L45.2877 25.9285C45.7286 26.5821 45.966 27.3737 45.966 28.1993ZM16.9988 18.6344C21.0013 14.3337 26.4623 11.9253 32.3304 11.9253H32.3642C38.3002 11.9253 43.9987 14.5056 47.9674 18.9786L48.5778 19.6666L32.5679 35.8372L16.3543 19.3225L16.9988 18.6344ZM32.5 0C14.5508 0 0 14.5508 0 32.5C0 50.4492 14.5508 65 32.5 65C50.4492 65 65 50.4492 65 32.5C65 14.5508 50.4492 0 32.5 0Z" fill="url(#paint0_linear)"/>
<defs>
<linearGradient id="paint0_linear" x2="1" gradientUnits="userSpaceOnUse" gradientTransform="translate(32.5) scale(63.6864) rotate(90)">
<stop stop-color="#42D4EE"/>
<stop offset="1" stop-color="#00A6C4"/>
</linearGradient>
</defs>
</svg>
