<svg width="65" height="65" viewBox="0 0 65 65" fill="none" xmlns="http://www.w3.org/2000/svg">
<path fill-rule="evenodd" clip-rule="evenodd" d="M28.7837 18.1038C29.7689 17.0693 31.0896 16.5115 32.523 16.5115C33.9341 16.5115 35.2661 17.0796 36.2626 18.1038C37.2743 19.1211 37.8232 20.4932 37.8232 21.9851C37.8232 23.4541 37.2638 24.8376 36.2548 25.8745C35.2771 26.9014 33.9564 27.459 32.523 27.459C31.1119 27.459 29.7799 26.8906 28.7837 25.8667C27.7765 24.8091 27.2229 23.4458 27.2229 21.9851C27.2229 20.5161 27.7822 19.1328 28.7837 18.1038ZM27.2229 43.6138C27.2229 42.1448 27.7822 40.761 28.7837 39.7322C29.7689 38.6975 31.0896 38.1401 32.523 38.1401C33.9564 38.1401 35.2771 38.6975 36.2547 39.7244C37.2696 40.7898 37.8231 42.1531 37.8231 43.6138C37.8231 45.0828 37.2638 46.4661 36.2626 47.4954C35.2771 48.5295 33.9564 49.0874 32.523 49.0874C31.1118 49.0874 29.7799 48.5188 28.7837 47.4954C27.7764 46.4375 27.2229 45.0742 27.2229 43.6138ZM41.2472 21.9587C41.2472 24.3532 40.3511 26.5816 38.7125 28.2653C37.4893 29.5472 35.9429 30.3959 34.2479 30.7337V34.8402C35.9248 35.1799 37.4722 36.0325 38.7056 37.3C40.3511 38.9908 41.2472 41.2192 41.2472 43.6137C41.2472 46.0085 40.3511 48.2365 38.7056 49.9273C37.0612 51.6171 34.8554 52.5504 32.523 52.5504C30.1741 52.5504 27.9911 51.6236 26.3404 49.9273C24.7013 48.2431 23.7989 45.9914 23.7989 43.6137C23.7989 41.2362 24.7013 38.9843 26.3336 37.3074C27.5568 36.0252 29.1032 35.1765 30.7982 34.8389V30.7321C29.1213 30.3925 27.5739 29.5399 26.3404 28.2724C24.7013 26.5881 23.7989 24.3362 23.7989 21.9587C23.7989 19.5812 24.7013 17.3293 26.3404 15.6451C27.9848 13.9553 30.1906 13.022 32.523 13.022C34.2563 13.022 35.9211 13.5493 37.348 14.5296L41.9229 9.82861L44.3462 12.2548L39.7595 16.9679C40.7256 18.438 41.2472 20.171 41.2472 21.9587ZM32.5 0C14.5508 0 0 14.5508 0 32.5C0 50.4492 14.5508 65 32.5 65C50.4492 65 65 50.4492 65 32.5C65 14.5508 50.4492 0 32.5 0Z" fill="url(#paint0_linear)"/>
<defs>
<linearGradient id="paint0_linear" x2="1" gradientUnits="userSpaceOnUse" gradientTransform="translate(0 32.5) scale(63.417)">
<stop stop-color="#114CC0"/>
<stop offset="1" stop-color="#01D3E0"/>
</linearGradient>
</defs>
</svg>
