<svg width="65" height="65" viewBox="0 0 65 65" fill="none" xmlns="http://www.w3.org/2000/svg">
<path fill-rule="evenodd" clip-rule="evenodd" d="M32.5 47.0794C10.383 47.0794 12.0819 24.2109 12.0819 24.2109H15.9531C15.9531 29.8057 17.2761 43.6656 32.5 43.6656C47.7239 43.6656 49.194 27.6494 49.194 27.6494H23.4181C23.4181 27.6494 25.3456 35.6452 32.5 35.6452C39.6547 35.6452 40.5204 30.9327 40.5204 30.9327H44.3754C44.3754 30.9327 41.6066 39.7289 32.5 39.7289C19.1792 39.7289 19.6856 24.2109 19.6856 24.2109H52.9181C52.9181 24.2109 54.617 47.0794 32.5 47.0794ZM32.5 0C14.5508 0 0 14.5508 0 32.5C0 50.4492 14.5508 65 32.5 65C50.4492 65 65 50.4492 65 32.5C65 14.5508 50.4492 0 32.5 0Z" fill="url(#paint0_linear)"/>
<defs>
<linearGradient id="paint0_linear" x2="1" gradientUnits="userSpaceOnUse" gradientTransform="translate(32.5) scale(62.904) rotate(90)">
<stop stop-color="#5BC7AF"/>
<stop offset="1" stop-color="#00BEB0"/>
</linearGradient>
</defs>
</svg>
