<svg width="65" height="65" viewBox="0 0 65 65" fill="none" xmlns="http://www.w3.org/2000/svg">
<path fill-rule="evenodd" clip-rule="evenodd" d="M0 32.5C0 14.5508 14.5505 0 32.5 0C50.4492 0 65 14.5508 65 32.5C65 50.4492 50.4492 65 32.5 65C14.5505 65 0 50.4492 0 32.5ZM40.9161 11.8074C48.6321 15.3647 52.0163 20.7573 53.4896 24.6538C54.5341 27.2969 55.0031 30.1326 54.8653 32.9709C54.8701 38.4507 52.6902 43.7073 48.8074 47.575C46.4791 49.908 43.7173 51.7622 40.6758 53.0315C39.2198 53.6289 37.556 52.9321 36.9595 51.4768C36.8207 51.1389 36.7489 50.7781 36.746 50.4124V34.7612H25.5588C23.9936 34.7488 22.7318 33.4763 22.7318 31.9121V17.9304C17.6973 21.2122 14.7037 26.8528 14.8081 32.8618V32.927C14.8502 35.168 15.2829 37.3833 16.0851 39.4758C17.3019 42.8438 19.6512 45.6831 22.7318 47.5088V39.6616C22.9683 38.3501 24.2224 37.479 25.533 37.7153C26.5247 37.8936 27.3011 38.6699 27.4802 39.6616V50.4448C27.4802 52.012 26.2088 53.2834 24.6417 53.2834L24.7078 53.2939C24.3641 53.293 24.0242 53.2297 23.7035 53.1082C18.0802 51.0242 13.666 46.562 11.6422 40.9167C10.6725 38.3252 10.1555 35.5854 10.1144 32.8179C10.0176 27.2788 12.0309 21.9092 15.7463 17.7993C17.9203 15.3879 20.5549 13.4348 23.4958 12.0583C24.9279 11.4121 26.6119 12.0469 27.2619 13.4771C27.4256 13.8447 27.5117 14.2419 27.5127 14.645V30.0234H38.722C40.2863 30.0415 41.548 31.3081 41.5594 32.8723V47.3345C46.8362 44.4329 50.1179 38.8938 50.1275 32.8723V32.5449L50.1295 32.4934C50.1649 31.7185 50.5558 23.1543 41.6475 17.5811V24.9917C41.4111 26.3032 40.157 27.1743 38.8455 26.939C37.8537 26.7598 37.0782 25.9834 36.8992 24.9917V14.394C36.8992 12.8269 38.1696 11.5557 39.7368 11.5557H39.7482C40.1503 11.5576 40.5485 11.6428 40.9161 11.8074Z" fill="url(#paint0_linear)"/>
<defs>
<linearGradient id="paint0_linear" x2="1" gradientUnits="userSpaceOnUse" gradientTransform="translate(32.5) scale(65) rotate(90)">
<stop stop-color="#6CBDD8"/>
<stop offset="1" stop-color="#0199DD"/>
</linearGradient>
</defs>
</svg>
