<svg width="65" height="65" viewBox="0 0 65 65" fill="none" xmlns="http://www.w3.org/2000/svg">
<path fill-rule="evenodd" clip-rule="evenodd" d="M0 32.5C0 14.5508 14.5505 0 32.5 0C50.4492 0 65 14.5508 65 32.5C65 50.4492 50.4492 65 32.5 65C14.5505 65 0 50.4492 0 32.5ZM15.3535 41.7949C18.6556 47.8735 25.0958 52 32.4999 52C40.7952 52 47.881 46.8201 50.6988 39.5183C51.5392 37.3406 51.9999 34.9741 51.9999 32.5C51.9999 21.7305 43.2694 13 32.4999 13C21.7303 13 12.9999 21.7305 12.9999 32.5C12.9999 35.3462 13.6096 38.0498 14.7056 40.4875C14.9056 40.9324 15.1218 41.3684 15.3535 41.7949ZM15.4277 39.1543C14.6232 37.0918 14.1817 34.8474 14.1817 32.5C14.1817 22.3833 22.3831 14.1819 32.4999 14.1819C42.6168 14.1819 50.8181 22.3833 50.8181 32.5C50.8181 34.5051 50.4959 36.4353 49.9005 38.241L43.7272 28.3638L40.909 32.8728L32.7953 17.7273L24.201 33.77L21.2726 28.3638L15.4277 39.1543Z" fill="url(#paint0_linear)"/>
<defs>
<linearGradient id="paint0_linear" x2="1" gradientUnits="userSpaceOnUse" gradientTransform="translate(32.5) scale(65) rotate(90)">
<stop stop-color="#ACACAC"/>
<stop offset="1" stop-color="#555555"/>
</linearGradient>
</defs>
</svg>
