<svg width="65" height="65" viewBox="0 0 65 65" fill="none" xmlns="http://www.w3.org/2000/svg">
<path fill-rule="evenodd" clip-rule="evenodd" d="M40.386 29.9729H42.5174V27.8416H40.386V29.9729ZM40.386 33.6265H42.5174V31.4951H40.386V33.6265ZM40.386 37.2803H42.5174V35.1489H40.386V37.2803ZM40.386 40.9339H42.5174V38.8025H40.386V40.9339ZM40.386 44.5877H42.5174V42.4563H40.386V44.5877ZM40.386 48.2412H42.5174V46.1099H40.386V48.2412ZM40.386 51.895H42.5174V49.7637H40.386V51.895ZM36.9758 26.3191H39.1072V24.1877H36.9758V26.3191ZM36.9758 29.9729H39.1072V27.8416H36.9758V29.9729ZM36.9758 33.6265H39.1072V31.4951H36.9758V33.6265ZM36.9758 37.2803H39.1072V35.1489H36.9758V37.2803ZM36.9758 40.9339H39.1072V38.8025H36.9758V40.9339ZM36.9758 44.5877H39.1072V42.4563H36.9758V44.5877ZM36.9758 48.2412H39.1072V46.1099H36.9758V48.2412ZM36.9758 51.895H39.1072V49.7637H36.9758V51.895ZM33.5657 26.3191H35.697V24.1877H33.5657V26.3191ZM29.7291 29.7295H31.8605V27.5981H29.7291V29.7295ZM22.4827 51.8951H28.0242V13.1047H22.4827V51.8951ZM32.5 0C14.5508 0 0 14.5506 0 32.5C0 50.4492 14.5508 65 32.5 65C50.4492 65 65 50.4492 65 32.5C65 14.5506 50.4492 0 32.5 0Z" fill="url(#paint0_linear)"/>
<defs>
<linearGradient id="paint0_linear" x2="1" gradientUnits="userSpaceOnUse" gradientTransform="translate(32.5) scale(65) rotate(90)">
<stop stop-color="#4DB7E4"/>
<stop offset="1" stop-color="#1887B1"/>
</linearGradient>
</defs>
</svg>
