<svg width="65" height="65" viewBox="0 0 65 65" fill="none" xmlns="http://www.w3.org/2000/svg">
<path fill-rule="evenodd" clip-rule="evenodd" d="M36.1018 27.7371C33.0112 27.7371 31.4659 29.8962 31.4659 32.4999C31.4659 35.1036 33.0112 37.2627 36.1018 37.2627C39.1713 37.2627 40.7163 35.1036 40.7163 32.4999C40.7163 29.8962 39.1713 27.7371 36.1018 27.7371ZM50.7084 40.2052C48.6551 40.2052 46.7497 39.7182 45.2258 38.8716V35.8444C46.9192 36.9664 48.782 37.411 50.4754 37.411C52.19 37.411 53.2484 37.0511 53.2484 35.9928C53.2484 33.2198 45.1412 34.2569 45.1412 29.0071C45.1412 26.1495 47.639 24.7947 50.5603 24.7947C52.3171 24.7947 54.0952 25.218 55.3656 25.9377V28.9015C54.1164 28.0122 52.4442 27.5677 50.793 27.5889C49.1843 27.6101 48.3799 28.0546 48.3799 28.9649C48.3799 31.5261 56.4873 30.5736 56.4873 35.8444C56.4873 39.1678 53.82 40.2052 50.7084 40.2052ZM36.1019 40.2052C30.8519 40.2052 28.227 36.5219 28.227 32.5001C28.227 28.4779 30.8519 24.7947 36.1019 24.7947C41.3515 24.7947 43.9761 28.4779 43.9761 32.5001C43.9761 36.5219 41.3515 40.2052 36.1019 40.2052ZM27.3799 39.2525C26.1098 39.8666 24.6494 40.2052 23.0829 40.2052C19.1244 40.2052 15.0813 37.8343 15.0813 32.6694C15.1023 27.2503 19.0819 24.7947 23.0404 24.7947C24.522 24.7947 26.0042 25.1123 27.274 25.7471V28.7744C26.3216 28.0334 24.9456 27.6101 23.5698 27.6101C20.9659 27.6101 18.341 29.0918 18.341 32.6694C18.32 35.9293 20.9871 37.3685 23.5698 37.3685C25.0937 37.3685 26.4909 36.9452 27.3799 36.1408V39.2525ZM10.0854 39.9087H13.2608V25.0911H10.0854V39.9087ZM32.5 0C14.5508 0 0 14.5508 0 32.5C0 50.4492 14.5508 65 32.5 65C50.4494 65 65 50.4492 65 32.5C65 14.5508 50.4494 0 32.5 0Z" fill="url(#paint0_linear)"/>
<defs>
<linearGradient id="paint0_linear" x2="1" gradientUnits="userSpaceOnUse" gradientTransform="translate(-2.39477e-08 30.9051) scale(65.0196) rotate(1.40561)">
<stop stop-color="#50E3C2"/>
<stop offset="1" stop-color="#23C8C6"/>
</linearGradient>
</defs>
</svg>
