<svg width="65" height="65" viewBox="0 0 65 65" fill="none" xmlns="http://www.w3.org/2000/svg">
<path fill-rule="evenodd" clip-rule="evenodd" d="M32.5 0C14.5506 0 0 14.5508 0 32.5C0 50.4492 14.5506 65 32.5 65C50.4492 65 65 50.4492 65 32.5C65 14.5508 50.4492 0 32.5 0ZM13.2279 39V26.1152H15.8295V39H13.2279ZM18.2992 26.1152H23.0541C24.1263 26.1152 24.9437 26.1973 25.5062 26.3613C26.2621 26.584 26.9095 26.9795 27.4486 27.5479C27.9877 28.1162 28.3978 28.812 28.6791 29.6353C28.9603 30.4585 29.101 31.4736 29.101 32.6807C29.101 33.7412 28.9691 34.6553 28.7054 35.4229C28.3832 36.3604 27.9232 37.1191 27.3256 37.6992C26.8744 38.1387 26.265 38.4814 25.4974 38.7275C24.9232 38.9092 24.1556 39 23.1947 39H18.2992V26.1152ZM20.9008 28.2949V36.8291H22.8431C23.5697 36.8291 24.0941 36.7881 24.4164 36.7061C24.8383 36.6006 25.1884 36.4219 25.4667 36.1699C25.745 35.918 25.972 35.5034 26.1478 34.9263C26.3236 34.3491 26.4115 33.5625 26.4115 32.5664C26.4115 31.5703 26.3236 30.8057 26.1478 30.2725C25.972 29.7393 25.726 29.3232 25.4095 29.0244C25.0931 28.7256 24.6918 28.5234 24.2054 28.418C23.8422 28.3359 23.1303 28.2949 22.0697 28.2949H20.9008ZM31.307 39V26.1152H40.8607V28.2949H33.9086V31.1514H40.3773V33.3223H33.9086V36.8291H41.1068V39H31.307ZM54.932 39H52.1019L50.9769 36.0732H45.8265L44.7631 39H42.0033L47.0219 26.1152H49.7728L54.932 39ZM50.142 33.9023L48.3666 29.1211L46.6263 33.9023H50.142Z" fill="url(#paint0_linear)"/>
<defs>
<linearGradient id="paint0_linear" x2="1" gradientUnits="userSpaceOnUse" gradientTransform="translate(32.5) scale(65) rotate(90)">
<stop stop-color="#ACACAC"/>
<stop offset="1" stop-color="#555555"/>
</linearGradient>
</defs>
</svg>
