<svg width="65" height="65" viewBox="0 0 65 65" fill="none" xmlns="http://www.w3.org/2000/svg">
<path fill-rule="evenodd" clip-rule="evenodd" d="M65 32.5C65 50.4492 50.4493 65 32.5 65C14.5507 65 0 50.4492 0 32.5C0 14.5508 14.5507 0 32.5 0C50.4493 0 65 14.5508 65 32.5ZM35.7301 54.7717C25.3862 40.4998 11.9011 30.9099 9.74066 29.4604C9.54211 29.3271 9.42358 29.1033 9.42499 28.8643V28.8044C9.42413 28.4927 9.62573 28.2163 9.92303 28.1218C18.0141 25.5535 42.25 14.95 48.1058 11.4883C48.6588 11.1621 49.3007 11.7947 49.0668 12.3921L44.9459 22.8318C44.8851 22.9871 44.7622 23.1101 44.6068 23.1709L27.8541 29.7549C27.5392 29.8765 27.2873 30.1211 27.1563 30.4321C27.0253 30.7432 27.0266 31.0942 27.1597 31.4045C27.4207 32.0146 28.115 32.3123 28.7368 32.0803L42.8615 26.7026C43.0588 26.6294 43.2804 26.6719 43.4368 26.8127C43.5931 26.9536 43.6584 27.1697 43.6061 27.3735L41.0482 37.321C40.9858 37.5627 40.8221 37.7656 40.5993 37.8777L36.1942 40.0989C35.9312 40.2222 35.775 40.4985 35.8049 40.7874L37.306 54.179C37.3461 54.6089 37.0665 55.0037 36.6478 55.1084C36.3019 55.1943 35.9385 55.061 35.7301 54.7717Z" fill="url(#paint0_linear)"/>
<defs>
<linearGradient id="paint0_linear" x2="1" gradientUnits="userSpaceOnUse" gradientTransform="translate(32.5) scale(65) rotate(90)">
<stop stop-color="#01A5F1"/>
<stop offset="0.52" stop-color="#01C6DA"/>
<stop offset="1" stop-color="#02E1C9"/>
</linearGradient>
</defs>
</svg>
