<svg width="65" height="65" viewBox="0 0 65 65" fill="none" xmlns="http://www.w3.org/2000/svg">
<path fill-rule="evenodd" clip-rule="evenodd" d="M0 32.5C0 14.5508 14.5505 0 32.5 0C50.4492 0 65 14.5508 65 32.5C65 50.4492 50.4492 65 32.5 65C14.5505 65 0 50.4492 0 32.5ZM30.0463 22.0447C30.0463 23.554 28.8105 24.7773 27.286 24.7773C25.7616 24.7773 24.5258 23.554 24.5258 22.0447C24.5258 20.5354 25.7616 19.312 27.286 19.312C28.8105 19.312 30.0463 20.5354 30.0463 22.0447ZM34.9535 21.7104C36.478 21.7104 37.7137 20.4871 37.7137 18.9778C37.7137 17.4685 36.478 16.2451 34.9535 16.2451C33.4291 16.2451 32.1932 17.4685 32.1932 18.9778C32.1932 20.4871 33.4291 21.7104 34.9535 21.7104ZM41.0874 37.6863C41.0874 39.1956 39.8517 40.4189 38.3271 40.4189C36.8027 40.4189 35.5669 39.1956 35.5669 37.6863C35.5669 36.177 36.8027 34.9536 38.3271 34.9536C39.8517 34.9536 41.0874 36.177 41.0874 37.6863ZM11.6874 36.5422C12.558 36.5422 13.2638 35.8435 13.2638 34.9812C13.2638 34.1191 12.558 33.4202 11.6874 33.4202C10.8168 33.4202 10.111 34.1191 10.111 34.9812C10.111 35.8435 10.8168 36.5422 11.6874 36.5422ZM17.3859 45.6328C17.3859 46.2798 16.8558 46.8044 16.202 46.8044C15.5482 46.8044 15.0182 46.2798 15.0182 45.6328C15.0182 44.9856 15.5482 44.4612 16.202 44.4612C16.8558 44.4612 17.3859 44.9856 17.3859 45.6328ZM28.7766 54.4719C29.4304 54.4719 29.9604 53.9473 29.9604 53.3003C29.9604 52.6531 29.4304 52.1287 28.7766 52.1287C28.1228 52.1287 27.5928 52.6531 27.5928 53.3003C27.5928 53.9473 28.1228 54.4719 28.7766 54.4719ZM50.5092 46.2463C50.5092 46.8933 49.9791 47.418 49.3253 47.418C48.6715 47.418 48.1415 46.8933 48.1415 46.2463C48.1415 45.5991 48.6715 45.0747 49.3253 45.0747C49.9791 45.0747 50.5092 45.5991 50.5092 46.2463ZM36.7507 45.271C37.4045 45.271 37.9346 44.7463 37.9346 44.0994C37.9346 43.4521 37.4045 42.9277 36.7507 42.9277C36.0969 42.9277 35.5669 43.4521 35.5669 44.0994C35.5669 44.7463 36.0969 45.271 36.7507 45.271ZM44.9885 38.5789C44.9885 39.2258 44.4585 39.7505 43.8047 39.7505C43.1509 39.7505 42.6208 39.2258 42.6208 38.5789C42.6208 37.9316 43.1509 37.4072 43.8047 37.4072C44.4585 37.4072 44.9885 37.9316 44.9885 38.5789ZM35.3031 54.6372C36.1737 54.6372 36.8795 53.9385 36.8795 53.0762C36.8795 52.2141 36.1737 51.5151 35.3031 51.5151C34.4325 51.5151 33.7267 52.2141 33.7267 53.0762C33.7267 53.9385 34.4325 54.6372 35.3031 54.6372ZM44.2402 33.4478C44.2402 34.3101 43.5344 35.0088 42.6638 35.0088C41.7932 35.0088 41.0874 34.3101 41.0874 33.4478C41.0874 32.5857 41.7932 31.8867 42.6638 31.8867C43.5344 31.8867 44.2402 32.5857 44.2402 33.4478ZM44.8107 50.6501C45.6813 50.6501 46.3871 49.9514 46.3871 49.0891C46.3871 48.2271 45.6813 47.5281 44.8107 47.5281C43.9401 47.5281 43.2343 48.2271 43.2343 49.0891C43.2343 49.9514 43.9401 50.6501 44.8107 50.6501ZM15.5886 40.8914C15.5886 41.9685 14.7057 42.8418 13.6166 42.8418C12.5275 42.8418 11.6445 41.9685 11.6445 40.8914C11.6445 39.814 12.5275 38.9407 13.6166 38.9407C14.7057 38.9407 15.5886 39.814 15.5886 40.8914ZM32.8065 50.54C34.3311 50.54 35.5668 49.3167 35.5668 47.8074C35.5668 46.2981 34.3311 45.0747 32.8065 45.0747C31.2821 45.0747 30.0463 46.2981 30.0463 47.8074C30.0463 49.3167 31.2821 50.54 32.8065 50.54ZM20.5387 34.6194C20.5387 36.1287 19.303 37.3521 17.7784 37.3521C16.254 37.3521 15.0182 36.1287 15.0182 34.6194C15.0182 33.1101 16.254 31.8867 17.7784 31.8867C19.303 31.8867 20.5387 33.1101 20.5387 34.6194ZM32.6317 43.762C33.7208 43.762 34.6038 42.8887 34.6038 41.8115C34.6038 40.7341 33.7208 39.8608 32.6317 39.8608C31.5426 39.8608 30.6597 40.7341 30.6597 41.8115C30.6597 42.8887 31.5426 43.762 32.6317 43.762ZM24.4398 25.3909C24.4398 26.0378 23.9098 26.5625 23.256 26.5625C22.6022 26.5625 22.0721 26.0378 22.0721 25.3909C22.0721 24.7437 22.6022 24.2192 23.256 24.2192C23.9098 24.2192 24.4398 24.7437 24.4398 25.3909ZM30.5708 31.0522C31.8767 31.0522 32.9354 30.0032 32.9354 28.7092C32.9354 27.415 31.8767 26.366 30.5708 26.366C29.2649 26.366 28.2062 27.415 28.2062 28.7092C28.2062 30.0032 29.2649 31.0522 30.5708 31.0522ZM37.7996 31.9141C37.7996 32.7764 37.0938 33.4751 36.2231 33.4751C35.3525 33.4751 34.6467 32.7764 34.6467 31.9141C34.6467 31.052 35.3525 30.353 36.2231 30.353C37.0938 30.353 37.7996 31.052 37.7996 31.9141ZM38.8976 13.9878C39.5514 13.9878 40.0814 13.4631 40.0814 12.8162C40.0814 12.1689 39.5514 11.6445 38.8976 11.6445C38.2438 11.6445 37.7137 12.1689 37.7137 12.8162C37.7137 13.4631 38.2438 13.9878 38.8976 13.9878ZM35.5239 12.0618C35.5239 13.1389 34.641 14.0122 33.5519 14.0122C32.4628 14.0122 31.5798 13.1389 31.5798 12.0618C31.5798 10.9844 32.4628 10.1111 33.5519 10.1111C34.641 10.1111 35.5239 10.9844 35.5239 12.0618ZM34.6897 26.4211C35.5603 26.4211 36.2661 25.7224 36.2661 24.8601C36.2661 23.998 35.5603 23.2991 34.6897 23.2991C33.8191 23.2991 33.1133 23.998 33.1133 24.8601C33.1133 25.7224 33.8191 26.4211 34.6897 26.4211ZM21.8943 41.2839C21.8943 42.5779 20.8356 43.627 19.5297 43.627C18.2238 43.627 17.165 42.5779 17.165 41.2839C17.165 39.9897 18.2238 38.9407 19.5297 38.9407C20.8356 38.9407 21.8943 39.9897 21.8943 41.2839ZM42.532 46.0806C43.8379 46.0806 44.8966 45.0315 44.8966 43.7375C44.8966 42.4434 43.8379 41.3943 42.532 41.3943C41.2261 41.3943 40.1674 42.4434 40.1674 43.7375C40.1674 45.0315 41.2261 46.0806 42.532 46.0806ZM41.8296 49.2581C41.8296 50.552 40.7709 51.6011 39.465 51.6011C38.1591 51.6011 37.1003 50.552 37.1003 49.2581C37.1003 47.9639 38.1591 46.9148 39.465 46.9148C40.7709 46.9148 41.8296 47.9639 41.8296 49.2581ZM20.8453 51.46C22.3699 51.46 23.6056 50.2366 23.6056 48.7273C23.6056 47.218 22.3699 45.9946 20.8453 45.9946C19.3209 45.9946 18.0851 47.218 18.0851 48.7273C18.0851 50.2366 19.3209 51.46 20.8453 51.46ZM14.8402 28.7092C14.8402 30.0032 13.7815 31.0522 12.4756 31.0522C11.1697 31.0522 10.111 30.0032 10.111 28.7092C10.111 27.415 11.1697 26.366 12.4756 26.366C13.7815 26.366 14.8402 27.415 14.8402 28.7092ZM24.308 35.064C26.051 35.064 27.4639 33.666 27.4639 31.9417C27.4639 30.2175 26.051 28.8196 24.308 28.8196C22.5651 28.8196 21.1521 30.2175 21.1521 31.9417C21.1521 33.666 22.5651 35.064 24.308 35.064ZM44.0255 27.3413C44.0255 29.0657 42.6127 30.4636 40.8696 30.4636C39.1267 30.4636 37.7137 29.0657 37.7137 27.3413C37.7137 25.6172 39.1267 24.2192 40.8696 24.2192C42.6127 24.2192 44.0255 25.6172 44.0255 27.3413ZM49.5859 43.627C50.8918 43.627 51.9506 42.5779 51.9506 41.2839C51.9506 39.9897 50.8918 38.9407 49.5859 38.9407C48.28 38.9407 47.2213 39.9897 47.2213 41.2839C47.2213 42.5779 48.28 43.627 49.5859 43.627ZM54.4042 32.083C54.4042 33.377 53.3455 34.426 52.0396 34.426C50.7336 34.426 49.6749 33.377 49.6749 32.083C49.6749 30.7888 50.7336 29.7397 52.0396 29.7397C53.3455 29.7397 54.4042 30.7888 54.4042 32.083ZM43.0594 23.2131C44.1486 23.2131 45.0315 22.3398 45.0315 21.2627C45.0315 20.1853 44.1486 19.312 43.0594 19.312C41.9703 19.312 41.0874 20.1853 41.0874 21.2627C41.0874 22.3398 41.9703 23.2131 43.0594 23.2131ZM44.8536 15.6592C44.8536 16.5215 44.1478 17.2202 43.2772 17.2202C42.4066 17.2202 41.7008 16.5215 41.7008 15.6592C41.7008 14.7971 42.4066 14.0981 43.2772 14.0981C44.1478 14.0981 44.8536 14.7971 44.8536 15.6592ZM46.8717 18.5884C47.5255 18.5884 48.0555 18.0637 48.0555 17.4167C48.0555 16.7695 47.5255 16.2451 46.8717 16.2451C46.2179 16.2451 45.6879 16.7695 45.6879 17.4167C45.6879 18.0637 46.2179 18.5884 46.8717 18.5884ZM54.4962 26.9243C54.4962 27.5713 53.9662 28.0959 53.3124 28.0959C52.6586 28.0959 52.1285 27.5713 52.1285 26.9243C52.1285 26.2771 52.6586 25.7527 53.3124 25.7527C53.9662 25.7527 54.4962 26.2771 54.4962 26.9243ZM19.2689 17.9749C19.9227 17.9749 20.4528 17.4502 20.4528 16.8032C20.4528 16.156 19.9227 15.6316 19.2689 15.6316C18.6151 15.6316 18.0851 16.156 18.0851 16.8032C18.0851 17.4502 18.6151 17.9749 19.2689 17.9749ZM18.9193 26.9243C18.9193 27.5713 18.3893 28.0959 17.7355 28.0959C17.0817 28.0959 16.5516 27.5713 16.5516 26.9243C16.5516 26.2771 17.0817 25.7527 17.7355 25.7527C18.3893 25.7527 18.9193 26.2771 18.9193 26.9243ZM20.8025 29.6294C21.4563 29.6294 21.9863 29.1047 21.9863 28.4578C21.9863 27.8105 21.4563 27.2861 20.8025 27.2861C20.1487 27.2861 19.6187 27.8105 19.6187 28.4578C19.6187 29.1047 20.1487 29.6294 20.8025 29.6294ZM25.9734 13.7363C25.9734 14.3833 25.4434 14.908 24.7896 14.908C24.1357 14.908 23.6057 14.3833 23.6057 13.7363C23.6057 13.0891 24.1357 12.5647 24.7896 12.5647C25.4434 12.5647 25.9734 13.0891 25.9734 13.7363ZM53.3124 38.217C53.9662 38.217 54.4962 37.6924 54.4962 37.0454C54.4962 36.3982 53.9662 35.8738 53.3124 35.8738C52.6586 35.8738 52.1285 36.3982 52.1285 37.0454C52.1285 37.6924 52.6586 38.217 53.3124 38.217ZM52.1284 22.9648C52.1284 24.4741 50.8927 25.6975 49.3682 25.6975C47.8438 25.6975 46.6079 24.4741 46.6079 22.9648C46.6079 21.4556 47.8438 20.2322 49.3682 20.2322C50.8927 20.2322 52.1284 21.4556 52.1284 22.9648ZM46.7399 31.8008C47.829 31.8008 48.7119 30.9275 48.7119 29.8503C48.7119 28.7729 47.829 27.8997 46.7399 27.8997C45.6508 27.8997 44.7678 28.7729 44.7678 29.8503C44.7678 30.9275 45.6508 31.8008 46.7399 31.8008ZM22.0292 21.2627C22.0292 22.3398 21.1462 23.2131 20.0571 23.2131C18.968 23.2131 18.0851 22.3398 18.0851 21.2627C18.0851 20.1853 18.968 19.312 20.0571 19.312C21.1462 19.312 22.0292 20.1853 22.0292 21.2627ZM28.6447 17.9993C29.7338 17.9993 30.6167 17.126 30.6167 16.0488C30.6167 14.9714 29.7338 14.0981 28.6447 14.0981C27.5555 14.0981 26.6726 14.9714 26.6726 16.0488C26.6726 17.126 27.5555 17.9993 28.6447 17.9993ZM25.225 17.1926C25.225 18.0549 24.5192 18.7537 23.6486 18.7537C22.778 18.7537 22.0721 18.0549 22.0721 17.1926C22.0721 16.3306 22.778 15.6316 23.6486 15.6316C24.5192 15.6316 25.225 16.3306 25.225 17.1926ZM15.061 24.8877C15.9316 24.8877 16.6375 24.189 16.6375 23.3267C16.6375 22.4646 15.9316 21.7656 15.061 21.7656C14.1904 21.7656 13.4846 22.4646 13.4846 23.3267C13.4846 24.189 14.1904 24.8877 15.061 24.8877ZM49.7607 35.9014C49.7607 36.7637 49.0549 37.4624 48.1843 37.4624C47.3137 37.4624 46.6079 36.7637 46.6079 35.9014C46.6079 35.0393 47.3137 34.3403 48.1843 34.3403C49.0549 34.3403 49.7607 35.0393 49.7607 35.9014ZM30.9664 38.272C32.491 38.272 33.7267 37.0486 33.7267 35.5393C33.7267 34.03 32.491 32.8066 30.9664 32.8066C29.442 32.8066 28.2062 34.03 28.2062 35.5393C28.2062 37.0486 29.442 38.272 30.9664 38.272ZM27.6786 38.0481C27.6786 38.9104 26.9728 39.6091 26.1022 39.6091C25.2316 39.6091 24.5258 38.9104 24.5258 38.0481C24.5258 37.186 25.2316 36.4871 26.1022 36.4871C26.9728 36.4871 27.6786 37.186 27.6786 38.0481ZM26.8904 46.0806C28.1963 46.0806 29.255 45.0315 29.255 43.7375C29.255 42.4434 28.1963 41.3943 26.8904 41.3943C25.5845 41.3943 24.5258 42.4434 24.5258 43.7375C24.5258 45.0315 25.5845 46.0806 26.8904 46.0806ZM28.292 49.0891C28.292 49.9514 27.5862 50.6501 26.7156 50.6501C25.845 50.6501 25.1392 49.9514 25.1392 49.0891C25.1392 48.2271 25.845 47.5281 26.7156 47.5281C27.5862 47.5281 28.292 48.2271 28.292 49.0891Z" fill="url(#paint0_linear)"/>
<defs>
<linearGradient id="paint0_linear" x2="1" gradientUnits="userSpaceOnUse" gradientTransform="translate(32.5 1.4703) scale(62.961) rotate(90)">
<stop stop-color="#B2A3F6"/>
<stop offset="1" stop-color="#FC4C06"/>
</linearGradient>
</defs>
</svg>
