<svg width="65" height="65" viewBox="0 0 65 65" fill="none" xmlns="http://www.w3.org/2000/svg">
<path fill-rule="evenodd" clip-rule="evenodd" d="M0 32.5C0 14.5508 14.5505 0 32.5 0C50.4492 0 65 14.5508 65 32.5C65 50.4492 50.4492 65 32.5 65C14.5505 65 0 50.4492 0 32.5ZM50.8064 25.0537V40.0061C51.8064 40.3921 52.4689 41.3501 52.4766 42.4221C52.4795 43.3345 51.9998 44.1802 51.2153 44.646C50.4308 45.1118 49.4585 45.1282 48.6589 44.6887L35.2672 52.0557C35.2758 52.1216 35.2791 52.188 35.2772 52.2546C35.3074 53.6821 34.1746 54.864 32.7471 54.894C31.3195 54.9243 30.1377 53.7915 30.1074 52.364L23.5757 48.5959L23.4265 48.5164L16.5468 44.5496C16.118 44.8481 15.6078 45.0078 15.0853 45.0068C13.7952 45.0098 12.7003 44.061 12.52 42.7834C12.3396 41.5059 13.1289 40.291 14.3695 39.9365V25.1233C13.3365 24.8284 12.5936 23.925 12.5035 22.8545C12.4135 21.7839 12.9949 20.7693 13.9641 20.3059C14.9332 19.8423 16.0881 20.0266 16.8649 20.7688L30.1273 13.1135C30.1075 12.9751 30.0975 12.8357 30.0975 12.696C30.0975 11.2683 31.2548 10.1111 32.6824 10.1111C34.11 10.1111 35.2672 11.2683 35.2672 12.696C35.2676 12.8799 35.2477 13.0632 35.2076 13.2427L48.1519 20.719C48.6246 20.2878 49.2421 20.0503 49.8818 20.053C51.1301 20.0503 52.2019 20.9404 52.4288 22.1677C52.6558 23.3953 51.973 24.6096 50.8064 25.0537ZM41.6599 34.1703L41.63 33.9715L41.3218 33.8223L39.3832 32.6591L41.4113 31.4363L41.7295 31.2872L41.7493 30.5117L41.7593 18.6809L47.3864 21.9319C47.322 22.1617 47.2886 22.3991 47.2869 22.6378C47.289 23.8692 48.1577 24.9291 49.3648 25.1729V39.8869C48.1618 40.1352 47.2984 41.1937 47.2969 42.422C47.2977 42.8444 47.4 43.2604 47.5951 43.6349L41.6599 46.8959V34.1703ZM32.6823 15.281C33.3751 15.2821 34.0387 15.0023 34.5216 14.5055L40.3276 17.8559V30.4124L37.9913 31.8242L34.8397 29.9352C34.8599 29.8204 34.8699 29.7039 34.8695 29.5873C34.8695 28.3244 33.8458 27.3006 32.5829 27.3006C31.32 27.3006 30.2963 28.3244 30.2963 29.5873C30.2992 29.7338 30.3125 29.88 30.3361 30.0247L27.2839 31.8341L24.868 30.3826V17.8161L30.7536 14.416C31.2439 14.966 31.9455 15.2807 32.6823 15.281ZM34.1935 34.1405C33.3215 33.2743 31.9207 33.2523 31.022 34.0908L28.6559 32.6691L31.032 31.2772C31.928 32.103 33.3141 32.0811 34.1835 31.2275L36.5994 32.679L34.1935 34.1405ZM17.4713 43.4264C17.7556 42.7474 17.7369 41.9794 17.4199 41.315C17.1029 40.6506 16.5177 40.1529 15.811 39.9467V25.1135C17.1453 24.7308 17.9337 23.3567 17.5906 22.0116L23.4265 18.6414V30.8102L23.4364 31.2874L24.2119 31.6851L25.8821 32.6792L24.0329 33.7728L23.5358 34.0711L23.4364 34.1705L23.4265 34.5682V46.8662L17.4713 43.4264ZM30.4654 50.9324L24.8582 47.6913V34.8962L27.2442 33.4944L30.3361 35.3436C30.3125 35.4782 30.2992 35.6145 30.2963 35.7512C30.2963 37.014 31.3201 38.0378 32.583 38.0378C33.8458 38.0378 34.8696 37.014 34.8696 35.7512C34.87 35.6378 34.86 35.5247 34.8398 35.4132L37.9913 33.5043L40.2282 34.8465V47.6913L34.7403 50.7137C34.2569 50.0625 33.4934 49.6789 32.6824 49.6797C31.7742 49.6772 30.9319 50.1532 30.4654 50.9324Z" fill="url(#paint0_linear)"/>
<defs>
<linearGradient id="paint0_linear" x2="1" gradientUnits="userSpaceOnUse" gradientTransform="translate(32.5) scale(65) rotate(90)">
<stop stop-color="#61A7E2"/>
<stop offset="1" stop-color="#102044"/>
</linearGradient>
</defs>
</svg>
