<svg width="65" height="65" viewBox="0 0 65 65" fill="none" xmlns="http://www.w3.org/2000/svg">
<path fill-rule="evenodd" clip-rule="evenodd" d="M0 32.5C0 14.5508 14.5505 0 32.5 0C50.4492 0 65 14.5508 65 32.5C65 50.4492 50.4492 65 32.5 65C14.5505 65 0 50.4492 0 32.5ZM12.9999 32.4902C13.005 21.7371 21.7576 12.9937 32.5109 13C43.2627 13.0051 52.005 21.7578 51.9999 32.5098C51.9948 43.2629 43.2422 52.0051 32.4902 52C21.7383 51.9937 12.9948 43.2422 12.9999 32.4902ZM15.501 32.4917C15.4958 41.8799 23.1034 49.4951 32.4915 49.499C41.8796 49.5042 49.4949 41.8979 49.4988 32.5085C49.5039 23.1204 41.8977 15.5063 32.5095 15.5012C23.1201 15.4961 15.5061 23.1023 15.501 32.4917ZM42.4895 25.8789C42.022 26.4976 41.526 27.0881 41.0308 27.6777L40.9996 27.7148C40.4863 28.3105 39.9703 28.9036 39.4403 29.4812C39.054 29.9153 38.6555 30.3374 38.2572 30.7593L37.8373 31.2053C37.413 31.655 36.9807 32.0981 36.5461 32.5381L36.2058 32.1807L36.1969 32.8909L36.5461 32.5381C36.9965 33.0134 37.4427 33.4932 37.8849 33.9753C38.0751 34.1899 38.267 34.4026 38.4589 34.6152L38.4637 34.6206C38.8193 35.0149 39.1747 35.4089 39.5188 35.814C40.0591 36.4314 40.5853 37.0605 41.1064 37.696L41.2729 37.9045L41.2787 37.9116C41.7349 38.4824 42.1906 39.0527 42.6168 39.6516C42.0452 39.1992 41.5006 38.7197 40.9564 38.2405L40.9512 38.2358L40.7372 38.0474C40.1299 37.4954 39.5253 36.9397 38.9347 36.3696C38.5548 36.0127 38.1858 35.6458 37.8168 35.2788L37.7974 35.2595C37.5918 35.0552 37.386 34.8508 37.1785 34.6482C36.6034 34.0642 36.0321 33.4775 35.4686 32.8818L35.1251 32.5203L35.4777 32.1716C36.0334 31.6196 36.5931 31.0688 37.1631 30.5312C37.3115 30.3921 37.4595 30.2524 37.6074 30.1128L37.6136 30.1069L37.6199 30.1011L37.626 30.0952C38.0425 29.7021 38.4587 29.3091 38.8871 28.928C39.4647 28.3979 40.0579 27.8821 40.6536 27.3687L40.6899 27.3381C41.2799 26.8425 41.8705 26.3467 42.4895 25.8789ZM23.9994 37.478L23.9948 37.4836C23.4901 38.0833 22.9857 38.6826 22.5105 39.3113C23.1295 38.8435 23.7201 38.3477 24.3101 37.8521L24.3464 37.8215C24.9421 37.3081 25.5366 36.7922 26.1143 36.2622C26.5585 35.8657 26.9916 35.4568 27.4243 35.0481L27.837 34.6592C28.4082 34.1213 28.9666 33.5706 29.5237 33.0188L29.8749 32.6702L29.5327 32.3086C28.9691 31.7129 28.3979 31.1262 27.8215 30.5435C27.6356 30.3616 27.4513 30.1785 27.2671 29.9954L27.2448 29.9731L27.2036 29.9321L27.1974 29.926C26.8237 29.554 26.4501 29.1821 26.0653 28.8206C25.4749 28.252 24.8715 27.6948 24.2628 27.1428L24.0245 26.9331L24.0161 26.9255L24.0034 26.9143C23.473 26.4473 22.942 25.98 22.3832 25.5386C22.8112 26.1396 23.2687 26.7122 23.7268 27.2854L23.7294 27.2886L23.8937 27.4941C24.4147 28.1296 24.9421 28.7603 25.4812 29.3765C25.8275 29.7839 26.1853 30.1807 26.5432 30.5771L26.5784 30.6162C26.7579 30.8152 26.9374 31.0144 27.1152 31.2148C27.5582 31.697 28.0039 32.1768 28.4539 32.6521C28.0193 33.092 27.587 33.5354 27.1628 33.9849L26.8398 34.3281L26.7523 34.4209C26.3508 34.8462 25.9495 35.2715 25.561 35.709C25.0297 36.2866 24.515 36.8796 24.0017 37.4753L23.9994 37.478ZM28.4539 32.6521L28.8032 32.2996L28.7942 33.0098C28.6804 32.8909 28.567 32.7717 28.4539 32.6521ZM39.2166 42.584C38.5975 42.1162 38.007 41.6204 37.417 41.1248L37.3806 41.0942C36.7849 40.5808 36.1918 40.0649 35.6141 39.5349C35.1814 39.1497 34.7606 38.7524 34.3398 38.3552C34.1902 38.2139 34.0404 38.0728 33.8901 37.9319C33.4395 37.5076 32.9969 37.0762 32.5566 36.6414C32.6764 36.5281 32.7958 36.4143 32.9149 36.3005L32.2034 36.2915L32.5566 36.6414C32.0815 37.0913 31.6021 37.5376 31.1201 37.9795C30.9056 38.1697 30.6929 38.3616 30.4801 38.5535L30.4681 38.5642C30.0762 38.9177 29.6842 39.2712 29.2816 39.6133C28.6641 40.1538 28.0349 40.6799 27.3993 41.2009L27.1898 41.3684C26.6169 41.8264 26.0447 42.2837 25.4437 42.7114C25.9113 42.1208 26.4066 41.5591 26.9025 40.9968L26.9102 40.988L27.0481 40.8318C27.6 40.2246 28.1559 39.6199 28.7258 39.0293C29.0881 38.6436 29.4606 38.2693 29.8329 37.8953C30.0383 37.689 30.2437 37.4827 30.4473 37.2744C31.0314 36.698 31.618 36.1267 32.2137 35.5632L32.5752 35.2197L32.9238 35.5723C33.4758 36.1279 34.0265 36.6877 34.5642 37.2576C34.6829 37.3843 34.802 37.5105 34.9211 37.6367L34.9844 37.7039C35.3827 38.1257 35.781 38.5479 36.1674 38.9817C36.6974 39.5593 37.212 40.1523 37.7267 40.748L37.819 40.8582C38.2939 41.4248 38.7683 41.9907 39.2166 42.584ZM27.5162 24.0088C26.9476 23.532 26.3795 23.0559 25.7841 22.606C26.2323 23.1992 26.7067 23.7651 27.1816 24.3318L27.2739 24.4419C27.7872 25.0376 28.3032 25.6306 28.8333 26.2083C29.2201 26.6428 29.619 27.0654 30.0178 27.488C30.1575 27.636 30.2971 27.7839 30.4363 27.9324C30.9741 28.5022 31.5248 29.062 32.0767 29.6177L32.4254 29.9702L32.7869 29.6267C33.3826 29.0632 33.9692 28.4919 34.5521 27.9155C34.7505 27.7131 34.9503 27.5125 35.1501 27.3118C35.5286 26.9321 35.9069 26.5522 36.2748 26.1606C36.8435 25.5701 37.4005 24.9656 37.9525 24.3582L38.1355 24.1504C38.618 23.6025 39.1011 23.0542 39.5569 22.4785C38.9373 22.9197 38.3469 23.3921 37.757 23.8645L37.6013 23.989C36.9657 24.51 36.3353 25.0361 35.7178 25.5767C35.3204 25.9148 34.9331 26.2642 34.5453 26.6138C34.324 26.8132 34.1025 27.0127 33.8792 27.2104C33.3981 27.6526 32.9185 28.0986 32.4432 28.5491C32.0033 28.1145 31.5601 27.6824 31.1105 27.2581C30.9602 27.1172 30.8104 26.9761 30.6608 26.8347C30.24 26.4375 29.8192 26.0403 29.3865 25.655C28.8088 25.125 28.2157 24.6091 27.62 24.0957L27.5162 24.0088ZM32.4432 28.5491C32.3237 28.6624 32.2046 28.7759 32.0857 28.8896L32.7959 28.8984C32.6786 28.782 32.561 28.6653 32.4432 28.5491Z" fill="url(#paint0_linear)"/>
<defs>
<linearGradient id="paint0_linear" x2="1" gradientUnits="userSpaceOnUse" gradientTransform="translate(32.5 2.01182) scale(62.9882) rotate(90)">
<stop stop-color="#70D463"/>
<stop offset="1" stop-color="#6CF000"/>
</linearGradient>
</defs>
</svg>
