<svg width="65" height="65" viewBox="0 0 65 65" fill="none" xmlns="http://www.w3.org/2000/svg">
<path fill-rule="evenodd" clip-rule="evenodd" d="M42.2822 35.3397L29.6599 22.7177L42.1562 10.2217L45.9427 14.0082L37.3595 22.5913L46.1951 31.4269L42.2822 35.3397ZM36.8548 40.6414L24.3588 28.1454L28.1453 24.3586L40.6413 36.8546L36.8548 40.6414ZM22.7178 54.7782L18.8049 50.8651L27.6405 42.0296L19.0573 33.4464L22.8441 29.6599L35.3401 42.1559L22.7178 54.7782ZM32.5 0C14.5508 0 0 14.5506 0 32.5C0 50.4492 14.5508 65 32.5 65C50.4492 65 65 50.4492 65 32.5C65 14.5506 50.4492 0 32.5 0Z" fill="url(#paint0_linear)"/>
<defs>
<linearGradient id="paint0_linear" x2="1" gradientUnits="userSpaceOnUse" gradientTransform="translate(0 32.5) scale(65)">
<stop stop-color="#0DADC9"/>
<stop offset="0.983996" stop-color="#1C91CC"/>
</linearGradient>
</defs>
</svg>
