<svg width="65" height="65" viewBox="0 0 65 65" fill="none" xmlns="http://www.w3.org/2000/svg">
<path fill-rule="evenodd" clip-rule="evenodd" d="M0 32.5C0 14.5508 14.5505 0 32.5 0C50.4492 0 65 14.5508 65 32.5C65 50.4492 50.4492 65 32.5 65C14.5505 65 0 50.4492 0 32.5ZM20.7839 26.4817V30.4939C19.6759 30.4939 18.7777 31.3921 18.7777 32.5002V48.5496C18.7777 49.6575 19.6759 50.5557 20.7839 50.5557H44.8579C45.9659 50.5557 46.8641 49.6575 46.8641 48.5496V32.5002C46.8641 31.3921 45.9659 30.4939 44.8579 30.4939V26.4817C44.8579 19.8337 39.4688 14.4446 32.8209 14.4446C26.1731 14.4446 20.7839 19.8337 20.7839 26.4817ZM30.8147 39.7583V44.5371C30.8147 45.645 31.7129 46.5432 32.8209 46.5432C33.9288 46.5432 34.827 45.645 34.827 44.5371V39.7583C35.7571 38.9265 36.0773 37.6072 35.6321 36.4417C35.1869 35.2761 34.0686 34.5061 32.8209 34.5061C31.5732 34.5061 30.455 35.2761 30.0098 36.4417C29.5646 37.6072 29.8848 38.9265 30.8147 39.7583ZM25.7993 26.6821V30.4939H32.8209H39.8425V26.6821C39.8425 22.6938 36.6989 19.46 32.8209 19.46C28.943 19.46 25.7993 22.6938 25.7993 26.6821Z" fill="url(#paint0_linear)"/>
<defs>
<linearGradient id="paint0_linear" x2="1" gradientUnits="userSpaceOnUse" gradientTransform="translate(32.5) scale(65) rotate(90)">
<stop stop-color="#41D4FC"/>
<stop offset="1" stop-color="#3FA0F1"/>
</linearGradient>
</defs>
</svg>
