<svg width="65" height="65" viewBox="0 0 65 65" fill="none" xmlns="http://www.w3.org/2000/svg">
<path fill-rule="evenodd" clip-rule="evenodd" d="M0 32.5C0 14.5508 14.5505 0 32.5 0C50.4492 0 65 14.5508 65 32.5C65 50.4492 50.4492 65 32.5 65C14.5505 65 0 50.4492 0 32.5ZM32.165 50.8608L16.6074 41.9304L16.5723 23.9937L32.2003 32.9094L32.165 50.8608ZM33.5616 50.7986L49.0359 41.988L48.9664 24.0774L33.5967 32.8901L33.5616 50.7986ZM48.3848 22.8015L32.8981 31.6812L17.3169 22.8098L32.7677 13.7837L48.3848 22.8015ZM32.7635 12.1689L15.1729 22.4451L15.2126 42.7397L32.8032 52.8372L50.4353 42.7979L50.3558 22.3274L32.7635 12.1689ZM41.6013 31.9448L41.0485 32.2561C39.7014 33.0146 38.6495 34.7256 38.6631 36.1726L38.6748 37.4224C38.1206 37.7603 37.6909 38.4758 37.6964 39.0649L37.7354 43.2087C37.741 43.8152 38.2133 44.033 38.7832 43.7119L44.7288 40.365C45.3064 40.0398 45.7611 39.291 45.7555 38.6938L45.7162 34.5505C45.7107 33.9612 45.2645 33.739 44.7163 34.0215L44.7118 33.54C44.6956 31.7925 43.1713 31.061 41.6013 31.9448ZM40.064 36.6394L43.3274 34.8022L43.3157 33.5532C43.3098 32.9307 42.9788 32.7717 42.2864 33.1616L41.7335 33.4729C40.818 33.9883 40.0508 35.2363 40.0594 36.1597L40.064 36.6394ZM41.1097 37.9441C41.516 37.0891 42.132 36.4426 42.4857 36.4998C42.8395 36.5571 42.797 37.2966 42.3907 38.1506C42.3326 38.2727 42.2704 38.3906 42.2051 38.5027L42.2141 39.4783C42.2153 39.603 42.1228 39.7537 42.0035 39.8206L41.5358 40.085C41.4165 40.1521 41.3221 40.1067 41.3209 39.9819L41.3165 39.5166C41.2047 39.5806 41.1017 39.6091 41.0146 39.595C40.661 39.5378 40.7024 38.7991 41.1097 37.9441ZM18.983 29.0811L17.7634 27.6433V27.1821L18.983 27.1472V27.7026L18.2418 27.6941L18.983 28.5356V29.0811ZM22.054 30.1023L20.8344 30.1426V29.5962L21.5756 29.6055L20.8344 28.7639V28.2085L22.054 29.6416V30.1023ZM19.3281 28.0098L20.4076 28.6284C20.4758 28.6677 20.5305 28.7783 20.5305 28.8774V29.1255C20.5305 29.2249 20.476 29.2727 20.4076 29.2336L19.3281 28.6147C19.2599 28.5757 19.2051 28.4651 19.2051 28.3657V28.1177C19.2051 28.0186 19.2631 27.9724 19.3281 28.0098ZM27.6495 35.4631L17.9332 29.8892C17.8378 29.8318 17.7615 29.8701 17.7615 29.9846V30.4429C17.7615 30.5574 17.8378 30.6909 17.9332 30.7483L27.6495 36.322C27.7449 36.3794 27.8212 36.3413 27.8212 36.2268V35.7686C27.8212 35.6541 27.7449 35.5203 27.6495 35.4631ZM17.9332 31.3018L31.5625 39.1091C31.658 39.1663 31.7343 39.3 31.7343 39.4146V39.8728C31.7343 39.9873 31.658 40.0256 31.5625 39.9683L17.9332 32.1606C17.8378 32.1035 17.7615 31.9697 17.7615 31.8552V31.3972C17.7617 31.3018 17.8381 31.2634 17.9332 31.3018ZM31.5625 40.4639L17.9332 32.6562C17.8378 32.5999 17.7615 32.6572 17.7615 32.7527V33.2107C17.7615 33.3254 17.8378 33.459 17.9332 33.5161L31.5625 41.3228C31.658 41.3801 31.7343 41.3418 31.7343 41.2273V40.769C31.7343 40.6545 31.658 40.521 31.5625 40.4639ZM17.9332 34.0125L23.8319 37.3911C23.9272 37.4485 24.0035 37.582 24.0035 37.6965V38.1548C24.0035 38.2693 23.9272 38.3076 23.8319 38.2502L17.9332 34.8708C17.8378 34.8137 17.7615 34.6799 17.7615 34.5654V34.1079C17.7617 33.9934 17.8381 33.9551 17.9332 34.0125ZM29.501 41.9719L17.9332 35.3484C17.8378 35.3101 17.7615 35.3484 17.7615 35.4438V35.9021C17.7615 36.0166 17.8378 36.1501 17.9332 36.2075L29.501 42.8308C29.5964 42.8882 29.6727 42.8501 29.6727 42.7354V42.2773C29.6727 42.1626 29.5964 42.0291 29.501 41.9719ZM17.9332 36.7036L20.0521 37.9065C20.1475 37.9636 20.2239 38.0972 20.2239 38.2119V38.6699C20.2239 38.7847 20.1475 38.8228 20.0521 38.7654L17.9332 37.5627C17.8378 37.5056 17.7615 37.3718 17.7615 37.2573V36.7991C17.7617 36.7036 17.8381 36.6465 17.9332 36.7036ZM17.7632 40.0105L19.0953 41.5776V40.9768L18.2858 40.0566L19.0953 40.0696V39.4646L17.7632 39.5049V40.0105ZM20.5847 42.4314L21.9169 42.3911V41.8855L20.5847 40.3184V40.9233L21.3942 41.8386L20.5847 41.8308V42.4314ZM29.1514 19.7642C29.4695 19.9565 29.8062 20.1167 30.1561 20.2424L30.551 20.0132C30.2051 19.9023 29.8729 19.7527 29.5608 19.5667C28.9415 19.1892 28.8302 18.8757 29.2449 18.614L30.9044 17.5684C31.0339 17.4866 31.178 17.4302 31.3286 17.4021C31.4677 17.3752 31.605 17.3696 31.7389 17.4062C31.8744 17.4221 31.9904 17.4702 32.1061 17.5186C32.2314 17.5671 32.3527 17.626 32.4685 17.6946C32.7424 17.8594 32.9907 18.0632 33.2057 18.3L33.6025 18.05C33.3708 17.8179 33.1116 17.615 32.8304 17.446C31.934 16.8997 31.1339 16.8374 30.4495 17.2693L28.7542 18.3374C28.1229 18.7354 28.2549 19.2178 29.1514 19.7642ZM32.7426 21.8857L32.3188 21.6277L34.2313 20.4231C34.3035 20.3777 34.3575 20.3425 34.3773 20.311L34.3922 20.2886C34.4119 20.2598 34.4355 20.2251 34.4377 20.1919C34.4592 20.1379 34.4464 20.0852 34.3829 20.0244C34.3115 19.9497 34.2302 19.8853 34.1414 19.8325C33.8641 19.6638 33.6489 19.5771 33.5132 19.5618C33.3453 19.5579 33.1803 19.6055 33.0402 19.6982L31.1276 20.9026L30.6887 20.634L34.5303 18.2136L34.9703 18.4817L33.4548 19.4365C33.7563 19.3071 34.1433 19.3865 34.6161 19.6746C34.9257 19.8633 35.0819 20.0479 35.0696 20.197C35.0574 20.3462 34.9424 20.499 34.6719 20.6699L32.7426 21.8857ZM35.0087 23.2661L35.4325 23.5244L37.2898 22.3547C37.6324 22.1389 37.7837 21.9626 37.7778 21.825C37.772 21.6873 37.5653 21.4944 37.1578 21.2461C36.8973 21.0864 36.5858 20.9187 36.2235 20.7427L35.8627 20.97C36.1696 21.0974 36.4661 21.2483 36.7499 21.4211C36.9781 21.5601 37.1068 21.6609 37.1343 21.7446C37.1796 21.8176 37.1204 21.9153 36.976 22.0063L36.5613 22.2681L35.8441 21.8308C35.502 21.6223 35.2197 21.5173 34.9972 21.5159C34.7748 21.5146 34.4932 21.6118 34.2046 21.793C33.8618 22.0088 33.6926 22.1963 33.7148 22.344C33.7371 22.4917 33.9113 22.6648 34.2372 22.8633C34.6774 23.1316 35.0303 23.2122 35.2611 23.1072L35.0087 23.2661ZM35.5331 22.9155L36.2544 22.4609L35.5699 22.0437C35.3579 21.9148 35.2075 21.8677 35.0886 21.8625C34.9855 21.8667 34.8087 21.9377 34.6102 22.064C34.4291 22.1775 34.3181 22.2883 34.2949 22.3635C34.2719 22.439 34.3661 22.541 34.5291 22.6404L34.8224 22.8193C34.8855 22.8579 34.9652 22.8853 35.0457 22.9128L35.0542 22.9158C35.1356 22.9434 35.2211 22.957 35.307 22.9568C35.3926 22.9639 35.4612 22.9609 35.5331 22.9155ZM39.3169 22.0466L39.7562 22.3149L40.2797 21.9861L39.8403 21.717L39.3169 22.0466ZM36.6559 24.2698L36.2158 24.0015L38.8669 22.3306L39.3071 22.5986L36.6559 24.2698ZM39.0516 25.7297L39.4913 25.9978L41.4202 24.7812C41.6907 24.6101 41.8057 24.4575 41.818 24.3083C41.8302 24.1592 41.6741 23.9744 41.3644 23.7859C40.8917 23.4978 40.5046 23.4185 40.2031 23.5476L40.528 23.343L40.0878 23.075L37.4366 24.7458L37.8767 25.0142L39.7893 23.8096C39.9515 23.7073 40.1267 23.6567 40.2623 23.6731C40.3981 23.6895 40.6124 23.7759 40.8741 23.9348C40.963 23.9873 41.0443 24.052 41.1157 24.1265C41.1792 24.1875 41.192 24.24 41.1705 24.2939C41.1683 24.3276 41.144 24.363 41.1243 24.3918L41.1101 24.4131C41.0905 24.4448 41.0363 24.4797 40.9641 24.5251L39.0516 25.7297ZM25.6034 22.9897L23.5499 21.7383L27.1028 19.4995L27.5756 19.7876L24.3829 21.7991L25.9641 22.7625L25.6034 22.9897ZM29.1948 21.333L29.6349 21.6011L30.1583 21.2715L29.7183 21.0034L29.1948 21.333ZM26.5327 23.5566L26.0927 23.2876L28.7438 21.6167L29.184 21.8857L26.5327 23.5566ZM28.9281 25.0159L29.3682 25.2842L31.2988 24.0686C31.5693 23.8977 31.6843 23.7449 31.6967 23.5957C31.7089 23.4465 31.5527 23.262 31.243 23.0732C30.7704 22.7852 30.3833 22.7058 30.0818 22.835L30.4066 22.6306L29.9658 22.3616L27.3147 24.0325L27.7532 24.3003L29.6656 23.0957C29.828 22.9934 30.0032 22.9429 30.1388 22.9592C30.2745 22.9756 30.4889 23.0623 30.7506 23.2209C30.8395 23.2737 30.9208 23.3381 30.9922 23.4126C31.0557 23.4736 31.0685 23.5261 31.047 23.5801C31.0448 23.6135 31.0208 23.6487 31.0011 23.6777L30.9866 23.6995C30.9668 23.731 30.9127 23.7659 30.8406 23.8115L28.9281 25.0159ZM32.2872 27.0623L31.7329 26.7244L32.0255 25.449L31.4417 25.4734L30.576 26.0193L30.1351 25.751L33.9767 23.3306L34.4167 23.5986L32.1094 25.053L34.3069 24.9614L34.8577 25.3418L32.6061 25.4673L32.2872 27.0623Z" fill="url(#paint0_linear)"/>
<defs>
<linearGradient id="paint0_linear" x2="1" gradientUnits="userSpaceOnUse" gradientTransform="translate(32.5) scale(65) rotate(90)">
<stop stop-color="#41D4FC"/>
<stop offset="1" stop-color="#3FA0F1"/>
</linearGradient>
</defs>
</svg>
