<svg width="65" height="65" viewBox="0 0 65 65" fill="none" xmlns="http://www.w3.org/2000/svg">
<path fill-rule="evenodd" clip-rule="evenodd" d="M0 32.5C0 14.5508 14.5505 0 32.5 0C50.4492 0 65 14.5508 65 32.5C65 50.4492 50.4492 65 32.5 65C14.5505 65 0 50.4492 0 32.5ZM42.0632 25.3369C38.7612 20.7383 35.4601 16.1404 32.1426 11.5557C25.7815 20.3428 19.4006 29.1101 12.9999 37.8577C16.5206 40.7068 20.0305 43.5669 23.5416 46.4277C26.4136 48.7678 29.2864 51.1086 32.1664 53.4446C38.4485 48.2332 44.7504 43.0376 51.0721 37.8577C48.0599 33.6892 45.0612 29.5127 42.0632 25.3369ZM20.9059 36.8382C23.6914 39.0903 26.4532 41.3779 29.2505 43.6063C29.2624 37.5257 29.2742 31.4332 29.2387 25.3525C26.5006 29.2048 23.6677 32.9978 20.9059 36.8382ZM35.0467 25.4475C35.0348 31.4926 35.0348 37.5377 35.0467 43.5828C37.7492 41.2951 40.4991 39.0904 43.2135 36.8146C40.4872 33.0335 37.7492 29.2524 35.0467 25.4475Z" fill="url(#paint0_linear)"/>
<defs>
<linearGradient id="paint0_linear" x2="1" gradientUnits="userSpaceOnUse" gradientTransform="translate(32.5) scale(65) rotate(90)">
<stop stop-color="#ACACAC"/>
<stop offset="1" stop-color="#3C3C3C"/>
</linearGradient>
</defs>
</svg>
