<svg width="65" height="65" viewBox="0 0 65 65" fill="none" xmlns="http://www.w3.org/2000/svg">
<path fill-rule="evenodd" clip-rule="evenodd" d="M32.5 0C14.5505 0 0 14.5508 0 32.5C0 50.4492 14.5505 65 32.5 65C50.4492 65 65 50.4492 65 32.5C65 14.5508 50.4492 0 32.5 0ZM41.7689 16.8838C39.2881 14.2405 36.2147 13 32.4943 13C28.7201 13 25.6467 14.2405 23.1659 16.7759C20.686 19.2573 19.4999 22.4397 19.4999 26.2698C19.4999 30.0457 20.7401 33.2283 23.2203 35.7634C25.1613 37.7593 27.4799 38.946 30.1219 39.3777V41.6431H24.6761V44.0706H30.1752V45.3652H24.6761V47.6306H30.1219V52H34.8129V47.6306H40.3118V45.3652H34.7582V44.0706H40.3118V41.6431H34.8129V39.4314C37.5087 39 39.8273 37.813 41.7683 35.8174C44.1947 33.2822 45.4343 30.0996 45.4343 26.3235C45.4349 22.6016 44.1947 19.4189 41.7689 16.8838ZM32.4943 33.2283C34.2198 33.2283 35.6755 32.5808 36.7001 31.2864C37.7244 29.9917 38.2638 28.3196 38.2638 26.27C38.2638 24.2742 37.7246 22.6021 36.5922 21.3074C35.5137 19.959 34.1128 19.3115 32.4943 19.3115C30.8228 19.3115 29.4219 19.959 28.3426 21.2534C27.2632 22.5481 26.7241 24.1665 26.7241 26.2163C26.7241 28.3196 27.2642 29.9915 28.3426 31.2864C29.4209 32.5811 30.8228 33.2283 32.4943 33.2283Z" fill="url(#paint0_linear)"/>
<defs>
<linearGradient id="paint0_linear" x2="1" gradientUnits="userSpaceOnUse" gradientTransform="translate(32.5 2.01182) scale(62.9882) rotate(90)">
<stop stop-color="#70D463"/>
<stop offset="1" stop-color="#01A64F"/>
</linearGradient>
</defs>
</svg>
