<svg width="65" height="65" viewBox="0 0 65 65" fill="none" xmlns="http://www.w3.org/2000/svg">
<path fill-rule="evenodd" clip-rule="evenodd" d="M32.5 0C14.5505 0 0 14.5508 0 32.5C0 50.4492 14.5505 65 32.5 65C50.4492 65 65 50.4492 65 32.5C65 14.5508 50.4492 0 32.5 0ZM32.2026 11.5557H32.7836C36.2631 11.603 39.7426 12.5217 42.7761 14.2515C46.0664 16.0959 48.8433 18.866 50.708 22.1494C52.4309 25.1492 53.3564 28.5815 53.4443 32.0339V32.7905C53.3903 35.9998 52.62 39.1956 51.1404 42.0466C48.8027 46.6477 44.6882 50.3096 39.8507 52.1135C37.6819 52.9377 35.3781 53.3635 33.0607 53.4446H32.108C28.9122 53.377 25.7233 52.5933 22.8857 51.1069C19.5819 49.4043 16.751 46.7964 14.7714 43.6548C12.7648 40.4927 11.6636 36.7903 11.5554 33.0474V31.9258C11.6298 30.0002 11.9203 28.0815 12.5081 26.2439C14.2444 20.6023 18.5009 15.812 23.8856 13.407C26.4935 12.2178 29.3447 11.603 32.2026 11.5557ZM29.507 33.2229C29.0745 31.6624 30.142 29.9058 31.7026 29.5273C33.2837 29.0476 35.0944 30.115 35.4795 31.7095C35.9591 33.3108 34.8511 35.1418 33.2229 35.4932C31.6351 35.9321 29.8583 34.8242 29.507 33.2229Z" fill="url(#paint0_linear)"/>
<defs>
<linearGradient id="paint0_linear" x2="1" gradientUnits="userSpaceOnUse" gradientTransform="translate(32.5) scale(65) rotate(90)">
<stop stop-color="#ACACAC"/>
<stop offset="1" stop-color="#555555"/>
</linearGradient>
</defs>
</svg>
