<svg width="65" height="65" viewBox="0 0 65 65" fill="none" xmlns="http://www.w3.org/2000/svg">
<path fill-rule="evenodd" clip-rule="evenodd" d="M0 32.5C0 14.5508 14.5505 0 32.5 0C50.4492 0 65 14.5508 65 32.5C65 50.4492 50.4492 65 32.5 65C14.5505 65 0 50.4492 0 32.5ZM19.1639 23.0352C19.2657 22.9817 19.3889 22.99 19.4828 23.0564L32.1104 32.0215C32.3414 32.1875 32.6528 32.1875 32.8839 32.0215L45.5114 23.0564C45.5632 23.0193 45.6255 22.9995 45.6893 23C45.7716 22.9985 45.851 23.0303 45.9094 23.0881C45.9679 23.146 46.0005 23.2251 45.9999 23.3074V37.0654C46.0001 37.3425 45.8658 37.6025 45.6396 37.7627L42.6921 39.8557C42.5984 39.9219 42.4757 39.9302 42.3739 39.8774C42.2722 39.8247 42.2083 39.7195 42.2081 39.605V30.8743C42.2084 30.8352 42.1866 30.7991 42.1519 30.781C42.1171 30.7632 42.0752 30.7664 42.0435 30.7891L34.923 35.8442C34.7915 35.9373 34.7135 36.0886 34.7141 36.2498V45.1704C34.7158 45.3899 34.6101 45.5962 34.4312 45.7231L32.7822 46.9001C32.6112 47.0205 32.3829 47.0205 32.212 46.9001L30.5686 45.7319C30.3896 45.605 30.2839 45.3987 30.2858 45.1794V36.2542C30.2859 36.093 30.208 35.9419 30.0768 35.8486L22.9563 30.7937C22.9238 30.7751 22.8842 30.7742 22.851 30.7915C22.8176 30.8086 22.7954 30.8416 22.7916 30.8787V39.6094C22.7915 39.6731 22.7719 39.7351 22.7354 39.7874C22.6372 39.9253 22.4459 39.958 22.3076 39.8604L19.3602 37.7659C19.1338 37.6064 18.9994 37.3467 18.9999 37.0698V23.3096C18.9987 23.1946 19.062 23.0886 19.1639 23.0352Z" fill="url(#paint0_linear)"/>
<defs>
<linearGradient id="paint0_linear" x2="1" gradientUnits="userSpaceOnUse" gradientTransform="translate(32.5 1.86673) scale(63.1333) rotate(90)">
<stop stop-color="#E85D53"/>
<stop offset="1" stop-color="#2F0735"/>
</linearGradient>
</defs>
</svg>
