<svg width="65" height="65" viewBox="0 0 65 65" fill="none" xmlns="http://www.w3.org/2000/svg">
<path fill-rule="evenodd" clip-rule="evenodd" d="M32.5 0C14.5506 0 0 14.5508 0 32.5C0 50.4492 14.5506 65 32.5 65C50.4492 65 65 50.4492 65 32.5C65 14.5508 50.4492 0 32.5 0ZM29.8772 45.6409C29.8856 45.6907 29.8801 45.7517 29.9055 45.7942C30.1117 46.1396 30.32 46.4838 30.535 46.8237C30.7514 47.1659 30.9506 47.5238 31.2049 47.836C31.4543 48.1421 31.7754 48.4072 32.1667 48.4951C32.3978 48.547 32.6626 48.4772 32.9073 48.434C33.2899 48.3663 33.4954 48.0446 33.7545 47.802C34.0785 47.4986 34.3241 47.144 34.5219 46.7435C34.7079 46.3671 34.9495 46.0182 35.1726 45.6473C34.9028 45.5579 34.6927 45.4811 34.4783 45.4193C34.2756 45.3609 34.0689 45.3157 33.863 45.2692C33.5068 45.1887 33.152 45.0618 32.7924 45.0456C32.3479 45.0257 31.8991 45.0987 31.4522 45.1321C31.4289 45.1338 31.4051 45.1385 31.3829 45.1458C30.8918 45.3069 30.4009 45.4686 29.8772 45.6409ZM43.6816 39.9272C43.4925 40.0165 43.3295 40.0821 43.1775 40.1672C42.5777 40.5033 41.9691 40.8197 41.4517 41.2913C41.1235 41.5905 40.8313 41.9055 40.6192 42.2931C40.4205 42.6562 40.2309 43.0242 40.0337 43.3881C39.8894 43.6545 39.9153 43.7075 40.2016 43.779C40.4267 43.8353 40.6431 43.9294 40.8697 43.9767C41.3825 44.0841 41.8959 44.2032 42.4154 44.2577C42.7125 44.2888 43.0243 44.216 43.3247 44.1626C43.4435 44.1415 43.5697 44.0669 43.6571 43.9807C44.0132 43.6302 44.2388 43.2129 44.2054 42.6965C44.1779 42.2684 44.1554 41.8375 44.085 41.4155C44.0326 41.1016 43.9029 40.8011 43.8156 40.4924C43.7629 40.3057 43.7255 40.1147 43.6816 39.9272ZM45.6233 29.8335C45.5605 30.0442 45.4939 30.2724 45.4241 30.4996C45.3582 30.7139 45.2829 30.9256 45.2225 31.1414C45.1602 31.3641 45.076 31.5884 45.0635 31.8154C45.0385 32.2668 45.0553 32.7205 45.0572 33.1733C45.0575 33.2355 45.0636 33.2998 45.0801 33.3596C45.1651 33.6683 45.2481 33.9778 45.3438 34.2833C45.4204 34.5281 45.5103 34.769 45.6016 35.0089C45.6615 35.1663 45.8051 35.1333 45.8965 35.0797C46.2965 34.8451 46.6949 34.6054 47.0766 34.3423C47.4022 34.1179 47.7142 33.8706 48.0117 33.6099C48.1287 33.5074 48.1795 33.3331 48.2785 33.2054C48.5639 32.8374 48.5259 32.3923 48.405 32.0282C48.2448 31.5456 47.8788 31.1582 47.4271 30.8798C46.9804 30.6045 46.5414 30.3165 46.0932 30.0437C45.9608 29.9631 45.8086 29.915 45.6233 29.8335ZM19.3085 35.1301C20.1406 33.3245 20.1709 31.5645 19.2715 29.802C18.8422 30.0671 18.4365 30.3193 18.029 30.5684C17.8475 30.6794 17.6419 30.7609 17.4837 30.898C17.279 31.0755 17.1235 31.309 16.9236 31.4931C16.6396 31.7546 16.4989 32.0625 16.4638 32.4477C16.4354 32.758 16.5698 32.9933 16.7215 33.2262C17.0574 33.7426 17.5266 34.1192 18.0484 34.4333C18.3752 34.6299 18.7063 34.8195 19.0381 35.0077C19.1303 35.06 19.2319 35.0959 19.3085 35.1301ZM35.1688 19.379C34.9602 18.9838 34.7963 18.6383 34.6004 18.3121C34.3949 17.9697 34.1775 17.6309 33.9303 17.3181C33.6943 17.0196 33.4045 16.7677 33.0553 16.597C32.9903 16.5652 32.9255 16.5002 32.8627 16.5028C32.668 16.5107 32.4849 16.4547 32.2783 16.4725C31.7848 16.515 31.4826 16.8399 31.2038 17.1331C30.9012 17.4513 30.6299 17.8249 30.4453 18.2493C30.2995 18.5845 30.0769 18.8858 29.8971 19.2071C29.871 19.2538 29.8935 19.3277 29.8935 19.3692C30.0527 19.4338 30.188 19.5066 30.3324 19.5442C30.7924 19.6639 31.253 19.7835 31.7183 19.8788C32.2361 19.9849 32.7593 19.9918 33.2802 19.8821C33.4567 19.8449 33.6356 19.8173 33.8101 19.7724C34.0062 19.7218 34.198 19.6547 34.3927 19.5982C34.6374 19.5271 34.883 19.4595 35.1688 19.379ZM22.4772 20.6985C22.1954 20.7479 21.9234 20.7638 21.6736 20.8468C21.2976 20.9717 20.9633 21.1661 20.8966 21.6201C20.8755 21.764 20.8162 21.9026 20.7968 22.0467C20.764 22.29 20.7151 22.5386 20.7352 22.7797C20.7601 23.0781 20.8487 23.3711 20.909 23.6666C20.9152 23.6973 20.9104 23.7307 20.9191 23.7604C21.0104 24.0725 21.1148 24.3813 21.1922 24.6967C21.2515 24.938 21.3871 25.0689 21.5436 24.9802C21.9885 24.728 22.4276 24.4659 22.8728 24.2143C23.4065 23.9127 23.8461 23.5044 24.1684 22.9902C24.4698 22.5092 24.7082 21.9888 25.0011 21.5019C25.1207 21.3031 24.978 21.263 24.8757 21.2267C24.5661 21.1169 24.2525 21.0088 23.9318 20.9422C23.4492 20.8419 22.9592 20.7774 22.4772 20.6985ZM39.9493 21.2518C39.9543 21.3273 39.9393 21.4131 39.9681 21.4799C40.0499 21.6697 40.1463 21.8535 40.2432 22.0363C40.3519 22.2415 40.4589 22.4485 40.5825 22.6446C40.7098 22.8465 40.8622 23.0325 40.9927 23.2324C41.1891 23.5334 41.4185 23.8019 41.73 23.9859C42.0126 24.1528 42.3043 24.3042 42.5917 24.4629C42.9111 24.6392 43.2281 24.8199 43.5523 24.9868C43.5867 25.0045 43.7009 24.9541 43.7125 24.9155C43.7924 24.6506 43.8552 24.3806 43.9228 24.112C44.0142 23.7489 44.155 23.3894 44.1833 23.0213C44.2196 22.5494 44.2885 22.0614 44.0974 21.5982C43.924 21.1778 43.6227 20.8196 43.1874 20.7655C42.5418 20.6854 41.8774 20.708 41.2358 20.8823C40.8105 20.9979 40.3885 21.1252 39.9493 21.2518ZM25.0794 43.6894C25.0507 43.6051 25.0381 43.5366 25.0059 43.4792C24.8084 43.126 24.5737 42.7896 24.4136 42.4206C24.1716 41.8627 23.728 41.4873 23.3133 41.0814C23.2344 41.0042 23.1375 40.9432 23.0431 40.8843C22.6967 40.6683 22.3514 40.4502 21.9986 40.2451C21.7834 40.12 21.5552 40.0174 21.3152 39.8958C21.2953 40.0085 21.2904 40.0796 21.2698 40.1459C21.1522 40.5245 21.0206 40.8991 20.9143 41.2808C20.8354 41.5637 20.7702 41.8528 20.73 42.1434C20.662 42.6352 20.7058 43.1435 20.9421 43.5643C21.1737 43.9767 21.6092 44.2369 22.0981 44.2584C22.5433 44.2779 22.9926 44.204 23.4401 44.1707C23.4634 44.169 23.4871 44.1643 23.5092 44.1568C23.7738 44.0677 24.0359 43.9704 24.3031 43.8903C24.5518 43.8158 24.8059 43.7594 25.0794 43.6894ZM36.6325 22.4871C35.2957 22.9421 33.9698 23.4211 32.5291 23.4178C31.0749 23.4145 29.7232 22.9775 28.3835 22.4965C28.2876 22.6518 28.1706 22.8203 28.075 23.0002C27.8339 23.4546 27.6232 23.9266 27.3602 24.3676C27.1546 24.7124 26.8995 25.03 26.647 25.344C26.3596 25.7016 26.165 26.1276 25.7365 26.3814C25.3249 26.6252 24.9756 26.972 24.5759 27.2392C24.2287 27.4713 23.8519 27.6602 23.4833 27.8592C23.1553 28.0362 22.8207 28.2008 22.4934 28.3686C22.5894 28.6643 22.69 28.9474 22.7724 29.2357C22.8494 29.5054 22.8725 29.7953 22.9814 30.0499C23.1482 30.4401 23.251 30.8347 23.2525 31.2574C23.2526 31.289 23.2562 31.3208 23.2613 31.3521C23.3152 31.6853 23.3978 32.017 23.4156 32.3521C23.4305 32.6343 23.3719 32.9207 23.3429 33.2049C23.3125 33.5025 23.2927 33.8022 23.2418 34.0964C23.2007 34.3341 23.1236 34.566 23.0565 34.7987C22.9973 35.0037 22.9297 35.2063 22.8661 35.4099C22.7789 35.6887 22.7098 35.9748 22.6003 36.2445C22.4731 36.5577 22.5093 36.7217 22.7581 36.8165C23.0315 36.9207 23.3141 37.0153 23.565 37.1616C24.168 37.5133 24.7575 37.8884 25.3473 38.2622C25.8482 38.5796 26.2149 39.0422 26.5812 39.4916C26.8893 39.8695 27.1439 40.2946 27.3933 40.7159C27.6958 41.2271 27.9719 41.7541 28.2506 42.2791C28.3386 42.4448 28.4713 42.5216 28.621 42.4283C29.0225 42.178 29.4929 42.1452 29.9218 41.9844C30.1025 41.9166 30.3072 41.9163 30.4966 41.868C30.8222 41.785 31.1447 41.6114 31.4679 41.6129C32.2247 41.6166 32.9869 41.491 33.7418 41.6859C34.1193 41.7833 34.5124 41.82 34.8984 41.8842C34.9218 41.888 34.9464 41.8887 34.9683 41.8967C35.2158 41.9869 35.4621 42.0805 35.7103 42.1686C35.9275 42.2456 36.1538 42.301 36.3631 42.3948C36.5722 42.4885 36.6567 42.4659 36.753 42.2739C36.9584 41.8646 37.1644 41.4543 37.3962 41.0597C37.6397 40.6455 37.9189 40.2523 38.1732 39.8442C38.5582 39.2266 39.0825 38.7444 39.639 38.2878C40.052 37.9488 40.4882 37.6541 40.9719 37.4233C41.4702 37.1855 41.9563 36.9224 42.4438 36.6724C42.4372 36.5626 42.4542 36.4294 42.4176 36.313C42.3046 35.9536 42.1594 35.6043 42.0495 35.2441C41.9649 34.9667 41.9507 34.6641 41.8415 34.399C41.6423 33.9155 41.6138 33.4041 41.5861 32.9037C41.5561 32.3634 41.6342 31.8166 41.6739 31.2733C41.6826 31.1544 41.7329 31.0392 41.756 30.9207C41.7935 30.7274 41.8192 30.5318 41.8596 30.3393C41.8951 30.1706 41.9381 30.0029 41.9881 29.8379C42.0716 29.5627 42.161 29.2894 42.2522 29.0167C42.3269 28.7932 42.4076 28.5717 42.486 28.3485C42.3122 28.2716 42.1332 28.2091 41.9706 28.1173C41.435 27.8152 40.9136 27.4869 40.371 27.1985C39.9108 26.9538 39.5142 26.6336 39.1406 26.2797C38.7641 25.923 38.4238 25.536 38.1441 25.095C37.8631 24.6519 37.54 24.2343 37.2761 23.7818C37.0313 23.362 36.8404 22.9109 36.6325 22.4871ZM32.7914 52H32.1233C32.0656 51.969 32.0097 51.9158 31.9499 51.9111C31.7681 51.8967 31.5685 51.9466 31.4055 51.8884C31.0713 51.7692 30.7507 51.6068 30.4352 51.4417C30.1174 51.2755 29.768 51.1322 29.5119 50.8936C29.0654 50.4775 28.585 50.102 28.21 49.593C27.9029 49.1758 27.633 48.7359 27.336 48.314C27.1426 48.0393 26.9955 47.7315 26.8337 47.4351C26.739 47.2616 26.6607 47.0791 26.5651 46.9061C26.5413 46.8628 26.4672 46.8039 26.437 46.8141C26.139 46.9145 25.8475 47.0342 25.55 47.1358C25.295 47.2228 25.0371 47.3041 24.7757 47.3683C24.4964 47.4369 24.2112 47.482 23.9289 47.5385C23.7361 47.5771 23.5423 47.657 23.3513 47.6506C22.5769 47.6247 21.7954 47.7644 21.0284 47.5617C20.7724 47.4941 20.5055 47.4509 20.2649 47.3471C19.9877 47.2274 19.7267 47.0644 19.4723 46.8992C19.1857 46.7129 18.8818 46.5351 18.6452 46.2949C18.3955 46.0414 18.1967 45.7304 18.0119 45.4227C17.8123 45.0905 17.6006 44.7487 17.4933 44.3822C17.3786 43.9903 17.3403 43.5647 17.3392 43.1537C17.3375 42.4951 17.3726 41.8344 17.4336 41.1784C17.4737 40.7475 17.5739 40.3205 17.6714 39.8973C17.7447 39.5794 17.8549 39.27 17.952 38.9578C18.0061 38.7841 18.0671 38.6125 18.1344 38.4117C18.0134 38.3555 17.8775 38.3048 17.7542 38.2324C17.4319 38.0434 17.1162 37.8433 16.796 37.6505C16.3078 37.3565 15.7972 37.0944 15.3354 36.7639C14.9192 36.466 14.5921 36.0576 14.2261 35.6975C13.8297 35.3075 13.5734 34.8379 13.3402 34.3466C13.1189 33.8803 13.0348 33.3761 13.0065 32.8745C12.9809 32.4202 13.034 31.9577 13.0921 31.5039C13.1256 31.2419 13.2183 30.9818 13.3201 30.7358C13.4211 30.4916 13.5627 30.2636 13.6943 30.0329C13.8183 29.8157 13.9279 29.5837 14.0869 29.3943C14.5501 28.843 15.0844 28.3687 15.7049 27.9945C16.1689 27.7147 16.6211 27.4152 17.0853 27.1358C17.3917 26.9514 17.7019 26.7688 18.0271 26.6226C18.1601 26.5628 18.154 26.5251 18.1078 26.4236C18.0506 26.2977 17.9903 26.171 17.9537 26.0385C17.8774 25.762 17.8226 25.4796 17.7463 25.203C17.6648 24.9074 17.53 24.6211 17.4876 24.321C17.4086 23.7624 17.3552 23.1974 17.3384 22.6337C17.3263 22.2239 17.4092 21.8121 17.4153 21.4007C17.423 20.8839 17.5814 20.4126 17.813 19.9665C17.9522 19.6986 18.135 19.4486 18.3263 19.2135C18.5791 18.9028 18.8235 18.567 19.1375 18.3293C19.4946 18.059 19.9124 17.8571 20.3267 17.6785C20.6293 17.548 20.9672 17.4959 21.2926 17.4232C21.476 17.3824 21.688 17.4154 21.8483 17.3364C22.1644 17.1808 22.4833 17.2702 22.7961 17.2727C23.1048 17.2752 23.413 17.3577 23.7212 17.4064C24.0166 17.4529 24.3121 17.4995 24.6067 17.5508C24.638 17.5562 24.6606 17.6035 24.6927 17.6134C24.9359 17.6881 25.1796 17.7619 25.4251 17.8291C25.6839 17.8998 25.953 17.9411 26.2024 18.0354C26.4695 18.1365 26.639 18.0806 26.7284 17.8102C26.7682 17.6897 26.8036 17.5634 26.8685 17.4563C27.1331 17.0203 27.3954 16.5819 27.6832 16.1612C27.9734 15.737 28.2729 15.3158 28.6063 14.9257C28.8251 14.6697 29.1252 14.485 29.3641 14.2439C29.8084 13.7954 30.343 13.5054 30.9271 13.2932C31.3951 13.1232 31.8645 12.9577 32.3766 13.0097C32.4395 13.0162 32.5037 13.0102 32.5674 13.0107C32.782 13.0124 33.004 12.9806 33.2096 13.0248C33.4847 13.0839 33.7409 13.2363 34.0165 13.2866C34.3901 13.3547 34.6963 13.5383 34.9868 13.7542C35.3889 14.0531 35.7818 14.3654 36.164 14.6892C36.2966 14.8017 36.3837 14.9672 36.4946 15.1061C36.7564 15.4339 37.0545 15.7386 37.2753 16.0918C37.6858 16.7487 38.0516 17.4335 38.4448 18.122C38.5257 18.1167 38.6345 18.1301 38.7293 18.0996C39.0815 17.9863 39.4244 17.8425 39.7797 17.7413C40.0895 17.653 40.4112 17.6066 40.7277 17.5417C40.7431 17.5386 40.7585 17.5354 40.7738 17.5321C41.1994 17.4415 41.6214 17.3208 42.0517 17.2692C42.4202 17.2251 42.7982 17.2592 43.1719 17.261C43.2345 17.2612 43.2989 17.2656 43.3592 17.281C43.5242 17.3231 43.6871 17.3735 43.8516 17.418C44.0969 17.4843 44.3463 17.5378 44.5873 17.6171C44.7491 17.6704 44.9049 17.7488 45.0533 17.8336C45.3442 17.9998 45.6618 18.1407 45.9068 18.3607C46.2559 18.6742 46.5642 19.0376 46.8624 19.4022C47.0809 19.6696 47.2737 19.9627 47.3524 20.3123C47.3817 20.4425 47.3977 20.5874 47.4674 20.6946C47.7244 21.0896 47.647 21.5496 47.7081 21.9743C47.7625 22.3524 47.786 22.7563 47.6447 23.1516C47.5518 23.4114 47.5868 23.7139 47.5331 23.9912C47.4529 24.4046 47.3527 24.8147 47.2463 25.2224C47.1632 25.5408 47.0577 25.8534 46.9622 26.1686C46.9213 26.3033 46.8804 26.438 46.8416 26.5658C47.1333 26.7129 47.3915 26.8276 47.634 26.9692C48.0095 27.1886 48.3773 27.4216 48.7427 27.6575C49.1655 27.9304 49.5948 28.1959 49.9972 28.4968C50.2595 28.6931 50.4967 28.9311 50.7126 29.1789C50.9313 29.4299 51.1326 29.7025 51.2999 29.9899C51.4794 30.2982 51.6325 30.6266 51.7559 30.9613C51.8603 31.2442 51.9475 31.5458 51.968 31.8443C52.0019 32.3348 51.976 32.8295 51.9739 33.3224C51.9737 33.3691 51.9723 33.4189 51.9569 33.4621C51.8712 33.7031 51.7898 33.9462 51.6898 34.1814C51.5826 34.433 51.4738 34.6871 51.3335 34.9208C51.1859 35.1667 51.0243 35.4131 50.8262 35.6181C50.4248 36.0333 50.0076 36.436 49.5707 36.8134C49.3508 37.0035 49.0715 37.124 48.8226 37.2815C48.6492 37.3912 48.4895 37.5245 48.3102 37.6223C47.8646 37.8653 47.4084 38.0891 46.9643 38.3346C46.909 38.3651 46.8613 38.4893 46.8768 38.5542C46.9405 38.8223 47.0291 39.0847 47.1101 39.3486C47.1865 39.5977 47.2778 39.8431 47.3385 40.0959C47.3942 40.3279 47.3671 40.5916 47.4657 40.7989C47.6997 41.2911 47.5816 41.8271 47.7102 42.3331C47.7772 42.5966 47.6661 42.906 47.6322 43.1943C47.6042 43.4324 47.5993 43.6779 47.5345 43.9061C47.4258 44.2894 47.4009 44.6987 47.1627 45.0455C47.0024 45.2789 46.9104 45.5618 46.7379 45.7837C46.5624 46.0095 46.3269 46.1889 46.1155 46.3863C45.9671 46.5248 45.8327 46.6898 45.661 46.7892C45.3146 46.9895 44.9591 47.1866 44.5848 47.3227C44.1766 47.4711 43.7469 47.6166 43.3192 47.643C42.5038 47.6933 41.681 47.7034 40.8729 47.5149C40.6207 47.4561 40.3575 47.4379 40.1107 47.3636C39.6546 47.2261 39.2069 47.0609 38.7558 46.9069C38.6718 46.8782 38.5884 46.848 38.4676 46.8055C38.2557 47.1718 38.0226 47.5474 37.8173 47.9376C37.6248 48.3034 37.4504 48.6779 37.1815 48.9971C37.1631 49.019 37.1527 49.0474 37.136 49.071C36.9287 49.3627 36.742 49.6723 36.5077 49.9404C36.2566 50.2276 35.9682 50.484 35.6821 50.7381C35.4476 50.9464 35.2092 51.1596 34.9418 51.3188C34.7072 51.4583 34.4188 51.5043 34.1739 51.6301C33.7833 51.8309 33.3797 51.9315 32.9416 51.9115C32.893 51.9093 32.8415 51.969 32.7914 52Z" fill="url(#paint0_linear)"/>
<defs>
<linearGradient id="paint0_linear" x2="1" gradientUnits="userSpaceOnUse" gradientTransform="translate(32.5) scale(62.6488) rotate(90)">
<stop stop-color="#41D4FC"/>
<stop offset="1" stop-color="#209FCF"/>
</linearGradient>
</defs>
</svg>
