<svg width="65" height="65" viewBox="0 0 65 65" fill="none" xmlns="http://www.w3.org/2000/svg">
<path fill-rule="evenodd" clip-rule="evenodd" d="M32.5 0C14.5506 0 0 14.5508 0 32.5C0 50.4492 14.5506 65 32.5 65C50.4492 65 65 50.4492 65 32.5C65 14.5508 50.4492 0 32.5 0ZM12.6942 40V25.6836H17.0204L19.618 35.4492L22.1864 25.6836H26.5223V40H23.8368V28.7305L20.995 40H18.2118L15.3798 28.7305V40H12.6942ZM33.1532 40V33.9746L27.9091 25.6836H31.2977L34.6669 31.3477L37.9677 25.6836H41.2977L36.0341 33.9941V40H33.1532ZM42.7235 25.6836H48.0067C49.1981 25.6836 50.1063 25.7747 50.7313 25.957C51.5712 26.2044 52.2906 26.6439 52.8895 27.2754C53.4885 27.9069 53.9442 28.68 54.2567 29.5947C54.5692 30.5094 54.7255 31.6374 54.7255 32.9785C54.7255 34.1569 54.579 35.1725 54.286 36.0254C53.9279 37.0671 53.4169 37.9102 52.7528 38.5547C52.2515 39.043 51.5744 39.4238 50.7216 39.6973C50.0835 39.8991 49.2307 40 48.163 40H42.7235V25.6836ZM45.6141 28.1055V37.5879H47.7723C48.5796 37.5879 49.1623 37.5423 49.5204 37.4512C49.9891 37.334 50.3781 37.1354 50.6874 36.8555C50.9966 36.5755 51.2489 36.1149 51.4442 35.4736C51.6395 34.8324 51.7372 33.9583 51.7372 32.8516C51.7372 31.7448 51.6395 30.8952 51.4442 30.3027C51.2489 29.7103 50.9755 29.248 50.6239 28.916C50.2723 28.584 49.8264 28.3594 49.286 28.2422C48.8824 28.151 48.0914 28.1055 46.913 28.1055H45.6141Z" fill="url(#paint0_linear)"/>
<defs>
<linearGradient id="paint0_linear" x2="1" gradientUnits="userSpaceOnUse" gradientTransform="translate(32.5) scale(65) rotate(90)">
<stop stop-color="#ACACAC"/>
<stop offset="1" stop-color="#555555"/>
</linearGradient>
</defs>
</svg>
