<svg width="65" height="65" viewBox="0 0 65 65" fill="none" xmlns="http://www.w3.org/2000/svg">
<path fill-rule="evenodd" clip-rule="evenodd" d="M32.5 0C14.5506 0 0 14.5508 0 32.5C0 50.4492 14.5506 65 32.5 65C50.4492 65 65 50.4492 65 32.5C65 14.5508 50.4492 0 32.5 0ZM53.8724 36.0683L39.9295 22.1246C39.7454 21.9585 39.4655 21.9585 39.2814 22.1246L32.4364 28.9459L25.7258 22.236C25.6406 22.1488 25.5238 22.0995 25.4018 22.0995C25.2798 22.0995 25.1629 22.1488 25.0777 22.236L22.9831 24.2911L15.2845 31.8396L13.6009 33.4915L11.1269 35.9015C11.0399 35.9894 10.994 36.1099 11.0005 36.2334C11.005 36.355 11.0494 36.4717 11.1269 36.5654L18.0826 43.521C18.1678 43.6083 18.2846 43.6576 18.4066 43.6576C18.5286 43.6576 18.6455 43.6083 18.7307 43.521L25.4097 36.85L32.1756 43.6159C32.2608 43.7032 32.3777 43.7524 32.4997 43.7524C32.6217 43.7524 32.7385 43.7032 32.8237 43.6159L39.5185 36.9211L46.2528 43.6562C46.3408 43.7432 46.4613 43.7891 46.5848 43.7827C46.7077 43.7851 46.8267 43.7398 46.9168 43.6562L53.8724 36.7006C53.9594 36.6127 54.0053 36.4921 53.9989 36.3686C54.0075 36.254 53.9604 36.1422 53.8724 36.0683ZM52.6235 36.6452L48.624 35.1742L46.7903 31.2222L47.8494 31.3723L52.8765 36.3994L52.6235 36.6452ZM50.363 38.9051L49.1774 36.3679L51.9043 37.3717L50.363 38.9051ZM22.8329 29.76L17.1973 31.2776L22.8329 25.7368V29.76ZM15.8379 32.5975L19.7899 31.5383L19.5291 35.9891L14.7234 33.7048L15.8379 32.5975ZM20.7384 31.2856L21.4418 31.1038L23.3151 33.9809L20.3827 37.2295L20.7384 31.2856ZM23.9395 33.2458L22.3666 30.835L23.2597 30.5979L25.5045 31.5227L23.9395 33.2458ZM23.7577 29.7995V28.116L29.1009 28.5594L30.4367 32.5668L23.7577 29.7995ZM28.2789 35.0083L30.1917 36.1781L30.5079 40.6439L27.8047 37.9565L28.2789 35.0083ZM30.8793 35.5141L28.4528 34.0123L28.6346 32.8425L30.9188 33.791C30.9701 33.8339 31.0339 33.8589 31.1006 33.8622L33.4007 34.8265L34.365 37.6798L30.8793 35.5141ZM34.3413 34.6923L36.8469 33.396L35.0132 36.6604L34.3413 34.6923ZM37.8113 31.879L35.4954 33.0804L36.0486 29.1521L39.2735 31.1202L37.8113 31.879ZM40.2379 30.6145L35.9143 27.9824L35.1555 27.5161L36.2937 26.385L41.2101 27.9816L41.6764 29.8707L40.2379 30.6145ZM42.5932 29.7054L41.4471 24.9392L46.7903 30.2824L42.5932 29.7054ZM42.6327 30.6382L43.6128 30.7647L44.672 40.7389L41.8502 37.9171L42.6327 30.6382ZM44.5455 30.9148L45.7153 31.0808L47.3831 34.6772L45.3438 38.4632L44.5455 30.9148ZM39.5896 23.1055L40.1667 23.6825L40.9492 26.9311L37.0366 25.6664L39.5896 23.1055ZM32.7526 29.9504L34.4994 28.2036L35.1871 28.6304L34.4836 33.6021L33.7643 33.9736L31.5433 33.0646L29.7253 27.595L32.0966 29.9662C32.2908 30.1193 32.5664 30.1123 32.7526 29.9496V29.9504ZM25.3859 23.239L28.263 26.109L28.761 27.6108L23.7577 27.184V24.8277L25.3859 23.239ZM14.0041 34.3997L19.4579 36.9764L19.3077 39.4267L14.4309 38.573L12.115 36.2571L14.0041 34.3997ZM18.3987 42.5568L15.5612 39.7192L19.2287 40.3674L19.1338 41.798L18.3987 42.5568ZM25.0699 35.8779L20.1377 40.8108L20.2642 38.7004L20.28 38.6846L26.3978 31.9187L27.7494 32.472L27.4727 34.1793L26.9906 37.1433L25.7259 35.8787C25.6392 35.7912 25.5212 35.7419 25.398 35.7418C25.2749 35.7416 25.1568 35.7906 25.0699 35.8779ZM32.5075 42.6517L31.5037 41.6478L31.1718 36.771L34.8393 39.0316L35.1712 39.9959L32.5075 42.6517ZM39.5344 35.8225C39.412 35.8226 39.2939 35.8676 39.2024 35.9489L35.8827 39.2687L35.4005 37.838L38.3487 32.6055L41.6685 30.8982L41.0045 37.0713L39.8742 35.941C39.7773 35.8647 39.6577 35.823 39.5344 35.8225ZM46.5848 42.6832L45.6917 41.79L45.5099 40.0827L47.8653 35.7039L49.6675 39.6006L46.5848 42.6832Z" fill="url(#paint0_linear)"/>
<defs>
<linearGradient id="paint0_linear" x2="1" gradientUnits="userSpaceOnUse" gradientTransform="translate(32.5) scale(65) rotate(90)">
<stop stop-color="#C51F5D"/>
<stop offset="1" stop-color="#2F2361"/>
</linearGradient>
</defs>
</svg>
