<svg width="65" height="65" viewBox="0 0 65 65" fill="none" xmlns="http://www.w3.org/2000/svg">
<path fill-rule="evenodd" clip-rule="evenodd" d="M32.5 0C14.5505 0 0 14.5508 0 32.5C0 50.4492 14.5505 65 32.5 65C50.4492 65 65 50.4492 65 32.5C65 14.5508 50.4492 0 32.5 0ZM32.4999 52C21.7303 52 12.9999 43.2695 12.9999 32.5C12.9999 21.7305 21.7303 13 32.4999 13C43.2694 13 51.9999 21.7305 51.9999 32.5C51.9999 43.2695 43.2694 52 32.4999 52ZM51.7104 32.5002C51.7104 43.1099 43.1096 51.7107 32.4999 51.7107C21.8901 51.7107 13.2893 43.1099 13.2893 32.5002C13.2893 21.8904 21.8901 13.2896 32.4999 13.2896C43.1096 13.2896 51.7104 21.8904 51.7104 32.5002ZM43.3895 24.2153C43.5894 24.2153 43.7512 24.0532 43.7512 23.8535C43.7512 23.6536 43.5894 23.4917 43.3895 23.4917C43.1897 23.4917 43.0277 23.6536 43.0277 23.8535C43.0277 24.0532 43.1897 24.2153 43.3895 24.2153ZM49.6844 27.3267C49.6844 27.5264 49.5226 27.6885 49.3228 27.6885C49.1229 27.6885 48.9609 27.5264 48.9609 27.3267C48.9609 27.1267 49.1229 26.9648 49.3228 26.9648C49.5226 26.9648 49.6844 27.1267 49.6844 27.3267ZM47.1521 33.4768C47.3519 33.4768 47.5138 33.3147 47.5138 33.115C47.5138 32.915 47.3519 32.7532 47.1521 32.7532C46.9523 32.7532 46.7903 32.915 46.7903 33.115C46.7903 33.3147 46.9523 33.4768 47.1521 33.4768ZM16.4729 31.0891C16.4729 31.2888 16.311 31.4509 16.1112 31.4509C15.9114 31.4509 15.7494 31.2888 15.7494 31.0891C15.7494 30.8892 15.9114 30.7273 16.1112 30.7273C16.311 30.7273 16.4729 30.8892 16.4729 31.0891ZM22.2615 24.7942C22.4613 24.7942 22.6232 24.6321 22.6232 24.4324C22.6232 24.2324 22.4613 24.0706 22.2615 24.0706C22.0616 24.0706 21.8997 24.2324 21.8997 24.4324C21.8997 24.6321 22.0616 24.7942 22.2615 24.7942ZM23.4915 18.7886C23.4915 18.9883 23.3296 19.1504 23.1298 19.1504C22.9299 19.1504 22.7679 18.9883 22.7679 18.7886C22.7679 18.5886 22.9299 18.4268 23.1298 18.4268C23.3296 18.4268 23.4915 18.5886 23.4915 18.7886ZM36.8052 15.3879C37.005 15.3879 37.1669 15.2258 37.1669 15.0261C37.1669 14.8262 37.005 14.6643 36.8052 14.6643C36.6053 14.6643 36.4434 14.8262 36.4434 15.0261C36.4434 15.2258 36.6053 15.3879 36.8052 15.3879ZM14.6642 36.335L16.4319 36.7146L15.6616 37.906L16.8531 37.1357L17.2328 38.9036L17.6036 37.177L18.7314 37.906L17.9701 36.7283L19.8014 36.335L18.0111 35.9504L18.7314 34.8362L17.6172 35.5564L17.2328 33.7664L16.8395 35.5977L15.6616 34.8362L16.3909 35.9641L14.6642 36.335ZM39.1929 18.7522L40.9608 19.1318L40.1904 20.3235L41.3818 19.5532L41.7615 21.3208L42.1322 19.5942L43.2603 20.3235L42.4988 19.1455L44.3301 18.7522L42.54 18.3677L43.2603 17.2537L42.146 17.9739L41.7615 16.1836L41.3682 18.0149L40.1904 17.2537L40.9196 18.3813L39.1929 18.7522ZM32.7532 17.7483L33.332 14.9536L35.2042 15.3743L35.4167 19.3831L37.1149 20.9536L36.8955 23.3921H35.6655L35.7378 24.8394L36.5337 25.3818L36.7509 26.7205L38.8853 28.6379L40.3324 29.1807L40.6581 31.1704L42.3221 32.509V34.752H41.9604L41.9785 34.9692H41.3816L41.4901 36.0002L44.2577 38.3157L44.3663 42.3313L42.1052 42.0601L42.087 43.2539L38.5959 43.6699L40.8298 45.4065L40.7305 45.8044V47.2698L40.8932 47.8853L39.6632 47.7593L39.4641 48.2668L35.9368 47.6721L35.9006 47.2786L32.9159 47.2698H32.0476L29.063 47.2786L29.0267 47.6677L25.4994 48.2646L25.3004 47.7581L24.0703 47.8848L24.2332 47.2698V45.8044L24.1337 45.4065L26.3677 43.6699L22.8765 43.2539L22.8584 42.0601L20.5973 42.3313L20.7058 38.3157L23.4734 36.0002L23.5819 34.9692H22.985L23.0031 34.752H22.6414V32.509L24.3054 31.1704L24.6311 29.1807L26.0782 28.6379L28.2128 26.7205L28.4298 25.3818L29.2258 24.8394L29.2981 23.3921H28.068L27.8486 20.9536L29.5468 19.3831L29.7593 15.3743L31.6316 14.9536L32.2104 17.7483L32.4818 17.7822L32.7532 17.7483Z" fill="url(#paint0_linear)"/>
<defs>
<linearGradient id="paint0_linear" x2="1" gradientUnits="userSpaceOnUse" gradientTransform="translate(32.5) scale(65) rotate(90)">
<stop stop-color="#E4C079"/>
<stop offset="1" stop-color="#9C6114"/>
</linearGradient>
</defs>
</svg>
