<svg width="65" height="65" viewBox="0 0 65 65" fill="none" xmlns="http://www.w3.org/2000/svg">
<path fill-rule="evenodd" clip-rule="evenodd" d="M0 32.5C0 14.5508 14.5505 0 32.5 0C50.4492 0 65 14.5508 65 32.5C65 50.4492 50.4492 65 32.5 65C14.5505 65 0 50.4492 0 32.5ZM27.5491 40.6343L28.7671 38.0322L29.9285 35.4988L32.1191 30.8987L34.3098 35.4226H37.0754L32.1828 25L24.8476 40.6343H27.5491ZM39.4274 40.5757L45.1555 32.8535L39.385 25.074H42.5416L46.7271 30.7622L45.2048 32.8535L46.7271 34.9448L42.5425 40.6331H39.4543L36.7534 40.6343L35.5286 38.0325H38.2302L39.4274 40.5757ZM46.7271 30.6948L48.2739 32.8196L53.9999 25.0066H50.9117L46.7271 30.6948ZM48.2739 32.8198L53.9999 40.6343H50.9133L46.7287 34.946L48.2739 32.8198ZM25.6733 32.8215C25.7233 30.7361 24.9547 28.7229 23.5526 27.2664C22.1829 25.78 20.2972 24.9631 18.3424 25.0098C16.817 24.9807 15.3248 25.4863 14.0953 26.4487L15.8941 28.3647C16.6299 27.8918 17.4777 27.6538 18.3368 27.6787C19.6423 27.6448 20.9023 28.1902 21.8153 29.1846C22.7203 30.1775 23.2272 31.5061 23.229 32.8899C23.261 34.2805 22.7489 35.6228 21.8153 36.5952C20.9064 37.605 19.65 38.176 18.3366 38.176C17.0233 38.176 15.7669 37.605 14.858 36.5952C13.953 35.6025 13.446 34.2737 13.4442 32.8899C13.4421 31.9453 13.687 31.0186 14.1512 30.2136L12.3525 28.2976C11.449 29.6072 10.9743 31.1965 11.0015 32.8215C10.959 34.9055 11.7264 36.9155 13.1223 38.3765C14.5013 39.8513 16.3834 40.6667 18.3374 40.6355C20.396 40.6355 22.1389 39.9573 23.5526 38.3765C24.9271 36.9006 25.6907 34.9004 25.6733 32.8215Z" fill="url(#paint0_linear)"/>
<defs>
<linearGradient id="paint0_linear" x2="1" gradientUnits="userSpaceOnUse" gradientTransform="translate(32.5 65) scale(65) rotate(-90)">
<stop stop-color="#164B79"/>
<stop offset="1" stop-color="#4C6F8C"/>
</linearGradient>
</defs>
</svg>
