<svg width="65" height="65" viewBox="0 0 65 65" fill="none" xmlns="http://www.w3.org/2000/svg">
<path fill-rule="evenodd" clip-rule="evenodd" d="M0 32.5C0 14.5508 14.5506 0 32.5 0C50.4492 0 65 14.5508 65 32.5C65 50.4492 50.4492 65 32.5 65C14.5506 65 0 50.4492 0 32.5ZM11.9999 32.5C11.9999 43.8218 21.1781 53 32.4999 53C43.8217 53 52.9999 43.8218 52.9999 32.5C52.9999 21.1782 43.8217 12 32.4999 12C21.1781 12 11.9999 21.1782 11.9999 32.5ZM32.4999 51.6333C43.067 51.6333 51.6332 43.0671 51.6332 32.5C51.6332 21.9331 43.067 13.3667 32.4999 13.3667C21.9329 13.3667 13.3666 21.9331 13.3666 32.5C13.3666 43.0671 21.9329 51.6333 32.4999 51.6333ZM30.4499 45.3223V41.8464C26.1515 40.908 22.9332 37.0798 22.9332 32.5C22.9332 27.9202 26.1515 24.092 30.4499 23.1536V19.6775C24.2534 20.6604 19.5166 26.0269 19.5166 32.5C19.5166 38.9729 24.2534 44.3394 30.4499 45.3223ZM34.5499 45.3223V41.8464C38.8483 40.908 42.0666 37.0798 42.0666 32.5C42.0666 27.9202 38.8483 24.092 34.5499 23.1536V19.6775C40.7463 20.6604 45.4832 26.0269 45.4832 32.5C45.4832 38.9729 40.7463 44.3394 34.5499 45.3223Z" fill="url(#paint0_linear)"/>
<defs>
<linearGradient id="paint0_linear" x2="1" gradientUnits="userSpaceOnUse" gradientTransform="translate(32.5) scale(65) rotate(90)">
<stop stop-color="#ACACAC"/>
<stop offset="1" stop-color="#555555"/>
</linearGradient>
</defs>
</svg>
