<svg width="65" height="65" viewBox="0 0 65 65" fill="none" xmlns="http://www.w3.org/2000/svg">
<path fill-rule="evenodd" clip-rule="evenodd" d="M32.5 0C14.5505 0 0 14.5508 0 32.5C0 50.4492 14.5505 65 32.5 65C50.4492 65 65 50.4492 65 32.5C65 14.5508 50.4492 0 32.5 0ZM40.2887 32.5L50.89 21.8987L48.7264 19.7351L35.9615 32.5L48.7264 45.2649L50.89 43.1013L40.2887 32.5ZM43.1012 50.8901L32.4999 40.2888L21.8986 50.8901L19.735 48.7266L32.4999 35.9617L45.2648 48.7266L43.1012 50.8901ZM24.7112 32.5L14.1099 43.1013L16.2734 45.2649L29.0383 32.5L16.2734 19.7351L14.1099 21.8987L24.7112 32.5ZM21.8986 14.1099L32.4999 24.7112L43.1012 14.1099L45.2648 16.2734L32.4999 29.0383L19.735 16.2734L21.8986 14.1099Z" fill="url(#paint0_linear)"/>
<defs>
<linearGradient id="paint0_linear" x2="1" gradientUnits="userSpaceOnUse" gradientTransform="translate(32.5) scale(65) rotate(90)">
<stop stop-color="white"/>
<stop offset="1" stop-color="#B8B8B8"/>
</linearGradient>
</defs>
</svg>
