<svg width="65" height="65" viewBox="0 0 65 65" fill="none" xmlns="http://www.w3.org/2000/svg">
<path fill-rule="evenodd" clip-rule="evenodd" d="M0 32.5C0 14.5508 14.5505 0 32.5 0C50.4492 0 65 14.5508 65 32.5C65 50.4492 50.4492 65 32.5 65C14.5505 65 0 50.4492 0 32.5ZM18.2771 40.7188H18.4584C19.3778 41.6567 20.7635 42.0842 22.6339 42.0786C26.6298 42.0786 29.9487 38.6265 29.9487 32.8342V32.1125C29.9487 26.5459 27.0812 22.3779 22.7078 22.3779C21.6644 22.3779 19.8052 22.4167 18.3455 23.8154H18.1809V22.6313H13.9999V48.3H18.2771V40.7188ZM25.9768 33.1782V31.9146C25.9768 28.2886 24.5948 25.8633 22.1325 25.8633C19.4722 25.8633 18.0458 28.6826 18.0458 31.9146V33.1726C18.0458 36.2529 19.45 38.6116 22.2065 38.6116C24.3765 38.6042 25.9768 36.9133 25.9768 33.1782ZM36.3017 15H32.0189V41.9656H36.3017V15ZM48.5376 26.8567C46.1363 26.8567 43.7516 28.7622 43.7516 31.1709V41.9822H39.4929V22.8125H43.439V23.991H43.5999C44.5582 22.981 46.9022 22.5073 48.8299 22.5352C48.9268 22.5352 48.9345 22.5366 48.9422 22.5378C48.9498 22.5393 48.9573 22.5405 49.05 22.5405L49.0722 26.8567H48.5376ZM50.9999 37.3757H46.7393V41.9656H50.9999V37.3757Z" fill="url(#paint0_linear)"/>
<defs>
<linearGradient id="paint0_linear" x2="1" gradientUnits="userSpaceOnUse" gradientTransform="translate(32.5) scale(65) rotate(90)">
<stop stop-color="#41D4FC"/>
<stop offset="1" stop-color="#00BFFF"/>
</linearGradient>
</defs>
</svg>
