<svg width="65" height="65" viewBox="0 0 65 65" fill="none" xmlns="http://www.w3.org/2000/svg">
<path fill-rule="evenodd" clip-rule="evenodd" d="M32.5 0C14.5506 0 0 14.5508 0 32.5C0 50.4492 14.5506 65 32.5 65C50.4492 65 65 50.4492 65 32.5C65 14.5508 50.4492 0 32.5 0ZM48.7021 17.2792C47.2151 15.8142 45.21 14.9951 43.1225 15C41.0043 15 39.0322 15.814 37.5429 17.2792L19.3094 35.2353C19.1234 35.4219 19.0258 35.679 19.0411 35.942V45.1845L13.9999 50.1499H16.7804L20.5137 46.474H29.8451C30.1099 46.4767 30.3637 46.3679 30.5444 46.1743L48.6854 28.307L48.7039 28.2885C50.1701 26.844 50.9969 24.8726 50.9998 22.8144C51.01 20.7364 50.1816 18.7421 48.7021 17.2829V17.2792ZM38.098 19.3661L38.8694 18.6076C40.0025 17.491 41.5317 16.8684 43.1226 16.876C44.7191 16.876 46.2268 17.4939 47.3757 18.6076C47.3942 18.6261 47.4127 18.6594 47.4478 18.6779C48.5412 19.7916 49.1332 21.2402 49.1332 22.796C49.1332 24.3685 48.5042 25.8522 47.3757 26.9844L46.5857 27.7614H39.5336L44.1641 23.2012C44.5322 22.8418 44.5477 22.2549 44.1992 21.8766C44.1807 21.8581 44.1807 21.8396 44.1622 21.8229C43.7765 21.4532 43.1679 21.4532 42.7822 21.8229L38.1165 26.4183V19.3643L38.098 19.3661ZM22.4174 44.6019L26.2209 40.8538H33.2731L29.4695 44.6019H22.4174ZM33.4877 33.6795L37.9925 29.2432H45.0447L40.5399 33.6795H33.4877ZM38.997 35.2002L34.7975 39.3349H27.7454L31.9449 35.2002H38.997ZM32.054 25.3212L36.5754 20.8665V27.9001L32.054 32.3716V25.3212ZM26.3116 30.9748L30.5111 26.8401V33.8738L26.3116 38.0085V30.9748ZM20.9281 36.2768L24.7853 32.4954V39.529L20.9281 43.3104V36.2768Z" fill="url(#paint0_linear)"/>
<defs>
<linearGradient id="paint0_linear" x2="1" gradientUnits="userSpaceOnUse" gradientTransform="translate(32.5) scale(65) rotate(90)">
<stop stop-color="white"/>
<stop offset="1" stop-color="#DCD6CC"/>
</linearGradient>
</defs>
</svg>
