<svg width="65" height="65" viewBox="0 0 65 65" fill="none" xmlns="http://www.w3.org/2000/svg">
<path fill-rule="evenodd" clip-rule="evenodd" d="M32.5 0C14.5506 0 0 14.5508 0 32.5C0 50.4492 14.5506 65 32.5 65C50.4492 65 65 50.4492 65 32.5C65 14.5508 50.4492 0 32.5 0ZM13.7487 32.4493L23.1521 46.42L32.5554 32.4493L23.1521 18.4785L13.7487 32.4493ZM34.8577 31.4053C35.2824 32.0365 35.2824 32.8621 34.8577 33.4932L24.7031 48.58C24.1265 49.4366 22.9647 49.6636 22.1082 49.0871C21.908 48.9523 21.7358 48.7802 21.6011 48.58L11.4465 33.4932C11.0217 32.8621 11.0217 32.0365 11.4465 31.4053L21.6011 16.3185C22.1777 15.4619 23.3394 15.2349 24.196 15.8115C24.3962 15.9462 24.5683 16.1184 24.7031 16.3185L34.8577 31.4053ZM30.3794 48.6556C30.5051 48.8237 30.6583 48.9696 30.8328 49.0871C31.6893 49.6636 32.8511 49.4366 33.4277 48.58L43.5823 33.4932C44.007 32.8621 44.007 32.0365 43.5823 31.4053L33.4277 16.3185C33.2929 16.1184 33.1208 15.9462 32.9206 15.8115C32.0898 15.2523 30.9719 15.449 30.3793 16.2429C30.3978 16.2676 30.4157 16.2928 30.433 16.3185L40.5876 31.4053C40.6209 31.4549 40.6517 31.5056 40.6798 31.5574L41.2801 32.4493L40.6798 33.3412C40.6517 33.3929 40.6209 33.4436 40.5876 33.4932L30.433 48.58C30.4156 48.6058 30.3978 48.631 30.3794 48.6556ZM40.3504 48.6556C40.4761 48.8237 40.6293 48.9696 40.8038 49.0871C41.6604 49.6636 42.8221 49.4366 43.3987 48.58L53.5533 33.4932C53.9781 32.8621 53.9781 32.0365 53.5533 31.4053L43.3987 16.3185C43.264 16.1184 43.0918 15.9462 42.8916 15.8115C42.0608 15.2523 40.9429 15.449 40.3503 16.2429C40.3688 16.2676 40.3867 16.2928 40.404 16.3185L50.5586 31.4053C50.5919 31.4549 50.6227 31.5056 50.6508 31.5574L51.2511 32.4493L50.6508 33.3412C50.6227 33.3929 50.5919 33.4436 50.5586 33.4932L40.404 48.58C40.3867 48.6058 40.3688 48.631 40.3504 48.6556Z" fill="url(#paint0_linear)"/>
<defs>
<linearGradient id="paint0_linear" x2="1" gradientUnits="userSpaceOnUse" gradientTransform="translate(32.5) scale(64.0281) rotate(90)">
<stop stop-color="#8BEECA"/>
<stop offset="1" stop-color="#00CF87"/>
</linearGradient>
</defs>
</svg>
