<svg width="65" height="65" viewBox="0 0 65 65" fill="none" xmlns="http://www.w3.org/2000/svg">
<path fill-rule="evenodd" clip-rule="evenodd" d="M32.5 0C14.5506 0 0 14.5508 0 32.5C0 50.4492 14.5506 65 32.5 65C50.4492 65 65 50.4492 65 32.5C65 14.5508 50.4492 0 32.5 0ZM53.9875 32.4172C54.0247 32.586 53.9398 32.758 53.7832 32.8311L53.6471 32.8956L49.5156 37.0378L51.1173 43.0308C51.1698 43.2271 51.0536 43.429 50.8575 43.4823L45.1082 45.0249L43.5226 50.9551C43.4709 51.1509 43.2706 51.2679 43.0747 51.2167L37.0011 49.5863L32.7048 53.8916C32.6361 53.961 32.5426 54 32.445 54C32.3474 54 32.2539 53.961 32.1852 53.8916L27.9409 49.6365L22.0608 51.2167C21.9669 51.2418 21.8669 51.2286 21.7829 51.1798C21.6988 51.1311 21.6377 51.0509 21.6129 50.9569L20.0255 45.0267L14.278 43.4823C14.1835 43.4571 14.1029 43.3953 14.0542 43.3106C14.0054 43.2258 13.9925 43.1251 14.0182 43.0308L15.5679 37.2313L11.1068 32.7576C10.9642 32.6138 10.9642 32.3819 11.1068 32.2381L15.4443 27.8862L13.8946 22.0885C13.8422 21.8916 13.9593 21.6895 14.1561 21.637L20.167 20.021L21.7329 14.1624C21.7854 13.9655 21.9875 13.8484 22.1844 13.9008L27.871 15.4291L32.1852 11.1041C32.3306 10.9653 32.5594 10.9653 32.7048 11.1041L37.071 15.4792L42.9511 13.899C43.0454 13.8739 43.1458 13.8874 43.2302 13.9365C43.3146 13.9855 43.376 14.0662 43.4008 14.1606L43.442 14.3147C43.451 14.3378 43.4576 14.3618 43.4617 14.3863L44.9667 20.0192L50.9793 21.6352C51.1764 21.689 51.2911 21.8896 51.2391 22.0867L49.6374 28.0779L53.6811 32.1324C53.8321 32.1539 53.954 32.2666 53.9875 32.4154V32.4172ZM49.2953 36.2154L51.7068 33.8003L48.9889 35.067L49.2953 36.2172V36.2154ZM50.1749 42.3554L48.9154 37.6399L46.4125 40.1482V40.15L50.1749 42.3554ZM46.2154 40.8862L45.3286 44.2043L49.8166 42.9986L46.2154 40.888V40.8862ZM42.9941 50.0881L44.2895 45.2454L40.7528 46.1949L42.9941 50.0881ZM38.5079 48.0725L37.5995 48.9844L41.1631 49.9412L38.5079 48.0725ZM32.8123 52.7414L36.1806 49.3642L32.8123 48.4595V52.7414ZM32.0778 48.5256L28.7615 49.4161L32.076 52.7413V48.5256H32.0778ZM22.781 50.2601L27.3425 49.0364L24.8987 46.5854L22.781 50.2601ZM20.8461 45.2454L21.8583 49.0328L22.1629 45.6001L20.8461 45.2454ZM15.3099 42.9968L19.8069 44.2043L18.9111 40.8594L15.3099 42.9968ZM18.5474 40.2197L16.1681 37.8333L14.9606 42.3481L18.5474 40.2197ZM12.3126 32.9277L15.7883 36.4106L16.7182 32.9277H12.3126ZM16.0391 30.106L15.6647 28.7085L12.7372 31.6432L16.0391 30.106ZM14.8352 22.7568L16.0445 27.2843L18.4632 24.8602L14.8352 22.7568ZM19.024 24.2975L19.9485 20.8433L15.2007 22.1189L19.0007 24.3208L19.024 24.2975ZM22.1987 15.2678L20.9876 19.8006L24.2967 18.912L22.1987 15.2696V15.2678ZM26.3947 16.909L27.2708 16.0311L23.8381 15.1084L26.3947 16.909ZM32.0778 12.2544L28.6916 15.6495L32.0778 16.5597V12.2544ZM32.8123 16.626L36.2522 15.7015L32.8123 12.2544V16.626ZM42.4799 14.7913L37.6712 16.0812L40.2476 18.6665L42.4799 14.7913ZM43.0228 19.4997L44.1479 19.8007L43.2826 16.5632L43.0228 19.4997ZM49.9205 22.1153L45.187 20.8433L46.1007 24.2688L49.9187 22.1135L49.9205 22.1153ZM46.4716 24.905L49.0372 27.476L50.3039 22.7407L46.4716 24.905ZM52.6384 32.1271L49.4189 28.9004L48.5553 32.1271H52.6384ZM48.3994 32.8633L48.7936 34.3414L51.9665 32.8633H48.4012H48.3994ZM47.844 34.784L48.1181 34.6586L47.9981 34.2107L47.8458 34.784H47.844ZM47.5968 35.7121L46.7905 38.7239L48.695 36.8158L48.3116 35.3789L47.5968 35.7121ZM45.3734 41.189L41.2831 45.2882L44.508 44.4228L45.3734 41.189ZM40.2368 45.2972L45.7532 39.7665L46.7278 36.1169L37.4418 40.4437L40.2368 45.2972ZM40.0791 46.4976L39.0364 47.5421L41.8026 49.4896L40.0791 46.4976ZM38.1245 46.9006L38.4254 47.112L38.825 46.7107L38.1245 46.9006ZM37.1982 47.1479L33.9876 48.0115L36.7807 48.7622L37.8987 47.6406L37.2 47.1479H37.1982ZM31.1479 48.0116L25.9755 46.6213L28.1612 48.8143L31.1479 48.0116ZM22.9835 44.6648L22.9476 45.0464L23.5156 45.1987L22.9835 44.6648ZM22.3045 43.9841L19.8517 41.5295L20.6257 44.4266L22.2292 44.8566L22.3045 43.9876V43.9841ZM18.4328 39.0624L17.1356 34.2107L16.3867 37.011L18.4328 39.0624ZM16.5963 32.1916L16.2308 30.8281L13.3051 32.1898H16.5963V32.1916ZM17.4277 30.269L16.9081 30.5127L17.1356 31.3655L17.4277 30.269ZM17.6767 29.3429L18.6442 25.7202L16.2649 28.1067L16.7146 29.7908L17.6767 29.3429ZM20.0631 23.2548L23.3937 19.917L20.7672 20.6229L20.0631 23.2566V23.2548ZM24.8719 18.4354L25.868 17.4374L23.2236 15.5759L24.8719 18.4354ZM26.9501 18.1989L26.4789 17.8674L25.8519 18.4945L26.9501 18.1989ZM27.8764 17.9499L31.1479 17.072L28.0914 16.2515L27.0057 17.3372L27.8764 17.9499ZM33.9858 17.0721L38.9486 18.405L36.8524 16.3035L33.9858 17.0721ZM42.1861 20.6088L42.2363 20.0498L41.4067 19.8276L42.1861 20.6088ZM42.8633 21.2895L45.1601 23.5917L44.3665 20.623L42.9564 20.2432L42.8633 21.2895ZM46.5791 26.0552L47.9981 31.3655L48.8186 28.3001L46.5791 26.057V26.0552ZM36.2343 38.3476L37.0728 39.8042L46.9769 35.1908L47.5986 32.8652H41.8385L41.5465 36.1511C41.5322 36.3094 41.4176 36.4406 41.2626 36.4761C41.1076 36.5116 40.9474 36.4433 40.8657 36.3069L39.0776 33.2791L36.2343 38.3476ZM34.8297 40.8505L36.4045 40.116L35.815 39.0947L34.8297 40.8505ZM28.5841 40.1875L37.3398 46.3506L39.6384 45.7325L36.7718 40.7572L34.1059 42.0006C33.9606 42.0692 33.7876 42.0354 33.6788 41.9172C33.57 41.7989 33.5507 41.6237 33.6311 41.4846L35.3027 38.5051L29.5157 38.5696L28.5841 40.1857V40.1875ZM28.215 40.8271L25.4022 45.7075L32.5686 47.6317L36.4135 46.598L28.215 40.8271ZM28.6611 38.5786L26.3374 38.6055L27.9803 39.7611L28.6611 38.5786ZM24.0208 32.9277L23.0677 43.7097L24.7411 45.3849L27.6112 40.4006L24.9811 38.5516C24.8509 38.4593 24.7949 38.2937 24.8422 38.1413C24.8894 37.9888 25.0294 37.884 25.189 37.8816L28.7435 37.8404L25.8411 32.9277H24.0226H24.0208ZM23.2862 32.9277H17.553L19.4701 40.1032L22.3904 43.0289L23.2862 32.9277ZM25.4039 32.1915L24.2591 30.2529L24.0871 32.1915H25.4039ZM28.0018 25.344L18.2984 29.866L17.6767 32.1916H23.3508L23.6285 29.0491C23.6449 28.8921 23.7593 28.763 23.9132 28.7278C24.067 28.6926 24.2262 28.759 24.3093 28.8932L26.1063 31.9336L28.9137 26.9296L28 25.344H28.0018ZM27.6328 24.7042L24.7124 19.6357L19.6833 24.6792L18.5457 28.9378L27.6328 24.7042ZM36.6034 24.9945L27.7348 18.7507L25.4129 19.376L28.301 24.3925L31.1676 23.056C31.3129 22.9874 31.4859 23.0212 31.5947 23.1394C31.7035 23.2577 31.7228 23.4329 31.6424 23.572L29.9654 26.5604L35.738 26.4959L36.6034 24.9945ZM36.9725 24.3531L39.8229 19.4029L32.5669 17.4536L28.6611 18.5035L36.9725 24.3531ZM36.5927 26.4852L38.6889 26.4637L37.2072 25.4192L36.5927 26.487V26.4852ZM41.1004 32.8652H39.685L40.9158 34.9471L41.1004 32.8652ZM29.333 26.1825L30.4438 24.2063L28.6701 25.0322L29.333 26.1842V26.1825ZM35.7165 37.7688L38.644 32.548L35.5176 27.2555L35.5087 27.2358L29.548 27.3021L26.538 32.6662L29.5927 37.8315L35.6807 37.7634C35.6932 37.7634 35.704 37.767 35.7165 37.7688ZM42.7791 22.2461L41.903 32.1287H47.4427L45.54 25.0159L42.7791 22.2461ZM41.1667 32.1289L42.1019 21.5655L40.4052 19.8652L37.5745 24.7779L40.0469 26.5157C40.1787 26.6076 40.2359 26.7741 40.1885 26.9276C40.141 27.0811 39.9997 27.1862 39.8391 27.1876L36.3544 27.2252L39.2514 32.1289H41.1649H41.1667ZM42.3007 19.3062L42.5874 16.0759L40.9391 18.9389L42.3007 19.3062ZM22.8831 45.7935L22.5875 49.1223L24.2896 46.1697L22.8831 45.7935Z" fill="url(#paint0_linear)"/>
<defs>
<linearGradient id="paint0_linear" x2="1" gradientUnits="userSpaceOnUse" gradientTransform="translate(32.5) scale(65) rotate(90)">
<stop stop-color="#8BEECA"/>
<stop offset="1" stop-color="#05BCA9"/>
</linearGradient>
</defs>
</svg>
