<svg width="65" height="65" viewBox="0 0 65 65" fill="none" xmlns="http://www.w3.org/2000/svg">
<path fill-rule="evenodd" clip-rule="evenodd" d="M32.5 0C14.5506 0 0 14.5508 0 32.5C0 50.4492 14.5506 65 32.5 65C50.4492 65 65 50.4492 65 32.5C65 14.5508 50.4492 0 32.5 0ZM33.0236 18.8244C30.6839 18.8244 28.7869 17.5212 28.7869 15.9122C28.7869 14.3032 30.6839 13 33.0236 13C35.3633 13 37.2586 14.3032 37.2586 15.9122C37.2586 17.5212 35.3633 18.8244 33.0236 18.8244ZM30.8314 51.3315V20.2253H40.2756C40.6259 20.2253 40.873 20.4867 40.873 20.8369V38.0968C40.873 38.4453 40.6241 38.7439 40.2756 38.7439H35.0699V51.3315C35.0699 51.6817 34.8032 52 34.453 52H31.4875C31.127 51.986 30.8396 51.6939 30.8314 51.3332V51.3315ZM29.2384 38.7422H25.6648C25.3059 38.7386 25.0132 38.4537 24.9999 38.095V20.8369C24.9999 20.4867 25.3146 20.2253 25.663 20.2253H29.2384V38.7439V38.7422Z" fill="url(#paint0_linear)"/>
<defs>
<linearGradient id="paint0_linear" x2="1" gradientUnits="userSpaceOnUse" gradientTransform="translate(32.5 65) scale(65) rotate(-90)">
<stop stop-color="#152743"/>
<stop offset="1" stop-color="#4C6F8C"/>
</linearGradient>
</defs>
</svg>
