<svg width="65" height="65" viewBox="0 0 65 65" fill="none" xmlns="http://www.w3.org/2000/svg">
<path fill-rule="evenodd" clip-rule="evenodd" d="M0 32.5C0 14.5508 14.5505 0 32.5 0C50.4492 0 65 14.5508 65 32.5C65 50.4492 50.4492 65 32.5 65C14.5505 65 0 50.4492 0 32.5ZM27.8633 25.5708V23.2307V20.3921C27.8683 18.7297 29.2146 17.3835 30.877 17.3784H35.2977C36.9601 17.3835 38.3064 18.7297 38.3114 20.3921V25.5688C38.3131 27.0454 39.5096 28.2419 40.9862 28.2437H46.161C47.8236 28.2488 49.1702 29.5957 49.1746 31.2583V35.675C49.1702 37.3379 47.8236 38.6848 46.161 38.6897H43.3223C43.2021 38.6897 43.0824 38.6882 42.9629 38.6855H40.9862C39.5081 38.6873 38.3108 39.8865 38.3113 41.3645V46.5352C38.3063 48.1975 36.96 49.5439 35.2977 49.5488H30.8768C29.2146 49.5439 27.8683 48.1975 27.8633 46.5352V41.3606C27.8616 39.884 26.6649 38.6873 25.1884 38.6855H20.0137C18.3541 38.6807 17.0089 37.3386 17 35.6792V31.2583C17.0056 29.5964 18.3517 28.2507 20.0137 28.2456H25.1884C26.6649 28.2439 27.8616 27.0474 27.8633 25.5708ZM52 16.4038C40.4459 13.8367 41.4512 24.3489 41.4512 24.3489C51.4258 26.9424 51.7809 20.3928 51.9639 17.019C51.9757 16.7993 51.9869 16.5933 52 16.4038Z" fill="url(#paint0_linear)"/>
<defs>
<linearGradient id="paint0_linear" x2="1" gradientUnits="userSpaceOnUse" gradientTransform="translate(32.5) scale(65) rotate(90)">
<stop stop-color="#ED5250"/>
<stop offset="1" stop-color="#DB0029"/>
</linearGradient>
</defs>
</svg>
