<svg width="65" height="65" viewBox="0 0 65 65" fill="none" xmlns="http://www.w3.org/2000/svg">
<path fill-rule="evenodd" clip-rule="evenodd" d="M32.5 0C14.5506 0 0 14.5508 0 32.5C0 50.4492 14.5506 65 32.5 65C50.4492 65 65 50.4492 65 32.5C65 14.5508 50.4492 0 32.5 0ZM52.1898 42.3007C51.7706 42.3033 51.4314 42.6425 51.4287 43.0617V45.345H41.6084L41.5838 43.8965C47.2308 39.9292 49.6551 32.7596 47.5747 26.1793C45.4942 19.5991 39.389 15.1262 32.4877 15.1262C25.5864 15.1262 19.4812 19.5991 17.4007 26.1793C15.3203 32.7596 17.7446 39.9292 23.3916 43.8965H23.4161L23.3916 45.3204H13.5712V43.0372C13.5712 42.6169 13.2305 42.2761 12.8102 42.2761C12.3898 42.2761 12.0491 42.6169 12.0491 43.0372V46.818H24.8892L24.9383 43.5282C24.936 43.2199 24.7535 42.9415 24.4718 42.8162C24.4266 42.7332 24.3584 42.665 24.2754 42.6198C20.4294 39.9733 18.1336 35.6022 18.1377 30.9336C18.1393 24.1033 22.9589 18.2224 29.6558 16.8791C36.3527 15.5359 43.0674 19.1033 45.7029 25.4047C48.3383 31.7061 46.1627 38.9917 40.5036 42.8162C40.4403 42.8672 40.3827 42.9248 40.3317 42.9881C40.1622 43.1268 40.0632 43.3337 40.0616 43.5528L40.1107 46.8426H52.9509V43.0617C52.9482 42.6425 52.609 42.3033 52.1898 42.3007ZM42.0502 32.0407C41.7355 31.6462 41.3995 31.2692 41.0437 30.9113C41.3995 30.5535 41.7355 30.1764 42.0502 29.782C43.7443 27.6952 44.2598 25.8538 43.5233 24.5772C42.9586 23.6197 41.7556 23.1041 40.0125 23.1041C38.9176 23.13 37.8296 23.2866 36.7718 23.5706C35.8389 20.3053 34.2922 18.2185 32.5245 18.2185C30.7568 18.2185 29.2101 20.3053 28.2526 23.5461C27.1948 23.262 26.1069 23.1054 25.0119 23.0796C23.2688 23.0796 22.0658 23.5952 21.5011 24.5526C20.7646 25.8293 21.2802 27.6706 22.9742 29.7574C23.2889 30.1519 23.625 30.5289 23.9808 30.8868C21.6239 33.3173 20.5928 35.6987 21.5011 37.2209C22.0658 38.1784 23.2688 38.694 25.0119 38.694C26.1069 38.6681 27.1948 38.5115 28.2526 38.2275C29.1856 41.4682 30.7323 43.555 32.4999 43.555C34.2676 43.555 35.8143 41.4682 36.7718 38.2275C37.8296 38.5115 38.9176 38.6681 40.0125 38.694C41.7556 38.694 42.9586 38.1784 43.5233 37.2209C44.2598 35.9934 43.7443 34.1275 42.0502 32.0407ZM40.0371 24.0127C40.9946 24.0127 42.2467 24.1846 42.7131 25.0193C43.2287 25.9277 42.7131 27.4253 41.3137 29.1684C41.0191 29.5121 40.7 29.8804 40.3563 30.2241C39.4787 29.415 38.5522 28.6607 37.582 27.9654C37.4692 26.7761 37.2806 25.5953 37.0173 24.4301C38.0062 24.1839 39.0185 24.0439 40.0371 24.0127ZM34.6359 34.594C33.9445 35.0007 33.2315 35.3695 32.5 35.6988C31.788 35.3551 31.0761 34.9868 30.3641 34.5694C29.6521 34.1521 28.9647 33.7347 28.3264 33.2928C28.2773 32.5317 28.2281 31.7215 28.2281 30.8868C28.2281 30.0521 28.2527 29.2419 28.3264 28.4808C28.9647 28.0389 29.6276 27.6215 30.3641 27.2042C31.0555 26.7974 31.7685 26.4286 32.5 26.0994C33.212 26.4431 33.924 26.8113 34.6359 27.2042C35.3479 27.6215 36.0353 28.0389 36.6737 28.4808C36.7228 29.2419 36.7719 30.0521 36.7719 30.8868C36.7719 31.7215 36.7473 32.5071 36.6737 33.2928C36.0353 33.7347 35.3479 34.1766 34.6359 34.594ZM36.5755 34.5205C36.4527 35.4534 36.3054 36.3127 36.1336 37.1229C35.2894 36.8706 34.4613 36.5672 33.6539 36.2145C34.1449 35.969 34.636 35.699 35.127 35.4043C35.618 35.1097 36.0845 34.8151 36.5755 34.5205ZM31.3952 36.2145C30.5862 36.5633 29.7584 36.8666 28.9155 37.1229C28.7085 36.2667 28.5608 35.3971 28.4736 34.5205C28.9401 34.8151 29.4311 35.1097 29.9221 35.4043L31.3952 36.2145ZM27.3689 32.5809C26.6591 32.0541 25.9788 31.4886 25.3312 30.8869C25.9746 30.2805 26.6552 29.7147 27.3689 29.1929C27.3444 29.7575 27.3198 30.2977 27.3198 30.8869C27.3198 31.4761 27.3444 32.0408 27.3689 32.5809ZM28.4736 27.3023C28.5964 26.3694 28.7437 25.5101 28.9155 24.7C29.7597 24.9523 30.5878 25.2557 31.3952 25.6083C30.9042 25.8538 30.4132 26.1239 29.8976 26.4185C29.382 26.7131 28.9401 26.9832 28.4736 27.3023ZM33.6294 25.6083C34.4384 25.2596 35.2662 24.9563 36.109 24.7C36.3161 25.5562 36.4638 26.4257 36.551 27.3023C36.0845 27.0077 35.5935 26.7131 35.1024 26.4185C34.6114 26.1239 34.1204 25.8538 33.6294 25.6083ZM37.6803 29.2175C38.3882 29.737 39.0607 30.3029 39.6935 30.9115C39.0797 31.4762 38.3923 32.0409 37.6803 32.6056C37.7048 32.0654 37.7294 31.5008 37.7294 30.9115C37.7294 30.3223 37.7048 29.7822 37.6803 29.2175ZM32.5246 19.1516C33.7522 19.1516 35.0533 20.8702 35.8881 23.7917C34.7402 24.1423 33.6166 24.568 32.5246 25.0659C31.4326 24.5672 30.309 24.1407 29.1611 23.7893C29.9959 20.8702 31.2725 19.1516 32.5246 19.1516ZM22.3359 25.0193C22.8269 24.1846 24.0545 24.0127 25.0119 24.0127C26.0314 24.0334 27.0449 24.1734 28.0317 24.4301C27.7684 25.5953 27.5798 26.7761 27.467 27.9654C26.4933 28.6551 25.5665 29.4089 24.6928 30.2216C24.3491 29.8534 24.0299 29.5096 23.7353 29.1414C22.3113 27.4498 21.7958 25.9277 22.3359 25.0193ZM25.0119 37.7857C24.0544 37.7857 22.8023 37.6139 22.3359 36.7791C21.7221 35.6989 22.5568 33.7348 24.6682 31.5498C25.5431 32.372 26.4787 33.127 27.467 33.8085C27.5799 34.9969 27.7685 36.1769 28.0317 37.3414C27.0482 37.6178 26.0334 37.7671 25.0119 37.7857ZM32.5246 42.6467C31.2971 42.6467 29.9959 40.9282 29.1611 38.0066C30.309 37.6552 31.4326 37.2287 32.5246 36.73C33.6166 37.2287 34.7402 37.6552 35.8881 38.0066C35.0533 40.9282 33.7522 42.6467 32.5246 42.6467ZM42.7131 36.779C42.2221 37.6137 40.9946 37.7856 40.0371 37.7856C39.0177 37.7649 38.0042 37.6249 37.0173 37.3682C37.2806 36.203 37.4692 35.0222 37.582 33.8329C38.5558 33.1424 39.4826 32.3878 40.3563 31.5742C40.7 31.9179 41.0191 32.2862 41.3137 32.6299C42.7131 34.373 43.2287 35.8952 42.7131 36.779ZM32.5246 27.3025C30.5482 27.316 28.9557 28.9268 28.9648 30.9032C28.9738 32.8796 30.5809 34.4757 32.5573 34.4713C34.5337 34.4668 36.1335 32.8633 36.1336 30.8869C36.1201 28.9033 34.5082 27.3024 32.5246 27.3025ZM32.5245 33.563C31.0602 33.563 29.873 32.3759 29.873 30.9115C29.873 29.4471 31.0602 28.26 32.5245 28.26C33.9889 28.26 35.176 29.4471 35.176 30.9115C35.1653 32.3714 33.9845 33.5523 32.5245 33.563Z" fill="url(#paint0_linear)"/>
<defs>
<linearGradient id="paint0_linear" x2="1" gradientUnits="userSpaceOnUse" gradientTransform="translate(32.5) scale(65) rotate(90)">
<stop stop-color="#ACACAC"/>
<stop offset="1" stop-color="#555555"/>
</linearGradient>
</defs>
</svg>
