<svg width="65" height="65" viewBox="0 0 65 65" fill="none" xmlns="http://www.w3.org/2000/svg">
<path fill-rule="evenodd" clip-rule="evenodd" d="M0 32.5C0 14.5508 14.5505 0 32.5 0C50.4492 0 65 14.5508 65 32.5C65 50.4492 50.4492 65 32.5 65C14.5505 65 0 50.4492 0 32.5ZM37.1771 14.2261L47.2964 20.5469C49.5205 21.823 49.9552 24.6802 47.777 26.0327L39.5345 31.0156C38.8859 31.4177 38.403 32.0376 38.0276 32.7007L33.5309 40.3206C33.3401 40.6577 32.9823 40.8657 32.595 40.8645C32.2076 40.8635 31.851 40.6538 31.662 40.3157L27.8381 33.8057C27.7551 33.657 27.6655 33.4863 27.5697 33.3035C27.1544 32.5112 26.6222 31.4961 25.9963 31.1047L17.1083 25.738C15.2046 24.5476 15.2452 22.1541 17.1573 20.9768L27.7281 14.3726C30.613 12.5964 34.2384 12.5403 37.1771 14.2261ZM37.4626 28.875L44.3711 24.5857C45.9705 23.5928 45.9214 21.6064 44.2886 20.6699L36.0035 15.5576C33.8462 14.3201 31.1846 14.3611 29.0665 15.665L20.698 20.8179C19.2939 21.6821 19.2867 23.7205 20.6842 24.595L27.7742 29.0312C28.3395 29.385 28.8064 29.8755 29.1318 30.4575L31.9095 35.6138C32.0479 35.8623 32.3098 36.0168 32.5945 36.0176C32.879 36.0183 33.1418 35.8652 33.2815 35.6174L36.3184 30.0681C36.5939 29.5808 36.9874 29.1707 37.4626 28.875ZM15.5 41.95V28.6494C15.5005 28.0396 15.9951 27.5454 16.605 27.5454C17.2147 27.5457 17.7091 28.0396 17.7097 28.6494V40.4788C17.7097 40.7183 17.8372 40.9397 18.0442 41.0603L31.8296 49.1521C32.2836 49.4167 32.845 49.4167 33.299 49.1521L46.84 41.1829C47.0466 41.0623 47.1736 40.8408 47.1735 40.6016V28.7424C47.1735 28.0813 47.7094 27.5454 48.3705 27.5454C49.0312 27.5454 49.567 28.0808 49.5676 28.7415V41.9487C49.5676 42.1892 49.4392 42.4116 49.2308 42.593L33.1744 51.8586C32.7213 52.0581 32.1627 52.0552 31.7111 51.7932L15.8341 42.5315C15.6272 42.4111 15.4999 42.1895 15.5 41.95Z" fill="url(#paint0_linear)"/>
<defs>
<linearGradient id="paint0_linear" x2="1" gradientUnits="userSpaceOnUse" gradientTransform="translate(32.5) scale(65) rotate(90)">
<stop stop-color="#61B3FA"/>
<stop offset="1" stop-color="#0562CD"/>
</linearGradient>
</defs>
</svg>
