<svg width="65" height="65" viewBox="0 0 65 65" fill="none" xmlns="http://www.w3.org/2000/svg">
<path fill-rule="evenodd" clip-rule="evenodd" d="M32.5 0C14.5506 0 0 14.5508 0 32.5C0 50.4492 14.5506 65 32.5 65C50.4492 65 65 50.4492 65 32.5C65 14.5508 50.4492 0 32.5 0ZM21 13H33.8837C35.6426 13.0136 36.9529 13.1111 37.8148 13.2925C40.7101 13.8257 43.2489 15.5489 44.8134 18.0427C46.6035 20.8839 46.8375 24.5908 45.4764 27.6465C44.244 30.4583 41.6661 32.6599 38.6514 33.4575C36.7384 33.9995 34.7319 33.7987 32.7663 33.8338C36.1288 39.3023 39.486 44.774 42.8381 50.2489L40.0515 52C34.2113 42.484 29.8335 35.347 26.9183 30.589C30.0246 30.5734 33.131 30.6124 36.2354 30.5695C39.8175 30.4739 42.9511 27.3676 43.0252 23.8537C43.2593 20.8176 41.2508 17.7892 38.316 16.7908C37.5048 16.4808 36.2295 16.3365 34.4882 16.3618L21 16.3559V13Z" fill="url(#paint0_linear)"/>
<defs>
<linearGradient id="paint0_linear" x2="1" gradientUnits="userSpaceOnUse" gradientTransform="translate(32.5) scale(65) rotate(90)">
<stop stop-color="#6CFCCD"/>
<stop offset="1" stop-color="#2ED6A1"/>
</linearGradient>
</defs>
</svg>
