<svg width="65" height="65" viewBox="0 0 65 65" fill="none" xmlns="http://www.w3.org/2000/svg">
<path fill-rule="evenodd" clip-rule="evenodd" d="M32.5 0C14.5505 0 0 14.5508 0 32.5C0 50.4492 14.5505 65 32.5 65C50.4492 65 65 50.4492 65 32.5C65 14.5508 50.4492 0 32.5 0ZM20.3635 32.9934C21.6124 32.4167 22.4543 31.468 22.8783 30.1675C23.3661 28.6707 23.4253 27.1394 23.0109 25.6243C22.5173 23.8201 21.3704 22.6113 19.5079 22.2051C18.8674 22.0654 18.1952 22.0369 17.5361 22.0237C16.4619 22.0027 15.3873 22.0022 14.3126 22.002C13.8751 22.0017 13.4375 22.0015 13 22V41.575H16V33.5254C16.0985 33.5254 16.1881 33.5278 16.2722 33.5303C16.4442 33.5352 16.5933 33.5393 16.7489 33.52C17.1265 33.4736 17.3104 33.6108 17.4628 33.9756C18.4197 36.2668 19.4017 38.5476 20.3838 40.8284L20.5612 41.2402C20.6133 41.3611 20.7305 41.5422 20.8212 41.5444C21.54 41.562 22.2588 41.5605 23.0011 41.5591H23.0065H23.012H23.0175L23.6621 41.5581L20.0652 33.1362L20.1776 33.082C20.2461 33.0488 20.3046 33.0208 20.3635 32.9934ZM16.6871 30.5679C17.1614 30.574 17.6053 30.5796 18.0621 30.5552C19.0515 30.502 19.7003 29.9849 19.9713 29.0378C20.2377 28.1067 20.2361 27.1599 19.9756 26.2271C19.7999 25.5984 19.4406 25.0796 18.7991 24.8604C18.0905 24.6179 17.3707 24.6267 16.6226 24.6357H16.6195C16.4153 24.6384 16.2089 24.6409 16 24.6384V30.562C16.2385 30.562 16.4661 30.5649 16.6871 30.5679ZM37.6627 39.396V38.7407L37.5026 38.7815L37.4921 38.7842C37.4103 38.8047 37.3442 38.8213 37.2795 38.8418L35.9865 39.2571C34.8766 39.614 33.7667 39.9709 32.6548 40.3213C32.4988 40.3704 32.3064 40.3894 32.1528 40.3455C31.8098 40.2476 31.4702 40.1382 31.1306 40.0288L31.1034 40.02C30.835 39.9336 30.5665 39.8472 30.2963 39.7668C30.0338 39.6887 29.9268 39.5654 29.9313 39.2703C29.9474 38.2065 29.9507 37.1426 29.9541 36.0786L29.9542 36.0483C29.9556 35.5852 29.957 35.1221 29.9595 34.6589C29.9598 34.5894 29.9683 34.5198 29.978 34.439L29.9795 34.4263C29.984 34.3884 29.9888 34.3479 29.9932 34.3037C30.1559 34.3555 30.3158 34.4075 30.4739 34.4587L30.5479 34.4827C31.0138 34.6343 31.4644 34.7808 31.9204 34.9072C32.1243 34.9639 32.3733 34.9731 32.5729 34.9111C33.4871 34.6277 34.3986 34.3357 35.3102 34.0437L35.3215 34.04C36.0087 33.8198 36.6958 33.5999 37.384 33.3833C37.6067 33.3132 37.6708 33.196 37.6675 32.9773C37.6608 32.5276 37.6606 32.0779 37.6605 31.6279C37.6605 31.3528 37.6604 31.0776 37.6588 30.8025C37.6584 30.7397 37.6481 30.677 37.6365 30.6072C37.6307 30.5728 37.6248 30.5369 37.6195 30.4983L37.4916 30.5332C37.4119 30.5547 37.3412 30.5737 37.2715 30.5959L36.1018 30.9678C34.9379 31.3381 33.7739 31.7085 32.6075 32.0706C32.455 32.1179 32.264 32.1135 32.1094 32.0691C31.8231 31.9866 31.5396 31.8953 31.256 31.8037L31.2526 31.8027C30.9434 31.7031 30.6342 31.6035 30.3217 31.5154C30.0387 31.4358 29.9238 31.3174 29.9297 31.0015C29.9486 29.9915 29.9521 28.9814 29.9557 27.9712C29.9572 27.5569 29.9586 27.1423 29.9612 26.7278C29.9617 26.6565 29.9673 26.585 29.974 26.501L29.9741 26.4988L29.985 26.353C30.1538 26.407 30.3202 26.4617 30.485 26.5156L30.5338 26.5317C30.981 26.679 31.4172 26.8225 31.8601 26.9412C32.0974 27.0046 32.3839 27.0178 32.6157 26.9475C33.6254 26.6411 34.6299 26.3181 35.6345 25.9949C36.0063 25.8752 36.3782 25.7556 36.7504 25.6367C37.2078 25.4907 37.4364 25.4177 37.5505 25.2612C37.6648 25.1047 37.6646 24.8645 37.6639 24.3838C37.6633 23.9675 37.6635 23.5513 37.6636 23.1238V23.1179L37.6637 22.5645L37.5228 22.5969L37.5105 22.5996C37.4236 22.6189 37.3535 22.6345 37.2854 22.6565L36.2731 22.9802C35.2117 23.3188 34.1503 23.6577 33.094 24.0117C32.6294 24.1675 32.2025 24.2163 31.7225 24.0403C31.0873 23.8076 30.4392 23.605 29.7917 23.4026L29.7809 23.3992L29.7067 23.376C29.4779 23.3044 29.2491 23.2329 29.0212 23.1597L28.5974 23.0232L28.5576 23.0105C28.0437 22.845 27.5269 22.6785 26.95 22.5024V22.9568C26.95 23.5012 26.9507 24.0457 26.9515 24.5903L26.9518 24.7944L26.952 24.998C26.9529 25.5425 26.9536 26.0872 26.9536 26.6318L26.9545 30.113C26.9557 33.7773 26.9569 37.4417 26.9456 41.106C26.9443 41.4771 27.0625 41.6289 27.4055 41.7166C27.7964 41.8162 28.1804 41.9446 28.5641 42.0728L28.5686 42.0742L28.8698 42.1743C29.6841 42.4419 30.4979 42.7114 31.3116 42.981L32.275 43.3H32.35C32.3931 43.2812 32.4358 43.2615 32.4785 43.2415C32.5698 43.199 32.6611 43.1565 32.7562 43.1257L33.1689 42.9927C34.5377 42.5513 35.9066 42.1099 37.2793 41.6807C37.5577 41.5938 37.6866 41.4727 37.6719 41.1582C37.6523 40.7432 37.656 40.3271 37.6598 39.9114L37.66 39.877C37.6615 39.7166 37.6628 39.5562 37.6627 39.396ZM47.9253 31.4277C47.8107 31.6938 47.8224 31.9087 47.9333 32.1667C48.972 34.5828 50.0046 37.0015 51.0374 39.4202L51.7742 41.146C51.804 41.2158 51.8324 41.2861 51.8608 41.3564L51.9006 41.4546C51.8877 41.4658 51.8761 41.4783 51.8652 41.4897C51.8439 41.5125 51.8258 41.5317 51.8074 41.5317L51.3612 41.5359C50.6478 41.5427 49.9344 41.5496 49.2217 41.5291C49.1057 41.5256 48.9485 41.3398 48.8896 41.2041C48.318 39.885 47.7544 38.5623 47.1908 37.2395L46.5931 35.8379C46.5463 35.7283 46.495 35.6208 46.4337 35.4922C46.4009 35.4233 46.3651 35.3486 46.3257 35.2642C46.2931 35.3296 46.2639 35.386 46.2377 35.437C46.1886 35.5322 46.1494 35.6082 46.1158 35.6865L45.5817 36.9299C44.9862 38.3145 44.3907 39.699 43.813 41.0908C43.6643 41.4492 43.4808 41.571 43.0957 41.5542C42.5533 41.5303 42.0098 41.5352 41.4448 41.54C41.2061 41.542 40.9635 41.5442 40.7156 41.5442C40.7361 41.489 40.7542 41.4385 40.7711 41.3909C40.8048 41.2971 40.834 41.2158 40.8677 41.1367L41.7238 39.1335C42.7229 36.7966 43.722 34.4597 44.7092 32.1177C44.7893 31.928 44.7885 31.6455 44.7083 31.4553C43.7089 29.0852 42.6974 26.72 41.6859 24.355L40.8806 22.4714C40.8461 22.3906 40.8147 22.3086 40.7761 22.2083L40.7083 22.0325C40.9415 22.0325 41.1704 22.0315 41.3958 22.0308C42.0857 22.0281 42.7438 22.0256 43.4011 22.0483C43.5258 22.0527 43.6934 22.2493 43.7561 22.3938C44.3258 23.7043 44.8867 25.0188 45.4475 26.3333L46.0562 27.7585C46.103 27.8682 46.1553 27.9753 46.2194 28.1072L46.3304 28.3376L46.6488 27.5996C46.8621 27.1057 47.0638 26.6384 47.2635 26.1704L47.4755 25.6741C47.9485 24.5662 48.4214 23.4585 48.8862 22.3474C48.9795 22.1245 49.0925 22.019 49.3542 22.0249C49.9525 22.0381 50.551 22.0359 51.1763 22.0334C51.4226 22.0327 51.6732 22.0317 51.9296 22.0317L51.865 22.1995C51.8289 22.2939 51.7991 22.3721 51.7662 22.449L51.1047 23.9993C50.0479 26.4768 48.9911 28.9541 47.9253 31.4277Z" fill="url(#paint0_linear)"/>
<defs>
<linearGradient id="paint0_linear" x2="1" gradientUnits="userSpaceOnUse" gradientTransform="translate(32.5) scale(65) rotate(90)">
<stop stop-color="#575E9C"/>
<stop offset="1" stop-color="#313566"/>
</linearGradient>
</defs>
</svg>
