<svg width="65" height="65" viewBox="0 0 65 65" fill="none" xmlns="http://www.w3.org/2000/svg">
<path fill-rule="evenodd" clip-rule="evenodd" d="M32.5 0C14.5506 0 0 14.5508 0 32.5C0 50.4492 14.5506 65 32.5 65C50.4492 65 65 50.4492 65 32.5C65 14.5508 50.4492 0 32.5 0ZM46.8017 26.9797C46.9027 26.8787 47.103 26.8787 47.2998 26.8787C50.2904 26.8787 52.6818 29.4101 52.6818 32.4503C52.6818 35.2867 50.59 37.515 47.899 38.0203H47.2998C46.3035 38.0203 45.3073 37.7171 44.4103 37.2101C44.1192 37.0051 43.77 36.8989 43.414 36.907C43.0151 36.907 42.6163 37.008 42.3185 37.2101C41.62 37.6161 41.3222 38.3252 41.3222 39.1353V40.0465C41.1056 42.626 39.1075 44.699 36.5376 45.0101H35.9402C34.9439 45.0101 33.9476 44.707 33.0506 44.2C32.6518 43.9979 32.354 43.8968 31.9551 43.8968C31.5562 43.8968 31.1574 43.9979 30.8578 44.2C30.1611 44.6059 29.8615 45.315 29.8615 46.1252V47.0363C29.663 49.6706 27.5694 51.6968 24.9794 52H24.4813C21.4907 52 19.0993 49.4668 19.0993 46.4283C19.1985 43.5919 21.1911 41.2626 23.8821 40.9577H24.4813C25.4775 40.9577 26.4738 41.2626 27.3708 41.7696C27.6619 41.9746 28.0111 42.0808 28.3671 42.0727C28.766 42.0727 29.1648 41.9717 29.4626 41.7696C30.1611 41.3636 30.4589 40.6545 30.4589 39.8444C30.2604 36.907 32.354 34.2727 35.2435 33.9696H35.8409C36.8372 33.9696 37.8335 34.2727 38.7305 34.7797C39.1293 34.9818 39.4289 35.0828 39.8278 35.0828C40.2249 35.0828 40.6255 34.9818 40.9233 34.7797C41.62 34.3738 41.9196 33.6647 41.9196 32.8545C41.721 29.9171 43.9121 27.2828 46.8017 26.9797ZM35.3445 19.99C35.5431 19.8889 35.6441 19.8889 35.942 19.8889C38.9325 19.8889 41.324 22.4204 41.324 25.4606C41.2247 28.297 39.2321 30.6263 36.5394 30.9295H35.942C34.9457 30.9295 33.9494 30.6263 33.0524 30.1193C32.7613 29.9143 32.4121 29.8081 32.0561 29.8162C31.6573 29.8162 31.2584 29.9172 30.9606 30.1193C30.2621 30.5253 29.9625 31.2344 29.9625 32.0445V32.9557C29.764 35.5882 27.6722 37.6144 25.0805 37.9193H24.5823C21.5935 37.9193 19.2003 35.3879 19.2003 32.3476C19.2003 29.6141 21.1946 27.384 23.8839 26.9798H24.483C25.4793 26.9798 26.4756 27.283 27.3726 27.79C27.6637 27.995 28.0129 28.1012 28.3689 28.0931C28.7677 28.0931 29.1666 27.9921 29.4644 27.79C30.1629 27.384 30.4607 26.6749 30.4607 25.8648C30.2621 22.9274 32.455 20.2931 35.3445 19.99ZM24.382 13C27.3531 13 29.7622 15.4499 29.7622 18.4706C29.7622 21.4914 27.3513 23.9395 24.382 23.9395C21.4091 23.9395 19 21.4914 19 18.4706C19 15.4499 21.4109 13 24.382 13Z" fill="url(#paint0_linear)"/>
<defs>
<linearGradient id="paint0_linear" x2="1" gradientUnits="userSpaceOnUse" gradientTransform="translate(32.5) scale(65) rotate(90)">
<stop stop-color="#FDE785"/>
<stop offset="1" stop-color="#FFD800"/>
</linearGradient>
</defs>
</svg>
