<svg width="65" height="65" viewBox="0 0 65 65" fill="none" xmlns="http://www.w3.org/2000/svg">
<path fill-rule="evenodd" clip-rule="evenodd" d="M0 32.5C0 14.5508 14.5505 0 32.5 0C50.4492 0 65 14.5508 65 32.5C65 50.4492 50.4492 65 32.5 65C14.5505 65 0 50.4492 0 32.5ZM52 32.5C52 43.2695 43.2695 52 32.5 52C21.7305 52 13 43.2695 13 32.5C13 21.7305 21.7305 13 32.5 13C43.2695 13 52 21.7305 52 32.5ZM34.1308 51.1382L33.8561 47.9988C34.7198 47.9231 35.5678 47.7778 36.3947 47.5654L37.1793 50.6177C36.1853 50.873 35.1667 51.0476 34.1308 51.1382ZM38.8229 46.7205L40.103 49.6003C41.0486 49.1799 41.9562 48.6819 42.8173 48.1121L41.0778 45.4841C40.3622 45.9578 39.6083 46.3713 38.8229 46.7205ZM45.248 46.1963L43.0996 43.8906C43.7285 43.3044 44.3083 42.6675 44.8327 41.9861L47.33 43.9087C46.7 44.7268 46.0035 45.4922 45.248 46.1963ZM46.229 39.8257L49.0077 41.3127C49.4951 40.4019 49.9065 39.4519 50.2371 38.4722L47.2509 37.4646C46.9763 38.2788 46.6342 39.0684 46.229 39.8257ZM50.9795 35.4636L47.8675 34.9663C48.0024 34.1223 48.0675 33.2649 48.061 32.4006L51.2125 32.3774C51.2202 33.4163 51.1418 34.4478 50.9795 35.4636ZM47.8326 29.8386L50.9385 29.304C50.7622 28.2803 50.5026 27.2788 50.1629 26.3076L47.188 27.3479C47.4702 28.1548 47.686 28.9871 47.8326 29.8386ZM48.9012 23.4807L46.1403 25.0005C45.726 24.2478 45.2498 23.531 44.7171 22.8574L47.1891 20.9026C47.8298 21.7129 48.4027 22.575 48.9012 23.4807ZM42.9589 20.9758L45.0765 18.6418C44.3117 17.948 43.4908 17.3179 42.6226 16.7588L40.9161 19.4082C41.6387 19.8738 42.3221 20.3982 42.9589 20.9758ZM39.8931 15.3042L38.6459 18.1982C37.8578 17.8586 37.0427 17.585 36.2078 17.3801L36.9583 14.3193C37.9634 14.5657 38.9448 14.8955 39.8931 15.3042ZM33.6658 16.978L33.8976 13.835C32.8953 13.761 31.8834 13.7678 30.869 13.8564L30.8116 13.8616L31.0958 17.0002L31.1437 16.9961C31.9894 16.9221 32.8319 16.9165 33.6658 16.978ZM27.7637 14.3916L28.558 17.4414C27.7241 17.6587 26.9135 17.9441 26.1324 18.2942L24.8433 15.4182C25.7838 14.9966 26.7599 14.6531 27.7637 14.3916ZM23.8821 19.5371L22.1345 16.9146C21.2748 17.4875 20.4642 18.1306 19.7106 18.8369L21.866 21.1362C22.4929 20.5486 23.1672 20.0134 23.8821 19.5371ZM17.6356 21.1309L20.1385 23.0457C19.6161 23.7285 19.1507 24.4534 18.7476 25.2124L15.9643 23.7344C16.4487 22.822 17.0079 21.9512 17.6356 21.1309ZM17.7332 27.5769L14.7438 26.5789C14.4171 27.5576 14.1718 28.5635 14.0114 29.5872L17.1249 30.075C17.2581 29.2249 17.4618 28.3896 17.7332 27.5769ZM13.7877 32.675L16.9391 32.6421C16.9433 33.0449 16.9631 33.4487 16.9985 33.8535C17.0383 34.3086 17.0974 34.7593 17.1756 35.2048L14.0715 35.7493C13.9776 35.2144 13.9067 34.6736 13.8589 34.1282C13.8165 33.6431 13.7928 33.1584 13.7877 32.675ZM17.8277 37.6926L14.8561 38.7422C15.2013 39.7192 15.6267 40.6636 16.1274 41.5664L18.8834 40.0378C18.4676 39.2881 18.1143 38.5039 17.8277 37.6926ZM17.8469 44.1379L20.3128 42.1755C20.848 42.8479 21.4381 43.4753 22.0766 44.0513L19.9661 46.3916C19.199 45.7 18.49 44.946 17.8469 44.1379ZM24.123 45.6118L22.4245 48.2666C23.2946 48.8232 24.2095 49.3074 25.1597 49.7136L26.3981 46.8154C25.608 46.4778 24.847 46.0752 24.123 45.6118ZM28.0989 50.6892L28.8396 47.626C29.6715 47.8271 30.5209 47.9592 31.3808 48.02L31.1584 51.1638C30.1234 51.0906 29.1007 50.9316 28.0989 50.6892ZM45.697 32.5C45.697 39.7883 39.7885 45.697 32.5 45.697C25.2115 45.697 19.303 39.7883 19.303 32.5C19.303 25.2114 25.2115 19.303 32.5 19.303C39.7885 19.303 45.697 25.2114 45.697 32.5ZM22.7376 36.5576V26.124H27.3637C28.2937 26.124 29.0006 26.2178 29.4846 26.405C29.9686 26.5925 30.3552 26.9236 30.6447 27.3979C30.9341 27.8726 31.0788 28.3967 31.0788 28.9709C31.0788 29.7109 30.8392 30.335 30.36 30.8425C29.8808 31.3503 29.1406 31.6729 28.1395 31.8105C28.5048 31.9861 28.7823 32.1592 28.9722 32.3301C29.3755 32.7002 29.7574 33.1628 30.118 33.718L31.9329 36.5576H30.1963L28.8156 34.387C28.4123 33.7607 28.0801 33.2815 27.8192 32.9492C27.5582 32.6172 27.3246 32.3848 27.1182 32.2517C26.9117 32.1189 26.7018 32.0264 26.4883 31.9744C26.3317 31.9412 26.0755 31.9243 25.7197 31.9243H24.1183V36.5576H22.7376ZM27.0862 30.7285H24.1183V27.2769H27.4207C28.194 27.2769 28.7599 27.4358 29.1181 27.7537C29.4763 28.0715 29.6555 28.4773 29.6555 28.9707C29.6555 29.3076 29.5629 29.6196 29.3779 29.9065C29.1928 30.1936 28.9224 30.4023 28.5665 30.533C28.2106 30.6633 27.7172 30.7285 27.0862 30.7285ZM33.1465 41.2061V30.7725H34.5272V39.9749H39.6657V41.2061H33.1465ZM38.0202 27.3552V36.5576H39.4009V27.3552H42.8527V26.124H34.5826V27.3552H38.0202Z" fill="url(#paint0_linear)"/>
<defs>
<linearGradient id="paint0_linear" x2="1" gradientUnits="userSpaceOnUse" gradientTransform="translate(32.5) scale(64.5699) rotate(90)">
<stop stop-color="#FEE233"/>
<stop offset="1" stop-color="#F6A027"/>
</linearGradient>
</defs>
</svg>
