<svg width="65" height="65" viewBox="0 0 65 65" fill="none" xmlns="http://www.w3.org/2000/svg">
<path fill-rule="evenodd" clip-rule="evenodd" d="M32.5 0C14.5505 0 0 14.5508 0 32.5C0 50.4492 14.5505 65 32.5 65C50.4492 65 65 50.4492 65 32.5C65 14.5508 50.4492 0 32.5 0ZM48.0187 27.5027C48.0181 27.4758 48.0184 27.449 48.0188 27.4221C48.0201 27.3066 48.0216 27.1917 47.9508 27.0852C47.924 27.0447 47.9186 26.9824 47.921 26.9309C47.9377 26.5918 47.8528 26.2668 47.769 25.9463L47.7574 25.9019C47.735 25.8152 47.708 25.7295 47.681 25.6436L47.6786 25.6357L47.6779 25.6333C47.6393 25.5105 47.6006 25.3872 47.5739 25.2605C47.5558 25.1741 47.5284 25.0896 47.5012 25.0054L47.5002 25.0022C47.4705 24.9102 47.4407 24.8181 47.4226 24.7236L47.4208 24.7141C47.4054 24.6331 47.3943 24.575 47.3217 24.5664C47.3019 24.5122 47.2928 24.4602 47.2842 24.4102C47.2694 24.3245 47.2556 24.2446 47.1906 24.1692C47.1115 24.0771 47.0624 23.9656 47.0127 23.8525C46.9755 23.7678 46.938 23.6826 46.8873 23.6045C46.8608 23.5637 46.8459 23.5166 46.8306 23.4683C46.8103 23.4045 46.7893 23.3381 46.7404 23.2793C46.6793 23.2056 46.6294 23.0854 46.6001 22.9944C46.5706 22.9023 46.5195 22.8257 46.469 22.7498C46.4253 22.6841 46.3818 22.6189 46.353 22.5447C46.3256 22.4741 46.2869 22.408 46.2482 22.3418L46.2469 22.3398L46.2079 22.2727C46.2029 22.2637 46.1937 22.2573 46.1843 22.251C46.178 22.2466 46.1716 22.2422 46.1664 22.2368L46.1348 22.2058C46.1068 22.1792 46.0787 22.1523 46.0585 22.1206C46.0292 22.0747 46.0023 22.0273 45.9755 21.98L45.9727 21.9751C45.9326 21.9041 45.8925 21.833 45.8445 21.7676C45.7705 21.6667 45.6908 21.5701 45.6111 21.4736L45.6061 21.4675L45.5881 21.4458C45.5447 21.3931 45.5012 21.3403 45.4589 21.2866C45.4216 21.2397 45.386 21.1912 45.3505 21.1428L45.344 21.134C45.2858 21.0547 45.2277 20.9756 45.1632 20.9019C44.9962 20.7112 44.8268 20.521 44.6442 20.3455C44.3395 20.052 44.0261 19.7673 43.7108 19.4851C43.6207 19.4045 43.5209 19.3347 43.4211 19.2651L43.417 19.2622L43.3534 19.2178C43.2814 19.167 43.208 19.1182 43.1346 19.0693C43.0751 19.0298 43.0155 18.9902 42.9567 18.9495C42.8973 18.9084 42.8396 18.8643 42.7819 18.8198C42.6639 18.7292 42.546 18.6387 42.4144 18.5776C42.1886 18.4729 41.9707 18.3533 41.7528 18.2334C41.4518 18.0679 41.1506 17.9023 40.828 17.7764L40.7682 17.7529L40.7639 17.7512C40.4089 17.6123 40.0555 17.4741 39.6873 17.375C39.6351 17.3608 39.5833 17.345 39.5315 17.3291C39.4369 17.3 39.3424 17.271 39.2457 17.2532C39.1953 17.2439 39.1443 17.2371 39.0934 17.2305C38.9237 17.208 38.7549 17.1858 38.6122 17.0688C38.5979 17.0574 38.5729 17.0562 38.5525 17.0549C38.4578 17.0491 38.363 17.042 38.2683 17.0352L38.2662 17.0349C38.0536 17.0188 37.8408 17.0029 37.6282 17.0027C32.0023 17.0002 26.3763 17.0002 20.7505 17.0005H17.3749L17.3478 17.0002C17.3278 17 17.3079 16.9998 17.2881 17.0007C17.1858 17.0051 17.1523 17.0581 17.212 17.1443L17.2432 17.1895L17.2443 17.1909C17.3427 17.3335 17.4418 17.4773 17.5596 17.6028C17.8027 17.8613 18.0518 18.1145 18.3008 18.3677C18.407 18.4756 18.5132 18.5835 18.6189 18.6919L19.6744 19.7739L19.8196 19.9211L19.8412 19.9429C19.9099 20.0127 19.9785 20.082 20.0463 20.1526C20.1073 20.2161 20.1676 20.2805 20.2278 20.345L20.2388 20.3567C20.3236 20.4473 20.4086 20.5381 20.4961 20.6262C20.6396 20.771 20.7845 20.9148 20.9293 21.0583C21.1006 21.2283 21.2719 21.3982 21.4412 21.5701C21.5066 21.6365 21.5679 21.7068 21.6293 21.7773L21.634 21.7827C21.6953 21.853 21.7567 21.9233 21.8223 21.9895C21.9218 22.0898 22.024 22.1877 22.1261 22.2854L22.1328 22.2917C22.26 22.4133 22.3872 22.5349 22.5093 22.6614C22.7301 22.8901 22.9481 23.1213 23.166 23.3528C23.3687 23.5679 23.5713 23.783 23.7761 23.9958C23.8865 24.1106 24 24.2224 24.1135 24.334L24.1199 24.3401C24.2842 24.5022 24.4485 24.6641 24.603 24.835C24.7024 24.9448 24.7981 24.9705 24.9319 24.9705L27.8076 24.9697L28.7661 24.9695C31.2689 24.9695 33.7719 24.9692 36.2747 24.9641C36.7039 24.9631 37.1198 25.0034 37.5254 25.137C37.5787 25.1545 37.6294 25.1812 37.6801 25.2078C37.7406 25.2395 37.8011 25.2712 37.8657 25.2874C38.1862 25.3674 38.4526 25.5532 38.7097 25.7375C38.8691 25.8521 39.0054 25.9985 39.1417 26.1453C39.2001 26.208 39.2584 26.2708 39.3186 26.3311L39.3511 26.3628L39.3527 26.3643C39.3892 26.3997 39.4257 26.4351 39.4523 26.4768L39.5037 26.5571C39.7008 26.865 39.8981 27.1729 39.9974 27.5317C40.0068 27.5657 40.0259 27.5972 40.045 27.6284L40.0466 27.6311C40.059 27.6516 40.0713 27.6721 40.0811 27.6936L40.0875 27.7078C40.1118 27.761 40.1365 27.8154 40.1479 27.8718C40.1582 27.9221 40.1643 27.9741 40.1704 28.0259C40.181 28.1165 40.1917 28.2068 40.2247 28.2883C40.2744 28.4106 40.3025 28.5266 40.2997 28.6562C40.2977 28.7417 40.2982 28.8274 40.2987 28.9128C40.2992 29.0134 40.2997 29.114 40.2964 29.2146C40.295 29.2571 40.282 29.2991 40.2688 29.3411L40.2672 29.3459C40.2617 29.364 40.2561 29.3823 40.2516 29.4004L40.236 29.4614L40.2343 29.4683C40.2219 29.5154 40.2097 29.5627 40.1997 29.6106C40.1901 29.6565 40.1826 29.7031 40.1752 29.7498L40.1748 29.7522C40.1598 29.8452 40.1448 29.9387 40.1118 30.0254C40.0396 30.2163 39.9449 30.3997 39.849 30.5803C39.816 30.6426 39.7855 30.7063 39.7551 30.7703C39.6481 30.9949 39.5409 31.2197 39.3224 31.3711C39.2958 31.3894 39.2739 31.4146 39.252 31.4399L39.2505 31.4417L39.249 31.4434C39.2365 31.458 39.2238 31.4727 39.21 31.4861C39.1396 31.5544 39.0743 31.6289 39.0093 31.7034L39.0033 31.7102C38.8311 31.9072 38.6588 32.1042 38.3964 32.1987C38.3755 32.2063 38.3573 32.2209 38.339 32.2358L38.3354 32.2388C38.3258 32.2463 38.3163 32.2539 38.3062 32.2605C38.2749 32.2805 38.2443 32.3015 38.2135 32.3228C38.1403 32.373 38.0669 32.4233 37.9869 32.4587C37.9132 32.4915 37.8358 32.5164 37.7585 32.541C37.6696 32.5696 37.5807 32.5981 37.4977 32.6387C37.2904 32.74 37.0724 32.7847 36.8491 32.7854C36.0911 32.7881 35.333 32.7883 34.575 32.7886H34.3855L34.0468 32.7888C33.595 32.7888 33.1433 32.7891 32.6917 32.7898C32.6556 32.7898 32.6195 32.8025 32.5835 32.8149C32.5664 32.821 32.5494 32.8269 32.5323 32.8315C32.5383 32.8503 32.5428 32.8706 32.5472 32.8906C32.557 32.9348 32.5667 32.9788 32.5928 33.0083C32.6913 33.1191 32.7941 33.2263 32.8969 33.3335L32.9054 33.3423C32.9705 33.4099 33.0355 33.4775 33.0995 33.5461C33.1731 33.625 33.2457 33.7051 33.3182 33.7849L33.3297 33.7976C33.4276 33.9055 33.5255 34.0134 33.626 34.1191C33.8789 34.3853 34.1354 34.6482 34.3929 34.9099C34.5795 35.0994 34.7676 35.2874 34.9557 35.4751L35.1672 35.6868C35.2584 35.7781 35.35 35.8691 35.4417 35.96L35.4708 35.989C35.6591 36.176 35.847 36.363 36.0319 36.5532C36.1783 36.7039 36.3218 36.8574 36.4652 37.011L36.4873 37.0347C36.6012 37.1565 36.7151 37.2783 36.8306 37.3984C37.0996 37.6785 37.3713 37.9561 37.6431 38.2334L37.7983 38.3918C37.9561 38.5527 38.1144 38.7131 38.2727 38.8733L38.4919 39.0952L38.7715 39.3799L38.7853 39.394C39.0573 39.6711 39.3295 39.9487 39.6083 40.219C39.6694 40.2783 39.7866 40.3037 39.8772 40.3025C39.9814 40.301 40.0879 40.2629 40.1887 40.2266L40.1949 40.2244C40.2434 40.2068 40.2919 40.1899 40.3406 40.1729L40.384 40.1575C40.6162 40.0757 40.8488 39.9937 41.0723 39.8926C41.3854 39.7507 41.6896 39.5889 41.9934 39.427L42.0906 39.3752C42.2097 39.3118 42.3251 39.241 42.4403 39.1702C42.5 39.1335 42.5597 39.0969 42.62 39.0613C42.642 39.0483 42.6649 39.0366 42.6877 39.0251L42.6899 39.0239C42.7279 39.0046 42.7657 38.9854 42.7996 38.9604C43.0153 38.8013 43.2291 38.6396 43.441 38.4753C43.4871 38.4397 43.5334 38.4045 43.58 38.3694C43.7285 38.2566 43.8774 38.1436 44.0129 38.0166C44.2003 37.8408 44.3763 37.6531 44.5521 37.4656L44.5546 37.4629L44.6753 37.3342C44.762 37.2424 44.8521 37.1538 44.9421 37.0652L44.9437 37.0635C45.1658 36.8452 45.3876 36.6267 45.5583 36.3591C45.6494 36.2166 45.7542 36.0828 45.859 35.9487L45.8601 35.9473C45.9431 35.8413 46.0261 35.7354 46.1024 35.625C46.2478 35.415 46.3771 35.1931 46.5042 34.9712C46.627 34.7566 46.7465 34.5393 46.8516 34.3157C46.8948 34.2239 46.9305 34.1277 46.9662 34.0317C47.0232 33.8782 47.0801 33.7251 47.1671 33.5908C47.2695 33.4329 47.3247 33.2595 47.38 33.0862C47.4243 32.947 47.4686 32.8081 47.5371 32.6775C47.6124 32.5339 47.6461 32.3677 47.6796 32.2021L47.6805 32.197C47.6932 32.135 47.7057 32.0732 47.7206 32.0127C47.7363 31.9478 47.7483 31.8821 47.7603 31.8162L47.7615 31.8096C47.7725 31.75 47.7833 31.6904 47.7972 31.6313C47.8044 31.6011 47.8169 31.5718 47.8293 31.5425L47.8301 31.5408C47.8462 31.5029 47.8623 31.4653 47.8671 31.4263C47.88 31.3196 47.8885 31.2124 47.8971 31.1052C47.9044 31.0127 47.9119 30.9202 47.922 30.8279C47.9264 30.7891 47.9431 30.7517 47.96 30.7144C47.9667 30.6992 47.9735 30.6838 47.9795 30.6687C47.9838 30.658 47.9895 30.6472 47.9951 30.6367C48.0052 30.6179 48.0153 30.5994 48.0167 30.5801C48.0211 30.521 48.0262 30.4622 48.0314 30.4031L48.0336 30.377C48.0499 30.1904 48.0662 30.0039 48.0643 29.8174C48.0586 29.2664 48.046 28.7156 48.0333 28.1646L48.0187 27.5027ZM42.8521 48.0803C42.9347 48.1592 43.0175 48.2383 43.0972 48.3201C43.2521 48.479 43.4015 48.6438 43.5461 48.812C43.5743 48.845 43.5856 48.9111 43.5732 48.9529C43.566 48.9771 43.4968 48.9956 43.4554 48.9956C41.8361 48.9973 40.2167 48.9973 38.5972 48.9973H38.0574H37.0288C35.5889 48.9971 34.1489 48.9968 32.709 49C32.573 49.0002 32.4713 48.9543 32.382 48.8628L31.929 48.3979C31.4655 47.9224 31.002 47.4468 30.54 46.97C30.3812 46.8059 30.2241 46.6401 30.067 46.4744C29.9088 46.3074 29.7505 46.1404 29.5905 45.9751C29.4717 45.8525 29.3506 45.7322 29.2296 45.6121C29.111 45.4941 28.9924 45.3762 28.876 45.2563C28.572 44.9431 28.2692 44.6289 27.9663 44.3145C27.7391 44.0786 27.512 43.8428 27.2842 43.6074C27.1586 43.4775 27.032 43.3489 26.9054 43.22C26.7748 43.0869 26.6442 42.9539 26.5145 42.8198C26.3425 42.6421 26.1711 42.4634 25.9999 42.2849C25.8114 42.0886 25.6228 41.8921 25.4333 41.6965C25.3193 41.5791 25.2037 41.4631 25.088 41.3472C24.9941 41.2532 24.9003 41.1592 24.8074 41.0642C24.5865 40.8389 24.3666 40.613 24.1466 40.387L23.8567 40.0894L23.5568 39.7815C23.3322 39.551 23.1075 39.3206 22.8826 39.0906L22.3456 38.5427C22.1176 38.3101 21.8895 38.0776 21.662 37.8445C21.4198 37.5964 21.1785 37.3474 20.9391 37.0964C20.8206 36.9722 20.7029 36.8472 20.5852 36.7219C20.4209 36.5474 20.2566 36.3726 20.09 36.2002C19.964 36.0696 19.8353 35.9419 19.7065 35.8142C19.6134 35.7219 19.5204 35.6296 19.4283 35.5361L19.2983 35.4043C18.8844 34.9846 18.4705 34.5649 18.0599 34.1418C17.8688 33.9448 17.6808 33.7449 17.4927 33.5449C17.3964 33.4424 17.2999 33.3398 17.2031 33.2378C17.1843 33.218 17.1636 33.1995 17.1427 33.1809C17.1017 33.1445 17.0608 33.1082 17.0366 33.0627C17.0034 33.0002 16.9901 32.9111 17.0081 32.8445C17.0166 32.8127 17.118 32.79 17.1774 32.79L21.6945 32.7881C23.7379 32.7876 25.7812 32.7871 27.8247 32.7849C27.9536 32.7847 28.0444 32.8318 28.1265 32.917C28.3185 33.1157 28.5103 33.3149 28.7008 33.5151C28.8126 33.6326 28.9238 33.7502 29.0352 33.8682C29.226 34.0703 29.4167 34.2722 29.6099 34.4719C29.7395 34.606 29.8718 34.7373 30.0042 34.8684C30.1031 34.9668 30.2021 35.0649 30.3 35.1643C30.5254 35.3933 30.7499 35.6233 30.9744 35.8535L31.3645 36.2529L31.7985 36.6953C32.0756 36.9773 32.3527 37.2593 32.6281 37.5432C32.824 37.7451 33.0182 37.9487 33.2124 38.1526C33.3688 38.3164 33.5251 38.4805 33.6824 38.6436C33.7688 38.7332 33.8572 38.8208 33.9456 38.9087C34.0149 38.9773 34.0844 39.0461 34.1527 39.116C34.4569 39.4258 34.7604 39.7366 35.0638 40.0471L35.278 40.2661L35.5533 40.5479C35.8013 40.8013 36.0493 41.0547 36.2954 41.3098C36.4581 41.4785 36.6199 41.6484 36.7815 41.8181C36.9607 42.0066 37.14 42.1948 37.3208 42.3816C37.3977 42.4609 37.478 42.5371 37.5585 42.6133C37.6271 42.6785 37.6957 42.7437 37.7623 42.8108C37.901 42.9507 38.0352 43.0952 38.1691 43.2397C38.2102 43.2842 38.25 43.3296 38.2899 43.375C38.3403 43.4326 38.3907 43.49 38.4436 43.5452C38.4604 43.5627 38.4825 43.5754 38.5046 43.5884C38.5291 43.6025 38.5535 43.6167 38.5704 43.6372C38.6101 43.6853 38.6445 43.7378 38.6791 43.7905C38.698 43.8193 38.717 43.8481 38.7369 43.8765C38.746 43.8894 38.7621 43.8979 38.777 43.906L38.7805 43.908C38.7892 43.9126 38.8 43.9163 38.8108 43.9197C38.8301 43.926 38.8488 43.9321 38.8529 43.9438C38.8904 44.0498 38.9723 44.1125 39.0543 44.1755C39.1049 44.2144 39.1554 44.2529 39.1957 44.302C39.2632 44.384 39.3402 44.4583 39.4172 44.5327C39.4656 44.5791 39.5138 44.6257 39.5598 44.6743C39.7209 44.8445 39.8813 45.0151 40.0416 45.1858C40.2511 45.4087 40.4604 45.6316 40.6714 45.853C40.8008 45.989 40.9338 46.1213 41.0669 46.2537L41.2291 46.4153L41.4934 46.6794C41.6823 46.8677 41.8711 47.0559 42.0568 47.2471C42.1495 47.3428 42.2391 47.4417 42.3286 47.5403C42.4159 47.6367 42.5033 47.7332 42.5936 47.8267C42.6775 47.9133 42.7648 47.9968 42.8521 48.0803Z" fill="url(#paint0_linear)"/>
<defs>
<linearGradient id="paint0_linear" x2="1" gradientUnits="userSpaceOnUse" gradientTransform="translate(32.5) scale(65) rotate(90)">
<stop stop-color="#FDE785"/>
<stop offset="1" stop-color="#DB0029"/>
</linearGradient>
</defs>
</svg>
