<svg width="65" height="65" viewBox="0 0 65 65" fill="none" xmlns="http://www.w3.org/2000/svg">
<path fill-rule="evenodd" clip-rule="evenodd" d="M32.5 0C14.5505 0 0 14.5508 0 32.5C0 50.4492 14.5505 65 32.5 65C50.4492 65 65 50.4492 65 32.5C65 14.5508 50.4492 0 32.5 0ZM17.0376 32.5625C17.0067 32.6311 16.973 32.698 16.9365 32.7632C16.6804 33.2249 16.2928 33.5999 15.8232 33.8406L17.5797 36.5969H15.084L13.856 34.2625H12.2212V36.5969H10.0172V32.5559L17.0376 32.5625ZM18.1887 32.3604C18.1636 30.7834 19.025 29.3254 20.4185 28.5867C21.8793 27.8328 23.6146 27.8328 25.0754 28.5867C26.4689 29.3254 27.3304 30.7832 27.3053 32.3604H25.0315C24.9996 32.0144 24.9033 31.6733 24.7428 31.355C24.5541 30.9868 24.2688 30.6765 23.9176 30.4578C23.5731 30.2427 23.1744 30.1304 22.7683 30.1335C22.3604 30.1323 21.9601 30.2446 21.6123 30.4578C21.254 30.6755 20.9608 30.9854 20.7632 31.355C20.5945 31.6714 20.4934 32.0134 20.46 32.3604H18.1887ZM32.1251 34.8762C31.6777 34.8901 31.2451 34.7153 30.9331 34.3943C30.6132 34.0486 30.4463 33.5886 30.47 33.1182V28.1594H28.2676V33.1182C28.2526 33.7888 28.4166 34.4514 28.7428 35.0376C29.057 35.5845 29.5261 36.0261 30.0909 36.3069C30.7216 36.6147 31.4167 36.7676 32.1184 36.7527C32.8146 36.7678 33.5042 36.6147 34.1287 36.3069C34.6866 36.0251 35.1478 35.5833 35.4529 35.0376C35.7714 34.449 35.931 33.7874 35.916 33.1182V28.1594H33.7136V33.1196C33.738 33.5874 33.5807 34.0466 33.2744 34.4011C32.9788 34.7192 32.5591 34.8926 32.1251 34.8762ZM39.4769 36.5969V32.3997L37.4186 32.4426V36.5969H39.4769ZM45.23 36.5969V32.3997H40.2555L43.3036 36.5969H45.23ZM46.8696 28.1594V32.5815L50.8658 32.6001L49.0718 32.5818V29.9539H50.4561C50.87 29.9465 51.2782 30.0527 51.6362 30.261C51.9817 30.4656 52.2633 30.7625 52.4492 31.1184C52.6519 31.5127 52.7533 31.9514 52.7444 32.3945V32.6086L54.9949 32.6191V32.3704C55.0092 31.6006 54.8135 30.8416 54.4288 30.1748C54.0532 29.5391 53.504 29.0237 52.8457 28.6895C52.1199 28.3252 51.3163 28.1433 50.5044 28.1594H46.8696Z" fill="url(#paint0_linear)"/>
<defs>
<linearGradient id="paint0_linear" x2="1" gradientUnits="userSpaceOnUse" gradientTransform="translate(32.5) scale(65) rotate(90)">
<stop stop-color="#ACACAC"/>
<stop offset="1" stop-color="#555555"/>
</linearGradient>
</defs>
</svg>
