<svg width="65" height="65" viewBox="0 0 65 65" fill="none" xmlns="http://www.w3.org/2000/svg">
<path fill-rule="evenodd" clip-rule="evenodd" d="M32.5 0C14.5505 0 0 14.5508 0 32.5C0 50.4492 14.5505 65 32.5 65C50.4492 65 65 50.4492 65 32.5C65 14.5508 50.4492 0 32.5 0ZM33.2217 17.4507V13L48.7749 21.9797L44.9205 24.2051L33.2217 17.4507ZM18.8545 39.2544V25.6743L15 23.449V41.4797L18.8545 39.2544ZM31.4427 17.4509L19.8058 24.1694L15.9514 21.9441L31.4427 13.0002V17.4509ZM33.2217 47.5493L44.9824 40.7593L48.8369 42.9846L33.2217 52.0002V47.5493ZM45.8101 39.1831L49.6644 41.4084V23.5203L45.8101 25.7456V39.1831ZM15.8895 43.0205L19.744 40.7949L31.4427 47.5491V52L15.8895 43.0205ZM33.1368 36.1184C33.8911 35.9514 34.5591 35.5547 35.0634 35.0054L38.604 38.1948C38.8424 39.509 39.9926 40.5056 41.3755 40.5056C42.931 40.5056 44.1921 39.2444 44.1921 37.6887C44.1921 36.1331 42.931 34.8721 41.3755 34.8721C40.9514 34.8721 40.5494 34.9658 40.1887 35.1335L35.8331 33.7192C35.9662 33.3374 36.0385 32.9272 36.0385 32.5C36.0385 32.1223 35.9819 31.7578 35.877 31.4146L40.3876 29.95C40.6949 30.0652 41.0278 30.1282 41.3755 30.1282C42.931 30.1282 44.1921 28.8669 44.1921 27.3113C44.1921 25.7556 42.931 24.4946 41.3755 24.4946C39.9331 24.4946 38.7439 25.5786 38.5784 26.9766L35.1367 30.0769C34.6248 29.4849 33.9283 29.0566 33.1368 28.8813L34.1483 24.1277C34.7603 23.6108 35.1489 22.8379 35.1489 21.9744C35.1489 20.4187 33.8878 19.1577 32.3323 19.1577C30.7766 19.1577 29.5155 20.4187 29.5155 21.9744C29.5155 22.8381 29.9042 23.6108 30.5162 24.1277L31.5277 28.8813C30.7697 29.0491 30.0989 29.449 29.5938 30.0027L26.2344 26.9766C26.0688 25.5786 24.8796 24.4946 23.4374 24.4946C21.8817 24.4946 20.6206 25.7556 20.6206 27.3113C20.6206 28.8669 21.8817 30.1282 23.4374 30.1282C23.7849 30.1282 24.1178 30.0652 24.4252 29.95L28.8011 31.3708C28.6874 31.7268 28.626 32.1062 28.626 32.5C28.626 32.9434 28.7037 33.3684 28.8466 33.7625L24.6241 35.1335C24.2634 34.9658 23.8613 34.8721 23.4374 34.8721C21.8817 34.8721 20.6206 36.1331 20.6206 37.6887C20.6206 39.2444 21.8817 40.5056 23.4374 40.5056C24.8202 40.5056 25.9703 39.509 26.2087 38.1948L29.6692 35.0776C30.1648 35.5896 30.8068 35.9587 31.5277 36.1184L30.5162 40.8726C29.9042 41.3892 29.5155 42.1619 29.5155 43.0256C29.5155 44.5813 30.7766 45.8425 32.3323 45.8425C33.8878 45.8425 35.1489 44.5813 35.1489 43.0256C35.1489 42.1621 34.7603 41.3892 34.1483 40.8726L33.1368 36.1184Z" fill="url(#paint0_linear)"/>
<defs>
<linearGradient id="paint0_linear" x2="1" gradientUnits="userSpaceOnUse" gradientTransform="translate(32.5 63.895) scale(63.895) rotate(-90)">
<stop stop-color="#20C7C9"/>
<stop offset="1" stop-color="#7AEDD6"/>
</linearGradient>
</defs>
</svg>
