<svg width="65" height="65" viewBox="0 0 65 65" fill="none" xmlns="http://www.w3.org/2000/svg">
<path fill-rule="evenodd" clip-rule="evenodd" d="M32.5 0C14.5506 0 0 14.5508 0 32.5C0 50.4492 14.5506 65 32.5 65C50.4492 65 65 50.4492 65 32.5C65 14.5508 50.4492 0 32.5 0ZM53.0015 32.5735C52.9139 43.9569 43.6887 53.0851 32.3576 52.9994C21.0171 52.9155 11.9094 43.6494 12.0007 32.2903C12.0939 21.0393 21.3451 11.9259 32.5943 12.0005C43.9254 12.0769 53.0835 21.3114 53.0015 32.5754V32.5735ZM13.4842 32.5084C13.5047 42.9822 21.9788 51.4377 32.4731 51.4619C42.9787 51.4805 51.5497 42.9673 51.5143 32.4823C51.4751 21.5611 42.4289 13.3237 32.0165 13.5026C21.949 13.6741 13.4637 22.2321 13.4842 32.5084ZM37.4976 23.6075L36.739 26.034C35.3264 25.801 34.0181 25.5234 32.693 25.3929C31.9065 25.3165 31.0902 25.5215 30.7865 26.4067C30.4734 27.3144 30.4361 28.2816 31.1872 28.9823C31.9587 29.6999 32.8645 30.2683 33.7106 30.9056C34.4877 31.4908 35.3431 32.0015 36.0215 32.6855C37.861 34.5417 38.1871 36.793 37.4323 39.2195C36.985 40.6582 35.919 41.5677 34.5548 42.1194C32.4675 42.9655 28.9135 42.548 26.9175 41.2062L27.7934 38.6641C29.0644 38.9996 30.2274 39.4021 31.4238 39.5922C32.5644 39.773 33.759 39.5978 34.3442 38.433C34.9331 37.2589 34.7468 36.0233 33.8243 35.0803C33.1123 34.3534 32.2196 33.7999 31.3866 33.1942C30.8312 32.7917 30.2106 32.4749 29.6701 32.0537C27.5125 30.4039 26.7752 27.4856 27.8903 25.009C28.3748 23.8433 29.3973 22.9871 30.6299 22.7148C32.9688 22.1594 35.2369 22.411 37.4976 23.6094V23.6075ZM22.4391 32.1616C22.4392 33.4593 21.3942 34.5151 20.0965 34.5284C18.7919 34.534 17.6774 33.3972 17.7073 32.0982C17.7583 30.8033 18.8229 29.7798 20.1188 29.7798C21.4234 29.7984 22.4484 30.8514 22.441 32.1616H22.4391ZM44.9765 29.8452C46.2774 29.8434 47.2465 30.8031 47.2633 32.1114C47.2779 32.7501 47.0333 33.3675 46.5853 33.8228C46.1373 34.2782 45.524 34.5328 44.8852 34.5286C43.5866 34.5072 42.5466 33.4456 42.5519 32.1469C42.5519 30.7826 43.5396 29.8452 44.9765 29.8452Z" fill="url(#paint0_linear)"/>
<defs>
<linearGradient id="paint0_linear" x2="1" gradientUnits="userSpaceOnUse" gradientTransform="translate(32.5) scale(65) rotate(90)">
<stop stop-color="#61B3FA"/>
<stop offset="1" stop-color="#2B77B3"/>
</linearGradient>
</defs>
</svg>
