<svg width="65" height="65" viewBox="0 0 65 65" fill="none" xmlns="http://www.w3.org/2000/svg">
<path fill-rule="evenodd" clip-rule="evenodd" d="M32.5 0C14.5506 0 0 14.5508 0 32.5C0 50.4492 14.5506 65 32.5 65C50.4492 65 65 50.4492 65 32.5C65 14.5508 50.4492 0 32.5 0ZM13.166 35.3418L15.9785 35.0684C16.1478 36.0124 16.4912 36.7057 17.0088 37.1484C17.5264 37.5911 18.2246 37.8125 19.1035 37.8125C20.0345 37.8125 20.736 37.6156 21.208 37.2217C21.68 36.8278 21.916 36.3672 21.916 35.8398C21.916 35.5013 21.8167 35.2132 21.6182 34.9756C21.4196 34.738 21.0729 34.5312 20.5781 34.3555C20.2396 34.2383 19.4681 34.0299 18.2637 33.7305C16.7142 33.3464 15.627 32.8744 15.002 32.3145C14.123 31.5267 13.6836 30.5664 13.6836 29.4336C13.6836 28.7044 13.8903 28.0225 14.3037 27.3877C14.7171 26.7529 15.3128 26.2695 16.0908 25.9375C16.8688 25.6055 17.8079 25.4395 18.9082 25.4395C20.7051 25.4395 22.0576 25.8333 22.9658 26.6211C23.874 27.4089 24.3509 28.4603 24.3965 29.7754L21.5059 29.9023C21.3822 29.1667 21.1169 28.6377 20.71 28.3154C20.3031 27.9932 19.6927 27.832 18.8789 27.832C18.0391 27.832 17.3815 28.0046 16.9062 28.3496C16.6003 28.571 16.4473 28.8672 16.4473 29.2383C16.4473 29.5768 16.5905 29.8665 16.877 30.1074C17.2415 30.4134 18.1269 30.7324 19.5332 31.0645C20.9395 31.3965 21.9795 31.7399 22.6533 32.0947C23.3272 32.4495 23.8545 32.9346 24.2354 33.5498C24.6162 34.165 24.8066 34.9251 24.8066 35.8301C24.8066 36.6504 24.5788 37.4186 24.123 38.1348C23.6673 38.8509 23.0228 39.3831 22.1895 39.7314C21.3561 40.0798 20.3177 40.2539 19.0742 40.2539C17.2643 40.2539 15.8744 39.8356 14.9043 38.999C13.9342 38.1624 13.3548 36.9434 13.166 35.3418ZM33.8984 34.7363V32.3242H40.1289V38.0273C39.5234 38.6133 38.6462 39.1292 37.4971 39.5752C36.348 40.0212 35.1842 40.2441 34.0059 40.2441C32.5085 40.2441 31.2031 39.93 30.0898 39.3018C28.9766 38.6735 28.14 37.7751 27.5801 36.6064C27.0202 35.4378 26.7402 34.1667 26.7402 32.793C26.7402 31.3021 27.0527 29.9772 27.6777 28.8184C28.3027 27.6595 29.2174 26.7708 30.4219 26.1523C31.3398 25.6771 32.4824 25.4395 33.8496 25.4395C35.627 25.4395 37.0153 25.8122 38.0146 26.5576C39.014 27.3031 39.6569 28.3333 39.9434 29.6484L37.0723 30.1855C36.8704 29.4824 36.4912 28.9274 35.9346 28.5205C35.3779 28.1136 34.6829 27.9102 33.8496 27.9102C32.5866 27.9102 31.5824 28.3105 30.8369 29.1113C30.0915 29.9121 29.7188 31.1003 29.7188 32.6758C29.7188 34.375 30.0963 35.6494 30.8516 36.499C31.6068 37.3486 32.5963 37.7734 33.8203 37.7734C34.4258 37.7734 35.0329 37.6546 35.6416 37.417C36.2503 37.1794 36.7728 36.8913 37.209 36.5527V34.7363H33.8984ZM46.0176 40V28.1055H41.7695V25.6836H53.1465V28.1055H48.9082V40H46.0176Z" fill="url(#paint0_linear)"/>
<defs>
<linearGradient id="paint0_linear" x2="1" gradientUnits="userSpaceOnUse" gradientTransform="translate(32.5) scale(65) rotate(90)">
<stop stop-color="#ACACAC"/>
<stop offset="1" stop-color="#555555"/>
</linearGradient>
</defs>
</svg>
