<svg width="65" height="65" viewBox="0 0 65 65" fill="none" xmlns="http://www.w3.org/2000/svg">
<path fill-rule="evenodd" clip-rule="evenodd" d="M0 32.5C0 14.5508 14.5505 0 32.5 0C50.4492 0 65 14.5508 65 32.5C65 50.4492 50.4492 65 32.5 65C14.5505 65 0 50.4492 0 32.5ZM20.6162 29.8542C20.6162 27.3467 22.3654 25.2478 24.7101 24.7114C24.4128 24.1851 24.2432 23.5774 24.2432 22.9299C24.2432 21.0532 25.7263 19.5122 27.6016 19.4402C28.1999 19.4172 28.8185 19.3713 29.4575 19.3027C31.3793 19.0967 32.1077 17.3291 31.6428 14L37.0003 17.3711C38.9109 18.5735 40.0701 20.6726 40.0701 22.9299C40.0701 23.5774 39.9005 24.1851 39.6032 24.7114C41.9479 25.2478 43.6971 27.3467 43.6971 29.8542C43.6971 31.4314 43.0051 32.8467 41.9081 33.8135C45.4626 33.9138 48.3134 36.8267 48.3134 40.4055C48.3134 44.0476 45.3608 47 41.7188 47H22.5945C18.9525 47 16 44.0476 16 40.4055C16 36.8267 18.8507 33.9138 22.4053 33.8135C21.3082 32.8467 20.6162 31.4314 20.6162 29.8542Z" fill="url(#paint0_linear)"/>
<defs>
<linearGradient id="paint0_linear" x2="1" gradientUnits="userSpaceOnUse" gradientTransform="translate(32.5) scale(65) rotate(90)">
<stop stop-color="#D7A938"/>
<stop offset="1" stop-color="#BA7B50"/>
</linearGradient>
</defs>
</svg>
