<svg width="65" height="65" viewBox="0 0 65 65" fill="none" xmlns="http://www.w3.org/2000/svg">
<path fill-rule="evenodd" clip-rule="evenodd" d="M0 32.5C0 14.5508 14.5505 0 32.5 0C50.4492 0 65 14.5508 65 32.5C65 50.4492 50.4492 65 32.5 65C14.5505 65 0 50.4492 0 32.5ZM16.7247 33.677C16.723 33.4319 16.6772 33.3135 16.4001 33.2542C15.349 33.0295 14.4592 32.5132 13.8498 31.6096C13.1348 30.5493 12.9097 29.3621 13.0312 28.0967C13.1089 27.2859 13.3376 26.5254 13.803 25.8596C14.4708 24.9045 15.4198 24.3738 16.5533 24.156C17.7493 23.9263 18.9316 23.9226 20.0988 24.333C21.679 24.8884 22.5866 26.0322 22.9927 27.614C23.0766 27.9409 23.1249 28.281 23.1492 28.6179C23.1757 28.9861 22.9402 29.2793 22.637 29.3206C22.2402 29.3748 21.998 29.1882 21.8892 28.7651C21.851 28.6167 21.8167 28.4666 21.7825 28.3162L21.7811 28.3101C21.6917 27.918 21.6022 27.5254 21.4448 27.1626C20.9814 26.0955 20.09 25.5457 18.9678 25.3586C18.0676 25.2085 17.1694 25.261 16.3088 25.5637C15.1659 25.9656 14.5361 26.8157 14.3713 28.0012C14.2454 28.907 14.3016 29.7974 14.7642 30.6189C15.1409 31.2878 15.7273 31.6914 16.4473 31.9185C16.6678 31.9883 16.7267 31.8923 16.7241 31.6799C16.7158 31.0151 16.7186 30.3501 16.7214 29.6853L16.722 29.5503C16.7235 29.166 16.8407 28.9951 17.1236 28.9443C17.5527 28.8677 17.8054 29.0588 17.813 29.5007C17.8214 29.9917 17.8197 30.4832 17.818 30.9746V30.9834L17.8179 30.9922C17.8171 31.2048 17.8163 31.4175 17.8164 31.6301L17.8171 32.2085L17.8172 32.228V32.248C17.8179 32.7224 17.8187 33.196 17.8151 33.6699C17.8121 34.074 17.6298 34.2783 17.2874 34.2844C16.9093 34.291 16.7276 34.1133 16.7247 33.677ZM38.5507 24.0476C35.3807 24.0447 32.2108 24.0449 29.041 24.0474C28.5187 24.0476 28.2914 24.2756 28.2894 24.7944C28.2859 25.6992 28.2861 26.604 28.2863 27.509L28.2864 28.2444L28.2858 29.0159C28.2849 29.7986 28.284 30.5815 28.2905 31.3643C28.2938 31.7622 28.5112 31.9878 28.9038 32.041C28.9925 32.053 29.0831 32.0535 29.1729 32.0535H29.4981C31.4497 32.0542 33.4012 32.0549 35.3528 32.0518C35.491 32.0518 35.6351 32.0386 35.7661 31.9978C36.1337 31.8835 36.2941 31.5164 36.147 31.1643C36.0054 30.8252 35.7191 30.7405 35.3913 30.7397C34.5063 30.738 33.6201 30.7371 32.734 30.7363C31.8478 30.7354 30.9617 30.7344 30.0767 30.7327C29.9658 30.7324 29.8478 30.7253 29.7249 30.7178L29.7213 30.7175L29.5674 30.7085V30.3604C29.5674 29.5381 29.5689 28.7158 29.5704 27.8936C29.5718 27.166 29.5731 26.4382 29.5734 25.7104C29.5735 25.3047 29.5765 25.3035 29.9905 25.3035L32.7308 25.3032C34.5578 25.3032 36.3849 25.3032 38.2115 25.302H38.2498H38.2547C38.4402 25.3018 38.6279 25.3015 38.8099 25.2734C39.1649 25.219 39.3619 24.939 39.3187 24.5854C39.2748 24.228 39.0312 24.0479 38.5507 24.0476ZM19.6594 32.041C19.6537 32.2466 19.7249 32.3406 19.928 32.3975C21.6085 32.8684 22.6508 33.9573 23.0062 35.6687C23.209 36.6448 23.2308 37.6255 22.9634 38.6023C22.6277 39.8286 21.8436 40.6594 20.6936 41.1323C19.4424 41.647 18.1373 41.6965 16.8096 41.4729C15.811 41.3044 14.9479 40.8887 14.2505 40.1543C13.4515 39.313 13.1161 38.2695 13.0076 37.1428C12.971 36.7625 13.2623 36.4355 13.6064 36.4055C13.926 36.3777 14.2591 36.6519 14.2932 37.0229C14.3536 37.6804 14.5195 38.2988 14.8792 38.8562C15.4268 39.7051 16.2424 40.1172 17.2139 40.2551C18.0027 40.3669 18.7933 40.3372 19.5663 40.1521C20.6137 39.9014 21.4086 39.3274 21.6824 38.2319C21.983 37.0298 21.9223 35.8574 21.2417 34.7722C20.9376 34.2876 20.2632 33.8147 19.7029 33.7141C19.699 33.7542 19.6942 33.7937 19.6893 33.8333C19.6788 33.9187 19.6684 34.0032 19.668 34.0876C19.6668 34.3396 19.6678 34.5913 19.6689 34.8433C19.6707 35.2612 19.6725 35.6794 19.664 36.0972C19.6542 36.5754 19.213 36.8274 18.83 36.5625C18.697 36.4705 18.5773 36.2549 18.5753 36.0942C18.5594 34.8267 18.5647 33.5591 18.5699 32.2913L18.5717 31.8647C18.5728 31.5913 18.6776 31.3726 18.9736 31.3127C19.2233 31.2622 19.4731 31.2834 19.5897 31.5452C19.6555 31.6924 19.6639 31.8752 19.6594 32.041ZM25.913 32.7761L25.913 32.1716C25.9133 29.8542 25.9135 27.5374 25.9125 25.22C25.9124 25.0203 25.9105 24.8198 25.8957 24.6208C25.8727 24.3115 25.6705 24.1062 25.3666 24.0669C25.0375 24.0244 24.7805 24.1682 24.6891 24.4741C24.6442 24.6243 24.6284 24.7883 24.6283 24.946C24.6252 30.1833 24.6251 35.4207 24.6279 40.658C24.628 40.8054 24.6437 40.9602 24.6896 41.0991C24.8315 41.5298 25.3354 41.6558 25.6849 41.3718C25.9167 41.1833 25.9139 40.9338 25.9111 40.687L25.9105 40.6021C25.9132 38.6396 25.9131 36.677 25.913 34.7146V32.7761ZM46.4598 27.5105L46.4598 27.585C46.4608 29.0718 46.4608 30.5586 46.4608 32.0454L46.4608 33.916L46.461 35.2144C46.4614 37.012 46.4617 38.8096 46.4598 40.6072C46.4596 40.9089 46.4514 41.2124 46.1562 41.4067C45.7546 41.6711 45.2543 41.4629 45.1725 40.9907C45.1505 40.8635 45.1401 40.7329 45.14 40.604C45.1383 36.1831 45.1383 31.7625 45.1393 27.3416C45.1393 27.2119 45.1439 27.0811 45.1614 26.9529C45.2101 26.5957 45.4647 26.3745 45.8106 26.3789C46.1193 26.3831 46.4001 26.6294 46.4387 26.9558C46.4604 27.1392 46.4601 27.3252 46.4598 27.5105ZM51.9427 24.437C51.7937 24.1038 51.5001 24.0447 51.171 24.0454C49.954 24.0476 48.7371 24.0474 47.5201 24.0471H47.2158L45.8315 24.0469H45.2416C43.6684 24.0466 42.0952 24.0464 40.522 24.0476C40.4899 24.0476 40.4563 24.0459 40.4223 24.0442C40.3187 24.0388 40.212 24.0332 40.139 24.0784C39.9635 24.187 39.7766 24.3271 39.6812 24.5017C39.574 24.6975 39.6309 24.9204 39.8104 25.1021C40.0416 25.3354 40.3279 25.3354 40.6168 25.3354H40.6186C44.1183 25.3367 47.618 25.3359 51.1176 25.335L51.1675 25.3352C51.2511 25.3359 51.3354 25.3364 51.4163 25.321C51.8757 25.2336 52.1182 24.8293 51.9427 24.437ZM28.7338 33.4209C29.0021 33.3337 29.3186 33.4258 29.4647 33.6809C29.5431 33.8181 29.5713 34.0127 29.5726 34.1748C29.5793 35.0039 29.5786 35.8164 29.5778 36.6553L29.5773 37.4836H29.5751L29.575 38.3606C29.575 39.1807 29.5748 40.0293 29.5754 40.8579C29.5756 41.1738 29.4312 41.3777 29.1348 41.4866C28.8361 41.5962 28.5981 41.4697 28.4229 41.2476C28.3383 41.1406 28.2922 40.9739 28.2917 40.8342C28.2847 38.5864 28.2858 36.3389 28.2908 34.0911C28.2917 33.7234 28.4429 33.5154 28.7338 33.4209Z" fill="url(#paint0_linear)"/>
<defs>
<linearGradient id="paint0_linear" x2="1" gradientUnits="userSpaceOnUse" gradientTransform="translate(32.5) scale(65) rotate(90)">
<stop stop-color="#61B3FA"/>
<stop offset="1" stop-color="#4887F4"/>
</linearGradient>
</defs>
</svg>
