<svg width="65" height="65" viewBox="0 0 65 65" fill="none" xmlns="http://www.w3.org/2000/svg">
<path fill-rule="evenodd" clip-rule="evenodd" d="M32.5 0C14.5505 0 0 14.5508 0 32.5C0 50.4492 14.5505 65 32.5 65C50.4492 65 65 50.4492 65 32.5C65 14.5508 50.4492 0 32.5 0ZM32.4999 15.0049C32.3276 14.9839 32.1472 15.0308 32.0024 15.1497L18.8866 25.9233L13 43.0293L27.0593 32.8821L32.6346 49.3547L37.8505 32.8169L52 43.0293L46.1134 25.9233L32.9976 15.1497C32.8528 15.0308 32.6724 14.9839 32.4999 15.0049ZM32.5952 45.5718L28.2421 32.7102H36.6515L32.5952 45.5718ZM32.5952 18.7908L36.6144 31.5347H28.3442L28.8308 29.9128L32.5952 18.7908ZM27.1719 31.3511L15.3177 39.9067L19.8898 26.6206L31.7897 17.1353L27.1719 31.3511ZM37.8281 31.3511L49.6823 39.9067L45.1102 26.6206L33.3278 17.1353L37.8281 31.3511Z" fill="url(#paint0_linear)"/>
<defs>
<linearGradient id="paint0_linear" x2="1" gradientUnits="userSpaceOnUse" gradientTransform="translate(32.5) scale(65) rotate(90)">
<stop stop-color="#ACACAC"/>
<stop offset="1" stop-color="#555555"/>
</linearGradient>
</defs>
</svg>
