<svg width="65" height="65" viewBox="0 0 65 65" fill="none" xmlns="http://www.w3.org/2000/svg">
<path fill-rule="evenodd" clip-rule="evenodd" d="M32.5 0C14.5505 0 0 14.5508 0 32.5C0 50.4492 14.5505 65 32.5 65C50.4492 65 65 50.4492 65 32.5C65 14.5508 50.4492 0 32.5 0ZM40.711 49.2039L41.0424 50.053L39.1241 50.8564C38.9222 50.9412 38.8091 50.8948 38.7279 50.6702C38.5359 50.1394 38.5229 50.1418 37.9659 50.2859C37.8032 50.3279 37.6426 50.3784 37.4821 50.429L37.4717 50.4321L37.4014 50.4543C37.3752 50.4624 37.3514 50.4775 37.3273 50.4927C37.3165 50.4998 37.3055 50.5066 37.2943 50.5129L37.4585 51.3716L37.1469 51.4443L37.1074 51.4536C36.8743 51.5083 36.6391 51.5632 36.4027 51.6125C36.2767 51.6387 36.1494 51.6592 36.0222 51.6794C35.8828 51.7017 35.7435 51.7239 35.6058 51.7539L35.5891 51.7576C35.1487 51.8535 35.1486 51.8535 35.0416 51.4314C34.9176 50.9424 34.9175 50.9409 34.4018 50.9849C34.3591 50.9885 34.3173 51.0017 34.2753 51.0149L34.2692 51.0168L34.2625 51.0188C34.239 51.0261 34.2154 51.0332 34.1915 51.0383C34.1393 51.0493 34.0796 51.0547 34.0201 51.0601C33.891 51.0718 33.7628 51.0833 33.7133 51.1521C33.6403 51.2537 33.6588 51.4299 33.6755 51.5891L33.6839 51.6733C33.7056 51.9243 33.6129 52.0063 33.3606 51.9993C32.771 51.9832 32.1803 51.9824 31.5908 51.9995C31.3286 52.0073 31.2564 51.9041 31.2744 51.665C31.2844 51.53 31.282 51.3943 31.2795 51.2544L31.2794 51.2476L31.2793 51.2405L31.2792 51.2339C31.2783 51.1775 31.2773 51.1199 31.2773 51.0615L30.0482 50.9553C30.033 51.0154 30.015 51.0745 29.9971 51.1335L29.9951 51.1401C29.9537 51.2756 29.9128 51.4097 29.9067 51.5449C29.8943 51.8157 29.7365 51.8342 29.5469 51.8C29.0981 51.7192 28.6495 51.635 28.2059 51.5305C27.5484 51.3755 27.5497 51.3674 27.6556 50.6924L27.6583 50.6755C27.6694 50.6047 27.5972 50.4868 27.5299 50.4453C27.4333 50.3857 27.3172 50.3552 27.2037 50.3257L27.1533 50.3123C27.097 50.2971 27.0387 50.2766 26.9802 50.2561L26.9778 50.2554C26.8208 50.2004 26.662 50.1448 26.5334 50.1843C26.422 50.2185 26.3494 50.4116 26.2863 50.5793L26.2839 50.5857C26.272 50.6172 26.2606 50.6477 26.2491 50.6758C26.1761 50.8574 26.0515 50.9324 25.8862 50.8662C25.4181 50.6785 24.9535 50.4819 24.4766 50.28L23.9396 50.0535L24.2732 49.1819L24.0001 49.0396L23.9769 49.0276L23.9481 49.0127C23.7517 48.9104 23.5574 48.8091 23.3655 48.7031C23.2189 48.6223 23.1459 48.6375 23.0426 48.7922L22.967 48.9067C22.6506 49.3877 22.6414 49.4019 22.0224 48.9331C21.7884 48.7559 21.5382 48.6001 21.288 48.4443L21.2847 48.4421C21.1565 48.3623 21.0283 48.2825 20.9023 48.1997C20.8566 48.1697 20.8156 48.1326 20.7704 48.0916L20.7588 48.0811C20.7401 48.0642 20.7205 48.0466 20.6996 48.0288L21.1754 47.2485L20.9467 47.0566L20.9266 47.0398L20.9198 47.0342C20.7591 46.8997 20.6025 46.7686 20.4489 46.634C20.2997 46.5034 20.1777 46.5037 20.0253 46.644C19.5209 47.1079 19.5166 47.1035 19.0286 46.6086L19.0212 46.6011C18.7604 46.3367 18.4963 46.0754 18.2303 45.8125L17.8771 45.4624L18.5201 44.7593L18.364 44.5632L18.3627 44.5618L18.3597 44.5581C18.1857 44.3389 18.0056 44.1123 17.8148 43.8948C17.7816 43.8569 17.6428 43.8755 17.5755 43.9109C17.4296 43.9878 17.2889 44.0747 17.1379 44.168L17.1358 44.1692L17.128 44.1741C17.065 44.2131 17.0002 44.2532 16.9325 44.2942L15.6277 42.3638L16.4043 41.7947L16.297 41.5916L16.2751 41.5498C16.1567 41.3235 16.0385 41.0979 15.906 40.8809C15.868 40.8186 15.728 40.7803 15.6443 40.7927C15.5034 40.8137 15.3627 40.8701 15.2349 40.9365C14.9723 41.0732 14.859 40.9304 14.7759 40.7146C14.7158 40.5583 14.6577 40.4011 14.5998 40.2441L14.5938 40.228C14.4515 39.842 14.3093 39.4565 14.1367 39.0847C14.0319 38.8591 14.1339 38.8115 14.2703 38.748L14.2863 38.7405C14.4269 38.6746 14.5698 38.6138 14.7111 38.5537L14.8976 38.4736C14.8686 38.3679 14.8398 38.2661 14.8118 38.1667L14.8107 38.1631L14.8097 38.1594C14.7469 37.937 14.6877 37.7271 14.6369 37.5151C14.5819 37.2861 14.4157 37.3086 14.2623 37.3293L14.2438 37.3318L14.228 37.334C13.6224 37.4138 13.6116 37.4153 13.4758 36.8242C13.3627 36.332 13.2713 35.8345 13.1876 35.3364C13.1766 35.2715 13.2526 35.1472 13.316 35.123C13.488 35.0574 13.6734 35.0066 13.8563 34.9954C14.0731 34.9819 14.0955 34.8599 14.0765 34.6987C14.0505 34.4775 14.0208 34.2566 13.9892 34.0225L13.9485 33.719L13.7406 33.7197C13.5825 33.7207 13.424 33.7217 13.2657 33.7178C13.1025 33.7139 12.997 33.6619 13.0001 33.458C13.0076 32.957 13.0063 32.4561 13.005 31.9438L13.004 31.3433H13.9566L14.0803 30.0833L13.881 30.0374C13.7283 30.0027 13.5764 29.968 13.4257 29.9282L13.406 29.9231C13.2435 29.8804 13.1149 29.8467 13.1811 29.5823C13.2959 29.1235 13.382 28.6577 13.4711 28.1748C13.5079 27.9756 13.5453 27.7734 13.5854 27.5676L14.5596 27.7026L14.899 26.5352L14.0534 26.1448C14.072 26.0894 14.0903 26.032 14.1088 25.9734L14.1108 25.967L14.1117 25.9644C14.1553 25.8271 14.2009 25.6836 14.2574 25.5444C14.3314 25.3623 14.409 25.1816 14.4866 25.0012L14.4898 24.9937C14.6069 24.7212 14.7241 24.4487 14.8286 24.1714C14.8939 23.9983 14.9502 23.9565 15.1207 24.0334C15.2752 24.1033 15.4353 24.1609 15.6048 24.2219C15.6803 24.249 15.7576 24.2769 15.8372 24.3066L16.4014 23.2239L16.2395 23.1023C16.085 22.9871 15.9255 22.8679 15.7735 22.7397C15.724 22.6982 15.6769 22.5747 15.7019 22.5354C16.0634 21.9705 16.4297 21.4082 16.8183 20.8618C16.8627 20.7996 17.069 20.7932 17.1636 20.8379C17.3058 20.905 17.4363 20.9968 17.5762 21.0952L17.5935 21.1074L17.6055 21.1157C17.6565 21.1516 17.7089 21.1882 17.7637 21.2244L18.5524 20.2305C18.4965 20.179 18.4406 20.1311 18.3864 20.0847L18.3839 20.0825C18.2582 19.9746 18.1409 19.8738 18.0498 19.7532C17.9869 19.6699 17.9682 19.4565 18.0273 19.3928C18.3867 19.0061 18.7595 18.6318 19.1494 18.2407L19.5219 17.866L20.2589 18.5481L21.1907 17.7781C21.1513 17.7134 21.114 17.6472 21.0768 17.5811C20.9913 17.4294 20.9065 17.2791 20.7975 17.1487C20.6636 16.9883 20.728 16.8955 20.8491 16.8152C21.1485 16.6165 21.4503 16.4211 21.7521 16.2261L21.8019 16.1938C22.0215 16.0518 22.241 15.9097 22.4594 15.7661C22.5993 15.6741 22.6888 15.6799 22.7831 15.8352C22.8661 15.9719 22.9621 16.1001 23.0634 16.2354L23.0652 16.2378L23.0697 16.2439C23.116 16.3054 23.1633 16.3687 23.211 16.4346L23.4617 16.2971C23.699 16.1677 23.9266 16.0435 24.148 15.9092C24.2034 15.8755 24.2558 15.7529 24.2368 15.6953C24.1791 15.5198 24.107 15.3489 24.0295 15.1655L24.0228 15.1497L24.0098 15.1189L23.9391 14.9492L26.1172 14.0415L26.5305 14.9387L26.7789 14.8611L26.8009 14.8542C27.0338 14.7822 27.2595 14.7124 27.4797 14.6284C27.5605 14.5974 27.6655 14.4807 27.6627 14.407C27.6559 14.2371 27.6266 14.0679 27.5936 13.8784L27.5931 13.8757L27.5903 13.8591C27.5779 13.7878 27.5652 13.7136 27.553 13.6355L27.7831 13.5769C27.9672 13.5293 28.1573 13.4805 28.3492 13.4392L28.353 13.4385L28.3574 13.4375C28.7775 13.3469 29.1982 13.2563 29.6227 13.1934C29.7012 13.1816 29.8499 13.2837 29.8789 13.3645C29.9375 13.5276 29.9731 13.6987 30.0103 13.8782C30.0252 13.9502 30.0405 14.0234 30.0576 14.0981L31.2773 13.9875C31.2773 13.917 31.2786 13.8459 31.2799 13.7749C31.2829 13.6094 31.2859 13.4429 31.2727 13.2776C31.2586 13.1016 31.3398 13.0063 31.4876 13.0044C32.1471 12.9956 32.8068 13.0017 33.4664 13.0081C33.5046 13.0083 33.5426 13.0254 33.5898 13.0466C33.615 13.0579 33.6428 13.0703 33.6747 13.082V13.9819L34.914 14.093C34.9271 14.0332 34.9391 13.9731 34.9511 13.9136L34.9537 13.9004L34.9551 13.8936L34.9564 13.887C34.9907 13.7146 35.0247 13.5435 35.0803 13.3799C35.1088 13.2964 35.2492 13.1802 35.3192 13.1921C35.9492 13.3 36.5753 13.4309 37.2011 13.5618C37.2604 13.5745 37.316 13.6047 37.3708 13.6348L37.3816 13.6406C37.4029 13.6521 37.4242 13.6636 37.4456 13.6736L37.2917 14.5596L37.5445 14.6396C37.8013 14.7217 38.0637 14.8054 38.3297 14.8752C38.3873 14.8901 38.4919 14.8113 38.5417 14.7493C38.5773 14.7051 38.5963 14.6484 38.6155 14.5913C38.6266 14.5579 38.6378 14.5247 38.6523 14.4934C38.8652 14.0361 38.866 14.0366 39.3167 14.2288L39.3265 14.2329C39.6797 14.3835 40.0341 14.5317 40.3945 14.6824L40.4957 14.7246L41.0303 14.948L40.7122 15.8313L41.7703 16.4248C41.8104 16.3674 41.8485 16.3103 41.8862 16.2537C41.9766 16.1179 42.064 15.9868 42.1682 15.8704C42.2348 15.7961 42.4094 15.7148 42.4645 15.7493C42.9557 16.0564 43.4384 16.3772 43.9266 16.7019L44.3129 16.9583L44.1691 17.156C44.0647 17.2986 43.969 17.4297 43.8783 17.564C43.7928 17.6909 43.7944 17.8042 43.9437 17.9026L43.9518 17.908C44.1221 18.0198 44.2974 18.1348 44.4351 18.282C44.6533 18.5151 44.8426 18.5037 45.0425 18.2781C45.1252 18.1848 45.2059 18.0896 45.2795 18.0027L45.366 17.9009L47.0786 19.615C47.0451 19.6472 47.0103 19.6821 46.9742 19.7185L46.9652 19.7275C46.8707 19.8228 46.767 19.9272 46.654 20.0205C46.468 20.1738 46.5065 20.3193 46.6381 20.4727C46.6913 20.5349 46.7479 20.595 46.8045 20.6548L46.807 20.6575C46.9225 20.78 47.0375 20.9023 47.1241 21.0427C47.2275 21.2102 47.3024 21.1653 47.4186 21.0938C48.0525 20.7051 48.053 20.7058 48.4769 21.344L48.4791 21.3472C48.5907 21.5151 48.7036 21.6824 48.8166 21.8496C48.9355 22.0256 49.0544 22.2019 49.1719 22.3789C49.2098 22.436 49.2419 22.4968 49.2753 22.5601C49.2908 22.5896 49.3066 22.6196 49.3234 22.6499L48.6074 23.1907C48.6492 23.2737 48.6899 23.3567 48.7304 23.4395L48.7334 23.4456L48.7346 23.448L48.7357 23.4502C48.8433 23.6692 48.9501 23.8867 49.0732 24.094C49.1152 24.1646 49.2619 24.2058 49.3588 24.2029C49.4774 24.1992 49.6122 24.1606 49.7083 24.0923C49.9922 23.8909 50.1057 24.0298 50.208 24.2898C50.3757 24.7153 50.5508 25.1379 50.73 25.5703L50.7313 25.5732L50.7325 25.5762L50.7337 25.5791L50.9565 26.1179C50.8967 26.1458 50.8383 26.1746 50.7804 26.2034L50.7759 26.2056C50.6483 26.2688 50.5234 26.3306 50.3925 26.3738C50.1725 26.4463 50.0949 26.5481 50.1825 26.7817C50.2597 26.9875 50.3218 27.1992 50.3849 27.4143L50.3867 27.4204L50.3879 27.4246L50.3885 27.4268C50.415 27.5166 50.4415 27.6067 50.4694 27.6973L51.0728 27.592C51.3143 27.5496 51.4165 27.6326 51.4569 27.8943C51.5467 28.4753 51.6746 29.0513 51.8065 29.625C51.8524 29.8247 51.7742 29.8938 51.6061 29.9277L50.9344 30.0637L51.0626 31.3169H51.959L51.9728 31.8147C51.989 32.3706 52.0048 32.9175 51.9987 33.4641C51.9977 33.5459 51.7965 33.6836 51.6775 33.6963L51.6457 33.6997C51.3582 33.7305 51.2107 33.7463 51.129 33.8281C51.0432 33.9138 51.03 34.0725 51.0031 34.3975L51.0029 34.3994C50.9925 34.5247 50.9727 34.6489 50.9527 34.7737L50.9521 34.7776C50.9431 34.8337 50.934 34.8904 50.9259 34.947L51.0801 34.9856L51.0858 34.9871L51.0953 34.9895C51.1857 35.0122 51.2668 35.0325 51.3487 35.0491L51.3528 35.0498C51.804 35.1411 51.8043 35.1411 51.7634 35.5642L51.7617 35.5823C51.7573 35.6282 51.753 35.6738 51.7435 35.7188C51.6503 36.1619 51.5564 36.6045 51.4607 37.0552L51.4525 37.0938L51.447 37.1194L51.4445 37.1313L51.3741 37.4626L50.4705 37.3171L50.1061 38.4944L50.9393 38.873L50.7226 39.4092C50.5403 39.8596 50.3588 40.3081 50.1809 40.7578C50.0884 40.9917 49.9545 41.0559 49.7228 40.9333C49.618 40.8779 49.5055 40.8369 49.3815 40.7917C49.3221 40.7703 49.26 40.7476 49.1948 40.7219L48.5938 41.8223L49.3367 42.3325L49.2256 42.5115C49.144 42.6438 49.0634 42.7744 48.9782 42.9023C48.8967 43.0249 48.8119 43.1455 48.7271 43.2659C48.5599 43.5037 48.3928 43.7415 48.2505 43.9934C48.0981 44.2632 47.9346 44.2397 47.7203 44.1194C47.4644 43.9753 47.3378 43.9041 47.233 43.928C47.1304 43.9514 47.0485 44.0659 46.8866 44.2925L46.88 44.3018C46.7997 44.4141 46.7106 44.52 46.6129 44.6362C46.5656 44.6924 46.5163 44.751 46.465 44.814L46.6107 44.946C46.7241 45.0488 46.8287 45.1436 46.9346 45.2371C47.0912 45.3755 47.0915 45.5088 46.94 45.6548C46.7902 45.7993 46.6411 45.9443 46.4921 46.0896L46.4449 46.1355C46.1497 46.4233 45.8544 46.7112 45.5542 46.9937C45.5163 47.0293 45.4393 47.0266 45.3681 47.0244C45.3486 47.0237 45.3297 47.0229 45.312 47.0232C45.2972 47.0234 45.2825 47.0056 45.2674 46.9873L45.2648 46.9844C45.2579 46.9758 45.2508 46.9675 45.2436 46.9612C44.7195 46.4951 44.7192 46.4954 44.1795 46.9641L44.1761 46.967C44.096 47.0366 44.0119 47.1018 43.9279 47.1667L43.8115 47.2576C43.8456 47.3137 43.8803 47.3682 43.9146 47.4216L43.9216 47.4326C44.0109 47.5723 44.0967 47.7065 44.1607 47.8503C44.1968 47.9316 44.1752 48.1089 44.1154 48.1511C43.6826 48.4563 43.2419 48.7498 42.7827 49.0554L42.7716 49.0627L42.3478 49.3452L42.2193 49.1694C42.1251 49.041 42.0375 48.9214 41.9514 48.801C41.8536 48.6641 41.7653 48.6084 41.5901 48.7224C41.3972 48.8479 41.1915 48.9541 40.9824 49.0618C40.8923 49.1082 40.8016 49.155 40.711 49.2039ZM32.5 46.4287C40.1925 46.4287 46.4285 40.1926 46.4285 32.5C46.4285 24.8076 40.1925 18.5715 32.5 18.5715C24.8074 18.5715 18.5714 24.8076 18.5714 32.5C18.5714 40.1926 24.8074 46.4287 32.5 46.4287ZM30.9805 30.6641H33.8929C34.0327 30.6641 34.1461 30.7773 34.1461 30.9172V35.8555H35.6656V30.9172C35.6656 29.9382 34.8719 29.1445 33.8929 29.1445H29.4611V35.8555H30.9805V30.6641ZM37.375 34.3362H40.3506C40.4556 34.3362 40.5406 34.2512 40.5406 34.1462V30.854C40.5406 30.749 40.4556 30.6641 40.3506 30.6641H37.375V34.3362ZM40.3506 29.1445C41.2947 29.1445 42.0601 29.9099 42.0601 30.854V34.1462C42.0601 35.0903 41.2947 35.8555 40.3506 35.8555H35.8555V29.1445H40.3506ZM24.5227 31.5503C24.5227 31.6553 24.6077 31.7402 24.7126 31.7402H27.4984C28.4424 31.7402 29.2078 32.5056 29.2078 33.4497V34.146C29.2078 35.0901 28.4424 35.8555 27.4984 35.8555H24.7126C23.7686 35.8555 23.0032 35.0901 23.0032 34.146V33.8296H24.5227V34.146C24.5227 34.251 24.6077 34.3359 24.7126 34.3359H27.4984C27.6033 34.3359 27.6883 34.251 27.6883 34.146V33.4497C27.6883 33.3447 27.6033 33.2598 27.4984 33.2598H24.7126C23.7686 33.2598 23.0032 32.4944 23.0032 31.5503V30.854C23.0032 29.9099 23.7686 29.1445 24.7126 29.1445H27.4984C28.4424 29.1445 29.2078 29.9099 29.2078 30.854V31.1704H27.6883V30.854C27.6883 30.749 27.6033 30.6641 27.4984 30.6641H24.7126C24.6077 30.6641 24.5227 30.749 24.5227 30.854V31.5503Z" fill="url(#paint0_linear)"/>
<defs>
<linearGradient id="paint0_linear" x2="1" gradientUnits="userSpaceOnUse" gradientTransform="translate(32.5) scale(65) rotate(90)">
<stop stop-color="#E4C079"/>
<stop offset="1" stop-color="#9C6114"/>
</linearGradient>
</defs>
</svg>
