<svg width="65" height="65" viewBox="0 0 65 65" fill="none" xmlns="http://www.w3.org/2000/svg">
<path fill-rule="evenodd" clip-rule="evenodd" d="M32.5 0C14.5505 0 0 14.5508 0 32.5C0 50.4492 14.5505 65 32.5 65C50.4492 65 65 50.4492 65 32.5C65 14.5508 50.4492 0 32.5 0ZM30.1226 23.9265C18.8184 24.979 10 33.0825 10 33.1045C10 33.1267 19.0823 41.4727 30.6278 42.3247L32.5117 45.74L34.3954 42.3247C45.9387 41.4705 55 33.1045 55 33.1045C55 33.1045 46.1807 24.981 34.8948 23.9268L34.0338 22.4802L32.5117 20L31.6 21.4507L30.1226 23.9265ZM28.7679 26.197C20.2128 27.6013 11.8954 33.1045 11.8954 33.1045C11.8954 33.1045 20.6219 38.8601 29.3921 40.0847L25.1162 32.3333L26.2637 30.3911L27.3167 32.3098V32.3323L31.511 40.2871C31.8457 40.3035 32.1794 40.312 32.5117 40.312C32.8359 40.312 33.1616 40.3042 33.4883 40.2888L36.5133 34.4153L38.7363 30.3901L39.9064 32.3323L35.6278 40.0901C44.3843 38.8945 53.1279 33.2717 53.1279 33.1045C53.1279 32.9412 44.8005 27.5532 36.2399 26.1865L37.5438 28.3772L36.4674 30.4832L33.6539 25.9053C33.2717 25.8845 32.8909 25.8738 32.5117 25.8738C32.1238 25.8738 31.7338 25.8855 31.3427 25.9077L28.4641 30.4832L27.4111 28.4707L28.7679 26.197Z" fill="url(#paint0_linear)"/>
<defs>
<linearGradient id="paint0_linear" x2="1" gradientUnits="userSpaceOnUse" gradientTransform="translate(32.5) scale(65) rotate(90)">
<stop stop-color="#ED5250"/>
<stop offset="1" stop-color="#AA0E20"/>
</linearGradient>
</defs>
</svg>
