<svg width="65" height="65" viewBox="0 0 65 65" fill="none" xmlns="http://www.w3.org/2000/svg">
<path fill-rule="evenodd" clip-rule="evenodd" d="M32.5 0C14.5506 0 0 14.5508 0 32.5C0 50.4492 14.5506 65 32.5 65C50.4492 65 65 50.4492 65 32.5C65 14.5508 50.4492 0 32.5 0ZM32.4387 52.9902C21.1641 52.9565 12 43.7809 12 32.4951C12 21.2093 21.1641 12.0339 32.4387 12C43.7133 12.0339 52.8774 21.2093 52.8774 32.4951C52.8774 43.7809 43.7133 52.9677 32.4387 52.9902ZM50.5637 35.7566C50.2478 36.4901 49.5142 37.0093 48.6676 37.0093C48.3965 37.0092 48.128 36.9555 47.8777 36.8513C48.6 37.6075 49.0515 38.6231 49.0515 39.7405C49.0515 40.0675 49.0063 40.3725 48.9387 40.6772C49.7064 39.1205 50.2534 37.4644 50.5637 35.7566ZM48.6677 35.9599C49.2349 35.9599 49.6947 35.5 49.6947 34.9328C49.6947 34.3656 49.2349 33.9058 48.6677 33.9058C48.1004 33.9058 47.6406 34.3656 47.6406 34.9328C47.6426 35.499 48.1009 35.9575 48.6671 35.9599H48.6677ZM49.1303 24.7305C49.4578 25.6586 49.6259 26.6355 49.6276 27.6197C49.6297 29.6562 48.9099 31.6276 47.5962 33.1837C47.9009 33.0032 48.2621 32.879 48.657 32.879C49.7292 32.879 50.6095 33.7028 50.6996 34.7636C50.7899 34.0188 50.8464 33.2738 50.8464 32.5064C50.8595 29.8191 50.2733 27.1627 49.1305 24.7305H49.1303ZM48.0808 27.6083C48.0808 23.692 44.8981 20.4983 40.9708 20.4983C37.0546 20.4983 33.8608 23.681 33.8608 27.6083C33.8608 31.5246 37.0436 34.7183 40.9708 34.7183C44.8871 34.7183 48.0808 31.5243 48.0808 27.6083ZM40.6885 39.7405C40.6883 38.1934 41.544 36.773 42.9119 36.0501C41.1772 36.4548 39.3598 36.3129 37.709 35.6438C39.1139 36.724 40.1539 38.2091 40.6885 39.8987C40.7 39.8309 40.6885 39.7857 40.6885 39.7405ZM41.0949 42.4946C41.093 43.1792 41.0096 43.8611 40.8466 44.526C41.1837 43.8496 41.8739 43.4215 42.6296 43.4201C42.7359 43.4196 42.8419 43.431 42.9456 43.454C42.0753 43.005 41.3887 42.2667 41.0039 41.3662C41.0631 41.7395 41.0935 42.1167 41.0949 42.4946ZM44.8644 42.3704C46.3202 42.3704 47.5053 41.1849 47.5053 39.7407C47.5053 38.2849 46.3198 37.1111 44.8644 37.1111C43.4089 37.1111 42.2347 38.2965 42.2347 39.7407C42.2347 41.1964 43.4198 42.3702 44.8654 42.3702L44.8644 42.3704ZM46.6016 34.9443C46.6046 34.5969 46.6938 34.2556 46.8612 33.9512C46.1119 34.6457 45.2493 35.2068 44.3107 35.6102C44.4911 35.5877 44.6718 35.565 44.8637 35.565C45.6148 35.5636 46.3521 35.7664 46.9967 36.1518C46.7399 35.8016 46.6018 35.3784 46.6027 34.9441L46.6016 34.9443ZM32.4376 33.8268C33.5515 33.8261 34.655 34.0407 35.6874 34.4588C33.9523 33.1243 32.7904 31.1793 32.4376 29.019C32.0765 31.2311 30.8802 33.1497 29.1879 34.4588C30.1922 34.0637 31.2871 33.8268 32.4376 33.8268ZM32.4377 22.3268C31.6505 22.3284 30.8791 22.1052 30.2144 21.6836C31.387 22.9255 32.1616 24.4897 32.4387 26.1752C32.7228 24.4921 33.496 22.9299 34.662 21.6833C33.9973 22.1051 33.2259 22.3283 32.4387 22.3268H32.4377ZM36.6586 18.1057C36.6583 19.0513 36.3404 19.9694 35.7559 20.7127C36.6325 20.0477 37.6287 19.5573 38.6902 19.2681C38.6451 19.2681 38.6111 19.2793 38.5774 19.2793C37.7084 19.2793 36.9628 18.7377 36.6588 17.9702C36.649 18.0154 36.6597 18.0606 36.6597 18.1057H36.6586ZM39.8639 15.6122C40.3266 15.9958 40.6313 16.5601 40.6313 17.2035C40.6324 18.0205 40.1494 18.7604 39.4011 19.0882C39.9187 18.9936 40.4436 18.9445 40.9698 18.9414C43.6219 18.9414 45.9807 20.1377 47.5715 21.9999C45.6323 19.2084 42.9676 16.9995 39.8649 15.6116L39.8639 15.6122ZM38.566 16.1876C37.9988 16.1876 37.5389 16.6474 37.5389 17.2147C37.5389 17.7819 37.9988 18.2417 38.566 18.2417C39.1332 18.2417 39.593 17.7819 39.593 17.2147C39.5914 16.6484 39.1331 16.1895 38.5668 16.187L38.566 16.1876ZM33.7141 14.0767C35.0959 14.5181 36.1533 15.6395 36.513 17.0448C36.5921 15.9838 37.4724 15.1374 38.5556 15.1374C38.6238 15.1393 38.6918 15.1469 38.7588 15.1599C37.1789 14.5733 35.4747 14.2122 33.7141 14.0767ZM29.7753 18.1057C29.7753 19.5728 30.9715 20.7683 32.4386 20.7683C33.9057 20.7683 35.102 19.572 35.102 18.1049C35.102 16.6378 33.9057 15.4424 32.4386 15.4424C30.9715 15.4424 29.7753 16.6387 29.7753 18.1057ZM26.1074 15.1601C26.1744 15.1471 26.2424 15.1395 26.3106 15.1376C27.3938 15.1376 28.2743 15.9728 28.3532 17.045C28.7128 15.6396 29.7703 14.5182 31.1521 14.0767C29.3915 14.2122 27.6986 14.5733 26.1074 15.1601ZM28.2177 18.1057C28.2158 18.0603 28.2196 18.0147 28.2289 17.9702C27.9242 18.7377 27.1794 19.2793 26.3103 19.2793C26.2652 19.2793 26.2312 19.2681 26.1975 19.2681C27.2582 19.5597 28.2539 20.0499 29.1319 20.7127C28.5392 19.9731 28.2167 19.0535 28.2177 18.1057ZM25.2836 17.2141C25.2836 17.7813 25.7434 18.2411 26.3106 18.2411C26.8778 18.2411 27.3377 17.7813 27.3377 17.2141C27.3377 16.6468 26.8778 16.187 26.3106 16.187C25.7442 16.189 25.2856 16.6477 25.2836 17.2141ZM17.3044 22.0105C18.8958 20.1371 21.2544 18.9521 23.9061 18.9521C24.4323 18.9546 24.9573 19.0037 25.4748 19.0988C24.8171 18.8123 24.3573 18.2025 24.2626 17.4914C24.1679 16.7802 24.4522 16.0714 25.0121 15.6228C21.8976 16.9998 19.223 19.2343 17.3044 22.0105ZM16.7965 27.6083C16.7965 31.5246 19.9792 34.7183 23.9065 34.7183C27.8228 34.7183 31.0165 31.5356 31.0165 27.6083C31.0165 23.692 27.8338 20.4983 23.9065 20.4983C19.9903 20.5093 16.7965 23.692 16.7965 27.6083ZM24.1888 39.7405C24.1888 39.7857 24.1775 39.8427 24.1775 39.8873C24.7152 38.1992 25.7546 36.715 27.1571 35.6326C25.5061 36.3018 23.6885 36.4437 21.9536 36.0389C23.2858 36.7497 24.1888 38.1379 24.1888 39.7405ZM18.2747 34.9441C18.2767 35.3805 18.1338 35.8052 17.8684 36.1516C18.5133 35.7665 19.2507 35.564 20.0018 35.5658C20.1872 35.5636 20.3723 35.5787 20.5549 35.611C19.6116 35.2158 18.7475 34.6535 18.0041 33.9512C18.1815 34.252 18.275 34.5949 18.2747 34.9441ZM17.3719 39.7406C17.3719 41.1964 18.5574 42.3702 20.0016 42.3702C21.4574 42.3702 22.6312 41.1848 22.6312 39.7406C22.6312 38.2847 21.4458 37.1109 20.0016 37.1109C18.5572 37.0997 17.3722 38.2841 17.3722 39.7406H17.3719ZM21.9202 43.4538C22.0224 43.4425 22.1233 43.4199 22.2361 43.4199C22.9919 43.4213 23.6821 43.8494 24.0192 44.5258C23.8563 43.861 23.773 43.1791 23.7711 42.4946C23.7746 42.1134 23.801 41.7328 23.8502 41.3547C23.474 42.2597 22.7906 43.003 21.9204 43.4538H21.9202ZM14.1664 34.7524C14.2568 33.7029 15.1371 32.8677 16.2091 32.8677C16.584 32.8698 16.9512 32.9752 17.2701 33.1725C15.9563 31.6163 15.2366 29.645 15.2387 27.6084C15.2387 26.5926 15.4191 25.6335 15.7353 24.7192C14.6294 27.0781 14.0199 29.7189 14.0199 32.4951C14.0226 33.2498 14.0716 34.0037 14.1664 34.7524ZM16.2104 33.9172C15.6432 33.9172 15.1833 34.3771 15.1833 34.9443C15.1833 35.5115 15.6432 35.9713 16.2104 35.9713C16.7776 35.9713 17.2374 35.5115 17.2374 34.9443C17.2354 34.3779 16.7768 33.9193 16.2104 33.9172ZM15.8267 39.7407C15.8259 38.6614 16.2472 37.6245 17.0005 36.8515C16.7505 36.9569 16.4818 37.0106 16.2106 37.0095C15.3642 37.0095 14.6304 36.4904 14.3145 35.7568C14.6304 37.4941 15.1729 39.1425 15.9395 40.6774C15.8711 40.3725 15.8259 40.0678 15.8259 39.7405L15.8267 39.7407ZM21.1085 43.77C20.7586 43.8721 20.3862 43.9167 20.0026 43.9167C18.9079 43.9167 17.9148 43.4875 17.1698 42.7993C18.1538 44.2569 19.3393 45.5678 20.691 46.6929C20.4089 46.343 20.2282 45.9142 20.2282 45.429C20.2286 44.7644 20.5579 44.1431 21.1077 43.7697L21.1085 43.77ZM21.2664 45.4289C21.2664 45.965 21.701 46.3995 22.2371 46.3995C22.7731 46.3995 23.2077 45.965 23.2077 45.4289C23.2077 44.8928 22.7731 44.4583 22.2371 44.4583C21.7024 44.4617 21.2696 44.894 21.2656 45.4287L21.2664 45.4289ZM29.9452 50.7896C27.2586 49.973 25.1317 47.9092 24.2346 45.2483C24.2346 45.3047 24.2571 45.3611 24.2571 45.4288C24.2603 46.1203 23.906 46.7644 23.3202 47.1319C22.7345 47.4994 22.0004 47.5382 21.3792 47.2345C23.8277 49.0854 26.7619 50.3494 29.9452 50.7896ZM39.5375 42.4945C39.5375 38.5783 36.3548 35.3958 32.4387 35.3845C28.5225 35.3845 25.34 38.5672 25.34 42.4945C25.34 46.4218 28.5225 49.5933 32.4387 49.6045C36.355 49.5933 39.5375 46.4106 39.5375 42.4945ZM43.5101 47.2348C42.8889 47.5385 42.1548 47.4997 41.5691 47.1321C40.9833 46.7646 40.629 46.1205 40.6322 45.429C40.6341 45.3683 40.6416 45.3079 40.6547 45.2485C39.7576 47.9094 37.6307 49.9732 34.9441 50.7899C38.1156 50.3494 41.0497 49.0855 43.5101 47.2346V47.2348ZM43.6123 45.4289C43.6123 44.8928 43.1777 44.4583 42.6417 44.4583C42.1056 44.4583 41.671 44.8928 41.671 45.4289C41.671 45.965 42.1056 46.3995 42.6417 46.3995C43.1759 46.3953 43.6079 45.963 43.6117 45.4287L43.6123 45.4289ZM47.7084 42.7991C46.9636 43.4874 45.9711 43.9165 44.8756 43.9165C44.5022 43.9143 44.1306 43.865 43.7697 43.7697C44.3197 44.1428 44.6494 44.764 44.6499 45.4287C44.6499 45.9139 44.4695 46.3429 44.1872 46.6926C45.5389 45.5676 46.7244 44.2567 47.7084 42.7991Z" fill="url(#paint0_linear)"/>
<defs>
<linearGradient id="paint0_linear" x2="1" gradientUnits="userSpaceOnUse" gradientTransform="translate(32.5) scale(65) rotate(90)">
<stop stop-color="#ACACAC"/>
<stop offset="1" stop-color="#0B1C26"/>
</linearGradient>
</defs>
</svg>
