<svg width="65" height="65" viewBox="0 0 65 65" fill="none" xmlns="http://www.w3.org/2000/svg">
<path fill-rule="evenodd" clip-rule="evenodd" d="M32.5 0C14.5506 0 0 14.5508 0 32.5C0 50.4492 14.5506 65 32.5 65C50.4492 65 65 50.4492 65 32.5C65 14.5508 50.4492 0 32.5 0ZM6.24609 33.9722L8.07422 33.7944C8.18425 34.408 8.40747 34.8587 8.7439 35.1465C9.08032 35.4342 9.53418 35.5781 10.1055 35.5781C10.7106 35.5781 11.1666 35.4501 11.4734 35.1941C11.7802 34.9381 11.9336 34.6387 11.9336 34.2959C11.9336 34.0758 11.8691 33.8886 11.74 33.7341C11.6109 33.5797 11.3856 33.4453 11.064 33.3311C10.8439 33.2549 10.3425 33.1195 9.55957 32.9248C8.5524 32.6751 7.84571 32.3683 7.43945 32.0044C6.86816 31.4923 6.58252 30.8682 6.58252 30.1318C6.58252 29.6579 6.71688 29.2146 6.9856 28.802C7.25431 28.3894 7.64152 28.0752 8.14722 27.8594C8.65292 27.6436 9.26334 27.5356 9.97852 27.5356C11.1465 27.5356 12.0256 27.7917 12.616 28.3037C13.2063 28.8158 13.5163 29.4992 13.5459 30.354L11.667 30.4365C11.5866 29.9583 11.4141 29.6145 11.1497 29.405C10.8852 29.1956 10.4884 29.0908 9.95947 29.0908C9.41357 29.0908 8.98617 29.203 8.67725 29.4272C8.47835 29.5711 8.37891 29.7637 8.37891 30.0049C8.37891 30.2249 8.472 30.4132 8.6582 30.5698C8.89518 30.7687 9.4707 30.9761 10.3848 31.1919C11.2988 31.4077 11.9749 31.6309 12.4128 31.8616C12.8508 32.0922 13.1936 32.4075 13.4412 32.8074C13.6887 33.2073 13.8125 33.7013 13.8125 34.2896C13.8125 34.8228 13.6644 35.3221 13.3682 35.7876C13.0719 36.2531 12.653 36.599 12.1113 36.8254C11.5697 37.0518 10.8947 37.165 10.0864 37.165C8.90999 37.165 8.00651 36.8932 7.37598 36.3494C6.74544 35.8056 6.36882 35.0132 6.24609 33.9722ZM15.3931 37V27.6943H18.4082C19.5508 27.6943 20.2956 27.7409 20.6426 27.834C21.1758 27.9736 21.6222 28.2773 21.9819 28.7449C22.3416 29.2125 22.5215 29.8166 22.5215 30.5571C22.5215 31.1284 22.4178 31.6087 22.2104 31.998C22.0031 32.3874 21.7397 32.6931 21.4202 32.9153C21.1007 33.1375 20.7759 33.2845 20.4458 33.3564C19.9972 33.4453 19.3477 33.4897 18.4971 33.4897H17.272V37H15.3931ZM17.272 29.2686V31.9092H18.3003C19.0409 31.9092 19.536 31.8605 19.7856 31.7632C20.0353 31.6659 20.231 31.5135 20.3728 31.3062C20.5146 31.0988 20.5854 30.8576 20.5854 30.5825C20.5854 30.244 20.486 29.9647 20.2871 29.7446C20.0882 29.5246 19.8364 29.387 19.5317 29.332C19.3075 29.2897 18.8568 29.2686 18.1797 29.2686H17.272ZM32.4556 37H30.4116L29.5991 34.8862H25.8794L25.1113 37H23.1182L26.7427 27.6943H28.7295L32.4556 37ZM28.9961 33.3184L27.7139 29.8652L26.457 33.3184H28.9961ZM33.4585 37V27.6943H37.4131C38.4076 27.6943 39.1301 27.7779 39.5808 27.9451C40.0315 28.1122 40.3923 28.4095 40.6631 28.8369C40.9339 29.2643 41.0693 29.7531 41.0693 30.3032C41.0693 31.0015 40.8641 31.578 40.4536 32.033C40.0431 32.4879 39.4295 32.7746 38.6128 32.8931C39.019 33.13 39.3544 33.3903 39.6189 33.6738C39.8834 33.9574 40.2399 34.4609 40.6885 35.1846L41.8247 37H39.5776L38.2192 34.9751C37.7368 34.2515 37.4067 33.7955 37.229 33.6072C37.0513 33.4189 36.863 33.2898 36.6641 33.22C36.4652 33.1501 36.1499 33.1152 35.7183 33.1152H35.3374V37H33.4585ZM35.3374 31.6299H36.7275C37.6289 31.6299 38.1917 31.5918 38.416 31.5156C38.6403 31.4395 38.8159 31.3083 38.9429 31.1221C39.0698 30.9359 39.1333 30.7031 39.1333 30.4238C39.1333 30.1107 39.0497 29.8578 38.8826 29.6653C38.7154 29.4727 38.4795 29.3511 38.1748 29.3003C38.0225 29.2791 37.5654 29.2686 36.8037 29.2686H35.3374V31.6299ZM44.9351 37V29.2686H42.1738V27.6943H49.5688V29.2686H46.814V37H44.9351ZM59.1729 37H57.1289L56.3164 34.8862H52.5967L51.8286 37H49.8354L53.46 27.6943H55.4468L59.1729 37ZM55.7134 33.3184L54.4312 29.8652L53.1743 33.3184H55.7134Z" fill="url(#paint0_linear)"/>
<defs>
<linearGradient id="paint0_linear" x2="1" gradientUnits="userSpaceOnUse" gradientTransform="translate(32.5) scale(65) rotate(90)">
<stop stop-color="#ACACAC"/>
<stop offset="1" stop-color="#555555"/>
</linearGradient>
</defs>
</svg>
