<svg width="65" height="65" viewBox="0 0 65 65" fill="none" xmlns="http://www.w3.org/2000/svg">
<path fill-rule="evenodd" clip-rule="evenodd" d="M32.5 0C14.5506 0 0 14.5508 0 32.5C0 50.4492 14.5506 65 32.5 65C50.4492 65 65 50.4492 65 32.5C65 14.5508 50.4492 0 32.5 0ZM55.977 26.977V26.0613C52.8655 26.0681 50.2845 28.4706 50.0548 31.5736C49.8347 28.4741 47.2603 26.0695 44.153 26.0613V26.977C46.9286 26.977 49.1786 29.2271 49.1786 32.0027C49.1786 34.7783 46.9286 37.0284 44.153 37.0284V37.9441C47.2647 37.9379 49.8461 35.5351 50.0752 32.4318C50.2977 35.5393 52.8846 37.946 56 37.9441V37.0284C54.2045 37.0318 52.5436 36.0771 51.6429 34.5238C50.7421 32.9706 50.7385 31.0548 51.6333 29.4981C52.5281 27.9415 54.1854 26.9804 55.9809 26.977H55.977ZM24.2278 37.9428V37.2621L24.2073 32.0027H23.3312V37.9428H24.2278ZM36.1092 26.0613C33.7061 26.0608 31.5392 27.508 30.6192 29.7281C29.6992 31.9482 30.2072 34.504 31.9063 36.2035C33.6054 37.903 36.161 38.4115 38.3814 37.492C40.6017 36.5724 42.0494 34.4059 42.0494 32.0027C42.0431 28.7245 39.3875 26.0683 36.1092 26.0613ZM36.1093 37.0284C33.3337 37.0284 31.0836 34.7783 31.0836 32.0027C31.0836 29.2271 33.3337 26.9771 36.1093 26.9771C38.8849 26.9771 41.135 29.2271 41.135 32.0027C41.135 34.7783 38.8849 37.0284 36.1093 37.0284ZM20.0591 26.0613C16.7803 26.0676 14.124 28.724 14.1177 32.0027C14.1113 34.7752 11.8657 37.0214 9.09326 37.0284V37.9441C12.3718 37.9378 15.0278 35.2812 15.0334 32.0027C15.0397 29.2297 17.2861 26.9833 20.0591 26.977H27.694V26.0613H20.0591Z" fill="url(#paint0_linear)"/>
<defs>
<linearGradient id="paint0_linear" x2="1" gradientUnits="userSpaceOnUse" gradientTransform="translate(32.5) scale(65) rotate(90)">
<stop stop-color="#51B5F8"/>
<stop offset="1" stop-color="#7020F0"/>
</linearGradient>
</defs>
</svg>
