<svg width="65" height="65" viewBox="0 0 65 65" fill="none" xmlns="http://www.w3.org/2000/svg">
<path fill-rule="evenodd" clip-rule="evenodd" d="M32.5 0C14.5505 0 0 14.5508 0 32.5C0 50.4492 14.5505 65 32.5 65C50.4492 65 65 50.4492 65 32.5C65 14.5508 50.4492 0 32.5 0ZM15.6589 19C14.1927 19 13 20.1765 13 21.623V42.6086C13 44.0554 14.1927 45.2322 15.6589 45.2322H49.3411C50.8076 45.2322 52 44.0554 52 42.6086V21.623C52 20.1765 50.8076 19 49.3411 19H15.6589ZM23.802 32.1863C23.802 27.3813 27.7339 23.5027 32.6044 23.5027C37.4752 23.5027 41.407 27.3813 41.407 32.1863C41.407 36.9912 37.4752 40.8699 32.6044 40.8699C27.7339 40.8699 23.802 36.9912 23.802 32.1863ZM32.6044 25.0464C36.5947 25.0464 39.8422 28.2495 39.8422 32.186C39.8422 36.123 36.5947 39.3262 32.6044 39.3262C28.6139 39.3262 25.3669 36.123 25.3669 32.186C25.3669 28.2495 28.6139 25.0464 32.6044 25.0464ZM32.9762 31.9932H35.9886C36.4187 31.9932 36.7711 32.3406 36.7711 32.7651C36.7711 33.1897 36.4187 33.5371 35.9886 33.5371H32.1937C31.7633 33.5371 31.4113 33.1897 31.4113 32.7651C31.4113 32.7073 31.4113 32.6299 31.4308 32.5723C31.4308 32.5452 31.4265 32.5183 31.422 32.4895C31.4169 32.4563 31.4113 32.4207 31.4113 32.3794V28.6357C31.4113 28.2109 31.7633 27.8638 32.1937 27.8638C32.6238 27.8638 32.9762 28.2109 32.9762 28.6357V31.9932Z" fill="url(#paint0_linear)"/>
<defs>
<linearGradient id="paint0_linear" x2="1" gradientUnits="userSpaceOnUse" gradientTransform="translate(32.5) scale(64.1891) rotate(90)">
<stop stop-color="#D9A162"/>
<stop offset="1" stop-color="#4B8FB9"/>
</linearGradient>
</defs>
</svg>
