<svg width="65" height="65" viewBox="0 0 65 65" fill="none" xmlns="http://www.w3.org/2000/svg">
<path fill-rule="evenodd" clip-rule="evenodd" d="M32.5 0C14.5505 0 0 14.5508 0 32.5C0 50.4492 14.5505 65 32.5 65C50.4492 65 65 50.4492 65 32.5C65 14.5508 50.4492 0 32.5 0ZM32.5 51C22.2827 51 14 42.7173 14 32.5C14 22.2827 22.2827 14 32.5 14C42.7173 14 51 22.2827 51 32.5C51 42.7173 42.7173 51 32.5 51ZM32.5 50.0876C42.2134 50.0876 50.0877 42.2134 50.0877 32.5C50.0877 22.7866 42.2134 14.9124 32.5 14.9124C22.7866 14.9124 14.9124 22.7866 14.9124 32.5C14.9124 42.2134 22.7866 50.0876 32.5 50.0876ZM32.2932 26.7219L32.3987 26.2151H25.3027H23.0726H22.1603L19.1192 38.9878H22.4644L24.7625 28.6479H28.8558L26.4178 38.9878H29.4589L31.8513 28.6479H31.8918L32.2547 26.9055L32.2973 26.7219H32.2932ZM38.0753 26.2151L35.0342 38.8862H41.4104C42.1782 38.8906 42.942 38.7747 43.674 38.5427C44.8843 38.1514 46.3572 37.3323 46.5904 35.6426H47.5027L47.8068 34.426H46.6918C46.6918 34.426 46.7932 32.6013 44.4616 32.2974C44.4616 32.2974 46.489 31.689 46.7932 30.574H47.8068L48.2123 29.3577H47.0972C47.0972 29.3577 47.5027 26.4177 43.1438 26.2151H38.0753ZM42.3836 31.2837H39.7986L40.4069 28.5466H42.3836C42.7466 28.5464 43.0948 28.6904 43.3516 28.9473C43.6082 29.2039 43.7523 29.552 43.7521 29.915C43.7523 30.2781 43.6082 30.6265 43.3516 30.8831C43.0948 31.1399 42.7466 31.2839 42.3836 31.2837ZM38.5933 36.5549H41.7013C42.6096 36.5549 43.3466 35.8513 43.3466 34.9836C43.3466 34.116 42.6136 33.4124 41.7013 33.4124H39.3242L38.5933 36.5549ZM20.7411 28.648H17.4973L18.1055 26.2151H21.3493L20.7411 28.648ZM34.6288 37.5684L31.9932 31.2835L33.1082 26.4177L35.7439 32.3985L34.6288 37.5684Z" fill="url(#paint0_linear)"/>
<defs>
<linearGradient id="paint0_linear" x2="1" gradientUnits="userSpaceOnUse" gradientTransform="translate(32.5) scale(65) rotate(90)">
<stop stop-color="#FDE785"/>
<stop offset="1" stop-color="#FFD800"/>
</linearGradient>
</defs>
</svg>
