<svg width="65" height="65" viewBox="0 0 65 65" fill="none" xmlns="http://www.w3.org/2000/svg">
<path fill-rule="evenodd" clip-rule="evenodd" d="M0 32.5C0 14.5508 14.5505 0 32.5 0C50.4492 0 65 14.5508 65 32.5C65 50.4492 50.4492 65 32.5 65C14.5505 65 0 50.4492 0 32.5ZM28.8867 48.9111L28.5977 42.5518H36.2578L35.9688 48.9111C32.3555 48.333 28.8867 48.9111 28.8867 48.9111ZM24.1172 30.7004L24.4062 37.6379C24.4062 37.6379 34.5234 36.7708 40.4492 37.6379L41.0273 30.7004C35.3988 30.2715 29.7457 30.2715 24.1172 30.7004ZM14 20.0049C31.6328 15.6689 51 19.7158 51 19.7158L49.8438 27.9541L48.3984 24.9189C33.5117 22.4619 16.8906 24.9189 16.8906 24.9189L15.3008 27.9541L14 20.0049Z" fill="url(#paint0_linear)"/>
<defs>
<linearGradient id="paint0_linear" x2="1" gradientUnits="userSpaceOnUse" gradientTransform="translate(32.5) scale(63.6864) rotate(90)">
<stop stop-color="#FF6C88"/>
<stop offset="1" stop-color="#F1385B"/>
</linearGradient>
</defs>
</svg>
