<svg width="65" height="65" viewBox="0 0 65 65" fill="none" xmlns="http://www.w3.org/2000/svg">
<path fill-rule="evenodd" clip-rule="evenodd" d="M32.5 0C14.5506 0 0 14.5508 0 32.5C0 50.4492 14.5506 65 32.5 65C50.4492 65 65 50.4492 65 32.5C65 14.5508 50.4492 0 32.5 0ZM32.4957 50.9915C22.2808 50.9915 14 42.7106 14 32.4957C14 22.2808 22.2808 14 32.4957 14C42.7106 14 50.9915 22.2808 50.9915 32.4957C50.9915 42.7106 42.7106 50.9915 32.4957 50.9915ZM32.4957 47.0789C40.5498 47.0789 47.0789 40.5498 47.0789 32.4957C47.0789 24.4417 40.5498 17.9126 32.4957 17.9126C24.4417 17.9126 17.9126 24.4417 17.9126 32.4957C17.9126 40.5498 24.4417 47.0789 32.4957 47.0789ZM24.088 23.5198H40.9035V27.7383H35.0272V43.127H29.9182V27.7548H24.088V23.5198Z" fill="url(#paint0_linear)"/>
<defs>
<linearGradient id="paint0_linear" x2="1" gradientUnits="userSpaceOnUse" gradientTransform="translate(32.5) scale(65) rotate(90)">
<stop stop-color="#8BEECA"/>
<stop offset="1" stop-color="#63C6BB"/>
</linearGradient>
</defs>
</svg>
