<svg width="65" height="65" viewBox="0 0 65 65" fill="none" xmlns="http://www.w3.org/2000/svg">
<path fill-rule="evenodd" clip-rule="evenodd" d="M32.5 0C14.5506 0 0 14.5508 0 32.5C0 50.4492 14.5506 65 32.5 65C50.4492 65 65 50.4492 65 32.5C65 14.5508 50.4492 0 32.5 0ZM47.9774 25.7425C46.4993 24.6936 44.9176 23.5744 43.371 22.4644C43.3359 22.4385 43.3026 22.4126 43.26 22.3867C43.0788 22.2379 42.8736 22.1209 42.6532 22.0408L42.6347 22.0316C38.4982 21.0178 34.2915 19.9781 30.2234 18.9717L19.1533 16.2394L18.8629 16.1617C18.5299 16.0673 18.1451 15.9619 17.7344 16.0137C17.6219 16.0309 17.5146 16.0726 17.4199 16.1358L17.3163 16.2227C17.1866 16.3557 17.0875 16.5155 17.0259 16.6908L17 16.7611V17.1588L17.0185 17.2198C19.3494 23.8519 21.7433 30.5802 24.052 37.0901C25.8298 42.1035 27.6779 47.2944 29.4797 52.3929C29.5907 52.7388 29.9071 52.9664 30.3011 52.9997H30.3862C30.7369 53.0087 31.0646 52.8257 31.2409 52.5224L38.0117 42.5086C39.66 40.0722 41.3102 37.6285 42.9603 35.1921L44.986 32.1915C46.096 30.545 47.243 28.8449 48.3807 27.1892L48.4399 27.1041V26.9987C48.4658 26.6953 48.4732 26.0718 47.9774 25.7407V25.7425ZM40.0448 29.3925C38.4538 30.2324 36.8314 31.1 35.1979 31.9584L38.0543 28.8541C39.2419 27.5536 40.4814 26.2087 41.695 24.8916L41.7209 24.8657C41.8226 24.7269 41.9521 24.5974 42.089 24.4587C42.1815 24.3643 42.2851 24.2681 42.3794 24.1553C43.0121 24.5993 43.6522 25.0488 44.2682 25.4909C44.7122 25.811 45.1655 26.1329 45.6279 26.4529C43.7604 27.4204 41.8993 28.4003 40.0448 29.3925ZM35.9601 28.9764C34.7373 30.3194 33.4719 31.6976 32.2158 33.0592C29.778 30.0595 27.333 27.0657 24.8808 24.0777L21.5897 20.0633L21.5823 20.0541C21.3344 19.7692 21.0939 19.4565 20.8553 19.1624C20.7017 18.9626 20.539 18.7721 20.3762 18.5723C21.3677 18.8313 22.3686 19.0755 23.3509 19.3085C24.2148 19.5176 25.112 19.734 25.9926 19.9597L40.8754 23.6263C39.2253 25.4134 37.5659 27.2245 35.9601 28.9764ZM31.659 45.8736C31.7533 44.9635 31.8569 44.0274 31.942 43.108C32.0197 42.3698 32.0956 41.6169 32.1733 40.8973C32.2917 39.7429 32.4212 38.5478 32.5248 37.3768L32.5488 37.1696C32.6339 36.4223 32.719 35.6527 32.7708 34.8794C32.8704 34.8232 32.9736 34.7738 33.0797 34.7314C33.2074 34.6722 33.335 34.6204 33.4627 34.5427C35.4384 33.4919 37.4123 32.443 39.3955 31.4033C41.3712 30.3637 43.3969 29.287 45.406 28.2214C43.583 30.8988 41.7676 33.5812 39.9597 36.2687C38.4298 38.5293 36.8573 40.8621 35.2923 43.1598C34.6781 44.0792 34.0362 45.0153 33.4294 45.9162C32.7449 46.9226 32.0438 47.953 31.3611 48.9871C31.4462 47.9456 31.548 46.8967 31.659 45.8736ZM19.7453 20.6182C19.6343 20.3056 19.5122 19.9855 19.4105 19.6821C21.7192 22.5089 24.0427 25.3522 26.3089 28.1086C27.4799 29.5387 28.651 30.9613 29.822 32.4005C30.0532 32.6688 30.2845 32.9555 30.5065 33.233C30.7969 33.5882 31.0873 33.9619 31.4037 34.3171C31.3001 35.2087 31.215 36.1115 31.1206 36.9773C31.0614 37.5841 31.0022 38.1927 30.9338 38.8087V38.8161C30.9079 39.2046 30.8561 39.5968 30.8135 39.9779L30.6174 41.7039L30.6082 41.7631C30.4547 43.515 30.266 45.2836 30.0865 47.0003C30.0107 47.7107 29.9422 48.4396 29.8645 49.1684C29.822 49.039 29.772 48.9076 29.7276 48.7855C29.5973 48.4322 29.4721 48.0769 29.3521 47.7199L28.4364 45.1448L19.7435 20.6182H19.7453Z" fill="url(#paint0_linear)"/>
<defs>
<linearGradient id="paint0_linear" x2="1" gradientUnits="userSpaceOnUse" gradientTransform="translate(32.5) scale(65) rotate(90)">
<stop stop-color="#ACACAC"/>
<stop offset="1" stop-color="#555555"/>
</linearGradient>
</defs>
</svg>
