<svg width="65" height="65" viewBox="0 0 65 65" fill="none" xmlns="http://www.w3.org/2000/svg">
<path fill-rule="evenodd" clip-rule="evenodd" d="M32.5 0C14.5506 0 0 14.5508 0 32.5C0 50.4492 14.5506 65 32.5 65C50.4492 65 65 50.4492 65 32.5C65 14.5508 50.4492 0 32.5 0ZM15 19C16.932 19.0035 18.8657 19.0035 20.796 19L24.4552 38.565C24.513 38.8537 24.583 39.139 24.6582 39.4225C24.9452 38.285 25.1255 37.123 25.3652 35.975L28.6972 19L34.3042 19.0018C32.248 28.1577 30.1917 37.3155 28.132 46.4714H21.1722C19.1125 37.3207 17.0562 28.17 15 19.0175V19ZM36.5494 27.6309C37.7692 26.0979 39.7187 25.4032 41.5982 25.2807C43.4532 25.1512 45.4517 25.3192 47.0232 26.4252C48.4144 27.3982 49.1774 29.0432 49.5397 30.6794C49.9789 32.7304 50.0017 34.8374 49.9999 36.9269H39.7274C39.7362 38.4722 39.6399 40.0664 40.1562 41.5469C40.4064 42.2749 40.8737 42.9994 41.6157 43.2636C42.4067 43.5209 43.3587 43.3529 43.9362 42.7159C44.7062 41.8444 44.8672 40.6229 45.0352 39.5047H49.6972C49.5922 41.3597 49.2492 43.3196 48.0347 44.7774C46.8167 46.2929 44.8532 46.9124 42.9947 46.9876C40.9752 47.0646 38.7824 46.7899 37.1724 45.4301C35.6762 44.1824 35.0234 42.2049 34.7644 40.3097C34.5054 38.1274 34.4914 35.9189 34.6122 33.7262C34.7749 31.5877 35.1617 29.3232 36.5477 27.6292L36.5494 27.6309ZM40.5289 29.8098C39.7344 30.9543 39.7134 32.4278 39.7274 33.777H45.0334C44.9512 32.4943 44.9599 31.1398 44.3824 29.9655C43.6649 28.5165 41.3969 28.5113 40.5324 29.8115H40.5289V29.8098Z" fill="url(#paint0_linear)"/>
<defs>
<linearGradient id="paint0_linear" x2="1" gradientUnits="userSpaceOnUse" gradientTransform="translate(32.5) scale(65) rotate(90)">
<stop stop-color="#FBA000"/>
<stop offset="1" stop-color="#FF9933"/>
</linearGradient>
</defs>
</svg>
