<svg width="65" height="65" viewBox="0 0 65 65" fill="none" xmlns="http://www.w3.org/2000/svg">
<path fill-rule="evenodd" clip-rule="evenodd" d="M0 32.5C0 14.5508 14.5505 0 32.5 0C50.4492 0 65 14.5508 65 32.5C65 50.4492 50.4492 65 32.5 65C14.5505 65 0 50.4492 0 32.5ZM50.9088 31.0725C50.9224 31.2256 50.936 31.3784 50.953 31.531C50.9568 31.5649 50.9697 31.5981 50.9827 31.6311C50.9888 31.6467 50.9949 31.6624 51 31.678V34.4426C50.996 34.4456 50.9908 34.4482 50.9858 34.4509C50.9751 34.4565 50.9645 34.4622 50.9636 34.469L50.8785 35.1042L50.8638 35.2148C50.8127 35.5989 50.7617 35.9829 50.708 36.3667L50.6869 36.5198L50.6865 36.522L50.6862 36.5242C50.6464 36.814 50.6066 37.1042 50.542 37.3887L50.5244 37.4666L50.5233 37.4717C50.3959 38.0339 50.2681 38.5979 50.0964 39.1472C49.8466 39.9468 49.5721 40.7402 49.2723 41.5225C48.9878 42.2649 48.6857 43.0034 48.3389 43.718C47.9646 44.4893 47.5453 45.24 47.1177 45.9836C46.3229 47.3662 45.4125 48.6694 44.3713 49.8796C44.2734 49.9934 44.1836 50.114 44.0936 50.2349C44.0522 50.2905 44.0107 50.3462 43.9685 50.4011H43.8231L43.5809 50.2249C43.3811 50.0803 43.1812 49.9355 42.9877 49.783C42.8796 49.6978 42.7832 49.5876 42.7103 49.4709C42.6035 49.3 42.4957 49.3203 42.3555 49.4187C42.2675 49.4807 42.1812 49.5469 42.0948 49.6133C41.8789 49.7793 41.6626 49.9456 41.4192 50.0435C40.9728 50.2229 40.5043 50.3347 39.9895 50.1926C38.8846 49.8877 38.0104 49.2124 37.1312 48.5332L37.1212 48.5256C37.0603 48.4788 36.9948 48.4377 36.9216 48.3921L36.9198 48.3909C36.8844 48.3689 36.847 48.3457 36.8077 48.3201L36.9553 48.2192C37.0693 48.1414 37.1737 48.0701 37.2786 47.9995C37.8752 47.5989 38.3668 47.0901 38.8031 46.5234C38.9354 46.3516 39.0698 46.1814 39.2043 46.0112C39.4686 45.6768 39.7329 45.3423 39.9802 44.9956C40.2969 44.552 40.5826 44.085 40.8606 43.6157C41.26 42.9414 41.6543 42.2632 42.0238 41.5723C42.3356 40.989 42.6195 40.3901 42.8967 39.7893L43.0408 39.4778C43.3606 38.7874 43.6807 38.0959 43.9587 37.3889C44.2408 36.6721 44.4661 35.9316 44.6906 35.1938L44.6914 35.1909L44.6923 35.188L44.6931 35.1851C44.8458 34.6829 44.9739 34.1709 45.0729 33.6558C45.106 33.4836 45.0984 33.3035 45.0901 33.1028L45.09 33.1006L45.0898 33.0981C45.0857 33.001 45.0814 32.8989 45.0814 32.7908L45.1782 32.8628C46.17 33.6008 47.1188 34.3069 47.7495 35.4111C47.7642 35.3833 47.7788 35.3601 47.7921 35.3391L47.7943 35.3354L47.7961 35.3325C47.8218 35.292 47.8413 35.261 47.8446 35.2283C47.8635 35.0415 47.8843 34.8552 47.9052 34.6685L47.9093 34.6309L47.9102 34.6235C48.0027 33.7986 48.0952 32.9731 48.0375 32.1406C48.0026 31.637 47.9462 31.1318 47.8521 30.6362C47.7494 30.0952 47.6351 29.5491 47.4474 29.0339C47.3127 28.6638 47.1436 28.3066 46.9742 27.9492L46.9728 27.9463C46.8622 27.7129 46.7515 27.4792 46.6503 27.2419C46.3427 26.5205 45.8868 25.8931 45.4186 25.2771C44.8453 24.5232 44.218 23.8127 43.4799 23.2129L43.4504 23.189L43.4408 23.1812C42.8746 22.7212 42.307 22.2603 41.7111 21.8411C41.2661 21.5281 40.7917 21.241 40.2961 21.0193C39.3295 20.5872 38.3435 20.1965 37.3551 19.8159C37.1497 19.7368 36.9286 19.6985 36.7075 19.6602C36.6002 19.6416 36.4928 19.6228 36.3871 19.5996C36.2695 19.5737 36.1523 19.5459 36.0352 19.5181C35.8082 19.4644 35.5814 19.4106 35.3522 19.3701C35.0992 19.3252 34.8422 19.3018 34.5856 19.2786L34.5757 19.2776L34.5653 19.2766L34.455 19.2666C33.8986 19.2151 32.6212 19.0986 31.4487 19.2136C31.0165 19.2539 30.5848 19.3022 30.1538 19.3545L29.921 19.3816C29.6287 19.4148 29.3358 19.4482 29.0497 19.5105C28.5469 19.6204 28.048 19.7537 27.5553 19.9031C26.1696 20.3232 24.8386 20.8726 23.6122 21.6526C23.4965 21.7261 23.3798 21.7986 23.2629 21.8711L23.2579 21.8743C22.8582 22.1226 22.4576 22.3716 22.0946 22.666C21.2094 23.384 20.3236 24.1094 19.6624 25.0596C19.5459 25.2268 19.4237 25.3909 19.3015 25.5549L19.2936 25.5657C19.0485 25.8945 18.8033 26.2234 18.6028 26.5774C18.2631 27.1772 17.984 27.8164 17.7303 28.4587C17.5272 28.9731 17.3859 29.5139 17.2456 30.0505L17.2438 30.0574C17.1541 30.4001 17.0834 30.7546 17.0621 31.1074C17.0217 31.782 16.9974 32.4595 17.014 33.1345C17.0244 33.5547 17.0649 33.9744 17.1072 34.4114L17.1099 34.439L17.1111 34.4519C17.1289 34.6375 17.147 34.8259 17.163 35.0193C17.2997 34.8699 17.4305 34.7212 17.5592 34.575L17.5643 34.5691C17.8557 34.2375 18.1361 33.9187 18.4475 33.6335C18.76 33.3472 19.1031 33.0942 19.4645 32.8279C19.6278 32.7075 19.7949 32.5842 19.9646 32.4541C19.9646 32.5012 19.9635 32.5417 19.9624 32.5784L19.9623 32.5818L19.9622 32.5842C19.9606 32.6494 19.9592 32.7017 19.9662 32.7522L20.0052 33.0391L20.0056 33.0422L20.0065 33.0483C20.0632 33.4663 20.12 33.8845 20.1899 34.3005C20.2422 34.6113 20.3204 34.9185 20.4003 35.2239L20.436 35.3611C20.5208 35.687 20.6057 36.0137 20.7179 36.3301C20.9198 36.9001 21.1359 37.4661 21.3708 38.0232L21.3792 38.0427C21.7201 38.8511 22.0615 39.6602 22.4425 40.45C22.8782 41.353 23.3372 42.2461 23.8251 43.1221C24.2551 43.894 24.7072 44.658 25.2086 45.3848C25.6564 46.0339 26.1606 46.6492 26.6871 47.2371C26.9061 47.4817 27.1671 47.689 27.4377 47.9036C27.5621 48.0022 27.6886 48.1025 27.814 48.209C27.7623 48.2488 27.7095 48.291 27.6555 48.3342L27.6222 48.3608C27.4696 48.4834 27.3076 48.6133 27.1348 48.7271C26.9653 48.8386 26.7896 48.9417 26.6139 49.0444L26.6096 49.0469L26.6064 49.0488C26.3153 49.2197 26.0247 49.3904 25.764 49.5994C25.2772 49.9895 24.7195 50.0271 24.1566 50.0542C23.5408 50.084 23.0328 49.769 22.5582 49.4197C22.423 49.3201 22.3783 49.332 22.286 49.4556C21.968 49.8806 21.5204 50.0903 21.0167 50.2229C20.8586 50.2646 20.7712 50.2351 20.686 50.1274C20.5645 49.9736 20.441 49.8213 20.3176 49.6689C20.0159 49.2961 19.7141 48.9233 19.439 48.5317C18.8702 47.7229 18.3042 46.908 17.8036 46.0566C17.3566 45.2964 16.9727 44.4973 16.5901 43.7007L16.5891 43.6987L16.5848 43.6897L16.5272 43.5696C15.8492 42.1584 15.3226 40.6875 14.8942 39.1831C14.7042 38.5161 14.5342 37.8411 14.3984 37.1611C14.3025 36.6814 14.244 36.1938 14.1857 35.7068L14.1854 35.7046L14.1478 35.394C14.1185 35.1567 14.0992 34.9185 14.08 34.6799L14.0778 34.6531C14.0675 34.5266 14.0573 34.4001 14.0453 34.2742C14.0436 34.2566 14.0304 34.24 14.0172 34.2234L14.0149 34.2205C14.0095 34.2136 14.0044 34.207 14 34.2002V31.7263C14.0042 31.7217 14.009 31.7173 14.0142 31.7129L14.016 31.7112C14.0284 31.7002 14.041 31.6892 14.0427 31.6765C14.0734 31.4607 14.0996 31.2434 14.1259 31.0266L14.1263 31.0225L14.1287 31.0027C14.1869 30.5183 14.2451 30.0339 14.351 29.5603C14.5515 28.6616 14.7913 27.7666 15.0928 26.8975C15.3481 26.1616 15.6819 25.4473 16.0424 24.7556C16.4357 24.0007 16.859 23.2546 17.3441 22.5566C17.8373 21.8467 18.3837 21.1643 18.9763 20.5354C19.6189 19.8535 20.3062 19.2024 21.0396 18.6208C21.7809 18.0332 22.5754 17.4995 23.3966 17.0298C24.2452 16.5442 25.1431 16.1387 26.0405 15.7466C26.6093 15.498 27.2062 15.2947 27.8092 15.1487C28.5992 14.9573 29.4054 14.8281 30.2091 14.7C30.7654 14.6113 31.3278 14.5457 31.8899 14.5137C32.2218 14.4946 32.5551 14.4998 32.8882 14.5046L32.8981 14.5049L32.9078 14.5051C33.1179 14.5085 33.328 14.5117 33.5378 14.5093C34.451 14.4983 35.697 14.8088 36.387 14.9807C36.4944 15.0076 36.5883 15.031 36.6654 15.0493C37.2482 15.1877 37.8237 15.3701 38.3864 15.5767C39.0673 15.8267 39.7479 16.0886 40.3983 16.4075C41.1111 16.7568 41.8024 17.1555 42.4794 17.5715C43.3685 18.1177 44.1875 18.7666 44.9381 19.4895C45.5682 20.0964 46.1732 20.7336 46.7443 21.3962C47.1824 21.9048 47.5767 22.4568 47.9421 23.0208C48.3237 23.6099 48.6665 24.2266 48.9911 24.8494C49.2961 25.4346 49.5852 26.0322 49.8259 26.646C50.0547 27.2292 50.2277 27.8364 50.3959 28.4409C50.5519 29.0017 50.6917 29.5688 50.7969 30.1409C50.853 30.4468 50.8807 30.7576 50.9084 31.0686L50.9088 31.0725ZM28.0237 42.8352C27.7223 41.9268 27.3718 41.0317 26.9875 40.1555C26.6006 39.2732 26.1606 38.4133 25.7159 37.5586C25.4275 37.0046 25.109 36.4658 24.7909 35.9277L24.6592 35.7048C24.4408 35.3347 24.2161 34.9663 23.9659 34.6179C23.6764 34.2146 23.3633 33.8279 23.046 33.4465C22.824 33.1797 22.5977 32.9099 22.3368 32.6848C22.057 32.4431 21.744 32.2363 21.4266 32.0464C21.278 31.9575 21.0562 31.8647 20.9188 31.9155C20.702 31.9958 20.49 32.1584 20.4517 32.4453C20.4337 32.5789 20.4064 32.7112 20.3789 32.8435C20.3666 32.9026 20.3544 32.9617 20.3429 33.021L20.3796 33.0327C20.3932 33.1555 20.4031 33.2791 20.413 33.4026C20.4349 33.677 20.4569 33.9514 20.5192 34.2163C20.6738 34.8733 20.8582 35.5256 21.0731 36.165C21.252 36.697 21.4541 37.2209 21.6564 37.7449C21.7373 37.9546 21.8182 38.1646 21.8977 38.3748C21.916 38.4233 21.9376 38.4705 21.9592 38.5176C21.9794 38.5615 21.9995 38.6055 22.017 38.6506C22.0631 38.7695 22.1073 38.8892 22.1515 39.009L22.1534 39.0142L22.1567 39.0229C22.245 39.2617 22.3333 39.5007 22.436 39.7329C22.5815 40.0623 22.7412 40.385 22.9009 40.7078L23.0607 41.032L23.1766 41.2703C23.3151 41.5554 23.4535 41.8406 23.6017 42.1204C23.7239 42.3511 23.8544 42.5774 23.9849 42.8037C24.0487 42.9143 24.1127 43.0251 24.1755 43.1365C24.2435 43.2568 24.3103 43.3779 24.377 43.4993C24.5165 43.7529 24.6561 44.0066 24.8081 44.2527C25.0356 44.6208 25.281 44.9783 25.526 45.3354L25.5317 45.3438L25.5892 45.4275L25.6613 45.533C25.8114 45.7534 25.9622 45.9749 26.1361 46.1743C26.4589 46.5447 26.7865 46.9153 27.1493 47.2432C27.4386 47.5049 27.7472 47.7656 28.1866 47.7581C28.4589 47.7534 28.6376 47.6389 28.7007 47.3481C28.8544 46.6399 28.8224 45.9246 28.6554 45.2231L28.594 44.9646C28.4246 44.2488 28.2545 43.531 28.0237 42.8352ZM38.9875 45.4792C38.8188 45.7153 38.65 45.9517 38.4534 46.1619C38.3711 46.2498 38.2904 46.3396 38.2096 46.4294C37.8762 46.8 37.5415 47.1721 37.0938 47.4182C36.8966 47.5266 36.6941 47.6311 36.4829 47.7061C36.3622 47.749 36.1582 47.7881 36.098 47.7261C35.9443 47.5681 35.7983 47.3662 35.7424 47.1572C35.589 46.583 35.7122 46.0068 35.847 45.446C36.0333 44.6714 36.2415 43.9011 36.4688 43.1375C36.5767 42.7756 36.7233 42.4243 36.8694 42.0742L36.9325 41.9229C37.2034 41.2703 37.475 40.6177 37.7682 39.9751C37.922 39.6382 38.099 39.3115 38.2758 38.9854L38.3978 38.7593L38.579 38.4199C38.8102 37.9856 39.0414 37.5515 39.2921 37.1287C39.63 36.5591 39.993 36.0042 40.3582 35.4514L40.4514 35.3098C40.6774 34.9661 40.9044 34.6206 41.1709 34.3103C41.3987 34.0452 41.6427 33.7942 41.8867 33.543C42.1106 33.3125 42.3345 33.082 42.5459 32.8408C42.9066 32.429 43.3707 32.1765 43.8438 31.9487C44.1727 31.7903 44.5927 32.0408 44.6476 32.4939C44.6609 32.6035 44.6573 32.7148 44.6538 32.8264C44.6522 32.8774 44.6506 32.9287 44.6506 32.9795C44.6598 33.7524 44.4807 34.491 44.2411 35.2192C44.1873 35.3828 44.1368 35.5474 44.0864 35.7122C44.0004 35.9929 43.9143 36.2737 43.8119 36.5483C43.6744 36.9167 43.514 37.2769 43.3538 37.6367L43.2585 37.8508L43.0891 38.2358C42.8719 38.7307 42.6548 39.2253 42.4185 39.7109C42.0475 40.4734 41.6671 41.2324 41.2574 41.9749C40.8684 42.6797 40.4493 43.3691 40.0186 44.0498C39.8241 44.3569 39.6045 44.6484 39.385 44.9397C39.311 45.0381 39.2369 45.1365 39.1638 45.2354C39.1044 45.3159 39.0459 45.3977 38.9875 45.4792Z" fill="url(#paint0_linear)"/>
<defs>
<linearGradient id="paint0_linear" x2="1" gradientUnits="userSpaceOnUse" gradientTransform="translate(32.5 65) scale(65) rotate(-90)">
<stop stop-color="#6CFCCD"/>
<stop offset="1" stop-color="#7AEDD6"/>
</linearGradient>
</defs>
</svg>
