<svg width="65" height="65" viewBox="0 0 65 65" fill="none" xmlns="http://www.w3.org/2000/svg">
<path fill-rule="evenodd" clip-rule="evenodd" d="M32.5 0C14.5506 0 0 14.5508 0 32.5C0 50.4492 14.5506 65 32.5 65C50.4492 65 65 50.4492 65 32.5C65 14.5508 50.4492 0 32.5 0ZM14.3281 40V37.3926L21.8477 28.1055H15.1777V25.6836H25.6562V27.9297L17.8145 37.5879H25.959V40H14.3281ZM27.0527 35.3418L29.8652 35.0684C30.0345 36.0124 30.3779 36.7057 30.8955 37.1484C31.4131 37.5911 32.1113 37.8125 32.9902 37.8125C33.9212 37.8125 34.6227 37.6156 35.0947 37.2217C35.5667 36.8278 35.8027 36.3672 35.8027 35.8398C35.8027 35.5013 35.7035 35.2132 35.5049 34.9756C35.3063 34.738 34.9596 34.5312 34.4648 34.3555C34.1263 34.2383 33.3548 34.0299 32.1504 33.7305C30.6009 33.3464 29.5137 32.8744 28.8887 32.3145C28.0098 31.5267 27.5703 30.5664 27.5703 29.4336C27.5703 28.7044 27.777 28.0225 28.1904 27.3877C28.6038 26.7529 29.1995 26.2695 29.9775 25.9375C30.7555 25.6055 31.6947 25.4395 32.7949 25.4395C34.5918 25.4395 35.9443 25.8333 36.8525 26.6211C37.7607 27.4089 38.2376 28.4603 38.2832 29.7754L35.3926 29.9023C35.2689 29.1667 35.0036 28.6377 34.5967 28.3154C34.1898 27.9932 33.5794 27.832 32.7656 27.832C31.9258 27.832 31.2682 28.0046 30.793 28.3496C30.487 28.571 30.334 28.8672 30.334 29.2383C30.334 29.5768 30.4772 29.8665 30.7637 30.1074C31.1283 30.4134 32.0137 30.7324 33.4199 31.0645C34.8262 31.3965 35.8662 31.7399 36.54 32.0947C37.2139 32.4495 37.7412 32.9346 38.1221 33.5498C38.5029 34.165 38.6934 34.9251 38.6934 35.8301C38.6934 36.6504 38.4655 37.4186 38.0098 38.1348C37.554 38.8509 36.9095 39.3831 36.0762 39.7314C35.2428 40.0798 34.2044 40.2539 32.9609 40.2539C31.151 40.2539 29.7611 39.8356 28.791 38.999C27.821 38.1624 27.2415 36.9434 27.0527 35.3418ZM44.3477 40V28.1055H40.0996V25.6836H51.4766V28.1055H47.2383V40H44.3477Z" fill="url(#paint0_linear)"/>
<defs>
<linearGradient id="paint0_linear" x2="1" gradientUnits="userSpaceOnUse" gradientTransform="translate(32.5) scale(65) rotate(90)">
<stop stop-color="#ACACAC"/>
<stop offset="1" stop-color="#555555"/>
</linearGradient>
</defs>
</svg>
