<svg width="45" height="43" viewBox="0 0 45 43" version="1.1" xmlns="http://www.w3.org/2000/svg" xmlns:xlink="http://www.w3.org/1999/xlink">
<title>4J</title>
<desc>Created using Figma</desc>
<g id="Canvas" transform="translate(-402 -818)">
<g id="4J">
<g id="4J">
<use xlink:href="#path0_fill" transform="translate(402.75 818.49)" fill="#182848"/>
</g>
</g>
</g>
<defs>
<path id="path0_fill" fill-rule="evenodd" d="M 4.72421 17.29L 12.6922 25.06C 13.0452 25.4 13.2072 25.9 13.1242 26.38L 11.2422 37.35L 21.0922 32.17C 21.5292 31.94 22.0512 31.94 22.4882 32.17L 32.3372 37.35L 30.4572 26.38C 30.3732 25.9 30.5352 25.4 30.8882 25.06L 38.8562 17.29L 27.8442 15.69C 27.3552 15.62 26.9332 15.31 26.7142 14.87L 21.7902 4.89001L 16.8652 14.87C 16.6462 15.31 16.2242 15.62 15.7362 15.69L 4.72421 17.29ZM 9.25021 41.59C 8.93921 41.59 8.63021 41.5 8.36821 41.31C 7.90621 40.97 7.67521 40.4 7.77121 39.84L 10.0332 26.65L 0.453209 17.32C 0.0442095 16.92 -0.102791 16.32 0.0732095 15.78C 0.25021 15.23 0.719209 14.84 1.28421 14.76L 14.5242 12.83L 20.4452 0.84C 20.6982 0.32 21.2192 0 21.7902 0C 22.3612 0 22.8822 0.32 23.1352 0.84L 29.0562 12.83L 42.2952 14.76C 42.8602 14.84 43.3302 15.23 43.5062 15.78C 43.6832 16.32 43.5362 16.92 43.1262 17.32L 33.5472 26.65L 35.8082 39.84C 35.9042 40.4 35.6732 40.97 35.2112 41.31C 34.7492 41.64 34.1382 41.69 33.6312 41.42L 21.7902 35.2L 9.94821 41.42C 9.72921 41.54 9.48921 41.59 9.25021 41.59Z"/>
</defs>
</svg>
