<svg width="80" height="80" viewBox="0 0 80 80" fill="none" xmlns="http://www.w3.org/2000/svg">
<path fill-rule="evenodd" clip-rule="evenodd" d="M40 80C62.0914 80 80 62.0914 80 40C80 17.9086 62.0914 0 40 0C17.9086 0 0 17.9086 0 40C0 62.0914 17.9086 80 40 80ZM47.5007 15C43.1334 15 39.4543 17.9471 38.3438 21.961C40.6075 24.3004 42.0005 27.4875 42.0005 31C42.0005 31.1969 41.9961 31.3927 41.9875 31.5875C43.4272 31.2042 44.94 31 46.5005 31C48.7974 31 50.991 31.4425 53.0006 32.2469C55.4214 30.5252 57.0007 27.697 57.0007 24.5C57.0007 19.2533 52.7473 15 47.5007 15ZM44.3934 26.5355L43.4896 26.8864L43.9254 25.139L44.8398 24.7717L46.1578 19.4333H49.4062L48.4442 23.3575L49.3372 22.9958L48.9064 24.7375L48.0028 25.0991L47.4656 27.305H52.3562L51.8034 29.5667H43.6492L44.3934 26.5355ZM44.3174 43.5627L44.3182 43.5624L44.3182 43.5624C45.6416 43.145 48.3497 42.2908 48.9283 44.308C49.4932 46.2804 46.6425 47.0476 45.3348 47.3996L45.3347 47.3996L45.3338 47.3998C45.215 47.4318 45.1089 47.4602 45.0196 47.4861L43.929 43.6825C44.0377 43.651 44.1687 43.6099 44.3174 43.5627ZM46.7721 53.5998L45.5699 49.4057C45.6999 49.3687 45.8562 49.3199 46.0339 49.2641C47.6215 48.7681 50.8748 47.7517 51.5109 49.9708C52.1344 52.1407 48.711 53.0713 47.1453 53.4967C47.0041 53.5348 46.8787 53.5693 46.7721 53.5998ZM50.8062 54.9056L51.712 58.0654L49.8071 58.6122L48.9141 55.4945C48.4206 55.6366 47.9134 55.7773 47.388 55.9164L48.2861 59.0478L46.3832 59.5936L45.4745 56.4286C45.2925 56.4796 45.1089 56.53 44.9239 56.5809L44.9239 56.5809C44.6552 56.6548 44.3836 56.7295 44.1103 56.8074L41.6312 57.5181L41.3576 55.1345C41.3576 55.1345 42.773 54.7527 42.7426 54.738C43.2812 54.5827 43.3127 54.1547 43.2772 53.9019L41.8455 48.9072C41.915 48.8864 41.9831 48.8671 42.0465 48.8493C41.9648 48.861 41.8947 48.8787 41.8414 48.8935L40.8189 45.3279C40.6351 44.9624 40.2554 44.5867 39.4837 44.8075C39.4994 44.7751 38.1007 45.2051 38.1007 45.2051L37.5164 43.1707L40.1442 42.4184L40.1472 42.428C40.5422 42.3143 40.9454 42.1904 41.3551 42.064L40.4585 38.9351L42.3628 38.3888L43.2421 41.4563C43.7478 41.3004 44.2565 41.144 44.7576 40.9999L43.8839 37.9527L45.7887 37.4064L46.6863 40.5363C49.207 40.0464 51.3713 40.2444 52.2354 42.4387C52.8705 44.043 52.4639 45.232 51.5206 46.1113C53.464 46.0265 54.913 46.7805 55.3826 49.2666C55.9669 52.3539 53.9565 53.8034 50.8062 54.9056ZM46.5 32C37.3874 32 30 39.3874 30 48.5C30 57.6126 37.3874 65 46.5 65C55.6126 65 63 57.6126 63 48.5C63 39.3874 55.6126 32 46.5 32ZM29 43C29.3002 43 29.5979 42.989 29.8926 42.9673C31.629 37.7527 35.7527 33.629 40.9673 31.8926C40.989 31.5979 41 31.3002 41 31C41 24.3723 35.6274 19 29 19C22.3726 19 17 24.3723 17 31C17 37.6277 22.3726 43 29 43ZM23.4758 30.0621L28.8609 27.8135L34.0805 30.1175L28.8527 21.9538L23.4758 30.0621ZM23.4923 32.5544L28.8693 35.6412L34.3538 32.5544L28.919 40.0462L23.4923 32.5544ZM28.8858 28.9101L23.2769 31.2511L28.8858 34.3342L34.3373 31.3175L28.8858 28.9101Z" fill="url(#paint0_linear)"/>
<defs>
<linearGradient id="paint0_linear" x1="39.9978" y1="0" x2="39.9978" y2="80" gradientUnits="userSpaceOnUse">
<stop stop-color="#C05AFF"/>
<stop offset="1" stop-color="#6E00C4"/>
</linearGradient>
</defs>
</svg>
