<svg width="80" height="80" viewBox="0 0 80 80" fill="none" xmlns="http://www.w3.org/2000/svg">
<path fill-rule="evenodd" clip-rule="evenodd" d="M40 80C62.0914 80 80 62.0914 80 40C80 17.9086 62.0914 0 40 0C17.9086 0 0 17.9086 0 40C0 62.0914 17.9086 80 40 80ZM28.2586 30.3548C34.3515 30.3548 39.2908 28.7084 39.2908 26.6774C39.2908 24.6464 34.3515 23 28.2586 23C22.1656 23 17.2263 24.6464 17.2263 26.6774C17.2263 28.7084 22.1656 30.3548 28.2586 30.3548ZM16.0009 26.6774H16V31.5806C16 34.2886 21.4881 36.4839 28.2581 36.4839C35.028 36.4839 40.5161 34.2886 40.5161 31.5806V26.739C40.4338 29.4186 34.9776 31.5807 28.259 31.5807C21.4891 31.5807 16.0009 29.3855 16.0009 26.6775V26.6774ZM16 32.8065H16.0009C16.0011 35.5144 21.4892 37.7096 28.259 37.7096C34.9776 37.7096 40.4338 35.5475 40.5161 32.8678V37.7097C40.5161 40.4177 35.028 42.6129 28.2581 42.6129C21.4881 42.6129 16 40.4177 16 37.7097V32.8065ZM16.0009 38.9355H16V43.8388C16 46.5467 21.4881 48.742 28.2581 48.742C35.028 48.742 40.5161 46.5467 40.5161 43.8388V38.9969C40.4338 41.6766 34.9776 43.8387 28.259 43.8387C21.4891 43.8387 16.0011 41.6435 16.0009 38.9355ZM16.0009 45.0645H16V49.9677C16 52.6757 21.4881 54.8709 28.2581 54.8709C35.028 54.8709 40.5161 52.6757 40.5161 49.9677V45.126C40.4338 47.8057 34.9776 49.9678 28.259 49.9678C21.4891 49.9678 16.0009 47.7725 16.0009 45.0645V45.0645ZM41.743 51.1935H41.7421V56.0968C41.7421 58.8047 47.2302 61 54.0002 61C60.7701 61 66.2582 58.8047 66.2582 56.0968V51.2522C66.1798 53.9332 60.7221 56.0969 54.001 56.0969C47.2311 56.0969 41.743 53.9016 41.743 51.1936V51.1935ZM41.7421 45.0645H41.743V45.0645C41.743 47.7725 47.2311 49.9678 54.001 49.9678C60.7221 49.9678 66.1798 47.8041 66.2582 45.1231V49.9677C66.2582 52.6757 60.7701 54.8709 54.0002 54.8709C47.2302 54.8709 41.7421 52.6757 41.7421 49.9677V45.0645ZM65.0329 45.0645C65.0329 47.0955 60.0936 48.7419 54.0007 48.7419C47.9077 48.7419 42.9684 47.0955 42.9684 45.0645C42.9684 43.0335 47.9077 41.3871 54.0007 41.3871C60.0936 41.3871 65.0329 43.0335 65.0329 45.0645Z" fill="url(#paint0_linear)"/>
<defs>
<linearGradient id="paint0_linear" x1="39.9978" y1="0" x2="39.9978" y2="80" gradientUnits="userSpaceOnUse">
<stop stop-color="#FFE55A"/>
<stop offset="1" stop-color="#C4A500"/>
</linearGradient>
</defs>
</svg>
