<svg width="80" height="80" viewBox="0 0 80 80" fill="none" xmlns="http://www.w3.org/2000/svg">
<g clip-path="url(#clip0)">
<path fill-rule="evenodd" clip-rule="evenodd" d="M80 40C80 62.0914 62.0914 80 40 80C17.9086 80 0 62.0914 0 40C0 17.9086 17.9086 0 40 0C62.0914 0 80 17.9086 80 40ZM34.1049 35.625C35.0334 33.9379 35.5617 31.9994 35.5617 29.9375C35.5617 27.8756 35.0334 25.9371 34.1049 24.25H46.0617V35.625H34.1049ZM60.9375 29.9375L46.0625 19V40.875L60.9375 29.9375ZM44.8944 44.375H32.9375V39.125L18.0625 50.0625L32.9375 61V55.75H44.8944C43.9658 54.0629 43.4375 52.1244 43.4375 50.0625C43.4375 48.0006 43.9658 46.0621 44.8944 44.375ZM24 41C30.0751 41 35 36.0754 35 30C35 23.9246 30.0751 19 24 19C17.9249 19 13 23.9246 13 30C13 36.0754 17.9249 41 24 41ZM18.9361 29.1403L23.8725 27.0791L28.6571 29.1911L23.865 21.7077L18.9361 29.1403ZM18.9513 31.4249L23.8801 34.2544L28.9077 31.4249L23.9257 38.2923L18.9513 31.4249ZM23.8953 28.0843L18.7538 30.2302L23.8953 33.0563L28.8925 30.2911L23.8953 28.0843ZM53.5455 46.7083L53.545 46.7085C53.4458 46.7399 53.3585 46.7673 53.286 46.7883L54.013 49.3241C54.0726 49.3068 54.1434 49.2879 54.2226 49.2666L54.2231 49.2664C55.095 49.0318 56.9955 48.5203 56.6189 47.2053C56.2331 45.8606 54.4277 46.43 53.5455 46.7083ZM54.3799 50.6038L55.1814 53.3998C55.2525 53.3795 55.3361 53.3565 55.4302 53.3311C56.474 53.0475 58.7562 52.4271 58.3406 50.9805C57.9165 49.5011 55.7477 50.1787 54.6893 50.5094C54.5708 50.5466 54.4666 50.5791 54.3799 50.6038ZM58.4746 56.377L57.8708 54.2704C59.971 53.5356 61.3113 52.5693 60.9217 50.5111C60.6086 48.8536 59.6427 48.351 58.347 48.4075C58.9759 47.8213 59.247 47.0286 58.8236 45.9591C58.2475 44.4963 56.8047 44.3643 55.1242 44.6909L54.5258 42.6043L53.2559 42.9685L53.8384 44.9999C53.5043 45.096 53.1652 45.2003 52.8281 45.3042L52.2419 43.2592L50.9723 43.6234L51.57 45.7093C51.2969 45.7936 51.0282 45.8762 50.7648 45.952L50.7628 45.9456L49.0109 46.4472L49.4005 47.8034C49.4005 47.8034 50.333 47.5167 50.3225 47.5384C50.8369 47.3911 51.0901 47.6416 51.2126 47.8853L51.8943 50.2623C51.9298 50.2525 51.9765 50.2406 52.031 50.2329C51.9887 50.2447 51.9433 50.2576 51.897 50.2714L52.8514 53.6012C52.8751 53.7698 52.8542 54.0551 52.495 54.1587C52.5154 54.1685 51.5717 54.423 51.5717 54.423L51.7541 56.0121L53.4069 55.5382C53.5891 55.4863 53.77 55.4366 53.9491 55.3873C54.0725 55.3534 54.195 55.3197 54.3163 55.2858L54.9222 57.3957L56.1907 57.0319L55.592 54.9442C55.9423 54.8515 56.2804 54.7578 56.6094 54.663L57.2047 56.7415L58.4746 56.377ZM44 50C44 43.925 48.925 39 55 39C61.075 39 66 43.925 66 50C66 56.075 61.075 61 55 61C48.925 61 44 56.075 44 50Z" fill="url(#paint0_linear)"/>
</g>
<defs>
<filter id="filter0_d" x="-114" y="-49" width="308" height="358" filterUnits="userSpaceOnUse" color-interpolation-filters="sRGB">
<feFlood flood-opacity="0" result="BackgroundImageFix"/>
<feColorMatrix in="SourceAlpha" type="matrix" values="0 0 0 0 0 0 0 0 0 0 0 0 0 0 0 0 0 0 127 0"/>
<feOffset dy="4"/>
<feGaussianBlur stdDeviation="2"/>
<feColorMatrix type="matrix" values="0 0 0 0 0 0 0 0 0 0 0 0 0 0 0 0 0 0 0.25 0"/>
<feBlend mode="normal" in2="BackgroundImageFix" result="effect1_dropShadow"/>
<feBlend mode="normal" in="SourceGraphic" in2="effect1_dropShadow" result="shape"/>
</filter>
<filter id="filter1_d" x="-114" y="-50" width="308" height="358" filterUnits="userSpaceOnUse" color-interpolation-filters="sRGB">
<feFlood flood-opacity="0" result="BackgroundImageFix"/>
<feColorMatrix in="SourceAlpha" type="matrix" values="0 0 0 0 0 0 0 0 0 0 0 0 0 0 0 0 0 0 127 0"/>
<feOffset dy="4"/>
<feGaussianBlur stdDeviation="2"/>
<feColorMatrix type="matrix" values="0 0 0 0 0 0 0 0 0 0 0 0 0 0 0 0 0 0 0.25 0"/>
<feBlend mode="normal" in2="BackgroundImageFix" result="effect1_dropShadow"/>
<feBlend mode="normal" in="SourceGraphic" in2="effect1_dropShadow" result="shape"/>
</filter>
<linearGradient id="paint0_linear" x1="39.9978" y1="0" x2="39.9978" y2="80" gradientUnits="userSpaceOnUse">
<stop stop-color="#00FF29"/>
<stop offset="1" stop-color="#00893F"/>
</linearGradient>
<clipPath id="clip0">
<rect width="1920" height="2810" fill="white" transform="translate(-750 -1113)"/>
</clipPath>
</defs>
</svg>
