<svg width="80" height="80" viewBox="0 0 80 80" fill="none" xmlns="http://www.w3.org/2000/svg">
<path fill-rule="evenodd" clip-rule="evenodd" d="M80 40C80 62.0914 62.0914 80 40 80C17.9086 80 0 62.0914 0 40C0 17.9086 17.9086 0 40 0C62.0914 0 80 17.9086 80 40ZM20.8429 22.7369C18.6338 22.7369 16.8429 24.5277 16.8429 26.7369V53.2632C16.8429 55.4723 18.6338 57.2632 20.843 57.2632H47.0526L57.8419 68.0525V57.2632H60.3166C62.5258 57.2632 64.3166 55.4723 64.3166 53.2632V26.7369C64.3166 24.5277 62.5258 22.7369 60.3166 22.7369H20.8429ZM20.0793 27.9736C20.0793 26.8691 20.9747 25.9736 22.0793 25.9736H59.0793C60.1839 25.9736 61.0793 26.8691 61.0793 27.9736V52.0263C61.0793 53.1308 60.1839 54.0263 59.0793 54.0263H54.6058V60.5L48.1321 54.0263H22.0793C20.9747 54.0263 20.0793 53.1308 20.0793 52.0263V27.9736ZM38.7576 46.3899C38.8896 46.5219 39.0546 46.5879 39.2526 46.5879H41.0346C41.4746 46.5879 41.7496 46.3349 41.8596 45.8289C41.8596 45.5209 41.8816 45.0589 41.9256 44.4429C41.9916 43.6949 42.2336 43.0239 42.6516 42.4299C43.0696 41.8139 43.6966 41.0659 44.5326 40.1859C45.5446 39.1079 46.3036 38.1619 46.8096 37.3479C47.3156 36.5339 47.5686 35.5659 47.5686 34.4439C47.5686 33.4319 47.3046 32.4859 46.7766 31.6059C46.2486 30.7039 45.4236 29.9779 44.3016 29.4279C43.2016 28.8559 41.8376 28.5699 40.2096 28.5699C38.6696 28.5699 37.3056 28.8779 36.1176 29.4939C34.9296 30.1099 34.0056 30.9349 33.3456 31.9689C32.7076 32.9809 32.3666 34.0919 32.3226 35.3019C32.3226 35.5219 32.3886 35.6979 32.5206 35.8299C32.6526 35.9619 32.8286 36.0279 33.0486 36.0279H34.6326C35.0946 36.0279 35.3806 35.7859 35.4906 35.3019C35.9526 32.6619 37.4926 31.3419 40.1106 31.3419C41.2326 31.3419 42.2116 31.6389 43.0476 32.2329C43.9056 32.8269 44.3346 33.6299 44.3346 34.6419C44.3346 35.3239 44.1366 35.9509 43.7406 36.5229C43.3446 37.0949 42.7176 37.8209 41.8596 38.7009C40.8036 39.7789 40.0006 40.7359 39.4506 41.5719C38.9006 42.4079 38.6036 43.4089 38.5596 44.5749V45.8949C38.5596 46.0929 38.6256 46.2579 38.7576 46.3899ZM38.4276 51.8019C38.5816 51.9339 38.7686 51.9999 38.9886 51.9999H41.1336C41.3536 51.9999 41.5406 51.9339 41.6946 51.8019C41.8486 51.6479 41.9256 51.4609 41.9256 51.2409V49.2279C41.9256 49.0079 41.8486 48.8319 41.6946 48.6999C41.5406 48.5459 41.3536 48.4689 41.1336 48.4689H38.9886C38.7686 48.4689 38.5816 48.5459 38.4276 48.6999C38.2956 48.8319 38.2296 49.0079 38.2296 49.2279V51.2409C38.2296 51.4609 38.2956 51.6479 38.4276 51.8019Z" fill="url(#paint0_linear)"/>
<defs>
<linearGradient id="paint0_linear" x1="40" y1="0" x2="40" y2="80" gradientUnits="userSpaceOnUse">
<stop stop-color="#3D3D3D"/>
<stop offset="1"/>
</linearGradient>
</defs>
</svg>
