<svg width="80" height="80" viewBox="0 0 80 80" fill="none" xmlns="http://www.w3.org/2000/svg">
<path fill-rule="evenodd" clip-rule="evenodd" d="M40 80C62.0914 80 80 62.0914 80 40C80 17.9086 62.0914 0 40 0C17.9086 0 0 17.9086 0 40C0 62.0914 17.9086 80 40 80ZM32.5177 31.0221C32.5177 26.8789 35.8654 23.5179 40.0019 23.4998C44.1531 23.5007 47.5179 26.8682 47.5179 31.0221C47.5179 35.1763 44.1525 38.5439 40.0009 38.5443C35.8649 38.5257 32.5177 35.165 32.5177 31.0221ZM30.1434 48.8762C24.705 32.3248 27.9321 20.4532 39.9978 13.0027V13L40 13.0013L40.0022 13V13.0027C52.0679 20.4532 55.295 32.3248 49.8566 48.8762L49.9868 48.889C50.9408 48.9812 51.7242 49.683 51.9214 50.6214L54.9858 65.2074C55.1203 65.848 54.2683 66.2733 53.8221 65.7947C51.8085 63.6346 48.3634 60.2809 45.5802 59.319C45.394 59.7054 45.2039 60.0938 45.0101 60.4843H45.0143V62.2082C45.0143 62.7275 44.5935 63.1484 44.0745 63.1484H41.5686H40.0024H39.9975H38.4314H35.9254C35.4065 63.1484 34.9857 62.7275 34.9857 62.2082V60.4843H34.9899C34.7961 60.0938 34.606 59.7054 34.4198 59.319C31.6366 60.2809 28.1914 63.6346 26.1779 65.7947C25.7317 66.2733 24.8797 65.848 25.0142 65.2074L28.0786 50.6214C28.2757 49.683 29.0592 48.9812 30.0131 48.889L30.1434 48.8762ZM39.9981 24.7536C36.5554 24.7738 33.7707 27.5725 33.7707 31.0221C33.7707 34.4719 36.5558 37.271 39.999 37.2907H40.0002C43.4602 37.2907 46.265 34.4841 46.265 31.0221C46.265 27.5601 43.4602 24.7535 40.0002 24.7535L39.9981 24.7536Z" fill="url(#paint0_linear)"/>
<defs>
<linearGradient id="paint0_linear" x1="40" y1="0" x2="40" y2="80" gradientUnits="userSpaceOnUse">
<stop stop-color="#41D4FC"/>
<stop offset="1" stop-color="#0A91B6"/>
</linearGradient>
</defs>
</svg>
