<svg width="80" height="80" viewBox="0 0 80 80" fill="none" xmlns="http://www.w3.org/2000/svg">
<path fill-rule="evenodd" clip-rule="evenodd" d="M80 40C80 62.0914 62.0914 80 40 80C17.9086 80 0 62.0914 0 40C0 17.9086 17.9086 0 40 0C62.0914 0 80 17.9086 80 40ZM40.1429 18L20 23.875C20 34.3194 20 54.5556 40.1429 65C60.2857 54.5556 60.2857 34.3194 60.2857 23.875L40.1429 18ZM40.1422 21.3572L22.8778 26.8125C22.8778 34.5371 25.0351 54.6799 40.1422 61.6429C55.2493 54.6799 57.4076 33.7755 57.4076 26.8125L40.1422 21.3572ZM55.2497 28.0713L40.1425 23.0356L40.1429 33.1071C40.1429 36.1696 40.1429 38.6507 40.1428 41.4715C40.1426 45.7655 40.1425 50.8466 40.1425 59.9642C53.5711 51.5714 55.2497 35.0343 55.2497 28.0713Z" fill="url(#paint0_linear)"/>
<defs>
<linearGradient id="paint0_linear" x1="40" y1="0" x2="40" y2="80" gradientUnits="userSpaceOnUse">
<stop stop-color="#1F8EFA"/>
<stop offset="1" stop-color="#0C5BA7"/>
</linearGradient>
</defs>
</svg>
