<svg width="40" height="50" viewBox="0 0 40 50" fill="none" xmlns="http://www.w3.org/2000/svg">
<path fill-rule="evenodd" clip-rule="evenodd" d="M5.88235 13.6364C5.88235 6.10147 12.1992 0 20 0C27.8008 0 34.1176 6.10147 34.1176 13.6364V22.7273H36.4706C38.4055 22.7273 40 24.2674 40 26.1364V46.5909C40 48.4599 38.4055 50 36.4706 50H3.52941C1.59447 50 0 48.4599 0 46.5909V26.1364C0 24.2674 1.59447 22.7273 3.52941 22.7273H5.88235V13.6364ZM31.7647 13.6364C31.7647 7.32125 26.538 2.27273 20 2.27273C13.462 2.27273 8.23529 7.32125 8.23529 13.6364V22.7273H10.6122V13.4921H10.6211C10.8347 8.63549 14.9521 4.76188 20.0001 4.76188C25.0481 4.76188 29.1655 8.63549 29.3792 13.4921H29.3878V13.8441C29.3878 13.859 29.3879 13.8739 29.3879 13.8889C29.3879 13.9038 29.3878 13.9187 29.3878 13.9336V22.7273H31.7647V13.6364ZM26.9388 22.7273V14.1956H26.9318C26.9362 14.0986 26.9386 14.0011 26.9388 13.9032V13.8746C26.9308 10.1554 23.8273 7.14283 20 7.14283C16.1678 7.14283 13.0612 10.1631 13.0612 13.8889C13.0612 13.9917 13.0636 14.0939 13.0683 14.1956H13.0612V22.7273H26.9388ZM5.71429 25H3.52941C2.8573 25 2.35294 25.4872 2.35294 26.1364V27.7778H4.71429C5.26658 27.7778 5.71429 27.3301 5.71429 26.7778V25ZM8.16327 25V27.1588C8.16327 28.8156 6.82013 30.1588 5.16327 30.1588H2.35294V42.0635H5.16327C6.82013 42.0635 8.16327 43.4067 8.16327 45.0635V47.7273H31.8367V45.0635C31.8367 43.4067 33.1799 42.0635 34.8367 42.0635H37.6471V30.1588H34.8367C33.1799 30.1588 31.8367 28.8156 31.8367 27.1588V25H8.16327ZM36.4706 47.7273H34.2857V45.4445C34.2857 44.8922 34.7334 44.4445 35.2857 44.4445H37.6471V46.5909C37.6471 47.2401 37.1427 47.7273 36.4706 47.7273ZM5.71429 47.7273V45.4445C5.71429 44.8922 5.26658 44.4445 4.71429 44.4445H2.35294V46.5909C2.35294 47.2401 2.8573 47.7273 3.52941 47.7273H5.71429ZM37.6471 26.1364V27.7778H35.2857C34.7334 27.7778 34.2857 27.3301 34.2857 26.7778V25H36.4706C37.1427 25 37.6471 25.4872 37.6471 26.1364ZM15.2941 34.6591C15.2941 32.1622 17.4149 30.1136 20 30.1136C22.585 30.1136 24.7059 32.1622 24.7059 34.6591C24.7059 36.7622 23.1957 38.534 21.1765 39.0447V41.4773C21.1787 41.6278 21.1499 41.7774 21.0917 41.9171C21.0336 42.0568 20.9473 42.184 20.8378 42.2912C20.7284 42.3985 20.5979 42.4836 20.4541 42.5418C20.3103 42.5999 20.1559 42.6298 20 42.6298C19.8441 42.6298 19.6897 42.5999 19.5459 42.5418C19.4021 42.4836 19.2716 42.3985 19.1622 42.2912C19.0527 42.184 18.9664 42.0568 18.9083 41.9171C18.8501 41.7774 18.8213 41.6278 18.8235 41.4773V39.0447C16.8043 38.534 15.2941 36.7622 15.2941 34.6591ZM22.3529 34.6591C22.3529 33.3904 21.3134 32.3864 20 32.3864C18.6866 32.3864 17.6471 33.3904 17.6471 34.6591C17.6471 35.9277 18.6866 36.9318 20 36.9318C21.3134 36.9318 22.3529 35.9277 22.3529 34.6591Z" fill="#182848"/>
</svg>
