<svg width="80" height="80" viewBox="0 0 80 80" fill="none" xmlns="http://www.w3.org/2000/svg">
<path fill-rule="evenodd" clip-rule="evenodd" d="M80 40C80 62.0914 62.0914 80 40 80C17.9086 80 0 62.0914 0 40C0 17.9086 17.9086 0 40 0C62.0914 0 80 17.9086 80 40ZM43.1983 21.0061C41.6603 18.3313 37.8011 18.3313 36.2631 21.0061L18.5383 51.8312C17.005 54.4978 18.9299 57.8251 22.0059 57.8251H57.4548C60.5309 57.8251 62.4557 54.4979 60.9224 51.8312L43.1983 21.0061ZM40.5937 22.8781C40.2076 22.2181 39.2537 22.2181 38.8675 22.878L20.9715 53.4634C20.5814 54.1301 21.0622 54.9685 21.8346 54.9685H57.626C58.3984 54.9685 58.8792 54.1301 58.4892 53.4634L40.5937 22.8781ZM38.5455 46.1029C38.7151 46.24 38.9212 46.3086 39.1636 46.3086H40.8727C41.1152 46.3086 41.3091 46.24 41.4545 46.1029C41.6242 45.9429 41.7091 45.7486 41.7091 45.52V28.7886C41.7091 28.56 41.6242 28.3771 41.4545 28.24C41.3091 28.08 41.1152 28 40.8727 28H39.1636C38.9212 28 38.7151 28.08 38.5455 28.24C38.4 28.3771 38.3273 28.56 38.3273 28.7886V45.52C38.3273 45.7486 38.4 45.9429 38.5455 46.1029ZM38.2182 51.7943C38.3879 51.9314 38.5939 52 38.8364 52H41.1636C41.4061 52 41.6 51.9314 41.7455 51.7943C41.9152 51.6343 42 51.44 42 51.2114V49.0514C42 48.8229 41.9152 48.6286 41.7455 48.4686C41.6 48.3086 41.4061 48.2286 41.1636 48.2286H38.8364C38.5939 48.2286 38.3879 48.3086 38.2182 48.4686C38.0727 48.6286 38 48.8229 38 49.0514V51.2114C38 51.44 38.0727 51.6343 38.2182 51.7943Z" fill="url(#paint0_linear)"/>
<defs>
<linearGradient id="paint0_linear" x1="39.9978" y1="0" x2="39.9978" y2="80" gradientUnits="userSpaceOnUse">
<stop stop-color="#FF5A5A"/>
<stop offset="1" stop-color="#C40000"/>
</linearGradient>
</defs>
</svg>
