<svg width="80" height="80" viewBox="0 0 80 80" fill="none" xmlns="http://www.w3.org/2000/svg">
<path fill-rule="evenodd" clip-rule="evenodd" d="M40 80C62.0914 80 80 62.0914 80 40C80 17.9086 62.0914 0 40 0C17.9086 0 0 17.9086 0 40C0 62.0914 17.9086 80 40 80ZM29 26.0682L47.8705 22.1679L45.0814 17.545C44.7855 17.0546 44.1487 16.8973 43.6591 17.1937L29 26.0682ZM50.9876 23.3518C51.5479 23.2359 52.0958 23.5971 52.2114 24.1583L52.8998 27.5001H31.0058L31.0022 27.4825L50.9876 23.3518ZM29.3697 29.2719H23.0359C22.4638 29.2719 22 29.7365 22 30.3095V55.9386C22 56.5116 22.4638 56.9762 23.0359 56.9762H56.4422C57.0143 56.9762 57.4781 56.5116 57.4781 55.9386V49.8685C57.4781 49.2954 57.0143 48.8309 56.4422 48.8309H49.6056C48.0324 48.8309 46.757 47.5534 46.757 45.9775V40.2706C46.757 38.6947 48.0324 37.4172 49.6056 37.4172H56.4422C57.0143 37.4172 57.4781 36.9526 57.4781 36.3796V30.3095C57.4781 29.7365 57.0143 29.2719 56.4422 29.2719H51.2637H29.3697ZM49.6056 39.233C49.0335 39.233 48.5697 39.6975 48.5697 40.2706V45.9775C48.5697 46.5506 49.0335 47.0151 49.6056 47.0151H59.9641C60.5362 47.0151 61 46.5506 61 45.9775V40.2706C61 39.6975 60.5362 39.233 59.9641 39.233H49.6056ZM52.1952 44.9399C53.1964 44.9399 54.008 44.1269 54.008 43.124C54.008 42.1212 53.1964 41.3082 52.1952 41.3082C51.1941 41.3082 50.3825 42.1212 50.3825 43.124C50.3825 44.1269 51.1941 44.9399 52.1952 44.9399Z" fill="url(#paint0_linear)"/>
<defs>
<linearGradient id="paint0_linear" x1="40" y1="0" x2="40" y2="80" gradientUnits="userSpaceOnUse">
<stop stop-color="#FFC061"/>
<stop offset="1" stop-color="#BE7200"/>
</linearGradient>
</defs>
</svg>
