<svg width="27" height="27" viewBox="0 0 27 27" version="1.1" xmlns="http://www.w3.org/2000/svg" xmlns:xlink="http://www.w3.org/1999/xlink">
<title>close</title>
<desc>Created using Figma</desc>
<g id="Canvas" transform="translate(-6023 -84)">
<g id="close">
<g id="Line 2">
<use xlink:href="#path0_fill" transform="translate(6024 85)" fill="#FFFFFF"/>
<use xlink:href="#path1_stroke" transform="translate(6024 85)" fill="#FFFFFF"/>
</g>
<g id="Line 2">
<use xlink:href="#path0_fill" transform="matrix(-1 0 0 1 6049 85)" fill="#FFFFFF"/>
<use xlink:href="#path1_stroke" transform="matrix(-1 0 0 1 6049 85)" fill="#FFFFFF"/>
</g>
</g>
</g>
<defs>
<path id="path0_fill" fill-rule="evenodd" d="M 25 0L 0 25Z"/>
<path id="path1_stroke" d="M 25.7071 0.707107C 26.0976 0.316582 26.0976 -0.316582 25.7071 -0.707107C 25.3166 -1.09763 24.6834 -1.09763 24.2929 -0.707107L 25.7071 0.707107ZM -0.707107 24.2929C -1.09763 24.6834 -1.09763 25.3166 -0.707107 25.7071C -0.316582 26.0976 0.316582 26.0976 0.707107 25.7071L -0.707107 24.2929ZM 24.2929 -0.707107L -0.707107 24.2929L 0.707107 25.7071L 25.7071 0.707107L 24.2929 -0.707107Z"/>
</defs>
</svg>
