<svg width="62" height="46" viewBox="0 0 62 46" version="1.1" xmlns="http://www.w3.org/2000/svg" xmlns:xlink="http://www.w3.org/1999/xlink">
<title>4H</title>
<desc>Created using Figma</desc>
<g id="Canvas" transform="translate(-394 -3093)">
<g id="4H">
<g id="4H">
<use xlink:href="#path0_fill" transform="translate(394.018 3093.51)" fill="#182848"/>
</g>
</g>
</g>
<defs>
<path id="path0_fill" fill-rule="evenodd" d="M 58.732 21.03L 55.667 21.03C 54.838 21.03 54.167 21.7 54.167 22.53L 54.167 26.96L 47.65 21.39C 47.63 21.38 47.608 21.37 47.588 21.35C 47.544 21.32 47.499 21.28 47.45 21.25C 47.412 21.23 47.374 21.21 47.334 21.19C 47.287 21.17 47.239 21.15 47.189 21.13C 47.146 21.11 47.102 21.1 47.057 21.09C 47.008 21.07 46.96 21.06 46.909 21.06C 46.86 21.05 46.812 21.04 46.763 21.04C 46.733 21.04 46.705 21.03 46.675 21.03L 39.5 21.03L 39.5 11.49C 39.5 9.67 37.929 8.2 36 8.2L 32.029 8.2L 32.019 3.05C 32.026 3.04 32.074 3 32.166 3L 58.732 3C 58.817 3 58.866 3.04 58.868 3.01L 58.88 20.98C 58.872 20.99 58.824 21.03 58.732 21.03ZM 36.5 32.89C 36.5 32.99 36.305 33.17 36 33.17L 18.25 33.17C 18.226 33.17 18.205 33.18 18.182 33.18C 18.128 33.18 18.074 33.1899 18.02 33.1899C 17.974 33.2 17.929 33.21 17.884 33.22C 17.836 33.2299 17.789 33.25 17.742 33.27C 17.695 33.2799 17.649 33.3 17.605 33.32C 17.564 33.34 17.524 33.36 17.483 33.39C 17.437 33.42 17.392 33.45 17.348 33.4799C 17.33 33.49 17.31 33.5 17.292 33.52L 8.75 40.6L 8.75 34.67C 8.75 33.84 8.078 33.17 7.25 33.17L 3.5 33.17C 3.194 33.17 3 32.99 3 32.89L 3 11.49C 3 11.39 3.194 11.2 3.5 11.2L 36 11.2C 36.305 11.2 36.5 11.39 36.5 11.49L 36.5 32.89ZM 58.732 0L 32.166 0C 30.437 0 29.031 1.34 29.031 3L 29.031 8.2L 3.5 8.2C 1.57 8.2 0 9.67 0 11.49L 0 32.89C 0 34.7 1.57 36.17 3.5 36.17L 5.75 36.17L 5.75 43.8C 5.75 44.38 6.086 44.91 6.612 45.15C 6.815 45.25 7.033 45.3 7.249 45.3C 7.593 45.3 7.933 45.18 8.207 44.95L 18.791 36.17L 36 36.17C 37.929 36.17 39.5 34.7 39.5 32.89L 39.5 24.03L 46.122 24.03L 54.692 31.36C 54.969 31.6 55.316 31.72 55.668 31.72C 55.88 31.72 56.094 31.67 56.295 31.58C 56.826 31.34 57.167 30.81 57.167 30.22L 57.167 24.03L 58.732 24.03C 60.461 24.03 61.868 22.69 61.868 21.03L 61.868 3C 61.868 1.34 60.461 0 58.732 0Z"/>
</defs>
</svg>
