<svg width="44" height="53" viewBox="0 0 44 53" fill="none" xmlns="http://www.w3.org/2000/svg">
<path fill-rule="evenodd" clip-rule="evenodd" d="M33.187 12.438H6.097L16.113 2.60804C16.704 2.02704 16.713 1.07804 16.133 0.486044C15.551 -0.104956 14.602 -0.112956 14.011 0.466044L1.407 12.836C1.121 13.117 0.958996 13.5 0.957996 13.9C0.955996 14.3 1.114 14.685 1.397 14.968L14.022 27.593C14.315 27.886 14.699 28.032 15.083 28.032C15.466 28.032 15.85 27.886 16.143 27.593C16.729 27.007 16.729 26.057 16.143 25.472L6.109 15.438H33.187C34.015 15.438 34.687 14.766 34.687 13.938C34.687 13.109 34.015 12.438 33.187 12.438Z" fill="#182848"/>
<path fill-rule="evenodd" clip-rule="evenodd" d="M10.813 36.438H37.903L27.887 26.608C27.296 26.027 27.287 25.078 27.867 24.486C28.449 23.895 29.398 23.887 29.989 24.466L42.593 36.836C42.879 37.117 43.041 37.5 43.042 37.9C43.044 38.3 42.886 38.685 42.603 38.968L29.978 51.593C29.685 51.886 29.301 52.032 28.917 52.032C28.534 52.032 28.15 51.886 27.857 51.593C27.271 51.007 27.271 50.057 27.857 49.472L37.891 39.438H10.813C9.985 39.438 9.313 38.766 9.313 37.938C9.313 37.109 9.985 36.438 10.813 36.438Z" fill="#182848"/>
</svg>
