<svg width="80" height="80" viewBox="0 0 80 80" fill="none" xmlns="http://www.w3.org/2000/svg">
<path d="M39.9999 0C62.0925 0 80 17.91 80 40.0001C80 62.0903 62.0925 80 39.9999 80C17.9072 80 0 62.09 0 40.0001C0 17.9103 17.9075 0 39.9999 0Z" fill="#C4302B"/>
<path d="M21.5275 17.4898C22.7923 17.4898 23.7826 17.0872 24.5076 16.515C25.2276 15.9399 25.5876 15.1575 25.5876 14.1525V8.08735C25.5876 7.19486 25.2202 6.45725 24.4875 5.8899C23.7499 5.32228 22.8074 5.03997 21.6524 5.03997C20.39 5.03997 19.38 5.30745 18.6325 5.84487C17.8825 6.38475 17.5074 7.10479 17.5074 8.01733V14.1022C17.5074 15.1021 17.8724 15.8921 18.6023 16.4847C19.3322 17.0774 20.3101 17.4898 21.5275 17.4898ZM20.2052 8.31254C20.2052 8.08241 20.3252 7.8976 20.5628 7.75013C20.8028 7.60761 21.1128 7.53758 21.4929 7.53758C21.9078 7.53758 22.2428 7.60761 22.4955 7.75013C22.7506 7.8976 22.8755 8.08269 22.8755 8.31254V14.0775C22.8755 14.3625 22.7506 14.5874 22.5004 14.75C22.2505 14.9101 21.9155 14.9925 21.4929 14.9925C21.0804 14.9925 20.7605 14.9151 20.5378 14.7525C20.3178 14.5949 20.2052 14.37 20.2052 14.0775V8.31254V8.31254ZM29.8977 17.4824C30.3425 17.4824 30.7951 17.2273 31.2652 16.9725C31.7403 16.7124 32.1926 16.3323 32.6279 15.8375V17.185H34.9904V5.0224H32.6279V14.2549C32.4079 14.5174 32.163 14.7349 31.9004 14.9074C31.633 15.0774 31.413 15.165 31.2405 15.165C31.0181 15.165 30.8555 15.1023 30.7605 14.97C30.6605 14.8426 30.6056 14.635 30.6056 14.3499V5.02487H28.2481V15.1875C28.2481 15.9125 28.3906 16.4551 28.663 16.8151C28.9401 17.1773 29.3501 17.4824 29.8977 17.4824ZM36.7677 22.51H8.21752C3.67762 22.51 -4.52548e-07 26.0476 -4.52548e-07 30.4052V37.0802C-4.52548e-07 41.4402 3.67762 44.9778 8.21752 44.9778H36.7674C41.3048 44.9778 44.9849 41.4402 44.9849 37.0802V30.4052C44.9852 26.0473 41.3051 22.51 36.7677 22.51ZM12.465 29.285H9.94017V39.7401H7.49776V29.285H4.97269V27.5025H12.4652C12.465 27.5025 12.465 29.285 12.465 29.285ZM20.0001 39.8851H17.3676V38.8001C16.8777 39.2002 16.3752 39.5075 15.8452 39.7126C15.3226 39.9276 14.8126 40.0301 14.3178 40.0301C13.7079 40.0301 13.2528 39.8826 12.9428 39.5852C12.6377 39.2927 12.4803 38.8528 12.4803 38.2651V30.0103H15.1128V37.5827C15.1128 37.8178 15.1677 37.9828 15.2729 38.0877C15.3879 38.1951 15.5703 38.2426 15.8155 38.2426C16.0055 38.2426 16.2554 38.1751 16.5504 38.035C16.8478 37.8974 17.1205 37.7225 17.3679 37.505V30.0075H20.0003C20.0001 30.0075 20.0001 39.8851 20.0001 39.8851ZM29.965 38.0051C29.965 38.6526 29.7598 39.145 29.3526 39.4927C28.95 39.84 28.3552 40.01 27.5876 40.01C27.0752 40.01 26.6202 39.9449 26.225 39.8126C25.8276 39.6802 25.4525 39.4751 25.1125 39.1925V39.8925H22.485V27.5025H25.1125V31.4951C25.4676 31.2202 25.84 31.0052 26.2275 30.8602C26.6248 30.7127 27.0249 30.6427 27.4275 30.6427C28.25 30.6427 28.8775 30.8352 29.31 31.2227C29.7475 31.6126 29.965 32.1852 29.965 32.9327C29.965 32.9324 29.965 38.0051 29.965 38.0051ZM39.9801 35.2175H35.1302V37.0025C35.1302 37.5001 35.2101 37.845 35.3776 38.0399C35.5476 38.2325 35.8351 38.3275 36.2377 38.3275C36.6628 38.3275 36.9528 38.2451 37.1227 38.0825C37.2878 37.9175 37.3779 37.5599 37.3779 37V36.5699H39.9853V37.0549C39.9853 38.0248 39.6728 38.755 39.0277 39.2474C38.3928 39.7373 37.4427 39.9823 36.1803 39.9823C35.0428 39.9823 34.1479 39.7222 33.4954 39.2024C32.8454 38.6875 32.5153 37.9675 32.5153 37.0574V32.8023C32.5153 31.9847 32.8753 31.3097 33.5953 30.7924C34.3129 30.2775 35.2329 30.0199 36.3703 30.0199C37.5303 30.0199 38.4228 30.2599 39.0478 30.7374C39.6703 31.215 39.9804 31.9048 39.9804 32.8001C39.9801 32.8001 39.9801 35.2175 39.9801 35.2175ZM11.0502 17.5176H14.0327V10.2499L17.5052 -2.01133e-07H14.4727L12.6275 7.00511H12.4375L10.5026 -2.01133e-07H7.49501L11.0499 10.5775C11.0502 10.5775 11.0502 17.5176 11.0502 17.5176ZM26.2 32.0924L25.6475 32.1825L25.1101 32.4601V38.155C25.3201 38.3025 25.5275 38.4151 25.7277 38.4774L26.3552 38.5749C26.6751 38.5749 26.9077 38.5123 27.0576 38.3799C27.2051 38.2525 27.2825 38.0424 27.2825 37.7549V33.0324C27.2825 32.7199 27.1949 32.4873 27.0101 32.3299C26.8201 32.1726 26.5526 32.0924 26.2 32.0924Z" transform="translate(17.5074 15.0127)" fill="white"/>
<path d="M1.13003 -1.07271e-06C0.724979 -1.07271e-06 0.437459 0.0851307 0.260059 0.260059C0.0851303 0.427573 -1.47497e-06 0.712622 -1.47497e-06 1.10999V2.06509H2.24249V1.10999C2.24249 0.712622 2.14994 0.430045 1.97502 0.260059C1.80228 0.0851307 1.51504 -1.07271e-06 1.13003 -1.07271e-06Z" transform="translate(52.7551 46.6899)" fill="white"/>
</svg>
