<svg width="44" height="31" viewBox="0 0 44 31" version="1.1" xmlns="http://www.w3.org/2000/svg" xmlns:xlink="http://www.w3.org/1999/xlink">
<title>1E</title>
<desc>Created using Figma</desc>
<g id="Canvas" transform="translate(-403 -3860)">
<g id="1E">
<g id="1E">
<use xlink:href="#path0_fill" transform="translate(403.279 3860.83)" fill="#182848"/>
</g>
</g>
</g>
<defs>
<path id="path0_fill" fill-rule="evenodd" d="M 39.617 26.2L 3.5 26.2C 3.229 26.2 3 25.972 3 25.7L 3 4.38201L 20.737 15.991C 20.987 16.154 21.272 16.237 21.558 16.237C 21.849 16.237 22.139 16.153 22.391 15.985L 40.117 4.15601L 40.117 25.7C 40.117 25.972 39.888 26.2 39.617 26.2ZM 36.443 3L 21.551 12.939L 6.367 3L 36.443 3ZM 42.016 0.965C 41.833 0.728 41.593 0.558 41.326 0.465C 40.818 0.178 40.241 0 39.617 0L 3.5 0C 1.571 0 0 1.57 0 3.5L 0 25.7C 0 27.63 1.571 29.2 3.5 29.2L 39.617 29.2C 41.546 29.2 43.117 27.63 43.117 25.7L 43.117 3.5C 43.117 2.501 42.69 1.604 42.016 0.965Z"/>
</defs>
</svg>
