<svg width="65" height="65" viewBox="0 0 65 65" fill="none" xmlns="http://www.w3.org/2000/svg">
<path fill-rule="evenodd" clip-rule="evenodd" d="M32.5 65C50.4493 65 65 50.4493 65 32.5C65 14.5507 50.4493 0 32.5 0C14.5507 0 0 14.5507 0 32.5C0 50.4493 14.5507 65 32.5 65Z" fill="url(#paint0_linear)"/>
<path fill-rule="evenodd" clip-rule="evenodd" d="M0 2.11364C0 0.946307 0.94632 0 2.11365 0H28.8864C30.0537 0 31 0.946307 31 2.11364C31 3.28096 30.0537 4.22727 28.8864 4.22727H2.11365C0.94632 4.22727 0 3.28096 0 2.11364ZM0 28.8864C0 27.719 0.94632 26.7727 2.11365 26.7727H28.8864C30.0537 26.7727 31 27.719 31 28.8864C31 30.0537 30.0537 31 28.8864 31H2.11365C0.94632 31 0 30.0537 0 28.8864ZM2.11365 13.5273C0.94632 13.5273 0 14.4736 0 15.6409C0 16.8082 0.94632 17.7545 2.11365 17.7545H28.8864C30.0537 17.7545 31 16.8082 31 15.6409C31 14.4736 30.0537 13.5273 28.8864 13.5273H2.11365Z" transform="translate(17 17)" fill="white"/>
<defs>
<stop offset="0.220994" stop-color="white"/>
<stop offset="1" stop-color="white" stop-opacity="0"/>
</defs>
</svg>
