<svg width="53" height="51" viewBox="0 0 53 51" fill="none" xmlns="http://www.w3.org/2000/svg">
<path d="M35.5341 19.4286C35.3335 19.4286 35.1324 19.431 34.9318 19.4334V6.67857C34.9318 2.29379 26.1453 0 17.4659 0C8.78656 0 0 2.29379 0 6.67857V30.9643C0 35.3491 8.78656 37.6429 17.4659 37.6429C17.6695 37.6429 17.8664 37.6338 18.0682 37.6313V44.3214C18.0682 48.7062 26.8547 51 35.5341 51C44.2134 51 53 48.7062 53 44.3214V26.1071C53 21.7224 44.2134 19.4286 35.5341 19.4286ZM17.4659 2.42857C26.6572 2.42857 32.5227 4.94579 32.5227 6.67857C32.5227 8.41136 26.6572 10.9286 17.4659 10.9286C8.27462 10.9286 2.40909 8.41136 2.40909 6.67857C2.40909 4.94579 8.27462 2.42857 17.4659 2.42857ZM2.40909 10.2364C5.61318 12.2946 11.563 13.3571 17.4659 13.3571C23.3688 13.3571 29.3186 12.2946 32.5227 10.2364V12.75C32.5227 14.4828 26.6572 17 17.4659 17C8.27462 17 2.40909 14.4828 2.40909 12.75V10.2364ZM2.40909 16.3079C5.61318 18.3661 11.563 19.4286 17.4659 19.4286C23.3688 19.4286 29.3186 18.3661 32.5227 16.3079V18.8214C32.5227 19.0728 32.3637 19.3266 32.1752 19.5439C27.0457 19.8985 22.2955 21.0679 19.8316 23.0077C19.0493 23.0471 18.2567 23.0714 17.4659 23.0714C8.27462 23.0714 2.40909 20.5542 2.40909 18.8214V16.3079ZM2.40909 22.3793C5.61318 24.4375 11.563 25.5 17.4659 25.5C17.6887 25.5 17.9116 25.4933 18.1344 25.4903C18.0947 25.6912 18.0682 25.8959 18.0682 26.1071V29.1313C17.8664 29.1344 17.6695 29.1429 17.4659 29.1429C8.27462 29.1429 2.40909 26.6256 2.40909 24.8929V22.3793ZM17.4659 35.2143C8.27462 35.2143 2.40909 32.6971 2.40909 30.9643V28.4507C5.61318 30.5089 11.563 31.5714 17.4659 31.5714C17.6695 31.5714 17.8664 31.5623 18.0682 31.5599V32.1786V35.2028C17.8664 35.2058 17.6695 35.2143 17.4659 35.2143ZM35.5341 48.5714C26.3428 48.5714 20.4773 46.0542 20.4773 44.3214V41.8079C23.6814 43.8661 29.6312 44.9286 35.5341 44.9286C41.437 44.9286 47.3868 43.8661 50.5909 41.8079V44.3214C50.5909 46.0542 44.7254 48.5714 35.5341 48.5714ZM35.5341 42.5C26.3428 42.5 20.4773 39.9828 20.4773 38.25V35.7364C23.6814 37.7946 29.6312 38.8571 35.5341 38.8571C41.437 38.8571 47.3868 37.7946 50.5909 35.7364V38.25C50.5909 39.9828 44.7254 42.5 35.5341 42.5ZM35.5341 36.4286C26.3428 36.4286 20.4773 33.9114 20.4773 32.1786V29.665C23.6814 31.7232 29.6312 32.7857 35.5341 32.7857C41.437 32.7857 47.3868 31.7232 50.5909 29.665V32.1786C50.5909 33.9114 44.7254 36.4286 35.5341 36.4286ZM35.5341 30.3571C26.3428 30.3571 20.4773 27.8399 20.4773 26.1071C20.4773 24.3744 26.3428 21.8571 35.5341 21.8571C44.7254 21.8571 50.5909 24.3744 50.5909 26.1071C50.5909 27.8399 44.7254 30.3571 35.5341 30.3571Z" fill="white"/>
</svg>
