<svg width="41" height="36" viewBox="0 0 41 36" version="1.1" xmlns="http://www.w3.org/2000/svg" xmlns:xlink="http://www.w3.org/1999/xlink">
<title>9I</title>
<desc>Created using Figma</desc>
<g id="Canvas" transform="translate(-404 -1961)">
<g id="9I">
<g id="9I">
<use xlink:href="#path0_fill" transform="translate(404.79 1961.12)" fill="#FFFFFF"/>
</g>
</g>
</g>
<defs>
<path id="path0_fill" fill-rule="evenodd" d="M 36.67 32.34C 36.67 32.61 36.44 32.84 36.17 32.84L 32.11 32.84L 32.11 10.5L 36.17 10.5C 36.44 10.5 36.67 10.73 36.67 11L 36.67 32.34ZM 3 32.34L 3 11C 3 10.73 3.23 10.5 3.5 10.5L 7.42 10.5L 7.42 32.84L 3.5 32.84C 3.23 32.84 3 32.61 3 32.34ZM 14.09 3.5C 14.09 3.23 14.32 3 14.59 3L 25.09 3C 25.36 3 25.59 3.23 25.59 3.5L 25.59 7.5L 14.09 7.5L 14.09 3.5ZM 10.42 32.84L 29.11 32.84L 29.11 10.5L 10.42 10.5L 10.42 32.84ZM 36.17 7.5L 28.59 7.5L 28.59 3.5C 28.59 1.57 27.02 0 25.09 0L 14.59 0C 12.66 0 11.09 1.57 11.09 3.5L 11.09 7.5L 3.5 7.5C 1.57 7.5 0 9.07 0 11L 0 32.34C 0 34.27 1.57 35.84 3.5 35.84L 36.17 35.84C 38.1 35.84 39.67 34.27 39.67 32.34L 39.67 11C 39.67 9.07 38.1 7.5 36.17 7.5Z"/>
</defs>
</svg>
