<svg width="50" height="39" viewBox="0 0 50 39" version="1.1" xmlns="http://www.w3.org/2000/svg" xmlns:xlink="http://www.w3.org/1999/xlink">
<title>5F</title>
<desc>Created using Figma</desc>
<g id="Canvas" transform="translate(-1471 -2662)">
<g id="5F">
<g id="5F">
<use xlink:href="#path0_fill" transform="translate(1471.27 2662.41)" fill="#182848"/>
</g>
</g>
</g>
<defs>
<path id="path0_fill" fill-rule="evenodd" d="M 17.167 3C 20.441 3 23.104 5.66 23.104 8.93C 23.104 12.21 20.441 14.87 17.167 14.87C 13.893 14.87 11.229 12.21 11.229 8.93C 11.229 5.66 13.893 3 17.167 3ZM 17.167 17.87C 22.095 17.87 26.104 13.86 26.104 8.93C 26.104 4.01 22.095 0 17.167 0C 12.239 0 8.229 4.01 8.229 8.93C 8.229 13.86 12.239 17.87 17.167 17.87ZM 35.425 3.48999C 37.786 3.48999 39.706 5.40999 39.706 7.76999C 39.706 10.13 37.786 12.05 35.425 12.05C 33.065 12.05 31.145 10.13 31.145 7.76999C 31.145 5.40999 33.065 3.48999 35.425 3.48999ZM 35.425 15.05C 39.44 15.05 42.706 11.79 42.706 7.76999C 42.706 3.75999 39.44 0.48999 35.425 0.48999C 31.411 0.48999 28.145 3.75999 28.145 7.76999C 28.145 11.79 31.411 15.05 35.425 15.05ZM 46.101 28.13L 34.333 28.13L 34.333 28.07C 34.333 24 31.538 19.69 26.355 19.69C 26.282 19.69 26.2 19.69 26.123 19.69C 26.643 19.2 27.315 18.85 28.14 18.85C 28.709 18.85 30.463 18.84 32.61 18.83C 35.987 18.81 40.338 18.79 42.567 18.79C 45.363 18.79 46.101 21.31 46.101 22.64L 46.101 28.13ZM 31.333 35.5599L 3 35.5599L 3 28.5999C 3 26.8499 3.689 25.1199 4.843 23.9899C 5.433 23.4099 6.434 22.6899 7.792 22.7599C 8.544 22.7399 10.924 22.7499 13.806 22.7299C 18.112 22.7099 23.545 22.6899 26.355 22.6899C 29.776 22.6899 31.333 25.4799 31.333 28.0699L 31.333 35.5599ZM 42.567 15.79C 40.335 15.79 35.977 15.81 32.595 15.83C 30.455 15.84 28.707 15.85 28.169 15.85C 28.132 15.85 28.095 15.85 28.059 15.85C 25.705 15.85 23.607 17.33 22.509 19.69C 19.801 19.7 16.564 19.72 13.791 19.73C 10.931 19.75 8.568 19.76 7.832 19.76C 7.829 19.76 7.826 19.76 7.823 19.76C 5.948 19.7 4.157 20.46 2.743 21.85C 1.025 23.53 0 26.06 0 28.6L 0 37.06C 0 37.89 0.671 38.56 1.5 38.56L 32.833 38.56C 33.662 38.56 34.333 37.89 34.333 37.06L 34.333 31.13L 47.601 31.13C 48.43 31.13 49.101 30.46 49.101 29.63L 49.101 22.64C 49.101 19.32 46.811 15.79 42.567 15.79Z"/>
</defs>
</svg>
