<svg width="189" height="38" viewBox="0 0 189 38" fill="none" xmlns="http://www.w3.org/2000/svg">
<path d="M40.0336 6H60.4585V9.80231H52.4164V31.2366H48.0084V9.80231H40L40.0336 6ZM59.5836 12.9653H63.3523V16.4984H63.4196C63.5542 15.9937 63.7897 15.5226 64.1262 15.0515C64.4627 14.5804 64.8665 14.143 65.3712 13.7729C65.8423 13.3691 66.3807 13.0662 66.9863 12.8307C67.5584 12.5952 68.164 12.4606 68.7697 12.4606C69.2408 12.4606 69.5773 12.4942 69.7455 12.4942C69.9138 12.5279 70.1157 12.5615 70.2839 12.5615V16.4311C70.0147 16.3638 69.7119 16.3302 69.409 16.2965C69.1062 16.2629 68.837 16.2292 68.5342 16.2292C67.8612 16.2292 67.2219 16.3638 66.6162 16.633C66.0105 16.9022 65.5058 17.306 65.0347 17.8107C64.5973 18.3491 64.2271 18.9884 63.9579 19.7624C63.6888 20.5363 63.5542 21.4448 63.5542 22.4543V31.1356H59.5163L59.5836 12.9653ZM88.7908 31.2366H84.8202V28.6793H84.7529C84.2482 29.6215 83.5079 30.3281 82.5321 30.9001C81.5563 31.4721 80.5468 31.7413 79.5373 31.7413C77.1483 31.7413 75.3985 31.1693 74.3218 29.9579C73.245 28.7802 72.7066 26.9632 72.7066 24.5741V12.9653H76.7445V24.1704C76.7445 25.7855 77.0473 26.9295 77.6867 27.5689C78.2923 28.2418 79.1672 28.5783 80.2776 28.5783C81.1188 28.5783 81.8255 28.4437 82.3975 28.1746C82.9695 27.9054 83.4406 27.5689 83.7771 27.1314C84.1472 26.694 84.3828 26.1556 84.551 25.5499C84.7193 24.9443 84.7866 24.2713 84.7866 23.5647V12.9653H88.8244V31.2366H88.7908ZM95.6551 25.3817C95.7897 26.5594 96.2271 27.367 97.0011 27.8717C97.775 28.3428 98.7172 28.5783 99.7939 28.5783C100.164 28.5783 100.601 28.5447 101.073 28.4774C101.544 28.4101 102.015 28.3092 102.419 28.1409C102.856 27.9727 103.192 27.7371 103.462 27.4006C103.731 27.0641 103.865 26.6604 103.832 26.1556C103.798 25.6509 103.63 25.2135 103.26 24.877C102.89 24.5405 102.452 24.3049 101.914 24.0694C101.375 23.8675 100.736 23.6993 100.029 23.5647C99.3228 23.4301 98.6162 23.2618 97.8759 23.0936C97.1357 22.9253 96.3954 22.7235 95.6888 22.4879C94.9821 22.2524 94.3765 21.9495 93.8044 21.5121C93.266 21.1083 92.795 20.6036 92.4921 19.9643C92.1556 19.3249 91.9874 18.5846 91.9874 17.6425C91.9874 16.633 92.2229 15.8254 92.7277 15.1525C93.1987 14.4795 93.8381 13.9411 94.5783 13.5373C95.3186 13.1335 96.1599 12.8307 97.0684 12.6625C97.9769 12.4942 98.8517 12.4269 99.6593 12.4269C100.601 12.4269 101.51 12.5279 102.351 12.7298C103.192 12.9317 104 13.2345 104.673 13.7056C105.38 14.143 105.952 14.7487 106.389 15.4553C106.86 16.1619 107.129 17.0368 107.264 18.0463H103.058C102.856 17.0705 102.419 16.4311 101.746 16.0946C101.039 15.7582 100.265 15.5899 99.3565 15.5899C99.0873 15.5899 98.7172 15.6236 98.347 15.6572C97.9432 15.7245 97.6067 15.7918 97.2366 15.9264C96.9001 16.061 96.5973 16.2629 96.3617 16.4984C96.1262 16.734 95.9916 17.0704 95.9916 17.4742C95.9916 17.979 96.1598 18.3491 96.4963 18.6519C96.8328 18.9548 97.2703 19.1903 97.8423 19.4259C98.3807 19.6278 99.02 19.796 99.7266 19.9306C100.433 20.0652 101.174 20.2334 101.914 20.4017C102.654 20.5699 103.361 20.7718 104.067 21.0074C104.774 21.2429 105.413 21.5457 105.952 21.9832C106.49 22.387 106.961 22.8917 107.298 23.4974C107.634 24.1031 107.802 24.877 107.802 25.7518C107.802 26.8286 107.567 27.7371 107.062 28.511C106.557 29.2513 105.918 29.8906 105.144 30.3617C104.37 30.8328 103.462 31.1693 102.519 31.4048C101.544 31.6067 100.601 31.7413 99.6593 31.7413C98.5153 31.7413 97.4385 31.6067 96.4627 31.3375C95.4869 31.0684 94.612 30.6646 93.9054 30.1598C93.1987 29.6215 92.6267 28.9821 92.2229 28.1746C91.8191 27.4006 91.5836 26.4585 91.55 25.3481H95.6215V25.3817H95.6551ZM108.946 12.9653H112.008V7.44689H116.046V12.9316H119.68V15.9264H116.046V25.6845C116.046 26.122 116.08 26.4585 116.114 26.795C116.147 27.0978 116.248 27.367 116.349 27.5689C116.484 27.7708 116.686 27.939 116.921 28.04C117.19 28.1409 117.527 28.2082 117.998 28.2082C118.267 28.2082 118.57 28.2082 118.839 28.1746C119.108 28.1409 119.411 28.1073 119.68 28.04V31.1693C119.243 31.2366 118.805 31.2702 118.368 31.3039C117.931 31.3712 117.527 31.3712 117.056 31.3712C115.979 31.3712 115.138 31.2702 114.498 31.0684C113.859 30.8665 113.354 30.5636 112.984 30.1935C112.614 29.7897 112.379 29.3186 112.244 28.7466C112.109 28.1746 112.042 27.4679 112.008 26.7277V15.96H108.946V12.898V12.9653ZM122.507 12.9653H126.309V15.4553H126.376C126.948 14.3785 127.722 13.6383 128.732 13.1672C129.741 12.6961 130.818 12.4606 132.029 12.4606C133.476 12.4606 134.721 12.6961 135.798 13.2345C136.875 13.7392 137.75 14.4122 138.456 15.3207C139.163 16.1956 139.701 17.2387 140.038 18.4164C140.374 19.5941 140.576 20.8728 140.576 22.1851C140.576 23.4301 140.408 24.6078 140.105 25.7518C139.769 26.8959 139.298 27.939 138.658 28.8139C138.019 29.6888 137.211 30.3954 136.202 30.9338C135.192 31.4721 134.048 31.7413 132.702 31.7413C132.13 31.7413 131.525 31.674 130.953 31.5731C130.381 31.4721 129.809 31.3039 129.27 31.0684C128.732 30.8328 128.227 30.53 127.79 30.1598C127.319 29.7897 126.949 29.3523 126.646 28.8812H126.578V38H122.541V12.9653H122.507ZM136.606 22.1178C136.606 21.3102 136.505 20.5026 136.269 19.7287C136.067 18.9548 135.731 18.2818 135.293 17.6761C134.856 17.0704 134.318 16.5994 133.712 16.2292C133.073 15.8591 132.332 15.6909 131.525 15.6909C129.842 15.6909 128.564 16.2629 127.689 17.4406C126.848 18.6183 126.41 20.1998 126.41 22.1514C126.41 23.0936 126.511 23.9348 126.747 24.7087C126.982 25.4826 127.285 26.1556 127.756 26.7277C128.194 27.2997 128.732 27.7371 129.371 28.0736C130.011 28.4101 130.717 28.5783 131.558 28.5783C132.501 28.5783 133.241 28.3765 133.88 28.0063C134.519 27.6362 135.024 27.1314 135.462 26.5594C135.865 25.9537 136.168 25.2808 136.337 24.5068C136.505 23.6993 136.606 22.9253 136.606 22.1178ZM143.706 6H147.743V9.80231H143.706V6ZM143.706 12.9653H147.743V31.2366H143.706V12.9653ZM151.344 6H155.382V31.2366H151.344V6ZM167.697 31.7413C166.25 31.7413 164.938 31.5058 163.794 31.0011C162.65 30.4963 161.708 29.857 160.9 29.0158C160.126 28.1746 159.521 27.1314 159.117 25.9537C158.713 24.776 158.477 23.4637 158.477 22.0841C158.477 20.7045 158.679 19.4259 159.117 18.2482C159.521 17.0705 160.126 16.061 160.9 15.1861C161.674 14.3449 162.65 13.6719 163.794 13.2008C164.938 12.7298 166.25 12.4606 167.697 12.4606C169.144 12.4606 170.456 12.6961 171.6 13.2008C172.745 13.6719 173.687 14.3449 174.494 15.1861C175.268 16.0273 175.874 17.0705 176.278 18.2482C176.681 19.4259 176.917 20.7045 176.917 22.0841C176.917 23.4974 176.715 24.776 176.278 25.9537C175.84 27.1314 175.268 28.1409 174.494 29.0158C173.72 29.857 172.745 30.53 171.6 31.0011C170.456 31.4721 169.178 31.7413 167.697 31.7413ZM167.697 28.5447C168.572 28.5447 169.38 28.3428 170.019 27.9727C170.692 27.6025 171.197 27.0978 171.634 26.4921C172.072 25.8864 172.374 25.1798 172.576 24.4395C172.778 23.6656 172.879 22.8917 172.879 22.0841C172.879 21.3102 172.778 20.5363 172.576 19.7624C172.374 18.9884 172.072 18.3155 171.634 17.7098C171.197 17.1041 170.658 16.633 170.019 16.2629C169.346 15.8927 168.572 15.6909 167.697 15.6909C166.822 15.6909 166.015 15.8927 165.375 16.2629C164.702 16.633 164.198 17.1377 163.76 17.7098C163.323 18.3155 163.02 18.9884 162.818 19.7624C162.616 20.5363 162.515 21.3102 162.515 22.0841C162.515 22.8917 162.616 23.6656 162.818 24.4395C163.02 25.2135 163.323 25.8864 163.76 26.4921C164.198 27.0978 164.736 27.6025 165.375 27.9727C166.048 28.3764 166.822 28.5447 167.697 28.5447ZM178.128 12.9653H181.19V7.44689H185.228V12.9316H188.862V15.9264H185.228V25.6845C185.228 26.122 185.262 26.4585 185.296 26.795C185.329 27.0978 185.43 27.367 185.531 27.5689C185.666 27.7708 185.868 27.939 186.103 28.04C186.372 28.1409 186.709 28.2082 187.18 28.2082C187.449 28.2082 187.752 28.2082 188.021 28.1746C188.29 28.1409 188.593 28.1073 188.862 28.04V31.1693C188.425 31.2366 187.987 31.2702 187.55 31.3039C187.113 31.3712 186.709 31.3712 186.238 31.3712C185.161 31.3712 184.32 31.2702 183.68 31.0684C183.041 30.8665 182.536 30.5636 182.166 30.1935C181.796 29.7897 181.561 29.3186 181.426 28.7466C181.291 28.1746 181.224 27.4679 181.19 26.7277V15.96H178.128V12.898V12.9653Z" fill="#111C33"/>
<path d="M36 12.2284H22.2463L18.0125 0L13.7537 12.2284L0 12.205L11.1232 19.7716L6.8643 32L17.9875 24.4334L29.1106 32L24.8768 19.7716L36 12.2284Z" fill="#182848"/>
<path d="M25.8287 22.5358L24.8768 19.7715L18.0125 24.4333L25.8287 22.5358Z" fill="#111C33"/>
</svg>
