<svg width="45" height="30" viewBox="0 0 45 30" fill="none" xmlns="http://www.w3.org/2000/svg">
<path d="M14.839 29.9983H16.8025L23.3583 17.2071L28.7514 29.9983H30.6418L41.8463 4.07006C42.4744 2.61549 43.6988 1.742 45 1.54421V2.14751e-07H35.9401V1.54475C37.1422 1.8137 38.4182 2.26684 38.9857 3.54285L30.7584 22.6296C29.2711 19.4483 27.7462 15.9719 26.2907 12.5027C27.793 9.29263 29.0199 6.31099 30.8628 3.38078C31.9403 1.65673 33.6887 1.61621 34.5898 1.53145V0.000106777H24.959V1.53145C26.1606 1.53265 28.661 1.64015 27.5461 3.99678L24.7531 9.9033L21.7946 3.33307C21.3341 2.31004 22.2288 1.62847 23.6893 1.54725L23.6785 0.00143921H12.8398V1.53278C14.1312 1.57545 15.9519 1.5685 16.624 2.66976C18.6935 6.49344 20.0772 10.4653 21.9639 14.3639L17.0817 23.5464L8.87563 4.57374C7.95092 2.43572 10.1463 1.74695 11.5725 1.56836L11.5564 0.00119924H-7.58227e-10V1.53254C1.59568 2.06319 3.65409 4.45075 4.22865 5.65903C8.54554 14.7404 10.7192 20.829 14.8398 30L14.839 29.9983Z" fill="#182848"/>
</svg>
