<svg width="41" height="50" viewBox="0 0 41 50" fill="none" xmlns="http://www.w3.org/2000/svg">
<path d="M40.8596 19.1566C40.9812 15.9036 41.1027 12.1687 40.8596 7.95181C40.495 0.722891 24.2073 -2.29801e-07 20.5608 -2.29801e-07H20.4392C16.7927 0.120482 0.505005 0.843373 0.140354 7.95181C-0.102746 12.1687 0.0188043 15.9036 0.140354 19.1566C0.140354 20.7229 0.261905 22.2892 0.261905 23.6145C0.261905 23.8554 0.261905 24.2169 0.261905 24.4578C0.261905 24.8193 0.261903 25.1807 0.383453 25.5422C1.2343 35.5422 8.04111 46.9879 20.1961 49.8795L20.5608 50L20.9254 49.8795C33.0804 46.9879 39.8872 35.5422 40.7381 25.5422C40.7381 25.1807 40.8596 24.8193 40.8596 24.4578C40.8596 24.2169 40.8596 23.8554 40.8596 23.6145C40.7381 22.2892 40.8596 20.8434 40.8596 19.1566ZM3.05756 8.19277C3.17911 4.6988 13.3893 2.89157 20.6823 2.77108C27.9753 2.89157 38.064 4.6988 38.3071 8.19277C38.5502 12.2892 38.4286 15.9036 38.3071 19.1566C38.3071 20.7229 38.1855 22.2892 38.1855 23.7349C38.1855 24.3373 38.1855 24.8193 38.064 25.4217C37.6993 28.3133 35.1468 30.4819 32.108 30.4819C28.8262 30.4819 26.1521 27.8313 26.1521 24.5783H23.478V27.7108C23.478 29.2771 22.2625 30.4819 20.6823 30.4819C19.1022 30.4819 17.8867 29.2771 17.8867 27.7108V24.5783H15.2126C15.2126 27.8313 12.5385 30.4819 9.25661 30.4819C6.21786 30.4819 3.78686 28.3133 3.30066 25.4217C3.30066 24.8193 3.17911 24.3373 3.17911 23.7349C3.17911 22.4096 3.17911 20.8434 3.05756 19.1566C2.93601 15.9036 2.81446 12.2892 3.05756 8.19277ZM31.8649 33.1325C31.1356 34.3373 30.5279 35.3012 30.1632 35.4217C29.1908 35.9036 25.7874 35.9036 24.5719 35.4217C24.2073 35.1807 23.2349 34.0964 22.2625 32.8916C23.7211 32.4096 24.815 31.4458 25.5443 30.1205C27.1245 31.9277 29.3124 33.012 31.8649 33.1325ZM18.9806 32.8916C18.0082 34.0964 17.0358 35.1807 16.6712 35.4217C15.4557 36.0241 12.1738 36.0241 11.0799 35.4217C10.7152 35.1807 10.1075 34.3373 9.37816 33.1325C11.9307 33.012 14.1186 31.9277 15.5772 30.1205C16.4281 31.4458 17.522 32.4096 18.9806 32.8916ZM22.0194 46.8675V39.2771H19.3453V46.8675C11.9307 44.4578 6.94716 38.3133 4.75926 31.8072C5.24546 32.0482 5.73166 32.2892 6.21786 32.5301C6.94716 33.9759 8.64886 36.9879 10.1075 37.8313C11.0799 38.3133 12.5385 38.5542 13.9971 38.5542C15.5772 38.5542 17.1574 38.3133 18.1298 37.9518C18.9806 37.5904 20.0746 36.3855 20.9254 35.3012C21.7763 36.3855 22.8702 37.5904 23.7211 37.9518C25.5443 38.7952 29.7986 38.9157 31.6218 37.9518C33.0804 37.2289 34.7821 34.0964 35.5114 32.6506C35.9976 32.5301 36.3623 32.2892 36.7269 32.0482C34.2959 38.3133 29.3124 44.4578 22.0194 46.8675Z" fill="#182848"/>
<path d="M7.41456 2.6506C9.96711 2.6506 12.155 4.6988 12.155 7.3494H14.8291C14.8291 3.25301 11.4257 4.59602e-07 7.41456 4.59602e-07C3.4034 4.59602e-07 4.63677e-07 3.3735 4.63677e-07 7.3494H2.6741C2.6741 4.81928 4.86201 2.6506 7.41456 2.6506Z" transform="translate(3.17914 6.5061)" fill="#182848"/>
<path d="M7.41456 2.6506C9.96711 2.6506 12.155 4.6988 12.155 7.3494H14.8291C14.8291 3.25301 11.4257 4.59602e-07 7.41456 4.59602e-07C3.28185 4.59602e-07 9.27354e-07 3.3735 9.27354e-07 7.3494H2.6741C2.6741 4.81928 4.74045 2.6506 7.41456 2.6506Z" transform="translate(23.3564 6.5061)" fill="#182848"/>
<path d="M-4.63677e-07 2.16867C1.2155 3.49397 2.9172 4.33735 4.862 4.33735C6.80681 4.33735 8.50851 3.49397 9.72401 2.16867C8.50851 0.843372 6.80681 0 4.862 0C2.9172 0 1.2155 0.843372 -4.63677e-07 2.16867Z" transform="translate(7.19031 16.0241)" fill="#182848"/>
<path d="M-1.85471e-06 2.16867C1.2155 3.49397 2.9172 4.33735 4.862 4.33735C6.80681 4.33735 8.50851 3.49397 9.72401 2.16867C8.50851 0.843372 6.80681 0 4.862 0C2.9172 0 1.2155 0.843372 -1.85471e-06 2.16867Z" transform="translate(24.4503 16.0241)" fill="#182848"/>
</svg>
