<svg width="65" height="65" viewBox="0 0 65 65" fill="none" xmlns="http://www.w3.org/2000/svg">
<circle cx="32.5" cy="32.5" r="32" fill="#222E51" stroke="url(#paint0_linear)"/>
<path fill-rule="evenodd" clip-rule="evenodd" d="M13.457 48.0643L24.7586 17.1404C26.1926 13.5298 28.8662 11.4861 32.4206 11.4271V11.4258C32.4471 11.4258 32.4736 11.4259 32.5 11.4261C32.5264 11.4259 32.5529 11.4258 32.5794 11.4258V11.4271C36.1338 11.4861 38.8074 13.5298 40.2414 17.1404L51.543 48.0643L44.5447 45.6335L34.8904 19.2171C34.3028 17.7559 33.6245 17.2299 32.5 17.2067C31.3755 17.2299 30.6972 17.7559 30.1096 19.2171L20.4553 45.6335L13.457 48.0643ZM37.4173 36.2893C37.4173 38.9905 35.2453 41.1802 32.5661 41.1802C29.8869 41.1802 27.715 38.9905 27.715 36.2893C27.715 33.5881 29.8869 31.3984 32.5661 31.3984C35.2453 31.3984 37.4173 33.5881 37.4173 36.2893Z" fill="url(#paint1_linear)"/>
<mask id="mask0" mask-type="alpha" maskUnits="userSpaceOnUse" x="13" y="11" width="39" height="38">
<path fill-rule="evenodd" clip-rule="evenodd" d="M13.457 48.0643L24.7586 17.1404C26.1926 13.5298 28.8662 11.4861 32.4206 11.4271V11.4258C32.4471 11.4258 32.4736 11.4259 32.5 11.4261C32.5264 11.4259 32.5529 11.4258 32.5794 11.4258V11.4271C36.1338 11.4861 38.8074 13.5298 40.2414 17.1404L51.543 48.0643L44.5447 45.6335L34.8904 19.2171C34.3028 17.7559 33.6245 17.2299 32.5 17.2067C31.3755 17.2299 30.6972 17.7559 30.1096 19.2171L20.4553 45.6335L13.457 48.0643ZM37.4173 36.2893C37.4173 38.9905 35.2453 41.1802 32.5661 41.1802C29.8869 41.1802 27.715 38.9905 27.715 36.2893C27.715 33.5881 29.8869 31.3984 32.5661 31.3984C35.2453 31.3984 37.4173 33.5881 37.4173 36.2893Z" fill="white"/>
</mask>
<g mask="url(#mask0)">
</g>
<defs>
<linearGradient id="paint0_linear" x1="0" y1="32.5" x2="65" y2="32.5" gradientUnits="userSpaceOnUse">
<stop stop-color="#394773"/>
<stop offset="1" stop-color="#344275"/>
</linearGradient>
<linearGradient id="paint1_linear" x1="13.457" y1="11.4258" x2="13.457" y2="48.0643" gradientUnits="userSpaceOnUse">
<stop stop-color="#42C1FD"/>
<stop offset="1" stop-color="#1F8EFA"/>
</linearGradient>
</defs>
</svg>
