<svg width="1634" height="385" viewBox="0 0 1634 385" fill="none" xmlns="http://www.w3.org/2000/svg">
<path fill-rule="evenodd" clip-rule="evenodd" d="M0 0L1521.59 0C1564.9 0 1587.73 51.3179 1558.72 83.4833L1554.34 88.339C1537.71 106.783 1514.81 118.379 1490.1 120.869L0 271V0Z" fill="url(#paint0_linear)"/>
<g style="mix-blend-mode:soft-light" opacity="0.2" transform="translate(627 -173)">
<path fill-rule="evenodd" clip-rule="evenodd" d="M92.6645 0H768.146L318.24 314.697C291.754 333.223 257.948 337.805 227.486 326.997L43.9496 261.88C6.50673 248.596 -10.7984 205.483 7.06882 169.998L92.6645 0Z" fill="url(#paint1_linear)"/>
</g>
<g style="mix-blend-mode:soft-light" opacity="0.2" transform="translate(126.674 384.019) rotate(-143)">
<path fill-rule="evenodd" clip-rule="evenodd" d="M101.475 0L363.963 348.333L324.571 378.018C297.757 398.223 262.594 403.624 230.952 392.398L43.9496 326.051C8.54335 313.49 -9.25099 273.949 4.82725 239.118L101.475 0Z" fill="url(#paint2_linear)"/>
</g>
<defs>
<linearGradient id="paint0_linear" x2="1" gradientUnits="userSpaceOnUse" gradientTransform="translate(1405.36 -0.000297634) scale(1474.84 890.712) rotate(139.39)">
<stop stop-color="#4B6CB7"/>
<stop offset="0.992048" stop-color="#182848"/>
</linearGradient>
<linearGradient id="paint1_linear" x2="1" gradientUnits="userSpaceOnUse" gradientTransform="translate(266.716) scale(769.005 333.126) rotate(92.7095)">
<stop stop-color="white" stop-opacity="0.01"/>
<stop offset="1" stop-color="white"/>
</linearGradient>
<linearGradient id="paint2_linear" x2="1" gradientUnits="userSpaceOnUse" gradientTransform="translate(109.556 128.404) scale(189.817 207.649) rotate(118.065)">
<stop stop-color="white" stop-opacity="0.01"/>
<stop offset="1" stop-color="white"/>
</linearGradient>
</defs>
</svg>
