<svg width="88" height="73" viewBox="0 0 88 73" fill="none" xmlns="http://www.w3.org/2000/svg">
<path d="M19.5016 3.63706C19.5016 3.63706 21.0201 1.88897 22.5335 1.15192C24.0465 0.414462 25.7563 0 27.5665 0C30.6609 0 33.4631 1.21317 35.4912 3.174C37.5202 5.13524 38.774 7.84456 38.774 10.8377C38.774 13.8308 37.5198 16.5401 35.4912 18.5009C35.4912 18.5009 21.7579 34.4987 19.3872 34.0741C17.0165 33.6494 3.28229 18.5005 3.28229 18.5005C1.25498 16.5397 0 13.83 0 10.8373C0 7.84456 1.25498 5.13524 3.28229 3.174C5.31087 1.21276 8.11262 0 11.2078 0C13.0177 0 14.7275 0.41487 16.2409 1.15192C17.7539 1.88856 19.5016 3.63706 19.5016 3.63706Z" transform="translate(15.384 7.06934) rotate(11.6706)" fill="#182848"/>
<path d="M4.12201 5.15346C8.23445 13.3783 17.2283 19.9072 27.0339 16.9028C36.8395 13.8984 35.8462 17.4903 25.9207 19.6905C15.9952 21.8906 7.05949 15.1403 2.57717 7.1929C-1.90514 -0.754538 0.00956938 -3.07143 4.12201 5.15346Z" transform="translate(40.0559 42.98) rotate(-16.3068)" fill="#182848"/>
</svg>
