<svg width="72" height="70" viewBox="0 0 72 70" fill="none" xmlns="http://www.w3.org/2000/svg">
<path d="M35.5741 23.9209C36.1509 24.7323 36.6315 25.6045 37.016 26.5376L42.9762 23.3529L44.2067 17.6327C44.3413 16.9836 44.9566 16.5779 45.5718 16.7199C46.187 16.8619 46.5908 17.511 46.437 18.1804L45.1104 24.4483C45.0335 24.8134 44.8027 25.0974 44.5144 25.2597L37.7851 28.8501C38.1312 30.3309 38.3234 31.8725 38.3234 33.4344C38.3234 33.6373 38.3042 33.8198 38.3042 34.0227L45.8602 34.5906C46.2255 34.6109 46.5331 34.8138 46.7254 35.118L49.8593 39.3981C50.2438 39.9255 50.1477 40.6963 49.6478 41.102C49.1479 41.5077 48.4173 41.4063 48.0328 40.8789L45.1873 36.9842L38.1119 36.4365C37.8812 38.039 37.4967 39.6009 36.9391 41.0817C36.7084 41.7105 36.4393 42.3191 36.1509 42.9073L42.111 47.3294C42.361 47.512 42.5148 47.7757 42.5725 48.0596L43.4953 52.2383C43.6492 52.8874 43.2646 53.5365 42.6302 53.6988C42.0149 53.8408 41.3997 53.4351 41.2459 52.786L40.4383 49.0536L34.9396 44.9764C34.3436 45.8689 33.6706 46.6803 32.9208 47.3902C31.0943 49.1753 28.8256 50.3721 26.2108 50.6358V27.2882C29.0755 27.1867 32.2671 26.6593 34.5743 24.854C34.9396 24.57 35.2664 24.2455 35.5741 23.9209ZM25.0572 11.6487C28.1911 11.6487 35.4395 13.5555 35.4395 17.7341C35.4395 19.722 34.9011 21.5476 33.19 22.9067C31.6326 24.1238 29.0948 24.8743 25.0572 24.8743C21.0004 24.8743 18.4625 24.1238 16.9244 22.9067C15.194 21.5476 14.6749 19.722 14.6749 17.7341C14.6749 13.5555 21.9041 11.6487 25.0572 11.6487ZM20.366 6.53698C20.116 5.4619 19.6738 4.50852 19.097 3.77827C18.501 3.00746 17.7704 2.52063 17.059 2.4192C16.4245 2.35835 15.9823 1.74981 16.04 1.08042C16.1169 0.411023 16.6937 -0.0555237 17.3282 0.00533025C18.6548 0.167607 19.8853 0.999278 20.8658 2.21636C21.5965 3.14945 22.1732 4.32596 22.5193 5.62418C23.3076 5.42133 24.1536 5.29962 25.0572 5.29962C25.9416 5.29962 26.8068 5.42133 27.5951 5.62418C27.9219 4.32596 28.518 3.14945 29.2486 2.21636C30.2099 0.999278 31.4596 0.167607 32.7862 0.00533025C33.4207 -0.0555237 33.9783 0.411023 34.0552 1.08042C34.1321 1.74981 33.6706 2.35835 33.0362 2.4192C32.3248 2.52063 31.6134 3.00746 31.0174 3.77827C30.4406 4.50852 29.9792 5.4619 29.7485 6.53698C31.0943 7.38894 31.921 8.60602 31.921 10.0259C31.921 10.2288 31.9018 10.4519 31.8634 10.6548C29.7485 9.66082 27.3452 9.21456 25.0572 9.21456C22.7693 9.21456 20.366 9.66082 18.2318 10.6548C18.1934 10.4519 18.1741 10.2288 18.1741 10.0259C18.1741 8.60602 19.0009 7.38894 20.366 6.53698ZM12.0025 36.4365L4.92714 36.9842L2.0624 40.8789C1.67787 41.4063 0.947269 41.5077 0.447382 41.102C-0.0525047 40.6963 -0.148637 39.9255 0.235892 39.3981L3.3698 35.118C3.56206 34.8138 3.88891 34.6109 4.25421 34.5906L11.791 34.0227C11.791 33.8198 11.791 33.6373 11.791 33.4344C11.791 31.8725 11.964 30.3309 12.3293 28.8501L5.60006 25.2597C5.29244 25.0974 5.06172 24.8134 4.98482 24.4483L3.6582 18.1804C3.52361 17.511 3.90814 16.8619 4.52338 16.7199C5.13863 16.5779 5.75388 16.9836 5.90769 17.6327L7.11895 23.3529L13.0791 26.5376C13.4829 25.6045 13.9636 24.7323 14.5211 23.9209C14.8287 24.2455 15.1556 24.57 15.5401 24.854C17.8281 26.6593 21.0197 27.1867 23.9036 27.2882V50.6358C21.2696 50.3721 19.0201 49.1753 17.1744 47.3902C16.4245 46.6803 15.7516 45.8689 15.1556 44.9764L9.67607 49.0536L8.84933 52.786C8.69552 53.4351 8.08027 53.8408 7.46503 53.6988C6.84978 53.5365 6.46525 52.8874 6.59984 52.2383L7.52271 48.0596C7.59961 47.7757 7.75342 47.512 7.98414 47.3294L13.9636 42.9073C13.6752 42.3191 13.406 41.7105 13.1753 41.0817C12.6177 39.6009 12.214 38.039 12.0025 36.4365Z" transform="translate(47.3877) scale(1.0001 0.999898) rotate(61.8749)" fill="#182848"/>
</svg>
