<svg width="72" height="37" viewBox="0 0 72 37" fill="none" xmlns="http://www.w3.org/2000/svg">
<path d="M60.2784 2.31781C60.6158 1.83844 59.9188 1.44193 59.5296 1.74227C50.7354 8.62654 41.7532 15.4812 31.2379 19.3813C37.6216 14.7562 42.24 8.21671 44.5085 0.552732C44.6283 0.134024 44.0749 -0.188517 43.7745 0.126623C35.9835 8.2537 27.2558 15.2726 17.9303 21.5443C18.7309 20.0707 19.0535 18.387 18.5222 16.4784C18.5 16.3734 18.4172 16.3512 18.3506 16.3586C18.1937 16.1337 17.7439 16.1337 17.6773 16.4636C16.7643 20.954 12.5647 22.2101 8.95848 23.9397C6.49614 25.1219 4.40819 26.7079 2.7982 28.939C-0.449899 33.4442 -0.951542 39.4452 1.72092 44.3321C1.87038 44.6014 2.33503 44.415 2.22997 44.1146C2.21517 44.0776 2.20037 44.0392 2.19297 43.9948C2.37942 44.159 2.70941 44.1812 2.83667 43.9193C3.30872 42.9384 4.19066 42.3407 5.14955 41.8539C5.17915 41.9515 5.23982 42.0403 5.34488 42.1084C12.6416 46.7186 21.3619 47.8179 29.5954 45.2746C30.171 45.1029 30.0822 44.1975 29.4533 44.2123C26.0173 44.264 22.8816 43.6205 19.8585 42.2371C24.1246 42.0951 28.3154 41.4293 32.4099 40.1273C35.6432 39.102 40.3207 37.8754 41.9529 34.6116C42.1556 34.2077 41.8183 33.6617 41.3314 33.8038C36.3239 35.3528 31.2497 36.0038 26.0779 35.8011C38.1203 32.1274 49.9836 26.9106 57.7968 16.6293C58.1564 16.1574 57.4905 15.6647 57.0555 15.8807C49.3237 19.8399 41.5031 23.6113 33.1054 25.7063C44.0438 20.4273 53.325 12.3979 60.2784 2.31781Z" transform="translate(16.814 -17) rotate(23.8039)" fill="#182848"/>
</svg>
