<svg width="61" height="62" viewBox="0 0 61 62" fill="none" xmlns="http://www.w3.org/2000/svg">
<path d="M39.6929 0H6.93861C3.11217 0 9.73113e-08 3.12241 9.73113e-08 6.96143V29.8932C9.73113e-08 33.7322 3.11217 36.8546 6.93861 36.8546H14.6935C14.6935 38.8509 14.3364 41.5126 13.265 44.3279C12.7548 45.5564 13.1119 46.9385 14.1323 47.8598C14.7445 48.3717 15.4588 48.6276 16.2241 48.6276C16.7343 48.6276 17.2955 48.4741 17.8057 48.2181C23.0607 45.1981 27.4993 40.0282 29.8972 36.8546H39.7439C43.5704 36.8546 46.6825 33.7322 46.6825 29.8932V6.96143C46.6315 3.12241 43.5193 0 39.6929 0ZM44.1316 29.8932C44.1316 32.3502 42.1418 34.3465 39.6929 34.3465H29.234C28.8258 34.3465 28.4687 34.5512 28.2136 34.8583C26.0708 37.776 21.6831 43.0994 16.5302 46.0171C16.1731 46.2218 15.867 46.0171 15.7649 45.9147C15.6629 45.8124 15.4078 45.5564 15.5608 45.1981C17.0404 41.3591 17.2445 37.8272 17.1424 35.5238C17.0914 34.8583 16.5812 34.3465 15.867 34.3465H6.93861C4.48969 34.3465 2.49994 32.3502 2.49994 29.8932V6.96143C2.49994 4.50445 4.48969 2.50816 6.93861 2.50816H39.6929C42.1418 2.50816 44.1316 4.50445 44.1316 6.96143V29.8932Z" transform="translate(45.6016 0.876465) scale(-1 1) rotate(16.4988)" fill="#182848"/>
<path d="M13.4691 9.76314e-08C6.02026 9.76314e-08 1.94623e-07 6.09125 1.94623e-07 13.5134C1.94623e-07 20.9867 6.07128 27.0267 13.4691 27.0267C20.9179 27.0267 26.9381 20.9355 26.9381 13.5134C26.9381 6.09125 20.9179 9.76314e-08 13.4691 9.76314e-08ZM8.67326 3.07122C8.01001 4.04377 7.4488 5.22107 7.04064 6.55193C6.32638 6.34719 5.61211 6.14244 4.94886 5.8865C5.96924 4.65801 7.24472 3.73665 8.67326 3.07122ZM3.7244 7.4733C4.59172 7.83161 5.56109 8.18992 6.53045 8.44585C6.27536 9.72553 6.07128 11.1076 6.02026 12.5408H2.04077C2.19382 10.6981 2.75503 8.95772 3.7244 7.4733ZM3.7244 19.6046C2.80605 18.1202 2.19382 16.3798 2.04077 14.5371H6.02026C6.07128 15.9703 6.27536 17.3524 6.53045 18.6321C5.56109 18.888 4.59172 19.1951 3.7244 19.6046ZM4.94886 21.2426C5.61211 20.9867 6.32638 20.7307 7.04064 20.526C7.49982 21.8568 8.01001 23.0341 8.67326 24.0067C7.24472 23.3413 5.96924 22.4199 4.94886 21.2426ZM12.4487 24.8257C11.1222 24.2626 9.79568 22.5735 8.97937 20.1165C10.1018 19.9117 11.2752 19.8094 12.4487 19.7582V24.8257ZM12.4487 17.7619C11.0712 17.8131 9.74466 17.9666 8.41816 18.2226C8.16306 17.0965 8.01001 15.868 7.95899 14.5883H12.4487V17.7619ZM12.4487 12.5408H8.01001C8.06103 11.2099 8.21408 9.98146 8.46918 8.90654C9.74466 9.16247 11.1222 9.31603 12.4997 9.36722V12.5408H12.4487ZM12.4487 7.31974C11.2242 7.26855 10.1018 7.16618 8.97937 6.96143C9.8467 4.50445 11.1222 2.81528 12.4487 2.25223V7.31974ZM21.9893 5.83532C21.326 6.09125 20.6117 6.34719 19.8975 6.55193C19.4383 5.22107 18.9281 4.04377 18.2649 3.07122C19.6934 3.73665 20.9689 4.65802 21.9893 5.83532ZM14.4894 2.20104C15.8159 2.7641 17.1424 4.45327 17.9587 6.91024C16.8363 7.11499 15.6629 7.21736 14.4894 7.26855V2.20104ZM14.4894 9.31603C15.867 9.26484 17.1935 9.11128 18.52 8.85535C18.7751 9.98146 18.9281 11.2099 18.9791 12.4896H14.4894V9.31603ZM14.4894 14.5371H18.9281C18.8771 15.868 18.724 17.0965 18.4689 18.1714C17.1935 17.9154 15.8159 17.7619 14.4384 17.7107V14.5371H14.4894ZM14.4894 24.8257V19.707C15.7139 19.7582 16.8363 19.8605 17.9587 20.0653C17.0914 22.5735 15.8159 24.2626 14.4894 24.8257ZM18.2649 24.0067C18.9281 23.0341 19.4893 21.8568 19.8975 20.526C20.6117 20.7307 21.326 20.9355 21.9893 21.2426C20.9689 22.4199 19.6934 23.3413 18.2649 24.0067ZM23.2137 19.6046C22.2954 19.2463 21.377 18.888 20.4077 18.6321C20.6628 17.3524 20.8668 15.9703 20.9179 14.5371H24.8974C24.7443 16.3798 24.1831 18.1202 23.2137 19.6046ZM24.8974 12.5408H20.9179C20.8668 11.1076 20.6628 9.72553 20.4077 8.44585C21.377 8.18992 22.3464 7.83161 23.2137 7.4733C24.1831 8.95772 24.7443 10.6981 24.8974 12.5408Z" transform="translate(37.6577 8.72949) scale(-1 1) rotate(16.4988)" fill="#182848"/>
</svg>
