<svg width="49" height="66" viewBox="0 0 49 66" fill="none" xmlns="http://www.w3.org/2000/svg">
<path d="M11.0096 -3.49134e-08C5.70264 -3.49134e-08 1.25399 3.72843 -4.41164e-08 8.75832H22.0184C20.7616 3.72843 16.3053 -3.49134e-08 11.0096 -3.49134e-08Z" transform="translate(22.384) scale(-1 1)" fill="#182848"/>
<path d="M22.7428 -3.38391e-08H0.00615458C0.00574424 0.0418792 -5.04188e-08 0.0824158 -5.04188e-08 0.124463C-5.04188e-08 3.23209 1.18317 6.16096 3.33433 8.361C3.58979 8.62227 3.92592 8.75982 4.2755 8.75982H18.46C18.823 8.75982 19.1591 8.62227 19.4146 8.361C21.5658 6.16096 22.7489 3.23209 22.7489 0.124463C22.7489 0.0824158 22.7432 0.0418792 22.7428 -3.38391e-08Z" transform="translate(22.7488 11.5073) scale(-1 1)" fill="#182848"/>
<path d="M44.7117 0.07075H30.5261C30.2857 0.07075 30.0502 0.0419631 29.8184 0C31.8475 11.5539 33.5522 23.4006 31.4812 34.9695C31.414 35.3682 31.5216 35.7807 31.777 36.097C32.0325 36.3995 32.4089 36.592 32.8123 36.592H36.2783V37.7511C36.2783 39.1583 35.1597 40.3024 33.7836 40.3024H30.6653C29.2893 40.3024 28.1707 39.1583 28.1707 37.7511V21.2451C28.1707 18.3217 25.8453 15.9436 22.987 15.9436H22.832C19.9737 15.9436 17.6484 18.3217 17.6484 21.2451V37.7511C17.6484 39.1583 16.5297 40.3024 15.1537 40.3024H0V43.0525H15.1537C18.0121 43.0525 20.3374 40.6744 20.3374 37.7511V21.2451C20.3374 19.8378 21.456 18.6937 22.832 18.6937H22.987C24.363 18.6937 25.4816 19.8378 25.4816 21.2451V37.7511C25.4816 40.6744 27.8069 43.0525 30.6653 43.0525H33.7836C36.642 43.0525 38.9673 40.6744 38.9673 37.7511V36.592H42.4389C42.4523 36.592 42.4523 36.592 42.4658 36.592C43.2052 36.592 43.8103 35.9732 43.8103 35.217C43.8103 35.0382 43.7699 34.8595 43.7162 34.7082C41.7193 23.222 43.4163 11.4696 45.4223 0.000251779C45.1896 0.042047 44.9532 0.07075 44.7117 0.07075ZM38.9673 6.43842C38.9673 7.19779 38.366 7.81347 37.6228 7.81347C36.8797 7.81347 36.2783 7.19779 36.2783 6.43842V3.14649C36.2783 2.38712 36.8797 1.77144 37.6228 1.77144C38.366 1.77144 38.9673 2.38712 38.9673 3.14649V6.43842Z" transform="translate(49 22.9478) scale(-1 1)" fill="#182848"/>
</svg>
