<svg width="235" height="49" viewBox="0 0 235 49" fill="none" xmlns="http://www.w3.org/2000/svg">
<path d="M25.4849 28.2905C25.258 31.4269 24.0968 33.896 22.0015 35.6978C19.9194 37.4995 17.1701 38.4004 13.7534 38.4004C10.0164 38.4004 7.07357 37.1458 4.9248 34.6367C2.78939 32.1143 1.72168 28.6576 1.72168 24.2666V22.4849C1.72168 19.6821 2.21549 17.2131 3.20312 15.0776C4.19076 12.9422 5.5988 11.3073 7.42725 10.1729C9.26904 9.02507 11.4045 8.45117 13.8335 8.45117C17.1968 8.45117 19.9061 9.35205 21.9614 11.1538C24.0168 12.9556 25.2046 15.4847 25.5249 18.7412H19.519C19.3722 16.8594 18.8451 15.498 17.9375 14.6572C17.0433 13.8031 15.6753 13.376 13.8335 13.376C11.8315 13.376 10.3301 14.0967 9.3291 15.5381C8.34147 16.9661 7.83431 19.1883 7.80762 22.2046V24.4067C7.80762 27.5565 8.28141 29.8587 9.229 31.3135C10.1899 32.7682 11.6981 33.4956 13.7534 33.4956C15.6086 33.4956 16.9899 33.0752 17.8975 32.2344C18.8184 31.3802 19.3455 30.0656 19.479 28.2905H25.4849ZM34.6938 18.7012C36.2287 16.8594 38.1572 15.9385 40.4795 15.9385C45.1774 15.9385 47.5597 18.6678 47.6265 24.1265V38H41.8408V24.2866C41.8408 23.0454 41.5739 22.1312 41.04 21.5439C40.5062 20.9434 39.6187 20.6431 38.3774 20.6431C36.6825 20.6431 35.4546 21.297 34.6938 22.605V38H28.9082V7.25H34.6938V18.7012ZM64.543 38C64.276 37.4795 64.0825 36.8322 63.9624 36.0581C62.561 37.6196 60.7393 38.4004 58.4971 38.4004C56.375 38.4004 54.6133 37.7865 53.2119 36.5586C51.8239 35.3307 51.1299 33.7826 51.1299 31.9141C51.1299 29.6185 51.9774 27.8568 53.6724 26.6289C55.3807 25.401 57.8431 24.7804 61.0596 24.7671H63.7222V23.5259C63.7222 22.5249 63.4619 21.7241 62.9414 21.1235C62.4342 20.5229 61.6268 20.2227 60.519 20.2227C59.5448 20.2227 58.7773 20.4562 58.2168 20.9233C57.6696 21.3905 57.396 22.0311 57.396 22.8452H51.6104C51.6104 21.5907 51.9974 20.4295 52.7715 19.3618C53.5456 18.2941 54.64 17.46 56.0547 16.8594C57.4694 16.2454 59.0576 15.9385 60.8193 15.9385C63.4886 15.9385 65.604 16.6125 67.1655 17.9604C68.7404 19.2951 69.5278 21.1769 69.5278 23.606V32.9951C69.5412 35.0505 69.8281 36.6053 70.3887 37.6597V38H64.543ZM59.7583 33.9761C60.6125 33.9761 61.3999 33.7892 62.1206 33.4155C62.8413 33.0285 63.3752 32.5146 63.7222 31.874V28.1504H61.5601C58.6639 28.1504 57.1224 29.1514 56.9355 31.1533L56.9155 31.4937C56.9155 32.2144 57.1691 32.8083 57.6763 33.2754C58.1834 33.7425 58.8774 33.9761 59.7583 33.9761ZM79.2974 16.3389L79.4775 18.8413C81.0257 16.9061 83.1011 15.9385 85.7036 15.9385C87.9992 15.9385 89.7075 16.6125 90.8286 17.9604C91.9497 19.3084 92.5236 21.3237 92.5503 24.0063V38H86.7646V24.1465C86.7646 22.9186 86.4977 22.0311 85.9639 21.4839C85.43 20.9233 84.5425 20.6431 83.3013 20.6431C81.673 20.6431 80.4518 21.3371 79.6377 22.7251V38H73.8521V16.3389H79.2974ZM96.1138 27.0093C96.1138 23.686 96.9012 21.0101 98.4761 18.9814C100.064 16.9528 102.2 15.9385 104.882 15.9385C107.258 15.9385 109.106 16.7526 110.428 18.3809L110.668 16.3389H115.913V37.2793C115.913 39.1745 115.479 40.8228 114.612 42.2241C113.758 43.6255 112.55 44.6932 110.988 45.4272C109.427 46.1613 107.598 46.5283 105.503 46.5283C103.915 46.5283 102.367 46.208 100.858 45.5674C99.3503 44.9401 98.2091 44.126 97.4351 43.125L99.9976 39.6016C101.439 41.2165 103.187 42.0239 105.243 42.0239C106.778 42.0239 107.972 41.6102 108.826 40.7827C109.68 39.9686 110.107 38.8075 110.107 37.2993V36.1382C108.773 37.6463 107.018 38.4004 104.842 38.4004C102.24 38.4004 100.131 37.3861 98.5161 35.3574C96.9146 33.3154 96.1138 30.6128 96.1138 27.2495V27.0093ZM101.899 27.4297C101.899 29.3916 102.293 30.9331 103.081 32.0542C103.868 33.1619 104.949 33.7158 106.324 33.7158C108.085 33.7158 109.347 33.0552 110.107 31.7339V22.625C109.333 21.3037 108.085 20.6431 106.364 20.6431C104.976 20.6431 103.881 21.2103 103.081 22.3447C102.293 23.4792 101.899 25.1742 101.899 27.4297ZM130.347 38.4004C127.171 38.4004 124.582 37.4261 122.58 35.4775C120.591 33.529 119.597 30.9331 119.597 27.6899V27.1294C119.597 24.9539 120.017 23.012 120.858 21.3037C121.699 19.582 122.887 18.2607 124.421 17.3398C125.97 16.4056 127.731 15.9385 129.707 15.9385C132.669 15.9385 134.998 16.8727 136.693 18.7412C138.402 20.6097 139.256 23.259 139.256 26.689V29.0513H125.462C125.649 30.466 126.21 31.6004 127.144 32.4546C128.092 33.3088 129.286 33.7358 130.728 33.7358C132.956 33.7358 134.698 32.9284 135.953 31.3135L138.795 34.4966C137.928 35.7244 136.753 36.6854 135.272 37.3794C133.791 38.0601 132.149 38.4004 130.347 38.4004ZM129.687 20.623C128.539 20.623 127.604 21.0101 126.884 21.7842C126.176 22.5583 125.723 23.666 125.522 25.1074H133.57V24.647C133.544 23.3657 133.197 22.3781 132.529 21.6841C131.862 20.9767 130.914 20.623 129.687 20.623Z" fill="black"/>
<path d="M166.122 38H162.258L147.584 15.5381V38H143.72V8.85156H147.584L162.298 31.4136V8.85156H166.122V38ZM195.371 24.3667C195.371 27.2228 194.89 29.7186 193.929 31.854C192.968 33.9761 191.607 35.5977 189.845 36.7188C188.083 37.8398 186.028 38.4004 183.679 38.4004C181.384 38.4004 179.348 37.8398 177.573 36.7188C175.798 35.5843 174.417 33.9761 173.429 31.894C172.455 29.7987 171.954 27.3763 171.928 24.627V22.5249C171.928 19.7222 172.415 17.2464 173.389 15.0977C174.363 12.9489 175.738 11.3073 177.513 10.1729C179.302 9.02507 181.344 8.45117 183.639 8.45117C185.975 8.45117 188.03 9.01839 189.805 10.1528C191.594 11.2739 192.968 12.9089 193.929 15.0576C194.89 17.193 195.371 19.6821 195.371 22.5249V24.3667ZM191.547 22.4849C191.547 19.0282 190.853 16.3789 189.465 14.5371C188.077 12.682 186.135 11.7544 183.639 11.7544C181.21 11.7544 179.295 12.682 177.894 14.5371C176.506 16.3789 175.792 18.9414 175.751 22.2246V24.3667C175.751 27.7166 176.452 30.3525 177.854 32.2744C179.268 34.1829 181.21 35.1372 183.679 35.1372C186.162 35.1372 188.083 34.2363 189.445 32.4346C190.806 30.6195 191.507 28.0236 191.547 24.647V22.4849ZM207.422 28.811L207.983 32.6548L208.804 29.1914L214.569 8.85156H217.812L223.438 29.1914L224.239 32.7148L224.859 28.791L229.384 8.85156H233.248L226.181 38H222.677L216.671 16.7593L216.211 14.5371L215.75 16.7593L209.524 38H206.021L198.974 8.85156H202.818L207.422 28.811Z" fill="#38F06E"/>
</svg>
