<?xml version="1.0" encoding="UTF-8"?>
<svg width="267px" height="38px" viewBox="0 0 267 38" version="1.1" xmlns="http://www.w3.org/2000/svg" xmlns:xlink="http://www.w3.org/1999/xlink">
    <!-- Generator: Sketch 51.2 (57519) - http://www.bohemiancoding.com/sketch -->
    <title>Group 5</title>
    <desc>Created with Sketch.</desc>
    <defs></defs>
    <g id="Google-Play" stroke="none" stroke-width="1" fill="none" fill-rule="evenodd">
        <g id="Group-5">
            <path d="M21.345,10.566 C21.2356661,9.82799631 20.9896686,9.15150308 20.607,8.5365 C20.2243314,7.92149693 19.7460029,7.38166899 19.172,6.917 C18.5979971,6.45233101 17.948837,6.09016796 17.2245,5.8305 C16.500163,5.57083203 15.7416706,5.441 14.949,5.441 C13.5003261,5.441 12.2703384,5.72116386 11.259,6.2815 C10.2476616,6.84183613 9.42766981,7.59349529 8.799,8.5365 C8.17033019,9.47950471 7.71250143,10.5523273 7.4255,11.755 C7.13849857,12.9576727 6.995,14.2013269 6.995,15.486 C6.995,16.7160061 7.13849857,17.9118275 7.4255,19.0735 C7.71250143,20.2351725 8.17033019,21.280662 8.799,22.21 C9.42766981,23.139338 10.2476616,23.8841639 11.259,24.4445 C12.2703384,25.0048361 13.5003261,25.285 14.949,25.285 C16.9170098,25.285 18.4544945,24.6836727 19.5615,23.481 C20.6685055,22.2783273 21.3449988,20.6930098 21.591,18.725 L27.823,18.725 C27.6589992,20.5563425 27.2353367,22.2099926 26.552,23.686 C25.8686632,25.1620074 24.9666723,26.4193281 23.846,27.458 C22.7253277,28.4966719 21.4133409,29.2893306 19.91,29.836 C18.4066591,30.3826694 16.753009,30.656 14.949,30.656 C12.7076555,30.656 10.6918423,30.2665039 8.9015,29.4875 C7.11115771,28.7084961 5.60100615,27.6356735 4.371,26.269 C3.14099385,24.9023265 2.19800328,23.2965092 1.542,21.4515 C0.88599672,19.6064908 0.558,17.6180107 0.558,15.486 C0.558,13.2993224 0.88599672,11.2698427 1.542,9.3975 C2.19800328,7.5251573 3.14099385,5.89200697 4.371,4.498 C5.60100615,3.10399303 7.11115771,2.01067063 8.9015,1.218 C10.6918423,0.42532937 12.7076555,0.029 14.949,0.029 C16.5616747,0.029 18.0854928,0.26133101 19.5205,0.726 C20.9555072,1.19066899 22.240161,1.86716223 23.3745,2.7555 C24.508839,3.64383777 25.4449963,4.74399344 26.183,6.056 C26.9210037,7.36800656 27.3856657,8.87132486 27.577,10.566 L21.345,10.566 Z M33.595,0.726 L39.417,0.726 L39.417,11.755 L39.54,11.755 C40.2780037,10.5249938 41.2209943,9.62983614 42.369,9.0695 C43.5170057,8.50916387 44.6376612,8.229 45.731,8.229 C47.2890078,8.229 48.5668283,8.44083122 49.5645,8.8645 C50.5621717,9.28816879 51.3479971,9.87582958 51.922,10.6275 C52.4960029,11.3791704 52.8991655,12.2948279 53.1315,13.3745 C53.3638345,14.4541721 53.48,15.6499934 53.48,16.962 L53.48,30 L47.658,30 L47.658,18.028 C47.658,16.2786579 47.3846694,14.9735043 46.838,14.1125 C46.2913306,13.2514957 45.321007,12.821 43.927,12.821 C42.3416587,12.821 41.1936702,13.2924953 40.483,14.2355 C39.7723298,15.1785047 39.417,16.7296559 39.417,18.889 L39.417,30 L33.595,30 L33.595,0.726 Z M59.662,15.322 C59.7440004,13.9553265 60.0856637,12.8210045 60.687,11.919 C61.2883363,11.0169955 62.053662,10.2926694 62.983,9.746 C63.912338,9.1993306 64.9578275,8.8098345 66.1195,8.5775 C67.2811725,8.3451655 68.4496608,8.229 69.625,8.229 C70.6910053,8.229 71.7706612,8.30416591 72.864,8.4545 C73.9573388,8.60483408 74.9549955,8.89866448 75.857,9.336 C76.7590045,9.77333552 77.4969971,10.3814961 78.071,11.1605 C78.6450029,11.9395039 78.932,12.9713269 78.932,14.256 L78.932,25.285 C78.932,26.2416715 78.9866661,27.157329 79.096,28.032 C79.2053339,28.906671 79.3966653,29.5626645 79.67,30 L73.766,30 C73.6566661,29.6719984 73.5678337,29.3371684 73.4995,28.9955 C73.4311663,28.6538316 73.3833335,28.3053351 73.356,27.95 C72.426662,28.9066714 71.3333396,29.5763314 70.076,29.959 C68.8186604,30.3416686 67.5340066,30.533 66.222,30.533 C65.2106616,30.533 64.267671,30.4100012 63.393,30.164 C62.518329,29.9179988 61.7530033,29.5353359 61.097,29.016 C60.4409967,28.4966641 59.9285018,27.8406706 59.5595,27.048 C59.1904982,26.2553294 59.006,25.3123388 59.006,24.219 C59.006,23.0163273 59.2178312,22.0255039 59.6415,21.2465 C60.0651688,20.4674961 60.61183,19.845669 61.2815,19.381 C61.95117,18.916331 62.7164957,18.5678345 63.5775,18.3355 C64.4385043,18.1031655 65.306329,17.9186673 66.181,17.782 C67.055671,17.6453327 67.9166624,17.5360004 68.764,17.454 C69.6113376,17.3719996 70.3629967,17.2490008 71.019,17.085 C71.6750033,16.9209992 72.1943314,16.6818349 72.577,16.3675 C72.9596686,16.0531651 73.1373335,15.5953363 73.11,14.994 C73.11,14.3653302 73.007501,13.8665018 72.8025,13.4975 C72.597499,13.1284982 72.3241684,12.841501 71.9825,12.6365 C71.6408316,12.431499 71.2445023,12.2948337 70.7935,12.2265 C70.3424977,12.1581663 69.8573359,12.124 69.338,12.124 C68.1899943,12.124 67.2880033,12.3699975 66.632,12.862 C65.9759967,13.3540025 65.5933339,14.1739943 65.484,15.322 L59.662,15.322 Z M73.11,19.627 C72.8639988,19.8456678 72.5565018,20.0164994 72.1875,20.1395 C71.8184982,20.2625006 71.4221688,20.3649996 70.9985,20.447 C70.5748312,20.5290004 70.130669,20.5973331 69.666,20.652 C69.201331,20.7066669 68.736669,20.7749996 68.272,20.857 C67.8346645,20.9390004 67.4041688,21.0483327 66.9805,21.185 C66.5568312,21.3216673 66.1878349,21.5061655 65.8735,21.7385 C65.5591651,21.9708345 65.3063343,22.2646649 65.115,22.62 C64.9236657,22.9753351 64.828,23.4263306 64.828,23.973 C64.828,24.4923359 64.9236657,24.9296649 65.115,25.285 C65.3063343,25.6403351 65.5659984,25.920499 65.894,26.1255 C66.2220016,26.330501 66.6046645,26.4739996 67.042,26.556 C67.4793355,26.6380004 67.930331,26.679 68.395,26.679 C69.5430057,26.679 70.4313302,26.4876686 71.06,26.105 C71.6886698,25.7223314 72.1533318,25.2645027 72.454,24.7315 C72.7546682,24.1984973 72.9391663,23.6586694 73.0075,23.112 C73.0758337,22.5653306 73.11,22.1280016 73.11,21.8 L73.11,19.627 Z M85.442,8.803 L90.977,8.803 L90.977,11.755 L91.1,11.755 C91.8380037,10.5249938 92.7946608,9.62983614 93.97,9.0695 C95.1453392,8.50916387 96.3479938,8.229 97.578,8.229 C99.1360078,8.229 100.413828,8.44083122 101.4115,8.8645 C102.409172,9.28816879 103.194997,9.87582958 103.769,10.6275 C104.343003,11.3791704 104.746166,12.2948279 104.9785,13.3745 C105.210834,14.4541721 105.327,15.6499934 105.327,16.962 L105.327,30 L99.505,30 L99.505,18.028 C99.505,16.2786579 99.2316694,14.9735043 98.685,14.1125 C98.1383306,13.2514957 97.168007,12.821 95.774,12.821 C94.1886587,12.821 93.0406702,13.2924953 92.33,14.2355 C91.6193298,15.1785047 91.264,16.7296559 91.264,18.889 L91.264,30 L85.442,30 L85.442,8.803 Z M121.636,24.998 C122.456004,24.998 123.18033,24.8340016 123.809,24.506 C124.43767,24.1779984 124.956998,23.7406694 125.367,23.194 C125.777002,22.6473306 126.084499,22.0255035 126.2895,21.3285 C126.494501,20.6314965 126.597,19.9003372 126.597,19.135 C126.597,18.260329 126.515001,17.4335039 126.351,16.6545 C126.186999,15.8754961 125.913669,15.1853363 125.531,14.584 C125.148331,13.9826637 124.64267,13.5043351 124.014,13.149 C123.38533,12.7936649 122.592671,12.616 121.636,12.616 C120.815996,12.616 120.11217,12.7799984 119.5245,13.108 C118.93683,13.4360016 118.444835,13.8801639 118.0485,14.4405 C117.652165,15.0008361 117.365168,15.643163 117.1875,16.3675 C117.009832,17.091837 116.921,17.8503294 116.921,18.643 C116.921,19.4083372 116.996166,20.1668296 117.1465,20.9185 C117.296834,21.6701704 117.556498,22.3466637 117.9255,22.948 C118.294502,23.5493363 118.779664,24.0413314 119.381,24.424 C119.982336,24.8066686 120.733995,24.998 121.636,24.998 Z M132.132,28.647 C132.132,29.4943376 132.015834,30.4646612 131.7835,31.558 C131.551166,32.6513388 131.052337,33.6694953 130.287,34.6125 C129.521663,35.5555047 128.414674,36.3549967 126.966,37.011 C125.517326,37.6670033 123.576679,37.995 121.144,37.995 C120.105328,37.995 119.046172,37.865168 117.9665,37.6055 C116.886828,37.345832 115.902838,36.9426694 115.0145,36.396 C114.126162,35.8493306 113.38817,35.1455043 112.8005,34.2845 C112.21283,33.4234957 111.878,32.3916727 111.796,31.189 L117.577,31.189 C117.850335,32.2823388 118.383329,33.0408312 119.176,33.4645 C119.968671,33.8881688 120.884328,34.1 121.923,34.1 C123.563008,34.1 124.75883,33.6080049 125.5105,32.624 C126.26217,31.6399951 126.624333,30.3963409 126.597,28.893 L126.597,26.105 L126.515,26.105 C125.88633,27.2256723 124.991172,28.0524973 123.8295,28.5855 C122.667828,29.1185027 121.444673,29.385 120.16,29.385 C118.574659,29.385 117.208006,29.1048361 116.06,28.5445 C114.911994,27.9841639 113.969004,27.2188382 113.231,26.2485 C112.492996,25.2781618 111.953168,24.1438398 111.6115,22.8455 C111.269832,21.5471602 111.099,20.1736739 111.099,18.725 C111.099,17.3583265 111.297165,16.0395064 111.6935,14.7685 C112.089835,13.4974936 112.670663,12.3768382 113.436,11.4065 C114.201337,10.4361618 115.151161,9.66400287 116.2855,9.09 C117.419839,8.51599713 118.724993,8.229 120.201,8.229 C121.595007,8.229 122.818161,8.48866407 123.8705,9.008 C124.922839,9.52733593 125.80433,10.4019939 126.515,11.632 L126.597,11.632 L126.597,8.803 L132.132,8.803 L132.132,28.647 Z M153.074,17.126 C152.800665,15.6499926 152.315503,14.5293372 151.6185,13.764 C150.921497,12.9986628 149.86234,12.616 148.441,12.616 C147.511662,12.616 146.739503,12.7731651 146.1245,13.0875 C145.509497,13.4018349 145.017502,13.791331 144.6485,14.256 C144.279498,14.720669 144.019834,15.2126641 143.8695,15.732 C143.719166,16.2513359 143.630333,16.7159979 143.603,17.126 L153.074,17.126 Z M143.603,20.816 C143.685,22.7020094 144.163329,24.0686624 145.038,24.916 C145.912671,25.7633376 147.169992,26.187 148.81,26.187 C149.985339,26.187 150.996662,25.8931696 151.844,25.3055 C152.691338,24.7178304 153.210666,24.0960033 153.402,23.44 L158.527,23.44 C157.706996,25.9820127 156.449675,27.7996612 154.755,28.893 C153.060325,29.9863388 151.010345,30.533 148.605,30.533 C146.937658,30.533 145.43434,30.2665027 144.095,29.7335 C142.75566,29.2004973 141.621338,28.4420049 140.692,27.458 C139.762662,26.4739951 139.045169,25.2986735 138.5395,23.932 C138.033831,22.5653265 137.781,21.0620082 137.781,19.422 C137.781,17.8366587 138.040664,16.3606735 138.56,14.994 C139.079336,13.6273265 139.817329,12.4451717 140.774,11.4475 C141.730671,10.4498283 142.871827,9.66400287 144.1975,9.09 C145.523173,8.51599713 146.992325,8.229 148.605,8.229 C150.409009,8.229 151.98066,8.57749652 153.32,9.2745 C154.65934,9.97150348 155.759496,10.9076608 156.6205,12.083 C157.481504,13.2583392 158.103331,14.5976592 158.486,16.101 C158.868669,17.6043408 159.005334,19.1759918 158.896,20.816 L143.603,20.816 Z" id="ChangeNOW" fill="#182848"></path>
            <path d="M202.502,15.486 C202.502,16.7160061 202.645499,17.9118275 202.9325,19.0735 C203.219501,20.2351725 203.67733,21.280662 204.306,22.21 C204.93467,23.139338 205.754662,23.8841639 206.766,24.4445 C207.777338,25.0048361 209.007326,25.285 210.456,25.285 C211.904674,25.285 213.134662,25.0048361 214.146,24.4445 C215.157338,23.8841639 215.97733,23.139338 216.606,22.21 C217.23467,21.280662 217.692499,20.2351725 217.9795,19.0735 C218.266501,17.9118275 218.41,16.7160061 218.41,15.486 C218.41,14.2013269 218.266501,12.9576727 217.9795,11.755 C217.692499,10.5523273 217.23467,9.47950471 216.606,8.5365 C215.97733,7.59349529 215.157338,6.84183613 214.146,6.2815 C213.134662,5.72116386 211.904674,5.441 210.456,5.441 C209.007326,5.441 207.777338,5.72116386 206.766,6.2815 C205.754662,6.84183613 204.93467,7.59349529 204.306,8.5365 C203.67733,9.47950471 203.219501,10.5523273 202.9325,11.755 C202.645499,12.9576727 202.502,14.2013269 202.502,15.486 Z M196.065,15.486 C196.065,13.2993224 196.392997,11.2698427 197.049,9.3975 C197.705003,7.5251573 198.647994,5.89200697 199.878,4.498 C201.108006,3.10399303 202.618158,2.01067063 204.4085,1.218 C206.198842,0.42532937 208.214655,0.029 210.456,0.029 C212.724678,0.029 214.747324,0.42532937 216.524,1.218 C218.300676,2.01067063 219.803994,3.10399303 221.034,4.498 C222.264006,5.89200697 223.206997,7.5251573 223.863,9.3975 C224.519003,11.2698427 224.847,13.2993224 224.847,15.486 C224.847,17.6180107 224.519003,19.6064908 223.863,21.4515 C223.206997,23.2965092 222.264006,24.9023265 221.034,26.269 C219.803994,27.6356735 218.300676,28.7084961 216.524,29.4875 C214.747324,30.2665039 212.724678,30.656 210.456,30.656 C208.214655,30.656 206.198842,30.2665039 204.4085,29.4875 C202.618158,28.7084961 201.108006,27.6356735 199.878,26.269 C198.647994,24.9023265 197.705003,23.2965092 197.049,21.4515 C196.392997,19.6064908 196.065,17.6180107 196.065,15.486 Z" id="ChangeNOW-Copy" fill="#3BEE81"></path>
            <polygon id="Path" fill="#3BEE81" points="259.114 30 252.718 30 247.757 10.074 242.796 30 236.277 30 228.528 0.726 234.965 0.726 239.598 20.652 244.764 0.726 250.791 0.726 255.793 20.898 260.672 0.726 266.986 0.726"></polygon>
            <polygon id="Path" fill="#3BEE81" points="164.955 0.726 171.351 0.726 183.569 20.365 183.651 20.365 183.651 0.726 189.678 0.726 189.678 30 183.241 30 171.064 10.402 170.982 10.402 170.982 30 164.955 30"></polygon>
        </g>
    </g>
</svg>