<svg width="159" height="105" viewBox="0 0 159 105" fill="none" xmlns="http://www.w3.org/2000/svg">
<path d="M12.6763 10.806C12.0282 10.0241 11.2118 9.39911 10.288 8.97766C9.41122 8.58297 8.46405 8.3686 7.50276 8.34725C6.44012 8.31275 5.38142 8.49288 4.38987 8.8768C3.49904 9.22629 2.69018 9.75645 2.01422 10.434C1.35318 11.1049 0.842001 11.9087 0.514466 12.7919C-0.171489 14.7208 -0.171489 16.8272 0.514466 18.756C0.839616 19.6461 1.35093 20.4564 2.01422 21.1328C2.68948 21.8112 3.49853 22.3416 4.38987 22.69C5.38142 23.074 6.44012 23.2541 7.50276 23.2197C8.46405 23.1982 9.41122 22.9839 10.288 22.5892C11.2119 22.168 12.0284 21.5429 12.6763 20.7609L11.0442 19.4999C10.6749 20.0488 10.183 20.5042 9.60747 20.8302C8.96823 21.199 8.24054 21.3865 7.50276 21.3724C6.74173 21.4057 5.98254 21.2723 5.27837 20.9815C4.64227 20.7286 4.06676 20.344 3.58958 19.853C3.11571 19.3318 2.75522 18.7178 2.53093 18.0499C2.04733 16.5863 2.04733 15.0058 2.53093 13.5422C2.75617 12.8766 3.11661 12.2649 3.58958 11.7454C4.05844 11.2379 4.62981 10.8361 5.26577 10.5664C5.97005 10.276 6.72914 10.1426 7.49017 10.1755C8.22795 10.1615 8.95564 10.3489 9.59488 10.7177C10.1702 11.0439 10.6621 11.4993 11.0316 12.048L12.6637 10.7871L12.6763 10.806ZM17.4528 22.8792H19.4504V15.6163C19.4061 14.5709 19.6227 13.531 20.0805 12.5902C20.4104 11.9499 20.8799 11.3918 21.4542 10.9573C21.8792 10.6254 22.3718 10.3908 22.8972 10.2701C23.1808 10.2205 23.4669 10.1868 23.7543 10.1692C25.2246 10.1692 26.2329 10.5896 26.779 11.4302C27.3899 12.5341 27.6741 13.7893 27.5981 15.049V22.8792H29.5957V13.8889C29.6928 12.4083 29.2294 10.9454 28.2976 9.79094C27.4196 8.84949 26.0732 8.37876 24.2584 8.37876C23.7833 8.3801 23.3106 8.44586 22.8531 8.57415C22.3842 8.70227 21.9318 8.88422 21.5046 9.11636C21.0886 9.344 20.7032 9.62365 20.3578 9.94856C20.0262 10.2585 19.7417 10.6154 19.5134 11.0077H19.4504V0H17.4528V22.8792ZM45.4943 15.8307V16.8584C45.4977 17.4585 45.4106 18.0558 45.2359 18.6299C45.0765 19.1676 44.8015 19.6639 44.4304 20.0843C44.0592 20.5047 43.6008 20.8388 43.0872 21.0635C42.4903 21.3189 41.8457 21.4436 41.1967 21.4292C40.7936 21.4287 40.3919 21.3821 39.9994 21.2905C39.6182 21.2041 39.2554 21.0504 38.9282 20.8365C38.6104 20.6283 38.3468 20.3474 38.1594 20.0169C37.9581 19.6505 37.858 19.237 37.8695 18.8191C37.8552 18.5028 37.915 18.1876 38.0441 17.8987C38.1732 17.6097 38.368 17.3549 38.6131 17.1547C39.1383 16.7346 39.7459 16.4296 40.3964 16.2594C41.109 16.0642 41.8395 15.9417 42.5767 15.8937C43.3329 15.8433 43.963 15.8181 44.4672 15.8181L45.4943 15.8307ZM44.4987 14.1978C43.6584 14.1978 42.7259 14.2377 41.7008 14.3176C40.7192 14.3986 39.7528 14.6107 38.8274 14.9481C37.9714 15.2444 37.2026 15.7492 36.5903 16.417C35.9583 17.1739 35.6383 18.1434 35.6955 19.128C35.6809 19.7537 35.8216 20.3732 36.1051 20.9311C36.3715 21.4371 36.7432 21.8799 37.1953 22.2298C37.6594 22.5891 38.1876 22.8565 38.7517 23.0179C39.3412 23.1903 39.9524 23.2774 40.5665 23.2764C41.5755 23.3031 42.5761 23.0868 43.4842 22.6459C44.3486 22.1671 45.0656 21.4607 45.5573 20.6033H45.6203C45.6203 20.9857 45.635 21.3787 45.6644 21.7822C45.6939 22.1857 45.7422 22.5513 45.8094 22.8792H47.6998C47.641 22.4967 47.5864 22.0071 47.536 21.4102C47.4855 20.8134 47.4687 20.2523 47.4856 19.7269V13.4224C47.505 12.6549 47.3611 11.8919 47.0633 11.1843C46.8033 10.5919 46.4211 10.0612 45.9417 9.62706C45.4629 9.20639 44.9001 8.89262 44.2907 8.70659C43.6507 8.50444 42.9833 8.40236 42.3121 8.40394C39.6486 8.40394 37.6532 9.08905 36.3257 10.4593L37.5356 11.8841C38.7103 10.7959 40.2576 10.2002 41.8584 10.2197C44.2781 10.2197 45.488 11.4406 45.488 13.8826V14.2483L44.4987 14.1978ZM54.1147 8.71918C54.1567 9.24454 54.1924 9.79934 54.2218 10.3836C54.2512 10.9678 54.2659 11.4511 54.2659 11.8336V22.8792H56.2635V15.6163C56.2193 14.5709 56.4358 13.531 56.8936 12.5902C57.2235 11.9499 57.693 11.3918 58.2674 10.9573C58.6924 10.6254 59.1849 10.3908 59.7104 10.2701C59.9895 10.2146 60.2714 10.1747 60.5548 10.1503C62.0251 10.1503 63.0331 10.5706 63.5794 11.4112C64.1907 12.5152 64.4748 13.7704 64.3988 15.03V22.8792H66.3965V13.8889C66.4933 12.4083 66.0297 10.9454 65.0984 9.79094C64.2284 8.84949 62.8865 8.37876 61.0718 8.37876C60.5964 8.3801 60.1237 8.44586 59.6663 8.57415C59.1974 8.70227 58.7449 8.88422 58.3178 9.11636C57.8962 9.33676 57.5044 9.61002 57.152 9.92964C56.8204 10.2396 56.5359 10.5964 56.3076 10.9888H56.2446C56.2446 10.6064 56.2446 10.2281 56.2446 9.85403C56.2446 9.47996 56.2194 9.10164 56.169 8.71918H54.1147ZM75.0921 13.5169C75.3549 12.876 75.7351 12.29 76.2138 11.7895C76.6889 11.2949 77.2535 10.8948 77.8776 10.6105C78.5279 10.3137 79.2354 10.1631 79.9508 10.1692C80.7191 10.1588 81.4808 10.3091 82.1877 10.6105C82.827 10.8842 83.4037 11.2854 83.8831 11.7895C84.3491 12.2877 84.7092 12.8754 84.9416 13.5169C85.188 14.1914 85.3115 14.9046 85.3072 15.6227C85.3376 16.3869 85.2086 17.1491 84.9288 17.8608C84.6684 18.5081 84.2706 19.091 83.7632 19.5693C82.7382 20.5305 81.3871 21.0668 79.9824 21.0698C79.267 21.0761 78.5596 20.9255 77.9093 20.6285C77.2851 20.3444 76.7206 19.9444 76.2455 19.4495C75.7667 18.9492 75.3859 18.3631 75.1237 17.7221C74.5798 16.3732 74.5798 14.8658 75.1237 13.5169H75.0921ZM72.8364 27.2924C73.6801 28.2163 74.7112 28.9492 75.861 29.4422C77.0625 29.9228 78.3479 30.1586 79.6418 30.1357C80.9698 30.1887 82.2923 29.9408 83.5108 29.4107C84.4129 28.9941 85.205 28.3723 85.8237 27.595C86.3687 26.8907 86.7514 26.0749 86.9454 25.2056C87.1304 24.401 87.2277 23.5787 87.235 22.7531V8.71918H85.2378V11.0771H85.1746C84.4847 10.1188 83.5485 9.36517 82.4651 8.89572C82.0082 8.6999 81.5307 8.55816 81.041 8.47329C80.5957 8.39567 80.1443 8.35558 79.6923 8.35351C78.7025 8.34305 77.7207 8.53394 76.8063 8.91464C75.951 9.27252 75.1791 9.80256 74.5379 10.4719C73.8955 11.1478 73.3863 11.9393 73.0377 12.8045C72.6709 13.7181 72.4872 14.6948 72.4963 15.6794C72.4872 16.667 72.6824 17.6457 73.0693 18.5543C73.4344 19.414 73.9703 20.1905 74.6449 20.8365C75.3232 21.4816 76.1189 21.9909 76.9888 22.337C77.9068 22.7029 78.8868 22.8871 79.8748 22.8792C80.887 22.8756 81.8871 22.6608 82.8118 22.2488C83.7809 21.8086 84.6003 21.0941 85.1685 20.1934H85.2312V22.7153C85.2348 23.446 85.1375 24.1738 84.9416 24.8777C84.7658 25.5339 84.4476 26.1432 84.009 26.6619C83.5424 27.1906 82.9572 27.6011 82.3014 27.8598C81.4814 28.1734 80.6078 28.3233 79.73 28.3011C78.638 28.3186 77.5576 28.0743 76.5794 27.5887C75.6809 27.1461 74.8998 26.4982 74.2982 25.6973L72.8364 27.2924ZM95.3076 14.6833C95.3088 14.0936 95.4487 13.5125 95.717 12.9874C95.9901 12.4425 96.3594 11.9513 96.8071 11.5373C97.2713 11.1066 97.809 10.7628 98.3949 10.5223C98.9935 10.2704 99.6365 10.1418 100.286 10.144C100.907 10.1073 101.53 10.2005 102.113 10.4175C102.697 10.6346 103.229 10.9709 103.676 11.4049C104.081 11.8456 104.395 12.3622 104.599 12.9249C104.804 13.4876 104.894 14.0852 104.867 14.6833H95.3076ZM107.041 16.3162V15.4335C107.046 14.5023 106.893 13.577 106.587 12.6974C106.302 11.8708 105.854 11.1097 105.27 10.4593C104.678 9.80785 103.956 9.28621 103.153 8.92723C102.247 8.53333 101.267 8.33769 100.279 8.35351C99.3141 8.34572 98.3572 8.53674 97.469 8.91464C96.6161 9.27684 95.8447 9.80633 95.2005 10.4719C94.546 11.1508 94.0319 11.952 93.6876 12.8297C93.3189 13.7736 93.1352 14.7796 93.1462 15.7929C93.1364 16.8079 93.3269 17.8148 93.7071 18.756C94.0593 19.6324 94.577 20.4329 95.2315 21.1139C95.8873 21.7865 96.6745 22.3166 97.5444 22.6711C98.4703 23.0494 99.4619 23.2401 100.462 23.2322C101.593 23.2413 102.713 23.0047 103.745 22.5387C104.848 22.0062 105.807 21.2171 106.543 20.2376L104.999 18.9767C104.545 19.6718 103.939 20.2557 103.228 20.6852C102.398 21.1956 101.437 21.454 100.462 21.4292C99.7867 21.4361 99.117 21.303 98.4959 21.0383C97.2804 20.5184 96.3077 19.5562 95.7736 18.3462C95.4883 17.7145 95.3137 17.0385 95.2571 16.3477L107.041 16.3162Z" transform="translate(28.3343 18.7837)" fill="white"/>
<path d="M0 29.3021H5.07897V7.39381H5.16089L19.2762 29.3021H25.7288V0.736212H20.6436V21.9573H20.568L6.70474 0.736212H0V29.3021ZM33.8388 21.2323C34.5401 23.0002 35.604 24.6014 36.9617 25.9328C38.3195 27.264 39.9412 28.2958 41.722 28.9617C43.6608 29.6926 45.7186 30.056 47.7903 30.0334C49.8873 30.0323 51.966 29.6432 53.9216 28.886C55.7126 28.188 57.3454 27.1375 58.7233 25.7968C60.0855 24.4551 61.1582 22.8478 61.8742 21.0747C62.6389 19.1348 63.0136 17.0631 62.9771 14.9782C63.0075 12.8525 62.6243 10.7412 61.8486 8.76189C61.1399 6.97381 60.0669 5.35285 58.6981 4.00197C57.3299 2.66887 55.6927 1.64357 53.8964 0.994699C51.9309 0.290349 49.8523 -0.0452028 47.7651 0.00488349C45.6934 -0.0177314 43.6355 0.345718 41.6967 1.07666C39.9168 1.75022 38.2965 2.78727 36.9392 4.12175C35.5708 5.48026 34.498 7.10728 33.7884 8.90059C33.0372 10.8935 32.6778 13.0128 32.7298 15.1421C32.7018 17.2266 33.0851 19.2962 33.8578 21.2323H33.8388ZM38.7414 10.8235C39.1904 9.62177 39.8688 8.51898 40.7389 7.57667C41.6057 6.643 42.6572 5.9001 43.8266 5.39527C45.0991 4.85395 46.4708 4.58549 47.8533 4.6072C49.2375 4.58885 50.6106 4.85717 51.8862 5.39527C53.063 5.89683 54.1213 6.63996 54.9928 7.57667C55.8626 8.51928 56.541 9.62201 56.9904 10.8235C57.4572 12.0971 57.6878 13.4452 57.671 14.8017C57.686 16.2444 57.4471 17.6785 56.9652 19.0383C56.5264 20.275 55.8476 21.4127 54.9677 22.386C54.0979 23.3342 53.0398 24.0901 51.861 24.6052C50.5888 25.156 49.2143 25.4311 47.8281 25.4122C46.4478 25.4328 45.0792 25.1577 43.8141 24.6052C42.6427 24.0867 41.5914 23.3311 40.7263 22.386C39.846 21.413 39.1671 20.2753 38.7288 19.0383C38.2486 17.6782 38.0118 16.244 38.0293 14.8017C38.0179 13.4373 38.2572 12.0825 38.7351 10.8045L38.7414 10.8235ZM75.2076 29.3021H79.8839L86.5001 7.55142H86.5823L93.224 29.3021H98.0633L106.369 0.736212H101.208L95.5996 21.3142H95.5175L89.2163 0.736212H84.2128L77.7912 21.3142H77.7097L72.3473 0.736212H66.7579L75.2076 29.3021Z" transform="translate(30.0711 50.188)" fill="#38F06E"/>
</svg>
