<svg width="53" height="53" viewBox="0 0 53 53" fill="none" xmlns="http://www.w3.org/2000/svg">
<g clip-path="url(#clip0)">
<path fill-rule="evenodd" clip-rule="evenodd" d="M42.9893 7.93834C43.2009 7.56817 43.3217 7.13952 43.3217 6.68261C43.3217 5.28267 42.1869 4.14783 40.787 4.14783C39.9462 4.14783 39.2012 4.55711 38.74 5.18732L27.6361 2.24804C27.4937 0.983122 26.4204 0 25.1174 0C23.7175 0 22.5826 1.13486 22.5826 2.53478C22.5826 2.62325 22.5871 2.71065 22.596 2.79678L11.5857 8.4688C11.1388 8.0742 10.5517 7.83478 9.9087 7.83478C8.50876 7.83478 7.37391 8.96963 7.37391 10.3696C7.37391 11.0453 7.63831 11.6592 8.06927 12.1136L2.70624 23.5101C2.64957 23.5063 2.5924 23.5043 2.53478 23.5043C1.13486 23.5043 0 24.6392 0 26.0391C0 27.4391 1.13486 28.5739 2.53478 28.5739C2.5594 28.5739 2.58393 28.5735 2.60838 28.5729L7.2162 39.4341C6.74483 39.8944 6.45217 40.5369 6.45217 41.2478C6.45217 42.6478 7.58702 43.7826 8.98696 43.7826C9.64088 43.7826 10.237 43.535 10.6866 43.1284L23.0539 49.3121C23.047 49.3882 23.0435 49.4656 23.0435 49.5435C23.0435 50.9436 24.1783 52.0783 25.5783 52.0783C26.9549 52.0783 28.0752 50.9809 28.1121 49.6131L41.6412 44.7567C42.1058 45.2894 42.7897 45.6261 43.5522 45.6261C44.9521 45.6261 46.087 44.4912 46.087 43.0913C46.087 42.4768 45.8683 41.9135 45.5046 41.4747L50.1242 33.1598C50.2357 33.1749 50.3495 33.1826 50.4652 33.1826C51.8653 33.1826 53 32.0478 53 30.6478C53 29.4588 52.1815 28.461 51.0768 28.1874L49.838 18.5853C50.6238 18.1548 51.1565 17.32 51.1565 16.3609C51.1565 14.9609 50.0219 13.8261 48.6217 13.8261C48.3535 13.8261 48.0945 13.8678 47.8521 13.9451L42.9893 7.93834ZM4.30546 27.8529L8.91322 38.7141C8.93774 38.7134 8.9623 38.713 8.98696 38.713C9.46428 38.713 9.91082 38.845 10.292 39.0744L16.6935 34.1279C16.627 33.9012 16.5913 33.6613 16.5913 33.413C16.5913 33.3739 16.5922 33.335 16.5939 33.2963L4.3182 27.8404C4.31397 27.8446 4.30972 27.8487 4.30546 27.8529ZM5.06694 26.1558L17.3427 31.6117C17.461 31.4946 17.5907 31.3891 17.7301 31.297L15.9545 23.0111C15.3888 22.9199 14.8856 22.6415 14.5108 22.2414L5.06947 26.018C5.06952 26.0251 5.06957 26.0321 5.06957 26.0391C5.06957 26.0782 5.06869 26.1171 5.06694 26.1558ZM4.38486 24.3064L13.8262 20.5298L13.8261 20.5087C13.8261 19.9486 14.0078 19.4309 14.3154 19.0114L10.399 12.857C10.2403 12.8881 10.0764 12.9043 9.9087 12.9043C9.85109 12.9043 9.79389 12.9024 9.73725 12.8986L4.37421 24.2951C4.37777 24.2988 4.38132 24.3026 4.38486 24.3064ZM20.5322 31.3037C20.2368 31.1064 19.8978 30.9696 19.5326 30.9107L17.757 22.6246C17.8428 22.568 17.9249 22.5062 18.0029 22.4398L25.8272 26.6529C25.815 26.7538 25.8087 26.8566 25.8087 26.9609C25.8087 27.1673 25.8334 27.368 25.8799 27.5602L20.5322 31.3037ZM21.6564 33.2607C21.6473 33.1077 21.6246 32.9583 21.5896 32.8137L26.9374 29.0702C27.3398 29.339 27.8233 29.4957 28.3435 29.4957C28.3924 29.4957 28.441 29.4943 28.4893 29.4916L31.7021 36.5013L21.6564 33.2607ZM20.8588 35.2632C20.9414 35.1858 21.0188 35.1029 21.0904 35.0152L31.3573 38.3271C31.3896 38.5958 31.4639 38.8517 31.5735 39.0878L26.1441 47.0723C25.9622 47.0308 25.7727 47.0087 25.5783 47.0087H25.5571L20.8588 35.2632ZM33.2955 35.5532C33.4548 35.5161 33.6199 35.4939 33.7892 35.4883L39.2817 25.7956C39.2285 25.7303 39.1784 25.6622 39.1318 25.5918L30.8459 27.3673C30.7616 27.8901 30.5174 28.3594 30.1652 28.7234L33.2955 35.5532ZM36.4087 38.0217C36.4087 38.1745 36.3952 38.3241 36.3693 38.4694L41.8523 41.2109C42.302 40.8042 42.8982 40.5565 43.5522 40.5565C43.6678 40.5565 43.7816 40.5643 43.8932 40.5792L48.3429 32.5698L36.3929 37.7374C36.4033 37.8308 36.4087 37.9256 36.4087 38.0217ZM33.8739 40.5565C33.5396 40.5565 33.2204 40.4918 32.9281 40.3742L27.9339 47.7184L41.0183 43.0216C41.0198 42.9672 41.023 42.9132 41.0278 42.8597L35.4 40.0458C34.9755 40.3664 34.4469 40.5565 33.8739 40.5565ZM17.8209 35.5864C18.2021 35.8158 18.6487 35.9478 19.1261 35.9478L19.1471 35.9477L23.822 47.635L11.5113 41.4796C11.5182 41.4033 11.5217 41.326 11.5217 41.2478C11.5217 40.9996 11.4861 40.7596 11.4195 40.5329L17.8209 35.5864ZM39.7062 8.97613C39.7782 9.01009 39.852 9.04079 39.9276 9.06798L40.2641 21.8588L40.2451 21.8669L40.2294 21.8737L34.3523 15.9966C34.4892 15.685 34.5652 15.3405 34.5652 14.9783C34.5652 14.6403 34.4991 14.3178 34.379 14.023L39.7062 8.97613ZM33.1112 12.6847L38.4383 7.63785C38.3527 7.42765 38.2946 7.20335 38.2682 6.96941L27.1643 4.03012C27.1341 4.07151 27.1025 4.11195 27.0699 4.15137L31.6892 12.4662C31.8008 12.4512 31.9147 12.4435 32.0304 12.4435C32.417 12.4435 32.7834 12.53 33.1112 12.6847ZM30.0779 13.3618L25.4584 5.0468C25.3469 5.06182 25.2331 5.06957 25.1174 5.06957C25.0482 5.06957 24.9796 5.0668 24.9117 5.06136L18.2236 18.7896C18.243 18.8106 18.2621 18.832 18.2808 18.8536L29.497 14.895C29.5158 14.313 29.7307 13.7806 30.0779 13.3618ZM23.0741 4.62418L16.5664 17.9821C16.4986 17.9767 16.43 17.9739 16.3609 17.9739C16.1931 17.9739 16.0291 17.9902 15.8705 18.0213L11.9541 11.867C12.2618 11.4474 12.4435 10.9298 12.4435 10.3696C12.4435 10.2811 12.439 10.1937 12.4301 10.1075L23.0741 4.62418ZM26.7014 25.0298L18.8771 20.8168C18.8861 20.7428 18.8919 20.6678 18.8943 20.592L30.1105 16.6334C30.2147 16.7541 30.3301 16.8649 30.455 16.9641L28.1571 24.4328C27.6036 24.473 27.0995 24.691 26.7014 25.0298ZM32.2169 17.5063L29.919 24.9751C30.1287 25.1417 30.3114 25.3408 30.4595 25.5648L38.7454 23.7892C38.78 23.5751 38.8413 23.3699 38.9259 23.1773L33.0488 17.3002C32.7911 17.4134 32.511 17.4849 32.2169 17.5063ZM41.7797 9.37404L46.4192 15.1053C46.2077 15.4754 46.087 15.904 46.087 16.3609C46.087 16.7504 46.175 17.1193 46.3317 17.449L42.1954 21.8439C42.1662 21.8321 42.1368 21.8209 42.107 21.8102L41.7797 9.37404ZM43.5378 23.1074L47.6742 18.7125C47.7825 18.7563 47.8945 18.7927 48.0097 18.8213L49.2485 28.4235C49.1835 28.4591 49.1204 28.4975 49.0591 28.5385L43.7113 24.795C43.7579 24.6029 43.7826 24.4021 43.7826 24.1957C43.7826 23.8061 43.6948 23.4372 43.5378 23.1074ZM42.6538 26.3051L48.0019 30.0486C47.9553 30.2407 47.9304 30.4414 47.9304 30.6478C47.9304 30.6783 47.9309 30.7088 47.9318 30.739L35.5701 36.0847L40.8854 26.7047C41.0037 26.7217 41.1248 26.7304 41.2478 26.7304C41.768 26.7304 42.2515 26.5738 42.6538 26.3051Z" fill="#182848"/>
</g>
<defs>
<clipPath id="clip0">
<rect width="53" height="52.0783" fill="white"/>
</clipPath>
</defs>
</svg>
