<svg width="52" height="52" viewBox="0 0 52 52" fill="none" xmlns="http://www.w3.org/2000/svg">
<path fill-rule="evenodd" clip-rule="evenodd" d="M30.8611 26.3811H28.9931L30.3021 27.688C30.5458 27.2853 30.7354 26.8463 30.8611 26.3811ZM30.9095 23.904H28.9458L30.3568 22.4954C30.6068 22.9289 30.795 23.4025 30.9095 23.904ZM33.6103 26.3811H47.2327L45.4947 28.0728C44.9978 28.5565 44.9978 29.3407 45.4947 29.8244C45.9917 30.3081 46.7973 30.3081 47.2943 29.8244L51.4075 25.8208C51.4369 25.7921 51.4646 25.7626 51.4905 25.7319C51.9443 25.2458 51.9301 24.4933 51.4478 24.0239L47.3346 20.0203C46.8376 19.5366 46.032 19.5366 45.535 20.0203C45.0381 20.504 45.0381 21.2882 45.535 21.7719L47.7255 23.904H33.6414C33.4602 22.6701 32.9896 21.5301 32.3007 20.5548L41.9336 10.9382L41.9029 13.3612C41.8941 14.054 42.4496 14.6085 43.1435 14.5998C43.8376 14.591 44.4073 14.0223 44.416 13.3294L44.4887 7.59489C44.4892 7.55467 44.4879 7.51509 44.4847 7.47587C44.4624 6.81065 43.9189 6.28734 43.2446 6.29588L37.5003 6.36848C36.8064 6.37727 36.2367 6.946 36.2279 7.63881C36.2191 8.33162 36.7746 8.88612 37.4685 8.87736L40.5276 8.8387L30.5682 18.7812C29.5803 18.0479 28.413 17.5419 27.144 17.341V4.06953L29.2485 6.11793C29.7454 6.60161 30.5511 6.60161 31.048 6.11793C31.5449 5.63423 31.5449 4.85002 31.048 4.36635L26.9348 0.362744C26.6545 0.0899784 26.2761 -0.0289487 25.9102 0.00593294C25.5443 -0.0289487 25.1659 0.0899784 24.8857 0.362744L20.7724 4.36635C20.2756 4.85002 20.2756 5.63423 20.7724 6.11793C21.2694 6.60161 22.075 6.60161 22.572 6.11793L24.599 4.14491V17.3537C23.3913 17.5574 22.2777 18.0377 21.326 18.7271L11.9254 9.34236L14.8644 9.30519C15.5583 9.29643 16.1281 8.72767 16.1368 8.03486C16.1456 7.34208 15.5902 6.78755 14.8962 6.79634L9.15195 6.86894C8.76066 6.87388 8.40891 7.05684 8.1749 7.33967C7.89133 7.57329 7.70792 7.92457 7.70298 8.31538L7.63029 14.0499C7.6215 14.7427 8.17692 15.2973 8.87095 15.2885C9.56492 15.2797 10.1346 14.711 10.1434 14.0182L10.1792 11.1922L19.5354 20.5325C18.8379 21.5127 18.3615 22.6607 18.179 23.904H4.09501L6.2855 21.7719C6.78245 21.2882 6.78245 20.504 6.2855 20.0203C5.78855 19.5366 4.98289 19.5366 4.48594 20.0203L0.372718 24.0239C-0.109338 24.4931 -0.123803 25.2451 0.329383 25.7312C0.355506 25.7621 0.383277 25.7919 0.41294 25.8208L0.514075 25.9192C0.576942 25.9972 0.649085 26.0675 0.728797 26.1282L4.52616 29.8244C5.02311 30.3081 5.82877 30.3081 6.32572 29.8244C6.82267 29.3407 6.82267 28.5565 6.32572 28.0728L4.58774 26.3811H18.2101C18.4222 27.6078 18.9211 28.7364 19.6355 29.6955L9.67618 39.638L9.71488 36.5841C9.72367 35.8912 9.16825 35.3367 8.47428 35.3455C7.78025 35.3543 7.21055 35.923 7.20182 36.6158L7.12907 42.3504C7.12052 43.0226 7.64323 43.5646 8.30826 43.5882C8.34843 43.5916 8.38895 43.593 8.43021 43.5925L8.57377 43.5907C8.67142 43.601 8.77018 43.5998 8.86759 43.587L14.1745 43.5199C14.8684 43.5111 15.4381 42.9424 15.4469 42.2496C15.4557 41.5568 14.9002 41.0023 14.2063 41.011L11.7792 41.0417L21.4121 31.4251C22.3446 32.0816 23.4275 32.5394 24.599 32.737V45.8619L22.572 43.8889C22.075 43.4052 21.2694 43.4052 20.7724 43.8889C20.2756 44.3726 20.2756 45.1568 20.7724 45.6405L24.8857 49.6441C24.9181 49.6756 24.9517 49.7051 24.9866 49.7325C25.2156 49.9541 25.5276 50.0905 25.8715 50.0905C26.1072 50.0905 26.3278 50.0265 26.5171 49.9148C26.669 49.8544 26.8114 49.7641 26.9348 49.6441L31.048 45.6405C31.5449 45.1568 31.5449 44.3726 31.048 43.8889C30.5511 43.4052 29.7454 43.4052 29.2485 43.8889L27.144 45.9373V32.7496C28.3546 32.558 29.4726 32.0887 30.4306 31.4093L39.7275 40.6905L36.8968 40.7263C36.2028 40.735 35.633 41.3038 35.6243 41.9966C35.6155 42.6894 36.1709 43.2439 36.8649 43.2351L42.6092 43.1625C42.6528 43.162 42.6959 43.1592 42.7384 43.1543C43.0588 43.1504 43.378 43.0264 43.6225 42.7824C43.7894 42.6157 43.9002 42.4143 43.955 42.2015C44.0194 42.0517 44.0559 41.8877 44.0581 41.7161L44.1308 35.9815C44.1396 35.2887 43.5842 34.7342 42.8902 34.743C42.1962 34.7518 41.6265 35.3205 41.6177 36.0133L41.5805 38.9474L32.2392 29.6217C32.9246 28.6787 33.4037 27.5765 33.6103 26.3811ZM28.4886 29.4706L27.144 28.1282V30.0147C27.6221 29.8968 28.0738 29.7119 28.4886 29.4706ZM24.599 29.995V28.2435L23.3559 29.4845C23.7415 29.7061 24.1587 29.8791 24.599 29.995ZM21.5671 27.7671L22.9554 26.3811H20.9593C21.0932 26.877 21.2998 27.343 21.5671 27.7671ZM20.9109 23.904H22.9126L21.4775 22.4713C21.2206 22.9114 21.0274 23.3932 20.9109 23.904ZM23.2631 20.6609L24.599 21.9946V20.0957C24.1231 20.221 23.6742 20.4129 23.2631 20.6609ZM27.144 20.076V22.1997L28.6365 20.7096C28.182 20.4242 27.6796 20.2081 27.144 20.076Z" transform="translate(0.0250854 0.954712)" fill="#182848"/>
</svg>
