<svg width="53" height="56" viewBox="0 0 53 56" fill="none" xmlns="http://www.w3.org/2000/svg">
<path fill-rule="evenodd" clip-rule="evenodd" d="M26.3215 3.42625e-05C26.0367 0.0165443 25.8328 0.0781898 25.6778 0.177891L8.90594 11.3006L3.43878 5.85624C2.95636 5.37583 2.17517 5.3768 1.69391 5.8584C1.21271 6.34003 1.21368 7.11994 1.69611 7.60035L6.80859 12.6915L1.64508 16.1158C1.22632 16.3806 1.01752 16.9422 1.16229 17.4143C1.30707 17.8864 1.79279 18.2276 2.28882 18.2148H5.72205V38.7064H2.28882C1.68964 38.7064 1.14447 39.2488 1.14441 39.8448V43.26C0.545227 43.2601 6.10352e-05 43.8025 0 44.3985V48.9522C6.10352e-05 49.5483 0.545227 50.0905 1.14441 50.0906H4.49109L1.69391 52.89C1.21271 53.3716 1.21368 54.1515 1.69611 54.632C2.17853 55.1124 2.95978 55.1114 3.44098 54.6298L7.9765 50.0906H44.3647L48.8668 54.5739C49.3492 55.0544 50.1304 55.0534 50.6117 54.5718C51.0929 54.0901 51.0919 53.3102 50.6095 52.8298L47.8588 50.0906H51.4986C52.0978 50.0905 52.6429 49.5483 52.643 48.9522V44.3985C52.6429 43.8025 52.0978 43.2601 51.4986 43.26V39.8448C51.4985 39.2488 50.9534 38.7064 50.3542 38.7064H46.921V18.2148H50.3542C50.8502 18.2279 51.3359 17.8864 51.4807 17.4143C51.6255 16.9422 51.4167 16.3806 50.9979 16.1158L45.5403 12.4965L50.494 7.53879C50.9753 7.05716 50.9743 6.27729 50.4919 5.79685C50.0095 5.31644 49.2282 5.31742 48.747 5.79905L43.444 11.1063L26.9652 0.177891C26.7406 0.0313148 26.5669 -0.00121696 26.3215 3.42625e-05ZM41.7844 12.7673L26.3215 2.50815L10.5707 12.9583L13.5628 15.9379H38.6163L41.7844 12.7673ZM36.3412 18.2148H35.4768V19.0799L36.3412 18.2148ZM35.4768 22.5681L39.8266 18.2148H40.0544V38.7064H36.4268L35.4768 37.7603V22.5681ZM33.188 21.3706V18.2148H30.8992V23.6613L33.188 21.3706ZM30.8992 27.1494L33.188 24.8588V35.4811L30.8992 33.2018V27.1494ZM28.6104 25.9519V18.2148H24.0327V26.364L26.1208 28.4435L28.6104 25.9519ZM27.8679 30.1832L28.6104 29.4401V30.9226L27.8679 30.1832ZM24.3781 30.1876L24.0327 29.8435V30.5333L24.3781 30.1876ZM24.0327 34.0215L26.1252 31.9273L28.6104 34.4021V38.7064H24.0327V34.0215ZM21.7438 32.8239V27.5643L19.455 25.285V35.1146L21.7438 32.8239ZM19.455 38.6028L21.7438 36.3121V38.7064H19.455V38.6028ZM17.1662 37.4053L15.8661 38.7064H12.5886V18.4473L17.1662 23.0058V37.4053ZM13.5911 40.9832L11.3162 43.26H3.43323V40.9832H13.5911ZM14.8015 43.26L17.0765 40.9832H35.2191L37.5055 43.26H14.8015ZM9.04114 45.5369H2.28882V47.8137H6.76611L9.04114 45.5369ZM10.2515 47.8137L12.5265 45.5369H39.7919L42.0782 47.8137H10.2515ZM42.1016 15.9379L43.8803 14.1578L46.5633 15.9379H42.1016ZM6.07971 15.9379L8.47369 14.3496L10.0687 15.9379H6.07971ZM15.8492 18.2148L17.1662 19.5263V18.2148H15.8492ZM19.455 21.8055L21.7438 24.0848V18.2148H19.455V21.8055ZM30.8992 38.7064V36.6814L32.9327 38.7064H30.8992ZM38.7132 40.9832L40.9996 43.26H49.2098V40.9832H38.7132ZM43.286 45.5369L45.5724 47.8137H50.3542V45.5369H43.286ZM26.3215 6.83054C24.439 6.83054 22.8882 8.37311 22.8882 10.2458C22.8882 12.1185 24.439 13.6611 26.3215 13.6611C28.2041 13.6611 29.7548 12.1185 29.7548 10.2458C29.7548 8.37311 28.2041 6.83054 26.3215 6.83054ZM26.3215 9.1074C26.9671 9.1074 27.4659 9.60364 27.4659 10.2458C27.4659 10.8881 26.9671 11.3843 26.3215 11.3843C25.6759 11.3843 25.1771 10.8881 25.1771 10.2458C25.1771 9.60364 25.6759 9.1074 26.3215 9.1074ZM8.01086 18.2148H10.2997V38.7064H8.01086V18.2148ZM42.3433 18.2148H44.6321V38.7064H42.3433V18.2148Z" transform="translate(0.356995 0.312378)" fill="#182848"/>
</svg>
