<svg width="69" height="67" viewBox="0 0 69 67" fill="none" xmlns="http://www.w3.org/2000/svg">
<path d="M34.5003 0C15.4488 0 0 15.3778 0 34.3481C0 49.524 9.88538 62.3992 23.5934 66.941C25.3176 67.2589 25.9506 66.1958 25.9506 65.2886C25.9506 64.4696 25.9186 61.7638 25.9038 58.8937C16.3058 60.9715 14.2805 54.8411 14.2805 54.8411C12.7111 50.8709 10.4498 49.8153 10.4498 49.8153C7.31963 47.6834 10.6858 47.7272 10.6858 47.7272C14.1502 47.9695 15.9744 51.2668 15.9744 51.2668C19.0515 56.5179 24.0453 54.9998 26.014 54.1221C26.3237 51.9021 27.2178 50.3869 28.2044 49.5291C20.5415 48.6606 12.486 45.7154 12.486 32.5542C12.486 28.8041 13.8337 25.7401 16.0407 23.3346C15.6825 22.4695 14.5016 18.976 16.3749 14.2448C16.3749 14.2448 19.272 13.3216 25.8649 17.7656C28.6169 17.0046 31.5683 16.6229 34.5003 16.6098C37.4322 16.6229 40.3859 17.0046 43.1431 17.7656C49.728 13.3216 52.6211 14.2448 52.6211 14.2448C54.499 18.976 53.3175 22.4695 52.9593 23.3346C55.1714 25.7401 56.51 28.8041 56.51 32.5542C56.51 45.7467 48.4391 48.6515 40.7567 49.5018C41.9942 50.5678 43.0968 52.6581 43.0968 55.8626C43.0968 60.4585 43.0568 64.1573 43.0568 65.2886C43.0568 66.2027 43.6778 67.2737 45.4266 66.9364C59.1272 62.3895 69 49.5189 69 34.3481C69 15.3778 53.5535 0 34.5003 0ZM12.9215 48.9296C12.8455 49.1003 12.5758 49.1515 12.3302 49.0343C12.0799 48.9222 11.9394 48.6896 12.0205 48.5184C12.0948 48.3426 12.365 48.2937 12.6147 48.4115C12.8655 48.5235 13.0083 48.7584 12.9215 48.9296ZM14.6185 50.4372C14.454 50.5891 14.1323 50.5185 13.9141 50.2785C13.6884 50.039 13.6461 49.7188 13.813 49.5647C13.9826 49.4128 14.2946 49.4839 14.5208 49.7234C14.7465 49.9657 14.7905 50.2836 14.6185 50.4372ZM15.7827 52.3661C15.5714 52.5122 15.2257 52.3752 15.012 52.0697C14.8007 51.7643 14.8007 51.398 15.0166 51.2512C15.2309 51.1045 15.5714 51.2364 15.7879 51.5396C15.9987 51.8502 15.9987 52.2165 15.7827 52.3661ZM17.7517 54.6C17.5626 54.8076 17.1598 54.7518 16.865 54.4686C16.5634 54.1916 16.4794 53.7985 16.6691 53.5909C16.8605 53.3828 17.2655 53.4413 17.5626 53.7223C17.862 53.9988 17.9534 54.3946 17.7517 54.6ZM20.2964 55.3541C20.213 55.6231 19.8251 55.7454 19.4343 55.6311C19.0441 55.5134 18.7887 55.1983 18.8675 54.9264C18.9487 54.6556 19.3383 54.5282 19.7319 54.6505C20.1216 54.7677 20.3775 55.0805 20.2964 55.3541ZM23.1923 55.674C23.2021 55.9573 22.8707 56.1922 22.4605 56.1973C22.048 56.2064 21.7144 55.9772 21.7098 55.6985C21.7098 55.4124 22.0337 55.1797 22.4462 55.1729C22.8564 55.1649 23.1923 55.3924 23.1923 55.674ZM26.0373 55.5654C26.0864 55.8419 25.8013 56.1257 25.394 56.2013C24.9935 56.2741 24.6227 56.1035 24.5719 55.8293C24.5222 55.5461 24.8124 55.2623 25.2123 55.1889C25.6202 55.1184 25.9853 55.2844 26.0373 55.5654Z" fill="#161614"/>
</svg>
