<svg width="41" height="53" viewBox="0 0 41 53" fill="none" xmlns="http://www.w3.org/2000/svg">
<path fill-rule="evenodd" clip-rule="evenodd" d="M5.92719 14.109C5.92719 6.31293 12.2921 0 20.1524 0C28.0127 0 34.3776 6.31293 34.3776 14.109V23.515H36.7485C38.6982 23.515 40.3048 25.1085 40.3048 27.0422V48.2057C40.3048 50.1394 38.6982 51.7329 36.7485 51.7329H3.5563C1.60663 51.7329 0 50.1394 0 48.2057V27.0422C0 25.1085 1.60663 23.515 3.5563 23.515H5.92719V14.109ZM32.0067 14.109C32.0067 7.57498 26.7402 2.3515 20.1524 2.3515C13.5646 2.3515 8.29803 7.57498 8.29803 14.109V23.515H10.6931V13.9597H10.702C10.9173 8.93478 15.0661 4.92694 20.1525 4.92694C25.239 4.92694 29.3877 8.93478 29.603 13.9597H29.6117V14.3282C29.6118 14.3422 29.6118 14.3562 29.6118 14.3702C29.6118 14.3842 29.6118 14.3981 29.6117 14.4121V23.515H32.0067V14.109ZM27.1441 23.515V14.6876H27.137C27.1417 14.5824 27.1441 14.4766 27.1441 14.3702C27.1441 10.5154 24.0138 7.39041 20.1524 7.39041C16.291 7.39041 13.1608 10.5154 13.1608 14.3702C13.1608 14.4766 13.1631 14.5824 13.1679 14.6876H13.1608V23.515H27.1441ZM5.75784 25.8665H3.5563C2.87906 25.8665 2.37088 26.3705 2.37088 27.0422V28.7405H4.75784C5.31012 28.7405 5.75784 28.2928 5.75784 27.7405V25.8665ZM8.22549 25.8665V28.204C8.22549 29.8609 6.88235 31.204 5.22549 31.204H2.37088V43.5214H5.22549C6.88235 43.5214 8.22549 44.8645 8.22549 46.5214V49.3814H32.0793V46.5214C32.0793 44.8645 33.4225 43.5214 35.0793 43.5214H37.9339V31.204H35.0793C33.4225 31.204 32.0793 29.8609 32.0793 28.204V25.8665H8.22549ZM36.7485 49.3814H34.547V46.9849C34.547 46.4326 34.9947 45.9849 35.547 45.9849H37.9339V48.2057C37.9339 48.8774 37.4257 49.3814 36.7485 49.3814ZM5.75784 49.3814V46.9849C5.75784 46.4326 5.31012 45.9849 4.75784 45.9849H2.37088V48.2057C2.37088 48.8774 2.87906 49.3814 3.5563 49.3814H5.75784ZM37.9339 27.0422V28.7405H35.547C34.9947 28.7405 34.547 28.2928 34.547 27.7405V25.8665H36.7485C37.4257 25.8665 37.9339 26.3705 37.9339 27.0422ZM15.4106 35.8603C15.4106 33.2768 17.5476 31.1573 20.1524 31.1573C22.7571 31.1573 24.8941 33.2768 24.8941 35.8603C24.8941 38.0363 23.3725 39.8695 21.3378 40.3979V42.9148C21.3401 43.0706 21.311 43.2253 21.2525 43.3699C21.1939 43.5144 21.1069 43.646 20.9966 43.757C20.8863 43.868 20.7549 43.9561 20.61 44.0162C20.465 44.0763 20.3095 44.1073 20.1524 44.1073C19.9953 44.1073 19.8398 44.0763 19.6949 44.0162C19.5499 43.9561 19.4185 43.868 19.3082 43.757C19.1979 43.646 19.1109 43.5144 19.0523 43.3699C18.9938 43.2253 18.9648 43.0706 18.967 42.9148V40.3979C16.9323 39.8695 15.4106 38.0363 15.4106 35.8603ZM22.5233 35.8603C22.5233 34.5477 21.4758 33.5088 20.1524 33.5088C18.829 33.5088 17.7815 34.5477 17.7815 35.8603C17.7815 37.1729 18.829 38.2118 20.1524 38.2118C21.4758 38.2118 22.5233 37.1729 22.5233 35.8603Z" transform="translate(0 0.312378)" fill="#182848"/>
</svg>
