<svg width="49" height="60" viewBox="0 0 49 60" version="1.1" xmlns="http://www.w3.org/2000/svg" xmlns:xlink="http://www.w3.org/1999/xlink">
<title>logo-debian</title>
<desc>Created using Figma</desc>
<g id="Canvas" transform="translate(-1167 -551)">
<g id="logo-debian">
<g id="Shape">
<use xlink:href="#path0_fill" transform="translate(1195.62 582.288)" fill="#CCCCCC"/>
</g>
<g id="Shape">
<use xlink:href="#path1_fill" transform="translate(1200.66 578.483)" fill="#CCCCCC"/>
</g>
<g id="Shape">
<use xlink:href="#path2_fill" transform="translate(1202.72 574.83)" fill="#CCCCCC"/>
</g>
<g id="Shape">
<use xlink:href="#path3_fill" transform="translate(1192.25 551.767)" fill="#CCCCCC"/>
</g>
<g id="Shape">
<use xlink:href="#path4_fill" transform="translate(1192.93 552.059)" fill="#CCCCCC"/>
</g>
<g id="Shape">
<use xlink:href="#path5_fill" transform="translate(1167.78 551.422)" fill="#CCCCCC"/>
</g>
<g id="Shape">
<use xlink:href="#path6_fill" transform="translate(1185.1 583.766)" fill="#CCCCCC"/>
</g>
<g id="Shape">
<use xlink:href="#path7_fill" transform="translate(1185.99 582.417)" fill="#CCCCCC"/>
</g>
<g id="Shape">
<use xlink:href="#path8_fill" transform="translate(1211.99 577.819)" fill="#CCCCCC"/>
</g>
<g id="Shape">
<use xlink:href="#path9_fill" transform="translate(1192.05 551)" fill="#CCCCCC"/>
</g>
<g id="Shape">
<use xlink:href="#path10_fill" transform="translate(1168.7 563.731)" fill="#CCCCCC"/>
</g>
<g id="Shape">
<use xlink:href="#path11_fill" transform="translate(1167.44 568.242)" fill="#CCCCCC"/>
</g>
</g>
</g>
<defs>
<path id="path0_fill" d="M 0.367076 0.125934C -0.617979 0.139121 0.552351 0.632308 1.83872 0.830769C 2.19543 0.552527 2.51587 0.272967 2.80334 0C 2.00356 0.195824 1.18861 0.20044 0.367076 0.125934Z"/>
<path id="path1_fill" d="M 0.61465 2.61297C 1.20344 1.80264 1.63069 0.916484 1.78168 0C 1.64916 0.652747 1.29641 1.21648 0.961463 1.81253C -0.880075 2.97231 0.787397 1.12418 0.960144 0.420659C -1.0192 2.91495 0.687177 1.91604 0.61465 2.61297Z"/>
<path id="path2_fill" d="M 0.506374 1.18717C 0.626374 -0.587119 0.157582 -0.0253606 0 0.650464C 0.183297 0.746727 0.329011 1.90189 0.506374 1.18717Z"/>
<path id="path3_fill" d="M 0 0C 0.526154 0.0936264 1.1367 0.166154 1.04901 0.292088C 1.62659 0.164835 1.75648 0.0501099 0 0Z"/>
<path id="path4_fill" d="M 0.36989 0L 0 0.0771429L 0.344835 0.0454945L 0.36989 0Z"/>
<path id="path5_fill" d="M 41.9176 25.2673C 41.9769 26.8602 41.4527 27.6343 40.9787 29.0031L 40.1262 29.427C 39.4292 30.7813 40.1954 30.2868 39.6963 31.3635C 38.607 32.3308 36.3956 34.3892 35.6875 34.5778C 35.1699 34.5666 36.0376 33.9673 36.151 33.7332C 34.6945 34.7327 34.982 35.2338 32.7541 35.8424L 32.6894 35.6967C 27.1971 38.2813 19.5673 33.1602 19.6675 26.1738C 19.6095 26.6169 19.5007 26.5062 19.3793 26.6842C 19.0958 23.0901 21.0396 19.4802 24.3178 18.004C 27.5242 16.4176 31.2831 17.0677 33.5782 19.2099C 32.3176 17.5576 29.8062 15.8057 26.8319 15.9679C 23.9169 16.0154 21.1892 17.8675 20.2793 19.8791C 18.7866 20.8187 18.6125 23.5029 17.9624 23.9947C 17.0862 30.4299 19.6088 33.209 23.8767 36.48C 24.5466 36.9323 24.0653 37.0015 24.1549 37.3457C 22.7374 36.6824 21.4398 35.6802 20.3716 34.4532C 20.9387 35.282 21.5499 36.0877 22.3404 36.7207C 21.0026 36.269 19.2165 33.4813 18.6963 33.3679C 21.0007 37.4941 28.0444 40.6042 31.7347 39.0607C 30.027 39.124 27.8585 39.0956 25.9411 38.3868C 25.1334 37.9721 24.0396 37.1143 24.2354 36.9541C 29.2701 38.8338 34.4697 38.3769 38.8253 34.8857C 39.9343 34.022 41.1448 32.5536 41.4949 32.5338C 40.9681 33.3264 41.5853 32.9149 41.1804 33.6145C 42.2829 31.8336 40.6998 32.8892 42.3211 30.5393L 42.9198 31.3635C 42.6956 29.884 44.756 28.0892 44.5464 25.7512C 45.0191 25.0365 45.0732 26.5213 44.5721 28.1657C 45.2677 26.3413 44.756 26.0479 44.9341 24.542C 45.1259 25.0484 45.3811 25.5857 45.511 26.1204C 45.0574 24.3567 45.9745 23.1514 46.2026 22.1262C 45.9771 22.0273 45.5031 22.9055 45.3936 20.8233C 45.4101 19.9187 45.6462 20.3492 45.7365 20.1264C 45.5598 20.0242 45.0936 19.3305 44.8108 18.0007C 45.0145 17.6875 45.3593 18.811 45.6389 18.8565C 45.4589 17.7996 45.1497 16.9932 45.1365 16.1815C 44.3189 14.4738 44.847 16.4097 44.1851 15.4484C 43.3147 12.7358 44.9064 14.8187 45.0145 13.587C 46.3319 15.4958 47.0829 18.4563 47.429 19.682C 47.1653 18.1873 46.74 16.7387 46.2198 15.3376C 46.6213 15.507 45.5743 12.2631 46.7413 14.4112C 45.4958 9.83209 41.4152 5.55297 37.6602 3.54593C 38.1185 3.96593 38.698 4.49341 38.491 4.57648C 36.6224 3.46549 36.9508 3.3778 36.6831 2.90835C 35.1633 2.28923 35.0618 2.95912 34.0563 2.90967C 31.1881 1.38791 30.6356 1.54945 27.9963 0.597363L 28.1163 1.15912C 26.2167 0.526154 25.9029 1.3978 23.8503 1.16044C 23.7257 1.06352 24.5084 0.807033 25.1532 0.714066C 23.3163 0.956703 23.402 0.351429 21.6046 0.780659C 22.047 0.47011 22.5165 0.263736 22.9886 0C 21.4912 0.090989 19.4123 0.871648 20.0538 0.160879C 17.611 1.25143 13.2719 2.78176 10.8369 5.06505L 10.7604 4.55341C 9.64484 5.89253 5.89516 8.55297 5.59648 10.289L 5.2978 10.3582C 4.71824 11.3413 4.34176 12.4549 3.88154 13.4657C 3.12264 14.76 2.76857 13.9642 2.8767 14.1673C 1.3833 17.1949 0.64022 19.7387 0 21.8262C 0.456264 22.5086 0.0112088 25.9352 0.183297 28.6774C -0.565714 42.2229 9.68967 55.3734 20.8998 58.409C 22.5429 58.9978 24.9857 58.9767 27.064 59.0347C 24.6125 58.3332 24.296 58.6635 21.9066 57.8308C 20.1837 57.0185 19.8066 56.0921 18.5855 55.0325L 19.0688 55.8864C 16.6754 55.0391 17.6769 54.838 15.7292 54.2215L 16.2455 53.5484C 15.4695 53.489 14.1903 52.2415 13.8409 51.5486L 12.9916 51.5822C 11.9723 50.3255 11.4284 49.4176 11.4686 48.7141L 11.1943 49.2033C 10.8837 48.6699 7.44198 44.4837 9.22747 45.4582C 8.89582 45.1563 8.45473 44.9657 7.9767 44.096L 8.34 43.6813C 7.4822 42.5756 6.7589 41.1587 6.81429 40.6866C 7.27253 41.3051 7.59033 41.4211 7.90549 41.5273C 5.7356 36.1444 5.61363 41.2312 3.97121 36.0481L 4.31802 36.0204C 4.05231 35.6176 3.88945 35.1831 3.67582 34.7552L 3.82747 33.2486C 2.26615 31.4446 3.39099 25.5705 3.61714 22.3497C 3.77209 21.0402 4.92066 19.6457 5.79297 17.4587L 5.26154 17.3677C 6.27824 15.5954 11.0651 10.2475 13.2831 10.5218C 14.3571 9.17275 13.0695 10.5165 12.8591 10.1776C 15.2189 7.73604 15.9607 8.45275 17.553 8.01297C 19.2692 6.99429 16.0793 8.41121 16.893 7.62462C 19.862 6.86703 18.9963 5.9011 22.8686 5.5167C 23.2774 5.74879 21.9211 5.87538 21.5809 6.1767C 24.0534 4.96615 29.4066 5.24242 32.8853 6.84791C 36.9185 8.73429 41.4527 14.3077 41.6321 19.5514L 41.8358 19.6062C 41.733 21.691 42.1549 24.1022 41.4224 26.3163L 41.9176 25.2673Z"/>
<path id="path6_fill" d="M 0.139121 4.6849e-15L 0 0.69033C 0.648132 1.57055 1.16242 2.52396 1.98857 3.20967C 1.39385 2.04989 0.952747 1.57055 0.139121 0"/>
<path id="path7_fill" d="M 0.772747 1.28967C 0.42989 0.90989 0.228132 0.453626 0 0C 0.217582 0.798462 0.663297 1.48484 1.0767 2.18374L 0.772747 1.28967Z"/>
<path id="path8_fill" d="M 1.86198 0L 1.71758 0.363956C 1.45253 2.24835 0.878242 4.11297 0 5.84242C 0.970549 4.01802 1.59626 2.0222 1.86198 0Z"/>
<path id="path9_fill" d="M 0.39956 0.294066C 1.06484 0.0507692 2.03604 0.16022 2.74418 0C 1.82242 0.0771429 0.905275 0.123297 0 0.238681L 0.39956 0.294066Z"/>
<path id="path10_fill" d="M 0.363432 0C 0.517059 1.42022 -0.704699 1.97209 0.633762 1.03451C 1.35244 -0.583516 0.354202 0.588132 0.363432 0Z"/>
<path id="path11_fill" d="M 0.044819 2.06505C 0.35405 1.11758 0.409434 0.549231 0.527456 0C -0.325071 1.09055 0.134489 1.3233 0.044819 2.06505Z"/>
</defs>
</svg>
