<svg width="113" height="111" viewBox="0 0 113 111" version="1.1" xmlns="http://www.w3.org/2000/svg" xmlns:xlink="http://www.w3.org/1999/xlink">
<title>logo</title>
<desc>Created using Figma</desc>
<g id="Canvas" transform="translate(-348 0)">
<g id="logo">
<g id="Rectangle">
<g id="Mask" filter="url(#filter0_d)">
<use xlink:href="#path0_fill" transform="translate(372 30)" fill="url(#paint0_linear)"/>
</g>
<mask id="mask0_outline" mask-type="alpha">
<g id="Mask">
<use xlink:href="#path0_fill" transform="translate(372 30)" fill="#FFFFFF"/>
</g>
</mask>
</g>
<g id="Atomic">
<use xlink:href="#path1_fill" transform="translate(374.294 95.7647)" fill="#FFFFFF"/>
</g>
</g>
</g>
<defs>
<filter id="filter0_d" filterUnits="userSpaceOnUse" x="348" y="-4" width="113" height="111" color-interpolation-filters="sRGB">
<feFlood flood-opacity="0" result="BackgroundImageFix"/>
<feColorMatrix in="SourceAlpha" type="matrix" values="0 0 0 0 0 0 0 0 0 0 0 0 0 0 0 0 0 0 255 0"/>
<feOffset dx="0" dy="-10"/>
<feGaussianBlur stdDeviation="12"/>
<feColorMatrix type="matrix" values="0 0 0 0 0.192157 0 0 0 0 0.498039 0 0 0 0 0.796078 0 0 0 0.32 0"/>
<feBlend mode="normal" in2="BackgroundImageFix" result="effect1_dropShadow"/>
<feBlend mode="normal" in="SourceGraphic" in2="effect1_dropShadow" result="shape"/>
</filter>
<linearGradient id="paint0_linear" x1="0" y1="0" x2="1" y2="0" gradientUnits="userSpaceOnUse" gradientTransform="matrix(0 62.4486 -64.8798 0 32.4399 0)">
<stop offset="0" stop-color="#42C1FD"/>
<stop offset="1" stop-color="#1F8EFA"/>
</linearGradient>
<path id="path0_fill" fill-rule="evenodd" d="M 0 62.4486L 19.2523 9.74023C 21.6952 3.58631 26.2497 0.102854 32.3045 0.00224113L 32.3045 0C 32.3497 0 32.3948 0.00018692 32.4399 0.000558853C 32.4849 0.00018692 32.53 0 32.5752 0L 32.5752 0.00224113C 38.6301 0.102854 43.1845 3.58631 45.6275 9.74023L 64.8798 62.4486L 52.9581 58.3054L 36.512 13.2798C 35.511 10.7894 34.3554 9.89295 32.4398 9.85334C 30.5243 9.89295 29.3688 10.7894 28.3678 13.2798L 11.9217 58.3054L 0 62.4486ZM 40.8169 42.3784C 40.8169 46.9824 37.117 50.7147 32.5529 50.7147C 27.9889 50.7147 24.289 46.9824 24.289 42.3784C 24.289 37.7744 27.9889 34.0422 32.5529 34.0422C 37.117 34.0422 40.8169 37.7744 40.8169 42.3784Z"/>
<path id="path1_fill" fill-rule="evenodd" d="M 8.72094 11.7834L 4.25842 11.7834L 3.4791 14.3413L 0 14.3413L 4.95424 0.648888L 8.01584 0.648888L 13.0072 14.3413L 9.50954 14.3413L 8.72094 11.7834ZM 5.03772 9.23487L 7.94161 9.23487L 6.48502 4.48578L 5.03772 9.23487ZM 17.4883 1.63632L 17.4883 4.16604L 19.1397 4.16604L 19.1397 6.36661L 17.4883 6.36661L 17.4883 11.0217C 17.4883 11.4041 17.5563 11.6705 17.6924 11.821C 17.8285 11.9715 18.0975 12.0467 18.4995 12.0467C 18.8088 12.0467 19.0686 12.0279 19.2789 11.9903L 19.2789 14.2567C 18.716 14.4385 18.1284 14.5294 17.5161 14.5294C 16.4399 14.5294 15.6451 14.2724 15.1318 13.7583C 14.6184 13.2442 14.3617 12.4636 14.3617 11.4166L 14.3617 6.36661L 13.0814 6.36661L 13.0814 4.16604L 14.3617 4.16604L 14.3617 1.63632L 17.4883 1.63632ZM 19.9747 9.15965C 19.9747 8.14399 20.1695 7.23964 20.5592 6.44655C 20.9488 5.65346 21.5086 5.04376 22.2384 4.61744C 22.9682 4.19112 23.8249 3.97796 24.8083 3.97796C 26.3113 3.97796 27.4957 4.44973 28.3616 5.39328C 29.2275 6.33684 29.6605 7.62049 29.6605 9.24428L 29.6605 9.35713C 29.6605 10.9433 29.226 12.2019 28.357 13.1329C 27.488 14.0639 26.3113 14.5294 24.8269 14.5294C 23.3981 14.5294 22.2508 14.0953 21.3849 13.2269C 20.519 12.3586 20.052 11.1815 19.9839 9.69568L 19.9747 9.15965ZM 23.1012 9.35713C 23.1012 10.2975 23.2466 10.9872 23.5373 11.426C 23.828 11.8649 24.2578 12.0843 24.8269 12.0843C 25.9402 12.0843 26.5092 11.216 26.5339 9.47938L 26.5339 9.15964C 26.5339 7.33523 25.9587 6.42303 24.8083 6.42303C 23.763 6.42303 23.1971 7.20984 23.1105 8.78348L 23.1012 9.35713ZM 33.9931 4.16604L 34.0952 5.36037C 34.8065 4.43876 35.762 3.97796 36.962 3.97796C 38.2299 3.97796 39.0865 4.48891 39.5318 5.51084C 40.2122 4.48891 41.1956 3.97796 42.4821 3.97796C 44.517 3.97796 45.5623 5.22556 45.618 7.72081L 45.618 14.3413L 42.4821 14.3413L 42.4821 7.9183C 42.4821 7.39793 42.3955 7.01863 42.2224 6.7804C 42.0492 6.54216 41.7337 6.42304 41.276 6.42304C 40.6575 6.42304 40.1967 6.70202 39.8937 7.26001L 39.903 7.39167L 39.903 14.3413L 36.7671 14.3413L 36.7671 7.93711C 36.7671 7.4042 36.6836 7.01863 36.5166 6.7804C 36.3496 6.54216 36.0311 6.42304 35.561 6.42304C 34.9611 6.42304 34.5034 6.70202 34.188 7.26001L 34.188 14.3413L 31.0614 14.3413L 31.0614 4.16604L 33.9931 4.16604ZM 50.702 14.3413L 47.5662 14.3413L 47.5662 4.16604L 50.702 4.16604L 50.702 14.3413ZM 47.3807 1.54228C 47.3807 1.09088 47.5415 0.720986 47.8631 0.432591C 48.1847 0.144196 48.6022 0 49.1156 0C 49.6289 0 50.0464 0.144196 50.3681 0.432591C 50.6897 0.720986 50.8505 1.09088 50.8505 1.54228C 50.8505 1.99368 50.6897 2.36357 50.3681 2.65197C 50.0464 2.94037 49.6289 3.08456 49.1156 3.08456C 48.6022 3.08456 48.1847 2.94037 47.8631 2.65197C 47.5415 2.36357 47.3807 1.99368 47.3807 1.54228ZM 56.8717 12.0843C 57.3108 12.0843 57.651 11.9637 57.8922 11.7223C 58.1334 11.4809 58.2509 11.1439 58.2448 10.7113L 61.1765 10.7113C 61.1765 11.8273 60.7822 12.7426 59.9936 13.4573C 59.205 14.1721 58.1891 14.5294 56.9459 14.5294C 55.4862 14.5294 54.3358 14.0655 53.4946 13.1376C 52.6535 12.2097 52.2329 10.9245 52.2329 9.2819L 52.2329 9.15024C 52.2329 8.12205 52.42 7.21456 52.7942 6.42774C 53.1684 5.64092 53.708 5.03593 54.4131 4.61274C 55.1182 4.18955 55.9532 3.97796 56.9181 3.97796C 58.2231 3.97796 59.2591 4.34472 60.0261 5.07824C 60.793 5.81177 61.1765 6.80547 61.1765 8.05936L 58.2448 8.05936C 58.2448 7.53272 58.118 7.12835 57.8644 6.84622C 57.6108 6.5641 57.2706 6.42304 56.8438 6.42304C 56.0336 6.42304 55.5604 6.94653 55.4244 7.99353C 55.3811 8.32581 55.3594 8.78348 55.3594 9.36654C 55.3594 10.3885 55.48 11.0969 55.7213 11.4919C 55.9625 11.8869 56.3459 12.0843 56.8717 12.0843Z"/>
</defs>
</svg>
