<svg width="46" height="46" viewBox="0 0 46 46" fill="none" xmlns="http://www.w3.org/2000/svg">
<path fill-rule="evenodd" clip-rule="evenodd" d="M45.9111 22.9578C45.9111 35.6363 35.6337 45.915 22.9556 45.915C10.2773 45.915 0 35.6363 0 22.9578C0 10.2785 10.2775 0 22.9556 0C35.6338 0 45.9111 10.2785 45.9111 22.9578Z" fill="#C62D01"/>
<path fill-rule="evenodd" clip-rule="evenodd" d="M3.06545 13.5195C1.37197 13.5195 0 14.8917 0 16.5852C0 18.2779 1.37197 19.65 3.06545 19.65C4.75797 19.65 6.12995 18.2779 6.12995 16.5852C6.12995 14.8917 4.75797 13.5195 3.06545 13.5195ZM24.9479 27.4504C23.482 28.2971 22.9793 30.1707 23.8261 31.636C24.6719 33.102 26.5453 33.6046 28.0112 32.7578C29.477 31.912 29.9796 30.0384 29.1329 28.5722C28.2872 27.1071 26.4127 26.6046 24.9479 27.4504ZM9.72259 16.5853C9.72259 13.5562 11.227 10.8802 13.5289 9.25969L11.2882 5.50647C8.60679 7.29905 6.61165 10.0383 5.78253 13.2464C6.75 14.036 7.36924 15.2379 7.36924 16.5851C7.36924 17.9316 6.75 19.1335 5.78253 19.923C6.61057 23.1321 8.60571 25.8715 11.2882 27.6641L13.5289 23.9099C11.227 22.2904 9.72259 19.6144 9.72259 16.5853ZM18.6745 7.63151C23.3512 7.63151 27.1881 11.2176 27.5909 15.791L31.958 15.7266C31.7431 12.3503 30.2683 9.31921 28.0021 7.09036C26.8368 7.53067 25.4908 7.46332 24.3273 6.79258C23.1618 6.11996 22.4311 4.98528 22.2314 3.75356C21.0987 3.44093 19.9066 3.26978 18.6742 3.26978C16.5556 3.26978 14.5525 3.76746 12.774 4.64782L14.9035 8.46436C16.0492 7.93117 17.3272 7.63151 18.6745 7.63151ZM18.6745 25.538C17.3272 25.538 16.0492 25.2382 14.9037 24.7052L12.7741 28.5216C14.5526 29.403 16.5557 29.9009 18.6745 29.9009C19.9069 29.9009 21.0989 29.7296 22.2315 29.416C22.4312 28.1843 23.1622 27.0507 24.3274 26.3768C25.4917 25.705 26.8369 25.6389 28.0023 26.0792C30.2684 23.8503 31.7432 20.8193 31.9581 17.4429L27.5899 17.3785C27.1881 21.9531 23.3513 25.538 18.6745 25.538ZM24.9468 5.71824C26.4127 6.56486 28.2863 6.06339 29.132 4.59733C29.9786 3.13127 29.4772 1.25756 28.0112 0.410676C26.5453 -0.435132 24.6719 0.0674127 23.8249 1.53347C22.9794 2.99872 23.4818 4.87243 24.9468 5.71824Z" transform="translate(4.29004 6.37299)" fill="white"/>
</svg>
