<svg width="70" height="70" viewBox="0 0 70 70" fill="none" xmlns="http://www.w3.org/2000/svg">
<path fill-rule="evenodd" clip-rule="evenodd" d="M54.8284 37.879C44.6278 47.7015 40.3723 48.6431 36.1509 46.4915L40.7582 40.1176C41.4417 39.1777 41.9293 38.0855 42.1867 36.9175L44.0459 28.4169L36.282 30.4525C35.2172 30.7332 34.2213 31.2657 33.3643 32.0125L27.539 37.0604C25.572 32.4397 26.4326 27.7791 35.4038 16.6106C43.8795 6.05916 61.8156 3.63632 67.1315 3.14071C66.6788 8.95896 64.466 28.5977 54.8284 37.8784V37.879ZM48.0373 53.1029C47.951 53.5742 47.6999 53.9899 47.3375 54.2611C46.2619 55.0701 44.6064 56.1939 43.1387 57.1672L43.2106 56.8634C43.9249 53.7945 43.9167 51.4269 43.1917 49.8158C45.1246 49.1725 47.2139 47.9908 49.5806 46.2223C49.0056 48.5996 48.3449 51.4379 48.0373 53.1029V53.1029ZM31.9029 47.5932C31.6028 48.0082 31.2163 48.3386 30.7757 48.5567C30.3352 48.7749 29.8533 48.8746 29.3705 48.8474L29.3339 48.8446L27.0158 48.8501L35.0571 38.258L25.3829 47.0623L25.3879 44.565L25.3861 44.4849C25.3614 43.9561 25.4525 43.4285 25.6517 42.9461C25.851 42.4637 26.1526 42.0403 26.5316 41.7114L35.0482 34.3318C35.596 33.8548 36.2322 33.5144 36.9125 33.3343L40.3875 32.4232L39.5553 36.2279C39.3899 36.9751 39.0777 37.6737 38.6405 38.2753L31.9029 47.5939V47.5932ZM18.0641 29.3315C17.9717 29.3571 17.8794 29.3833 17.7873 29.4102C18.6763 27.8025 19.7014 25.9906 20.4415 24.813C20.6889 24.4158 21.0687 24.1406 21.4994 24.0468C23.0194 23.71 25.6111 22.9859 27.783 22.3577C26.1665 24.949 25.0885 27.2345 24.5015 29.3522C23.0301 28.5584 20.8689 28.5501 18.0641 29.3315V29.3315ZM68.5349 0.064195L70 0L69.9407 1.60487C69.901 2.69135 68.8204 28.3506 56.6151 40.1031C55.3731 41.2993 54.2024 42.381 53.0877 43.3577C52.6609 45.0626 51.1775 51.0438 50.6902 53.6882C50.466 54.9151 49.8125 55.9974 48.8694 56.704C46.4769 58.5035 41.5594 61.647 41.3514 61.7788L37.7749 64.0629L39.4298 59.9075C40.5079 57.1892 41.6174 52.6273 40.7046 50.9996C40.5552 50.7325 40.3074 50.4529 39.6076 50.4081L39.6089 50.3963C37.8487 50.3632 36.1635 49.8407 34.4329 48.8674L34.0263 49.4313C33.4624 50.212 32.7371 50.8345 31.9101 51.2477C31.0831 51.6608 30.1783 51.8526 29.2702 51.8072L22.6695 51.821L22.6821 44.594C22.6421 43.6001 22.818 42.61 23.1954 41.705C23.5727 40.8001 24.1407 40.006 24.8527 39.388L25.3671 38.9414C24.4782 37.0466 23.9972 35.2022 23.9682 33.2757H23.9606C23.919 32.5102 23.6643 32.2389 23.4203 32.0746C21.9337 31.0751 17.7665 32.29 15.2838 33.471L11.4936 35.274L13.5753 31.3671C13.697 31.1393 16.5674 25.7552 18.211 23.135C18.8561 22.1021 19.8447 21.3866 20.9654 21.1415C23.38 20.6079 28.8447 18.983 30.4006 18.5171C31.3639 17.2046 32.3548 15.9167 33.3725 14.6544C44.1071 1.2908 67.5425 0.107682 68.5355 0.064195H68.5349ZM33.0756 59.0309C33.6083 58.4897 34.1171 57.9168 34.5735 57.2845C33.9286 58.7423 32.9873 60.0359 31.966 61.2287C30.934 62.4187 29.7676 63.4734 28.525 64.408C27.2757 65.3412 25.9541 66.1526 24.5753 66.8329C23.8869 67.1802 23.1814 67.4777 22.4734 67.7738C21.7566 68.0361 21.0392 68.3094 20.3085 68.522C19.5841 68.7671 18.8414 68.9231 18.1051 69.1177C17.363 69.2627 16.6216 69.4477 15.8727 69.5402L14.7498 69.7079L13.6239 69.8246C12.8724 69.9136 12.1209 69.926 11.3682 69.9695C8.35716 70.0896 5.35372 69.8467 2.39568 69.3842L-2.54925e-07 69.0107L1.54459 67.0028C3.02235 65.0797 4.32295 63.0855 5.36949 60.896C6.43115 58.7147 7.28855 56.3588 8.11822 53.9691C8.94301 51.5115 9.9367 49.1258 11.0908 46.8325C11.6675 45.6905 12.2893 44.5766 12.9543 43.4937C13.6163 42.412 14.3155 41.3573 15.0941 40.3771C13.9832 42.6654 13.042 45.0199 12.1877 47.3964C11.3473 49.7723 10.6171 52.1931 10.0001 54.6498C9.35515 57.1533 8.60366 59.6597 7.56595 62.0977C7.03929 63.3164 6.44079 64.4962 5.77423 65.6298C5.54349 66.0164 5.30455 66.3939 5.06183 66.7688C7.14418 66.9903 9.23095 67.1042 11.312 67.0808C12.0226 67.0594 12.7362 67.0635 13.4429 67.0034L14.5084 66.9413L15.5682 66.8309L16.0984 66.7757L16.6248 66.6997L17.6801 66.5499C18.3755 66.4119 19.081 66.3014 19.7694 66.1282C21.1593 65.8198 22.5284 65.4084 23.8673 64.8968C25.2119 64.39 26.521 63.7769 27.7843 63.062C29.0451 62.3372 30.2714 61.5165 31.415 60.5564C31.9954 60.084 32.5499 59.5747 33.0756 59.0309V59.0309ZM52.7448 26.6988C54.5712 26.6988 56.3976 25.9368 57.7883 24.4147C60.5686 21.3706 60.5686 16.4166 57.7883 13.3718C55.0081 10.3278 50.4834 10.3264 47.7012 13.3718C47.0369 14.0953 46.5102 14.9559 46.1516 15.9038C45.7931 16.8517 45.6099 17.868 45.6126 18.894C45.6101 19.9197 45.7935 20.9357 46.152 21.8833C46.5105 22.831 47.0371 23.6913 47.7012 24.4147C48.3631 25.1403 49.1494 25.7157 50.0149 26.1076C50.8804 26.4996 51.8081 26.7005 52.7448 26.6988ZM49.6152 15.4661C50.0261 15.0161 50.514 14.6593 51.051 14.4163C51.5881 14.1732 52.1637 14.0486 52.7448 14.0497C53.8777 14.0497 55.0112 14.5218 55.8749 15.4661C57.5998 17.3561 57.5998 20.4305 55.8749 22.3198C55.0441 23.2273 53.9184 23.7369 52.7448 23.7369C51.5712 23.7369 50.4455 23.2273 49.6146 22.3198C49.2024 21.8708 48.8755 21.3368 48.653 20.7487C48.4306 20.1605 48.3168 19.5299 48.3184 18.8933C48.3184 17.599 48.7787 16.3821 49.6152 15.4661Z" fill="white"/>
</svg>
