<svg width="50" height="50" viewBox="0 0 50 50" fill="none" xmlns="http://www.w3.org/2000/svg">
<path d="M49.8598 24.9308C49.8598 11.1621 38.6981 0 24.9295 0C11.1671 0 0.00976404 11.1527 0 24.9132V44.2055C0.00740637 47.3299 2.54142 49.8592 5.66779 49.8592H24.9396C38.7036 49.8538 49.8598 38.6958 49.8598 24.9308Z" fill="#233366"/>
<g opacity="0.4">
<path opacity="0.4" fill-rule="evenodd" clip-rule="evenodd" d="M23.3894 0H11.6947C5.2384 0 0 5.23846 0 11.6947C0 18.151 5.2384 23.3894 11.6947 23.3894C18.151 23.3894 23.3894 18.151 23.3894 11.6947V0ZM5.47009 11.6947C5.47009 8.25946 8.25952 5.47003 11.6948 5.47003H17.9194V11.6947C17.9194 15.1299 15.13 17.9194 11.6948 17.9194C8.25952 17.9194 5.47009 15.1299 5.47009 11.6947Z" transform="translate(2.67993 23.805)" fill="white"/>
</g>
<g opacity="0.4">
<path opacity="0.4" fill-rule="evenodd" clip-rule="evenodd" d="M23.3894 0H11.6947C5.2384 0 0 5.23846 0 11.6947C0 18.151 5.2384 23.3894 11.6947 23.3894C18.151 23.3894 23.3894 18.151 23.3894 11.6947V0ZM11.6948 5.47003H17.9194V11.6947C17.9194 15.1299 15.13 17.9194 11.6948 17.9194C8.25952 17.9194 5.47009 15.1299 5.47009 11.6947C5.47009 8.25946 8.25952 5.47003 11.6948 5.47003Z" transform="translate(43.9397 29.292) rotate(-180)" fill="white"/>
</g>
<path d="M16.6902 0V11.6753C16.6902 18.1367 11.4514 23.3757 4.98974 23.3757C4.00941 23.3757 3.31249 23.265 2.40503 23.0278C1.08182 22.6815 0.000449438 21.5966 0 20.3347C0 18.8094 1.10718 17.6999 2.76223 17.6999C3.54994 17.6999 3.83576 17.8511 4.98974 17.8511C8.39641 17.8511 11.1597 15.0917 11.1657 11.6851V6.31868C11.1657 5.83783 10.7749 5.44822 10.2933 5.44822L6.23612 5.44742C4.72449 5.44742 3.50316 4.24172 3.50316 2.72595C3.50235 1.20075 4.73702 0 6.26497 0" transform="translate(9.37988 23.812)" fill="white"/>
<path d="M16.6902 0V11.6753C16.6902 18.1367 11.4514 23.3757 4.98974 23.3757C4.00941 23.3757 3.31249 23.265 2.40503 23.0278C1.08182 22.6815 0.000449438 21.5966 0 20.3347C0 18.8094 1.10718 17.6999 2.76223 17.6999C3.54994 17.6999 3.83576 17.8511 4.98974 17.8511C8.39641 17.8511 11.1597 15.0917 11.1657 11.6851V6.31868C11.1657 5.83783 10.7749 5.44822 10.2933 5.44822L6.23612 5.44742C4.72449 5.44742 3.50316 4.24172 3.50316 2.72595C3.50235 1.20075 4.73702 0 6.26497 0" transform="translate(37.24 29.286) rotate(-180)" fill="white"/>
</svg>
