<svg width="112" height="115" viewBox="0 0 112 115" fill="none" xmlns="http://www.w3.org/2000/svg">
<g filter="url(#filter0_d)">
<path fill-rule="evenodd" clip-rule="evenodd" d="M24 96.8862L42.9912 44.4341C45.4011 38.3101 49.8938 34.8435 55.8665 34.7434V34.7412C55.9111 34.7412 55.9555 34.7414 56 34.7418C56.0445 34.7414 56.0889 34.7412 56.1335 34.7412V34.7434C62.1062 34.8435 66.599 38.3101 69.0088 44.4341L88 96.8862L76.2401 92.7631L60.017 47.9566C59.0294 45.4781 57.8897 44.5861 56 44.5466C54.1104 44.5861 52.9706 45.4781 51.9832 47.9566L35.7601 92.7631L24 96.8862ZM64.2636 76.9136C64.2636 81.4953 60.6139 85.2094 56.1117 85.2094C51.6095 85.2094 47.9598 81.4953 47.9598 76.9136C47.9598 72.332 51.6095 68.6179 56.1117 68.6179C60.6139 68.6179 64.2636 72.332 64.2636 76.9136Z" fill="url(#paint0_linear)"/>
</g>
<path fill-rule="evenodd" clip-rule="evenodd" d="M35.3778 111.88H30.9799L30.2119 114.329H26.7832L31.6656 101.217H34.6828L39.6019 114.329H36.1549L35.3778 111.88ZM31.7479 109.439H34.6096L33.1741 104.892L31.7479 109.439ZM44.0179 102.163V104.585H45.6454V106.693H44.0179V111.15C44.0179 111.516 44.085 111.771 44.219 111.916C44.3532 112.06 44.6184 112.132 45.0146 112.132C45.3192 112.132 45.5754 112.114 45.7826 112.078V114.248C45.2279 114.422 44.6488 114.509 44.0454 114.509C42.9848 114.509 42.2016 114.263 41.6957 113.771C41.1896 113.278 40.9367 112.531 40.9367 111.528V106.693H39.675V104.585H40.9367V102.163H44.0179ZM46.4684 109.367C46.4684 108.395 46.6604 107.529 47.0445 106.769C47.4285 106.01 47.9802 105.426 48.6994 105.018C49.4187 104.609 50.2628 104.405 51.232 104.405C52.7133 104.405 53.8804 104.857 54.7338 105.761C55.5872 106.664 56.014 107.893 56.014 109.448V109.556C56.014 111.075 55.5857 112.28 54.7293 113.172C53.8729 114.063 52.7133 114.509 51.2503 114.509C49.8423 114.509 48.7116 114.093 47.8582 113.262C47.0048 112.43 46.5447 111.303 46.4776 109.88L46.4684 109.367ZM49.5495 109.556C49.5495 110.457 49.6929 111.117 49.9792 111.538C50.2657 111.958 50.6894 112.168 51.2502 112.168C52.3473 112.168 52.9081 111.336 52.9325 109.673V109.367C52.9325 107.62 52.3656 106.747 51.2319 106.747C50.2018 106.747 49.6441 107.5 49.5587 109.007L49.5495 109.556ZM60.2839 104.585L60.3843 105.729C61.0854 104.847 62.0271 104.405 63.2096 104.405C64.4593 104.405 65.3033 104.895 65.7423 105.873C66.4127 104.895 67.3819 104.405 68.6497 104.405C70.6552 104.405 71.6852 105.6 71.7401 107.989V114.329H68.6497V108.178C68.6497 107.68 68.5645 107.317 68.3937 107.089C68.2231 106.861 67.9122 106.747 67.4612 106.747C66.8517 106.747 66.3976 107.014 66.0989 107.548L66.1081 107.674V114.329H63.0177V108.196C63.0177 107.686 62.9353 107.317 62.7708 107.089C62.6061 106.861 62.2922 106.747 61.829 106.747C61.2377 106.747 60.7867 107.014 60.4758 107.548V114.329H57.3946V104.585H60.2839ZM76.7504 114.329H73.66V104.586H76.7504V114.329ZM73.4771 102.073C73.4771 101.641 73.6355 101.286 73.9525 101.01C74.2694 100.734 74.681 100.596 75.1869 100.596C75.6928 100.596 76.1043 100.734 76.4211 101.01C76.7381 101.286 76.8967 101.641 76.8967 102.073C76.8967 102.505 76.7381 102.859 76.4211 103.136C76.1043 103.412 75.6928 103.55 75.1869 103.55C74.681 103.55 74.2694 103.412 73.9525 103.136C73.6355 102.859 73.4771 102.505 73.4771 102.073ZM82.8308 112.168C83.2635 112.168 83.5988 112.052 83.8365 111.821C84.0742 111.59 84.1901 111.267 84.184 110.853H87.0731C87.0731 111.922 86.6845 112.798 85.9074 113.483C85.1303 114.167 84.1291 114.509 82.9038 114.509C81.4654 114.509 80.3317 114.065 79.5027 113.176C78.6737 112.288 78.2591 111.057 78.2591 109.484V109.358C78.2591 108.373 78.4435 107.505 78.8124 106.751C79.181 105.998 79.7129 105.418 80.4079 105.013C81.1027 104.608 81.9256 104.405 82.8765 104.405C84.1626 104.405 85.1835 104.756 85.9395 105.459C86.6953 106.161 87.0731 107.113 87.0731 108.313H84.184C84.184 107.809 84.0589 107.422 83.809 107.152C83.5591 106.882 83.2239 106.747 82.8033 106.747C82.0049 106.747 81.5385 107.248 81.4044 108.251C81.3617 108.569 81.3404 109.007 81.3404 109.565C81.3404 110.544 81.4593 111.222 81.697 111.6C81.9347 111.979 82.3127 112.168 82.8308 112.168Z" fill="white"/>
<path d="M54.5482 29.2536C63.2954 25.9633 76.7774 29.4944 80.2281 35.8341C73.1661 35.8341 69.7154 40.8096 72.3636 46.1863L42.0293 42.3343C42.0293 42.3343 45.801 32.5438 54.5482 29.2536Z" fill="#FF4747"/>
<path d="M74.6032 45.6117L41.54 41.616C39.3071 41.3462 37.2783 42.9375 37.0085 45.1703C36.7387 47.4032 38.33 49.432 40.5628 49.7018L73.6261 53.6974C75.8589 53.9673 77.8877 52.376 78.1575 50.1431C78.4274 47.9103 76.836 45.8815 74.6032 45.6117Z" fill="white"/>
<path d="M81.5117 40.0873C83.772 40.0873 85.6044 38.2549 85.6044 35.9946C85.6044 33.7342 83.772 31.9019 81.5117 31.9019C79.2513 31.9019 77.4189 33.7342 77.4189 35.9946C77.4189 38.2549 79.2513 40.0873 81.5117 40.0873Z" fill="white"/>
<defs>
<filter id="filter0_d" x="0" y="0.741211" width="112" height="110.145" filterUnits="userSpaceOnUse" color-interpolation-filters="sRGB">
<feFlood flood-opacity="0" result="BackgroundImageFix"/>
<feColorMatrix in="SourceAlpha" type="matrix" values="0 0 0 0 0 0 0 0 0 0 0 0 0 0 0 0 0 0 127 0"/>
<feOffset dy="-10"/>
<feGaussianBlur stdDeviation="12"/>
<feColorMatrix type="matrix" values="0 0 0 0 0.192157 0 0 0 0 0.498039 0 0 0 0 0.796078 0 0 0 0.32 0"/>
<feBlend mode="normal" in2="BackgroundImageFix" result="effect1_dropShadow"/>
<feBlend mode="normal" in="SourceGraphic" in2="effect1_dropShadow" result="shape"/>
</filter>
<linearGradient id="paint0_linear" x1="24" y1="34.7412" x2="24" y2="96.8862" gradientUnits="userSpaceOnUse">
<stop stop-color="#42C1FD"/>
<stop offset="1" stop-color="#1F8EFA"/>
</linearGradient>
</defs>
</svg>
