<svg width="48" height="70" viewBox="0 0 48 70" fill="none" xmlns="http://www.w3.org/2000/svg">
<g filter="url(#filter0_d)">
<path d="M44.1416 16.9233L47.1049 0.0204141L34.7207 5.18517H21.1103L8.72613 0L11.7098 16.9233L8.91006 26.3546L11.5463 28.0081L0 38.1335V47.6465L13.2016 65.815L25.6471 69.9794L25.6675 69.9999L35.3951 65.0188L35.4155 64.9985V57.6289L29.8978 54.6076L38.5627 31.5601H38.5013L46.9209 26.3546L44.1416 16.9233Z" fill="white"/>
<path d="M19.9659 0L0 17.4949L27.8133 33.4791L27.9155 0.530766L19.9659 0Z" transform="translate(0 20.6385)" fill="url(#paint0_linear)"/>
<path d="M0 0L10.7084 28.6001L10.7902 1.5923L0 0Z" transform="translate(17.1252 31.4579)" fill="white"/>
<path d="M10.7289 0L0 28.498L0.081744 1.49023L10.7289 0Z" transform="translate(27.8339 31.5601)" fill="white"/>
<path d="M3.65803 0L0.694823 16.9029L3.47411 26.3342L0 16.8824L3.65803 0Z" transform="translate(43.4467 0.0205994)" fill="url(#paint1_linear)"/>
<path d="M0 0L2.98365 16.9233L0.183924 26.3546L3.65803 16.8824L0 0Z" transform="translate(8.7262)" fill="url(#paint2_linear)"/>
<path d="M0 0L12.3842 5.18518H25.9945L38.3787 0.0204141L27.7316 5.61387L19.2098 7.47154L10.6063 5.61387L0 0Z" transform="translate(8.7262)" fill="url(#paint3_linear)"/>
<path d="M0.613079 10.1458L0 11.8401L12.8542 0L0.613079 10.1458Z" transform="translate(11.7712 6.7366)" fill="url(#paint4_linear)"/>
<path d="M12.1798 10.1662L0 0L12.7725 11.7585L12.1798 10.1662Z" transform="translate(31.2671 6.7366)" fill="url(#paint5_linear)"/>
<path d="M0 0L29.8978 16.4741L33.6784 25.9259L25.6675 28.9676L13.2016 27.6815L0 9.51298V0Z" transform="translate(0 38.1335)" fill="url(#paint6_linear)"/>
<path d="M11.5463 0L0.0408719 14.0041L0 14.0449L12.4455 18.2094L12.4659 18.2298L22.1935 13.2487L22.2139 13.2283V5.85884L11.5463 0Z" transform="translate(13.2019 51.7702)" fill="white"/>
<path d="M12.1798 16.8824L15.8379 0L5.19073 5.59345L0 6.71623L12.1798 16.8824Z" transform="translate(31.2671 0.0205994)" fill="url(#paint7_linear)"/>
<path d="M3.37193 7.4103L0 3.71536L3.37193 0L6.7643 3.71536L3.37193 7.4103Z" transform="translate(24.5435 33.9078)" fill="white"/>
<path d="M0 0L0.347411 0.0816566L0.65395 0.0204141L0.326975 21.5573L0 0Z" transform="translate(27.5885 7.38976)" fill="url(#paint8_linear)"/>
</g>
<defs>
<filter id="filter0_d" x="0" y="0" width="47.105" height="70" filterUnits="userSpaceOnUse" color-interpolation-filters="sRGB">
<feFlood flood-opacity="0" result="BackgroundImageFix"/>
<feColorMatrix in="SourceAlpha" type="matrix" values="0 0 0 0 0 0 0 0 0 0 0 0 0 0 0 0 0 0 255 0"/>
<feOffset/>
<feColorMatrix type="matrix" values="0 0 0 0 0 0 0 0 0 0 0 0 0 0 0 0 0 0 0.25 0"/>
<feBlend mode="normal" in2="BackgroundImageFix" result="effect1_dropShadow"/>
<feBlend mode="normal" in="SourceGraphic" in2="effect1_dropShadow" result="shape"/>
</filter>
<linearGradient id="paint0_linear" x2="1" gradientUnits="userSpaceOnUse" gradientTransform="translate(46.8096 -5.80505) scale(40.8363 48.975) rotate(112.483)">
<stop offset="0.1345" stop-color="white"/>
<stop offset="0.3762" stop-color="white"/>
<stop offset="0.6923" stop-color="white"/>
<stop offset="0.7901" stop-color="white"/>
<stop offset="0.8614" stop-color="white"/>
<stop offset="0.9244" stop-color="white"/>
<stop offset="0.9822" stop-color="#364F6C"/>
<stop offset="1" stop-color="white"/>
</linearGradient>
<linearGradient id="paint1_linear" x2="1" gradientUnits="userSpaceOnUse" gradientTransform="translate(26.5521 154.453) scale(39.25 282.56) rotate(180)">
<stop offset="0.121547" stop-color="white"/>
<stop offset="0.60221" stop-color="white"/>
<stop offset="0.6733" stop-color="white"/>
<stop offset="0.9999" stop-color="white"/>
<stop offset="1" stop-color="white"/>
</linearGradient>
<linearGradient id="paint2_linear" x2="1" gradientUnits="userSpaceOnUse" gradientTransform="translate(-23.9158 -132.99) scale(40.578 292.347)">
<stop offset="0.2539" stop-color="white"/>
<stop offset="0.4133" stop-color="white"/>
<stop offset="0.6897" stop-color="white"/>
<stop offset="1" stop-color="white"/>
</linearGradient>
<linearGradient id="paint3_linear" x2="1" gradientUnits="userSpaceOnUse" gradientTransform="translate(105.014 -15.5625) scale(170.903 33.2712) rotate(90.2691)">
<stop offset="0.00654525" stop-color="white"/>
<stop offset="0.1993" stop-color="white"/>
<stop offset="0.4502" stop-color="white"/>
<stop offset="0.7318" stop-color="white"/>
<stop offset="1" stop-color="white"/>
</linearGradient>
<linearGradient id="paint4_linear" x2="1" gradientUnits="userSpaceOnUse" gradientTransform="translate(40.9053 3.79235) scale(47.629 43.8716) rotate(133.533)">
<stop offset="0.2539" stop-color="white"/>
<stop offset="0.4102" stop-color="white"/>
<stop offset="0.6813" stop-color="white"/>
<stop offset="1" stop-color="white"/>
</linearGradient>
<linearGradient id="paint5_linear" x2="1" gradientUnits="userSpaceOnUse" gradientTransform="translate(5.45981 -19.6566) scale(38.0413 35.0213) rotate(44.0556)">
<stop offset="0.2539" stop-color="white"/>
<stop offset="0.4102" stop-color="white"/>
<stop offset="0.6813" stop-color="white"/>
<stop offset="1" stop-color="white"/>
</linearGradient>
<linearGradient id="paint6_linear" x2="1" gradientUnits="userSpaceOnUse" gradientTransform="translate(5.63163 -16.0742) scale(63.5012 54.6188) rotate(22.5138)">
<stop offset="0.2664" stop-color="white"/>
<stop offset="1" stop-color="white"/>
</linearGradient>
<linearGradient id="paint7_linear" x2="1" gradientUnits="userSpaceOnUse" gradientTransform="translate(3.28731 -32.3354) scale(45.4848 48.4847) rotate(39.86)">
<stop offset="0.4609" stop-color="white" stop-opacity="0.01"/>
<stop offset="0.5699" stop-color="white" stop-opacity="0.2156"/>
<stop offset="0.6764" stop-color="white" stop-opacity="0.4266"/>
<stop offset="0.782" stop-color="white" stop-opacity="0.6356"/>
<stop offset="0.8863" stop-color="white" stop-opacity="0.8422"/>
<stop offset="0.9661" stop-color="white"/>
</linearGradient>
<linearGradient id="paint8_linear" x2="1" gradientUnits="userSpaceOnUse" gradientTransform="translate(-1.04641 63.809) scale(2.75082 90.6799) rotate(-90)">
<stop offset="0.4102" stop-color="white"/>
<stop offset="0.618785" stop-color="white"/>
<stop offset="0.9999" stop-color="white"/>
<stop offset="1" stop-color="white"/>
</linearGradient>
</defs>
</svg>
