<svg width="50" height="50" viewBox="0 0 50 50" version="1.1" xmlns="http://www.w3.org/2000/svg" xmlns:xlink="http://www.w3.org/1999/xlink">
<title>Fedora_logo</title>
<desc>Created using Figma</desc>
<g id="Canvas" transform="translate(-1385 -551)">
<g id="Fedora_logo">
<g id="voice">
<use xlink:href="#path0_fill" transform="translate(1385.07 551.07)" fill="#CCCCCC"/>
</g>
<g id="in" opacity="0.4">
<use xlink:href="#path1_fill" transform="translate(1387.75 574.875)" fill="#FFFFFF"/>
</g>
<g id="finity">
<g id="in" opacity="0.4">
<use xlink:href="#path2_fill" transform="matrix(-1 -1.22465e-16 1.22465e-16 -1 1429.01 580.362)" fill="#FFFFFF"/>
</g>
</g>
<g id="free">
<use xlink:href="#path3_fill" transform="translate(1394.45 574.882)" fill="#FFFFFF"/>
</g>
<g id="dom">
<g id="free">
<use xlink:href="#path3_fill" transform="matrix(-1 -1.22465e-16 1.22465e-16 -1 1422.31 580.356)" fill="#FFFFFF"/>
</g>
</g>
</g>
</g>
<defs>
<path id="path0_fill" d="M 49.8598 24.9308C 49.8598 11.1621 38.6981 0 24.9295 0C 11.1671 0 0.00976404 11.1527 0 24.9132L 0 44.2055C 0.00740637 47.3299 2.54142 49.8592 5.66779 49.8592L 24.9396 49.8592C 38.7036 49.8538 49.8598 38.6958 49.8598 24.9308Z"/>
<path id="path1_fill" fill-rule="evenodd" d="M 23.3894 0L 11.6947 0C 5.2384 0 0 5.23846 0 11.6947C 0 18.151 5.2384 23.3894 11.6947 23.3894C 18.151 23.3894 23.3894 18.151 23.3894 11.6947L 23.3894 0ZM 5.47009 11.6947C 5.47009 8.25946 8.25952 5.47003 11.6948 5.47003L 17.9194 5.47003L 17.9194 11.6947C 17.9194 15.1299 15.13 17.9194 11.6948 17.9194C 8.25952 17.9194 5.47009 15.1299 5.47009 11.6947Z"/>
<path id="path2_fill" fill-rule="evenodd" d="M 23.3894 0L 11.6947 0C 5.2384 7.90669e-16 -7.90661e-16 5.23846 0 11.6947C 7.90669e-16 18.151 5.2384 23.3894 11.6947 23.3894C 18.151 23.3894 23.3894 18.151 23.3894 11.6947L 23.3894 0ZM 11.6948 5.47003L 17.9194 5.47003L 17.9194 11.6947C 17.9194 15.1299 15.13 17.9194 11.6948 17.9194C 8.25952 17.9194 5.47009 15.1299 5.47009 11.6947C 5.47009 8.25946 8.25952 5.47003 11.6948 5.47003Z"/>
<path id="path3_fill" d="M 16.6902 0L 16.6902 11.6753C 16.6902 18.1367 11.4514 23.3757 4.98974 23.3757C 4.00941 23.3757 3.31249 23.265 2.40503 23.0278C 1.08182 22.6815 0.000449438 21.5966 0 20.3347C 0 18.8094 1.10718 17.6999 2.76223 17.6999C 3.54994 17.6999 3.83576 17.8511 4.98974 17.8511C 8.39641 17.8511 11.1597 15.0917 11.1657 11.6851L 11.1657 6.31868C 11.1657 5.83783 10.7749 5.44822 10.2933 5.44822L 6.23612 5.44742C 4.72449 5.44742 3.50316 4.24172 3.50316 2.72595C 3.50235 1.20075 4.73702 0 6.26497 0"/>
</defs>
</svg>
