<svg width="43" height="52" viewBox="0 0 43 52" version="1.1" xmlns="http://www.w3.org/2000/svg" xmlns:xlink="http://www.w3.org/1999/xlink">
<title>apple_logo</title>
<desc>Created using Figma</desc>
<g id="Canvas" transform="translate(-710 -551)">
<g id="apple_logo">
<use xlink:href="#path0_fill" transform="translate(710 551)" fill="#CCCCCC"/>
</g>
</g>
<defs>
<path id="path0_fill" fill-rule="evenodd" d="M 28.8115 8.30848C 30.633 6.10902 31.8555 3.05277 31.5212 0C 28.9072 0.102746 25.7291 1.74842 23.8588 3.93917C 22.18 5.89134 20.7085 8.99983 21.0986 11.9847C 24.0172 12.2111 26.9986 10.5044 28.8115 8.30848ZM 42.3408 38.1431C 42.2764 38.3207 41.2454 41.875 38.736 45.5338C 36.5749 48.705 34.3214 51.8657 30.7758 51.9284C 27.2999 51.9963 26.1801 49.8665 22.1992 49.8665C 18.2199 49.8665 16.9765 51.8657 13.6817 51.9963C 10.258 52.1304 7.6615 48.5709 5.47249 45.4154C 1.00218 38.9598 -2.40411 27.1684 2.17069 19.217C 4.452 15.2639 8.51481 12.7666 12.9311 12.6987C 16.2956 12.643 19.4616 14.9574 21.5148 14.9574C 23.5697 14.9574 27.4165 12.1589 31.4689 12.5698C 33.1581 12.6465 37.9193 13.2542 40.9807 17.728C 40.7282 17.8882 35.2984 21.0437 35.3576 27.6247C 35.4255 35.4926 42.2607 38.1117 42.3408 38.1431Z"/>
</defs>
</svg>
