<svg width="428" height="40" viewBox="0 0 428 40" fill="none" xmlns="http://www.w3.org/2000/svg">
<path fill-rule="evenodd" clip-rule="evenodd" d="M7.10874 10.228C7.10874 9.70717 6.78414 9.51211 6.39249 9.70717L0.717781 12.507C0.32613 12.7024 -7.48476e-06 13.2884 -7.48476e-06 13.744V39.3891C-7.48476e-06 39.9099 0.32613 40.1049 0.717781 39.9099L6.39249 37.1116C6.78414 36.9161 7.10874 36.3302 7.10874 35.8746V10.2284V10.228ZM16.9594 5.28175C16.9594 4.76057 16.6329 4.56513 16.2416 4.76057L10.5665 7.56037C10.1752 7.75582 9.84914 8.34176 9.84914 8.79587V34.5072C9.84914 35.0284 10.1749 35.2239 10.5665 35.0284L16.2416 32.2301C16.6329 32.0347 16.9594 31.4488 16.9594 30.9931V5.28175ZM26.3517 0.595358C26.3517 0.0741794 26.0252 -0.12088 25.6339 0.0741791L19.9588 2.87245C19.5676 3.06789 19.2411 3.65383 19.2411 4.10948V29.7561C19.2411 30.2769 19.5676 30.4723 19.9588 30.2769L25.6339 27.4771C26.0252 27.2816 26.3517 26.6976 26.3517 26.2416V0.595358Z" transform="translate(205.123)" fill="#FFA208"/>
<path fill-rule="evenodd" clip-rule="evenodd" d="M202.643 33.677C202.643 33.0259 202.252 32.3115 201.73 32.051L177.269 19.9439C176.747 19.6833 176.355 19.9439 176.355 20.5954V25.9325C176.355 26.5836 176.747 27.2979 177.269 27.5585L201.73 39.7307C202.251 39.9913 202.643 39.6655 202.643 39.0141V33.677H202.643ZM202.643 23.7838C202.643 23.1323 202.252 22.4164 201.73 22.1558L177.269 10.0492C176.747 9.78858 176.355 10.0492 176.355 10.7003V16.0374C176.355 16.6888 176.747 17.4047 177.269 17.6653L201.73 29.772C202.251 30.0325 202.643 29.7068 202.643 29.0561V23.7834L202.643 23.7838ZM202.643 13.8254C202.643 13.1739 202.252 12.4581 201.73 12.1975L177.269 0.0908224C176.747 -0.169767 176.355 0.155969 176.355 0.741912V6.07863C176.355 6.7301 176.747 7.44596 177.269 7.70655L201.73 19.8784C202.251 20.139 202.643 19.8132 202.643 19.1621V13.8254H202.643ZM8.88815e-07 8.01044H10.0798C10.9766 8.01044 11.8618 8.11582 12.7367 8.32775C13.61 8.53852 14.3895 8.88188 15.072 9.35937C15.7565 9.83686 16.3098 10.4546 16.7367 11.2092C17.1617 11.9641 17.3759 12.8754 17.3759 13.9423C17.3759 15.2744 16.9943 16.3731 16.2317 17.2395C15.4702 18.1056 14.4731 18.7287 13.2402 19.1058L12.437 19.1729C13.9392 19.3729 15.9741 19.9508 16.9375 20.9054C17.9013 21.8604 18.383 23.1377 18.383 24.7368C18.383 26.026 18.1255 27.1078 17.6101 27.9858C17.0947 28.8622 16.4171 29.5685 15.5775 30.1011C14.7359 30.6338 13.7725 31.0174 12.6865 31.2512C11.5989 31.4834 10.4945 31.5999 9.37547 31.5999H8.88815e-07V8.01082V8.01044ZM4.23458 17.6066H8.80332C10.2155 17.6066 11.2912 17.3296 12.0308 16.7735C12.7704 16.2179 13.1398 15.4296 13.1398 14.4079C13.1398 13.3414 12.7585 12.5865 11.9971 12.1427C11.2345 11.6982 10.0465 11.4763 8.43352 11.4763H4.23458V17.6066ZM4.23458 28.0693H8.83705C9.37547 28.0693 9.95758 28.0291 10.5853 27.9524C11.2126 27.8739 11.7898 27.7137 12.3167 27.4684C12.8363 27.2296 13.2869 26.8631 13.6265 26.4031C13.9745 25.9355 14.1485 25.3147 14.1485 24.5368C14.1485 23.2929 13.7219 22.4264 12.8704 21.9374C12.0189 21.45 10.7305 21.2043 9.00413 21.2043H4.23458V28.0693ZM25.9133 8.01082H30.1494V31.6003H25.9133V8.01082ZM43.5617 11.6752H36.2675V8.01006H55.0924V11.6748H47.7978V31.5999H43.5617V11.6752ZM77.3801 13.5414C76.7528 12.6984 75.9346 12.0806 74.926 11.6916C73.9169 11.3046 72.9317 11.1092 71.9679 11.1092C70.7351 11.1092 69.6142 11.3314 68.607 11.7752C67.598 12.2193 66.7297 12.8302 66.0004 13.6085C65.2723 14.3864 64.712 15.2962 64.3207 16.3413C63.9276 17.3848 63.7317 18.5164 63.7317 19.7385C63.7317 21.0273 63.9226 22.2045 64.3039 23.2714C64.6833 24.3364 65.2274 25.2526 65.9333 26.0191C66.6392 26.7855 67.4857 27.3795 68.4714 27.8022C69.4586 28.2245 70.5676 28.4349 71.7989 28.4349C73.0773 28.4349 74.2082 28.1843 75.195 27.6853C76.1806 27.186 76.977 26.5249 77.5809 25.7037L80.977 28.0693C79.9381 29.3676 78.6155 30.4105 77.1107 31.1178C75.5866 31.839 73.805 32.1996 71.7655 32.1996C69.905 32.1996 68.197 31.8938 66.6392 31.283C65.0818 30.6737 63.7432 29.8172 62.6223 28.7189C61.5014 27.6186 60.6284 26.308 60.0011 24.787C59.3734 23.2645 59.0591 21.5833 59.0591 19.7385C59.0591 17.8504 59.3902 16.1458 60.0509 14.6252C60.712 13.1027 61.6202 11.8085 62.7729 10.7432C63.9276 9.67668 65.2891 8.85544 66.8584 8.27754C68.4262 7.70003 70.1292 7.41147 71.9679 7.41147C72.729 7.41147 73.5257 7.48313 74.3538 7.62837C75.1703 7.76811 75.9703 7.99129 76.7413 8.2944C77.4956 8.58946 78.2167 8.96325 78.8927 9.40957C79.5509 9.84151 80.1307 10.3824 80.6072 11.0091L77.3801 13.5414ZM85.4139 19.7385C85.4139 17.8504 85.7335 16.1458 86.3727 14.6252C87.01 13.1027 87.8968 11.8085 89.0277 10.7432C90.1601 9.67668 91.5037 8.85544 93.0611 8.27754C94.6189 7.70003 96.3169 7.41147 98.1541 7.41147C100.014 7.41147 101.729 7.70003 103.298 8.27754C104.866 8.85544 106.223 9.67668 107.366 10.7436C108.508 11.8089 109.398 13.1027 110.037 14.6252C110.677 16.1458 110.996 17.8504 110.996 19.7385C110.996 21.5833 110.677 23.2645 110.037 24.787C109.398 26.308 108.508 27.6186 107.366 28.7189C106.223 29.8172 104.866 30.6733 103.298 31.283C101.729 31.8938 100.014 32.1996 98.1541 32.1996C96.3169 32.1996 94.6189 31.8938 93.0611 31.283C91.5037 30.6737 90.1601 29.8172 89.0277 28.7189C87.8968 27.6186 87.01 26.308 86.3727 24.787C85.7335 23.2645 85.4139 21.5833 85.4139 19.7385ZM90.0198 19.7385C90.0198 21.0058 90.2153 22.1662 90.6069 23.2212C91.0001 24.2762 91.5604 25.1929 92.2885 25.9689C93.0162 26.7468 93.8792 27.3515 94.8764 27.7853C95.8735 28.218 96.978 28.4349 98.1874 28.4349C99.3984 28.4349 100.508 28.218 101.517 27.7853C102.524 27.3515 103.394 26.7468 104.122 25.9689C104.849 25.1929 105.41 24.2762 105.803 23.2212C106.194 22.1662 106.39 21.0058 106.39 19.7385C106.39 18.5164 106.194 17.3848 105.803 16.3413C105.41 15.2962 104.856 14.3864 104.138 13.6085C103.421 12.8306 102.559 12.2193 101.55 11.7752C100.541 11.331 99.4202 11.1092 98.1874 11.1092C96.9561 11.1092 95.8402 11.3314 94.843 11.7752C93.8459 12.2193 92.9894 12.8302 92.2716 13.6085C91.5539 14.3864 91.0001 15.2962 90.6069 16.3413C90.2153 17.3848 90.0198 18.5164 90.0198 19.7385ZM118.459 8.01082H122.695V31.6003H118.459V8.01082ZM131.299 8.01044H136.914L147.973 25.6703H148.042V8.01006H152.276V31.5999H146.897L135.603 13.374H135.536V31.5999H131.299V8.01006V8.01044Z" transform="translate(0 0.179199)" fill="#DADADA"/>
<path fill-rule="evenodd" clip-rule="evenodd" d="M12.2998 18.7348H12.3684L19.3917 0.600888H24.5682V24.2007H21.2403V4.46757H21.1737L13.2755 24.2007H11.1571L3.29415 4.46757H3.22517V24.2007H-8.79459e-06V0.600888H5.17615L12.2998 18.7348ZM32.1636 24.2007H28.4663L38.7837 0.600888H41.8085L52.0251 24.2007H48.2612L45.8419 18.4011H34.5495L32.164 24.2007H32.1636ZM35.7253 15.5012H44.6309L40.1955 4.43385L35.7253 15.5012ZM73.2662 5.46739C72.5485 4.68946 71.6349 4.06673 70.5258 3.60112C69.4183 3.13359 68.1802 2.90174 66.8132 2.90174C65.4229 2.90174 64.1682 3.15045 63.0488 3.65132C61.9279 4.15027 60.976 4.8347 60.1915 5.70154C59.4086 6.56762 58.8028 7.5728 58.3778 8.71786C57.9512 9.86178 57.7389 11.0785 57.7389 12.3676C57.7389 13.6783 57.9512 14.9118 58.3778 16.0669C58.8031 17.2223 59.4086 18.229 60.1915 19.0836C60.976 19.9401 61.9398 20.6115 63.0825 21.1005C64.2249 21.5894 65.5014 21.8351 66.9136 21.8351C68.0345 21.8351 69.065 21.7347 70.0054 21.5346C70.9474 21.3342 71.7636 21.0453 72.4595 20.6682V14.1002H67.1826V11.3008H75.7522V22.7349C74.4975 23.4009 73.1306 23.9118 71.6517 24.2678C70.1744 24.623 68.5599 24.8016 66.8132 24.8016C64.9527 24.8016 63.2447 24.4962 61.6872 23.8834C60.1295 23.2725 58.7913 22.4176 57.6719 21.3174C56.551 20.2175 55.6776 18.9069 55.0503 17.3844C54.4229 15.8618 54.1083 14.1906 54.1083 12.3676C54.1083 10.5228 54.4279 8.83973 55.0671 7.31719C55.706 5.79466 56.5893 4.49593 57.7221 3.41755C58.853 2.33879 60.1916 1.50107 61.7375 0.901715C63.2834 0.300444 64.9645 -6.66611e-07 66.7799 -6.66611e-07C68.6837 -6.66611e-07 70.3802 0.278984 71.8709 0.834652C73.3617 1.38917 74.5995 2.13377 75.5847 3.06691L73.2662 5.46739ZM83.2805 24.2007H79.5832L89.9007 0.600888H92.9254L103.143 24.2007H99.3784L96.9592 18.4011H85.6665L83.2805 24.2007ZM86.8426 15.5012H95.7497L91.3128 4.43385L86.8426 15.5012ZM122.737 3.50109L109.293 21.2672H122.938V24.2007H105.261V21.3009L118.67 3.50109H105.53V0.600888H122.737V3.50109ZM127.778 0.601271H131.105V24.2007H127.778V0.601271ZM154.496 19.4676H154.564V0.600888H157.89V24.2007H153.689L141.12 4.93319H141.053V24.2007H137.725V0.600888H142.062L154.496 19.4676ZM167.838 21.2672H180.273V24.2007H164.512V0.600888H179.77V3.50109H167.838V10.5677H179.064V13.4008H167.838V21.2675V21.2672Z" transform="translate(247.721 7.6123)" fill="#FFA208"/>
</svg>
