<svg width="154" height="70" viewBox="0 0 154 70" fill="none" xmlns="http://www.w3.org/2000/svg">
<path d="M154 0H0V70H154V0Z" fill="#08141D"/>
<path fill-rule="evenodd" clip-rule="evenodd" d="M1.96533e-06 11.1958V0.2926H2.6488V11.1958H1.96533e-06ZM14.4914 9.6866C14.0089 10.241 13.4134 10.6799 12.705 11.0033C11.9966 11.3267 11.1804 11.4884 10.2564 11.4884C9.41453 11.4884 8.63684 11.3498 7.9233 11.0726C7.20977 10.7954 6.5912 10.4027 6.0676 9.8945C5.544 9.3863 5.13334 8.778 4.83561 8.0696C4.53787 7.3612 4.38901 6.58094 4.38901 5.7288C4.38901 4.85613 4.54043 4.0656 4.8433 3.3572C5.14616 2.6488 5.56453 2.04564 6.0984 1.5477C6.63226 1.04976 7.25853 0.667334 7.9772 0.400399C8.69587 0.133465 9.471 3.63159e-07 10.3026 3.63159e-07C11.0726 3.63159e-07 11.8298 0.136032 12.5741 0.408101C13.3184 0.680169 13.9216 1.078 14.3836 1.6016L12.5972 3.388C12.3508 3.0492 12.0274 2.79767 11.627 2.6334C11.2266 2.46913 10.8159 2.387 10.395 2.387C9.93299 2.387 9.50951 2.4717 9.12451 2.6411C8.7395 2.8105 8.4084 3.04407 8.1312 3.3418C7.854 3.63954 7.6384 3.99117 7.4844 4.3967C7.3304 4.80224 7.2534 5.24626 7.2534 5.7288C7.2534 6.2216 7.3304 6.67333 7.4844 7.084C7.6384 7.49467 7.85143 7.8463 8.1235 8.1389C8.39557 8.4315 8.72153 8.65993 9.1014 8.8242C9.48127 8.98847 9.89706 9.0706 10.3488 9.0706C10.8724 9.0706 11.3293 8.96793 11.7194 8.7626C12.1095 8.55727 12.4227 8.29033 12.6588 7.9618L14.4914 9.6866ZM26.796 5.698C26.796 6.5604 26.6471 7.34836 26.3494 8.0619C26.0517 8.77544 25.6384 9.3863 25.1097 9.8945C24.581 10.4027 23.9521 10.7954 23.2232 11.0726C22.4943 11.3498 21.7037 11.4884 20.8516 11.4884C19.9995 11.4884 19.2115 11.3498 18.4877 11.0726C17.7639 10.7954 17.1376 10.4027 16.6089 9.8945C16.0802 9.3863 15.6669 8.77544 15.3692 8.0619C15.0715 7.34836 14.9226 6.5604 14.9226 5.698C14.9226 4.82533 15.0715 4.03737 15.3692 3.3341C15.6669 2.63083 16.0802 2.0328 16.6089 1.54C17.1376 1.0472 17.7639 0.667334 18.4877 0.400399C19.2115 0.133465 19.9995 3.63159e-07 20.8516 3.63159e-07C21.7037 3.63159e-07 22.4943 0.133465 23.2232 0.400399C23.9521 0.667334 24.581 1.0472 25.1097 1.54C25.6384 2.0328 26.0517 2.63083 26.3494 3.3341C26.6471 4.03737 26.796 4.82533 26.796 5.698ZM23.9778 5.698C23.9778 5.22573 23.9008 4.78427 23.7468 4.3736C23.5928 3.96293 23.3798 3.6113 23.1077 3.3187C22.8356 3.0261 22.5071 2.7951 22.1221 2.6257C21.7371 2.4563 21.3136 2.3716 20.8516 2.3716C20.3896 2.3716 19.9687 2.4563 19.5888 2.6257C19.2089 2.7951 18.8804 3.0261 18.6032 3.3187C18.326 3.6113 18.113 3.96293 17.9641 4.3736C17.8152 4.78427 17.7408 5.22573 17.7408 5.698C17.7408 6.1908 17.8178 6.6451 17.9718 7.0609C18.1258 7.4767 18.3388 7.83347 18.6109 8.1312C18.883 8.42894 19.2089 8.6625 19.5888 8.8319C19.9687 9.0013 20.3896 9.086 20.8516 9.086C21.3136 9.086 21.7345 9.0013 22.1144 8.8319C22.4943 8.6625 22.8228 8.42894 23.1 8.1312C23.3772 7.83347 23.5928 7.4767 23.7468 7.0609C23.9008 6.6451 23.9778 6.1908 23.9778 5.698Z" transform="translate(89.3242 11.2041)" fill="#3EA1F0"/>
<path fill-rule="evenodd" clip-rule="evenodd" d="M10.1024 10.1332C9.61986 10.6876 9.0244 11.1265 8.316 11.4499C7.60759 11.7733 6.7914 11.935 5.8674 11.935C5.02552 11.935 4.24784 11.7964 3.5343 11.5192C2.82076 11.242 2.2022 10.8493 1.6786 10.3411C1.155 9.8329 0.744333 9.2246 0.446598 8.5162C0.148864 7.8078 -1.92261e-06 7.02754 -1.92261e-06 6.1754C-1.92261e-06 5.30273 0.151431 4.5122 0.4543 3.8038C0.757168 3.0954 1.17554 2.49224 1.7094 1.9943C2.24327 1.49636 2.86953 1.11393 3.5882 0.846999C4.30687 0.580065 5.082 0.4466 5.9136 0.4466C6.68361 0.4466 7.44076 0.582632 8.1851 0.8547C8.92944 1.12677 9.5326 1.5246 9.9946 2.0482L8.2082 3.8346C7.9618 3.4958 7.6384 3.24427 7.238 3.08C6.8376 2.91573 6.42694 2.8336 6.006 2.8336C5.544 2.8336 5.1205 2.9183 4.7355 3.0877C4.3505 3.2571 4.0194 3.49066 3.7422 3.7884C3.465 4.08613 3.2494 4.43776 3.0954 4.8433C2.9414 5.24883 2.8644 5.69286 2.8644 6.1754C2.8644 6.6682 2.9414 7.11993 3.0954 7.5306C3.2494 7.94127 3.46243 8.2929 3.7345 8.5855C4.00657 8.8781 4.33253 9.10653 4.7124 9.2708C5.09227 9.43507 5.50806 9.5172 5.9598 9.5172C6.4834 9.5172 6.94027 9.41453 7.3304 9.2092C7.72054 9.00386 8.03367 8.73694 8.2698 8.4084L10.1024 10.1332ZM16.0622 6.0368C15.9493 6.006 15.8389 5.98547 15.7311 5.9752C15.6233 5.96493 15.5181 5.9598 15.4154 5.9598C15.0766 5.9598 14.7917 6.0214 14.5607 6.1446C14.3297 6.2678 14.1449 6.41667 14.0063 6.5912C13.8677 6.76573 13.7676 6.95567 13.706 7.161C13.6444 7.36633 13.6136 7.546 13.6136 7.7V11.6424H11.088V3.9732H13.5212V5.082H13.552C13.7471 4.69186 14.0243 4.3736 14.3836 4.1272C14.7429 3.8808 15.1587 3.7576 15.631 3.7576C15.7337 3.7576 15.8338 3.76273 15.9313 3.773C16.0288 3.78327 16.1084 3.79867 16.17 3.8192L16.0622 6.0368ZM22.2376 11.6424V10.5798H22.2068C22.1144 10.7543 21.9938 10.9186 21.8449 11.0726C21.696 11.2266 21.5215 11.3601 21.3213 11.473C21.1211 11.5859 20.9004 11.6783 20.6591 11.7502C20.4178 11.8221 20.1637 11.858 19.8968 11.858C19.3835 11.858 18.9497 11.7656 18.5955 11.5808C18.2413 11.396 17.9538 11.1573 17.7331 10.8647C17.5124 10.5721 17.3532 10.2384 17.2557 9.8637C17.1582 9.48896 17.1094 9.10653 17.1094 8.7164V3.9732H19.6504V8.1312C19.6504 8.3468 19.6658 8.55213 19.6966 8.7472C19.7274 8.94227 19.7864 9.1168 19.8737 9.2708C19.961 9.4248 20.0765 9.54543 20.2202 9.6327C20.3639 9.71997 20.5539 9.7636 20.79 9.7636C21.2315 9.7636 21.5677 9.59933 21.7987 9.2708C22.0297 8.94226 22.1452 8.55727 22.1452 8.1158V3.9732H24.6708V11.6424H22.2376ZM31.6778 11.6424V7.4536C31.6778 7.238 31.6598 7.03267 31.6239 6.8376C31.588 6.64253 31.5289 6.47057 31.4468 6.3217C31.3647 6.17283 31.2492 6.05477 31.1003 5.9675C30.9514 5.88023 30.7641 5.8366 30.5382 5.8366C30.3123 5.8366 30.1147 5.88023 29.9453 5.9675C29.7759 6.05477 29.6347 6.1754 29.5218 6.3294C29.4089 6.4834 29.3242 6.6605 29.2677 6.8607C29.2112 7.0609 29.183 7.2688 29.183 7.4844V11.6424H26.642V3.9732H29.0906V5.0358H29.1214C29.2138 4.87153 29.3344 4.70983 29.4833 4.5507C29.6322 4.39157 29.8067 4.25553 30.0069 4.1426C30.2071 4.02967 30.4253 3.93727 30.6614 3.8654C30.8975 3.79353 31.1491 3.7576 31.416 3.7576C31.9293 3.7576 32.3657 3.85 32.725 4.0348C33.0843 4.2196 33.3744 4.4583 33.5951 4.7509C33.8158 5.0435 33.975 5.37973 34.0725 5.7596C34.17 6.13947 34.2188 6.51933 34.2188 6.8992V11.6424H31.6778ZM41.4106 6.4526C41.2669 6.2678 41.0718 6.11894 40.8254 6.006C40.579 5.89307 40.3275 5.8366 40.0708 5.8366C39.8039 5.8366 39.5626 5.8905 39.347 5.9983C39.1314 6.1061 38.9466 6.24983 38.7926 6.4295C38.6386 6.60917 38.518 6.81707 38.4307 7.0532C38.3434 7.28933 38.2998 7.54086 38.2998 7.8078C38.2998 8.07473 38.3409 8.32626 38.423 8.5624C38.5051 8.79853 38.6258 9.00643 38.7849 9.1861C38.944 9.36577 39.134 9.50693 39.3547 9.6096C39.5754 9.71227 39.8244 9.7636 40.1016 9.7636C40.3583 9.7636 40.6124 9.71483 40.8639 9.6173C41.1154 9.51976 41.3182 9.3786 41.4722 9.1938L42.8736 10.9032C42.5553 11.2112 42.1447 11.4525 41.6416 11.627C41.1385 11.8015 40.6047 11.8888 40.04 11.8888C39.4343 11.8888 38.8696 11.7964 38.346 11.6116C37.8224 11.4268 37.3681 11.1573 36.9831 10.8031C36.5981 10.4489 36.2952 10.0203 36.0745 9.5172C35.8538 9.01413 35.7434 8.44434 35.7434 7.8078C35.7434 7.18153 35.8538 6.61687 36.0745 6.1138C36.2952 5.61073 36.5981 5.1821 36.9831 4.8279C37.3681 4.4737 37.8224 4.20163 38.346 4.0117C38.8696 3.82176 39.4291 3.7268 40.0246 3.7268C40.3018 3.7268 40.5764 3.75247 40.8485 3.8038C41.1206 3.85513 41.3824 3.92443 41.6339 4.0117C41.8854 4.09897 42.1164 4.20677 42.3269 4.3351C42.5374 4.46343 42.7196 4.6046 42.8736 4.7586L41.4106 6.4526ZM48.9258 11.6424V7.4844C48.9258 7.2688 48.9104 7.06347 48.8796 6.8684C48.8488 6.67333 48.7898 6.50137 48.7025 6.3525C48.6152 6.20363 48.4997 6.08557 48.356 5.9983C48.2123 5.91103 48.0275 5.8674 47.8016 5.8674C47.3601 5.8674 47.0213 6.02397 46.7852 6.3371C46.5491 6.65024 46.431 7.0378 46.431 7.4998V11.6424H43.9054V2.13623e-08H46.431V4.9434H46.4618C46.6363 4.6354 46.9135 4.36077 47.2934 4.1195C47.6733 3.87823 48.1301 3.7576 48.664 3.7576C49.1876 3.7576 49.6265 3.85 49.9807 4.0348C50.3349 4.2196 50.6224 4.4583 50.8431 4.7509C51.0638 5.0435 51.223 5.37973 51.3205 5.7596C51.418 6.13947 51.4668 6.51933 51.4668 6.8992V11.6424H48.9258Z" transform="translate(88.8159 27.5576)" fill="white"/>
<path fill-rule="evenodd" clip-rule="evenodd" d="M5.8366 11.5038L3.4804 7.1764H2.5872V11.5038H1.96533e-06V0.600603H4.158C4.68161 0.600603 5.19236 0.654499 5.6903 0.762299C6.18824 0.8701 6.63483 1.05233 7.0301 1.309C7.42537 1.56567 7.74106 1.90446 7.9772 2.3254C8.21333 2.74634 8.3314 3.26993 8.3314 3.8962C8.3314 4.63541 8.1312 5.25653 7.7308 5.7596C7.33039 6.26267 6.776 6.622 6.0676 6.8376L8.9166 11.5038H5.8366ZM5.7288 3.9424C5.7288 3.68573 5.6749 3.47783 5.5671 3.3187C5.4593 3.15957 5.3207 3.03637 5.1513 2.9491C4.9819 2.86183 4.79197 2.8028 4.5815 2.772C4.37103 2.7412 4.16827 2.7258 3.9732 2.7258H2.5718V5.2668H3.8192C4.0348 5.2668 4.25553 5.24883 4.4814 5.2129C4.70726 5.17697 4.9126 5.1128 5.0974 5.0204C5.2822 4.928 5.43363 4.79453 5.5517 4.62C5.66977 4.44547 5.7288 4.2196 5.7288 3.9424ZM14.4144 8.162H14.091C13.8138 8.162 13.534 8.17483 13.2517 8.2005C12.9694 8.22617 12.7178 8.27493 12.4971 8.3468C12.2764 8.41867 12.0941 8.5239 11.9504 8.6625C11.8067 8.8011 11.7348 8.98333 11.7348 9.2092C11.7348 9.35293 11.7682 9.47613 11.8349 9.5788C11.9016 9.68147 11.9863 9.7636 12.089 9.8252C12.1917 9.8868 12.3097 9.93043 12.4432 9.9561C12.5767 9.98177 12.705 9.9946 12.8282 9.9946C13.3415 9.9946 13.7342 9.85343 14.0063 9.5711C14.2784 9.28876 14.4144 8.90633 14.4144 8.4238V8.162ZM9.779 4.8818C10.2307 4.4506 10.7569 4.1272 11.3575 3.9116C11.9581 3.696 12.5715 3.5882 13.1978 3.5882C13.8446 3.5882 14.3913 3.66776 14.8379 3.8269C15.2845 3.98603 15.6464 4.23243 15.9236 4.5661C16.2008 4.89977 16.4036 5.3207 16.5319 5.8289C16.6602 6.3371 16.7244 6.94026 16.7244 7.6384V11.5038H14.4144V10.6876H14.3682C14.1731 11.0059 13.878 11.2523 13.4827 11.4268C13.0874 11.6013 12.6588 11.6886 12.1968 11.6886C11.8888 11.6886 11.5705 11.6475 11.242 11.5654C10.9135 11.4833 10.6132 11.3498 10.3411 11.165C10.069 10.9802 9.84573 10.7338 9.6712 10.4258C9.49666 10.1178 9.4094 9.73794 9.4094 9.2862C9.4094 8.7318 9.56084 8.2852 9.8637 7.9464C10.1666 7.6076 10.5567 7.3458 11.0341 7.161C11.5115 6.9762 12.0428 6.853 12.628 6.7914C13.2132 6.7298 13.783 6.699 14.3374 6.699V6.5758C14.3374 6.19593 14.2039 5.91617 13.937 5.7365C13.6701 5.55683 13.3415 5.467 12.9514 5.467C12.5921 5.467 12.2456 5.544 11.9119 5.698C11.5782 5.852 11.2933 6.0368 11.0572 6.2524L9.779 4.8818ZM21.1904 5.7288V8.6548C21.1904 9.01414 21.2597 9.28363 21.3983 9.4633C21.5369 9.64297 21.7859 9.7328 22.1452 9.7328C22.2684 9.7328 22.3993 9.72254 22.5379 9.702C22.6765 9.68147 22.792 9.65067 22.8844 9.6096L22.9152 11.4576C22.7407 11.5192 22.5199 11.5731 22.253 11.6193C21.9861 11.6655 21.7191 11.6886 21.4522 11.6886C20.9389 11.6886 20.5077 11.6244 20.1586 11.4961C19.8095 11.3678 19.5298 11.183 19.3193 10.9417C19.1088 10.7004 18.9574 10.413 18.865 10.0793C18.7726 9.74563 18.7264 9.37347 18.7264 8.9628V5.7288H17.4944V3.8346H18.711V1.8172H21.1904V3.8346H22.9922V5.7288H21.1904ZM26.9192 1.386C26.9192 1.58107 26.8807 1.7633 26.8037 1.9327C26.7267 2.1021 26.624 2.2484 26.4957 2.3716C26.3674 2.4948 26.2134 2.59233 26.0337 2.6642C25.854 2.73607 25.6667 2.772 25.4716 2.772C25.0609 2.772 24.717 2.63597 24.4398 2.3639C24.1626 2.09183 24.024 1.76587 24.024 1.386C24.024 1.2012 24.0599 1.0241 24.1318 0.854702C24.2037 0.685301 24.3063 0.539003 24.4398 0.415803C24.5733 0.292602 24.7273 0.1925 24.9018 0.115499C25.0763 0.0384989 25.2663 1.32446e-06 25.4716 1.32446e-06C25.6667 1.32446e-06 25.854 0.0359338 26.0337 0.107801C26.2134 0.179668 26.3674 0.2772 26.4957 0.4004C26.624 0.523601 26.7267 0.669899 26.8037 0.8393C26.8807 1.0087 26.9192 1.19093 26.9192 1.386ZM24.2088 11.5038V3.8346H26.7344V11.5038H24.2088ZM33.7722 11.5038V7.315C33.7722 7.0994 33.7542 6.89407 33.7183 6.699C33.6824 6.50393 33.6233 6.33197 33.5412 6.1831C33.4591 6.03423 33.3436 5.91617 33.1947 5.8289C33.0458 5.74163 32.8585 5.698 32.6326 5.698C32.4067 5.698 32.2091 5.74163 32.0397 5.8289C31.8703 5.91617 31.7291 6.0368 31.6162 6.1908C31.5033 6.3448 31.4186 6.5219 31.3621 6.7221C31.3056 6.9223 31.2774 7.1302 31.2774 7.3458V11.5038H28.7364V3.8346H31.185V4.8972H31.2158C31.3082 4.73293 31.4288 4.57124 31.5777 4.4121C31.7266 4.25297 31.9011 4.11694 32.1013 4.004C32.3015 3.89107 32.5197 3.79867 32.7558 3.7268C32.9919 3.65493 33.2435 3.619 33.5104 3.619C34.0237 3.619 34.4601 3.7114 34.8194 3.8962C35.1787 4.081 35.4688 4.3197 35.6895 4.6123C35.9102 4.9049 36.0694 5.24113 36.1669 5.621C36.2644 6.00087 36.3132 6.38073 36.3132 6.7606V11.5038H33.7722ZM46.354 10.78C46.354 11.5295 46.2462 12.1814 46.0306 12.7358C45.815 13.2902 45.5121 13.7496 45.122 14.1141C44.7319 14.4786 44.257 14.7506 43.6975 14.9303C43.138 15.11 42.5194 15.1998 41.8418 15.1998C41.1642 15.1998 40.4686 15.0971 39.7551 14.8918C39.0416 14.6865 38.423 14.3887 37.8994 13.9986L39.1622 12.1968C39.5318 12.5253 39.9399 12.7692 40.3865 12.9283C40.8331 13.0874 41.272 13.167 41.7032 13.167C42.4424 13.167 42.9891 12.9719 43.3433 12.5818C43.6975 12.1917 43.8746 11.6732 43.8746 11.0264V10.5644H43.8284C43.5923 10.8724 43.274 11.1188 42.8736 11.3036C42.4732 11.4884 42.0163 11.5808 41.503 11.5808C40.9178 11.5808 40.3993 11.4756 39.9476 11.2651C39.4959 11.0546 39.1134 10.7697 38.8003 10.4104C38.4872 10.0511 38.2485 9.6327 38.0842 9.1553C37.9199 8.6779 37.8378 8.17227 37.8378 7.6384C37.8378 7.10453 37.9199 6.59634 38.0842 6.1138C38.2485 5.63127 38.4872 5.2052 38.8003 4.8356C39.1134 4.466 39.4959 4.17083 39.9476 3.9501C40.3993 3.72937 40.9127 3.619 41.4876 3.619C41.9701 3.619 42.4321 3.71653 42.8736 3.9116C43.3151 4.10667 43.6693 4.40953 43.9362 4.8202H43.967V3.8346H46.354V10.78ZM43.9516 7.623C43.9516 7.36633 43.908 7.11994 43.8207 6.8838C43.7334 6.64767 43.6077 6.43977 43.4434 6.2601C43.2791 6.08043 43.0841 5.93927 42.8582 5.8366C42.6323 5.73393 42.3757 5.6826 42.0882 5.6826C41.8007 5.6826 41.5466 5.73393 41.3259 5.8366C41.1052 5.93927 40.9178 6.07787 40.7638 6.2524C40.6098 6.42694 40.4917 6.63226 40.4096 6.8684C40.3275 7.10453 40.2864 7.35607 40.2864 7.623C40.2864 7.87967 40.3275 8.12607 40.4096 8.3622C40.4917 8.59834 40.6098 8.80623 40.7638 8.9859C40.9178 9.16557 41.1052 9.3093 41.3259 9.4171C41.5466 9.5249 41.8007 9.5788 42.0882 9.5788C42.3757 9.5788 42.6349 9.5249 42.8659 9.4171C43.0969 9.3093 43.292 9.16814 43.4511 8.9936C43.6102 8.81907 43.7334 8.61373 43.8207 8.3776C43.908 8.14146 43.9516 7.88994 43.9516 7.623Z" transform="translate(89.3242 44.4961)" fill="white"/>
<path fill-rule="evenodd" clip-rule="evenodd" d="M9.59403 1.09453C5.8905 -1.38686 2.81575 0.791951 -2.92988e-07 3.25587C3.63489 4.21668 7.48424 4.65253 9.59403 1.09453Z" transform="translate(54.4614 57.5981) scale(-1 1)" fill="#69B542"/>
<path fill-rule="evenodd" clip-rule="evenodd" d="M7.50869 6.19959C7.34436 1.82732 3.71244 0.727481 1.19082e-06 -6.67769e-07C1.37726 3.41109 3.31543 6.67625 7.50869 6.19959Z" transform="translate(53.2661 50.3574) scale(-1 1)" fill="#69B542"/>
<path fill-rule="evenodd" clip-rule="evenodd" d="M9.74746 1.37879C6.27269 -1.39824 3.01969 0.519956 5.11841e-07 2.74354C3.53844 3.99979 7.33618 4.75059 9.74746 1.37879Z" transform="translate(61.2188 55.3438) scale(-1 1)" fill="#69B542"/>
<path fill-rule="evenodd" clip-rule="evenodd" d="M3.48858 9.07037C5.6539 5.23585 3.11697 2.47824 0.314523 -8.05991e-07C-0.302784 3.61529 -0.361723 7.38546 3.48858 9.07037Z" transform="translate(58.1826 45.5791) scale(-1 1)" fill="#69B542"/>
<path fill-rule="evenodd" clip-rule="evenodd" d="M9.75757 2.49787C7.2011 -1.10145 3.53152 -0.127047 -2.61876e-07 1.20336C3.04729 3.35749 6.48668 5.09498 9.75757 2.49787Z" transform="translate(67.2637 52.0664) scale(-1 1)" fill="#69B542"/>
<path fill-rule="evenodd" clip-rule="evenodd" d="M1.87372 9.58164C5.18172 6.61805 3.67986 3.21777 1.83484 9.62979e-07C0.0659835 3.2356 -1.2243 6.79108 1.87372 9.58164Z" transform="translate(62.9907 41.7725) scale(-1 1)" fill="#69B542"/>
<path fill-rule="evenodd" clip-rule="evenodd" d="M9.3264 3.45982C7.52019 -0.546882 3.72712 -0.269349 -4.56897e-09 0.383244C2.57057 3.06197 5.60753 5.40422 9.3264 3.45982Z" transform="translate(72.2012 47.5312) scale(-1 1)" fill="#69B542"/>
<path fill-rule="evenodd" clip-rule="evenodd" d="M1.1763 9.4224C4.99184 7.1072 4.16422 3.49489 2.96461 9.19707e-07C0.609646 2.86025 -1.33602 6.12119 1.1763 9.4224Z" transform="translate(67.0645 37.6953) scale(-1 1)" fill="#69B542"/>
<path fill-rule="evenodd" clip-rule="evenodd" d="M8.56016 4.73712C7.56529 0.470361 3.78672 0.0449698 1.27037e-08 1.27542e-06C2.00355 3.10339 4.53047 5.96217 8.56016 4.73712Z" transform="translate(75.7803 41.8389) scale(-1 1)" fill="#69B542"/>
<path fill-rule="evenodd" clip-rule="evenodd" d="M0.819462 9.16123C4.88237 7.28631 4.48529 3.60555 3.70484 2.65063e-07C1.02877 2.5791 -1.28786 5.60184 0.819462 9.16123Z" transform="translate(69.1724 31.145) scale(-1 1)" fill="#69B542"/>
<path fill-rule="evenodd" clip-rule="evenodd" d="M7.92147 5.69259C7.45437 1.34109 3.75444 0.48215 1.57657e-09 -5.58462e-07C1.61063 3.3129 3.77077 6.4434 7.92147 5.69259Z" transform="translate(76.9517 35.8335) scale(-1 1)" fill="#69B542"/>
<path fill-rule="evenodd" clip-rule="evenodd" d="M0.288016 8.30231C4.67875 7.35811 5.13699 3.68408 5.2043 1.05957e-07C2.00361 1.93209 -0.948602 4.37476 0.288016 8.30231Z" transform="translate(70.3491 24.8706) scale(-1 1)" fill="#69B542"/>
<path fill-rule="evenodd" clip-rule="evenodd" d="M5.09767 8.19808C6.36833 4.00122 3.28308 1.83649 -3.46163e-08 1.90193e-07C0.193126 3.66003 0.965759 7.35494 5.09767 8.19808Z" transform="translate(76.0181 28.1841) scale(-1 1)" fill="#69B542"/>
<path fill-rule="evenodd" clip-rule="evenodd" d="M0.00326382 6.74226C4.49436 6.96108 5.9346 3.53566 7.00054 9.66516e-08C3.38874 1.04003 -0.122172 2.63638 0.00326382 6.74226Z" transform="translate(68.3369 18.187) scale(-1 1)" fill="#69B542"/>
<path fill-rule="evenodd" clip-rule="evenodd" d="M2.70893 9.41501C5.40791 5.91557 3.29561 2.8377 0.879983 -7.19311e-08C-0.254685 3.49461 -0.858981 7.21909 2.70893 9.41501Z" transform="translate(73.9346 20.2236) scale(-1 1)" fill="#69B542"/>
<path fill-rule="evenodd" clip-rule="evenodd" d="M0.0660273 7.43483C4.55527 7.18283 5.60885 3.62665 6.27812 -3.06631e-10C2.80211 1.41164 -0.512149 3.36583 0.0660273 7.43483Z" transform="translate(66.4355 11.269) scale(-1 1)" fill="#E3ECF2"/>
<path fill-rule="evenodd" clip-rule="evenodd" d="M1.78537 9.58021C5.15843 6.68689 3.73245 3.25582 1.95935 -6.07587e-09C0.119027 3.19764 -1.24995 6.72515 1.78537 9.58021Z" transform="translate(71.02 12.8994) scale(-1 1)" fill="#69B542"/>
<path fill-rule="evenodd" clip-rule="evenodd" d="M9.59403 1.09453C5.8905 -1.38686 2.81575 0.791951 -2.92988e-07 3.25587C3.63489 4.21668 7.48424 4.65253 9.59403 1.09453Z" transform="translate(32.3389 57.5981)" fill="#69B542"/>
<path fill-rule="evenodd" clip-rule="evenodd" d="M7.50869 6.19959C7.34436 1.82732 3.71244 0.727481 1.19082e-06 -6.67769e-07C1.37726 3.41109 3.31543 6.67625 7.50869 6.19959Z" transform="translate(33.5342 50.3574)" fill="#69B542"/>
<path fill-rule="evenodd" clip-rule="evenodd" d="M9.74746 1.37879C6.27269 -1.39824 3.01969 0.519956 5.11841e-07 2.74354C3.53844 3.99979 7.33618 4.75059 9.74746 1.37879Z" transform="translate(25.5811 55.3438)" fill="#69B542"/>
<path fill-rule="evenodd" clip-rule="evenodd" d="M3.48858 9.07037C5.6539 5.23585 3.11697 2.47824 0.314523 -8.05991e-07C-0.302784 3.61529 -0.361723 7.38546 3.48858 9.07037Z" transform="translate(28.6177 45.5791)" fill="#69B542"/>
<path fill-rule="evenodd" clip-rule="evenodd" d="M9.75757 2.49787C7.2011 -1.10145 3.53152 -0.127047 -2.61876e-07 1.20336C3.04729 3.35749 6.48668 5.09498 9.75757 2.49787Z" transform="translate(19.5366 52.0664)" fill="#69B542"/>
<path fill-rule="evenodd" clip-rule="evenodd" d="M1.87372 9.58164C5.18172 6.61805 3.67986 3.21777 1.83484 9.62979e-07C0.0659835 3.2356 -1.2243 6.79108 1.87372 9.58164Z" transform="translate(23.8096 41.7725)" fill="#69B542"/>
<path fill-rule="evenodd" clip-rule="evenodd" d="M9.3264 3.45982C7.52019 -0.546882 3.72712 -0.269349 -4.56897e-09 0.383244C2.57057 3.06197 5.60753 5.40422 9.3264 3.45982Z" transform="translate(14.5991 47.5312)" fill="#69B542"/>
<path fill-rule="evenodd" clip-rule="evenodd" d="M1.1763 9.4224C4.99184 7.1072 4.16422 3.49489 2.96461 9.19707e-07C0.609646 2.86025 -1.33602 6.12119 1.1763 9.4224Z" transform="translate(19.7358 37.6953)" fill="#69B542"/>
<path fill-rule="evenodd" clip-rule="evenodd" d="M8.56016 4.73712C7.56529 0.470361 3.78672 0.0449698 1.27037e-08 1.27542e-06C2.00355 3.10339 4.53047 5.96217 8.56016 4.73712Z" transform="translate(11.02 41.8389)" fill="#69B542"/>
<path fill-rule="evenodd" clip-rule="evenodd" d="M0.819462 9.16123C4.88237 7.28631 4.48529 3.60555 3.70484 2.65063e-07C1.02877 2.5791 -1.28786 5.60184 0.819462 9.16123Z" transform="translate(17.6274 31.145)" fill="#69B542"/>
<path fill-rule="evenodd" clip-rule="evenodd" d="M7.92147 5.69259C7.45437 1.34109 3.75444 0.48215 1.57657e-09 -5.58462e-07C1.61063 3.3129 3.77077 6.4434 7.92147 5.69259Z" transform="translate(9.84863 35.8335)" fill="#69B542"/>
<path fill-rule="evenodd" clip-rule="evenodd" d="M0.288016 8.30231C4.67875 7.35811 5.13699 3.68408 5.2043 1.05957e-07C2.00361 1.93209 -0.948602 4.37476 0.288016 8.30231Z" transform="translate(16.4512 24.8706)" fill="#69B542"/>
<path fill-rule="evenodd" clip-rule="evenodd" d="M5.09767 8.19808C6.36833 4.00122 3.28308 1.83649 -3.46163e-08 1.90193e-07C0.193126 3.66003 0.965759 7.35494 5.09767 8.19808Z" transform="translate(10.7822 28.1841)" fill="#69B542"/>
<path fill-rule="evenodd" clip-rule="evenodd" d="M0.00326382 6.74226C4.49436 6.96108 5.9346 3.53566 7.00054 9.66516e-08C3.38874 1.04003 -0.122172 2.63638 0.00326382 6.74226Z" transform="translate(18.4634 18.187)" fill="#69B542"/>
<path fill-rule="evenodd" clip-rule="evenodd" d="M2.70893 9.41501C5.40791 5.91557 3.29561 2.8377 0.879983 -7.19311e-08C-0.254685 3.49461 -0.858981 7.21909 2.70893 9.41501Z" transform="translate(12.8657 20.2236)" fill="#69B542"/>
<path fill-rule="evenodd" clip-rule="evenodd" d="M0.0660273 7.43483C4.55527 7.18283 5.60885 3.62665 6.27812 -3.06631e-10C2.80211 1.41164 -0.512149 3.36583 0.0660273 7.43483Z" transform="translate(20.3647 11.269)" fill="#E3ECF2"/>
<path fill-rule="evenodd" clip-rule="evenodd" d="M1.78537 9.58021C5.15843 6.68689 3.73245 3.25582 1.95935 -6.07587e-09C0.119027 3.19764 -1.24995 6.72515 1.78537 9.58021Z" transform="translate(15.7803 12.8994)" fill="#69B542"/>
<path fill-rule="evenodd" clip-rule="evenodd" d="M11.6172 16.8084H8.0388V13.3308H1.06812e-06V10.5084L6.678 -7.26318e-07H11.6172V10.1808H13.7844V13.3308H11.6172V16.8084ZM8.0388 10.1808V3.1752L3.5028 10.1808H8.0388ZM17.64 17.0856C16.5312 17.0856 15.5988 16.1532 15.5988 15.0444C15.5988 13.9356 16.5312 13.0032 17.64 13.0032C18.7488 13.0032 19.6812 13.9356 19.6812 15.0444C19.6812 16.1532 18.7488 17.0856 17.64 17.0856ZM26.0064 16.8084H22.0752L28.098 3.15H19.6308V-7.26318e-07H32.256V2.4948L26.0064 16.8084Z" transform="translate(25.8301 24.4912)" fill="white"/>
</svg>
