<svg width="300" height="100" viewBox="0 0 300 100" fill="none" xmlns="http://www.w3.org/2000/svg">
<path d="M14.5281 3.83222C10.1811 3.83222 5.51954 5.54814 5.51954 9.72355C5.51954 13.4414 9.78074 14.5281 14.8427 15.3575C21.7064 16.4442 28.4557 17.817 28.4557 25.5386C28.3985 33.2317 21.0486 35.7197 14.4995 35.7197C8.43661 35.7197 2.63108 33.5176 0 27.7693L3.51764 25.7102C5.71973 29.7712 10.3241 31.7445 14.5567 31.7445C18.7321 31.7445 24.2517 30.429 24.2517 25.367C24.3089 21.1058 19.5043 19.8761 14.3565 19.1039C7.75024 18.0744 1.31554 16.5586 1.31554 9.60915C1.22974 2.45949 8.5224 0 14.4423 0C19.5329 0 24.3947 1.02955 27.4261 6.23451L24.1945 8.23642C22.3356 5.26215 18.3603 3.88942 14.5281 3.83222Z" transform="translate(65.7197 53.2222)" fill="#54759D"/>
<path d="M3.94662 0.0571973V14.1277C6.00572 10.9533 9.23737 9.86654 12.326 9.80934C19.1325 9.80934 22.4786 14.3279 22.4786 20.9914V34.3184H18.5033V21.0486C18.5033 16.3012 16.0439 13.613 11.6397 13.613C7.23546 13.613 4.00381 17.0448 4.00381 21.4776V34.3184H0V0H3.97521V0.0571973H3.94662Z" transform="translate(97.2355 53.9658)" fill="#54759D"/>
<path fill-rule="evenodd" clip-rule="evenodd" d="M21.306 20.3057L21.3918 24.71L21.5348 24.5952H25.3956V0.400904H21.4775L21.4204 4.8052C19.6473 1.6592 16.0725 0.000512886 12.4404 0.000512886C5.5481 -0.056616 0 4.66213 0 12.4981C0 20.3916 5.43372 25.1958 12.3832 25.1958C15.7292 25.1958 19.3899 23.6514 21.306 20.3057ZM3.8894 12.6411C3.8894 7.26467 7.75024 3.83254 12.5548 3.83254L12.6119 3.77542C24.223 3.77542 24.223 21.5064 12.5548 21.5064C7.75024 21.5064 3.8894 18.0176 3.8894 12.6411Z" transform="translate(122.86 63.6602)" fill="#54759D"/>
<path fill-rule="evenodd" clip-rule="evenodd" d="M3.80371 0.429199H0V35.9771H3.91809V20.1904C5.80554 23.6226 9.63782 25.0811 13.0696 25.0811C20.3337 25.0811 25.3671 20.1333 25.3671 12.4976C25.3671 5.0332 20.2765 0.143066 13.327 0C9.49475 0 5.91992 1.85889 4.00391 5.09033L3.80371 0.429199ZM12.8123 3.88965C17.7598 3.88965 21.3346 7.12109 21.3346 12.5552C21.3346 18.0176 17.6454 21.2778 12.8123 21.2778C7.92188 21.2202 4.34705 17.5024 4.34705 12.5552C4.34705 7.60742 7.77893 3.88965 12.8123 3.88965Z" transform="translate(151.458 63.7466)" fill="#54759D"/>
<path fill-rule="evenodd" clip-rule="evenodd" d="M12.7264 25.1953C16.5015 25.1953 20.7054 23.7656 23.1649 20.877V20.9058H23.2222L20.5338 18.4463C18.9037 20.3906 15.5863 21.4775 12.8408 21.4775C8.1792 21.4775 4.48999 18.6748 4.06104 14.2134H24.6521C25.5958 4.54736 19.9619 0 12.5548 0C5.23352 0 0 5.26221 0 12.5547C0 20.248 5.23352 25.1953 12.7264 25.1953ZM20.7913 10.896C20.7904 10.877 20.7921 10.8579 20.7913 10.8389V10.896ZM12.6121 3.63184C17.3402 3.63184 20.5674 6.18457 20.7913 10.8389H4.03247C4.71887 6.17725 8.40808 3.63184 12.6121 3.63184Z" transform="translate(179.571 63.5176)" fill="#54759D"/>
<path d="M14.5281 3.83222C10.1811 3.83222 5.51954 5.54814 5.51954 9.72355C5.51954 13.4414 9.78074 14.5281 14.8427 15.3575C21.7064 16.4442 28.4557 17.817 28.4557 25.5386C28.3985 33.2317 21.0486 35.7197 14.4995 35.7197C8.43661 35.7197 2.63108 33.5176 0 27.7693L3.51764 25.7102C5.71973 29.7712 10.3241 31.7445 14.5567 31.7445C18.7321 31.7445 24.2517 30.429 24.2517 25.367C24.3089 21.1058 19.5043 19.8761 14.3565 19.1039C7.75024 18.0744 1.31554 16.5586 1.31554 9.60915C1.22974 2.45949 8.5224 0 14.4423 0C19.5329 0 24.3947 1.02955 27.4261 6.23451L24.1945 8.23642C22.3356 5.26215 18.3603 3.88942 14.5281 3.83222Z" transform="translate(206.025 53.2222)" fill="#54759D"/>
<path d="M3.94662 0.0571973V14.1277C6.00572 10.9533 9.23737 9.86654 12.326 9.80934C19.1325 9.80934 22.4786 14.3279 22.4786 20.9914V34.3184H18.5033V21.0486C18.5033 16.3012 16.0439 13.613 11.6397 13.613C7.23546 13.613 4.00381 17.102 4.00381 21.5062V34.347H0V0H3.97521V0.0571973H3.94662Z" transform="translate(237.541 53.9658)" fill="#54759D"/>
<path fill-rule="evenodd" clip-rule="evenodd" d="M0 3.48926L3.17444 6.97803L6.34888 3.48926L3.17444 0L0 3.48926ZM5.11914 34.4609H1.11536V10.6099H5.11914V34.4609Z" transform="translate(262.164 53.7939)" fill="#54759D"/>
<path d="M0.05 0.1V0H0L0.05 0.1Z" transform="translate(274.747 88.2554)" fill="#54759D"/>
<path d="M8.69399 8.77979C8.69399 5.14776 10.3527 3.54623 12.9552 3.54623C13.0124 3.54623 13.0696 3.54623 13.0982 3.54623L14.0133 0.085796C13.6416 0.0285987 13.2412 0 12.8694 0C7.77884 0 4.74738 3.23165 4.74738 8.77979V10.6959H0V14.2135H4.74738V34.6044H8.72259V14.2135H13.5272V10.6959H8.72259V8.77979H8.69399Z" transform="translate(270.057 53.6797)" fill="#54759D"/>
<path d="M13.613 27.9123C13.2984 27.9695 12.9838 27.9981 12.6692 27.9981C9.78074 27.9981 8.83699 26.1964 8.83699 23.3365V10.8675H13.9847V7.37846H8.86559V0L4.86177 0.42898V7.34986H0V10.8389H4.86177V23.3079C4.86177 28.6559 7.32126 31.6873 12.4976 31.6015C13.1268 31.5729 13.756 31.5157 14.3565 31.3727L13.613 27.9123Z" transform="translate(285.558 56.9971)" fill="#54759D"/>
<path d="M61.7731 23.7083L65.9199 0.0285987L48.5891 7.26406H29.5424L12.2116 0L16.387 23.7083L12.469 36.9209L16.1582 39.2374L0 53.4223V66.7493L18.4747 92.2021L35.8913 98.0362L35.9199 98.0648L49.5329 91.0867L49.5615 91.0582V80.734L41.8398 76.5014L53.9657 44.2135H53.8799L65.6625 36.9209L61.7731 23.7083Z" fill="#273C51"/>
<path d="M27.9409 0L0 24.5091L38.9228 46.9018L39.0658 0.743565L27.9409 0Z" transform="translate(0 28.9131)" fill="url(#paint0_linear)"/>
<path d="M0 0L14.9857 40.0667L15.1001 2.2307L0 0Z" transform="translate(23.9657 44.0703)" fill="#466284"/>
<path d="M15.0143 0L0 39.9237L0.114395 2.0877L15.0143 0Z" transform="translate(38.9514 44.2134)" fill="#354D6A"/>
<path d="M53.7083 0.0285987L38.8084 7.86463L26.8827 10.4671L14.8427 7.86463L0 0L5.11916 23.6511L0.257388 36.9209L17.3022 47.5024L26.7684 57.7979V57.8837L26.8255 57.8265L26.8827 57.8837V57.7979L36.3489 47.5024L53.4509 36.9209L48.5891 23.6797L53.7083 0.0285987Z" transform="translate(12.2117)" fill="url(#paint1_linear)"/>
<path d="M5.11916 0L0.972355 23.6797L4.86177 36.8923L0 23.6511L5.11916 0Z" transform="translate(60.8008 0.0288086)" fill="url(#paint2_linear)"/>
<path d="M0 0L4.17541 23.7083L0.257388 36.9209L5.11916 23.6511L0 0Z" transform="translate(12.2117)" fill="url(#paint3_linear)"/>
<path d="M0 0L17.3308 7.26406H36.3775L53.7083 0.0285987L38.8084 7.86463L26.8827 10.4671L14.8427 7.86463L0 0Z" transform="translate(12.2117)" fill="url(#paint4_linear)"/>
<path d="M0.85796 14.2135L0 16.5872L17.9886 0L0.85796 14.2135Z" transform="translate(16.4728 9.4375)" fill="url(#paint5_linear)"/>
<path d="M17.0448 14.2421L0 0L17.8742 16.4728L17.0448 14.2421Z" transform="translate(43.756 9.4375)" fill="url(#paint6_linear)"/>
<path d="M0 0L41.8398 23.0791L47.1306 36.3203L35.9199 40.5815L18.4747 38.7798L0 13.327V0Z" transform="translate(0 53.4224)" fill="url(#paint7_linear)"/>
<path d="M16.1582 0L0.0571973 19.6187L0 19.6759L17.4166 25.51L17.4452 25.5386L31.0582 18.5605L31.0868 18.5319V8.20782L16.1582 0Z" transform="translate(18.4747 72.5264)" fill="white"/>
<path d="M17.0448 23.6511L22.164 0L7.26406 7.83603L0 9.40896L17.0448 23.6511Z" transform="translate(43.756 0.0288086)" fill="url(#paint8_linear)"/>
<path d="M4.71878 10.3813L0 5.20496L4.71878 0L9.46616 5.20496L4.71878 10.3813Z" transform="translate(34.347 47.5024)" fill="white"/>
<path d="M0 0L0.486177 0.114395L0.915157 0.0285987L0.457579 30.2002L0 0Z" transform="translate(38.6082 10.3525)" fill="url(#paint9_linear)"/>
<defs>
<linearGradient id="paint0_linear" x2="1" gradientUnits="userSpaceOnUse" gradientTransform="translate(39.1048 -21.2511) scale(57.1475 68.6105) rotate(112.483)">
<stop offset="0.1345" stop-color="#2B415B"/>
<stop offset="0.3762" stop-color="#3B5676"/>
<stop offset="0.6923" stop-color="#54769E"/>
<stop offset="0.7901" stop-color="#52749B"/>
<stop offset="0.8614" stop-color="#4D6C92"/>
<stop offset="0.9244" stop-color="#436082"/>
<stop offset="0.9822" stop-color="#364F6C"/>
<stop offset="1" stop-color="#314863"/>
</linearGradient>
<linearGradient id="paint1_linear" x2="1" gradientUnits="userSpaceOnUse" gradientTransform="translate(53.5948 36.6698) scale(63.6079 68.5529) rotate(-151.822)">
<stop stop-color="#54769E"/>
<stop offset="0.4802" stop-color="#53749C"/>
<stop offset="0.6878" stop-color="#4F6F95"/>
<stop offset="0.8423" stop-color="#486588"/>
<stop offset="0.9095" stop-color="#435F80"/>
</linearGradient>
<linearGradient id="paint2_linear" x2="1" gradientUnits="userSpaceOnUse" gradientTransform="translate(37.1578 18.4546) scale(54.9276 395.847) rotate(180)">
<stop offset="0.2539" stop-color="#20344C"/>
<stop offset="0.4072" stop-color="#273D57"/>
<stop offset="0.6733" stop-color="#395373"/>
<stop offset="1" stop-color="#54769E"/>
</linearGradient>
<linearGradient id="paint3_linear" x2="1" gradientUnits="userSpaceOnUse" gradientTransform="translate(-33.4685 18.4684) scale(56.786 409.557)">
<stop offset="0.2539" stop-color="#54769E"/>
<stop offset="0.4133" stop-color="#4D6E93"/>
<stop offset="0.6897" stop-color="#3C5777"/>
<stop offset="1" stop-color="#233850"/>
</linearGradient>
<linearGradient id="paint4_linear" x2="1" gradientUnits="userSpaceOnUse" gradientTransform="translate(27.3775 -21.9114) scale(239.166 46.6106) rotate(90.2691)">
<stop offset="0.00654525" stop-color="#54769E"/>
<stop offset="0.1993" stop-color="#507198"/>
<stop offset="0.4502" stop-color="#466488"/>
<stop offset="0.7318" stop-color="#354F6D"/>
<stop offset="1" stop-color="#21354D"/>
</linearGradient>
<linearGradient id="paint5_linear" x2="1" gradientUnits="userSpaceOnUse" gradientTransform="translate(33.0829 -15.8535) scale(66.6534 61.461) rotate(133.533)">
<stop offset="0.2539" stop-color="#54769E"/>
<stop offset="0.4102" stop-color="#4D6E93"/>
<stop offset="0.6813" stop-color="#3C5777"/>
<stop offset="1" stop-color="#22364E"/>
</linearGradient>
<linearGradient id="paint6_linear" x2="1" gradientUnits="userSpaceOnUse" gradientTransform="translate(-10.8684 -9.90781) scale(53.2361 49.0624) rotate(44.0556)">
<stop offset="0.2539" stop-color="#54769E"/>
<stop offset="0.4102" stop-color="#4D6E93"/>
<stop offset="0.6813" stop-color="#3C5777"/>
<stop offset="1" stop-color="#22364E"/>
</linearGradient>
<linearGradient id="paint7_linear" x2="1" gradientUnits="userSpaceOnUse" gradientTransform="translate(-9.1325 12.824) scale(88.8655 76.5171) rotate(22.5138)">
<stop offset="0.2664" stop-color="#54769E"/>
<stop offset="1" stop-color="#425E7F"/>
</linearGradient>
<linearGradient id="paint8_linear" x2="1" gradientUnits="userSpaceOnUse" gradientTransform="translate(-15.7976 -19.2301) scale(63.6527 67.9236) rotate(39.86)">
<stop offset="0.4609" stop-color="#54769E" stop-opacity="0.01"/>
<stop offset="0.5699" stop-color="#52739A" stop-opacity="0.2156"/>
<stop offset="0.6764" stop-color="#4A698E" stop-opacity="0.4266"/>
<stop offset="0.782" stop-color="#3D597B" stop-opacity="0.6356"/>
<stop offset="0.8863" stop-color="#2C435F" stop-opacity="0.8422"/>
<stop offset="0.9661" stop-color="#1B2E45"/>
</linearGradient>
<linearGradient id="paint9_linear" x2="1" gradientUnits="userSpaceOnUse" gradientTransform="translate(0.46041 89.3918) scale(3.84958 127.036) rotate(-90)">
<stop offset="0.2539" stop-color="#54769E"/>
<stop offset="0.4102" stop-color="#4D6E93"/>
<stop offset="0.6813" stop-color="#3C5777"/>
<stop offset="1" stop-color="#22364E"/>
</linearGradient>
</defs>
</svg>
