<svg width="347" height="80" viewBox="0 0 347 80" version="1.1" xmlns="http://www.w3.org/2000/svg" xmlns:xlink="http://www.w3.org/1999/xlink">
<title>Changelly</title>
<desc>Created using Figma</desc>
<g id="Canvas" transform="translate(-773 -2856)">
<g id="Changelly">
<g id="Group">
<g id="Vector">
<use xlink:href="#path0_fill" transform="translate(871.176 2869.25)"/>
</g>
<g id="Vector">
<use xlink:href="#path1_fill" transform="translate(773 2856)" fill="#10D078"/>
</g>
</g>
</g>
</g>
<defs>
<path id="path0_fill" fill-rule="evenodd" d="M -1.29336e-06 26.9087C -1.29336e-06 18.5842 6.49838 11.515 15.1077 11.515C 20.6959 11.515 24.1732 13.8539 26.9098 16.7619L 24.1167 19.7264C 21.7777 17.2725 19.0411 15.3937 15.0512 15.3937C 9.06545 15.3937 4.50245 20.4671 4.50245 26.9087C 4.50245 33.2938 9.17846 38.3672 15.3358 38.3672C 19.0976 38.3672 21.8927 36.4298 24.2297 33.9214L 27.1378 36.5994C 24.1712 39.909 20.6394 42.3024 15.1098 42.3024C 6.49838 42.3024 -1.29336e-06 35.2896 -1.29336e-06 26.9087ZM 32.0661 2.16133L 36.4555 2.61741e-07L 36.4555 17.2745C 38.3929 14.082 41.4726 11.515 46.5462 11.515C 53.6722 11.515 57.8356 16.3058 57.8356 23.3166L 57.8356 41.6183L 53.4462 41.6183L 53.4462 24.4002C 53.4462 18.9273 50.4795 15.5067 45.2929 15.5067C 40.2173 15.5067 36.4535 19.2118 36.4535 24.7433L 36.4535 41.6183L 32.0661 41.6183L 32.0661 2.16133ZM 62.9798 32.9527C 62.9798 26.6241 68.1099 23.3186 75.579 23.3186C 79.3429 23.3186 81.9644 23.8291 84.588 24.5718L 84.588 23.6596C 84.588 18.4127 81.3953 15.6782 75.8636 15.6782C 72.3864 15.6782 69.6498 16.5339 66.9132 17.7871L 65.6014 14.195C 68.8506 12.7117 71.9868 11.6865 76.3217 11.6865C 80.4831 11.6865 83.7323 12.8267 85.8433 14.9356C 87.8937 16.9879 88.9209 19.8395 88.9209 23.6031L 88.9209 41.6183L 84.586 41.6183L 84.586 37.227C 82.5335 39.8504 79.1693 42.2459 73.9807 42.2459C 68.451 42.2459 62.9778 39.1098 62.9778 32.9527L 62.9798 32.9527ZM 84.6445 30.7854L 84.6445 28.0489C 81.8501 27.2182 78.9504 26.7954 76.0351 26.7937C 70.562 26.7937 67.4258 29.1891 67.4258 32.8397C 67.4258 36.5449 70.8465 38.7123 74.8384 38.7123C 80.2551 38.7123 84.6465 35.4612 84.6465 30.7854L 84.6445 30.7854ZM 96.3396 12.1426L 100.731 12.1426L 100.731 17.2745C 102.668 14.0799 105.748 11.515 110.822 11.515C 117.948 11.515 122.111 16.3058 122.111 23.3166L 122.111 41.6183L 117.72 41.6183L 117.72 24.4002C 117.72 18.9273 114.755 15.5067 109.566 15.5067C 104.493 15.5067 100.731 19.2118 100.731 24.7433L 100.731 41.6183L 96.3396 41.6183L 96.3396 12.1406L 96.3396 12.1426ZM 128.981 46.7481L 130.977 43.3275C 134.341 45.7795 138.103 47.0912 142.323 47.0912C 148.821 47.0912 153.041 43.4991 153.041 36.6014L 153.041 33.1243C 150.476 36.5429 146.884 39.3379 141.469 39.3379C 134.398 39.3379 127.613 34.0364 127.613 25.4274C 127.613 16.8184 134.454 11.515 141.469 11.515C 146.999 11.515 150.591 14.2515 152.985 17.446L 152.985 12.1406L 157.374 12.1406L 157.374 36.4843C 157.374 41.0451 156.006 44.5242 153.612 46.9177C 150.989 49.5411 147.055 50.8529 142.379 50.8529C 137.475 50.8529 132.914 49.4826 128.981 46.7461L 128.981 46.7481ZM 153.156 25.3689C 153.156 19.3249 147.909 15.3937 142.323 15.3937C 136.734 15.3937 132.117 19.2683 132.117 25.4274C 132.117 31.3565 136.85 35.4612 142.323 35.4612C 147.909 35.4612 153.156 31.415 153.156 25.3709L 153.156 25.3689ZM 178.229 38.4822C 182.278 38.4822 185.129 36.8274 187.525 34.321L 190.261 36.7729C 187.295 40.0785 183.702 42.3024 178.116 42.3024C 170.02 42.3024 163.408 36.0868 163.408 26.9087C 163.408 18.3562 169.394 11.515 177.547 11.515C 186.27 11.515 191.289 18.4712 191.289 27.1367C 191.289 27.5363 191.289 27.9924 191.23 28.6765L 167.854 28.6765C 168.482 34.8921 173.043 38.4842 178.229 38.4842L 178.229 38.4822ZM 186.841 25.1429C 186.326 19.7809 183.248 15.2201 177.432 15.2201C 172.359 15.2201 168.482 19.4399 167.854 25.1409L 186.841 25.1409L 186.841 25.1429ZM 197.412 4.06233L 201.803 1.89899L 201.803 41.6183L 197.412 41.6183L 197.412 4.06233ZM 209.831 2.16133L 214.221 2.61741e-07L 214.221 41.6183L 209.831 41.6183L 209.831 2.16133ZM 220.041 49.4281L 221.522 45.951C 222.949 46.6916 224.259 47.0347 226.14 47.0347C 228.763 47.0347 230.418 45.6665 232.186 41.5052L 218.786 12.1426L 223.633 12.1426L 234.35 36.7144L 243.815 12.1426L 248.491 12.1426L 236.119 42.5869C 233.611 48.6875 230.759 50.9114 226.311 50.9114C 223.859 50.9114 222.037 50.3988 220.041 49.4281Z"/>
<path id="path1_fill" fill-rule="evenodd" d="M 68.6084 43.2912C 55.8437 54.5156 50.5199 55.5933 45.2364 53.1332L 51.0022 45.8481C 51.8577 44.7741 52.468 43.5261 52.7903 42.1914L 55.1152 32.4765L 45.3999 34.8033C 44.0676 35.1239 42.8215 35.7321 41.7491 36.5852L 34.4596 42.3548C 31.9975 37.0736 33.0752 31.748 44.302 18.9838C 54.9073 6.92393 77.353 4.15517 84.0047 3.59011C 83.4377 10.2396 80.6688 32.6843 68.6084 43.2912ZM 60.1121 60.6868C 60.0048 61.2263 59.6903 61.7023 59.2362 62.0127C 57.8881 62.9369 55.8175 64.2204 53.981 65.3324L 54.0698 64.9873C 54.9638 61.4799 54.9558 58.7737 54.0496 56.9332C 56.4653 56.1967 59.0808 54.8466 62.0414 52.8245C 61.323 55.5428 60.4955 58.7858 60.1101 60.6888L 60.1121 60.6868ZM 39.9207 54.3905C 39.5452 54.865 39.0617 55.2428 38.5106 55.4924C 37.9594 55.742 37.3565 55.8561 36.7522 55.8253L 36.7058 55.8233L 33.8057 55.8273L 43.8681 43.7231L 31.7614 53.7851L 31.7694 50.9295L 31.7654 50.8387C 31.7347 50.2347 31.8487 49.632 32.0979 49.0809C 32.3472 48.5299 32.7244 48.0463 33.1983 47.6704L 43.856 39.2349C 44.5415 38.6897 45.3376 38.3006 46.189 38.0947L 50.5381 37.0534L 49.4967 41.4023C 49.2949 42.2499 48.8993 43.0551 48.3524 43.7433L 39.9207 54.3925L 39.9207 54.3905ZM 22.6051 33.5218L 22.258 33.6106C 23.37 31.7742 24.6535 29.7037 25.5778 28.3576C 25.8874 27.9036 26.3628 27.5892 26.9017 27.4818C 28.8048 27.0984 32.0479 26.271 34.7664 25.5505C 32.7422 28.513 31.3941 31.1244 30.6595 33.546C 28.8189 32.6379 26.1126 32.6278 22.6031 33.5218L 22.6051 33.5218ZM 85.7585 0.0746682L 87.593 0L 87.5203 1.83441C 87.4699 3.07551 86.1177 32.3998 70.8445 45.8319C 69.4022 47.1056 67.9306 48.3457 66.4309 49.5512C 65.896 51.5006 64.0394 58.3358 63.4299 61.3568C 63.1493 62.759 62.3316 63.996 61.1514 64.8036C 58.1585 66.862 52.0052 70.4542 51.7429 70.6055L 47.2687 73.2149L 49.3393 68.4664C 50.6894 65.3586 52.0779 60.146 50.9336 58.2853C 50.748 57.9826 50.4372 57.6597 49.5613 57.6093L 49.5613 57.5972C 47.3615 57.5588 45.2526 56.9615 43.0871 55.8495L 42.5765 56.4953C 41.8708 57.3872 40.9631 58.0984 39.9282 58.5704C 38.8934 59.0423 37.7612 59.2614 36.6251 59.2096L 28.3648 59.2257L 28.383 50.9659C 28.3325 49.8299 28.5522 48.6982 29.0241 47.6636C 29.4959 46.6291 30.2065 45.7212 31.0974 45.0146L 31.7432 44.5061C 30.6292 42.3407 30.0278 40.2318 29.9915 38.0281L 29.9814 38.0281C 29.9289 37.1563 29.61 36.8456 29.3053 36.6579C 27.4446 35.5157 22.2317 36.9041 19.1238 38.2521L 14.3812 40.3146L 16.9846 35.8486C 17.138 35.5883 20.7303 29.4353 22.7867 26.4405C 23.5945 25.2596 24.8325 24.4418 26.2357 24.1621C 29.2569 23.5527 36.0963 21.6961 38.0418 21.1633C 39.2474 19.663 40.4875 18.1908 41.7612 16.7478C 55.1939 1.47519 84.5214 0.123101 85.7625 0.0746682L 85.7585 0.0746682ZM 41.3879 67.4634C 42.0634 66.8462 42.6908 66.1783 43.2647 65.4655C 42.4554 67.1325 41.2789 68.6117 39.9994 69.9759C 38.6948 71.3332 37.2521 72.5507 35.6947 73.6084C 34.1307 74.6748 32.4763 75.6019 30.7503 76.3792C 29.8906 76.7767 29.0066 77.1158 28.1207 77.4548C 27.2246 77.7555 26.3265 78.0663 25.4123 78.3104C 24.5042 78.591 23.5758 78.7685 22.6556 78.9905C 21.7272 79.156 20.7989 79.3679 19.8604 79.4749L 18.4558 79.6646L 17.0472 79.7977C 16.1067 79.8986 15.1663 79.9148 14.2238 79.9652C 10.458 80.1025 6.69818 79.824 2.99693 79.2952L 0 78.8654L 1.93135 76.5709C 3.78198 74.3732 5.40859 72.0948 6.71836 69.5925C 8.04629 67.1002 9.11994 64.4061 10.1573 61.6757C 11.1893 58.8673 12.4327 56.1412 13.8767 53.5207C 14.6032 52.215 15.3761 50.9376 16.2096 49.7046C 17.0371 48.4675 17.9129 47.2627 18.8877 46.1427C 17.5238 48.7456 16.309 51.4238 15.249 54.1645C 14.1975 56.8806 13.2841 59.6482 12.5124 62.4566C 11.7052 65.3162 10.7647 68.1818 9.46504 70.9668C 8.80793 72.3599 8.05959 73.7082 7.22491 75.0029C 6.93632 75.4468 6.63764 75.8787 6.3329 76.3065C 8.93213 76.5644 11.5433 76.6836 14.1552 76.6637C 15.0432 76.6375 15.9372 76.6435 16.8211 76.5749L 18.1531 76.5043L 19.481 76.3772L 20.145 76.3146L 20.8029 76.2278L 22.1228 76.0563C 22.9946 75.8989 23.8765 75.7738 24.7383 75.572C 28.2251 74.8656 31.5995 73.6877 34.7684 72.0706C 36.3445 71.2432 37.8803 70.3048 39.3092 69.207C 40.0357 68.6722 40.7259 68.083 41.3879 67.4634ZM 66.001 30.5129C 67.173 30.5146 68.3338 30.2848 69.4168 29.8366C 70.4998 29.3885 71.4836 28.7309 72.3117 27.9016C 73.9826 26.2264 74.9209 23.9571 74.9209 21.5911C 74.9209 19.2252 73.9826 16.9558 72.3117 15.2807C 70.6367 13.6094 68.3672 12.6708 66.001 12.6708C 63.6348 12.6708 61.3652 13.6094 59.6903 15.2807C 58.859 16.1075 58.2 17.0909 57.7514 18.1741C 57.3028 19.2573 57.0735 20.4187 57.0768 21.5911C 57.0768 23.9724 58.0052 26.2165 59.6903 27.9016C 60.5186 28.7305 61.5024 29.3878 62.5854 29.8356C 63.6684 30.2833 64.8291 30.5128 66.001 30.5109L 66.001 30.5129ZM 62.0858 17.6741C 62.5998 17.1599 63.2102 16.7523 63.8821 16.4746C 64.5539 16.1968 65.274 16.0545 66.001 16.0556C 66.7283 16.0545 67.4486 16.1969 68.1208 16.4747C 68.793 16.7524 69.4038 17.16 69.9182 17.6741C 70.9551 18.714 71.5374 20.1226 71.5374 21.5911C 71.5374 23.0596 70.9551 24.4682 69.9182 25.5082C 68.8786 26.5449 67.4702 27.1271 66.002 27.1271C 64.5338 27.1271 63.1254 26.5449 62.0858 25.5082C 61.5699 24.9953 61.1609 24.3852 60.8824 23.7132C 60.6039 23.0411 60.4614 22.3206 60.4632 21.5931C 60.4632 20.1119 61.0384 18.7215 62.0858 17.6741Z"/>
</defs>
</svg>
