<svg width="59" height="47" viewBox="0 0 59 47" fill="none" xmlns="http://www.w3.org/2000/svg">
<path d="M23.8661 36.8447L23.8662 36.8448L36.6005 45.7105L36.8389 45.8764L36.8362 45.586L36.7606 37.2624C36.758 36.9827 36.984 36.7546 37.2639 36.7546H44.1524C44.2576 36.7546 44.3602 36.7875 44.4458 36.8489L48.6031 39.8296L48.8405 39.9999V39.7077V31.5415C48.8405 31.2636 49.0659 31.0382 49.3438 31.0382H56.0401C57.2053 31.0382 58.15 30.0936 58.15 28.9284V2.95989C58.15 1.79462 57.2053 0.85 56.0401 0.85H15.6991C14.5339 0.85 13.5893 1.79463 13.5893 2.95989V6.06304C13.5893 6.34099 13.3639 6.56633 13.086 6.56633H2.95989C1.79463 6.56633 0.85 7.51096 0.85 8.67622V34.6447C0.85 35.8099 1.79462 36.7546 2.95989 36.7546H23.5787C23.6815 36.7546 23.7819 36.7861 23.8661 36.8447ZM51.6175 9.49284V9.34284H51.4675H22.7226H22.5726V9.49284V11.616V11.766H22.7226H51.4675H51.6175V11.616V9.49284ZM22.7226 14.3242H22.5726V14.4742V16.5974V16.7474H22.7226H51.4675H51.6175V16.5974V14.4742V14.3242H51.4675H22.7226ZM44.9213 19.4556V19.3056H44.7713H22.7226H22.5726V19.4556V21.5788V21.7288H22.7226H44.7713H44.9213V21.5788V19.4556ZM3.63583 8.33628H13.5893V15.0592H10.1313H9.9813V15.2092V17.3324V17.4824H10.1313H13.5893V20.0405H10.2978H10.1478V20.1905V22.3138V22.4638H10.2978H13.5893V28.6017C13.5893 29.9474 14.6802 31.0382 16.0258 31.0382H36.1764L41.7671 34.9847H35.6041C35.2506 34.9847 34.9641 35.2712 34.9641 35.6246V42.3583L24.6681 35.1016L24.668 35.1015C24.5602 35.0257 24.4314 34.9847 24.2994 34.9847H3.63583C3.072 34.9847 2.61991 34.5372 2.61991 33.9914V9.32955C2.61991 8.78376 3.072 8.33628 3.63583 8.33628ZM55.3873 2.61991C55.9359 2.61991 56.3806 3.06461 56.3806 3.61318V28.2751C56.3806 28.8236 55.9359 29.2683 55.3873 29.2683H47.7111C47.3576 29.2683 47.0711 29.5548 47.0711 29.9083V36.6387L36.9841 29.3887C36.8752 29.3104 36.7446 29.2683 36.6106 29.2683H16.3529C15.8043 29.2683 15.3596 28.8236 15.3596 28.2751V3.61318C15.3596 3.06461 15.8043 2.61991 16.3529 2.61991H55.3873Z" fill="#17254B" stroke="#182848" stroke-width="0.3"/>
</svg>
