<svg width="57" height="88" viewBox="0 0 57 88" fill="none" xmlns="http://www.w3.org/2000/svg">
<path d="M7.15444 14.4748H6.91672C4.29418 14.4748 2.16114 12.3012 2.16114 9.63116C2.16114 6.96116 4.29526 4.78751 6.91672 4.78751C9.53818 4.78751 11.6723 6.96116 11.6723 9.63116C11.6723 10.2398 12.1564 10.7317 12.7529 10.7317C13.3493 10.7317 13.8334 10.2398 13.8334 9.63116C13.8334 6.12251 11.2984 3.21149 7.99729 2.68101V1.10058C7.99729 0.491957 7.5132 -1.0412e-06 6.91672 -1.0412e-06C6.32025 -1.0412e-06 5.83615 0.491957 5.83615 1.10058V2.68101C2.53502 3.21259 5.93574e-07 6.12251 5.93574e-07 9.63116C5.93574e-07 13.5151 3.10339 16.676 6.91672 16.676H7.15444C9.77698 16.676 11.91 18.8496 11.91 21.5196C11.91 24.1896 9.7759 26.3632 7.15444 26.3632C4.53298 26.3632 2.39886 24.1896 2.39886 21.5196C2.39886 20.911 1.91477 20.419 1.3183 20.419C0.721822 20.419 0.237727 20.911 0.237727 21.5196C0.237727 24.9446 2.65172 27.8039 5.83723 28.4323V29.8708C5.83723 30.4794 6.32133 30.9714 6.9178 30.9714C7.51428 30.9714 7.99837 30.4794 7.99837 29.8708V28.5061C11.4151 28.0801 14.0722 25.1119 14.0722 21.5185C14.0712 17.6357 10.9678 14.4748 7.15444 14.4748Z" transform="translate(21.3652 12.8492)" fill="#182848"/>
<path d="M56.4057 27.9965L51.1671 25.3243L55.3381 21.1333C55.6298 20.8405 55.7336 20.4058 55.6071 20.0096C55.4807 19.6134 55.1457 19.3228 54.7405 19.2612L48.9476 18.3675L51.6436 13.0705C51.8316 12.7007 51.7992 12.2549 51.5583 11.9171C51.3184 11.5803 50.911 11.4086 50.5079 11.479L44.728 12.453L45.6843 6.56495C45.7513 6.15443 45.5838 5.73951 45.2531 5.49518C44.9225 5.24866 44.4838 5.21564 44.1207 5.40824L38.9199 8.15418L38.0425 2.25508C37.9809 1.84347 37.6967 1.50119 37.3077 1.37242C36.9176 1.24145 36.4919 1.34931 36.2045 1.64646L32.0907 5.89359L29.4671 0.557993C29.1008 -0.185998 27.9014 -0.185998 27.5351 0.557993L24.9114 5.89359L20.7966 1.64646C20.5092 1.34931 20.0813 1.24255 19.6934 1.37242C19.3044 1.50119 19.0202 1.84347 18.9586 2.25508L18.0822 8.15418L12.8804 5.40824C12.5184 5.21564 12.0797 5.24866 11.7479 5.49518C11.4173 5.73951 11.2509 6.15443 11.3168 6.56495L12.2731 12.453L6.49314 11.479C6.09225 11.4097 5.68271 11.5814 5.44282 11.9171C5.20186 12.2549 5.16944 12.7007 5.35746 13.0705L8.05348 18.3675L2.26163 19.2612C1.85642 19.3228 1.52144 19.6123 1.39501 20.0085C1.26859 20.4047 1.37232 20.8405 1.66408 21.1322L5.83507 25.3232L0.596473 27.9954C0.231241 28.1825 -7.74944e-07 28.5633 -7.74944e-07 28.9804C-7.74944e-07 29.3975 0.231241 29.7783 0.596473 29.9654L5.83507 32.6376L1.66408 36.8275C1.37232 37.1203 1.26859 37.555 1.39501 37.9512C1.52144 38.3474 1.85642 38.6369 2.26055 38.6996L8.05348 39.5933L5.35746 44.8915C5.16944 45.2613 5.20186 45.707 5.44282 46.0449C5.68379 46.3828 6.09333 46.5577 6.49314 46.4829L12.2731 45.5089L11.3168 51.3959C11.2498 51.8064 11.4173 52.2213 11.7479 52.4656C12.0797 52.7122 12.5173 52.7441 12.8804 52.5526L18.0822 49.8077L18.9586 55.7068C19.0202 56.1185 19.3044 56.4607 19.6934 56.5895C20.0802 56.7172 20.5081 56.6126 20.7966 56.3155L24.9114 52.0672L27.4205 57.1706V85.7988H24.3603C23.7639 85.7988 23.2798 86.2908 23.2798 86.8994C23.2798 87.508 23.7639 88 24.3603 88H32.6429C33.2394 88 33.7235 87.508 33.7235 86.8994C33.7235 86.2908 33.2394 85.7988 32.6429 85.7988H29.5817V57.1695L32.0907 52.0661L36.2045 56.3144C36.4919 56.6115 36.9187 56.7172 37.3077 56.5884C37.6967 56.4596 37.9809 56.1185 38.0425 55.7057L38.9199 49.8066L44.1207 52.5515C44.4849 52.7441 44.9225 52.7111 45.2531 52.4645C45.5838 52.2202 45.7502 51.8053 45.6843 51.3948L44.728 45.5078L50.5079 46.4818C50.9121 46.5555 51.3184 46.3805 51.5583 46.0438C51.7992 45.7059 51.8316 45.2602 51.6436 44.8904L48.9476 39.5922L54.7405 38.6985C55.1447 38.6358 55.4796 38.3474 55.6061 37.9501C55.7325 37.555 55.6288 37.1192 55.337 36.8264L51.166 32.6365L56.4035 29.9643C56.7688 29.7772 57 29.3964 57 28.9793C57 28.5622 56.7709 28.1836 56.4057 27.9965ZM48.8503 31.3577C48.5381 31.5172 48.3209 31.8199 48.2668 32.1699C48.2128 32.5199 48.3274 32.8765 48.5759 33.1252L52.2855 36.8517L47.1333 37.6464C46.7886 37.6992 46.4904 37.9182 46.3326 38.2341C46.1749 38.5499 46.1759 38.9252 46.3359 39.24L48.7326 43.9516L43.5923 43.0854C43.2498 43.0271 42.8975 43.1416 42.6522 43.3925C42.4058 43.6434 42.2935 44 42.3496 44.35L43.2001 49.5854L38.5741 47.1443C38.264 46.9804 37.8966 46.9793 37.5865 47.141C37.2764 47.3017 37.0613 47.6055 37.0084 47.9566L36.2282 53.203L32.5694 49.4247C32.3252 49.1727 31.9794 49.0506 31.6315 49.1111C31.2868 49.1661 30.9907 49.3873 30.834 49.7043L28.5 54.45L26.1671 49.7043C26.0104 49.3873 25.7143 49.1661 25.3696 49.1111C25.3134 49.1012 25.2572 49.0968 25.201 49.0968C24.9136 49.0968 24.637 49.2123 24.4317 49.4247L20.7729 53.203L19.9938 47.9566C19.9419 47.6055 19.7258 47.3017 19.4157 47.141C19.1045 46.9793 18.7371 46.9804 18.428 47.1443L13.8021 49.5854L14.6525 44.35C14.7087 44 14.5963 43.6423 14.35 43.3925C14.1036 43.1405 13.7513 43.0271 13.4099 43.0854L8.26959 43.9516L10.6663 39.24C10.8262 38.9252 10.8284 38.5499 10.6695 38.2341C10.5107 37.9182 10.2135 37.6992 9.86883 37.6464L4.71668 36.8517L8.42627 33.1252C8.67372 32.8754 8.78935 32.5199 8.73532 32.1699C8.68021 31.8199 8.46409 31.5161 8.15181 31.3577L3.49348 28.9815L8.15181 26.6054C8.46409 26.4458 8.68021 26.1431 8.73532 25.7931C8.78935 25.4432 8.67481 25.0866 8.42627 24.8378L4.71668 21.1113L9.86775 20.3167C10.2125 20.2638 10.5107 20.0448 10.6695 19.729C10.8284 19.4131 10.8262 19.0378 10.6663 18.723L8.26959 14.0115L13.4099 14.8776C13.7513 14.9326 14.1036 14.8215 14.35 14.5705C14.5963 14.3196 14.7087 13.963 14.6525 13.613L13.8021 8.3765L18.428 10.8187C18.7371 10.9827 19.1055 10.9838 19.4157 10.822C19.7258 10.6613 19.9408 10.3575 19.9938 10.0065L20.7729 4.7589L24.4317 8.53718C24.677 8.78921 25.0271 8.91028 25.3696 8.85085C25.7143 8.79582 26.0104 8.5746 26.1671 8.25764L28.5 3.51194L30.834 8.25764C30.9907 8.5746 31.2868 8.79582 31.6315 8.85085C31.9794 8.91028 32.3252 8.78921 32.5694 8.53718L36.2282 4.7589L37.0084 10.0065C37.0603 10.3575 37.2764 10.6624 37.5865 10.822C37.8977 10.9849 38.2662 10.9827 38.5741 10.8187L43.2001 8.3765L42.3496 13.613C42.2935 13.963 42.4058 14.3207 42.6522 14.5705C42.8986 14.8226 43.2498 14.9326 43.5923 14.8776L48.7326 14.0115L46.3359 18.723C46.1759 19.0378 46.1738 19.4131 46.3326 19.729C46.4915 20.0448 46.7897 20.2638 47.1344 20.3167L52.2855 21.1113L48.5759 24.8378C48.3284 25.0877 48.2128 25.4432 48.2668 25.7931C48.3219 26.1431 48.5381 26.4469 48.8503 26.6054L53.5087 28.9815L48.8503 31.3577Z" fill="#182848"/>
</svg>
