<svg width="55" height="55" viewBox="0 0 55 55" fill="none" xmlns="http://www.w3.org/2000/svg">
<path d="M45.1926 1.16021C44.3304 0.303305 43.1501 -0.110847 41.9323 0.0255539C39.2514 0.326406 36.9853 1.33126 35.3477 2.96312L28.8288 9.96741L6.51885 5.41393C6.3747 5.38643 2.95591 4.79298 0.636214 7.10244C0.380495 7.35709 0.267272 7.72175 0.333549 8.0754C0.399826 8.4296 0.638424 8.7288 0.969256 8.87345L15.6982 15.3327L21.1506 18.2169L13.072 26.897C12.8765 27.0918 12.7229 27.3266 12.6202 27.5862L11.6327 28.9854H2.85539C2.56487 28.9854 2.28541 29.1004 2.07995 29.3055L0.321399 31.0567C0.083906 31.2932 -0.0320786 31.6254 0.00768758 31.9571C0.0474538 32.2898 0.237448 32.5852 0.524096 32.7601L6.42717 36.3631L6.13002 36.7839C6.05767 36.8873 6.00299 37.0017 5.96985 37.1233C5.74506 37.9389 6.01404 38.8541 6.67294 39.5103C7.17775 40.0135 7.83555 40.288 8.48451 40.288C8.68169 40.288 8.87886 40.2621 9.06996 40.211C9.19147 40.1769 9.3069 40.1235 9.41018 40.0509L9.80674 39.7737L13.3515 45.5339C13.5271 45.8188 13.8237 46.0086 14.1573 46.0482C14.2009 46.0537 14.2434 46.0559 14.2865 46.0559C14.5759 46.0559 14.8554 45.942 15.062 45.7357L16.8205 43.9845C17.026 43.7799 17.1419 43.5027 17.1419 43.2123V34.6405L18.647 33.5873C18.9049 33.4861 19.1363 33.3376 19.312 33.1627L28.0915 24.9885L31.1093 30.6426L37.6315 45.3821C37.7773 45.7115 38.0772 45.9486 38.4323 46.0146C38.4997 46.0273 38.5671 46.0338 38.6345 46.0338C38.9228 46.0338 39.2022 45.9205 39.4099 45.7137C41.7296 43.4048 41.1309 39.9981 41.1 39.8331L36.444 17.212L43.3031 10.826C45.0015 9.13525 46.0492 6.91544 46.3342 4.40633C46.4706 3.20072 46.0542 2.01766 45.1926 1.16021ZM16.6554 13.3692L3.791 7.7245C4.97846 7.37359 6.09854 7.55784 6.10075 7.55784L27.0851 11.8413L22.6932 16.5597L16.6554 13.3692ZM2.85594 31.6221L3.30939 31.17H10.0912L7.69029 34.5729L2.85594 31.6221ZM14.9482 42.7597L14.4947 43.2107L11.6045 38.5153L14.9482 36.1756V42.7597V42.7597ZM38.9471 40.2456C38.9504 40.2616 39.1376 41.3869 38.7852 42.5716L33.081 29.6905L29.7506 23.4441L34.5662 18.9611L38.9471 40.2456ZM44.1542 4.16158C43.9272 6.17349 43.096 7.94395 41.7799 9.2557L17.8511 31.5528C17.7296 31.5858 17.6153 31.6403 17.5125 31.7118L15.6684 33.0021C15.4928 33.0664 15.3447 33.1742 15.2243 33.3128L9.67363 37.1964C9.62834 37.2162 9.58029 37.2195 9.53666 37.2459C9.45381 37.2965 9.39582 37.3686 9.33175 37.4351L8.40167 38.0863C8.35196 38.0671 8.28789 38.0297 8.22382 37.9659C8.16031 37.9021 8.1222 37.8377 8.10232 37.7888L14.5041 28.7159C14.577 28.6125 14.6184 28.5333 14.6516 28.4118L36.9278 4.47728C38.181 3.22932 39.997 2.44007 42.1786 2.19532C42.7182 2.13647 43.2551 2.32017 43.6417 2.70462C44.0289 3.09017 44.215 3.62092 44.1542 4.16158Z" transform="translate(8.64038)" fill="#253452"/>
<path d="M13.9441 0.320101C13.5155 -0.106701 12.8218 -0.106701 12.3932 0.320101L0.321443 12.3415C-0.107148 12.7683 -0.107148 13.4591 0.321443 13.8859C0.535739 14.0993 0.816311 14.206 1.09688 14.206C1.37746 14.206 1.65803 14.0993 1.87232 13.8859L13.9447 1.86396C14.3727 1.43771 14.3727 0.746354 13.9441 0.320101Z" transform="translate(0 40.2352)" fill="#253452"/>
<path d="M1.09688 9.99025C1.37746 9.99025 1.65803 9.88355 1.87232 9.67015L9.71068 1.86451C10.1393 1.43771 10.1393 0.746904 9.71068 0.320102C9.28209 -0.1067 8.58839 -0.1067 8.1598 0.320102L0.321443 8.12574C-0.107148 8.55255 -0.107148 9.24335 0.321443 9.67015C0.535739 9.88355 0.816312 9.99025 1.09688 9.99025Z" transform="translate(0.166748 36.1855)" fill="#253452"/>
<path d="M8.66848 0.320103L0.321444 8.6323C-0.107148 9.0591 -0.107148 9.7499 0.321444 10.1767C0.535739 10.3901 0.816312 10.4968 1.09688 10.4968C1.37746 10.4968 1.65803 10.3901 1.87232 10.1767L10.2188 1.86451C10.6474 1.43771 10.6474 0.746905 10.2188 0.320103C9.79077 -0.1067 9.09652 -0.1067 8.66848 0.320103Z" transform="translate(8.01172 44.5032)" fill="#253452"/>
</svg>
