<svg width="25" height="25" viewBox="0 0 25 25" fill="none" xmlns="http://www.w3.org/2000/svg">
<path fill-rule="evenodd" clip-rule="evenodd" d="M12.006 0C5.37524 0 0 5.28821 0 11.8115C0 18.3348 5.37524 23.623 12.006 23.623C18.6366 23.623 24.0118 18.3348 24.0118 11.8115C24.0118 5.28821 18.6366 0 12.006 0ZM11.6716 10.0093L11.6465 9.60059C11.5708 8.54126 12.2343 7.57373 13.2841 7.19836C13.6703 7.06494 14.3253 7.04822 14.7537 7.16504C14.9216 7.21509 15.2407 7.38184 15.4675 7.53198L15.879 7.80725L16.3325 7.66541C16.5844 7.59033 16.9203 7.46533 17.0715 7.38184C17.2142 7.30676 17.3402 7.26514 17.3402 7.29016C17.3402 7.43188 17.0295 7.91565 16.7692 8.18262C16.4165 8.55798 16.5172 8.59131 17.2311 8.34106C17.6593 8.19934 17.6677 8.19934 17.5837 8.35779C17.5333 8.44116 17.2731 8.73315 16.9958 9C16.5256 9.45874 16.5005 9.50879 16.5005 9.89246C16.5005 10.4847 16.2148 11.7191 15.9293 12.3948C15.4003 13.6626 14.2666 14.9722 13.1328 15.6311C11.5372 16.5569 9.4126 16.7904 7.6239 16.2483C7.02759 16.0648 6.00305 15.5977 6.00305 15.5143C6.00305 15.4893 6.31372 15.4559 6.69165 15.4475C7.48108 15.4309 8.27051 15.214 8.94226 14.8303L9.39575 14.5635L8.87512 14.3883C8.13611 14.1381 7.47266 13.5625 7.30469 13.0204C7.25439 12.8452 7.27112 12.8368 7.74146 12.8368L8.22852 12.8285L7.81702 12.6367C7.32996 12.3948 6.88489 11.9861 6.6665 11.569C6.50696 11.2688 6.30542 10.5098 6.36414 10.4513C6.38098 10.4263 6.55737 10.4763 6.75891 10.5431C7.33838 10.7516 7.41394 10.7015 7.078 10.3512C6.44812 9.71729 6.255 8.77478 6.55737 7.88232L6.70007 7.48193L7.25439 8.02417C8.38806 9.11682 9.72327 9.76733 11.2517 9.95923L11.6716 10.0093Z" transform="translate(0.311523 0.694824)" fill="white"/>
</svg>
