<svg width="25" height="23" viewBox="0 0 25 23" fill="none" xmlns="http://www.w3.org/2000/svg">
<g style="mix-blend-mode:overlay">
<path fill-rule="evenodd" clip-rule="evenodd" d="M12.0227 23C18.6627 23 24.0455 17.8513 24.0455 11.5C24.0455 5.14873 18.6627 0 12.0227 0C5.38276 0 0 5.14873 0 11.5C0 17.8513 5.38276 23 12.0227 23ZM13.6224 19.1957C14.8648 19.0997 16.4341 18.4598 17.513 17.4358C19.6381 15.3879 19.7035 11.9001 17.6111 9.82027C16.7283 8.98832 15.6168 8.47635 14.4071 8.31636C12.7397 8.12437 11.105 8.63634 9.92803 9.78827C8.29334 11.3562 7.83563 13.756 8.84914 15.7719C8.97991 16.0599 9.01261 16.4119 8.88183 16.7319C8.68567 17.2758 8.19526 17.8838 7.73755 18.3318L7.73756 18.3318C8.68568 18.6837 9.6338 19.0357 10.9415 19.1957C11.8243 19.2917 12.7397 19.2917 13.6224 19.1957ZM16.2052 6.87644C17.1534 7.22842 18.0361 7.77239 18.7881 8.50835C21.6324 11.2922 21.5997 15.7719 18.7881 18.5237C17.4476 19.7717 15.7148 20.6996 13.9821 20.8276C12.9032 20.9556 11.857 20.9236 10.8435 20.7956C7.08367 20.3476 4.272 18.6197 4.272 18.6197C4.272 18.6197 6.3971 18.1718 7.05098 16.5079C7.05098 16.4963 6.91741 16.4129 6.72535 16.2932C6.38836 16.083 5.8713 15.7605 5.57975 15.5159C2.63731 13.0841 2.31037 8.76433 4.8278 5.9165C5.97208 4.60458 7.57408 3.61264 9.24146 3.35665C14.2109 2.42871 18.7227 4.73257 18.7227 4.73257C18.7227 4.73257 16.761 5.30854 16.2052 6.87644Z" fill="white"/>
</g>
</svg>
