<svg width="26" height="25" viewBox="0 0 26 25" fill="none" xmlns="http://www.w3.org/2000/svg">
<path fill-rule="evenodd" clip-rule="evenodd" d="M25.4155 12.859C25.6074 5.66536 19.6675 -0.157399 12.4188 0.00324603C5.66125 0.153637 0.0418701 5.54829 0 12.4965C0.0345459 19.4549 5.68628 24.9312 12.5577 24.9992C19.7697 25.0709 25.2405 19.4166 25.4155 12.859ZM22.6672 10.1652C22.7489 11.0239 22.3401 11.6596 21.6666 12.1508C21.5056 12.2687 21.4556 12.3677 21.4835 12.5732C21.6946 14.1081 21.2402 15.4536 20.2146 16.6108C18.9213 18.0698 17.2412 18.8662 15.3546 19.285C14.0437 19.5765 12.7167 19.6387 11.3822 19.4738C9.85657 19.285 8.40161 18.8726 7.08997 18.0582C5.94006 17.345 4.99451 16.4416 4.44458 15.1903C4.05786 14.3106 3.95776 13.3963 4.11804 12.4538C4.13501 12.3526 4.11365 12.2969 4.02026 12.2354C3.44983 11.8593 3.03589 11.3638 2.9292 10.6788C2.65796 8.93635 4.23279 7.87593 5.5592 8.22163C5.8385 8.29438 6.10327 8.42378 6.36719 8.55268C6.46533 8.60054 6.56335 8.64839 6.66199 8.69331C6.75098 8.7331 6.81055 8.75984 6.90759 8.69477C7.9707 7.98079 9.14124 7.5135 10.3992 7.25166C11.1006 7.10627 11.8079 7.00642 12.5255 7.01081C12.6681 7.01155 12.6953 6.93562 12.7284 6.8321C12.9844 6.02998 13.2418 5.22786 13.4991 4.42561L13.8798 3.23872C14.0157 2.8133 14.2224 2.69404 14.6643 2.7873C14.9536 2.84809 15.243 2.90864 15.5323 2.96919C16.3068 3.13105 17.0809 3.29304 17.8545 3.46003C17.9854 3.48823 18.0603 3.46431 18.1493 3.36311C19.0514 2.33088 20.452 2.80244 20.902 3.59089C21.4652 4.57759 20.8344 5.8094 19.672 5.99385C18.8264 6.12764 17.9897 5.60029 17.7633 4.77351C17.7155 4.59846 17.6324 4.5406 17.4633 4.50666C16.8811 4.39009 16.3004 4.26619 15.7195 4.14216C15.4825 4.09162 15.2455 4.04097 15.0083 3.99092C14.9653 3.98176 14.9216 3.97554 14.873 3.96858C14.8485 3.96504 14.8228 3.96138 14.7952 3.95698L14.52 4.79902C14.2698 5.56465 14.0195 6.33027 13.7651 7.11067L14.0123 7.13606L14.3297 7.16853C15.9325 7.32832 17.4177 7.81807 18.7661 8.69258C18.8514 8.74751 18.9021 8.74458 18.9852 8.67805C19.7124 8.0937 20.5233 7.98945 21.3711 8.35762C22.1548 8.69831 22.5879 9.32405 22.6672 10.1652Z" transform="translate(0.347168)" fill="white"/>
<path d="M2.6858 1.33889C2.68875 2.03184 2.05645 2.65173 1.34548 2.65246C0.605832 2.65318 0.000735882 2.04124 6.49607e-07 1.29043C-0.000734583 0.603266 0.622742 0.00218035 1.33812 1.03643e-05C2.07483 -0.00288295 2.68213 0.600373 2.6858 1.33889Z" transform="translate(14.8416 10.8756)" fill="white"/>
<path d="M6.79542 0.192536C6.93732 0.330692 6.97702 0.539734 6.82262 0.715503C6.64175 0.920205 6.42706 1.11116 6.19179 1.25004C5.54846 1.63051 4.83749 1.82364 4.09197 1.89091C3.87875 1.91044 3.66627 1.92201 3.5354 1.93142C2.33623 1.9184 1.29956 1.65221 0.377574 1.01568C0.269495 0.941181 0.168033 0.847149 0.0923037 0.742266C-0.0415086 0.555647 -0.0245983 0.327076 0.109214 0.19543C0.312873 -0.00637893 0.578292 -0.048332 0.790039 0.0724639C1.07457 0.235936 1.35249 0.418938 1.65467 0.542627C3.12955 1.14661 4.55296 1.0193 5.91534 0.204833C5.99328 0.15854 6.0668 0.102844 6.14547 0.057274C6.34398 -0.0541186 6.59837 0.000131031 6.79542 0.192536Z" transform="translate(9.68201 15.3254)" fill="white"/>
<path d="M2.6961 1.33599C2.69904 2.00579 2.05865 2.651 1.39033 2.65245C0.631567 2.65389 0.00220832 2.05425 2.62357e-06 1.32875C-0.00146784 0.611936 0.615392 0 1.3396 0C2.07336 0 2.69316 0.609766 2.6961 1.33599Z" transform="translate(8.74426 10.8749)" fill="white"/>
</svg>
