<svg width="26" height="25" viewBox="0 0 26 25" fill="none" xmlns="http://www.w3.org/2000/svg">
<path fill-rule="evenodd" clip-rule="evenodd" d="M8.43308 8.14932L9.06702 5.6431C9.13968 5.66095 9.22867 5.68031 9.32944 5.7023C10.2264 5.89805 12.0633 6.29874 11.7272 7.62844C11.398 8.92811 9.50858 8.43114 8.64217 8.20323C8.56342 8.18261 8.49308 8.16407 8.43308 8.14932ZM7.41381 12.1774L8.11316 9.41411C8.20001 9.43546 8.30605 9.459 8.42616 9.4855C9.50089 9.72318 11.7032 10.2104 11.3332 11.6725C10.9721 13.1029 8.70048 12.5114 7.66171 12.2408C7.56832 12.2165 7.48493 12.1949 7.41381 12.1774ZM14.2429 7.65099C14.0757 8.76535 13.4489 9.30489 12.6168 9.494C13.7594 10.0803 14.3408 10.9795 13.787 12.5383C13.0996 14.4742 11.4667 14.6376 9.29514 14.2326L8.76809 16.3144L7.49463 16.0016L8.01477 13.9476C7.68466 13.8668 7.34739 13.781 6.99991 13.688L6.47795 15.7517L5.20596 15.4388L5.73293 13.353C5.43551 13.278 5.13342 13.1983 4.82511 13.1221L3.16785 12.7149L3.80005 11.278C3.80005 11.278 4.73839 11.524 4.72568 11.5058C5.08621 11.5937 5.24616 11.362 5.30928 11.2076L6.14214 7.91662C6.18892 7.9277 6.23422 7.93912 6.27667 7.94952C6.22583 7.92949 6.17984 7.91662 6.1443 7.90767L6.73837 5.55844C6.75401 5.29169 6.66081 4.95532 6.145 4.82834C6.16497 4.81513 5.22014 4.60173 5.22014 4.60173L5.55889 3.26102L7.31514 3.69327L7.31367 3.69966C7.57771 3.76443 7.84971 3.82587 8.12682 3.88808L8.64877 1.82664L9.92154 2.13949L9.41013 4.16045C9.75182 4.23741 10.0957 4.31496 10.4304 4.3972L10.9382 2.38937L12.2117 2.70222L11.6902 4.76434C13.2979 5.31027 14.4739 6.12866 14.2429 7.65099V7.65099ZM9.07158 0C4.06151 0 0 4.00332 0 8.94178C0 13.8802 4.06151 17.8836 9.07158 17.8836C14.0817 17.8836 18.1432 13.8802 18.1432 8.94178C18.1432 4.00332 14.0817 0 9.07158 0V0Z" transform="matrix(0.971209 -0.238229 0.245665 0.969355 2.16309 5.83728)" fill="white"/>
<path fill-rule="evenodd" clip-rule="evenodd" d="M0 12.3439C0 19.1613 5.61755 24.6879 12.5471 24.6879C19.4767 24.6879 25.0941 19.1613 25.0941 12.3439C25.0941 5.52661 19.4767 0 12.5471 0C5.61755 0 0 5.52661 0 12.3439ZM24.1035 12.3439C24.1035 18.623 18.9294 23.7133 12.547 23.7133C6.16455 23.7133 0.990479 18.623 0.990479 12.3439C0.990479 6.0647 6.16455 0.974487 12.547 0.974487C18.9294 0.974487 24.1035 6.0647 24.1035 12.3439Z" transform="translate(0.623169 0.00012207)" fill="white"/>
</svg>
