<svg width="25" height="25" viewBox="0 0 25 25" fill="none" xmlns="http://www.w3.org/2000/svg">
<path fill-rule="evenodd" clip-rule="evenodd" d="M12.006 0C5.37524 0 0 5.28821 0 11.8115C0 18.3348 5.37524 23.623 12.006 23.623C18.6366 23.623 24.0118 18.3348 24.0118 11.8115C24.0118 5.28821 18.6366 0 12.006 0ZM12.8571 11.9366V18.3628H10.1545V11.9369H8.80432V9.72241H10.1545V8.39294C10.1545 6.5863 10.917 5.51208 13.083 5.51208H14.8864V7.72681H13.7592C12.9159 7.72681 12.8601 8.03625 12.8601 8.61389L12.8571 9.72217H14.8992L14.6602 11.9366H12.8571Z" transform="translate(0 0.694824)" fill="white"/>
</svg>
