<svg width="25" height="25" viewBox="0 0 25 25" fill="none" xmlns="http://www.w3.org/2000/svg">
<path fill-rule="evenodd" clip-rule="evenodd" d="M0 11.8115C0 5.28821 5.37524 0 12.006 0C18.6366 0 24.0118 5.28821 24.0118 11.8115C24.0118 18.3348 18.6366 23.623 12.006 23.623C5.37524 23.623 0 18.3348 0 11.8115ZM10.0752 8.63074L6.23132 6.76233C6.19836 6.74634 6.16699 6.73877 6.13867 6.73877C6.09839 6.73877 6.06421 6.75415 6.04016 6.78235C6.01672 6.80994 6.00293 6.84973 6.00293 6.89954V14.9208C6.00293 15.0573 6.10571 15.2189 6.23132 15.2799L9.78345 17.0066C9.83289 17.0306 9.87988 17.042 9.92236 17.042C10.042 17.042 10.126 16.9519 10.126 16.8009V8.71069C10.126 8.67688 10.1063 8.64587 10.0752 8.63074ZM18.0293 17.004L14.5775 15.3262L18.3718 9.33215V16.7981C18.3718 17.0029 18.2177 17.0956 18.0293 17.004ZM10.4905 9.2312V13.342L14.2491 15.1691L10.4905 9.2312ZM14.3633 6.70679L18.2814 8.61133C18.3302 8.63513 18.3475 8.69434 18.319 8.7395L14.463 14.8311L11.7672 10.5721L14.1823 6.75696C14.2079 6.71655 14.2552 6.69324 14.303 6.69324L14.3068 6.6936C14.3262 6.69409 14.3455 6.69812 14.3633 6.70679Z" transform="translate(0.988159 0.694824)" fill="white"/>
</svg>
