<svg width="25" height="25" viewBox="0 0 25 25" fill="none" xmlns="http://www.w3.org/2000/svg">
<path fill-rule="evenodd" clip-rule="evenodd" d="M12.006 23.623C18.6366 23.623 24.0118 18.3348 24.0118 11.8115C24.0118 5.28821 18.6366 0 12.006 0C5.37524 0 0 5.28821 0 11.8115C0 18.3348 5.37524 23.623 12.006 23.623ZM9.80493 17.2252C10.0969 17.2252 10.2303 17.0974 10.3916 16.943L10.4053 16.9299L11.8473 15.5504L14.8474 17.7311C15.3995 18.0308 15.7981 17.8756 15.9355 17.2268L17.905 8.09619C18.1067 7.30078 17.5969 6.94006 17.0687 7.17603L5.50403 11.5631C4.7146 11.8746 4.71924 12.3079 5.36011 12.501L8.32788 13.4122L15.1986 9.14783C15.5229 8.95422 15.8206 9.05835 15.5763 9.27161L10.0093 14.214L9.80493 17.2252Z" transform="translate(0.071167 0.694824)" fill="white"/>
</svg>
