<svg width="24" height="24" viewBox="0 0 24 24" fill="none" xmlns="http://www.w3.org/2000/svg">
<path fill-rule="evenodd" clip-rule="evenodd" d="M11.6529 0C5.21803 0 0 5.26235 0 11.7543C0 16.9477 3.33891 21.3538 7.96897 22.9081C8.55135 23.0169 8.76516 22.6531 8.76516 22.3426C8.76516 22.0624 8.75435 21.1364 8.74933 20.1542C5.50748 20.8653 4.82341 18.7673 4.82341 18.7673C4.29333 17.4087 3.52957 17.0474 3.52957 17.0474C2.4723 16.3179 3.60926 16.3328 3.60926 16.3328C4.77942 16.4156 5.39556 17.5441 5.39556 17.5441C6.43488 19.3412 8.12161 18.8216 8.78658 18.5213C8.89117 17.7618 9.19316 17.2428 9.52641 16.9495C6.93814 16.6523 4.2173 15.6444 4.2173 11.1404C4.2173 9.85705 4.67251 8.80847 5.41795 7.9853C5.29695 7.68904 4.89809 6.4937 5.53083 4.87461C5.53083 4.87461 6.50937 4.55869 8.73621 6.07949C9.66574 5.81905 10.6626 5.68844 11.6529 5.68396C12.6432 5.68844 13.6409 5.81905 14.5721 6.07949C16.7963 4.55869 17.7735 4.87461 17.7735 4.87461C18.4077 6.4937 18.0087 7.68904 17.8877 7.9853C18.6349 8.80847 19.087 9.85705 19.087 11.1404C19.087 15.6551 16.3609 16.6491 13.7661 16.9402C14.1841 17.3049 14.5565 18.0203 14.5565 19.1169C14.5565 20.6895 14.543 21.9553 14.543 22.3426C14.543 22.6554 14.7527 23.022 15.3434 22.9065C19.971 21.3505 23.3056 16.946 23.3056 11.7543C23.3056 5.26235 18.0884 0 11.6529 0" transform="translate(0.382812 0.694824)" fill="white"/>
</svg>
