<svg width="68" height="54" viewBox="0 0 68 54" fill="none" xmlns="http://www.w3.org/2000/svg">
<path d="M68 6.38905C65.4972 7.47325 62.8118 8.20853 59.9902 8.5368C62.8712 6.85017 65.0766 4.17493 66.1218 0.996969C63.4193 2.5589 60.4363 3.69306 57.2579 4.30789C54.7126 1.65339 51.0923 2.0553e-07 47.0767 2.0553e-07C39.373 2.0553e-07 33.1266 6.10662 33.1266 13.634C33.1266 14.7015 33.2498 15.7442 33.4878 16.7413C21.896 16.1721 11.6172 10.7427 4.73779 2.49242C3.53523 4.50309 2.85112 6.84593 2.85112 9.34682C2.85112 14.0785 5.31568 18.2534 9.05501 20.696C6.7689 20.6212 4.61879 20.0064 2.73645 18.9844V19.1548C2.73645 25.7599 7.54657 31.2724 13.9246 32.527C12.756 32.8345 11.5238 33.0048 10.249 33.0048C9.34824 33.0048 8.47713 32.9176 7.62301 32.7514C9.39913 38.1726 14.5492 42.1148 20.6511 42.2229C15.8792 45.8786 9.86235 48.0512 3.32712 48.0512C2.20111 48.0512 1.092 47.9847 0 47.8643C6.17412 51.7401 13.504 54 21.382 54C47.043 54 61.0697 33.2208 61.0697 15.2001L61.0229 13.4346C63.7635 11.5236 66.1346 9.12251 68 6.38905Z" fill="#00ACED"/>
</svg>
