<svg width="658" height="200" viewBox="0 0 658 200" fill="none" xmlns="http://www.w3.org/2000/svg">
<g filter="url(#filter0_d)">
<rect x="4" y="24" width="200" height="168" fill="#F1F1F1"/>
</g>
<path d="M37.0322 51.127H33.833V60H32.5273V51.127H29.335V50.0469H37.0322V51.127ZM37.292 56.2334C37.292 55.5088 37.4333 54.8571 37.7158 54.2783C38.0029 53.6995 38.3994 53.2529 38.9053 52.9385C39.4157 52.624 39.9967 52.4668 40.6484 52.4668C41.6556 52.4668 42.4691 52.8154 43.0889 53.5127C43.7132 54.21 44.0254 55.1374 44.0254 56.2949V56.3838C44.0254 57.1038 43.8864 57.751 43.6084 58.3252C43.335 58.8949 42.9408 59.3392 42.4258 59.6582C41.9154 59.9772 41.3275 60.1367 40.6621 60.1367C39.6595 60.1367 38.846 59.7881 38.2217 59.0908C37.6019 58.3936 37.292 57.4707 37.292 56.3223V56.2334ZM38.5635 56.3838C38.5635 57.2041 38.7526 57.8626 39.1309 58.3594C39.5137 58.8561 40.0241 59.1045 40.6621 59.1045C41.3047 59.1045 41.8151 58.8538 42.1934 58.3525C42.5716 57.8467 42.7607 57.1403 42.7607 56.2334C42.7607 55.4222 42.5671 54.766 42.1797 54.2646C41.7969 53.7588 41.2865 53.5059 40.6484 53.5059C40.0241 53.5059 39.5205 53.7542 39.1377 54.251C38.7549 54.7477 38.5635 55.4587 38.5635 56.3838ZM47.3271 50.8125V52.6035H48.708V53.5811H47.3271V58.168C47.3271 58.4642 47.3887 58.6875 47.5117 58.8379C47.6348 58.9837 47.8444 59.0566 48.1406 59.0566C48.2865 59.0566 48.487 59.0293 48.7422 58.9746V60C48.4095 60.0911 48.0859 60.1367 47.7715 60.1367C47.2064 60.1367 46.7803 59.9658 46.4932 59.624C46.2061 59.2822 46.0625 58.7969 46.0625 58.168V53.5811H44.7158V52.6035H46.0625V50.8125H47.3271ZM54.7578 60C54.6849 59.8542 54.6257 59.5944 54.5801 59.2207C53.9922 59.8314 53.2904 60.1367 52.4746 60.1367C51.7454 60.1367 51.1462 59.9316 50.6768 59.5215C50.2119 59.1068 49.9795 58.5827 49.9795 57.9492C49.9795 57.179 50.2712 56.582 50.8545 56.1582C51.4424 55.7298 52.2673 55.5156 53.3291 55.5156H54.5596V54.9346C54.5596 54.4925 54.4274 54.1416 54.1631 53.8818C53.8988 53.6175 53.5091 53.4854 52.9941 53.4854C52.543 53.4854 52.1647 53.5993 51.8594 53.8271C51.554 54.055 51.4014 54.3307 51.4014 54.6543H50.1299C50.1299 54.2852 50.2598 53.9297 50.5195 53.5879C50.7839 53.2415 51.1393 52.9681 51.5859 52.7676C52.0371 52.5671 52.5316 52.4668 53.0693 52.4668C53.9215 52.4668 54.5892 52.681 55.0723 53.1094C55.5553 53.5332 55.806 54.1188 55.8242 54.8662V58.2705C55.8242 58.9495 55.9108 59.4896 56.084 59.8906V60H54.7578ZM52.6592 59.0361C53.0557 59.0361 53.4316 58.9336 53.7871 58.7285C54.1426 58.5234 54.4001 58.2568 54.5596 57.9287V56.4111H53.5684C52.0189 56.4111 51.2441 56.8646 51.2441 57.7715C51.2441 58.168 51.3763 58.4779 51.6406 58.7012C51.9049 58.9245 52.2445 59.0361 52.6592 59.0361ZM59.1807 60H57.916V49.5H59.1807V60ZM67.8145 55.5635C66.6888 55.2399 65.8685 54.8434 65.3535 54.374C64.8431 53.9001 64.5879 53.3167 64.5879 52.624C64.5879 51.8402 64.9001 51.193 65.5244 50.6826C66.1533 50.1676 66.9691 49.9102 67.9717 49.9102C68.6553 49.9102 69.2637 50.0423 69.7969 50.3066C70.3346 50.571 70.7493 50.9355 71.041 51.4004C71.3372 51.8652 71.4854 52.3734 71.4854 52.9248H70.166C70.166 52.3232 69.9746 51.8516 69.5918 51.5098C69.209 51.1634 68.6689 50.9902 67.9717 50.9902C67.3245 50.9902 66.8187 51.1338 66.4541 51.4209C66.0941 51.7035 65.9141 52.0977 65.9141 52.6035C65.9141 53.0091 66.085 53.3532 66.4268 53.6357C66.7731 53.9137 67.3587 54.1689 68.1836 54.4014C69.013 54.6338 69.6602 54.8913 70.125 55.1738C70.5944 55.4518 70.9408 55.7777 71.1641 56.1514C71.3919 56.5251 71.5059 56.9648 71.5059 57.4707C71.5059 58.2773 71.1914 58.9245 70.5625 59.4121C69.9336 59.8952 69.0928 60.1367 68.04 60.1367C67.3564 60.1367 66.7184 60.0068 66.126 59.7471C65.5335 59.4827 65.0755 59.1227 64.752 58.667C64.4329 58.2113 64.2734 57.694 64.2734 57.1152H65.5928C65.5928 57.7168 65.8138 58.193 66.2559 58.5439C66.7025 58.8903 67.2972 59.0635 68.04 59.0635C68.7327 59.0635 69.2637 58.9222 69.6328 58.6396C70.002 58.3571 70.1865 57.972 70.1865 57.4844C70.1865 56.9967 70.0156 56.6208 69.6738 56.3564C69.332 56.0876 68.7122 55.8232 67.8145 55.5635ZM77.5625 59.2686C77.0703 59.8473 76.348 60.1367 75.3955 60.1367C74.6071 60.1367 74.0055 59.9089 73.5908 59.4531C73.1807 58.9928 72.9733 58.3138 72.9688 57.416V52.6035H74.2334V57.3818C74.2334 58.5029 74.6891 59.0635 75.6006 59.0635C76.5667 59.0635 77.2093 58.7035 77.5283 57.9834V52.6035H78.793V60H77.5898L77.5625 59.2686ZM86.9688 56.3838C86.9688 57.5094 86.7113 58.4163 86.1963 59.1045C85.6813 59.7926 84.984 60.1367 84.1045 60.1367C83.2067 60.1367 82.5003 59.8519 81.9854 59.2822V62.8438H80.7207V52.6035H81.876L81.9375 53.4238C82.4525 52.7858 83.168 52.4668 84.084 52.4668C84.9727 52.4668 85.6745 52.8018 86.1895 53.4717C86.709 54.1416 86.9688 55.0736 86.9688 56.2676V56.3838ZM85.7041 56.2402C85.7041 55.4062 85.5264 54.7477 85.1709 54.2646C84.8154 53.7816 84.3278 53.54 83.708 53.54C82.9424 53.54 82.3682 53.8796 81.9854 54.5586V58.0928C82.3636 58.7673 82.9424 59.1045 83.7217 59.1045C84.3278 59.1045 84.8086 58.8652 85.1641 58.3867C85.5241 57.9036 85.7041 57.1882 85.7041 56.2402ZM94.8301 56.3838C94.8301 57.5094 94.5726 58.4163 94.0576 59.1045C93.5426 59.7926 92.8454 60.1367 91.9658 60.1367C91.068 60.1367 90.3617 59.8519 89.8467 59.2822V62.8438H88.582V52.6035H89.7373L89.7988 53.4238C90.3138 52.7858 91.0293 52.4668 91.9453 52.4668C92.834 52.4668 93.5358 52.8018 94.0508 53.4717C94.5703 54.1416 94.8301 55.0736 94.8301 56.2676V56.3838ZM93.5654 56.2402C93.5654 55.4062 93.3877 54.7477 93.0322 54.2646C92.6768 53.7816 92.1891 53.54 91.5693 53.54C90.8037 53.54 90.2295 53.8796 89.8467 54.5586V58.0928C90.2249 58.7673 90.8037 59.1045 91.583 59.1045C92.1891 59.1045 92.6699 58.8652 93.0254 58.3867C93.3854 57.9036 93.5654 57.1882 93.5654 56.2402ZM97.8174 60H96.5527V49.5H97.8174V60ZM102.268 58.1475L103.99 52.6035H105.344L102.37 61.1416C101.91 62.3721 101.178 62.9873 100.176 62.9873L99.9365 62.9668L99.4648 62.8779V61.8525L99.8066 61.8799C100.235 61.8799 100.568 61.7933 100.805 61.6201C101.046 61.4469 101.244 61.1302 101.399 60.6699L101.68 59.918L99.041 52.6035H100.422L102.268 58.1475Z" fill="#182848"/>
<path d="M37.4766 89.8418C37.3535 90.8945 36.9639 91.708 36.3076 92.2822C35.6559 92.8519 34.7878 93.1367 33.7031 93.1367C32.5273 93.1367 31.584 92.7152 30.873 91.8721C30.1667 91.029 29.8135 89.901 29.8135 88.4883V87.5312C29.8135 86.6061 29.9775 85.7926 30.3057 85.0908C30.6383 84.389 31.1077 83.8512 31.7139 83.4775C32.32 83.0993 33.0218 82.9102 33.8193 82.9102C34.8766 82.9102 35.7243 83.2064 36.3623 83.7988C37.0003 84.3867 37.3717 85.2025 37.4766 86.2461H36.1572C36.0433 85.4531 35.7949 84.8789 35.4121 84.5234C35.0339 84.168 34.5029 83.9902 33.8193 83.9902C32.9808 83.9902 32.3223 84.3001 31.8438 84.9199C31.3698 85.5397 31.1328 86.4215 31.1328 87.5654V88.5293C31.1328 89.6094 31.3584 90.4684 31.8096 91.1064C32.2607 91.7445 32.8919 92.0635 33.7031 92.0635C34.4323 92.0635 34.9906 91.8994 35.3779 91.5713C35.7699 91.2386 36.0296 90.6621 36.1572 89.8418H37.4766ZM38.7412 89.2334C38.7412 88.5088 38.8825 87.8571 39.165 87.2783C39.4521 86.6995 39.8486 86.2529 40.3545 85.9385C40.8649 85.624 41.446 85.4668 42.0977 85.4668C43.1048 85.4668 43.9183 85.8154 44.5381 86.5127C45.1624 87.21 45.4746 88.1374 45.4746 89.2949V89.3838C45.4746 90.1038 45.3356 90.751 45.0576 91.3252C44.7842 91.8949 44.39 92.3392 43.875 92.6582C43.3646 92.9772 42.7767 93.1367 42.1113 93.1367C41.1087 93.1367 40.2952 92.7881 39.6709 92.0908C39.0511 91.3936 38.7412 90.4707 38.7412 89.3223V89.2334ZM40.0127 89.3838C40.0127 90.2041 40.2018 90.8626 40.5801 91.3594C40.9629 91.8561 41.4733 92.1045 42.1113 92.1045C42.7539 92.1045 43.2643 91.8538 43.6426 91.3525C44.0208 90.8467 44.21 90.1403 44.21 89.2334C44.21 88.4222 44.0163 87.766 43.6289 87.2646C43.2461 86.7588 42.7357 86.5059 42.0977 86.5059C41.4733 86.5059 40.9697 86.7542 40.5869 87.251C40.2041 87.7477 40.0127 88.4587 40.0127 89.3838ZM48.2568 85.6035L48.2979 86.5332C48.863 85.8223 49.6012 85.4668 50.5127 85.4668C52.0758 85.4668 52.8643 86.3486 52.8779 88.1123V93H51.6133V88.1055C51.6087 87.5723 51.4857 87.1781 51.2441 86.9229C51.0072 86.6676 50.6357 86.54 50.1299 86.54C49.7197 86.54 49.3597 86.6494 49.0498 86.8682C48.7399 87.0869 48.4984 87.374 48.3252 87.7295V93H47.0605V85.6035H48.2568ZM59.0918 91.0381C59.0918 90.6963 58.9619 90.432 58.7021 90.2451C58.4469 90.0537 57.998 89.8896 57.3555 89.7529C56.7174 89.6162 56.2093 89.4521 55.8311 89.2607C55.4574 89.0693 55.1794 88.8415 54.9971 88.5771C54.8193 88.3128 54.7305 87.9984 54.7305 87.6338C54.7305 87.0277 54.9857 86.515 55.4961 86.0957C56.0111 85.6764 56.6673 85.4668 57.4648 85.4668C58.3034 85.4668 58.9824 85.6833 59.502 86.1162C60.026 86.5492 60.2881 87.1029 60.2881 87.7773H59.0166C59.0166 87.431 58.8685 87.1325 58.5723 86.8818C58.2806 86.6312 57.9115 86.5059 57.4648 86.5059C57.0046 86.5059 56.6445 86.6061 56.3848 86.8066C56.125 87.0072 55.9951 87.2692 55.9951 87.5928C55.9951 87.8981 56.1159 88.1283 56.3574 88.2832C56.599 88.4382 57.0342 88.5863 57.6631 88.7275C58.2965 88.8688 58.8092 89.0374 59.2012 89.2334C59.5931 89.4294 59.8825 89.6663 60.0693 89.9443C60.2607 90.2178 60.3564 90.5527 60.3564 90.9492C60.3564 91.61 60.0921 92.141 59.5635 92.542C59.0348 92.9385 58.349 93.1367 57.5059 93.1367C56.9134 93.1367 56.3893 93.0319 55.9336 92.8223C55.4779 92.6126 55.1201 92.321 54.8604 91.9473C54.6051 91.569 54.4775 91.1611 54.4775 90.7236H55.7422C55.765 91.1475 55.9336 91.4847 56.248 91.7354C56.5671 91.9814 56.9863 92.1045 57.5059 92.1045C57.9844 92.1045 58.3672 92.0088 58.6543 91.8174C58.946 91.6214 59.0918 91.3617 59.0918 91.0381ZM65.0732 93.1367C64.0706 93.1367 63.2549 92.8086 62.626 92.1523C61.9971 91.4915 61.6826 90.6097 61.6826 89.5068V89.2744C61.6826 88.5407 61.8216 87.8867 62.0996 87.3125C62.3822 86.7337 62.7741 86.2826 63.2754 85.959C63.7812 85.6309 64.3281 85.4668 64.916 85.4668C65.8776 85.4668 66.625 85.7835 67.1582 86.417C67.6914 87.0505 67.958 87.9574 67.958 89.1377V89.6641H62.9473C62.9655 90.3932 63.1774 90.9834 63.583 91.4346C63.9932 91.8812 64.5127 92.1045 65.1416 92.1045C65.5882 92.1045 65.9665 92.0133 66.2764 91.8311C66.5863 91.6488 66.8574 91.4072 67.0898 91.1064L67.8623 91.708C67.2425 92.6605 66.3128 93.1367 65.0732 93.1367ZM64.916 86.5059C64.4056 86.5059 63.9772 86.6927 63.6309 87.0664C63.2845 87.4355 63.0703 87.9551 62.9883 88.625H66.6934V88.5293C66.6569 87.8867 66.4837 87.39 66.1738 87.0391C65.8639 86.6836 65.4447 86.5059 64.916 86.5059ZM70.624 85.6035L70.665 86.5332C71.2301 85.8223 71.9684 85.4668 72.8799 85.4668C74.443 85.4668 75.2314 86.3486 75.2451 88.1123V93H73.9805V88.1055C73.9759 87.5723 73.8529 87.1781 73.6113 86.9229C73.3743 86.6676 73.0029 86.54 72.4971 86.54C72.0869 86.54 71.7269 86.6494 71.417 86.8682C71.1071 87.0869 70.8656 87.374 70.6924 87.7295V93H69.4277V85.6035H70.624ZM81.459 91.0381C81.459 90.6963 81.3291 90.432 81.0693 90.2451C80.8141 90.0537 80.3652 89.8896 79.7227 89.7529C79.0846 89.6162 78.5765 89.4521 78.1982 89.2607C77.8245 89.0693 77.5465 88.8415 77.3643 88.5771C77.1865 88.3128 77.0977 87.9984 77.0977 87.6338C77.0977 87.0277 77.3529 86.515 77.8633 86.0957C78.3783 85.6764 79.0345 85.4668 79.832 85.4668C80.6706 85.4668 81.3496 85.6833 81.8691 86.1162C82.3932 86.5492 82.6553 87.1029 82.6553 87.7773H81.3838C81.3838 87.431 81.2357 87.1325 80.9395 86.8818C80.6478 86.6312 80.2786 86.5059 79.832 86.5059C79.3717 86.5059 79.0117 86.6061 78.752 86.8066C78.4922 87.0072 78.3623 87.2692 78.3623 87.5928C78.3623 87.8981 78.4831 88.1283 78.7246 88.2832C78.9661 88.4382 79.4014 88.5863 80.0303 88.7275C80.6637 88.8688 81.1764 89.0374 81.5684 89.2334C81.9603 89.4294 82.2497 89.6663 82.4365 89.9443C82.6279 90.2178 82.7236 90.5527 82.7236 90.9492C82.7236 91.61 82.4593 92.141 81.9307 92.542C81.402 92.9385 80.7161 93.1367 79.873 93.1367C79.2806 93.1367 78.7565 93.0319 78.3008 92.8223C77.8451 92.6126 77.4873 92.321 77.2275 91.9473C76.9723 91.569 76.8447 91.1611 76.8447 90.7236H78.1094C78.1322 91.1475 78.3008 91.4847 78.6152 91.7354C78.9342 91.9814 79.3535 92.1045 79.873 92.1045C80.3516 92.1045 80.7344 92.0088 81.0215 91.8174C81.3132 91.6214 81.459 91.3617 81.459 91.0381ZM88.9375 92.2686C88.4453 92.8473 87.723 93.1367 86.7705 93.1367C85.9821 93.1367 85.3805 92.9089 84.9658 92.4531C84.5557 91.9928 84.3483 91.3138 84.3438 90.416V85.6035H85.6084V90.3818C85.6084 91.5029 86.0641 92.0635 86.9756 92.0635C87.9417 92.0635 88.5843 91.7035 88.9033 90.9834V85.6035H90.168V93H88.9648L88.9375 92.2686ZM96.4023 91.0381C96.4023 90.6963 96.2725 90.432 96.0127 90.2451C95.7575 90.0537 95.3086 89.8896 94.666 89.7529C94.028 89.6162 93.5199 89.4521 93.1416 89.2607C92.7679 89.0693 92.4899 88.8415 92.3076 88.5771C92.1299 88.3128 92.041 87.9984 92.041 87.6338C92.041 87.0277 92.2962 86.515 92.8066 86.0957C93.3216 85.6764 93.9779 85.4668 94.7754 85.4668C95.6139 85.4668 96.293 85.6833 96.8125 86.1162C97.3366 86.5492 97.5986 87.1029 97.5986 87.7773H96.3271C96.3271 87.431 96.179 87.1325 95.8828 86.8818C95.5911 86.6312 95.222 86.5059 94.7754 86.5059C94.3151 86.5059 93.9551 86.6061 93.6953 86.8066C93.4355 87.0072 93.3057 87.2692 93.3057 87.5928C93.3057 87.8981 93.4264 88.1283 93.668 88.2832C93.9095 88.4382 94.3447 88.5863 94.9736 88.7275C95.6071 88.8688 96.1198 89.0374 96.5117 89.2334C96.9036 89.4294 97.193 89.6663 97.3799 89.9443C97.5713 90.2178 97.667 90.5527 97.667 90.9492C97.667 91.61 97.4027 92.141 96.874 92.542C96.3454 92.9385 95.6595 93.1367 94.8164 93.1367C94.224 93.1367 93.6999 93.0319 93.2441 92.8223C92.7884 92.6126 92.4307 92.321 92.1709 91.9473C91.9157 91.569 91.7881 91.1611 91.7881 90.7236H93.0527C93.0755 91.1475 93.2441 91.4847 93.5586 91.7354C93.8776 91.9814 94.2969 92.1045 94.8164 92.1045C95.2949 92.1045 95.6777 92.0088 95.9648 91.8174C96.2565 91.6214 96.4023 91.3617 96.4023 91.0381ZM108.481 90.4023H104.312L103.375 93H102.021L105.822 83.0469H106.971L110.778 93H109.432L108.481 90.4023ZM104.708 89.3223H108.092L106.396 84.667L104.708 89.3223ZM113.294 93H112.029V82.5H113.294V93ZM115.023 89.2402C115.023 88.0872 115.29 87.1712 115.823 86.4922C116.356 85.8086 117.063 85.4668 117.942 85.4668C118.845 85.4668 119.549 85.7858 120.055 86.4238L120.116 85.6035H121.271V92.8223C121.271 93.7793 120.987 94.5335 120.417 95.085C119.852 95.6364 119.091 95.9121 118.134 95.9121C117.601 95.9121 117.079 95.7982 116.568 95.5703C116.058 95.3424 115.668 95.0303 115.399 94.6338L116.056 93.875C116.598 94.5449 117.261 94.8799 118.045 94.8799C118.66 94.8799 119.139 94.7067 119.48 94.3604C119.827 94.014 120 93.5264 120 92.8975V92.2617C119.494 92.8451 118.804 93.1367 117.929 93.1367C117.063 93.1367 116.361 92.7881 115.823 92.0908C115.29 91.3936 115.023 90.4434 115.023 89.2402ZM116.295 89.3838C116.295 90.2178 116.466 90.874 116.808 91.3525C117.149 91.8265 117.628 92.0635 118.243 92.0635C119.041 92.0635 119.626 91.7012 120 90.9766V87.5996C119.613 86.8932 119.032 86.54 118.257 86.54C117.642 86.54 117.161 86.7793 116.814 87.2578C116.468 87.7363 116.295 88.445 116.295 89.3838ZM122.851 89.2334C122.851 88.5088 122.992 87.8571 123.274 87.2783C123.562 86.6995 123.958 86.2529 124.464 85.9385C124.974 85.624 125.555 85.4668 126.207 85.4668C127.214 85.4668 128.028 85.8154 128.647 86.5127C129.272 87.21 129.584 88.1374 129.584 89.2949V89.3838C129.584 90.1038 129.445 90.751 129.167 91.3252C128.894 91.8949 128.499 92.3392 127.984 92.6582C127.474 92.9772 126.886 93.1367 126.221 93.1367C125.218 93.1367 124.405 92.7881 123.78 92.0908C123.16 91.3936 122.851 90.4707 122.851 89.3223V89.2334ZM124.122 89.3838C124.122 90.2041 124.311 90.8626 124.689 91.3594C125.072 91.8561 125.583 92.1045 126.221 92.1045C126.863 92.1045 127.374 91.8538 127.752 91.3525C128.13 90.8467 128.319 90.1403 128.319 89.2334C128.319 88.4222 128.126 87.766 127.738 87.2646C127.355 86.7588 126.845 86.5059 126.207 86.5059C125.583 86.5059 125.079 86.7542 124.696 87.251C124.313 87.7477 124.122 88.4587 124.122 89.3838ZM134.745 86.7383C134.554 86.7064 134.346 86.6904 134.123 86.6904C133.294 86.6904 132.731 87.0436 132.435 87.75V93H131.17V85.6035H132.4L132.421 86.458C132.836 85.7972 133.424 85.4668 134.185 85.4668C134.431 85.4668 134.618 85.4987 134.745 85.5625V86.7383ZM137.288 93H136.023V85.6035H137.288V93ZM135.921 83.6416C135.921 83.4365 135.982 83.2633 136.105 83.1221C136.233 82.9808 136.42 82.9102 136.666 82.9102C136.912 82.9102 137.099 82.9808 137.227 83.1221C137.354 83.2633 137.418 83.4365 137.418 83.6416C137.418 83.8467 137.354 84.0176 137.227 84.1543C137.099 84.291 136.912 84.3594 136.666 84.3594C136.42 84.3594 136.233 84.291 136.105 84.1543C135.982 84.0176 135.921 83.8467 135.921 83.6416ZM141.034 83.8125V85.6035H142.415V86.5811H141.034V91.168C141.034 91.4642 141.096 91.6875 141.219 91.8379C141.342 91.9837 141.551 92.0566 141.848 92.0566C141.993 92.0566 142.194 92.0293 142.449 91.9746V93C142.117 93.0911 141.793 93.1367 141.479 93.1367C140.913 93.1367 140.487 92.9658 140.2 92.624C139.913 92.2822 139.77 91.7969 139.77 91.168V86.5811H138.423V85.6035H139.77V83.8125H141.034ZM145.163 86.499C145.724 85.8109 146.453 85.4668 147.351 85.4668C148.914 85.4668 149.702 86.3486 149.716 88.1123V93H148.451V88.1055C148.447 87.5723 148.324 87.1781 148.082 86.9229C147.845 86.6676 147.474 86.54 146.968 86.54C146.558 86.54 146.198 86.6494 145.888 86.8682C145.578 87.0869 145.336 87.374 145.163 87.7295V93H143.898V82.5H145.163V86.499ZM152.799 85.6035L152.833 86.4238C153.375 85.7858 154.107 85.4668 155.027 85.4668C156.062 85.4668 156.766 85.8633 157.14 86.6562C157.386 86.3008 157.705 86.0137 158.097 85.7949C158.493 85.5762 158.96 85.4668 159.498 85.4668C161.12 85.4668 161.945 86.3258 161.973 88.0439V93H160.708V88.1191C160.708 87.5905 160.587 87.1963 160.346 86.9365C160.104 86.6722 159.699 86.54 159.129 86.54C158.66 86.54 158.27 86.6813 157.96 86.9639C157.65 87.2419 157.47 87.6178 157.42 88.0918V93H156.148V88.1533C156.148 87.0778 155.622 86.54 154.569 86.54C153.74 86.54 153.173 86.8932 152.867 87.5996V93H151.603V85.6035H152.799Z" fill="#182848"/>
<path d="M37.8047 126H36.4854L31.4746 118.33V126H30.1553V116.047H31.4746L36.499 123.751V116.047H37.8047V126ZM43.0068 126.137C42.0042 126.137 41.1885 125.809 40.5596 125.152C39.9307 124.492 39.6162 123.61 39.6162 122.507V122.274C39.6162 121.541 39.7552 120.887 40.0332 120.312C40.3158 119.734 40.7077 119.283 41.209 118.959C41.7148 118.631 42.2617 118.467 42.8496 118.467C43.8112 118.467 44.5586 118.784 45.0918 119.417C45.625 120.05 45.8916 120.957 45.8916 122.138V122.664H40.8809C40.8991 123.393 41.111 123.983 41.5166 124.435C41.9268 124.881 42.4463 125.104 43.0752 125.104C43.5218 125.104 43.9001 125.013 44.21 124.831C44.5199 124.649 44.791 124.407 45.0234 124.106L45.7959 124.708C45.1761 125.66 44.2464 126.137 43.0068 126.137ZM42.8496 119.506C42.3392 119.506 41.9108 119.693 41.5645 120.066C41.2181 120.436 41.0039 120.955 40.9219 121.625H44.627V121.529C44.5905 120.887 44.4173 120.39 44.1074 120.039C43.7975 119.684 43.3783 119.506 42.8496 119.506ZM53.9102 124.257L55.332 118.604H56.5967L54.4434 126H53.418L51.6201 120.395L49.8701 126H48.8447L46.6982 118.604H47.9561L49.4121 124.141L51.1348 118.604H52.1533L53.9102 124.257ZM61.5596 126V116.047H64.8135C65.8936 116.047 66.7048 116.27 67.2471 116.717C67.7939 117.163 68.0674 117.824 68.0674 118.699C68.0674 119.164 67.9352 119.576 67.6709 119.937C67.4066 120.292 67.0465 120.568 66.5908 120.764C67.1286 120.914 67.5524 121.201 67.8623 121.625C68.1768 122.044 68.334 122.546 68.334 123.129C68.334 124.022 68.0446 124.724 67.4658 125.234C66.887 125.745 66.069 126 65.0117 126H61.5596ZM62.8721 121.345V124.927H65.0391C65.6497 124.927 66.1305 124.77 66.4814 124.455C66.8369 124.136 67.0146 123.699 67.0146 123.143C67.0146 121.944 66.363 121.345 65.0596 121.345H62.8721ZM62.8721 120.292H64.8545C65.4287 120.292 65.8867 120.148 66.2285 119.861C66.5749 119.574 66.748 119.185 66.748 118.692C66.748 118.146 66.5885 117.749 66.2695 117.503C65.9505 117.252 65.4652 117.127 64.8135 117.127H62.8721V120.292ZM71.458 126H70.1934V115.5H71.458V126ZM73.1533 122.233C73.1533 121.509 73.2946 120.857 73.5771 120.278C73.8643 119.7 74.2607 119.253 74.7666 118.938C75.277 118.624 75.8581 118.467 76.5098 118.467C77.5169 118.467 78.3304 118.815 78.9502 119.513C79.5745 120.21 79.8867 121.137 79.8867 122.295V122.384C79.8867 123.104 79.7477 123.751 79.4697 124.325C79.1963 124.895 78.8021 125.339 78.2871 125.658C77.7767 125.977 77.1888 126.137 76.5234 126.137C75.5208 126.137 74.7074 125.788 74.083 125.091C73.4632 124.394 73.1533 123.471 73.1533 122.322V122.233ZM74.4248 122.384C74.4248 123.204 74.6139 123.863 74.9922 124.359C75.375 124.856 75.8854 125.104 76.5234 125.104C77.166 125.104 77.6764 124.854 78.0547 124.353C78.4329 123.847 78.6221 123.14 78.6221 122.233C78.6221 121.422 78.4284 120.766 78.041 120.265C77.6582 119.759 77.1478 119.506 76.5098 119.506C75.8854 119.506 75.3818 119.754 74.999 120.251C74.6162 120.748 74.4248 121.459 74.4248 122.384ZM84.4395 125.104C84.8906 125.104 85.2848 124.968 85.6221 124.694C85.9593 124.421 86.1462 124.079 86.1826 123.669H87.3789C87.3561 124.093 87.2103 124.496 86.9414 124.879C86.6725 125.262 86.3125 125.567 85.8613 125.795C85.4147 126.023 84.9408 126.137 84.4395 126.137C83.4323 126.137 82.6302 125.802 82.0332 125.132C81.4408 124.457 81.1445 123.537 81.1445 122.37V122.158C81.1445 121.438 81.2767 120.798 81.541 120.237C81.8053 119.677 82.1836 119.242 82.6758 118.932C83.1725 118.622 83.7581 118.467 84.4326 118.467C85.262 118.467 85.9502 118.715 86.4971 119.212C87.0485 119.709 87.3424 120.354 87.3789 121.146H86.1826C86.1462 120.668 85.9639 120.276 85.6357 119.971C85.3122 119.661 84.9111 119.506 84.4326 119.506C83.79 119.506 83.291 119.738 82.9355 120.203C82.5846 120.663 82.4092 121.331 82.4092 122.206V122.445C82.4092 123.298 82.5846 123.954 82.9355 124.414C83.2865 124.874 83.7878 125.104 84.4395 125.104ZM90.8652 122.575L90.0723 123.402V126H88.8076V115.5H90.0723V121.851L90.749 121.037L93.0527 118.604H94.5908L91.7129 121.693L94.9258 126H93.4424L90.8652 122.575ZM106.889 122.842C106.766 123.895 106.376 124.708 105.72 125.282C105.068 125.852 104.2 126.137 103.115 126.137C101.939 126.137 100.996 125.715 100.285 124.872C99.5788 124.029 99.2256 122.901 99.2256 121.488V120.531C99.2256 119.606 99.3896 118.793 99.7178 118.091C100.05 117.389 100.52 116.851 101.126 116.478C101.732 116.099 102.434 115.91 103.231 115.91C104.289 115.91 105.136 116.206 105.774 116.799C106.412 117.387 106.784 118.202 106.889 119.246H105.569C105.455 118.453 105.207 117.879 104.824 117.523C104.446 117.168 103.915 116.99 103.231 116.99C102.393 116.99 101.734 117.3 101.256 117.92C100.782 118.54 100.545 119.422 100.545 120.565V121.529C100.545 122.609 100.771 123.468 101.222 124.106C101.673 124.744 102.304 125.063 103.115 125.063C103.844 125.063 104.403 124.899 104.79 124.571C105.182 124.239 105.442 123.662 105.569 122.842H106.889ZM112.063 119.738C111.872 119.706 111.665 119.69 111.441 119.69C110.612 119.69 110.049 120.044 109.753 120.75V126H108.488V118.604H109.719L109.739 119.458C110.154 118.797 110.742 118.467 111.503 118.467C111.749 118.467 111.936 118.499 112.063 118.562V119.738ZM116.165 126.137C115.162 126.137 114.347 125.809 113.718 125.152C113.089 124.492 112.774 123.61 112.774 122.507V122.274C112.774 121.541 112.913 120.887 113.191 120.312C113.474 119.734 113.866 119.283 114.367 118.959C114.873 118.631 115.42 118.467 116.008 118.467C116.969 118.467 117.717 118.784 118.25 119.417C118.783 120.05 119.05 120.957 119.05 122.138V122.664H114.039C114.057 123.393 114.269 123.983 114.675 124.435C115.085 124.881 115.604 125.104 116.233 125.104C116.68 125.104 117.058 125.013 117.368 124.831C117.678 124.649 117.949 124.407 118.182 124.106L118.954 124.708C118.334 125.66 117.405 126.137 116.165 126.137ZM116.008 119.506C115.497 119.506 115.069 119.693 114.723 120.066C114.376 120.436 114.162 120.955 114.08 121.625H117.785V121.529C117.749 120.887 117.576 120.39 117.266 120.039C116.956 119.684 116.536 119.506 116.008 119.506ZM125.086 126C125.013 125.854 124.954 125.594 124.908 125.221C124.32 125.831 123.618 126.137 122.803 126.137C122.074 126.137 121.474 125.932 121.005 125.521C120.54 125.107 120.308 124.583 120.308 123.949C120.308 123.179 120.599 122.582 121.183 122.158C121.771 121.73 122.595 121.516 123.657 121.516H124.888V120.935C124.888 120.493 124.756 120.142 124.491 119.882C124.227 119.618 123.837 119.485 123.322 119.485C122.871 119.485 122.493 119.599 122.188 119.827C121.882 120.055 121.729 120.331 121.729 120.654H120.458C120.458 120.285 120.588 119.93 120.848 119.588C121.112 119.242 121.467 118.968 121.914 118.768C122.365 118.567 122.86 118.467 123.397 118.467C124.25 118.467 124.917 118.681 125.4 119.109C125.883 119.533 126.134 120.119 126.152 120.866V124.271C126.152 124.95 126.239 125.49 126.412 125.891V126H125.086ZM122.987 125.036C123.384 125.036 123.76 124.934 124.115 124.729C124.471 124.523 124.728 124.257 124.888 123.929V122.411H123.896C122.347 122.411 121.572 122.865 121.572 123.771C121.572 124.168 121.704 124.478 121.969 124.701C122.233 124.924 122.573 125.036 122.987 125.036ZM129.851 116.812V118.604H131.231V119.581H129.851V124.168C129.851 124.464 129.912 124.688 130.035 124.838C130.158 124.984 130.368 125.057 130.664 125.057C130.81 125.057 131.01 125.029 131.266 124.975V126C130.933 126.091 130.609 126.137 130.295 126.137C129.73 126.137 129.304 125.966 129.017 125.624C128.729 125.282 128.586 124.797 128.586 124.168V119.581H127.239V118.604H128.586V116.812H129.851ZM135.784 126.137C134.782 126.137 133.966 125.809 133.337 125.152C132.708 124.492 132.394 123.61 132.394 122.507V122.274C132.394 121.541 132.533 120.887 132.811 120.312C133.093 119.734 133.485 119.283 133.986 118.959C134.492 118.631 135.039 118.467 135.627 118.467C136.589 118.467 137.336 118.784 137.869 119.417C138.402 120.05 138.669 120.957 138.669 122.138V122.664H133.658C133.676 123.393 133.888 123.983 134.294 124.435C134.704 124.881 135.224 125.104 135.853 125.104C136.299 125.104 136.677 125.013 136.987 124.831C137.297 124.649 137.568 124.407 137.801 124.106L138.573 124.708C137.953 125.66 137.024 126.137 135.784 126.137ZM135.627 119.506C135.117 119.506 134.688 119.693 134.342 120.066C133.995 120.436 133.781 120.955 133.699 121.625H137.404V121.529C137.368 120.887 137.195 120.39 136.885 120.039C136.575 119.684 136.156 119.506 135.627 119.506ZM139.831 122.24C139.831 121.105 140.1 120.194 140.638 119.506C141.175 118.813 141.88 118.467 142.75 118.467C143.616 118.467 144.302 118.763 144.808 119.355V115.5H146.072V126H144.91L144.849 125.207C144.343 125.827 143.639 126.137 142.736 126.137C141.88 126.137 141.18 125.786 140.638 125.084C140.1 124.382 139.831 123.466 139.831 122.336V122.24ZM141.096 122.384C141.096 123.222 141.269 123.879 141.615 124.353C141.962 124.826 142.44 125.063 143.051 125.063C143.853 125.063 144.438 124.703 144.808 123.983V120.586C144.429 119.889 143.848 119.54 143.064 119.54C142.445 119.54 141.962 119.779 141.615 120.258C141.269 120.736 141.096 121.445 141.096 122.384Z" fill="#182848"/>
<path d="M30.1553 159V149.047H33.4092C34.4893 149.047 35.3005 149.27 35.8428 149.717C36.3896 150.163 36.6631 150.824 36.6631 151.699C36.6631 152.164 36.5309 152.576 36.2666 152.937C36.0023 153.292 35.6423 153.568 35.1865 153.764C35.7243 153.914 36.1481 154.201 36.458 154.625C36.7725 155.044 36.9297 155.546 36.9297 156.129C36.9297 157.022 36.6403 157.724 36.0615 158.234C35.4827 158.745 34.6647 159 33.6074 159H30.1553ZM31.4678 154.345V157.927H33.6348C34.2454 157.927 34.7262 157.77 35.0771 157.455C35.4326 157.136 35.6104 156.699 35.6104 156.143C35.6104 154.944 34.9587 154.345 33.6553 154.345H31.4678ZM31.4678 153.292H33.4502C34.0244 153.292 34.4824 153.148 34.8242 152.861C35.1706 152.574 35.3438 152.185 35.3438 151.692C35.3438 151.146 35.1842 150.749 34.8652 150.503C34.5462 150.252 34.0609 150.127 33.4092 150.127H31.4678V153.292ZM40.0537 159H38.7891V148.5H40.0537V159ZM41.749 155.233C41.749 154.509 41.8903 153.857 42.1729 153.278C42.46 152.7 42.8564 152.253 43.3623 151.938C43.8727 151.624 44.4538 151.467 45.1055 151.467C46.1126 151.467 46.9261 151.815 47.5459 152.513C48.1702 153.21 48.4824 154.137 48.4824 155.295V155.384C48.4824 156.104 48.3434 156.751 48.0654 157.325C47.792 157.895 47.3978 158.339 46.8828 158.658C46.3724 158.977 45.7845 159.137 45.1191 159.137C44.1165 159.137 43.3031 158.788 42.6787 158.091C42.0589 157.394 41.749 156.471 41.749 155.322V155.233ZM43.0205 155.384C43.0205 156.204 43.2096 156.863 43.5879 157.359C43.9707 157.856 44.4811 158.104 45.1191 158.104C45.7617 158.104 46.2721 157.854 46.6504 157.353C47.0286 156.847 47.2178 156.14 47.2178 155.233C47.2178 154.422 47.0241 153.766 46.6367 153.265C46.2539 152.759 45.7435 152.506 45.1055 152.506C44.4811 152.506 43.9775 152.754 43.5947 153.251C43.2119 153.748 43.0205 154.459 43.0205 155.384ZM53.0352 158.104C53.4863 158.104 53.8805 157.968 54.2178 157.694C54.555 157.421 54.7419 157.079 54.7783 156.669H55.9746C55.9518 157.093 55.806 157.496 55.5371 157.879C55.2682 158.262 54.9082 158.567 54.457 158.795C54.0104 159.023 53.5365 159.137 53.0352 159.137C52.028 159.137 51.2259 158.802 50.6289 158.132C50.0365 157.457 49.7402 156.537 49.7402 155.37V155.158C49.7402 154.438 49.8724 153.798 50.1367 153.237C50.401 152.677 50.7793 152.242 51.2715 151.932C51.7682 151.622 52.3538 151.467 53.0283 151.467C53.8577 151.467 54.5459 151.715 55.0928 152.212C55.6442 152.709 55.9382 153.354 55.9746 154.146H54.7783C54.7419 153.668 54.5596 153.276 54.2314 152.971C53.9079 152.661 53.5068 152.506 53.0283 152.506C52.3857 152.506 51.8867 152.738 51.5312 153.203C51.1803 153.663 51.0049 154.331 51.0049 155.206V155.445C51.0049 156.298 51.1803 156.954 51.5312 157.414C51.8822 157.874 52.3835 158.104 53.0352 158.104ZM59.4609 155.575L58.668 156.402V159H57.4033V148.5H58.668V154.851L59.3447 154.037L61.6484 151.604H63.1865L60.3086 154.693L63.5215 159H62.0381L59.4609 155.575ZM71.8135 154.974H69.4756V159H68.1562V149.047H71.4512C72.5723 149.047 73.4336 149.302 74.0352 149.812C74.6413 150.323 74.9443 151.066 74.9443 152.041C74.9443 152.661 74.7757 153.201 74.4385 153.661C74.1058 154.121 73.641 154.465 73.0439 154.693L75.3818 158.918V159H73.9736L71.8135 154.974ZM69.4756 153.9H71.4922C72.1439 153.9 72.6611 153.732 73.0439 153.395C73.4313 153.057 73.625 152.606 73.625 152.041C73.625 151.426 73.4404 150.954 73.0713 150.626C72.7067 150.298 72.1781 150.132 71.4854 150.127H69.4756V153.9ZM79.6611 159.137C78.6585 159.137 77.8428 158.809 77.2139 158.152C76.585 157.492 76.2705 156.61 76.2705 155.507V155.274C76.2705 154.541 76.4095 153.887 76.6875 153.312C76.9701 152.734 77.362 152.283 77.8633 151.959C78.3691 151.631 78.916 151.467 79.5039 151.467C80.4655 151.467 81.2129 151.784 81.7461 152.417C82.2793 153.05 82.5459 153.957 82.5459 155.138V155.664H77.5352C77.5534 156.393 77.7653 156.983 78.1709 157.435C78.5811 157.881 79.1006 158.104 79.7295 158.104C80.1761 158.104 80.5544 158.013 80.8643 157.831C81.1742 157.649 81.4453 157.407 81.6777 157.106L82.4502 157.708C81.8304 158.66 80.9007 159.137 79.6611 159.137ZM79.5039 152.506C78.9935 152.506 78.5651 152.693 78.2188 153.066C77.8724 153.436 77.6582 153.955 77.5762 154.625H81.2812V154.529C81.2448 153.887 81.0716 153.39 80.7617 153.039C80.4518 152.684 80.0326 152.506 79.5039 152.506ZM90.5645 157.257L91.9863 151.604H93.251L91.0977 159H90.0723L88.2744 153.395L86.5244 159H85.499L83.3525 151.604H84.6104L86.0664 157.141L87.7891 151.604H88.8076L90.5645 157.257ZM99.1094 159C99.0365 158.854 98.9772 158.594 98.9316 158.221C98.3438 158.831 97.6419 159.137 96.8262 159.137C96.097 159.137 95.4977 158.932 95.0283 158.521C94.5635 158.107 94.3311 157.583 94.3311 156.949C94.3311 156.179 94.6227 155.582 95.2061 155.158C95.7939 154.73 96.6188 154.516 97.6807 154.516H98.9111V153.935C98.9111 153.493 98.779 153.142 98.5146 152.882C98.2503 152.618 97.8607 152.485 97.3457 152.485C96.8945 152.485 96.5163 152.599 96.2109 152.827C95.9056 153.055 95.7529 153.331 95.7529 153.654H94.4814C94.4814 153.285 94.6113 152.93 94.8711 152.588C95.1354 152.242 95.4909 151.968 95.9375 151.768C96.3887 151.567 96.8831 151.467 97.4209 151.467C98.2731 151.467 98.9408 151.681 99.4238 152.109C99.9069 152.533 100.158 153.119 100.176 153.866V157.271C100.176 157.95 100.262 158.49 100.436 158.891V159H99.1094ZM97.0107 158.036C97.4072 158.036 97.7832 157.934 98.1387 157.729C98.4941 157.523 98.7516 157.257 98.9111 156.929V155.411H97.9199C96.3704 155.411 95.5957 155.865 95.5957 156.771C95.5957 157.168 95.7279 157.478 95.9922 157.701C96.2565 157.924 96.596 158.036 97.0107 158.036ZM105.733 152.738C105.542 152.706 105.335 152.69 105.111 152.69C104.282 152.69 103.719 153.044 103.423 153.75V159H102.158V151.604H103.389L103.409 152.458C103.824 151.797 104.412 151.467 105.173 151.467C105.419 151.467 105.606 151.499 105.733 151.562V152.738ZM106.458 155.24C106.458 154.105 106.727 153.194 107.265 152.506C107.802 151.813 108.507 151.467 109.377 151.467C110.243 151.467 110.929 151.763 111.435 152.355V148.5H112.699V159H111.537L111.476 158.207C110.97 158.827 110.266 159.137 109.363 159.137C108.507 159.137 107.807 158.786 107.265 158.084C106.727 157.382 106.458 156.466 106.458 155.336V155.24ZM107.723 155.384C107.723 156.222 107.896 156.879 108.242 157.353C108.589 157.826 109.067 158.063 109.678 158.063C110.48 158.063 111.065 157.703 111.435 156.983V153.586C111.056 152.889 110.475 152.54 109.691 152.54C109.072 152.54 108.589 152.779 108.242 153.258C107.896 153.736 107.723 154.445 107.723 155.384Z" fill="#182848"/>
<g filter="url(#filter1_d)">
<rect x="234" y="24" width="200" height="168" fill="#F1F1F1"/>
</g>
<g filter="url(#filter2_d)">
<rect x="454" y="24" width="200" height="168" fill="#F1F1F1"/>
</g>
<line x1="29" y1="67.5" x2="169" y2="67.5" stroke="#C4C4C4"/>
<line x1="29" y1="99.5" x2="169" y2="99.5" stroke="#C4C4C4"/>
<line x1="29" y1="131.5" x2="169" y2="131.5" stroke="#C4C4C4"/>
<line x1="26" y1="163.5" x2="166" y2="163.5" stroke="#C4C4C4"/>
<line x1="259" y1="67.5" x2="399" y2="67.5" stroke="#C4C4C4"/>
<line x1="259" y1="99.5" x2="399" y2="99.5" stroke="#C4C4C4"/>
<line x1="259" y1="131.5" x2="399" y2="131.5" stroke="#C4C4C4"/>
<line x1="256" y1="163.5" x2="396" y2="163.5" stroke="#C4C4C4"/>
<line x1="489" y1="67.5" x2="629" y2="67.5" stroke="#C4C4C4"/>
<line x1="489" y1="99.5" x2="629" y2="99.5" stroke="#C4C4C4"/>
<line x1="489" y1="131.5" x2="629" y2="131.5" stroke="#C4C4C4"/>
<line x1="486" y1="163.5" x2="626" y2="163.5" stroke="#C4C4C4"/>
<path d="M266.349 60H259.827V59.0908L263.272 55.2627C263.783 54.6839 264.134 54.2145 264.325 53.8545C264.521 53.4899 264.619 53.1139 264.619 52.7266C264.619 52.207 264.462 51.7809 264.147 51.4482C263.833 51.1156 263.414 50.9492 262.89 50.9492C262.261 50.9492 261.771 51.1292 261.42 51.4893C261.074 51.8447 260.9 52.3415 260.9 52.9795H259.636C259.636 52.0635 259.93 51.3229 260.518 50.7578C261.11 50.1927 261.901 49.9102 262.89 49.9102C263.815 49.9102 264.546 50.154 265.084 50.6416C265.622 51.1247 265.891 51.7695 265.891 52.5762C265.891 53.556 265.266 54.7227 264.018 56.0762L261.352 58.9678H266.349V60ZM271.845 60H270.573V51.5713L268.023 52.5078V51.3594L271.646 49.999H271.845V60ZM275.639 61.9824L274.921 61.4902C275.349 60.8932 275.573 60.278 275.591 59.6445V58.5029H276.828V59.4941C276.828 59.9544 276.714 60.4147 276.486 60.875C276.263 61.3353 275.98 61.7044 275.639 61.9824ZM284.539 55.7549C284.539 57.236 284.286 58.3366 283.78 59.0566C283.274 59.7767 282.484 60.1367 281.408 60.1367C280.346 60.1367 279.56 59.7858 279.05 59.084C278.539 58.3776 278.275 57.3249 278.257 55.9258V54.2373C278.257 52.7744 278.51 51.6875 279.016 50.9766C279.521 50.2656 280.314 49.9102 281.395 49.9102C282.465 49.9102 283.254 50.2542 283.76 50.9424C284.266 51.626 284.525 52.6833 284.539 54.1143V55.7549ZM283.274 54.0254C283.274 52.9544 283.124 52.1751 282.823 51.6875C282.522 51.1953 282.046 50.9492 281.395 50.9492C280.747 50.9492 280.276 51.193 279.979 51.6807C279.683 52.1683 279.531 52.918 279.521 53.9297V55.9531C279.521 57.0286 279.676 57.8239 279.986 58.3389C280.301 58.8493 280.775 59.1045 281.408 59.1045C282.033 59.1045 282.495 58.863 282.796 58.3799C283.101 57.8968 283.261 57.1357 283.274 56.0967V54.0254ZM292.4 55.7549C292.4 57.236 292.147 58.3366 291.642 59.0566C291.136 59.7767 290.345 60.1367 289.27 60.1367C288.208 60.1367 287.422 59.7858 286.911 59.084C286.401 58.3776 286.136 57.3249 286.118 55.9258V54.2373C286.118 52.7744 286.371 51.6875 286.877 50.9766C287.383 50.2656 288.176 49.9102 289.256 49.9102C290.327 49.9102 291.115 50.2542 291.621 50.9424C292.127 51.626 292.387 52.6833 292.4 54.1143V55.7549ZM291.136 54.0254C291.136 52.9544 290.985 52.1751 290.685 51.6875C290.384 51.1953 289.908 50.9492 289.256 50.9492C288.609 50.9492 288.137 51.193 287.841 51.6807C287.545 52.1683 287.392 52.918 287.383 53.9297V55.9531C287.383 57.0286 287.538 57.8239 287.848 58.3389C288.162 58.8493 288.636 59.1045 289.27 59.1045C289.894 59.1045 290.356 58.863 290.657 58.3799C290.963 57.8968 291.122 57.1357 291.136 56.0967V54.0254ZM300.262 55.7549C300.262 57.236 300.009 58.3366 299.503 59.0566C298.997 59.7767 298.206 60.1367 297.131 60.1367C296.069 60.1367 295.283 59.7858 294.772 59.084C294.262 58.3776 293.998 57.3249 293.979 55.9258V54.2373C293.979 52.7744 294.232 51.6875 294.738 50.9766C295.244 50.2656 296.037 49.9102 297.117 49.9102C298.188 49.9102 298.977 50.2542 299.482 50.9424C299.988 51.626 300.248 52.6833 300.262 54.1143V55.7549ZM298.997 54.0254C298.997 52.9544 298.847 52.1751 298.546 51.6875C298.245 51.1953 297.769 50.9492 297.117 50.9492C296.47 50.9492 295.998 51.193 295.702 51.6807C295.406 52.1683 295.253 52.918 295.244 53.9297V55.9531C295.244 57.0286 295.399 57.8239 295.709 58.3389C296.023 58.8493 296.497 59.1045 297.131 59.1045C297.755 59.1045 298.218 58.863 298.519 58.3799C298.824 57.8968 298.983 57.1357 298.997 56.0967V54.0254ZM301.971 61.9824L301.253 61.4902C301.681 60.8932 301.905 60.278 301.923 59.6445V58.5029H303.16V59.4941C303.16 59.9544 303.046 60.4147 302.818 60.875C302.595 61.3353 302.312 61.7044 301.971 61.9824ZM310.871 55.7549C310.871 57.236 310.618 58.3366 310.112 59.0566C309.606 59.7767 308.816 60.1367 307.74 60.1367C306.678 60.1367 305.892 59.7858 305.382 59.084C304.871 58.3776 304.607 57.3249 304.589 55.9258V54.2373C304.589 52.7744 304.842 51.6875 305.348 50.9766C305.854 50.2656 306.646 49.9102 307.727 49.9102C308.798 49.9102 309.586 50.2542 310.092 50.9424C310.598 51.626 310.857 52.6833 310.871 54.1143V55.7549ZM309.606 54.0254C309.606 52.9544 309.456 52.1751 309.155 51.6875C308.854 51.1953 308.378 50.9492 307.727 50.9492C307.079 50.9492 306.608 51.193 306.312 51.6807C306.015 52.1683 305.863 52.918 305.854 53.9297V55.9531C305.854 57.0286 306.008 57.8239 306.318 58.3389C306.633 58.8493 307.107 59.1045 307.74 59.1045C308.365 59.1045 308.827 58.863 309.128 58.3799C309.433 57.8968 309.593 57.1357 309.606 56.0967V54.0254ZM318.732 55.7549C318.732 57.236 318.479 58.3366 317.974 59.0566C317.468 59.7767 316.677 60.1367 315.602 60.1367C314.54 60.1367 313.754 59.7858 313.243 59.084C312.733 58.3776 312.468 57.3249 312.45 55.9258V54.2373C312.45 52.7744 312.703 51.6875 313.209 50.9766C313.715 50.2656 314.508 49.9102 315.588 49.9102C316.659 49.9102 317.447 50.2542 317.953 50.9424C318.459 51.626 318.719 52.6833 318.732 54.1143V55.7549ZM317.468 54.0254C317.468 52.9544 317.317 52.1751 317.017 51.6875C316.716 51.1953 316.24 50.9492 315.588 50.9492C314.941 50.9492 314.469 51.193 314.173 51.6807C313.877 52.1683 313.724 52.918 313.715 53.9297V55.9531C313.715 57.0286 313.87 57.8239 314.18 58.3389C314.494 58.8493 314.968 59.1045 315.602 59.1045C316.226 59.1045 316.688 58.863 316.989 58.3799C317.295 57.8968 317.454 57.1357 317.468 56.0967V54.0254ZM326.594 55.7549C326.594 57.236 326.341 58.3366 325.835 59.0566C325.329 59.7767 324.538 60.1367 323.463 60.1367C322.401 60.1367 321.615 59.7858 321.104 59.084C320.594 58.3776 320.33 57.3249 320.312 55.9258V54.2373C320.312 52.7744 320.564 51.6875 321.07 50.9766C321.576 50.2656 322.369 49.9102 323.449 49.9102C324.52 49.9102 325.309 50.2542 325.814 50.9424C326.32 51.626 326.58 52.6833 326.594 54.1143V55.7549ZM325.329 54.0254C325.329 52.9544 325.179 52.1751 324.878 51.6875C324.577 51.1953 324.101 50.9492 323.449 50.9492C322.802 50.9492 322.33 51.193 322.034 51.6807C321.738 52.1683 321.585 52.918 321.576 53.9297V55.9531C321.576 57.0286 321.731 57.8239 322.041 58.3389C322.355 58.8493 322.829 59.1045 323.463 59.1045C324.087 59.1045 324.55 58.863 324.851 58.3799C325.156 57.8968 325.315 57.1357 325.329 56.0967V54.0254Z" fill="#182848"/>
<path d="M263.088 88.5635C261.962 88.2399 261.142 87.8434 260.627 87.374C260.117 86.9001 259.861 86.3167 259.861 85.624C259.861 84.8402 260.174 84.193 260.798 83.6826C261.427 83.1676 262.243 82.9102 263.245 82.9102C263.929 82.9102 264.537 83.0423 265.07 83.3066C265.608 83.571 266.023 83.9355 266.314 84.4004C266.611 84.8652 266.759 85.3734 266.759 85.9248H265.439C265.439 85.3232 265.248 84.8516 264.865 84.5098C264.482 84.1634 263.942 83.9902 263.245 83.9902C262.598 83.9902 262.092 84.1338 261.728 84.4209C261.368 84.7035 261.188 85.0977 261.188 85.6035C261.188 86.0091 261.358 86.3532 261.7 86.6357C262.047 86.9137 262.632 87.1689 263.457 87.4014C264.286 87.6338 264.934 87.8913 265.398 88.1738C265.868 88.4518 266.214 88.7777 266.438 89.1514C266.665 89.5251 266.779 89.9648 266.779 90.4707C266.779 91.2773 266.465 91.9245 265.836 92.4121C265.207 92.8952 264.366 93.1367 263.313 93.1367C262.63 93.1367 261.992 93.0068 261.399 92.7471C260.807 92.4827 260.349 92.1227 260.025 91.667C259.706 91.2113 259.547 90.694 259.547 90.1152H260.866C260.866 90.7168 261.087 91.193 261.529 91.5439C261.976 91.8903 262.571 92.0635 263.313 92.0635C264.006 92.0635 264.537 91.9222 264.906 91.6396C265.275 91.3571 265.46 90.972 265.46 90.4844C265.46 89.9967 265.289 89.6208 264.947 89.3564C264.605 89.0876 263.986 88.8232 263.088 88.5635ZM276.117 93H274.798V88.3994H269.78V93H268.468V83.0469H269.78V87.3262H274.798V83.0469H276.117V93ZM284.067 90.4023H279.897L278.961 93H277.607L281.408 83.0469H282.557L286.364 93H285.018L284.067 90.4023ZM280.294 89.3223H283.678L281.982 84.667L280.294 89.3223ZM290.138 89.2881H286.802V88.2559H290.138V89.2881ZM297.767 93H291.245V92.0908L294.69 88.2627C295.201 87.6839 295.552 87.2145 295.743 86.8545C295.939 86.4899 296.037 86.1139 296.037 85.7266C296.037 85.207 295.88 84.7809 295.565 84.4482C295.251 84.1156 294.832 83.9492 294.308 83.9492C293.679 83.9492 293.189 84.1292 292.838 84.4893C292.492 84.8447 292.318 85.3415 292.318 85.9795H291.054C291.054 85.0635 291.348 84.3229 291.936 83.7578C292.528 83.1927 293.319 82.9102 294.308 82.9102C295.233 82.9102 295.964 83.154 296.502 83.6416C297.04 84.1247 297.309 84.7695 297.309 85.5762C297.309 86.556 296.684 87.7227 295.436 89.0762L292.77 91.9678H297.767V93ZM299.688 88.0098L300.193 83.0469H305.293V84.2158H301.267L300.966 86.9297C301.453 86.6426 302.007 86.499 302.627 86.499C303.534 86.499 304.254 86.7998 304.787 87.4014C305.32 87.9984 305.587 88.8073 305.587 89.8281C305.587 90.8535 305.309 91.6624 304.753 92.2549C304.201 92.8428 303.429 93.1367 302.436 93.1367C301.556 93.1367 300.838 92.8929 300.282 92.4053C299.726 91.9176 299.41 91.2432 299.332 90.3818H300.528C300.606 90.9515 300.809 91.3822 301.137 91.6738C301.465 91.9609 301.898 92.1045 302.436 92.1045C303.023 92.1045 303.484 91.904 303.816 91.5029C304.154 91.1019 304.322 90.5482 304.322 89.8418C304.322 89.1764 304.14 88.6432 303.775 88.2422C303.415 87.8366 302.935 87.6338 302.333 87.6338C301.782 87.6338 301.349 87.7546 301.034 87.9961L300.699 88.2695L299.688 88.0098ZM311.931 83.04V84.1133H311.698C310.714 84.1315 309.93 84.4232 309.347 84.9883C308.763 85.5534 308.426 86.3486 308.335 87.374C308.859 86.7725 309.575 86.4717 310.481 86.4717C311.347 86.4717 312.038 86.777 312.553 87.3877C313.072 87.9984 313.332 88.7868 313.332 89.7529C313.332 90.7783 313.052 91.5986 312.491 92.2139C311.935 92.8291 311.188 93.1367 310.249 93.1367C309.297 93.1367 308.524 92.7721 307.932 92.043C307.339 91.3092 307.043 90.3659 307.043 89.2129V88.7275C307.043 86.8955 307.433 85.4964 308.212 84.5303C308.996 83.5596 310.16 83.0628 311.705 83.04H311.931ZM310.27 87.5244C309.837 87.5244 309.438 87.6543 309.073 87.9141C308.709 88.1738 308.456 88.4997 308.314 88.8916V89.3564C308.314 90.1768 308.499 90.8376 308.868 91.3389C309.237 91.8402 309.698 92.0908 310.249 92.0908C310.819 92.0908 311.265 91.8812 311.589 91.4619C311.917 91.0426 312.081 90.4935 312.081 89.8145C312.081 89.1309 311.915 88.5794 311.582 88.1602C311.254 87.7363 310.816 87.5244 310.27 87.5244Z" fill="#182848"/>
<path d="M263.026 126.137C262.024 126.137 261.208 125.809 260.579 125.152C259.95 124.492 259.636 123.61 259.636 122.507V122.274C259.636 121.541 259.775 120.887 260.053 120.312C260.335 119.734 260.727 119.283 261.229 118.959C261.734 118.631 262.281 118.467 262.869 118.467C263.831 118.467 264.578 118.784 265.111 119.417C265.645 120.05 265.911 120.957 265.911 122.138V122.664H260.9C260.919 123.393 261.131 123.983 261.536 124.435C261.946 124.881 262.466 125.104 263.095 125.104C263.541 125.104 263.92 125.013 264.229 124.831C264.539 124.649 264.811 124.407 265.043 124.106L265.815 124.708C265.196 125.66 264.266 126.137 263.026 126.137ZM262.869 119.506C262.359 119.506 261.93 119.693 261.584 120.066C261.238 120.436 261.023 120.955 260.941 121.625H264.646V121.529C264.61 120.887 264.437 120.39 264.127 120.039C263.817 119.684 263.398 119.506 262.869 119.506ZM269.726 124.284L271.558 118.604H272.85L270.197 126H269.233L266.554 118.604H267.846L269.726 124.284ZM277.04 126.137C276.037 126.137 275.222 125.809 274.593 125.152C273.964 124.492 273.649 123.61 273.649 122.507V122.274C273.649 121.541 273.788 120.887 274.066 120.312C274.349 119.734 274.741 119.283 275.242 118.959C275.748 118.631 276.295 118.467 276.883 118.467C277.844 118.467 278.592 118.784 279.125 119.417C279.658 120.05 279.925 120.957 279.925 122.138V122.664H274.914C274.932 123.393 275.144 123.983 275.55 124.435C275.96 124.881 276.479 125.104 277.108 125.104C277.555 125.104 277.933 125.013 278.243 124.831C278.553 124.649 278.824 124.407 279.057 124.106L279.829 124.708C279.209 125.66 278.28 126.137 277.04 126.137ZM276.883 119.506C276.372 119.506 275.944 119.693 275.598 120.066C275.251 120.436 275.037 120.955 274.955 121.625H278.66V121.529C278.624 120.887 278.451 120.39 278.141 120.039C277.831 119.684 277.411 119.506 276.883 119.506ZM284.97 119.738C284.778 119.706 284.571 119.69 284.348 119.69C283.518 119.69 282.955 120.044 282.659 120.75V126H281.395V118.604H282.625L282.646 119.458C283.06 118.797 283.648 118.467 284.409 118.467C284.655 118.467 284.842 118.499 284.97 118.562V119.738ZM288.682 124.147L290.404 118.604H291.758L288.784 127.142C288.324 128.372 287.592 128.987 286.59 128.987L286.351 128.967L285.879 128.878V127.853L286.221 127.88C286.649 127.88 286.982 127.793 287.219 127.62C287.46 127.447 287.659 127.13 287.813 126.67L288.094 125.918L285.455 118.604H286.836L288.682 124.147ZM300.392 126H299.12V117.571L296.57 118.508V117.359L300.193 115.999H300.392V126ZM310.338 121.755C310.338 123.236 310.085 124.337 309.579 125.057C309.073 125.777 308.283 126.137 307.207 126.137C306.145 126.137 305.359 125.786 304.849 125.084C304.338 124.378 304.074 123.325 304.056 121.926V120.237C304.056 118.774 304.309 117.688 304.814 116.977C305.32 116.266 306.113 115.91 307.193 115.91C308.264 115.91 309.053 116.254 309.559 116.942C310.064 117.626 310.324 118.683 310.338 120.114V121.755ZM309.073 120.025C309.073 118.954 308.923 118.175 308.622 117.688C308.321 117.195 307.845 116.949 307.193 116.949C306.546 116.949 306.075 117.193 305.778 117.681C305.482 118.168 305.329 118.918 305.32 119.93V121.953C305.32 123.029 305.475 123.824 305.785 124.339C306.1 124.849 306.574 125.104 307.207 125.104C307.831 125.104 308.294 124.863 308.595 124.38C308.9 123.897 309.06 123.136 309.073 122.097V120.025ZM316.75 118.604L316.784 119.424C317.326 118.786 318.058 118.467 318.979 118.467C320.013 118.467 320.717 118.863 321.091 119.656C321.337 119.301 321.656 119.014 322.048 118.795C322.444 118.576 322.911 118.467 323.449 118.467C325.072 118.467 325.896 119.326 325.924 121.044V126H324.659V121.119C324.659 120.59 324.538 120.196 324.297 119.937C324.055 119.672 323.65 119.54 323.08 119.54C322.611 119.54 322.221 119.681 321.911 119.964C321.601 120.242 321.421 120.618 321.371 121.092V126H320.1V121.153C320.1 120.078 319.573 119.54 318.521 119.54C317.691 119.54 317.124 119.893 316.818 120.6V126H315.554V118.604H316.75ZM329.212 126H327.947V118.604H329.212V126ZM327.845 116.642C327.845 116.437 327.906 116.263 328.029 116.122C328.157 115.981 328.344 115.91 328.59 115.91C328.836 115.91 329.023 115.981 329.15 116.122C329.278 116.263 329.342 116.437 329.342 116.642C329.342 116.847 329.278 117.018 329.15 117.154C329.023 117.291 328.836 117.359 328.59 117.359C328.344 117.359 328.157 117.291 328.029 117.154C327.906 117.018 327.845 116.847 327.845 116.642ZM332.438 118.604L332.479 119.533C333.045 118.822 333.783 118.467 334.694 118.467C336.257 118.467 337.046 119.349 337.06 121.112V126H335.795V121.105C335.79 120.572 335.667 120.178 335.426 119.923C335.189 119.668 334.817 119.54 334.312 119.54C333.901 119.54 333.541 119.649 333.231 119.868C332.922 120.087 332.68 120.374 332.507 120.729V126H331.242V118.604H332.438ZM343.533 125.269C343.041 125.847 342.319 126.137 341.366 126.137C340.578 126.137 339.976 125.909 339.562 125.453C339.151 124.993 338.944 124.314 338.939 123.416V118.604H340.204V123.382C340.204 124.503 340.66 125.063 341.571 125.063C342.537 125.063 343.18 124.703 343.499 123.983V118.604H344.764V126H343.561L343.533 125.269ZM348.407 116.812V118.604H349.788V119.581H348.407V124.168C348.407 124.464 348.469 124.688 348.592 124.838C348.715 124.984 348.924 125.057 349.221 125.057C349.367 125.057 349.567 125.029 349.822 124.975V126C349.49 126.091 349.166 126.137 348.852 126.137C348.286 126.137 347.86 125.966 347.573 125.624C347.286 125.282 347.143 124.797 347.143 124.168V119.581H345.796V118.604H347.143V116.812H348.407ZM354.341 126.137C353.338 126.137 352.522 125.809 351.894 125.152C351.265 124.492 350.95 123.61 350.95 122.507V122.274C350.95 121.541 351.089 120.887 351.367 120.312C351.65 119.734 352.042 119.283 352.543 118.959C353.049 118.631 353.596 118.467 354.184 118.467C355.145 118.467 355.893 118.784 356.426 119.417C356.959 120.05 357.226 120.957 357.226 122.138V122.664H352.215C352.233 123.393 352.445 123.983 352.851 124.435C353.261 124.881 353.78 125.104 354.409 125.104C354.856 125.104 355.234 125.013 355.544 124.831C355.854 124.649 356.125 124.407 356.357 124.106L357.13 124.708C356.51 125.66 355.58 126.137 354.341 126.137ZM354.184 119.506C353.673 119.506 353.245 119.693 352.898 120.066C352.552 120.436 352.338 120.955 352.256 121.625H355.961V121.529C355.924 120.887 355.751 120.39 355.441 120.039C355.132 119.684 354.712 119.506 354.184 119.506ZM363.002 124.038C363.002 123.696 362.872 123.432 362.612 123.245C362.357 123.054 361.908 122.89 361.266 122.753C360.628 122.616 360.119 122.452 359.741 122.261C359.368 122.069 359.09 121.841 358.907 121.577C358.729 121.313 358.641 120.998 358.641 120.634C358.641 120.028 358.896 119.515 359.406 119.096C359.921 118.676 360.577 118.467 361.375 118.467C362.214 118.467 362.893 118.683 363.412 119.116C363.936 119.549 364.198 120.103 364.198 120.777H362.927C362.927 120.431 362.779 120.132 362.482 119.882C362.191 119.631 361.822 119.506 361.375 119.506C360.915 119.506 360.555 119.606 360.295 119.807C360.035 120.007 359.905 120.269 359.905 120.593C359.905 120.898 360.026 121.128 360.268 121.283C360.509 121.438 360.944 121.586 361.573 121.728C362.207 121.869 362.719 122.037 363.111 122.233C363.503 122.429 363.793 122.666 363.979 122.944C364.171 123.218 364.267 123.553 364.267 123.949C364.267 124.61 364.002 125.141 363.474 125.542C362.945 125.938 362.259 126.137 361.416 126.137C360.824 126.137 360.299 126.032 359.844 125.822C359.388 125.613 359.03 125.321 358.771 124.947C358.515 124.569 358.388 124.161 358.388 123.724H359.652C359.675 124.147 359.844 124.485 360.158 124.735C360.477 124.981 360.896 125.104 361.416 125.104C361.895 125.104 362.277 125.009 362.564 124.817C362.856 124.621 363.002 124.362 363.002 124.038Z" fill="#182848"/>
<path d="M263.983 159H262.712V150.571L260.162 151.508V150.359L263.785 148.999H263.983V159ZM274.21 159H267.688V158.091L271.134 154.263C271.644 153.684 271.995 153.215 272.187 152.854C272.382 152.49 272.48 152.114 272.48 151.727C272.48 151.207 272.323 150.781 272.009 150.448C271.694 150.116 271.275 149.949 270.751 149.949C270.122 149.949 269.632 150.129 269.281 150.489C268.935 150.845 268.762 151.341 268.762 151.979H267.497C267.497 151.063 267.791 150.323 268.379 149.758C268.971 149.193 269.762 148.91 270.751 148.91C271.676 148.91 272.408 149.154 272.945 149.642C273.483 150.125 273.752 150.77 273.752 151.576C273.752 152.556 273.128 153.723 271.879 155.076L269.213 157.968H274.21V159ZM275.707 158.337C275.707 158.118 275.771 157.936 275.898 157.79C276.031 157.644 276.227 157.571 276.486 157.571C276.746 157.571 276.942 157.644 277.074 157.79C277.211 157.936 277.279 158.118 277.279 158.337C277.279 158.547 277.211 158.722 277.074 158.863C276.942 159.005 276.746 159.075 276.486 159.075C276.227 159.075 276.031 159.005 275.898 158.863C275.771 158.722 275.707 158.547 275.707 158.337ZM279.822 154.01L280.328 149.047H285.428V150.216H281.401L281.101 152.93C281.588 152.643 282.142 152.499 282.762 152.499C283.669 152.499 284.389 152.8 284.922 153.401C285.455 153.998 285.722 154.807 285.722 155.828C285.722 156.854 285.444 157.662 284.888 158.255C284.336 158.843 283.564 159.137 282.57 159.137C281.691 159.137 280.973 158.893 280.417 158.405C279.861 157.918 279.544 157.243 279.467 156.382H280.663C280.741 156.951 280.943 157.382 281.271 157.674C281.6 157.961 282.033 158.104 282.57 158.104C283.158 158.104 283.618 157.904 283.951 157.503C284.288 157.102 284.457 156.548 284.457 155.842C284.457 155.176 284.275 154.643 283.91 154.242C283.55 153.837 283.069 153.634 282.468 153.634C281.916 153.634 281.483 153.755 281.169 153.996L280.834 154.27L279.822 154.01Z" fill="#182848"/>
<path d="M495.863 52.6445C495.863 53.1413 495.731 53.5833 495.467 53.9707C495.207 54.3581 494.854 54.6611 494.407 54.8799C494.927 55.1032 495.337 55.429 495.638 55.8574C495.943 56.2858 496.096 56.7712 496.096 57.3135C496.096 58.1748 495.804 58.8607 495.221 59.3711C494.642 59.8815 493.879 60.1367 492.931 60.1367C491.974 60.1367 491.206 59.8815 490.627 59.3711C490.053 58.8561 489.766 58.1702 489.766 57.3135C489.766 56.7757 489.911 56.2904 490.203 55.8574C490.499 55.4245 490.907 55.0964 491.427 54.873C490.985 54.6543 490.636 54.3512 490.381 53.9639C490.126 53.5765 489.998 53.1367 489.998 52.6445C489.998 51.806 490.267 51.1406 490.805 50.6484C491.342 50.1562 492.051 49.9102 492.931 49.9102C493.806 49.9102 494.512 50.1562 495.05 50.6484C495.592 51.1406 495.863 51.806 495.863 52.6445ZM494.831 57.2861C494.831 56.7301 494.653 56.2767 494.298 55.9258C493.947 55.5749 493.487 55.3994 492.917 55.3994C492.347 55.3994 491.889 55.5726 491.543 55.9189C491.201 56.2653 491.03 56.721 491.03 57.2861C491.03 57.8512 491.197 58.2956 491.529 58.6191C491.867 58.9427 492.334 59.1045 492.931 59.1045C493.523 59.1045 493.988 58.9427 494.325 58.6191C494.662 58.291 494.831 57.8467 494.831 57.2861ZM492.931 50.9492C492.434 50.9492 492.031 51.1042 491.721 51.4141C491.415 51.7194 491.263 52.1364 491.263 52.665C491.263 53.1709 491.413 53.5811 491.714 53.8955C492.019 54.2054 492.425 54.3604 492.931 54.3604C493.437 54.3604 493.84 54.2054 494.141 53.8955C494.446 53.5811 494.599 53.1709 494.599 52.665C494.599 52.1592 494.441 51.7467 494.127 51.4277C493.812 51.1087 493.414 50.9492 492.931 50.9492ZM503.027 56.6572H504.408V57.6895H503.027V60H501.756V57.6895H497.224V56.9443L501.681 50.0469H503.027V56.6572ZM498.659 56.6572H501.756V51.7764L501.605 52.0498L498.659 56.6572ZM505.639 61.9824L504.921 61.4902C505.349 60.8932 505.573 60.278 505.591 59.6445V58.5029H506.828V59.4941C506.828 59.9544 506.714 60.4147 506.486 60.875C506.263 61.3353 505.98 61.7044 505.639 61.9824ZM514.539 55.7549C514.539 57.236 514.286 58.3366 513.78 59.0566C513.274 59.7767 512.484 60.1367 511.408 60.1367C510.346 60.1367 509.56 59.7858 509.05 59.084C508.539 58.3776 508.275 57.3249 508.257 55.9258V54.2373C508.257 52.7744 508.51 51.6875 509.016 50.9766C509.521 50.2656 510.314 49.9102 511.395 49.9102C512.465 49.9102 513.254 50.2542 513.76 50.9424C514.266 51.626 514.525 52.6833 514.539 54.1143V55.7549ZM513.274 54.0254C513.274 52.9544 513.124 52.1751 512.823 51.6875C512.522 51.1953 512.046 50.9492 511.395 50.9492C510.747 50.9492 510.276 51.193 509.979 51.6807C509.683 52.1683 509.531 52.918 509.521 53.9297V55.9531C509.521 57.0286 509.676 57.8239 509.986 58.3389C510.301 58.8493 510.775 59.1045 511.408 59.1045C512.033 59.1045 512.495 58.863 512.796 58.3799C513.101 57.8968 513.261 57.1357 513.274 56.0967V54.0254ZM522.4 55.7549C522.4 57.236 522.147 58.3366 521.642 59.0566C521.136 59.7767 520.345 60.1367 519.27 60.1367C518.208 60.1367 517.422 59.7858 516.911 59.084C516.401 58.3776 516.136 57.3249 516.118 55.9258V54.2373C516.118 52.7744 516.371 51.6875 516.877 50.9766C517.383 50.2656 518.176 49.9102 519.256 49.9102C520.327 49.9102 521.115 50.2542 521.621 50.9424C522.127 51.626 522.387 52.6833 522.4 54.1143V55.7549ZM521.136 54.0254C521.136 52.9544 520.985 52.1751 520.685 51.6875C520.384 51.1953 519.908 50.9492 519.256 50.9492C518.609 50.9492 518.137 51.193 517.841 51.6807C517.545 52.1683 517.392 52.918 517.383 53.9297V55.9531C517.383 57.0286 517.538 57.8239 517.848 58.3389C518.162 58.8493 518.636 59.1045 519.27 59.1045C519.894 59.1045 520.356 58.863 520.657 58.3799C520.963 57.8968 521.122 57.1357 521.136 56.0967V54.0254ZM530.262 55.7549C530.262 57.236 530.009 58.3366 529.503 59.0566C528.997 59.7767 528.206 60.1367 527.131 60.1367C526.069 60.1367 525.283 59.7858 524.772 59.084C524.262 58.3776 523.998 57.3249 523.979 55.9258V54.2373C523.979 52.7744 524.232 51.6875 524.738 50.9766C525.244 50.2656 526.037 49.9102 527.117 49.9102C528.188 49.9102 528.977 50.2542 529.482 50.9424C529.988 51.626 530.248 52.6833 530.262 54.1143V55.7549ZM528.997 54.0254C528.997 52.9544 528.847 52.1751 528.546 51.6875C528.245 51.1953 527.769 50.9492 527.117 50.9492C526.47 50.9492 525.998 51.193 525.702 51.6807C525.406 52.1683 525.253 52.918 525.244 53.9297V55.9531C525.244 57.0286 525.399 57.8239 525.709 58.3389C526.023 58.8493 526.497 59.1045 527.131 59.1045C527.755 59.1045 528.218 58.863 528.519 58.3799C528.824 57.8968 528.983 57.1357 528.997 56.0967V54.0254ZM531.971 61.9824L531.253 61.4902C531.681 60.8932 531.905 60.278 531.923 59.6445V58.5029H533.16V59.4941C533.16 59.9544 533.046 60.4147 532.818 60.875C532.595 61.3353 532.312 61.7044 531.971 61.9824ZM540.871 55.7549C540.871 57.236 540.618 58.3366 540.112 59.0566C539.606 59.7767 538.816 60.1367 537.74 60.1367C536.678 60.1367 535.892 59.7858 535.382 59.084C534.871 58.3776 534.607 57.3249 534.589 55.9258V54.2373C534.589 52.7744 534.842 51.6875 535.348 50.9766C535.854 50.2656 536.646 49.9102 537.727 49.9102C538.798 49.9102 539.586 50.2542 540.092 50.9424C540.598 51.626 540.857 52.6833 540.871 54.1143V55.7549ZM539.606 54.0254C539.606 52.9544 539.456 52.1751 539.155 51.6875C538.854 51.1953 538.378 50.9492 537.727 50.9492C537.079 50.9492 536.608 51.193 536.312 51.6807C536.015 52.1683 535.863 52.918 535.854 53.9297V55.9531C535.854 57.0286 536.008 57.8239 536.318 58.3389C536.633 58.8493 537.107 59.1045 537.74 59.1045C538.365 59.1045 538.827 58.863 539.128 58.3799C539.433 57.8968 539.593 57.1357 539.606 56.0967V54.0254ZM548.732 55.7549C548.732 57.236 548.479 58.3366 547.974 59.0566C547.468 59.7767 546.677 60.1367 545.602 60.1367C544.54 60.1367 543.754 59.7858 543.243 59.084C542.733 58.3776 542.468 57.3249 542.45 55.9258V54.2373C542.45 52.7744 542.703 51.6875 543.209 50.9766C543.715 50.2656 544.508 49.9102 545.588 49.9102C546.659 49.9102 547.447 50.2542 547.953 50.9424C548.459 51.626 548.719 52.6833 548.732 54.1143V55.7549ZM547.468 54.0254C547.468 52.9544 547.317 52.1751 547.017 51.6875C546.716 51.1953 546.24 50.9492 545.588 50.9492C544.941 50.9492 544.469 51.193 544.173 51.6807C543.877 52.1683 543.724 52.918 543.715 53.9297V55.9531C543.715 57.0286 543.87 57.8239 544.18 58.3389C544.494 58.8493 544.968 59.1045 545.602 59.1045C546.226 59.1045 546.688 58.863 546.989 58.3799C547.295 57.8968 547.454 57.1357 547.468 56.0967V54.0254ZM556.594 55.7549C556.594 57.236 556.341 58.3366 555.835 59.0566C555.329 59.7767 554.538 60.1367 553.463 60.1367C552.401 60.1367 551.615 59.7858 551.104 59.084C550.594 58.3776 550.33 57.3249 550.312 55.9258V54.2373C550.312 52.7744 550.564 51.6875 551.07 50.9766C551.576 50.2656 552.369 49.9102 553.449 49.9102C554.52 49.9102 555.309 50.2542 555.814 50.9424C556.32 51.626 556.58 52.6833 556.594 54.1143V55.7549ZM555.329 54.0254C555.329 52.9544 555.179 52.1751 554.878 51.6875C554.577 51.1953 554.101 50.9492 553.449 50.9492C552.802 50.9492 552.33 51.193 552.034 51.6807C551.738 52.1683 551.585 52.918 551.576 53.9297V55.9531C551.576 57.0286 551.731 57.8239 552.041 58.3389C552.355 58.8493 552.829 59.1045 553.463 59.1045C554.087 59.1045 554.55 58.863 554.851 58.3799C555.156 57.8968 555.315 57.1357 555.329 56.0967V54.0254Z" fill="#182848"/>
<path d="M493.088 88.5635C491.962 88.2399 491.142 87.8434 490.627 87.374C490.117 86.9001 489.861 86.3167 489.861 85.624C489.861 84.8402 490.174 84.193 490.798 83.6826C491.427 83.1676 492.243 82.9102 493.245 82.9102C493.929 82.9102 494.537 83.0423 495.07 83.3066C495.608 83.571 496.023 83.9355 496.314 84.4004C496.611 84.8652 496.759 85.3734 496.759 85.9248H495.439C495.439 85.3232 495.248 84.8516 494.865 84.5098C494.482 84.1634 493.942 83.9902 493.245 83.9902C492.598 83.9902 492.092 84.1338 491.728 84.4209C491.368 84.7035 491.188 85.0977 491.188 85.6035C491.188 86.0091 491.358 86.3532 491.7 86.6357C492.047 86.9137 492.632 87.1689 493.457 87.4014C494.286 87.6338 494.934 87.8913 495.398 88.1738C495.868 88.4518 496.214 88.7777 496.438 89.1514C496.665 89.5251 496.779 89.9648 496.779 90.4707C496.779 91.2773 496.465 91.9245 495.836 92.4121C495.207 92.8952 494.366 93.1367 493.313 93.1367C492.63 93.1367 491.992 93.0068 491.399 92.7471C490.807 92.4827 490.349 92.1227 490.025 91.667C489.706 91.2113 489.547 90.694 489.547 90.1152H490.866C490.866 90.7168 491.087 91.193 491.529 91.5439C491.976 91.8903 492.571 92.0635 493.313 92.0635C494.006 92.0635 494.537 91.9222 494.906 91.6396C495.275 91.3571 495.46 90.972 495.46 90.4844C495.46 89.9967 495.289 89.6208 494.947 89.3564C494.605 89.0876 493.986 88.8232 493.088 88.5635ZM500.901 89.2881H497.565V88.2559H500.901V89.2881ZM505.105 92.1045C505.557 92.1045 505.951 91.9678 506.288 91.6943C506.625 91.4209 506.812 91.0791 506.849 90.6689H508.045C508.022 91.0928 507.876 91.4961 507.607 91.8789C507.339 92.2617 506.979 92.5671 506.527 92.7949C506.081 93.0228 505.607 93.1367 505.105 93.1367C504.098 93.1367 503.296 92.8018 502.699 92.1318C502.107 91.4574 501.811 90.5368 501.811 89.3701V89.1582C501.811 88.4382 501.943 87.7979 502.207 87.2373C502.471 86.6768 502.85 86.2415 503.342 85.9316C503.839 85.6217 504.424 85.4668 505.099 85.4668C505.928 85.4668 506.616 85.7152 507.163 86.2119C507.715 86.7087 508.008 87.3535 508.045 88.1465H506.849C506.812 87.668 506.63 87.276 506.302 86.9707C505.978 86.6608 505.577 86.5059 505.099 86.5059C504.456 86.5059 503.957 86.7383 503.602 87.2031C503.251 87.6634 503.075 88.3311 503.075 89.2061V89.4453C503.075 90.2975 503.251 90.9538 503.602 91.4141C503.952 91.8743 504.454 92.1045 505.105 92.1045ZM513.042 86.7383C512.851 86.7064 512.643 86.6904 512.42 86.6904C511.59 86.6904 511.028 87.0436 510.731 87.75V93H509.467V85.6035H510.697L510.718 86.458C511.132 85.7972 511.72 85.4668 512.481 85.4668C512.728 85.4668 512.914 85.4987 513.042 85.5625V86.7383ZM516.754 91.1475L518.477 85.6035H519.83L516.856 94.1416C516.396 95.3721 515.665 95.9873 514.662 95.9873L514.423 95.9668L513.951 95.8779V94.8525L514.293 94.8799C514.721 94.8799 515.054 94.7933 515.291 94.6201C515.533 94.4469 515.731 94.1302 515.886 93.6699L516.166 92.918L513.527 85.6035H514.908L516.754 91.1475ZM527.213 89.3838C527.213 90.5094 526.955 91.4163 526.44 92.1045C525.925 92.7926 525.228 93.1367 524.349 93.1367C523.451 93.1367 522.744 92.8519 522.229 92.2822V95.8438H520.965V85.6035H522.12L522.182 86.4238C522.697 85.7858 523.412 85.4668 524.328 85.4668C525.217 85.4668 525.919 85.8018 526.434 86.4717C526.953 87.1416 527.213 88.0736 527.213 89.2676V89.3838ZM525.948 89.2402C525.948 88.4062 525.771 87.7477 525.415 87.2646C525.06 86.7816 524.572 86.54 523.952 86.54C523.187 86.54 522.612 86.8796 522.229 87.5586V91.0928C522.608 91.7673 523.187 92.1045 523.966 92.1045C524.572 92.1045 525.053 91.8652 525.408 91.3867C525.768 90.9036 525.948 90.1882 525.948 89.2402ZM530.542 83.8125V85.6035H531.923V86.5811H530.542V91.168C530.542 91.4642 530.604 91.6875 530.727 91.8379C530.85 91.9837 531.059 92.0566 531.355 92.0566C531.501 92.0566 531.702 92.0293 531.957 91.9746V93C531.624 93.0911 531.301 93.1367 530.986 93.1367C530.421 93.1367 529.995 92.9658 529.708 92.624C529.421 92.2822 529.277 91.7969 529.277 91.168V86.5811H527.931V85.6035H529.277V83.8125H530.542Z" fill="#182848"/>
<path d="M493.026 126.137C492.024 126.137 491.208 125.809 490.579 125.152C489.95 124.492 489.636 123.61 489.636 122.507V122.274C489.636 121.541 489.775 120.887 490.053 120.312C490.335 119.734 490.727 119.283 491.229 118.959C491.734 118.631 492.281 118.467 492.869 118.467C493.831 118.467 494.578 118.784 495.111 119.417C495.645 120.05 495.911 120.957 495.911 122.138V122.664H490.9C490.919 123.393 491.131 123.983 491.536 124.435C491.946 124.881 492.466 125.104 493.095 125.104C493.541 125.104 493.92 125.013 494.229 124.831C494.539 124.649 494.811 124.407 495.043 124.106L495.815 124.708C495.196 125.66 494.266 126.137 493.026 126.137ZM492.869 119.506C492.359 119.506 491.93 119.693 491.584 120.066C491.238 120.436 491.023 120.955 490.941 121.625H494.646V121.529C494.61 120.887 494.437 120.39 494.127 120.039C493.817 119.684 493.398 119.506 492.869 119.506ZM499.726 124.284L501.558 118.604H502.85L500.197 126H499.233L496.554 118.604H497.846L499.726 124.284ZM507.04 126.137C506.037 126.137 505.222 125.809 504.593 125.152C503.964 124.492 503.649 123.61 503.649 122.507V122.274C503.649 121.541 503.788 120.887 504.066 120.312C504.349 119.734 504.741 119.283 505.242 118.959C505.748 118.631 506.295 118.467 506.883 118.467C507.844 118.467 508.592 118.784 509.125 119.417C509.658 120.05 509.925 120.957 509.925 122.138V122.664H504.914C504.932 123.393 505.144 123.983 505.55 124.435C505.96 124.881 506.479 125.104 507.108 125.104C507.555 125.104 507.933 125.013 508.243 124.831C508.553 124.649 508.824 124.407 509.057 124.106L509.829 124.708C509.209 125.66 508.28 126.137 507.04 126.137ZM506.883 119.506C506.372 119.506 505.944 119.693 505.598 120.066C505.251 120.436 505.037 120.955 504.955 121.625H508.66V121.529C508.624 120.887 508.451 120.39 508.141 120.039C507.831 119.684 507.411 119.506 506.883 119.506ZM514.97 119.738C514.778 119.706 514.571 119.69 514.348 119.69C513.518 119.69 512.955 120.044 512.659 120.75V126H511.395V118.604H512.625L512.646 119.458C513.06 118.797 513.648 118.467 514.409 118.467C514.655 118.467 514.842 118.499 514.97 118.562V119.738ZM518.682 124.147L520.404 118.604H521.758L518.784 127.142C518.324 128.372 517.592 128.987 516.59 128.987L516.351 128.967L515.879 128.878V127.853L516.221 127.88C516.649 127.88 516.982 127.793 517.219 127.62C517.46 127.447 517.659 127.13 517.813 126.67L518.094 125.918L515.455 118.604H516.836L518.682 124.147ZM532.757 126H526.235V125.091L529.681 121.263C530.191 120.684 530.542 120.215 530.733 119.854C530.929 119.49 531.027 119.114 531.027 118.727C531.027 118.207 530.87 117.781 530.556 117.448C530.241 117.116 529.822 116.949 529.298 116.949C528.669 116.949 528.179 117.129 527.828 117.489C527.482 117.845 527.309 118.341 527.309 118.979H526.044C526.044 118.063 526.338 117.323 526.926 116.758C527.518 116.193 528.309 115.91 529.298 115.91C530.223 115.91 530.954 116.154 531.492 116.642C532.03 117.125 532.299 117.77 532.299 118.576C532.299 119.556 531.674 120.723 530.426 122.076L527.76 124.968H532.757V126ZM534.254 125.337C534.254 125.118 534.318 124.936 534.445 124.79C534.577 124.644 534.773 124.571 535.033 124.571C535.293 124.571 535.489 124.644 535.621 124.79C535.758 124.936 535.826 125.118 535.826 125.337C535.826 125.547 535.758 125.722 535.621 125.863C535.489 126.005 535.293 126.075 535.033 126.075C534.773 126.075 534.577 126.005 534.445 125.863C534.318 125.722 534.254 125.547 534.254 125.337ZM538.369 121.01L538.875 116.047H543.975V117.216H539.948L539.647 119.93C540.135 119.643 540.689 119.499 541.309 119.499C542.215 119.499 542.936 119.8 543.469 120.401C544.002 120.998 544.269 121.807 544.269 122.828C544.269 123.854 543.991 124.662 543.435 125.255C542.883 125.843 542.111 126.137 541.117 126.137C540.238 126.137 539.52 125.893 538.964 125.405C538.408 124.918 538.091 124.243 538.014 123.382H539.21C539.287 123.951 539.49 124.382 539.818 124.674C540.146 124.961 540.579 125.104 541.117 125.104C541.705 125.104 542.165 124.904 542.498 124.503C542.835 124.102 543.004 123.548 543.004 122.842C543.004 122.176 542.822 121.643 542.457 121.242C542.097 120.837 541.616 120.634 541.015 120.634C540.463 120.634 540.03 120.755 539.716 120.996L539.381 121.27L538.369 121.01ZM550.441 118.604L550.476 119.424C551.018 118.786 551.749 118.467 552.67 118.467C553.704 118.467 554.409 118.863 554.782 119.656C555.028 119.301 555.347 119.014 555.739 118.795C556.136 118.576 556.603 118.467 557.141 118.467C558.763 118.467 559.588 119.326 559.615 121.044V126H558.351V121.119C558.351 120.59 558.23 120.196 557.988 119.937C557.747 119.672 557.341 119.54 556.771 119.54C556.302 119.54 555.912 119.681 555.603 119.964C555.293 120.242 555.113 120.618 555.062 121.092V126H553.791V121.153C553.791 120.078 553.265 119.54 552.212 119.54C551.382 119.54 550.815 119.893 550.51 120.6V126H549.245V118.604H550.441ZM562.903 126H561.639V118.604H562.903V126ZM561.536 116.642C561.536 116.437 561.598 116.263 561.721 116.122C561.848 115.981 562.035 115.91 562.281 115.91C562.527 115.91 562.714 115.981 562.842 116.122C562.969 116.263 563.033 116.437 563.033 116.642C563.033 116.847 562.969 117.018 562.842 117.154C562.714 117.291 562.527 117.359 562.281 117.359C562.035 117.359 561.848 117.291 561.721 117.154C561.598 117.018 561.536 116.847 561.536 116.642ZM566.13 118.604L566.171 119.533C566.736 118.822 567.474 118.467 568.386 118.467C569.949 118.467 570.737 119.349 570.751 121.112V126H569.486V121.105C569.482 120.572 569.359 120.178 569.117 119.923C568.88 119.668 568.509 119.54 568.003 119.54C567.593 119.54 567.233 119.649 566.923 119.868C566.613 120.087 566.371 120.374 566.198 120.729V126H564.934V118.604H566.13ZM577.225 125.269C576.732 125.847 576.01 126.137 575.058 126.137C574.269 126.137 573.668 125.909 573.253 125.453C572.843 124.993 572.635 124.314 572.631 123.416V118.604H573.896V123.382C573.896 124.503 574.351 125.063 575.263 125.063C576.229 125.063 576.871 124.703 577.19 123.983V118.604H578.455V126H577.252L577.225 125.269ZM582.099 116.812V118.604H583.479V119.581H582.099V124.168C582.099 124.464 582.16 124.688 582.283 124.838C582.406 124.984 582.616 125.057 582.912 125.057C583.058 125.057 583.258 125.029 583.514 124.975V126C583.181 126.091 582.857 126.137 582.543 126.137C581.978 126.137 581.552 125.966 581.265 125.624C580.978 125.282 580.834 124.797 580.834 124.168V119.581H579.487V118.604H580.834V116.812H582.099ZM588.032 126.137C587.03 126.137 586.214 125.809 585.585 125.152C584.956 124.492 584.642 123.61 584.642 122.507V122.274C584.642 121.541 584.781 120.887 585.059 120.312C585.341 119.734 585.733 119.283 586.234 118.959C586.74 118.631 587.287 118.467 587.875 118.467C588.837 118.467 589.584 118.784 590.117 119.417C590.65 120.05 590.917 120.957 590.917 122.138V122.664H585.906C585.924 123.393 586.136 123.983 586.542 124.435C586.952 124.881 587.472 125.104 588.101 125.104C588.547 125.104 588.925 125.013 589.235 124.831C589.545 124.649 589.816 124.407 590.049 124.106L590.821 124.708C590.201 125.66 589.272 126.137 588.032 126.137ZM587.875 119.506C587.365 119.506 586.936 119.693 586.59 120.066C586.243 120.436 586.029 120.955 585.947 121.625H589.652V121.529C589.616 120.887 589.443 120.39 589.133 120.039C588.823 119.684 588.404 119.506 587.875 119.506ZM596.693 124.038C596.693 123.696 596.563 123.432 596.304 123.245C596.049 123.054 595.6 122.89 594.957 122.753C594.319 122.616 593.811 122.452 593.433 122.261C593.059 122.069 592.781 121.841 592.599 121.577C592.421 121.313 592.332 120.998 592.332 120.634C592.332 120.028 592.587 119.515 593.098 119.096C593.613 118.676 594.269 118.467 595.066 118.467C595.905 118.467 596.584 118.683 597.104 119.116C597.628 119.549 597.89 120.103 597.89 120.777H596.618C596.618 120.431 596.47 120.132 596.174 119.882C595.882 119.631 595.513 119.506 595.066 119.506C594.606 119.506 594.246 119.606 593.986 119.807C593.727 120.007 593.597 120.269 593.597 120.593C593.597 120.898 593.717 121.128 593.959 121.283C594.201 121.438 594.636 121.586 595.265 121.728C595.898 121.869 596.411 122.037 596.803 122.233C597.195 122.429 597.484 122.666 597.671 122.944C597.862 123.218 597.958 123.553 597.958 123.949C597.958 124.61 597.694 125.141 597.165 125.542C596.636 125.938 595.951 126.137 595.107 126.137C594.515 126.137 593.991 126.032 593.535 125.822C593.079 125.613 592.722 125.321 592.462 124.947C592.207 124.569 592.079 124.161 592.079 123.724H593.344C593.367 124.147 593.535 124.485 593.85 124.735C594.169 124.981 594.588 125.104 595.107 125.104C595.586 125.104 595.969 125.009 596.256 124.817C596.548 124.621 596.693 124.362 596.693 124.038Z" fill="#182848"/>
<path d="M496.349 159H489.827V158.091L493.272 154.263C493.783 153.684 494.134 153.215 494.325 152.854C494.521 152.49 494.619 152.114 494.619 151.727C494.619 151.207 494.462 150.781 494.147 150.448C493.833 150.116 493.414 149.949 492.89 149.949C492.261 149.949 491.771 150.129 491.42 150.489C491.074 150.845 490.9 151.341 490.9 151.979H489.636C489.636 151.063 489.93 150.323 490.518 149.758C491.11 149.193 491.901 148.91 492.89 148.91C493.815 148.91 494.546 149.154 495.084 149.642C495.622 150.125 495.891 150.77 495.891 151.576C495.891 152.556 495.266 153.723 494.018 155.076L491.352 157.968H496.349V159ZM498.27 154.01L498.775 149.047H503.875V150.216H499.849L499.548 152.93C500.035 152.643 500.589 152.499 501.209 152.499C502.116 152.499 502.836 152.8 503.369 153.401C503.902 153.998 504.169 154.807 504.169 155.828C504.169 156.854 503.891 157.662 503.335 158.255C502.784 158.843 502.011 159.137 501.018 159.137C500.138 159.137 499.42 158.893 498.864 158.405C498.308 157.918 497.992 157.243 497.914 156.382H499.11C499.188 156.951 499.391 157.382 499.719 157.674C500.047 157.961 500.48 158.104 501.018 158.104C501.605 158.104 502.066 157.904 502.398 157.503C502.736 157.102 502.904 156.548 502.904 155.842C502.904 155.176 502.722 154.643 502.357 154.242C501.997 153.837 501.517 153.634 500.915 153.634C500.364 153.634 499.931 153.755 499.616 153.996L499.281 154.27L498.27 154.01Z" fill="#182848"/>
<path d="M322.155 13V3.04688H325.409C326.489 3.04688 327.3 3.27018 327.843 3.7168C328.39 4.16341 328.663 4.82422 328.663 5.69922C328.663 6.16406 328.531 6.5765 328.267 6.93652C328.002 7.29199 327.642 7.56771 327.187 7.76367C327.724 7.91406 328.148 8.20117 328.458 8.625C328.772 9.04427 328.93 9.54557 328.93 10.1289C328.93 11.0221 328.64 11.724 328.062 12.2344C327.483 12.7448 326.665 13 325.607 13H322.155ZM323.468 8.34473V11.9268H325.635C326.245 11.9268 326.726 11.7695 327.077 11.4551C327.433 11.1361 327.61 10.6986 327.61 10.1426C327.61 8.94401 326.959 8.34473 325.655 8.34473H323.468ZM323.468 7.29199H325.45C326.024 7.29199 326.482 7.14844 326.824 6.86133C327.171 6.57422 327.344 6.18457 327.344 5.69238C327.344 5.14551 327.184 4.74902 326.865 4.50293C326.546 4.25228 326.061 4.12695 325.409 4.12695H323.468V7.29199ZM337.563 4.12695H334.364V13H333.059V4.12695H329.866V3.04688H337.563V4.12695ZM346.17 9.8418C346.047 10.8945 345.657 11.708 345.001 12.2822C344.349 12.8519 343.481 13.1367 342.396 13.1367C341.221 13.1367 340.277 12.7152 339.566 11.8721C338.86 11.029 338.507 9.90104 338.507 8.48828V7.53125C338.507 6.60612 338.671 5.79264 338.999 5.09082C339.332 4.389 339.801 3.85124 340.407 3.47754C341.013 3.09928 341.715 2.91016 342.513 2.91016C343.57 2.91016 344.418 3.20638 345.056 3.79883C345.694 4.38672 346.065 5.20247 346.17 6.24609H344.851C344.737 5.45312 344.488 4.87891 344.105 4.52344C343.727 4.16797 343.196 3.99023 342.513 3.99023C341.674 3.99023 341.016 4.30013 340.537 4.91992C340.063 5.53971 339.826 6.42155 339.826 7.56543V8.5293C339.826 9.60938 340.052 10.4684 340.503 11.1064C340.954 11.7445 341.585 12.0635 342.396 12.0635C343.126 12.0635 343.684 11.8994 344.071 11.5713C344.463 11.2386 344.723 10.6621 344.851 9.8418H346.17Z" fill="#182848"/>
<path d="M545.475 11.9268H550.191V13H544.155V3.04688H545.475V11.9268ZM556.679 4.12695H553.479V13H552.174V4.12695H548.981V3.04688H556.679V4.12695ZM565.285 9.8418C565.162 10.8945 564.772 11.708 564.116 12.2822C563.465 12.8519 562.596 13.1367 561.512 13.1367C560.336 13.1367 559.393 12.7152 558.682 11.8721C557.975 11.029 557.622 9.90104 557.622 8.48828V7.53125C557.622 6.60612 557.786 5.79264 558.114 5.09082C558.447 4.389 558.916 3.85124 559.522 3.47754C560.129 3.09928 560.83 2.91016 561.628 2.91016C562.685 2.91016 563.533 3.20638 564.171 3.79883C564.809 4.38672 565.18 5.20247 565.285 6.24609H563.966C563.852 5.45312 563.604 4.87891 563.221 4.52344C562.842 4.16797 562.312 3.99023 561.628 3.99023C560.789 3.99023 560.131 4.30013 559.652 4.91992C559.178 5.53971 558.941 6.42155 558.941 7.56543V8.5293C558.941 9.60938 559.167 10.4684 559.618 11.1064C560.069 11.7445 560.701 12.0635 561.512 12.0635C562.241 12.0635 562.799 11.8994 563.187 11.5713C563.578 11.2386 563.838 10.6621 563.966 9.8418H565.285Z" fill="#182848"/>
<defs>
<filter id="filter0_d" x="0" y="24" width="208" height="176" filterUnits="userSpaceOnUse" color-interpolation-filters="sRGB">
<feFlood flood-opacity="0" result="BackgroundImageFix"/>
<feColorMatrix in="SourceAlpha" type="matrix" values="0 0 0 0 0 0 0 0 0 0 0 0 0 0 0 0 0 0 127 0"/>
<feOffset dy="4"/>
<feGaussianBlur stdDeviation="2"/>
<feColorMatrix type="matrix" values="0 0 0 0 0 0 0 0 0 0 0 0 0 0 0 0 0 0 0.1 0"/>
<feBlend mode="normal" in2="BackgroundImageFix" result="effect1_dropShadow"/>
<feBlend mode="normal" in="SourceGraphic" in2="effect1_dropShadow" result="shape"/>
</filter>
<filter id="filter1_d" x="230" y="24" width="208" height="176" filterUnits="userSpaceOnUse" color-interpolation-filters="sRGB">
<feFlood flood-opacity="0" result="BackgroundImageFix"/>
<feColorMatrix in="SourceAlpha" type="matrix" values="0 0 0 0 0 0 0 0 0 0 0 0 0 0 0 0 0 0 127 0"/>
<feOffset dy="4"/>
<feGaussianBlur stdDeviation="2"/>
<feColorMatrix type="matrix" values="0 0 0 0 0 0 0 0 0 0 0 0 0 0 0 0 0 0 0.25 0"/>
<feBlend mode="normal" in2="BackgroundImageFix" result="effect1_dropShadow"/>
<feBlend mode="normal" in="SourceGraphic" in2="effect1_dropShadow" result="shape"/>
</filter>
<filter id="filter2_d" x="450" y="24" width="208" height="176" filterUnits="userSpaceOnUse" color-interpolation-filters="sRGB">
<feFlood flood-opacity="0" result="BackgroundImageFix"/>
<feColorMatrix in="SourceAlpha" type="matrix" values="0 0 0 0 0 0 0 0 0 0 0 0 0 0 0 0 0 0 127 0"/>
<feOffset dy="4"/>
<feGaussianBlur stdDeviation="2"/>
<feColorMatrix type="matrix" values="0 0 0 0 0 0 0 0 0 0 0 0 0 0 0 0 0 0 0.25 0"/>
<feBlend mode="normal" in2="BackgroundImageFix" result="effect1_dropShadow"/>
<feBlend mode="normal" in="SourceGraphic" in2="effect1_dropShadow" result="shape"/>
</filter>
</defs>
</svg>
