<svg width="20" height="20" viewBox="0 0 20 20" fill="none" xmlns="http://www.w3.org/2000/svg">
<path fill-rule="evenodd" clip-rule="evenodd" d="M19.9983 10.0001C19.9983 15.5227 15.5216 20 9.99918 20C4.47667 20 0 15.5227 0 10.0001C0 4.47718 4.47673 0 9.99918 0C15.5216 0 19.9983 4.47718 19.9983 10.0001Z" fill="#1F8EFA"/>
<path fill-rule="evenodd" clip-rule="evenodd" d="M1.33527 5.88892C0.597615 5.88892 -1.73241e-08 6.48665 -1.73241e-08 7.22432C-1.73241e-08 7.96164 0.597615 8.55932 1.33527 8.55932C2.07251 8.55932 2.67013 7.96164 2.67013 7.22432C2.67013 6.48665 2.07251 5.88892 1.33527 5.88892ZM10.867 11.957C10.2285 12.3259 10.0095 13.142 10.3784 13.7802C10.7468 14.4188 11.5628 14.6377 12.2013 14.2689C12.8398 13.9005 13.0587 13.0844 12.6899 12.4457C12.3216 11.8075 11.5051 11.5886 10.867 11.957ZM4.23504 7.22432C4.23504 5.90491 4.89033 4.73926 5.89301 4.0334L4.91702 2.39854C3.74901 3.17937 2.87995 4.37254 2.5188 5.76997C2.94022 6.11388 3.20995 6.63741 3.20995 7.22427C3.20995 7.81077 2.94022 8.3343 2.5188 8.6782C2.87948 10.076 3.74854 11.2693 4.91702 12.0501L5.89301 10.4148C4.89033 9.70939 4.23504 8.54379 4.23504 7.22432ZM8.13438 3.32418C10.1715 3.32418 11.8428 4.88625 12.0183 6.87836L13.9205 6.85031C13.8269 5.37962 13.1845 4.05933 12.1974 3.08847C11.6898 3.28026 11.1035 3.25092 10.5967 2.95876C10.089 2.66577 9.77072 2.17152 9.6837 1.635C9.19033 1.49882 8.67108 1.42427 8.13426 1.42427C7.21141 1.42427 6.33889 1.64106 5.56419 2.02453L6.4918 3.68696C6.99082 3.45471 7.54752 3.32418 8.13438 3.32418ZM8.13438 11.1241C7.54752 11.1241 6.99082 10.9935 6.49186 10.7613L5.56425 12.4236C6.33895 12.8076 7.21147 13.0244 8.13438 13.0244C8.6712 13.0244 9.19044 12.9498 9.68376 12.8132C9.77077 12.2767 10.0892 11.7829 10.5967 11.4894C11.1039 11.1968 11.6898 11.168 12.1974 11.3598C13.1846 10.3889 13.827 9.06862 13.9206 7.59792L12.0178 7.56988C11.8428 9.56251 10.1716 11.1241 8.13438 11.1241ZM10.8665 2.49079C11.5051 2.85957 12.3211 2.64114 12.6895 2.00254C13.0583 1.36394 12.8399 0.547779 12.2013 0.178885C11.5628 -0.189538 10.7468 0.029364 10.3779 0.667961C10.0095 1.3062 10.2284 2.12237 10.8665 2.49079Z" transform="translate(1.86475 2.77588)" fill="white"/>
</svg>
