<svg width="18" height="20" viewBox="0 0 18 20" fill="none" xmlns="http://www.w3.org/2000/svg">
<path fill-rule="evenodd" clip-rule="evenodd" d="M11.7332 3.19557C12.475 2.34962 12.9728 1.17414 12.8367 0C11.7722 0.0395176 10.4779 0.672469 9.71624 1.51506C9.03258 2.2659 8.43331 3.46147 8.59217 4.60949C9.78077 4.69657 10.9949 4.04017 11.7332 3.19557ZM17.2429 14.6704C17.2166 14.7387 16.7968 16.1058 15.7748 17.513C14.8947 18.7327 13.977 19.9484 12.5331 19.9725C11.1176 19.9986 10.6616 19.1794 9.04038 19.1794C7.41988 19.1794 6.91352 19.9484 5.57173 19.9986C4.17747 20.0502 3.12007 18.6811 2.22862 17.4675C0.408126 14.9845 -0.979048 10.4494 0.883992 7.39113C1.81303 5.87071 3.46757 4.91023 5.26607 4.88411C6.63623 4.86267 7.92553 5.75283 8.76167 5.75283C9.59851 5.75283 11.1651 4.67647 12.8154 4.83454C13.5033 4.86401 15.4422 5.09777 16.689 6.81846C16.5862 6.88008 14.3749 8.09374 14.399 10.6249C14.4267 13.651 17.2102 14.6584 17.2429 14.6704Z" transform="translate(0.352539)" fill="#1F8EFA"/>
</svg>
