<svg width="20" height="22" viewBox="0 0 20 22" fill="none" xmlns="http://www.w3.org/2000/svg">
<path fill-rule="evenodd" clip-rule="evenodd" d="M11.8356 11.382L1.14522 21.6997L1.13197 21.7126L0.823928 22C1.2951 21.7351 10.2399 16.722 10.2399 16.722L14.7429 14.1828L14.6013 14.058L11.8356 11.382ZM15.2961 8.05467L15.2323 8.11747H15.2191L15.1164 8.23018L13.8039 9.49332L12.402 10.8442L12.3755 10.8571V10.8684L12.2728 10.9569L15.1164 13.7078L15.2191 13.8205H15.2323L15.2961 13.8825L19.6062 11.4569C20.0773 11.192 20.1055 10.837 19.7983 10.5938C19.7767 10.5761 19.7469 10.56 19.7213 10.5439L19.6443 10.4932C19.2186 10.271 15.773 8.32276 15.2961 8.05467ZM0.129179 0.0998278C0.0521687 0.201266 0 0.343763 0 0.525707V10.969V21.6128C0 21.7255 0.0248422 21.8221 0.0645895 21.8994L0.0778379 21.8881H0.0902596L0.231859 21.7375L11.3984 10.9569L11.3081 10.8684H11.2957L11.2568 10.8442L0.29562 0.250375L0.180519 0.137666L0.12835 0.0998278H0.129179ZM0.900938 0L1.11955 0.200461L1.14522 0.226223H1.15764L11.8356 10.5439L12.9675 9.45548L14.6013 7.87917L14.7429 7.75438L10.2399 5.21601L1.01687 0.037838C1.00445 0.0305925 0.990369 0.031398 0.977948 0.0257626C0.952278 0.0120765 0.92578 0.0112709 0.900938 0Z" fill="#317FCB"/>
</svg>
