<svg width="20" height="20" viewBox="0 0 20 20" fill="none" xmlns="http://www.w3.org/2000/svg">
<path d="M20.0002 10.0005C20.0002 4.47743 15.5229 5.9039e-10 9.99996 5.9039e-10C4.47946 5.9039e-10 0.00391664 4.47367 -1.33794e-09 9.99341V17.7321C0.00297091 18.9854 1.01944 20 2.27352 20H10.004C15.5252 19.9978 20.0002 15.522 20.0002 10.0005Z" fill="#1F8EFA"/>
<path opacity="0.4" d="M4.69109 2.19419C3.31312 2.19419 2.19419 3.31312 2.19419 4.69109C2.19419 6.06907 3.31311 7.18799 4.69109 7.18799C6.06907 7.18799 7.18799 6.06907 7.18799 4.69109V2.19419H4.69109ZM4.69109 9.79124e-08H9.38218V4.69109C9.38218 7.28089 7.28089 9.38218 4.69109 9.38218C2.1013 9.38218 -2.35891e-08 7.28089 -2.35891e-08 4.69109C-2.35891e-08 2.1013 2.1013 9.79124e-08 4.69109 9.79124e-08Z" transform="translate(1.07422 9.54883)" fill="white"/>
<g opacity="0.4">
<path opacity="0.5" d="M7.18799 2.19419H4.69109C3.31312 2.19419 2.19419 3.31312 2.19419 4.69109C2.19419 6.06907 3.31311 7.18799 4.69109 7.18799C6.06907 7.18799 7.18799 6.06907 7.18799 4.69109V2.19419ZM4.69109 -3.23907e-09H9.38218V4.69109C9.38218 7.28089 7.28089 9.38218 4.69109 9.38218C2.1013 9.38218 -5.29838e-09 7.28089 -5.29838e-09 4.69109C-5.29838e-09 2.1013 2.1013 -3.23907e-09 4.69109 -3.23907e-09Z" transform="translate(17.627 11.7498) rotate(-180)" fill="white"/>
</g>
<path d="M6.69494 -1.60785e-07V4.68331C6.69494 7.27518 4.59349 9.37667 2.00153 9.37667C1.60829 9.37667 1.32874 9.33228 0.964728 9.23713C0.433949 9.09822 0.000180431 8.66304 1.47153e-07 8.15685C1.47153e-07 7.545 0.444124 7.09995 1.10801 7.09995C1.42398 7.09995 1.53864 7.16062 2.00153 7.16062C3.36804 7.16062 4.47649 6.05374 4.47888 4.68723V2.53461C4.47888 2.34172 4.32214 2.18544 4.12893 2.18544L2.50149 2.18512C1.89513 2.18512 1.40522 1.70148 1.40522 1.09346C1.4049 0.481656 1.90016 -1.60785e-07 2.51306 -1.60785e-07" transform="translate(3.76416 9.55151)" fill="white"/>
<path d="M6.69494 9.35341e-10V4.68331C6.69494 7.27518 4.59349 9.37667 2.00153 9.37667C1.60829 9.37667 1.32874 9.33228 0.964728 9.23713C0.433949 9.09822 0.000180282 8.66304 -7.11218e-10 8.15685C-7.11218e-10 7.545 0.444124 7.09995 1.10801 7.09995C1.42398 7.09995 1.53864 7.16062 2.00153 7.16062C3.36804 7.16062 4.47649 6.05374 4.47888 4.68723V2.53461C4.47888 2.34172 4.32214 2.18544 4.12893 2.18544L2.50149 2.18512C1.89513 2.18512 1.40522 1.70148 1.40522 1.09346C1.4049 0.481656 1.90016 9.35341e-10 2.51306 9.35341e-10" transform="translate(14.9375 11.7471) rotate(-180)" fill="white"/>
</svg>
