<svg width="20" height="20" viewBox="0 0 20 20" fill="none" xmlns="http://www.w3.org/2000/svg">
<path d="M19.976 9.33333C19.648 4.34133 15.6587 0.350667 10.6667 0.0226667V0H10H9.33333V0.0226667C4.34133 0.350667 0.350667 4.34133 0.0226667 9.33333H0V10V10.6667H0.0226667C0.350667 15.6587 4.34133 19.648 9.33333 19.976V20H10H10.6667V19.976C15.6587 19.648 19.648 15.6587 19.976 10.6667H20V10V9.33333H19.976ZM6.26 2.18C5.616 3.036 5.08133 4.10933 4.692 5.33333H2.69467C3.564 3.97733 4.79867 2.88 6.26 2.18ZM1.99733 6.66667H4.34133C4.16267 7.50933 4.04933 8.404 4.01333 9.33333H1.35867C1.42933 8.39467 1.65067 7.49733 1.99733 6.66667ZM1.35867 10.6667H4.01333C4.04933 11.596 4.16267 12.4907 4.34133 13.3333H1.99733C1.65067 12.5027 1.42933 11.6053 1.35867 10.6667ZM2.69467 14.6667H4.69067C5.08 15.8907 5.61467 16.964 6.26 17.82C4.79867 17.12 3.564 16.024 2.69467 14.6667ZM9.33333 18.5813C7.96267 18.2147 6.78267 16.7427 6.06667 14.6667H9.33333V18.5813ZM9.33333 13.3333H5.692C5.504 12.5027 5.38533 11.6053 5.34667 10.6667H9.33333V13.3333ZM9.33333 9.33333H5.34667C5.38533 8.39467 5.504 7.49733 5.692 6.66667H9.33333V9.33333ZM9.33333 5.33333H6.06667C6.78267 3.25733 7.96267 1.78533 9.33333 1.42V5.33333ZM17.3053 5.33333H15.3107C14.92 4.10933 14.3867 3.036 13.74 2.18C15.2 2.88 16.436 3.97733 17.3053 5.33333ZM10.6667 1.42C12.036 1.78533 13.2173 3.25733 13.9333 5.33333H10.6667V1.42ZM10.6667 6.66667H14.3067C14.496 7.49733 14.612 8.39467 14.6533 9.33333H10.6667V6.66667ZM10.6667 10.6667H14.6533C14.6147 11.6053 14.496 12.5027 14.3067 13.3333H10.6667V10.6667ZM10.6667 18.5813V14.6667H13.9333C13.2173 16.7427 12.036 18.2147 10.6667 18.5813ZM13.74 17.82C14.384 16.9627 14.92 15.8907 15.3107 14.6667H17.3053C16.436 16.024 15.2 17.12 13.74 17.82ZM18.0027 13.3333H15.6587C15.8373 12.4907 15.9507 11.596 15.9867 10.6667H18.64C18.5707 11.6053 18.3493 12.5027 18.0027 13.3333ZM15.9867 9.33333C15.9507 8.404 15.8373 7.50933 15.6587 6.66667H18.0027C18.3493 7.49733 18.5707 8.39467 18.6413 9.33333H15.9867Z" fill="#4189C6"/>
</svg>
