<svg width="20" height="20" viewBox="0 0 20 20" fill="none" xmlns="http://www.w3.org/2000/svg">
<path d="M-2.16125e-07 3.73725C-2.16125e-07 5.79797 1.67652 7.47436 3.73731 7.47436C5.79797 7.47436 7.47436 5.7979 7.47436 3.73725C7.47436 1.67652 5.79797 -1.48085e-07 3.73731 -1.48085e-07C1.67652 -1.48085e-07 -2.16125e-07 1.67652 -2.16125e-07 3.73725Z" transform="translate(6.2627 6.2627)" fill="#317FCB"/>
<path d="M16.4587 5.06682C16.4878 5.01561 16.4873 4.95272 16.4572 4.90203C15.5867 3.43593 14.3479 2.20787 12.8747 1.35062C11.3563 0.467016 9.61989 0 7.85327 0C4.79589 0 1.94658 1.37207 0.0358907 3.76439C-0.00627327 3.81711 -0.0117813 3.89023 0.0219892 3.94866L2.83707 8.82439C2.86658 8.87554 2.92101 8.90636 2.97897 8.90636C2.98632 8.90636 2.99379 8.90584 3.0012 8.90485C3.06717 8.89587 3.12114 8.84787 3.13779 8.78341C3.69287 6.63266 5.63196 5.13056 7.85327 5.13056C7.9911 5.13056 8.13346 5.13685 8.27655 5.14905C8.2812 5.14951 8.28592 5.1497 8.29058 5.1497H16.3162C16.3752 5.1497 16.4296 5.1181 16.4587 5.06682Z" transform="translate(2.14697)" fill="#317FCB"/>
<path d="M11.4777 9.73554C11.437 9.68289 11.3687 9.66026 11.3042 9.6781C10.8808 9.796 10.442 9.85574 10 9.85574C8.1219 9.85574 6.39095 8.75423 5.5901 7.04957C5.58813 7.04538 5.58597 7.04131 5.58367 7.03725L1.56793 0.0819673C1.53869 0.0311477 1.48452 1.16067e-07 1.42597 1.16067e-07C1.4257 1.16067e-07 1.42538 1.16067e-07 1.42511 1.16067e-07C1.36623 0.000327985 1.312 0.032131 1.28315 0.0834097C0.443738 1.57292 0 3.26833 0 4.98636C0 7.39652 0.869508 9.72459 2.44833 11.5417C4.01148 13.3407 6.16348 14.5247 8.50807 14.8755C8.5162 14.8767 8.52433 14.8772 8.53239 14.8772C8.59029 14.8772 8.64472 14.8464 8.6743 14.7953L11.4901 9.91803C11.5234 9.86033 11.5185 9.7882 11.4777 9.73554Z" transform="translate(0 5.01367)" fill="#317FCB"/>
<path d="M9.21133 -1.36078e-07H3.57369C3.50707 -1.36078e-07 3.44707 0.0403278 3.42195 0.101967C3.39677 0.163606 3.41139 0.234426 3.45894 0.280984C4.40221 1.20571 4.92169 2.43993 4.92169 3.75639C4.92169 4.75298 4.62097 5.71207 4.05198 6.53003C4.04936 6.53384 4.04693 6.5377 4.04464 6.5417L0.0219517 13.509C-0.00749095 13.5601 -0.00729398 13.623 0.0224109 13.6738C0.0518536 13.7241 0.105755 13.755 0.163918 13.755C0.164509 13.755 0.165164 13.755 0.165754 13.755C2.81297 13.7254 5.2971 12.6723 7.16044 10.7896C9.02529 8.90531 10.0523 6.40754 10.0523 3.75639C10.0523 2.49626 9.82071 1.26748 9.36392 0.104066C9.33926 0.0412461 9.27874 -1.36078e-07 9.21133 -1.36078e-07Z" transform="translate(9.94775 6.24365)" fill="#317FCB"/>
</svg>
