<svg width="19" height="20" viewBox="0 0 19 20" fill="none" xmlns="http://www.w3.org/2000/svg">
<path d="M0.123477 0.0423616C-0.207875 0.0467974 0.1858 0.212695 0.618509 0.279454C0.738497 0.185859 0.846286 0.0918203 0.942985 -1.81995e-07C0.673956 0.065871 0.399825 0.0674237 0.123477 0.0423616Z" transform="translate(12.4795 10.5247)" fill="#1E90FF"/>
<path d="M0.206755 0.878948C0.404812 0.60637 0.548531 0.308286 0.599321 2.17981e-07C0.554741 0.219571 0.436084 0.4092 0.323416 0.609697C-0.29604 0.999822 0.264864 0.378149 0.322973 0.141501C-0.342836 0.980527 0.231152 0.644517 0.206755 0.878948Z" transform="translate(14.1743 9.24487)" fill="#1E90FF"/>
<path d="M0.170334 0.399338C0.210699 -0.197495 0.0530073 -0.00853095 -1.65052e-07 0.218802C0.061657 0.251183 0.110673 0.639757 0.170334 0.399338Z" transform="translate(14.8677 8.01587)" fill="#1E90FF"/>
<path d="M-2.53434e-08 -9.42233e-09C0.176987 0.031494 0.382363 0.0558907 0.352866 0.0982523C0.547152 0.0554471 0.590845 0.0168559 -2.53434e-08 -9.42233e-09Z" transform="translate(11.3457 0.258057)" fill="#1E90FF"/>
<path d="M0.124424 -9.57051e-09L2.30333e-07 0.0259492L0.115996 0.0153034L0.124424 -9.57051e-09Z" transform="translate(11.5747 0.356201)" fill="#1E90FF"/>
<path d="M14.1002 8.49938C14.1202 9.03522 13.9438 9.2956 13.7844 9.75603L13.4976 9.89864C13.2632 10.3542 13.5209 10.1879 13.353 10.55C12.9866 10.8754 12.2427 11.5678 12.0045 11.6313C11.8304 11.6275 12.1223 11.4259 12.1604 11.3471C11.6705 11.6834 11.7672 11.8519 11.0178 12.0566L10.9961 12.0076C9.14855 12.877 6.58202 11.1544 6.61573 8.80434C6.59621 8.95338 6.55962 8.91612 6.51881 8.976C6.42344 7.76703 7.07727 6.55274 8.18 6.05616C9.25856 5.52253 10.523 5.74122 11.295 6.46181C10.871 5.90601 10.0262 5.31671 9.02568 5.37127C8.04516 5.38724 7.12762 6.01025 6.82155 6.68692C6.31942 7.00297 6.26087 7.90587 6.04218 8.07133C5.74743 10.236 6.59599 11.1708 8.03163 12.2711C8.25696 12.4233 8.09506 12.4465 8.12522 12.5623C7.64838 12.3392 7.2119 12.0021 6.8526 11.5893C7.04334 11.8681 7.24894 12.1392 7.51486 12.3521C7.06485 12.2001 6.46403 11.2624 6.28904 11.2243C7.06419 12.6122 9.43355 13.6584 10.6749 13.1392C10.1005 13.1605 9.37101 13.1509 8.72605 12.9125C8.45436 12.773 8.08641 12.4845 8.15228 12.4306C9.84586 13.0629 11.5949 12.9092 13.06 11.7348C13.4331 11.4443 13.8403 10.9504 13.958 10.9437C13.7808 11.2103 13.9884 11.0719 13.8522 11.3072C14.2231 10.7082 13.6906 11.0633 14.2359 10.2728L14.4373 10.55C14.3619 10.0523 15.055 9.44863 14.9845 8.66217C15.1435 8.42175 15.1617 8.92122 14.9931 9.47436C15.2271 8.86067 15.055 8.76198 15.1149 8.25541C15.1794 8.42575 15.2653 8.6065 15.309 8.78637C15.1564 8.19309 15.4649 7.78766 15.5416 7.44278C15.4658 7.40951 15.3063 7.70493 15.2695 7.00452C15.275 6.70023 15.3544 6.84506 15.3848 6.77009C15.3254 6.73572 15.1686 6.5024 15.0734 6.05505C15.1419 5.9497 15.2579 6.32763 15.352 6.34293C15.2914 5.9874 15.1874 5.71615 15.183 5.44313C14.908 4.8687 15.0856 5.51987 14.8629 5.1965C14.5702 4.28407 15.1056 4.9847 15.1419 4.5704C15.5851 5.21247 15.8377 6.2083 15.9541 6.62061C15.8654 6.11781 15.7224 5.63054 15.5474 5.15924C15.6824 5.21624 15.3302 4.12504 15.7228 4.84763C15.3039 3.30731 13.9312 1.8679 12.6681 1.19278C12.8223 1.33406 13.0172 1.51149 12.9476 1.53943C12.319 1.16572 12.4295 1.13622 12.3394 0.978309C11.8282 0.77005 11.794 0.995387 11.4558 0.978753C10.491 0.466865 10.3052 0.521203 9.41736 0.20094L9.45773 0.389904C8.81876 0.176987 8.71318 0.470192 8.02276 0.390348C7.98084 0.357745 8.2441 0.271469 8.46101 0.240197C7.84311 0.321815 7.87194 0.118213 7.26734 0.262598C7.41616 0.158135 7.57408 0.0887154 7.73288 1.55693e-09C7.2292 0.0306068 6.5299 0.293204 6.7457 0.0541164C5.92397 0.420955 4.46438 0.935726 3.64532 1.70378L3.61959 1.53167C3.24432 1.98212 1.98301 2.87704 1.88254 3.46101L1.78207 3.4843C1.58712 3.81498 1.46048 4.18958 1.30567 4.52959C1.05039 4.96496 0.93129 4.69726 0.967663 4.76557C0.465312 5.78402 0.215357 6.63968 -1.77884e-09 7.34187C0.153478 7.57142 0.0037704 8.72405 0.0616572 9.64647C-0.190295 14.2029 3.2594 18.6265 7.03025 19.6476C7.58295 19.8456 8.40468 19.8385 9.10375 19.8581C8.27914 19.6221 8.17268 19.7332 7.36892 19.4531C6.78939 19.1798 6.66253 18.8682 6.25177 18.5118L6.41435 18.799C5.60925 18.514 5.94615 18.4464 5.29099 18.239L5.46465 18.0126C5.2036 17.9926 4.77333 17.573 4.65578 17.3399L4.37012 17.3512C4.02724 16.9285 3.84426 16.623 3.85779 16.3864L3.76553 16.551C3.66106 16.3715 2.50333 14.9634 3.10393 15.2912C2.99237 15.1896 2.84399 15.1255 2.6832 14.833L2.8054 14.6935C2.51686 14.3215 2.27355 13.8449 2.29218 13.6861C2.44633 13.8942 2.55323 13.9332 2.65924 13.9689C1.92934 12.1582 1.88831 13.8693 1.33583 12.1258L1.45249 12.1165C1.36311 11.981 1.30833 11.8349 1.23647 11.6909L1.28748 11.1841C0.762287 10.5773 1.14066 8.6014 1.21673 7.51796C1.26885 7.07749 1.65521 6.60841 1.94863 5.87274L1.76987 5.84213C2.11187 5.24596 3.72205 3.44704 4.46815 3.5393C4.82944 3.08552 4.39629 3.53753 4.32554 3.42353C5.11932 2.60224 5.36883 2.84333 5.90445 2.6954C6.48177 2.35273 5.40876 2.82936 5.68244 2.56476C6.68116 2.30993 6.38995 1.98501 7.69251 1.8557C7.83002 1.93377 7.3738 1.97636 7.25936 2.07771C8.09107 1.67051 9.89177 1.76344 11.0619 2.3035C12.4186 2.93803 13.9438 4.81281 14.0042 6.57669L14.0727 6.5951C14.0381 7.2964 14.18 8.10748 13.9336 8.85224L14.1002 8.49938Z" transform="translate(0 0.141846)" fill="#1E90FF"/>
<path d="M0.0467974 -3.68408e-08L2.44926e-07 0.232213C0.218018 0.5283 0.391013 0.849007 0.668914 1.07967C0.468861 0.689541 0.320484 0.5283 0.0467974 -3.68408e-08Z" transform="translate(8.93848 11.0217)" fill="#1E90FF"/>
<path d="M0.259936 0.433818C0.144606 0.306068 0.0767385 0.152591 -2.55356e-07 1.42271e-07C0.0731899 0.268586 0.223119 0.499467 0.362181 0.734563L0.259936 0.433818Z" transform="translate(9.24023 10.5681)" fill="#1E90FF"/>
<path d="M0.626331 1.40243e-07L0.577759 0.122428C0.4886 0.756299 0.295423 1.38352 3.23092e-07 1.96527C0.326473 1.35158 0.53695 0.680225 0.626331 1.40243e-07Z" transform="translate(17.9858 9.02124)" fill="#1E90FF"/>
<path d="M0.134404 0.0989177C0.358188 0.0170777 0.684883 0.0538946 0.923084 0C0.613023 0.0259493 0.304516 0.0414745 2.93691e-07 0.0802874L0.134404 0.0989177Z" transform="translate(11.2773)" fill="#1E90FF"/>
<path d="M0.122251 1.05057e-07C0.173928 0.477732 -0.237046 0.663369 0.213184 0.347986C0.454934 -0.196283 0.119146 0.197835 0.122251 1.05057e-07Z" transform="translate(3.42236 4.28223)" fill="#1E90FF"/>
<path d="M0.0150762 0.694641C0.119095 0.375931 0.137725 0.18475 0.177425 4.92989e-08C-0.109347 0.366838 0.0452394 0.445129 0.0150762 0.694641Z" transform="translate(3 5.7998)" fill="#1E90FF"/>
</svg>
