<svg width="65" height="81" viewBox="0 0 65 81" fill="none" xmlns="http://www.w3.org/2000/svg">
<mask id="mask0" mask-type="alpha" maskUnits="userSpaceOnUse" x="0" y="0" width="65" height="63">
<path d="M32.3046 0.00224129V0C32.3498 0 32.3949 0.000186286 32.4399 0.000558567C32.4849 0.000186286 32.53 0 32.5752 0V0.00224129C38.6301 0.102839 43.1845 3.5863 45.6275 9.74023L64.8798 62.4486L52.9581 58.3054L36.512 13.2798C35.511 10.7894 34.3555 9.89293 32.4399 9.85334C30.5243 9.89293 29.3688 10.7894 28.3678 13.2798L11.9217 58.3054L0 62.4486L19.2523 9.74023C21.6952 3.5863 26.2497 0.102839 32.3046 0.00224129ZM32.5529 50.7147C27.9889 50.7147 24.289 46.9824 24.289 42.3784C24.289 37.7744 27.9889 34.0422 32.5529 34.0422C37.117 34.0422 40.8169 37.7744 40.8169 42.3784C40.8169 46.9824 37.117 50.7147 32.5529 50.7147Z" fill="white"/>
</mask>
<g mask="url(#mask0)">
<g filter="url(#filter0_d)">
<path d="M32.3046 0.00224129V0C32.3498 0 32.3949 0.000186286 32.4399 0.000558567C32.4849 0.000186286 32.53 0 32.5752 0V0.00224129C38.6301 0.102839 43.1845 3.5863 45.6275 9.74023L64.8798 62.4486L52.9581 58.3054L36.512 13.2798C35.511 10.7894 34.3555 9.89293 32.4399 9.85334C30.5243 9.89293 29.3688 10.7894 28.3678 13.2798L11.9217 58.3054L0 62.4486L19.2523 9.74023C21.6952 3.5863 26.2497 0.102839 32.3046 0.00224129ZM32.5529 50.7147C27.9889 50.7147 24.289 46.9824 24.289 42.3784C24.289 37.7744 27.9889 34.0422 32.5529 34.0422C37.117 34.0422 40.8169 37.7744 40.8169 42.3784C40.8169 46.9824 37.117 50.7147 32.5529 50.7147Z" fill="black"/>
</g>
<path d="M32.3046 0.00224129V0C32.3498 0 32.3949 0.000186286 32.4399 0.000558567C32.4849 0.000186286 32.53 0 32.5752 0V0.00224129C38.6301 0.102839 43.1845 3.5863 45.6275 9.74023L64.8798 62.4486L52.9581 58.3054L36.512 13.2798C35.511 10.7894 34.3555 9.89293 32.4399 9.85334C30.5243 9.89293 29.3688 10.7894 28.3678 13.2798L11.9217 58.3054L0 62.4486L19.2523 9.74023C21.6952 3.5863 26.2497 0.102839 32.3046 0.00224129ZM32.5529 50.7147C27.9889 50.7147 24.289 46.9824 24.289 42.3784C24.289 37.7744 27.9889 34.0422 32.5529 34.0422C37.117 34.0422 40.8169 37.7744 40.8169 42.3784C40.8169 46.9824 37.117 50.7147 32.5529 50.7147Z" fill="url(#paint0_linear)"/>
<path style="mix-blend-mode:soft-light" d="M32.3046 0.00224129V0C32.3498 0 32.3949 0.000186286 32.4399 0.000558567C32.4849 0.000186286 32.53 0 32.5752 0V0.00224129C38.6301 0.102839 43.1845 3.5863 45.6275 9.74023L64.8798 62.4486L52.9581 58.3054L36.512 13.2798C35.511 10.7894 34.3555 9.89293 32.4399 9.85334C30.5243 9.89293 29.3688 10.7894 28.3678 13.2798L11.9217 58.3054L0 62.4486L19.2523 9.74023C21.6952 3.5863 26.2497 0.102839 32.3046 0.00224129ZM32.5529 50.7147C27.9889 50.7147 24.289 46.9824 24.289 42.3784C24.289 37.7744 27.9889 34.0422 32.5529 34.0422C37.117 34.0422 40.8169 37.7744 40.8169 42.3784C40.8169 46.9824 37.117 50.7147 32.5529 50.7147Z" fill="url(#paint1_linear)" fill-opacity="0.12"/>
</g>
<path fill-rule="evenodd" clip-rule="evenodd" d="M8.72094 11.7834H4.25842L3.4791 14.3413H3.91327e-08L4.95424 0.648884H8.01584L13.0072 14.3413H9.50954L8.72094 11.7834ZM5.03773 9.23487H7.94162L6.48504 4.48578L5.03773 9.23487ZM17.4883 1.63633V4.16604H19.1397V6.36661H17.4883V11.0217C17.4883 11.4041 17.5563 11.6706 17.6924 11.821C17.8284 11.9715 18.0975 12.0467 18.4995 12.0467C18.8088 12.0467 19.0686 12.0279 19.2788 11.9903V14.2567C18.716 14.4385 18.1284 14.5294 17.5161 14.5294C16.4399 14.5294 15.6451 14.2724 15.1318 13.7583C14.6184 13.2442 14.3617 12.4636 14.3617 11.4166V6.36661H13.0814V4.16604H14.3617V1.63633H17.4883ZM19.9747 9.15964C19.9747 8.14399 20.1695 7.23963 20.5592 6.44654C20.9488 5.65346 21.5086 5.04376 22.2384 4.61743C22.9682 4.19111 23.8249 3.97795 24.8083 3.97795C26.3113 3.97795 27.4957 4.44973 28.3616 5.39328C29.2275 6.33684 29.6605 7.62049 29.6605 9.24428V9.35713C29.6605 10.9433 29.226 12.2019 28.357 13.1329C27.488 14.0639 26.3113 14.5294 24.8268 14.5294C23.3981 14.5294 22.2508 14.0953 21.3849 13.2269C20.5189 12.3586 20.052 11.1815 19.9839 9.69568L19.9747 9.15964ZM23.1012 9.35713C23.1012 10.2975 23.2466 10.9872 23.5373 11.426C23.828 11.8649 24.2578 12.0843 24.8268 12.0843C25.9402 12.0843 26.5092 11.216 26.5339 9.47938V9.15964C26.5339 7.33523 25.9587 6.42303 24.8083 6.42303C23.763 6.42303 23.1971 7.20984 23.1105 8.78347L23.1012 9.35713ZM33.9931 4.16604L34.0952 5.36036C34.8065 4.43875 35.762 3.97795 36.9619 3.97795C38.2299 3.97795 39.0865 4.48891 39.5318 5.51083C40.2122 4.48891 41.1956 3.97795 42.4821 3.97795C44.517 3.97795 45.5623 5.22556 45.6179 7.72081V14.3413H42.4821V7.91829C42.4821 7.39793 42.3955 7.01863 42.2223 6.78039C42.0492 6.54215 41.7337 6.42303 41.276 6.42303C40.6575 6.42303 40.1967 6.70202 39.8937 7.26001L39.9029 7.39166V14.3413H36.7671V7.9371C36.7671 7.40419 36.6836 7.01863 36.5166 6.78039C36.3496 6.54215 36.0311 6.42303 35.561 6.42303C34.9611 6.42303 34.5034 6.70202 34.1879 7.26001V14.3413H31.0614V4.16604H33.9931ZM50.7021 14.3413H47.5662V4.16604H50.7021V14.3413ZM47.3807 1.54228C47.3807 1.09088 47.5415 0.720986 47.8631 0.43259C48.1847 0.144195 48.6022 3.57266e-06 49.1156 3.57266e-06C49.629 3.57266e-06 50.0464 0.144195 50.3681 0.43259C50.6897 0.720986 50.8505 1.09088 50.8505 1.54228C50.8505 1.99368 50.6897 2.36358 50.3681 2.65197C50.0464 2.94037 49.629 3.08456 49.1156 3.08456C48.6022 3.08456 48.1847 2.94037 47.8631 2.65197C47.5415 2.36358 47.3807 1.99368 47.3807 1.54228ZM56.8717 12.0843C57.3108 12.0843 57.651 11.9636 57.8922 11.7223C58.1334 11.4809 58.2509 11.1439 58.2448 10.7113H61.1765C61.1765 11.8273 60.7822 12.7426 59.9936 13.4573C59.205 14.1721 58.1891 14.5294 56.9459 14.5294C55.4862 14.5294 54.3358 14.0655 53.4946 13.1376C52.6535 12.2097 52.2329 10.9245 52.2329 9.28189V9.15024C52.2329 8.12205 52.42 7.21456 52.7942 6.42774C53.1684 5.64092 53.708 5.03592 54.4131 4.61274C55.1182 4.18955 55.9532 3.97795 56.9181 3.97795C58.2231 3.97795 59.2591 4.34472 60.0261 5.07824C60.793 5.81177 61.1765 6.80547 61.1765 8.05936H58.2448C58.2448 7.53273 58.118 7.12834 57.8644 6.84622C57.6108 6.56409 57.2706 6.42303 56.8438 6.42303C56.0336 6.42303 55.5604 6.94653 55.4244 7.99353C55.3811 8.32581 55.3594 8.78347 55.3594 9.36654C55.3594 10.3885 55.48 11.0969 55.7212 11.4919C55.9625 11.8868 56.3459 12.0843 56.8717 12.0843Z" transform="translate(2.29395 65.7647)" fill="white"/>
<defs>
<filter id="filter0_d" x="-24" y="-34" width="112.88" height="110.449" filterUnits="userSpaceOnUse" color-interpolation-filters="sRGB">
<feFlood flood-opacity="0" result="BackgroundImageFix"/>
<feColorMatrix in="SourceAlpha" type="matrix" values="0 0 0 0 0 0 0 0 0 0 0 0 0 0 0 0 0 0 255 0"/>
<feOffset dy="-10"/>
<feGaussianBlur stdDeviation="12"/>
<feColorMatrix type="matrix" values="0 0 0 0 0.192157 0 0 0 0 0.498039 0 0 0 0 0.796078 0 0 0 0.32 0"/>
<feBlend mode="normal" in2="BackgroundImageFix" result="effect1_dropShadow"/>
<feBlend mode="normal" in="SourceGraphic" in2="effect1_dropShadow" result="shape"/>
</filter>
<linearGradient id="paint0_linear" x2="1" gradientUnits="userSpaceOnUse" gradientTransform="translate(64.8798) scale(64.8798 62.4486) rotate(90)">
<stop stop-color="#42C1FD"/>
<stop offset="1" stop-color="#1F8EFA"/>
</linearGradient>
<linearGradient id="paint1_linear" x2="1" gradientUnits="userSpaceOnUse" gradientTransform="translate(64.8798) scale(64.8798 62.4486) rotate(90)">
<stop stop-color="white"/>
<stop offset="1"/>
</linearGradient>
</defs>
</svg>
