<svg width="299" height="70" viewBox="0 0 299 70" fill="none" xmlns="http://www.w3.org/2000/svg">
<path d="M43.3507 50.9346L30.8874 56.3532V55.8114C28.4847 56.4262 25.8216 56.7811 23.301 56.8951C11.5793 56.7811 2.27541 50.6467 2.16754 43.3486V40.6393C6.01719 46.2361 13.8547 49.9877 23.301 49.8509C26.4958 49.9877 29.7657 49.4807 32.513 48.7672L33.5968 46.0579C30.3388 47.0303 26.7824 47.7063 23.301 47.6835C11.5793 47.7063 2.27541 41.5719 2.16754 34.137V31.9696C6.01719 37.1443 13.8378 40.8959 23.301 40.6393C27.5577 40.8959 31.7208 40.0003 35.2224 38.4719L35.7643 35.7626C32.3445 37.5668 27.9116 38.6145 23.301 38.4719C11.5793 38.6145 2.27541 32.4801 2.16754 24.9255V22.758C6.01719 28.0526 13.8547 31.8042 23.301 31.9696C28.6701 31.8042 33.7603 30.3847 37.9319 28.1766L38.4737 24.9255C34.6873 27.7315 29.1589 29.5397 23.301 29.8022C11.5793 29.5397 2.27541 23.4053 2.16754 15.7139C2.27541 8.39887 11.5793 2.26449 23.301 2.16743C30.2882 2.26449 36.7773 4.71486 40.6413 8.66973L41.0176 9.29688L43.75 9.30767L43.3507 8.66973C39.5078 3.44743 31.822 0 23.301 0C10.332 0 0 7.14834 0 15.7139V16.2557V43.8905C0.455081 52.2521 10.5511 59.0625 23.301 59.0625C31.7208 59.0625 39.2887 55.7503 43.3507 50.9346Z" fill="#253137"/>
<path d="M15.3125 61.25L19.6875 42.6562L7.10938 48.125L14.7656 15.8594H0L3.82812 0H50.8594L47.0312 15.8594H31.7188L28.4375 24.6094L45.3906 17.5L15.3125 61.25ZM22.9688 38.8281L20.7812 49.7656L38.8281 22.4219L24.0625 28.9844L30.625 13.6719H45.3906L48.125 2.1875H5.46875L2.73438 13.6719H17.5L10.3906 44.2969L22.9688 38.8281Z" transform="translate(22.9688 8.75)" fill="#FABF2C"/>
<path d="M12.6395 11.1591L12.662 11.2264C12.6919 12.9685 12.161 14.333 11.0694 15.32C9.97779 16.3069 8.47123 16.8004 6.54968 16.8004C4.59075 16.8004 3.00942 16.1705 1.80565 14.9106C0.601877 13.6508 0 12.0227 0 10.0264V6.7852C0 4.79636 0.586923 3.1683 1.76079 1.90098C2.93465 0.633653 4.47486 0 6.38145 0C8.37029 0 9.92545 0.485988 11.047 1.45798C12.1685 2.42997 12.7143 3.79821 12.6844 5.56274L12.662 5.63004H9.47685C9.47685 4.58328 9.22451 3.80383 8.71983 3.29166C8.21514 2.7795 7.43569 2.52342 6.38145 2.52342C5.40199 2.52342 4.63749 2.91782 4.08794 3.70663C3.5384 4.49543 3.26363 5.51414 3.26363 6.76277V10.0264C3.26363 11.2825 3.55335 12.3068 4.1328 13.0994C4.71226 13.8919 5.51788 14.2882 6.54968 14.2882C7.52915 14.2882 8.26 14.0321 8.74226 13.5199C9.22451 13.0078 9.46564 12.2208 9.46564 11.1591H12.6395ZM30.6237 9.86938C30.6237 11.8807 29.9919 13.5386 28.7283 14.8433C27.4648 16.148 25.8199 16.8004 23.7937 16.8004C21.7749 16.8004 20.1375 16.1462 18.8814 14.8377C17.6253 13.5293 16.9972 11.8732 16.9972 9.86938V6.931C16.9972 4.93468 17.6234 3.28046 18.8758 1.96827C20.1282 0.656083 21.76 0 23.7712 0C25.7974 0 27.4461 0.656083 28.7171 1.96827C29.9882 3.28046 30.6237 4.93468 30.6237 6.931V9.86938ZM27.3601 6.90857C27.3601 5.63751 27.0423 4.5945 26.4068 3.77953C25.7713 2.96455 24.8927 2.55707 23.7712 2.55707C22.6646 2.55707 21.803 2.96455 21.1861 3.77953C20.5693 4.5945 20.2609 5.63751 20.2609 6.90857V9.86938C20.2609 11.1629 20.5711 12.2171 21.1917 13.0321C21.8123 13.847 22.6796 14.2545 23.7937 14.2545C24.9152 14.2545 25.79 13.847 26.418 13.0321C27.0461 12.2171 27.3601 11.1629 27.3601 9.86938V6.90857ZM39.1198 16.5649H35.845V0.235519H39.1198V16.5649ZM57.9676 16.5649H54.6927L48.1094 5.55153L48.0421 5.56274V16.5649H44.7673V0.235519H48.0421L54.6254 11.2376L54.6927 11.2264V0.235519H57.9676V16.5649ZM74.4377 2.75894H69.7722V16.5649H66.4973V2.75894H61.8991V0.235519H74.4377V2.75894ZM87.9694 9.38713H81.9132V14.0527H89.1134V16.5649H78.6384V0.235519H89.091V2.75894H81.9132V6.86371H87.9694V9.38713ZM97.0936 14.0527H104.406V16.5649H93.8187V0.235519H97.0936V14.0527ZM118.319 9.38713H112.263V14.0527H119.463V16.5649H108.988V0.235519H119.44V2.75894H112.263V6.86371H118.319V9.38713ZM136.684 14.333C136.176 14.9985 135.417 15.5761 134.408 16.0658C133.398 16.5555 132.097 16.8004 130.505 16.8004C128.531 16.8004 126.916 16.1798 125.66 14.9387C124.404 13.6975 123.776 12.0863 123.776 10.1049V6.69548C123.776 4.72159 124.385 3.11223 125.604 1.86733C126.823 0.622438 128.389 0 130.303 0C132.299 0 133.828 0.472903 134.89 1.41872C135.952 2.36454 136.464 3.62624 136.427 5.20386L136.404 5.27115H133.32C133.32 4.40383 133.069 3.72906 132.568 3.2468C132.068 2.76455 131.339 2.52342 130.382 2.52342C129.38 2.52342 128.572 2.91034 127.959 3.6842C127.346 4.45805 127.039 5.45432 127.039 6.67305V10.1049C127.039 11.3386 127.353 12.3442 127.981 13.1218C128.61 13.8994 129.451 14.2882 130.505 14.2882C131.282 14.2882 131.897 14.2097 132.35 14.0527C132.802 13.8956 133.152 13.6975 133.398 13.4583V10.2956H130.258V8.03009H136.684V14.333ZM145.147 10.0376V16.5649H141.872V0.235519H147.525C149.386 0.235519 150.842 0.659824 151.893 1.50845C152.943 2.35707 153.469 3.54026 153.469 5.05806C153.469 5.89547 153.246 6.61884 152.801 7.2282C152.356 7.83757 151.708 8.32916 150.855 8.703C151.82 8.98712 152.513 9.4619 152.936 10.1273C153.358 10.7928 153.57 11.6152 153.57 12.5947V13.7947C153.57 14.2508 153.631 14.7274 153.755 15.2246C153.878 15.7219 154.089 16.0901 154.388 16.3293V16.5649H151.012C150.713 16.3256 150.521 15.9293 150.435 15.3761C150.349 14.8228 150.306 14.2882 150.306 13.7723V12.6171C150.306 11.8021 150.083 11.1685 149.639 10.7161C149.194 10.2638 148.564 10.0376 147.749 10.0376H145.147ZM145.147 7.51419H147.468C148.388 7.51419 149.072 7.3198 149.521 6.931C149.969 6.5422 150.194 5.9665 150.194 5.20386C150.194 4.45617 149.968 3.86177 149.515 3.42064C149.063 2.97951 148.399 2.75894 147.525 2.75894H145.147V7.51419ZM167.427 13.0433H162.133L161.034 16.5649H157.613L163.12 0.235519H166.473L171.957 16.5649H168.537L167.427 13.0433ZM162.94 10.475H166.63L164.825 4.7216H164.757L162.94 10.475ZM179.209 10.6432V16.5649H175.934V0.235519H182.181C184.057 0.235519 185.534 0.71403 186.611 1.67107C187.687 2.6281 188.226 3.88793 188.226 5.45059C188.226 7.01325 187.687 8.26934 186.611 9.2189C185.534 10.1685 184.057 10.6432 182.181 10.6432H179.209ZM179.209 8.11981H182.181C183.093 8.11981 183.784 7.87121 184.256 7.374C184.727 6.87679 184.962 6.24314 184.962 5.47302C184.962 4.68795 184.728 4.03935 184.261 3.52718C183.794 3.01502 183.1 2.75894 182.181 2.75894H179.209V8.11981ZM206.176 16.5649H202.901V9.77966H196.251V16.5649H192.976V0.235519H196.251V7.25624H202.901V0.235519H206.176V16.5649Z" transform="translate(92.4219 8.20312)" fill="#253137"/>
</svg>
