<svg width="181" height="60" viewBox="0 0 181 60" fill="none" xmlns="http://www.w3.org/2000/svg">
<path fill-rule="evenodd" clip-rule="evenodd" d="M0 4.66019C0 2.08644 2.08644 0 4.66019 0H175.922C178.496 0 180.583 2.08644 180.583 4.66019V55.3398C180.583 57.9136 178.496 60 175.922 60H4.66019C2.08643 60 0 57.9136 0 55.3398V4.66019Z" fill="#3E4A56"/>
<path d="M5.24272 1.16505H164.272V0H5.24272V1.16505ZM168.35 5.24272V44.2718H169.515V5.24272H168.35ZM164.272 48.3495H5.24272V49.5146H164.272V48.3495ZM1.16505 44.2718V5.24272H0V44.2718H1.16505ZM5.24272 48.3495C2.99068 48.3495 1.16505 46.5239 1.16505 44.2718H0C0 47.1673 2.34724 49.5146 5.24272 49.5146V48.3495ZM168.35 44.2718C168.35 46.5239 166.524 48.3495 164.272 48.3495V49.5146C167.168 49.5146 169.515 47.1673 169.515 44.2718H168.35ZM164.272 1.16505C166.524 1.16505 168.35 2.99069 168.35 5.24272H169.515C169.515 2.34725 167.168 0 164.272 0V1.16505ZM5.24272 0C2.34725 0 0 2.34725 0 5.24272H1.16505C1.16505 2.99069 2.99069 1.16505 5.24272 1.16505V0Z" transform="translate(5.24268 5.24268)" fill="white"/>
<path d="M0.414281 0.434315L6.78997 4.16514C6.95852 4.26482 7.14809 4.31466 7.33768 4.31466C7.52727 4.31466 7.71684 4.26482 7.88538 4.16514L14.2611 0.434315C14.4366 0.327516 14.5841 0.177998 14.6754 0H13.4606L7.49919 3.48875C7.40088 3.54571 7.27448 3.54571 7.17617 3.48875L1.21476 0H0C0.0912821 0.177998 0.238737 0.327516 0.414281 0.434315Z" transform="translate(45.3599 26.397)" fill="white"/>
<path d="M2.8508 0.154858L0 1.82803H1.54477L3.23699 0.83837C3.34935 0.77429 3.48978 0.77429 3.60214 0.83837L5.29436 1.82803H6.83913L3.98833 0.154858C3.64426 -0.0516193 3.2019 -0.0516193 2.8508 0.154858Z" transform="translate(49.2778 16.0469)" fill="white"/>
<path d="M0.772387 6.80662V6.09463C0.772387 5.97359 0.835582 5.85967 0.940908 5.80273L9.43716 0.825908C9.54249 0.768951 9.66888 0.768951 9.7742 0.825908L18.2705 5.80273C18.3758 5.85967 18.439 5.97359 18.439 6.09463V6.80662H19.2114V6.09463C19.2114 5.69591 19.0007 5.32569 18.6567 5.12634L10.1604 0.149518C9.81635 -0.0498393 9.39504 -0.0498393 9.05097 0.149518L0.554715 5.12634C0.210651 5.32569 0 5.69591 0 6.10176V6.81374H0.772387V6.80662Z" transform="translate(43.0996 11.0679)" fill="white"/>
<path d="M3.41254 1.82982C3.60915 1.82982 3.80577 1.77998 3.9813 1.67318L6.83212 0H5.28735L3.60214 0.996788C3.48978 1.06087 3.34935 1.06087 3.23699 0.996788L1.54477 0.00711991H0L2.8508 1.6803C3.01934 1.77998 3.21594 1.82982 3.41254 1.82982Z" transform="translate(49.2852 26.3901)" fill="white"/>
<path d="M18.439 0.00711991V0.719112C18.439 0.84015 18.3758 0.954067 18.2705 1.01103L9.7742 5.98784C9.66888 6.0448 9.54249 6.0448 9.43716 5.98784L0.940908 1.01103C0.835582 0.954067 0.772387 0.84015 0.772387 0.719112V0.00711991H0V0.719112C0 1.11783 0.210651 1.48806 0.554715 1.68742L9.05097 6.66423C9.21949 6.76391 9.41609 6.81374 9.60568 6.81374C9.79528 6.81374 9.99188 6.76391 10.1604 6.66423L18.6567 1.68742C19.0007 1.48806 19.2114 1.11783 19.2114 0.711991V0H18.439V0.00711991Z" transform="translate(43.0918 26.3901)" fill="white"/>
<path d="M14.2611 3.88035L7.88538 0.149518C7.54832 -0.0498393 7.12704 -0.0498393 6.78997 0.149518L0.414281 3.88035C0.238737 3.98714 0.0912821 4.13668 0 4.31466H1.21476L7.17617 0.825908C7.27448 0.768951 7.40088 0.768951 7.49919 0.825908L13.4606 4.31466H14.6754C14.577 4.13668 14.4366 3.98002 14.2611 3.88035Z" transform="translate(45.3667 13.5601)" fill="white"/>
<path d="M0.859092 6.54505H0V0H0.859092V6.54505Z" transform="translate(27.3784 18.8594)" fill="white"/>
<path d="M4.85421 5.27199C4.90311 5.27199 4.94502 5.29357 4.97994 5.32953L5.31519 5.71074C5.05678 6.02 4.74248 6.26455 4.36532 6.43716C3.98814 6.60978 3.54812 6.69608 3.02428 6.69608C2.5633 6.69608 2.15122 6.61698 1.78105 6.45153C1.41087 6.28611 1.08958 6.06315 0.831155 5.76828C0.57273 5.47339 0.363194 5.12095 0.216519 4.71098C0.069845 4.30104 0 3.84792 0 3.35165C0 2.85536 0.0768294 2.40944 0.230488 1.99228C0.384148 1.58232 0.600667 1.22989 0.887032 0.935006C1.16641 0.640119 1.50167 0.409964 1.8928 0.244541C2.28393 0.079116 2.71697 0 3.19191 0C3.65988 0 4.06497 0.0719235 4.40022 0.222963C4.7355 0.374003 5.04281 0.575389 5.30125 0.82712L5.02185 1.23708C5.0009 1.26585 4.97994 1.29462 4.952 1.30901C4.92406 1.33059 4.88914 1.33778 4.83328 1.33778C4.79137 1.33778 4.75645 1.32339 4.71454 1.29462C4.67263 1.26585 4.62374 1.22989 4.56087 1.18674C4.505 1.14358 4.43515 1.10043 4.35135 1.05008C4.26753 0.999739 4.17673 0.956583 4.06497 0.91343C3.95322 0.870276 3.82751 0.834314 3.68083 0.805544C3.53415 0.776774 3.36654 0.762391 3.17794 0.762391C2.83571 0.762391 2.5284 0.819927 2.24202 0.942199C1.96264 1.06447 1.71819 1.23708 1.51564 1.45286C1.31309 1.67582 1.15244 1.94913 1.04069 2.26559C0.928939 2.58205 0.873062 2.94168 0.873062 3.33726C0.873062 3.74721 0.928939 4.10683 1.04069 4.43048C1.15244 4.75416 1.31309 5.02027 1.50865 5.24323C1.70422 5.46619 1.93471 5.63161 2.2071 5.74669C2.47951 5.86177 2.76586 5.91931 3.07317 5.91931C3.26176 5.91931 3.4294 5.90492 3.58304 5.88336C3.73671 5.86177 3.87641 5.82582 4.00211 5.77545C4.12784 5.72511 4.25356 5.66757 4.35834 5.58847C4.47007 5.51653 4.58183 5.42304 4.69359 5.32235C4.76344 5.29357 4.81233 5.27199 4.85421 5.27199Z" transform="translate(29.5649 18.7803)" fill="white"/>
<path fill-rule="evenodd" clip-rule="evenodd" d="M6.03461 4.69659C6.18127 4.28665 6.25812 3.83353 6.25812 3.34445C6.25812 2.85536 6.18127 2.40225 6.03461 1.99228C5.88793 1.58232 5.6714 1.2299 5.39901 0.935006C5.12662 0.640119 4.79137 0.409966 4.40723 0.244539C4.02306 0.0791177 3.59701 0 3.12905 0C2.66109 0 2.23503 0.0791177 1.85089 0.244539C1.46675 0.409966 1.13149 0.640119 0.85909 0.935006C0.586695 1.2299 0.377156 1.58232 0.223506 1.99228C0.0768253 2.40225 0 2.85536 0 3.34445C0 3.84072 0.0698412 4.28665 0.223506 4.69659C0.370174 5.10656 0.586695 5.459 0.85909 5.75389C1.13847 6.05595 1.46675 6.27891 1.85089 6.44436C2.23503 6.60978 2.66109 6.68889 3.12905 6.68889C3.59701 6.68889 4.02306 6.60978 4.40723 6.44436C4.79137 6.27891 5.12662 6.04878 5.39901 5.75389C5.6714 5.459 5.88094 5.10656 6.03461 4.69659ZM5.2174 2.26559C5.32218 2.58205 5.37806 2.94168 5.37806 3.34443C5.37806 3.74721 5.32218 4.10683 5.2174 4.42331C5.11265 4.73977 4.95899 5.00588 4.76344 5.22884C4.56786 5.4446 4.33037 5.61722 4.051 5.7323C3.77862 5.84738 3.4643 5.90492 3.12207 5.90492C2.77983 5.90492 2.4725 5.84738 2.19313 5.7323C1.91375 5.61722 1.67628 5.4518 1.4807 5.22884C1.28515 5.01307 1.13149 4.73977 1.02672 4.42331C0.921947 4.10683 0.866075 3.74721 0.866075 3.34443C0.866075 2.94887 0.921947 2.58205 1.02672 2.26559C1.13149 1.94193 1.28515 1.67582 1.4807 1.45286C1.67628 1.22989 1.91375 1.06447 2.19313 0.942199C2.4725 0.81993 2.77983 0.762388 3.12207 0.762388C3.4643 0.762388 3.77163 0.81993 4.051 0.942199C4.33037 1.06447 4.56786 1.22989 4.76344 1.45286C4.95899 1.67582 5.11265 1.94913 5.2174 2.26559Z" transform="translate(35.6621 18.7944)" fill="white"/>
<path d="M5.15456 6.54505H4.28849V3.56742H0.866077V6.54505H0V0H0.866077V2.92009H4.28849V0H5.15456V6.54505Z" transform="translate(43.0938 18.8594)" fill="white"/>
<path fill-rule="evenodd" clip-rule="evenodd" d="M6.03461 4.69659C6.18127 4.28665 6.25812 3.83353 6.25812 3.34445C6.25812 2.85536 6.18127 2.40225 6.03461 1.99228C5.88793 1.58232 5.6714 1.2299 5.39901 0.935006C5.12662 0.640119 4.79137 0.409966 4.40723 0.244539C4.02306 0.0791177 3.59701 0 3.12905 0C2.66109 0 2.23503 0.0791177 1.85089 0.244539C1.46675 0.409966 1.13149 0.640119 0.85909 0.935006C0.586695 1.2299 0.377156 1.58232 0.223506 1.99228C0.0768253 2.40225 0 2.85536 0 3.34445C0 3.84072 0.0698412 4.28665 0.223506 4.69659C0.370174 5.10656 0.586695 5.459 0.85909 5.75389C1.13847 6.05595 1.46675 6.27891 1.85089 6.44436C2.23503 6.60978 2.66109 6.68889 3.12905 6.68889C3.59701 6.68889 4.02306 6.60978 4.40723 6.44436C4.79137 6.27891 5.12662 6.04878 5.39901 5.75389C5.6714 5.459 5.88094 5.10656 6.03461 4.69659ZM5.21042 2.26559C5.31519 2.58205 5.37107 2.94168 5.37107 3.34443C5.37107 3.74721 5.32218 4.10683 5.21042 4.42331C5.10567 4.73977 4.952 5.00588 4.75645 5.22884C4.56087 5.4446 4.3164 5.61722 4.04402 5.7323C3.77163 5.84738 3.45731 5.90492 3.11508 5.90492C2.77285 5.90492 2.46551 5.84738 2.18614 5.7323C1.90676 5.61722 1.66929 5.4518 1.47372 5.22884C1.27816 5.01307 1.1245 4.73977 1.01974 4.42331C0.914962 4.10683 0.85909 3.74721 0.85909 3.34443C0.85909 2.94887 0.914962 2.58205 1.01974 2.26559C1.1245 1.94193 1.27816 1.67582 1.47372 1.45286C1.66929 1.22989 1.90676 1.06447 2.18614 0.942199C2.46551 0.81993 2.77285 0.762388 3.11508 0.762388C3.45731 0.762388 3.76465 0.81993 4.04402 0.942199C4.32339 1.06447 4.56087 1.22989 4.75645 1.45286C4.952 1.67582 5.10567 1.94913 5.21042 2.26559Z" transform="translate(49.4424 18.7944)" fill="white"/>
<path d="M0.859092 5.80423H3.61098V6.54505H0V0H0.859092V5.80423Z" transform="translate(56.8745 18.8594)" fill="white"/>
<path fill-rule="evenodd" clip-rule="evenodd" d="M5.28029 4.61749C5.42697 4.21472 5.50378 3.76879 5.50378 3.27972C5.50378 2.79062 5.42697 2.34471 5.28029 1.94193C5.13361 1.53917 4.92409 1.19393 4.64469 0.906239C4.36532 0.618545 4.03703 0.395583 3.65289 0.237346C3.26875 0.0791177 2.84269 0 2.37473 0H0V6.54505H2.37473C2.84269 6.54505 3.26875 6.46592 3.65289 6.3077C4.03703 6.15666 4.37231 5.9337 4.64469 5.646C4.9171 5.3655 5.12662 5.02027 5.28029 4.61749ZM4.46309 2.20086C4.56786 2.51732 4.62374 2.87694 4.62374 3.27972C4.62374 3.6825 4.56786 4.0349 4.46309 4.35138C4.35831 4.66784 4.20467 4.93397 4.00909 5.14974C3.81352 5.3727 3.57606 5.53812 3.29669 5.6532C3.01729 5.76828 2.70998 5.82582 2.36775 5.82582H0.85909V0.719237H2.36775C2.70998 0.719237 3.01729 0.776779 3.29669 0.891855C3.57606 1.00693 3.81352 1.17954 4.00909 1.39532C4.20467 1.61829 4.35831 1.8844 4.46309 2.20086Z" transform="translate(61.4351 18.8594)" fill="white"/>
<path d="M3.91133 0.0143847V0.733621H0.859092V2.9057H3.33161V3.59617H0.859092V5.82582H3.91133V6.54505H0V0H3.91133V0.0143847Z" transform="translate(68.1123 18.8525)" fill="white"/>
<path fill-rule="evenodd" clip-rule="evenodd" d="M0.852105 6.54505V3.81194V3.80475H1.52262C1.64135 3.80475 1.73216 3.82633 1.78804 3.85511C1.84391 3.89107 1.89978 3.94141 1.94867 4.01334L3.59701 6.35084C3.67385 6.47312 3.79259 6.53785 3.94623 6.53785H4.70756L2.85666 3.94141C2.77285 3.81914 2.67506 3.72564 2.57031 3.66091C2.81476 3.60337 3.03126 3.51705 3.22684 3.40199C3.41543 3.28692 3.58307 3.15025 3.71575 2.99202C3.84847 2.8338 3.95322 2.65398 4.02306 2.45258C4.09291 2.2512 4.12784 2.03544 4.12784 1.80528C4.12784 1.53198 4.07894 1.28024 3.98814 1.05728C3.89736 0.834314 3.75068 0.640119 3.56209 0.481892C3.37352 0.323655 3.12905 0.208579 2.83571 0.122269C2.54237 0.0431511 2.20011 0 1.79502 0H0V6.54505H0.852105ZM1.7531 3.16464H0.852105V0.69047H1.79502C2.2909 0.69047 2.66109 0.783972 2.91254 0.985357C3.16397 1.18675 3.2897 1.48163 3.2897 1.87001C3.2897 2.06421 3.25478 2.23683 3.19191 2.39506C3.12207 2.55329 3.02428 2.68993 2.89857 2.80501C2.76586 2.92009 2.60521 3.00641 2.41664 3.07115C2.22805 3.13586 2.00454 3.16464 1.7531 3.16464Z" transform="translate(73.3506 18.8667)" fill="white"/>
<path fill-rule="evenodd" clip-rule="evenodd" d="M13.3981 4.6776H8.31488L6.69903 0L5.08318 4.6776H0L4.33475 7.55541L2.36427 12.233L6.69903 9.35454L11.0338 12.233L9.0633 7.55541L13.3981 4.6776Z" transform="translate(13.3979 37.2817)" fill="white"/>
<path fill-rule="evenodd" clip-rule="evenodd" d="M13.3981 4.6776H8.31488L6.69903 0L5.08318 4.6776H0L4.33475 7.55541L2.36427 12.233L6.69903 9.35454L11.0338 12.233L9.0633 7.55541L13.3981 4.6776Z" transform="translate(13.3979 37.2817)" fill="white"/>
<path fill-rule="evenodd" clip-rule="evenodd" d="M13.3981 4.6776H8.31488L6.69903 0L5.08318 4.6776H0L4.33475 7.55541L2.36427 12.233L6.69903 9.35454L11.0338 12.233L9.0633 7.55541L13.3981 4.6776Z" transform="translate(13.3979 37.2817)" fill="white"/>
<path fill-rule="evenodd" clip-rule="evenodd" d="M13.3981 4.6776H8.31488L6.69903 0L5.08318 4.6776H0L4.33475 7.55541L2.36427 12.233L6.69903 9.35454L11.0338 12.233L9.0633 7.55541L13.3981 4.6776Z" transform="translate(13.3979 37.2817)" fill="white"/>
<path fill-rule="evenodd" clip-rule="evenodd" d="M13.3981 4.6776H8.31488L6.69903 0L5.08318 4.6776H0L4.33475 7.55541L2.36427 12.233L6.69903 9.35454L11.0338 12.233L9.0633 7.55541L13.3981 4.6776Z" transform="translate(13.3979 37.2817)" fill="url(#paint0_linear)"/>
<path fill-rule="evenodd" clip-rule="evenodd" d="M13.3981 4.6776H8.31488L6.69903 0L5.08318 4.6776H0L4.33475 7.55541L2.36427 12.233L6.69903 9.35454L11.0338 12.233L9.0633 7.55541L13.3981 4.6776Z" transform="translate(29.7085 37.2817)" fill="white"/>
<path fill-rule="evenodd" clip-rule="evenodd" d="M13.3981 4.6776H8.31488L6.69903 0L5.08318 4.6776H0L4.33475 7.55541L2.36427 12.233L6.69903 9.35454L11.0338 12.233L9.0633 7.55541L13.3981 4.6776Z" transform="translate(29.7085 37.2817)" fill="white"/>
<path fill-rule="evenodd" clip-rule="evenodd" d="M13.3981 4.6776H8.31488L6.69903 0L5.08318 4.6776H0L4.33475 7.55541L2.36427 12.233L6.69903 9.35454L11.0338 12.233L9.0633 7.55541L13.3981 4.6776Z" transform="translate(29.7085 37.2817)" fill="white"/>
<path fill-rule="evenodd" clip-rule="evenodd" d="M13.3981 4.6776H8.31488L6.69903 0L5.08318 4.6776H0L4.33475 7.55541L2.36427 12.233L6.69903 9.35454L11.0338 12.233L9.0633 7.55541L13.3981 4.6776Z" transform="translate(29.7085 37.2817)" fill="white"/>
<path fill-rule="evenodd" clip-rule="evenodd" d="M13.3981 4.6776H8.31488L6.69903 0L5.08318 4.6776H0L4.33475 7.55541L2.36427 12.233L6.69903 9.35454L11.0338 12.233L9.0633 7.55541L13.3981 4.6776Z" transform="translate(29.7085 37.2817)" fill="url(#paint1_linear)"/>
<path fill-rule="evenodd" clip-rule="evenodd" d="M13.3981 4.6776H8.31488L6.69903 0L5.08318 4.6776H0L4.33475 7.55541L2.36427 12.233L6.69903 9.35454L11.0338 12.233L9.0633 7.55541L13.3981 4.6776Z" transform="translate(46.0195 37.2817)" fill="white"/>
<path fill-rule="evenodd" clip-rule="evenodd" d="M13.3981 4.6776H8.31488L6.69903 0L5.08318 4.6776H0L4.33475 7.55541L2.36427 12.233L6.69903 9.35454L11.0338 12.233L9.0633 7.55541L13.3981 4.6776Z" transform="translate(46.0195 37.2817)" fill="white"/>
<path fill-rule="evenodd" clip-rule="evenodd" d="M13.3981 4.6776H8.31488L6.69903 0L5.08318 4.6776H0L4.33475 7.55541L2.36427 12.233L6.69903 9.35454L11.0338 12.233L9.0633 7.55541L13.3981 4.6776Z" transform="translate(46.0195 37.2817)" fill="white"/>
<path fill-rule="evenodd" clip-rule="evenodd" d="M13.3981 4.6776H8.31488L6.69903 0L5.08318 4.6776H0L4.33475 7.55541L2.36427 12.233L6.69903 9.35454L11.0338 12.233L9.0633 7.55541L13.3981 4.6776Z" transform="translate(46.0195 37.2817)" fill="white"/>
<path fill-rule="evenodd" clip-rule="evenodd" d="M13.3981 4.6776H8.31488L6.69903 0L5.08318 4.6776H0L4.33475 7.55541L2.36427 12.233L6.69903 9.35454L11.0338 12.233L9.0633 7.55541L13.3981 4.6776Z" transform="translate(46.0195 37.2817)" fill="url(#paint2_linear)"/>
<path fill-rule="evenodd" clip-rule="evenodd" d="M13.3981 4.6776H8.31488L6.69903 0L5.08318 4.6776H0L4.33475 7.55541L2.36427 12.233L6.69903 9.35454L11.0338 12.233L9.0633 7.55541L13.3981 4.6776Z" transform="translate(62.3301 37.2817)" fill="white"/>
<path fill-rule="evenodd" clip-rule="evenodd" d="M13.3981 4.6776H8.31488L6.69903 0L5.08318 4.6776H0L4.33475 7.55541L2.36427 12.233L6.69903 9.35454L11.0338 12.233L9.0633 7.55541L13.3981 4.6776Z" transform="translate(62.3301 37.2817)" fill="white"/>
<path fill-rule="evenodd" clip-rule="evenodd" d="M13.3981 4.6776H8.31488L6.69903 0L5.08318 4.6776H0L4.33475 7.55541L2.36427 12.233L6.69903 9.35454L11.0338 12.233L9.0633 7.55541L13.3981 4.6776Z" transform="translate(62.3301 37.2817)" fill="white"/>
<path fill-rule="evenodd" clip-rule="evenodd" d="M13.3981 4.6776H8.31488L6.69903 0L5.08318 4.6776H0L4.33475 7.55541L2.36427 12.233L6.69903 9.35454L11.0338 12.233L9.0633 7.55541L13.3981 4.6776Z" transform="translate(62.3301 37.2817)" fill="white"/>
<path fill-rule="evenodd" clip-rule="evenodd" d="M13.3981 4.6776H8.31488L6.69903 0L5.08318 4.6776H0L4.33475 7.55541L2.36427 12.233L6.69903 9.35454L11.0338 12.233L9.0633 7.55541L13.3981 4.6776Z" transform="translate(62.3301 37.2817)" fill="url(#paint3_linear)"/>
<path fill-rule="evenodd" clip-rule="evenodd" d="M13.3981 4.6776H8.31488L6.69903 0L5.08318 4.6776H0L4.33475 7.55541L2.36427 12.233L6.69903 9.35454L11.0338 12.233L9.0633 7.55541L13.3981 4.6776Z" transform="translate(78.6406 37.2817)" fill="white"/>
<path fill-rule="evenodd" clip-rule="evenodd" d="M13.3981 4.6776H8.31488L6.69903 0L5.08318 4.6776H0L4.33475 7.55541L2.36427 12.233L6.69903 9.35454L11.0338 12.233L9.0633 7.55541L13.3981 4.6776Z" transform="translate(78.6406 37.2817)" fill="white"/>
<path fill-rule="evenodd" clip-rule="evenodd" d="M13.3981 4.6776H8.31488L6.69903 0L5.08318 4.6776H0L4.33475 7.55541L2.36427 12.233L6.69903 9.35454L11.0338 12.233L9.0633 7.55541L13.3981 4.6776Z" transform="translate(78.6406 37.2817)" fill="white"/>
<path fill-rule="evenodd" clip-rule="evenodd" d="M13.3981 4.6776H8.31488L6.69903 0L5.08318 4.6776H0L4.33475 7.55541L2.36427 12.233L6.69903 9.35454L11.0338 12.233L9.0633 7.55541L13.3981 4.6776Z" transform="translate(78.6406 37.2817)" fill="white"/>
<path fill-rule="evenodd" clip-rule="evenodd" d="M13.3981 4.6776H8.31488L6.69903 0L5.08318 4.6776H0L4.33475 7.55541L2.36427 12.233L6.69903 9.35454L11.0338 12.233L9.0633 7.55541L13.3981 4.6776Z" transform="translate(78.6406 37.2817)" fill="url(#paint4_linear)"/>
<path d="M10.6625 13.8885V6.72466C10.6625 6.04815 10.708 5.30097 10.7988 4.48311L3.99845 13.8885H10.6625ZM16.6753 13.8885V16.0544C16.6753 16.2563 16.6097 16.433 16.4784 16.5845C16.3472 16.7258 16.1604 16.7965 15.9181 16.7965H13.9188V22.1429H10.6625V16.7965H1.42369C1.17126 16.7965 0.949126 16.7208 0.757281 16.5693C0.565436 16.4078 0.444272 16.2109 0.393787 15.9786L0 14.0854L10.3748 0.227184H13.9188V13.8885H16.6753Z" transform="translate(106.821 17.4688)" fill="white"/>
<path d="M18.7527 20.0831C18.7527 19.7701 18.8082 19.4722 18.9193 19.1895C19.0404 18.9068 19.202 18.6645 19.4039 18.4625C19.6059 18.2606 19.8482 18.099 20.1309 17.9779C20.4136 17.8567 20.7165 17.7961 21.0396 17.7961C21.3628 17.7961 21.6606 17.8567 21.9332 17.9779C22.216 18.099 22.4583 18.2606 22.6602 18.4625C22.8723 18.6645 23.0389 18.9068 23.16 19.1895C23.2812 19.4722 23.3418 19.7701 23.3418 20.0831C23.3418 20.4062 23.2812 20.7091 23.16 20.9918C23.0389 21.2645 22.8723 21.5017 22.6602 21.7037C22.4583 21.9056 22.216 22.0621 21.9332 22.1732C21.6606 22.2944 21.3628 22.355 21.0396 22.355C20.7165 22.355 20.4136 22.2944 20.1309 22.1732C19.8482 22.0621 19.6059 21.9056 19.4039 21.7037C19.202 21.5017 19.0404 21.2645 18.9193 20.9918C18.8082 20.7091 18.7527 20.4062 18.7527 20.0831Z" transform="translate(106.821 17.4688)" fill="white"/>
<path d="M26.2741 6.34602C26.4256 5.29592 26.7184 4.37709 27.1526 3.58951C27.5867 2.79184 28.1269 2.13049 28.7731 1.60544C29.4295 1.07029 30.1766 0.671456 31.0147 0.408933C31.8629 0.136311 32.7716 0 33.7409 0C34.7506 0 35.6594 0.146408 36.4671 0.439224C37.285 0.721942 37.9817 1.12078 38.5572 1.63573C39.1328 2.14058 39.572 2.73631 39.8749 3.42291C40.1879 4.10952 40.3444 4.85165 40.3444 5.64932C40.3444 6.34602 40.2636 6.96194 40.1021 7.49709C39.9506 8.02214 39.7285 8.48155 39.4357 8.87534C39.1429 9.26913 38.7794 9.60233 38.3452 9.87495C37.911 10.1476 37.4213 10.3748 36.8761 10.5565C38.1887 10.9705 39.1681 11.6016 39.8143 12.4497C40.4605 13.2979 40.7836 14.3631 40.7836 15.6454C40.7836 16.7359 40.5817 17.7002 40.1778 18.5383C39.7739 19.3763 39.2287 20.0831 38.5421 20.6586C37.8555 21.2241 37.0578 21.6532 36.1491 21.946C35.2504 22.2388 34.2963 22.3852 33.2865 22.3852C32.186 22.3852 31.2267 22.259 30.4089 22.0066C29.591 21.7542 28.8792 21.3806 28.2733 20.8858C27.6675 20.3911 27.1526 19.7852 26.7285 19.0684C26.3044 18.3515 25.9409 17.5235 25.638 16.5845L27.2889 15.9029C27.7231 15.7212 28.1269 15.6757 28.5005 15.7666C28.8842 15.8474 29.1619 16.0493 29.3335 16.3724C29.5153 16.7258 29.7122 17.0742 29.9242 17.4175C30.1464 17.7608 30.4089 18.0687 30.7118 18.3414C31.0147 18.6039 31.3681 18.821 31.772 18.9926C32.186 19.1542 32.6757 19.235 33.2411 19.235C33.8772 19.235 34.4326 19.134 34.9071 18.932C35.3817 18.72 35.7755 18.4474 36.0885 18.1142C36.4116 17.781 36.6489 17.4124 36.8003 17.0085C36.9619 16.5946 37.0427 16.1806 37.0427 15.7666C37.0427 15.2416 36.9871 14.767 36.8761 14.3429C36.765 13.9087 36.5328 13.5402 36.1794 13.2373C35.826 12.9344 35.3161 12.6971 34.6497 12.5254C33.9933 12.3538 33.1098 12.268 31.9992 12.268V9.60233C32.918 9.59223 33.6803 9.50641 34.2862 9.34485C34.892 9.1833 35.3716 8.96117 35.725 8.67845C36.0885 8.38563 36.3409 8.03728 36.4823 7.6334C36.6236 7.22951 36.6943 6.78524 36.6943 6.30058C36.6943 5.27068 36.4065 4.48816 35.831 3.95301C35.2555 3.41786 34.4881 3.15029 33.5289 3.15029C33.0846 3.15029 32.6757 3.21592 32.3021 3.34718C31.9285 3.46835 31.5902 3.64505 31.2873 3.87728C30.9945 4.09942 30.7471 4.36194 30.5452 4.66485C30.3432 4.96777 30.1918 5.30097 30.0908 5.66446C29.9192 6.12893 29.692 6.43689 29.4093 6.58835C29.1366 6.73981 28.7479 6.77515 28.2431 6.69437L26.2741 6.34602Z" transform="translate(106.821 17.4688)" fill="white"/>
<path d="M50.1157 8.19379L49.3584 9.13282C49.7825 8.92078 50.2369 8.75922 50.7215 8.64816C51.2163 8.52699 51.7464 8.46641 52.3118 8.46641C53.1398 8.46641 53.9425 8.60272 54.72 8.87534C55.5076 9.14796 56.1992 9.56194 56.7949 10.1173C57.3907 10.6625 57.8703 11.3441 58.2338 12.1619C58.5973 12.9798 58.779 13.934 58.779 15.0245C58.779 16.0443 58.5922 17.0035 58.2186 17.9021C57.845 18.7907 57.32 19.5682 56.6435 20.2346C55.967 20.901 55.1491 21.426 54.1899 21.8097C53.2408 22.1934 52.1907 22.3852 51.0396 22.3852C49.8683 22.3852 48.8182 22.1984 47.8893 21.8249C46.9604 21.4513 46.1677 20.9313 45.5114 20.2649C44.8551 19.5884 44.3503 18.7806 43.9969 17.8416C43.6536 16.8924 43.4819 15.8423 43.4819 14.6913C43.4819 13.6614 43.6889 12.6062 44.1029 11.5258C44.527 10.4353 45.1782 9.30447 46.0567 8.1332L51.2819 1.12078C51.4637 0.878447 51.7262 0.671457 52.0695 0.499806C52.4229 0.328156 52.8268 0.24233 53.2811 0.24233H56.6132L50.1157 8.19379ZM50.9639 19.3258C51.5596 19.3258 52.1048 19.2249 52.5996 19.0229C53.1044 18.821 53.5336 18.5383 53.887 18.1748C54.2505 17.8113 54.5332 17.3872 54.7351 16.9025C54.9371 16.4078 55.038 15.8726 55.038 15.2971C55.038 14.6711 54.9421 14.1107 54.7503 13.6159C54.5584 13.1111 54.2858 12.687 53.9324 12.3437C53.579 11.9903 53.1549 11.7227 52.6602 11.541C52.1654 11.3592 51.6202 11.2684 51.0244 11.2684C50.4287 11.2684 49.8885 11.3693 49.4039 11.5713C48.9192 11.7732 48.5052 12.0559 48.1619 12.4194C47.8186 12.7728 47.551 13.1969 47.3592 13.6917C47.1674 14.1763 47.0714 14.7014 47.0714 15.2668C47.0714 15.8726 47.1522 16.428 47.3138 16.9328C47.4854 17.4276 47.7328 17.8517 48.0559 18.2051C48.3891 18.5584 48.798 18.8361 49.2827 19.0381C49.7674 19.2299 50.3277 19.3258 50.9639 19.3258Z" transform="translate(106.821 17.4688)" fill="white"/>
<defs>
<linearGradient id="paint0_linear" x2="1" gradientUnits="userSpaceOnUse" gradientTransform="translate(6.92233 15.6015) scale(0.446602 9.48495) rotate(179.999)">
<stop stop-color="white" stop-opacity="0.2"/>
<stop offset="1" stop-color="white"/>
</linearGradient>
<linearGradient id="paint1_linear" x2="1" gradientUnits="userSpaceOnUse" gradientTransform="translate(6.92233 15.6015) scale(0.446602 9.48495) rotate(179.999)">
<stop stop-color="white" stop-opacity="0.2"/>
<stop offset="1" stop-color="white"/>
</linearGradient>
<linearGradient id="paint2_linear" x2="1" gradientUnits="userSpaceOnUse" gradientTransform="translate(6.92233 15.6015) scale(0.446602 9.48495) rotate(179.999)">
<stop stop-color="white" stop-opacity="0.2"/>
<stop offset="1" stop-color="white"/>
</linearGradient>
<linearGradient id="paint3_linear" x2="1" gradientUnits="userSpaceOnUse" gradientTransform="translate(6.92233 15.6015) scale(0.446602 9.48495) rotate(179.999)">
<stop stop-color="white" stop-opacity="0.2"/>
<stop offset="1" stop-color="white"/>
</linearGradient>
<linearGradient id="paint4_linear" x2="1" gradientUnits="userSpaceOnUse" gradientTransform="translate(6.92233 15.6015) scale(0.446602 9.48495) rotate(179.999)">
<stop stop-color="white" stop-opacity="0.2"/>
<stop offset="1" stop-color="white"/>
</linearGradient>
</defs>
</svg>
