<svg width="34" height="34" viewBox="0 0 34 34" fill="none" xmlns="http://www.w3.org/2000/svg">
<path fill-rule="evenodd" clip-rule="evenodd" d="M14.1726 20.4583L13.8833 24.7917C14.3083 24.7917 14.4961 24.5973 14.7333 24.3667L16.7753 22.3812L21.0233 25.5197C21.8051 25.9511 22.3694 25.7277 22.5641 24.7939L25.3528 11.6524C25.6383 10.5077 24.9165 9.98856 24.1686 10.3281L7.7933 16.6423C6.67554 17.0907 6.68207 17.7143 7.58957 17.9921L11.7918 19.3037L21.5205 13.166C21.9798 12.8875 22.4013 13.0372 22.0553 13.3443L14.1723 20.4581L14.1726 20.4583ZM17 34C7.61116 34 0 26.3888 0 17C0 7.61116 7.61116 0 17 0C26.3888 0 34 7.61116 34 17C34 26.3888 26.3888 34 17 34Z" fill="white"/>
</svg>
