<svg width="33" height="33" viewBox="0 0 33 33" fill="none" xmlns="http://www.w3.org/2000/svg">
<path fill-rule="evenodd" clip-rule="evenodd" d="M16.5001 0C7.38854 0 0 7.57393 0 16.9176C0 24.3924 4.7278 30.7339 11.2838 32.9709C12.1084 33.1275 12.4112 32.6039 12.4112 32.1571C12.4112 31.7537 12.3959 30.421 12.3888 29.0073C7.79841 30.0307 6.8298 27.0112 6.8298 27.0112C6.07923 25.0558 4.99774 24.5358 4.99774 24.5358C3.50068 23.4858 5.1106 23.5074 5.1106 23.5074C6.76749 23.6264 7.63992 25.2507 7.63992 25.2507C9.11157 27.8371 11.4999 27.0894 12.4415 26.6571C12.5896 25.564 13.0172 24.8171 13.4891 24.3949C9.82417 23.9671 5.97156 22.5165 5.97156 16.034C5.97156 14.1869 6.61612 12.6778 7.67163 11.493C7.50031 11.0666 6.93554 9.34618 7.83148 7.01587C7.83148 7.01587 9.21704 6.56118 12.3702 8.75002C13.6864 8.37517 15.0979 8.18719 16.5001 8.18075C17.9024 8.18719 19.315 8.37517 20.6336 8.75002C23.7829 6.56118 25.1666 7.01587 25.1666 7.01587C26.0648 9.34618 25.4997 11.0666 25.3284 11.493C26.3863 12.6778 27.0265 14.1869 27.0265 16.034C27.0265 22.5319 23.1665 23.9626 19.4923 24.3814C20.0842 24.9064 20.6115 25.936 20.6115 27.5144C20.6115 29.7777 20.5924 31.5996 20.5924 32.1571C20.5924 32.6073 20.8894 33.1348 21.7258 32.9687C28.2782 30.7291 33 24.3898 33 16.9176C33 7.57393 25.6125 0 16.5001 0Z" fill="white"/>
</svg>
