<svg width="36" height="36" viewBox="0 0 36 36" fill="none" xmlns="http://www.w3.org/2000/svg">
<path fill-rule="evenodd" clip-rule="evenodd" d="M0 17.974C0 8.04725 8.05887 0 18 0C27.9411 0 36 8.04725 36 17.974C36 27.9008 27.9411 35.9481 18 35.9481C8.05887 35.9481 0 27.9008 0 17.974ZM14.706 17.4605V19.4119H17.9495C17.8188 20.2495 16.9691 21.8675 14.706 21.8675C12.7534 21.8675 11.1602 20.2576 11.1602 18.2736C11.1602 16.2896 12.7534 14.6796 14.706 14.6796C15.8171 14.6796 16.5606 15.1512 16.9854 15.5578L18.5378 14.0698C17.541 13.1429 16.2502 12.5818 14.706 12.5818C11.5442 12.5818 8.987 15.1269 8.987 18.2736C8.987 21.4203 11.5442 23.9654 14.706 23.9654C18.0067 23.9654 20.1963 21.6561 20.1963 18.4037C20.1963 18.0297 20.1554 17.7451 20.1064 17.4605H14.706ZM26.961 17.4605H25.327V15.8343H23.693V17.4605H22.059V19.0867H23.693V20.7129H25.327V19.0867H26.961V17.4605Z" fill="white"/>
</svg>
