<svg width="36" height="36" viewBox="0 0 36 36" fill="none" xmlns="http://www.w3.org/2000/svg">
<path d="M17.5846 0.00466811C27.8485 -0.226448 36.2592 8.15412 35.9875 18.5075C35.7397 27.9458 27.9932 36.0838 17.7814 35.9807C8.05159 35.8829 0.04893 28.001 -1.78848e-10 17.9859C0.0593407 7.98547 8.01619 0.221209 17.5846 0.00466811ZM30.6791 17.4883C31.6327 16.7814 32.2116 15.8663 32.096 14.6306C31.9836 13.4198 31.3704 12.5193 30.2606 12.029C29.0603 11.4991 27.912 11.649 26.8824 12.4902C26.7647 12.5859 26.6929 12.5901 26.5721 12.511C24.6628 11.2523 22.5599 10.5475 20.2903 10.3174C20.0363 10.2914 19.7823 10.2644 19.4908 10.2342C19.9832 8.69964 20.4642 7.20467 20.9493 5.69512C21.0659 5.71386 21.1596 5.72427 21.2512 5.74405C22.4099 5.99287 23.5666 6.25001 24.7274 6.48633C24.9668 6.53526 25.0844 6.61855 25.1521 6.87049C25.4728 8.06042 26.6575 8.81936 27.8547 8.62676C29.5006 8.36129 30.3939 6.58836 29.5964 5.16835C28.9593 4.03359 26.9761 3.35481 25.6987 4.84041C25.5727 4.98616 25.4665 5.02052 25.2812 4.97991C23.7769 4.6499 22.2704 4.33341 20.764 4.01172C20.1383 3.87743 19.8458 4.0492 19.6532 4.66135C19.1098 6.38535 18.5643 8.10935 18.0229 9.83335C17.9761 9.98223 17.9375 10.0915 17.7356 10.0905C16.7195 10.0843 15.718 10.2279 14.7248 10.4372C12.9436 10.814 11.2862 11.4866 9.7808 12.5141C9.64338 12.6078 9.55905 12.5693 9.43308 12.512C8.91776 12.2736 8.41388 11.9769 7.87149 11.8332C5.99341 11.3356 3.76345 12.8618 4.1476 15.3697C4.29855 16.3556 4.88467 17.0688 5.69254 17.6101C5.82475 17.6986 5.85495 17.7788 5.831 17.9245C5.60405 19.281 5.74563 20.5969 6.29323 21.8629C7.07195 23.6639 8.41076 24.9642 10.039 25.9907C11.8962 27.1629 13.9565 27.7563 16.1167 28.028C18.0062 28.2654 19.8854 28.1759 21.7416 27.7563C24.413 27.1535 26.7918 26.0073 28.623 23.9075C30.0753 22.2418 30.7187 20.3054 30.4199 18.0963C30.3803 17.8006 30.4511 17.658 30.6791 17.4883Z" transform="translate(0.00390625 0.0078125)" fill="white"/>
<path d="M3.80301 1.92702C3.80717 2.92436 2.91186 3.81656 1.90515 3.8176C0.857838 3.81864 0.00104226 2.9379 1.25878e-06 1.85727C-0.00103984 0.868263 0.881783 0.00313787 1.89474 1.46713e-05C2.93788 -0.00414953 3.7978 0.864098 3.80301 1.92702Z" transform="translate(20.5273 15.6611)" fill="white"/>
<path d="M9.62208 0.277112C9.82301 0.475955 9.87922 0.776823 9.6606 1.0298C9.4045 1.32442 9.10051 1.59926 8.76737 1.79915C7.85644 2.34675 6.84973 2.62471 5.79409 2.72153C5.49218 2.74964 5.19131 2.7663 5.006 2.77983C3.30803 2.76109 1.84013 2.37798 0.534632 1.46184C0.381595 1.35461 0.237929 1.21927 0.130699 1.06832C-0.0587745 0.799726 -0.0348306 0.47075 0.154643 0.281276C0.443018 -0.00918084 0.818842 -0.0695626 1.11867 0.104295C1.52156 0.339576 1.91508 0.602964 2.34296 0.780986C4.43134 1.65027 6.44684 1.46705 8.37593 0.294811C8.48628 0.228182 8.59039 0.14802 8.70178 0.0824331C8.98287 -0.0778909 9.34308 0.000189215 9.62208 0.277112Z" transform="translate(13.2217 22.0654)" fill="white"/>
<path d="M3.81759 1.92285C3.82175 2.88687 2.91498 3.8155 1.96866 3.81758C0.894278 3.81966 0.00312678 2.95662 3.57848e-06 1.91243C-0.00207862 0.88074 0.871374 2.95911e-07 1.89682 2.95911e-07C2.9358 2.95911e-07 3.81342 0.877617 3.81759 1.92285Z" transform="translate(11.894 15.6602)" fill="white"/>
</svg>
