<svg width="34" height="34" viewBox="0 0 34 34" fill="none" xmlns="http://www.w3.org/2000/svg">
<path fill-rule="evenodd" clip-rule="evenodd" d="M0 17C0 7.61116 7.61116 0 17 0C26.3888 0 34 7.61116 34 17C34 26.3888 26.3888 34 17 34C7.61116 34 0 26.3888 0 17ZM14.2662 12.422L8.82333 9.73277C8.77676 9.70973 8.73237 9.69887 8.69226 9.69887C8.63512 9.69887 8.5868 9.72107 8.5528 9.7616C8.51951 9.80123 8.5 9.85853 8.5 9.93021V21.475C8.5 21.6715 8.64551 21.9041 8.82333 21.9919L13.8531 24.4771C13.923 24.5116 13.9896 24.528 14.0497 24.528C14.2192 24.528 14.3381 24.3984 14.3381 24.1809V12.537C14.3381 12.4883 14.3103 12.4438 14.2662 12.422ZM20.6412 22.0584L25.5288 24.4732C25.7955 24.605 26.0138 24.4718 26.0138 24.177V13.4314L20.6412 22.0584ZM14.8541 13.2861V19.2026L20.1763 21.8322L14.8541 13.2861ZM25.8859 12.394L20.3379 9.65291C20.3127 9.64044 20.2853 9.63465 20.2579 9.63393C20.2561 9.63387 20.2543 9.63333 20.2525 9.63333C20.185 9.63333 20.1179 9.66682 20.0815 9.72513L16.662 15.2162L20.4792 21.3458L25.9391 12.5785C25.9795 12.5135 25.955 12.4282 25.8859 12.394Z" fill="white"/>
</svg>
