<svg width="36" height="36" viewBox="0 0 36 36" fill="none" xmlns="http://www.w3.org/2000/svg">
<path fill-rule="evenodd" clip-rule="evenodd" d="M11.4986 13.5364C12.7221 13.8417 16.6454 14.4462 16.0625 16.7838C15.5048 19.0251 11.731 17.8135 10.5076 17.5096L11.4986 13.5364ZM12.8506 8.11397C13.8694 8.36787 17.1508 8.84185 16.6208 10.9686C16.1119 13.0074 12.9709 11.9715 11.9521 11.7176L12.8506 8.11397ZM20.1864 11.001C19.9494 12.6033 19.0611 13.3791 17.8818 13.651C19.5012 14.4941 20.3252 15.787 19.5402 18.0284C18.5661 20.8119 16.2517 21.0468 13.174 20.4645L12.427 23.4579L10.6221 23.0081L11.3593 20.0548C10.8915 19.9386 10.4134 19.8152 9.92095 19.6815L9.18118 22.6488L7.37839 22.199L8.12526 19.1998C7.70373 19.0919 7.27558 18.9773 6.83861 18.8677L4.48978 18.2823L5.38579 16.2162C5.38579 16.2162 6.7157 16.5699 6.69769 16.5437C7.20868 16.6701 7.43537 16.3369 7.52482 16.1149L8.70524 11.383C8.77153 11.3989 8.83574 11.4153 8.89591 11.4303C8.82386 11.4015 8.75867 11.383 8.7083 11.3701L9.55027 7.99218C9.57245 7.60864 9.44035 7.12498 8.70928 6.94239C8.73759 6.9234 7.39849 6.61656 7.39849 6.61656L7.87859 4.68878L10.3677 5.3103L10.3656 5.31949C10.7399 5.41262 11.1254 5.50097 11.5181 5.59042L12.2579 2.62633L14.0618 3.07617L13.337 5.98206C13.8212 6.09271 14.3086 6.20422 14.783 6.32247L15.5027 3.43546L17.3076 3.8853L16.5684 6.85037C18.8472 7.63535 20.5138 8.81209 20.1864 11.001ZM12.8571 -6.52625e-08C5.75637 -6.52625e-08 -6.52625e-08 5.75627 -6.52625e-08 12.8571C-6.52625e-08 19.9579 5.75637 25.7143 12.8571 25.7143C19.958 25.7143 25.7143 19.9579 25.7143 12.8571C25.7143 5.75627 19.958 -6.52625e-08 12.8571 -6.52625e-08Z" transform="translate(2.41455 8.63477) rotate(-14)" fill="white"/>
<path d="M17.7662 35.5325C7.95421 35.5325 -6.03941e-09 27.5783 -6.03941e-09 17.7662C-6.03941e-09 7.95421 7.95421 -6.03941e-09 17.7662 -6.03941e-09C27.5783 -6.03941e-09 35.5325 7.95421 35.5325 17.7662C35.5325 27.5783 27.5783 35.5325 17.7662 35.5325ZM17.7662 34.1299C26.8036 34.1299 34.1299 26.8036 34.1299 17.7662C34.1299 8.72885 26.8036 1.4026 17.7662 1.4026C8.72885 1.4026 1.4026 8.72885 1.4026 17.7662C1.4026 26.8036 8.72885 34.1299 17.7662 34.1299Z" transform="translate(0.233887 0.234375)" fill="white"/>
</svg>
