<svg width="36" height="36" viewBox="0 0 36 36" fill="none" xmlns="http://www.w3.org/2000/svg">
<path fill-rule="evenodd" clip-rule="evenodd" d="M22.4313 14.5416C23.4781 14.2015 24.1514 13.9827 24.1514 13.9827C25.0481 13.6914 25.5389 12.7282 25.2476 11.8313C24.9562 10.9347 23.993 10.4439 23.0962 10.7352L21.3761 11.2943C21.036 10.2474 20.8172 9.57405 20.8172 9.57405C20.5258 8.67719 19.5627 8.18641 18.666 8.47793C17.7691 8.76928 17.2783 9.73245 17.5698 10.6292L18.1291 12.3497L14.5359 13.5176C14.1956 12.4703 13.9767 11.7966 13.9767 11.7966C13.6852 10.8999 12.7221 10.4091 11.8254 10.7005C10.9285 10.9919 10.4377 11.955 10.7292 12.8519L11.2887 14.573L9.5134 15.15C8.67563 15.453 8.2048 16.3581 8.45499 17.2268C8.7157 18.1329 9.67808 18.6853 10.5682 18.3961C10.5758 18.3937 11.2712 18.1677 12.3437 17.8192L13.5119 21.4134L11.7361 21.9906C10.8983 22.2936 10.4275 23.1986 10.6776 24.0674C10.9384 24.9735 11.9008 25.5259 12.7907 25.2367C12.7984 25.2342 13.4941 25.0082 14.567 24.6596L15.1439 26.4347C15.4471 27.2724 16.3521 27.7433 17.2208 27.4931C18.1269 27.2324 18.6793 26.27 18.3902 25.3799C18.3877 25.3723 18.1618 24.677 17.8134 23.6048C18.987 23.2235 20.2364 22.8175 21.4076 22.437L21.9845 24.2119C22.2876 25.0497 23.1927 25.5205 24.0614 25.2705C24.9675 25.0096 25.5199 24.0472 25.2307 23.1573C25.2283 23.1496 25.0024 22.4544 24.654 21.3822C25.7007 21.0421 26.374 20.8233 26.374 20.8233C27.2708 20.532 27.7615 19.5688 27.4701 18.6719C27.1788 17.7752 26.2156 17.2845 25.3189 17.5758L23.5988 18.1349C23.2176 16.9616 22.8117 15.7125 22.4313 14.5416ZM19.1844 15.5966L20.3523 19.1901L16.7585 20.3582C16.3772 19.1847 15.9713 17.9354 15.5908 16.7642C16.7642 16.3829 18.0134 15.9771 19.1844 15.5966ZM0 17.974C0 8.04725 8.05887 0 18 0C27.9411 0 36 8.04725 36 17.974C36 27.9008 27.9411 35.9481 18 35.9481C8.05887 35.9481 0 27.9008 0 17.974Z" fill="white"/>
</svg>
