<svg width="36" height="36" viewBox="0 0 36 36" fill="none" xmlns="http://www.w3.org/2000/svg">
<path d="M18 36C27.9411 36 36 27.9411 36 18C36 8.05887 27.9411 0 18 0C8.05887 0 0 8.05887 0 18C0 27.9411 8.05887 36 18 36Z" fill="white"/>
<path d="M2.29381 0.0807272C1.41692 0.821381 0.511745 1.73295 0.144017 2.84393C-0.280286 4.15432 0.313738 5.49319 0.879474 6.66115C1.44521 7.85759 2.06752 9.02554 2.60497 10.2505C3.02927 11.219 3.62329 12.3585 3.48186 13.441C3.36871 14.2101 3.11413 14.9508 2.9727 15.7199C2.85955 16.2327 3.34043 15.7199 3.51015 15.5775C4.50019 14.7229 5.57508 13.7543 5.9711 12.4439C6.16911 11.7887 6.05596 11.1905 5.82967 10.5638C5.60337 9.9656 5.34879 9.39587 5.09421 8.79765C4.55676 7.60121 3.99102 6.40477 3.42529 5.20833C3.19899 4.78103 2.9727 4.32524 2.77469 3.86945C2.57668 3.38518 2.46354 2.87242 2.43525 2.33117C2.40696 1.90387 2.40696 1.50506 2.46354 1.07776C2.49182 0.764407 2.57668 0.47954 2.60497 0.166187C2.63326 -0.00473283 2.49182 -0.0617061 2.29381 0.0807272ZM15.2492 0.0807272C14.3723 0.821381 13.4671 1.73295 13.0994 2.84393C12.6751 4.15432 13.2691 5.49319 13.8348 6.66115C14.4006 7.85759 15.0229 9.02554 15.5603 10.2505C15.9846 11.219 16.5787 12.3585 16.4372 13.441C16.3241 14.2101 16.0695 14.9508 15.9281 15.7199C15.8149 16.2327 16.2958 15.7199 16.4655 15.5775C17.4555 14.7229 18.5304 13.7543 18.9265 12.4439C19.1245 11.7887 19.0113 11.1905 18.785 10.5638C18.5587 9.9656 18.3042 9.39587 18.0496 8.79765C17.5121 7.60121 16.9464 6.40477 16.3806 5.20833C16.1544 4.78103 15.9281 4.32524 15.7301 3.86945C15.532 3.38518 15.4189 2.87242 15.3906 2.33117C15.3623 1.90387 15.3623 1.50506 15.4189 1.07776C15.4472 0.764407 15.532 0.47954 15.5603 0.166187C15.5886 -0.00473283 15.4472 -0.0617061 15.2492 0.0807272Z" transform="translate(8.74316 10.2852)" fill="#34538F"/>
<path d="M2.97723 0.124561C2.00901 0.938381 0.957803 1.92058 0.376871 3.07115C-0.0380799 3.88497 -0.0934065 4.72685 0.127901 5.56873C0.404535 6.57899 0.791823 7.58925 1.20677 8.57145C2.00901 10.4517 3.06022 12.2196 3.8348 14.1279C4.11143 14.8014 4.41573 15.5591 4.47106 16.3168C4.52638 17.2428 4.22209 18.225 3.97312 19.095C3.91779 19.3475 3.75181 19.6843 3.77947 19.9369C3.80714 20.1333 3.91779 20.0491 4.02844 19.9649C4.49872 19.6001 4.969 19.1792 5.38395 18.7582C6.51815 17.6638 7.81833 16.2045 7.70768 14.4927C7.65235 13.7911 7.32039 13.1176 7.04376 12.4722C6.73946 11.7145 6.4075 10.9848 6.07554 10.2552C5.46694 8.88014 4.83068 7.53312 4.16676 6.18611C3.94545 5.70905 3.66882 5.26004 3.50284 4.78298C3.25387 4.13753 3.14321 3.46403 3.11555 2.79052C3.08789 2.28539 3.11555 1.7522 3.17088 1.24707C3.19854 0.910318 3.30919 0.601628 3.30919 0.264875C3.39218 -0.0438151 3.2262 -0.0718778 2.97723 0.124561Z" transform="translate(14.3999 8.22852)" fill="#34538F"/>
</svg>
