<svg width="50" height="50" viewBox="0 0 50 50" fill="none" xmlns="http://www.w3.org/2000/svg">
<path fill-rule="evenodd" clip-rule="evenodd" d="M20.842 30.0857L20.4167 36.4583C21.0417 36.4583 21.3178 36.1725 21.6667 35.8333L24.6695 32.9135L30.9167 37.529C32.0664 38.1633 32.8961 37.8349 33.1825 36.4616L37.2835 17.1359C37.7034 15.4526 36.6419 14.6891 35.542 15.1884L11.4608 24.474C9.81698 25.1333 9.82656 26.0504 11.1611 26.459L17.3409 28.3878L31.6478 19.3618C32.3232 18.9522 32.9431 19.1724 32.4343 19.624L20.8417 30.0854L20.842 30.0857ZM25 50C11.1929 50 0 38.8071 0 25C0 11.1929 11.1929 0 25 0C38.8071 0 50 11.1929 50 25C50 38.8071 38.8071 50 25 50Z" fill="#1F8EFA"/>
</svg>
