<svg width="50" height="50" viewBox="0 0 50 50" fill="none" xmlns="http://www.w3.org/2000/svg">
<path d="M25 50C38.8071 50 50 38.8071 50 25C50 11.1929 38.8071 0 25 0C11.1929 0 0 11.1929 0 25C0 38.8071 11.1929 50 25 50Z" fill="#1F8EFA"/>
<path fill-rule="evenodd" clip-rule="evenodd" d="M1.5625 0C0.698889 0 0 0.692381 0 1.54687C0 2.40081 0.698889 3.09403 1.5625 3.09403C2.42528 3.09403 3.125 2.40081 3.125 1.54687C3.125 0.692381 2.42528 0 1.5625 0Z" transform="translate(28.5708 25)" fill="white"/>
<path fill-rule="evenodd" clip-rule="evenodd" d="M22.4564 10.7166C21.9558 9.94082 21.2792 9.23315 20.4628 8.62057C20.7139 8.09697 21.2525 7.73493 21.875 7.73493C22.7358 7.73493 23.4375 8.4287 23.4375 9.28181C23.4375 9.93053 23.0311 10.4878 22.4564 10.7166ZM12.5 19.8205C7.48389 19.8205 3.41806 17.1789 3.41806 13.9227C3.41806 10.6657 7.48389 8.02495 12.5 8.02495C17.5164 8.02495 21.5822 10.6657 21.5822 13.9227C21.5822 17.1789 17.5164 19.8205 12.5 19.8205ZM1.5625 9.28181C1.5625 8.4287 2.26389 7.73493 3.125 7.73493C3.74778 7.73493 4.28694 8.09697 4.53639 8.62057C3.72083 9.23315 3.04417 9.94082 2.54389 10.7166C1.96833 10.4878 1.5625 9.93053 1.5625 9.28181ZM21.0939 1.45039C21.5792 1.45039 21.9728 1.83912 21.9728 2.32045C21.9728 2.80095 21.5792 3.19052 21.0939 3.19052C20.6086 3.19052 20.215 2.80095 20.215 2.32045C20.215 1.83912 20.6086 1.45039 21.0939 1.45039ZM21.875 6.18778C20.7011 6.18778 19.6778 6.82983 19.1444 7.77831C17.5378 6.90797 15.5808 6.34655 13.4492 6.21725L15.3139 2.07075L18.8828 3.09097C19.2042 3.99357 20.0722 4.6409 21.0939 4.6409C22.3886 4.6409 23.4375 3.60178 23.4375 2.32045C23.4375 1.03829 22.3886 0 21.0939 0C20.2011 0 19.4253 0.493565 19.0292 1.22071L15.0514 0.0842537C14.6072 -0.042822 14.1358 0.174069 13.9467 0.592556L11.4144 6.22532C9.33528 6.37019 7.42806 6.92743 5.85639 7.77831C5.32306 6.82983 4.29917 6.18778 3.125 6.18778C1.39917 6.18778 0 7.5731 0 9.28181C0 10.5459 0.766667 11.6326 1.86472 12.1122C1.66722 12.6928 1.5625 13.299 1.5625 13.9227C1.5625 18.1938 6.45917 21.6576 12.5 21.6576C18.5403 21.6576 23.4375 18.1938 23.4375 13.9227C23.4375 13.299 23.3331 12.6928 23.1356 12.1128C24.2325 11.6326 25 10.5459 25 9.28181C25 7.5731 23.6008 6.18778 21.875 6.18778Z" transform="translate(12.8579 14.2856)" fill="white"/>
<path fill-rule="evenodd" clip-rule="evenodd" d="M3.125 1.54687C3.125 0.692103 2.42528 0 1.5625 0C0.698889 0 0 0.692103 0 1.54687C0 2.40081 0.698889 3.09375 1.5625 3.09375C2.42528 3.09375 3.125 2.40081 3.125 1.54687Z" transform="translate(19.2861 25)" fill="white"/>
<path fill-rule="evenodd" clip-rule="evenodd" d="M7.90353 0.196881C7.25881 0.6999 5.98242 1.24185 4.70297 1.24185C3.42353 1.24185 2.14714 0.6999 1.50242 0.196881C1.09964 -0.116777 0.51603 -0.0483718 0.199364 0.350095C-0.118136 0.748284 -0.0486922 1.3261 0.352697 1.63948C1.47409 2.51344 3.18103 3.07902 4.70297 3.07902C6.22436 3.07902 7.93159 2.51344 9.05242 1.63948C9.45436 1.3261 9.52409 0.748284 9.20742 0.350095C8.88908 -0.0483718 8.30631 -0.116777 7.90353 0.196881Z" transform="translate(20.7134 29.9999)" fill="white"/>
</svg>
