<svg width="50" height="50" viewBox="0 0 50 50" fill="none" xmlns="http://www.w3.org/2000/svg">
<circle cx="25" cy="25" r="25" fill="#1F8EFA"/>
<path fill-rule="evenodd" clip-rule="evenodd" d="M0 14.8679C0 21.4356 4.1543 27.0086 9.9162 28.9745C10.6417 29.1114 10.906 28.6523 10.906 28.2581C10.906 27.9048 10.8936 26.9702 10.8865 25.7299C6.85322 26.628 6.00224 23.7365 6.00224 23.7365C5.34264 22.0188 4.39197 21.5616 4.39197 21.5616C3.07545 20.6388 4.49167 20.658 4.49167 20.658C5.94705 20.763 6.71258 22.1904 6.71258 22.1904C8.00684 24.4621 10.1067 23.8059 10.9327 23.4253C11.0645 22.4642 11.4392 21.8098 11.8532 21.4375C8.63351 21.0623 5.24829 19.7873 5.24829 14.0902C5.24829 12.4665 5.81353 11.1395 6.74106 10.0999C6.59241 9.72389 6.09482 8.21246 6.88348 6.16619C6.88348 6.16619 8.1012 5.76551 10.8704 7.68948C12.0276 7.36 13.2676 7.1948 14.5004 7.18933C15.7324 7.1948 16.9724 7.36 18.1313 7.68948C20.8988 5.76551 22.1147 6.16619 22.1147 6.16619C22.9052 8.21246 22.4076 9.72389 22.2589 10.0999C23.1883 11.1395 23.749 12.4665 23.749 14.0902C23.749 19.801 20.3594 21.0578 17.129 21.4265C17.6498 21.8856 18.1126 22.7928 18.1126 24.1792C18.1126 26.1671 18.0957 27.7707 18.0957 28.2581C18.0957 28.656 18.3565 29.1178 19.0927 28.9727C24.8493 27.0031 29 21.4347 29 14.8679C29 6.65631 22.5073 0 14.4987 0C6.49271 0 0 6.65631 0 14.8679Z" transform="translate(11 11)" fill="white"/>
</svg>
