<svg width="50" height="50" viewBox="0 0 50 50" fill="none" xmlns="http://www.w3.org/2000/svg">
<circle cx="25" cy="25" r="25" fill="#1F8EFA"/>
<path d="M3.82399 1.35467C3.48959 0.325251 2.38392 -0.238073 1.35467 0.0964998C0.32525 0.430901 -0.238073 1.53657 0.0964996 2.56582L5.16383 18.1567C5.51181 19.1184 6.5506 19.6588 7.54779 19.3718C8.58796 19.0724 9.22194 17.9677 8.89003 16.9462L3.82399 1.35467Z" transform="translate(24.4429 14)" fill="white"/>
<path d="M3.8242 1.35468C3.48962 0.325341 2.38404 -0.237983 1.35479 0.0964181C0.325283 0.430905 -0.238127 1.53649 0.0965319 2.56591L5.16395 18.1569C5.51185 19.1185 6.55072 19.6589 7.54791 19.3717C8.58799 19.0725 9.22197 17.9678 8.89007 16.9461L3.8242 1.35468Z" transform="translate(16.5908 16.5513)" fill="white"/>
<path d="M18.0941 3.82403C19.1235 3.48963 19.6866 2.38413 19.3522 1.35462C19.0178 0.325374 17.9122 -0.238035 16.8829 0.0964512L1.29201 5.16395C0.330332 5.51177 -0.210039 6.55056 0.0769097 7.54774C0.376323 8.58782 1.48105 9.22189 2.50256 8.88999L18.0941 3.82412" transform="translate(16.5513 24.4431)" fill="white"/>
<path d="M1.21115 4.93744L4.93744 3.72672L3.72655 -3.1481e-08L-1.10184e-07 1.21124L1.21115 4.93752" transform="translate(19.8813 27.7332)" fill="white"/>
<path d="M1.21124 4.93813C2.62002 4.48054 3.92942 4.05502 4.93761 3.72741L3.72655 2.72836e-07L3.25304e-07 1.21124L1.21124 4.93813Z" transform="translate(27.7334 25.1812)" fill="white"/>
<path d="M18.0941 3.82408C19.1234 3.48968 19.6867 2.3841 19.3523 1.35459C19.0179 0.325341 17.9123 -0.237982 16.8828 0.0964188L1.29187 5.16401C0.33027 5.51165 -0.210187 6.55052 0.0770192 7.54771C0.376261 8.5877 1.48099 9.22177 2.50267 8.88987L18.0941 3.824" transform="translate(14 17)" fill="white"/>
<path d="M1.21124 4.93761C2.22604 4.60785 3.53442 4.18267 4.93813 3.72672C4.48054 2.31777 4.05502 1.00836 3.72741 2.36108e-07L-1.33794e-07 1.21141L1.21124 4.93761Z" transform="translate(17.3296 19.8813)" fill="white"/>
<path d="M1.21124 4.93847L4.9383 3.72741C4.53463 2.48492 4.13092 1.24245 3.72715 -1.15426e-07L6.2962e-07 1.21141L1.21124 4.93847Z" transform="translate(25.1812 17.3293)" fill="white"/>
</svg>
