<svg width="50" height="50" viewBox="0 0 50 50" fill="none" xmlns="http://www.w3.org/2000/svg">
<circle cx="25" cy="25" r="25" fill="#1F8EFA"/>
<path fill-rule="evenodd" clip-rule="evenodd" d="M0.0216866 7.76176C0.0919644 3.5527 3.95752 -0.133611 8.16224 0.00681196C10.1767 -0.0866179 12.0706 0.790956 13.6136 2.02362C12.9553 2.77245 12.2734 3.4943 11.5445 4.16917C9.68974 2.88562 7.05141 2.51913 5.19669 4.00149C2.5428 5.83867 2.42224 10.1765 4.97446 12.1541C7.45669 14.4089 12.1486 13.2891 12.8345 9.83696C11.2795 9.81361 9.72085 9.83696 8.16613 9.78636C8.16224 8.8579 8.15835 7.92944 8.16224 7.00098C10.7614 6.99319 13.3606 6.9893 15.9636 7.00876C16.1195 9.19324 15.8311 11.5181 14.4906 13.3245C12.4603 16.1838 8.38419 17.0185 5.20446 15.7937C2.01307 14.5766 -0.247202 11.2023 0.0216866 7.76176Z" transform="translate(12.1431 17.1429)" fill="white"/>
<path fill-rule="evenodd" clip-rule="evenodd" d="M2.34972 0H4.66833C4.67222 0.776357 4.67611 1.55633 4.68389 2.33269C5.45944 2.34047 6.23861 2.34047 7.01417 2.34826V4.66927C6.23861 4.67705 5.46333 4.68095 4.68389 4.68873C4.67611 5.46898 4.67222 6.24534 4.66833 7.02142H2.34583C2.33806 6.24534 2.33806 5.46898 2.33028 4.69262C1.55472 4.68484 0.775278 4.67705 0 4.66927V2.34826C0.775278 2.34047 1.55083 2.33658 2.33028 2.33269C2.33417 1.55244 2.34194 0.776357 2.34972 0Z" transform="translate(31.4287 22.1429)" fill="white"/>
</svg>
