<svg width="50" height="50" viewBox="0 0 50 50" fill="none" xmlns="http://www.w3.org/2000/svg">
<circle cx="25" cy="25" r="25" fill="#1F8EFA"/>
<path d="M23.8582 12.7288C24.3551 9.40184 21.822 7.61336 18.3583 6.42025L19.4819 1.9135L16.7378 1.22983L15.6439 5.61782C14.9236 5.43811 14.1828 5.26856 13.4468 5.10057L14.5485 0.68367L11.8068 -2.98057e-07L10.6825 4.50519C10.0855 4.36924 9.49951 4.23485 8.93069 4.09343L8.93382 4.07937L5.15058 3.13473L4.42081 6.06475C4.42081 6.06475 6.4562 6.5312 6.41322 6.56011C7.52429 6.83749 7.72587 7.57273 7.69149 8.15561L6.41166 13.2898C6.48823 13.3093 6.58746 13.3374 6.69685 13.3812L6.40775 13.3093L4.61302 20.5015C4.47707 20.8391 4.1325 21.3454 3.35585 21.1532C3.38319 21.193 1.36187 20.6554 1.36187 20.6554L-1.49028e-07 23.7964L3.57071 24.6864C4.23485 24.8528 4.88571 25.027 5.52562 25.1911L4.39034 29.7502L7.13049 30.4339L8.25562 25.924C9.00336 26.1272 9.73 26.3147 10.441 26.4913L9.32058 30.98L12.0639 31.6637L13.1991 27.114C17.877 27.9992 21.3954 27.6422 22.8745 23.412C24.0676 20.0054 22.8158 18.0403 20.3546 16.7581C22.147 16.3432 23.4972 15.1642 23.8574 12.7288H23.8582ZM17.5895 21.518C16.7409 24.9247 11.0059 23.0838 9.14556 22.6213L10.652 16.5823C12.5116 17.0465 18.474 17.9653 17.5903 21.518H17.5895ZM18.4372 12.6796C17.6637 15.7783 12.8897 14.2039 11.3403 13.818L12.7061 8.34078C14.2555 8.72676 19.2436 9.44716 18.4372 12.6796Z" transform="translate(9 13) rotate(-14)" fill="white"/>
</svg>
