<svg width="50" height="50" viewBox="0 0 50 50" fill="none" xmlns="http://www.w3.org/2000/svg">
<circle cx="25" cy="25" r="25" fill="#1F8EFA"/>
<path d="M22.9542 0H3.04586C1.36693 0 0 1.36683 0 3.06059V23.1474C0 24.8412 1.36683 26.208 3.04576 26.208H19.8938L19.1062 23.4594L21.008 25.2274L22.8057 26.8914L26 29.7142V3.06059C26 1.36683 24.6332 0 22.9542 0ZM17.2194 19.4035C17.2194 19.4035 16.6846 18.7646 16.2388 18.2C18.1852 17.6502 18.928 16.432 18.928 16.432C18.3188 16.8332 17.7394 17.1155 17.2194 17.3085C16.4766 17.6206 15.7634 17.8285 15.0652 17.9474C13.6388 18.2148 12.3314 18.1406 11.2172 17.9326C10.3702 17.7691 9.64224 17.5314 9.03317 17.2938C8.69141 17.16 8.32 16.9966 7.94848 16.7886C7.904 16.7588 7.85941 16.744 7.81483 16.7142C7.78517 16.6994 7.77024 16.6846 7.75541 16.6698C7.488 16.5212 7.33941 16.4172 7.33941 16.4172C7.33941 16.4172 8.05259 17.6058 9.93941 18.1702C9.49376 18.7349 8.944 19.4034 8.944 19.4034C5.66048 19.2994 4.41259 17.1452 4.41259 17.1452C4.41259 12.3612 6.552 8.48341 6.552 8.48341C8.69141 6.87883 10.7268 6.92341 10.7268 6.92341L10.8754 7.10176C8.20117 7.87414 6.968 9.048 6.968 9.048C6.968 9.048 7.29483 8.86976 7.84448 8.61717C9.43424 7.91883 10.6972 7.72576 11.2172 7.68117C11.3062 7.66624 11.3806 7.65141 11.4698 7.65141C12.4654 7.52171 13.4729 7.51176 14.4709 7.62176C15.8822 7.78517 17.3978 8.20117 18.9428 9.048C18.9428 9.048 17.7692 7.93376 15.2434 7.16117L15.4514 6.92352C15.4514 6.92352 17.4868 6.87883 19.6262 8.48352C19.6262 8.48352 21.7658 12.3612 21.7658 17.1452C21.7658 17.1452 20.5028 19.2994 17.2194 19.4034V19.4035ZM10.3108 12.4652C9.464 12.4652 8.79552 13.208 8.79552 14.1142C8.79552 15.0206 9.47883 15.7634 10.3108 15.7634C11.1578 15.7634 11.8262 15.0206 11.8262 14.1142C11.8412 13.208 11.1578 12.4652 10.3109 12.4652H10.3108ZM15.7338 12.4652C14.8868 12.4652 14.2182 13.208 14.2182 14.1142C14.2182 15.0206 14.9018 15.7634 15.7338 15.7634C16.5806 15.7634 17.2491 15.0206 17.2491 14.1142C17.2491 13.208 16.5806 12.4652 15.7338 12.4652Z" transform="translate(12 10)" fill="white"/>
</svg>
