<svg width="50" height="50" viewBox="0 0 50 50" fill="none" xmlns="http://www.w3.org/2000/svg">
<path d="M25 50C38.8071 50 50 38.8071 50 25C50 11.1929 38.8071 0 25 0C11.1929 0 0 11.1929 0 25C0 38.8071 11.1929 50 25 50Z" fill="#1F8EFA"/>
<path fill-rule="evenodd" clip-rule="evenodd" d="M2.5 5C3.88086 5 5 3.88074 5 2.5C5 1.11926 3.88086 0 2.5 0C1.11914 0 0 1.11926 0 2.5C0 3.88074 1.11914 5 2.5 5ZM11.5 5C12.8809 5 14 3.88074 14 2.5C14 1.11926 12.8809 0 11.5 0C10.1191 0 9 1.11926 9 2.5C9 3.88074 10.1191 5 11.5 5ZM23 2.5C23 3.88074 21.8809 5 20.5 5C19.1191 5 18 3.88074 18 2.5C18 1.11926 19.1191 0 20.5 0C21.8809 0 23 1.11926 23 2.5Z" transform="translate(14 23)" fill="white"/>
</svg>
