<svg width="50" height="50" viewBox="0 0 50 50" fill="none" xmlns="http://www.w3.org/2000/svg">
<circle cx="25" cy="25" r="25" fill="#1F8EFA"/>
<path d="M2.84592 3.8869C2.86063 3.74163 2.84091 3.59494 2.78836 3.45871C2.73581 3.32248 2.65191 3.20054 2.54345 3.10278L0.30229 0.403054V0H7.26046L12.6385 11.795L17.367 0H24V0.403237L22.084 2.24024C22.003 2.30202 21.9403 2.38474 21.9028 2.4795C21.8653 2.57425 21.8544 2.67744 21.8711 2.77795V16.2755C21.8544 16.376 21.8653 16.4792 21.9028 16.5739C21.9403 16.6687 22.003 16.7514 22.084 16.8132L23.9551 18.6502V19.0534H14.5435V18.6502L16.4818 16.7683C16.6723 16.5778 16.6723 16.5219 16.6723 16.2308V5.32067L11.2829 19.0086H10.5545L4.28006 5.32067V14.4945C4.25426 14.6849 4.27213 14.8786 4.33231 15.061C4.39249 15.2435 4.49341 15.4098 4.62742 15.5474L7.14834 18.6053V19.0086H0V18.6055L2.52092 15.5474C2.65385 15.4097 2.75252 15.2426 2.80898 15.0597C2.86544 14.8768 2.87809 14.6832 2.84592 14.4945V3.8869Z" transform="translate(13 15)" fill="white"/>
</svg>
