<svg width="65" height="65" viewBox="0 0 65 65" version="1.1" xmlns="http://www.w3.org/2000/svg" xmlns:xlink="http://www.w3.org/1999/xlink">
<title>BNB</title>
<desc>Created using Figma</desc>
<g id="Canvas" transform="translate(536 -21)">
<g id="BNB">
<g id="Fill 1">
<use xlink:href="#path0_fill" transform="translate(-536 21.0001)" fill="url(#paint0_linear)"/>
</g>
</g>
</g>
<defs>
<linearGradient id="paint0_linear" x1="0" y1="0" x2="1" y2="0" gradientUnits="userSpaceOnUse" gradientTransform="matrix(0 65 -65 0 32.5 0)">
<stop offset="0" stop-color="#F8D175"/>
<stop offset="1" stop-color="#F4C148"/>
</linearGradient>
<path id="path0_fill" fill-rule="evenodd" d="M 49.8938 37.8088L 44.6162 32.5312L 49.925 27.2224L 55.2025 32.5L 49.8938 37.8088ZM 32.5 55.2026L 18.1801 40.8827L 23.1955 35.8672L 32.2379 44.9095L 41.2802 35.8672L 46.5578 41.1448L 32.5 55.2026ZM 9.79768 32.5L 14.8129 27.4845L 19.8596 32.5312L 14.8441 37.5467L 9.79768 32.5ZM 37.9443 32.5312L 32.2379 38.2375L 26.5315 32.5312L 32.2379 26.8248L 37.9443 32.5312ZM 32.5 9.79745L 46.589 23.8865L 41.2802 29.1952L 32.2379 20.1529L 23.1955 29.1952L 18.1489 24.1486L 32.5 9.79745ZM 32.5 0C 14.5508 0 0 14.5508 0 32.5C 0 50.4494 14.5508 65 32.5 65C 50.4494 65 65 50.4494 65 32.5C 65 14.5508 50.4494 0 32.5 0Z"/>
</defs>
</svg>
