<svg width="65" height="65" viewBox="0 0 65 65" version="1.1" xmlns="http://www.w3.org/2000/svg" xmlns:xlink="http://www.w3.org/1999/xlink">
<title>BTC</title>
<desc>Created using Figma</desc>
<g id="Canvas" transform="translate(326 -21)">
<g id="BTC">
<g id="Fill 1">
<use xlink:href="#path0_fill" transform="translate(-326 21.0001)" fill="url(#paint0_linear)"/>
</g>
</g>
</g>
<defs>
<linearGradient id="paint0_linear" x1="0" y1="0" x2="1" y2="0" gradientUnits="userSpaceOnUse" gradientTransform="matrix(0 65 -65 0 32.5 0)">
<stop offset="0" stop-color="#FFB862"/>
<stop offset="0.981864" stop-color="#F76A1A"/>
</linearGradient>
<path id="path0_fill" fill-rule="evenodd" d="M 31.6304 29.667L 33.5524 21.9593C 33.7727 22.0142 34.0424 22.0739 34.3482 22.1415C 37.0671 22.7434 42.6353 23.976 41.6163 28.0651C 40.6185 32.0624 34.8903 30.5337 32.264 29.8329C 32.0252 29.7691 31.812 29.7122 31.6304 29.667ZM 28.5408 42.0554L 30.6606 33.5572C 30.9237 33.6228 31.2451 33.6949 31.6092 33.7766C 34.8672 34.5077 41.5436 36.0059 40.4221 40.503C 39.3277 44.9016 32.4422 43.0826 29.2927 42.2506C 29.0095 42.1758 28.7566 42.109 28.5408 42.0554ZM 49.2427 28.1343C 48.7358 31.5614 46.8359 33.2208 44.3134 33.8024C 47.7771 35.6056 49.5397 38.371 47.8607 43.165C 45.777 49.1188 40.8268 49.6212 34.244 48.3757L 32.6462 54.7782L 28.7858 53.8161L 30.3626 47.4993C 29.3619 47.2508 28.3394 46.9869 27.2861 46.7009L 25.7038 53.0476L 21.8478 52.0854L 23.4453 45.6706C 22.5437 45.4397 21.6279 45.1947 20.6933 44.9603L 15.6694 43.708L 17.5859 39.2891C 17.5859 39.2891 20.4304 40.0455 20.3919 39.9894C 21.4848 40.2599 21.9697 39.5473 22.161 39.0723L 24.6858 28.9512C 24.8276 28.9853 24.9649 29.0204 25.0936 29.0524C 24.9395 28.9908 24.8001 28.9512 24.6924 28.9237L 26.4932 21.6987C 26.5407 20.8784 26.2581 19.8439 24.6945 19.4533C 24.755 19.4127 21.8908 18.7564 21.8908 18.7564L 22.9177 14.6331L 28.2417 15.9625L 28.2372 15.9821C 29.0377 16.1813 29.8622 16.3703 30.7022 16.5616L 32.2845 10.2218L 36.1428 11.1839L 34.5925 17.3993C 35.6283 17.636 36.6707 17.8745 37.6855 18.1274L 39.2248 11.9524L 43.0853 12.9146L 41.5043 19.2565C 46.3782 20.9355 49.943 23.4524 49.2427 28.1343ZM 32.5 0C 14.5508 0 0 14.5506 0 32.5C 0 50.4492 14.5508 65 32.5 65C 50.4494 65 65 50.4492 65 32.5C 65 14.5506 50.4494 0 32.5 0Z"/>
</defs>
</svg>
