<svg width="65" height="65" viewBox="0 0 65 65" version="1.1" xmlns="http://www.w3.org/2000/svg" xmlns:xlink="http://www.w3.org/1999/xlink">
<title>BTG</title>
<desc>Created using Figma</desc>
<g id="Canvas" transform="translate(-1349 504)">
<g id="BTG">
<g id="Combined Shape">
<use xlink:href="#path0_fill" transform="translate(1349 -504)" fill="url(#paint0_linear)"/>
</g>
</g>
</g>
<defs>
<linearGradient id="paint0_linear" x1="0" y1="0" x2="1" y2="0" gradientUnits="userSpaceOnUse" gradientTransform="matrix(0 65 -65 0 32.5 0)">
<stop offset="0" stop-color="#FDE785"/>
<stop offset="1" stop-color="#EBA809"/>
</linearGradient>
<path id="path0_fill" fill-rule="evenodd" d="M 32.5 0C 14.5506 0 0 14.5508 0 32.5C 0 50.4494 14.5506 65 32.5 65C 50.4492 65 65 50.4494 65 32.5C 65 14.5508 50.4492 0 32.5 0ZM 32.4999 51.0001C 22.2828 51.0001 13.9999 42.7172 13.9999 32.5001C 13.9999 22.2831 22.2828 14.0001 32.4999 14.0001C 42.7169 14.0001 50.9999 22.2831 50.9999 32.5001C 50.9999 42.7172 42.7169 51.0001 32.4999 51.0001ZM 30.8383 16.9265C 30.8416 18.3981 30.8416 19.8697 30.8416 21.3413L 33.0448 21.3446C 33.0498 19.836 33.0532 18.3258 33.0448 16.8172C 32.3098 16.8424 31.5715 16.8777 30.8383 16.9265ZM 36.1393 21.4119C 38.0768 21.6726 40.1589 21.9686 41.7011 23.2754C 44.0573 25.3894 43.7529 29.8277 40.8686 31.3599C 42.5958 31.7635 44.3062 32.9122 44.7317 34.7269C 45.2867 37.1049 44.8461 39.9573 42.9339 41.6324C 41.0401 43.1881 38.4771 43.3933 36.1343 43.6169C 36.1444 44.9927 36.141 46.3684 36.1376 47.7475C 41.0654 46.545 45.3204 42.8786 47.1283 38.1359C 48.8438 33.7598 48.4401 28.6118 46.015 24.5804C 43.874 20.9477 40.2346 18.2736 36.1477 17.2511C 36.1376 18.6386 36.1376 20.0261 36.141 21.4119L 36.1393 21.4119ZM 21.4301 21.353C 23.5661 21.4539 25.702 21.4338 27.8379 21.4304C 27.8379 20.132 27.8429 18.8337 27.8311 17.5353C 25.4396 18.3106 23.3104 19.7015 21.4285 21.353L 21.4301 21.353ZM 18.9378 24.6999C 16.4268 28.9717 16.1443 34.4527 18.2382 38.9482C 20.0461 42.9779 23.6334 46.1128 27.8329 47.4633C 27.8413 46.1683 27.838 44.8699 27.838 43.5749C 25.6937 43.553 23.5443 43.6321 21.405 43.516C 21.4286 42.322 21.7078 41.1548 22.1164 40.033C 23.1659 40.0111 24.2607 40.1945 25.2749 39.853C 25.8669 39.3552 25.6987 38.5328 25.729 37.8517C 25.6987 33.96 25.7458 30.0665 25.7088 26.1748C 25.7475 25.5475 25.3539 24.8697 24.6997 24.7453C 23.6233 24.5317 22.5184 24.6158 21.4303 24.609C 21.3024 23.7345 21.289 22.8482 21.2738 21.9619C 21.3094 21.7801 21.2659 21.5918 21.1544 21.4439C 20.5389 22.611 19.5601 23.5344 18.9378 24.6982L 18.9378 24.6999ZM 30.9291 24.8697L 30.9291 30.6081C 32.848 30.5744 34.9755 30.7864 36.654 29.673C 38.0465 28.7631 37.9574 26.454 36.5194 25.6366C 34.841 24.641 32.7925 24.9235 30.9308 24.8697L 30.9291 24.8697ZM 30.9291 33.6959L 30.9291 40.0616C 33.2971 39.8699 35.9543 40.2684 38.0146 38.8406C 39.4879 37.8634 39.3113 35.445 37.7926 34.599C 35.729 33.3663 33.2214 33.7581 30.9308 33.6959L 30.9291 33.6959ZM 30.8434 43.6607C 30.8434 45.1323 30.84 46.6039 30.835 48.0788C 31.6019 48.1293 32.3688 48.1595 33.1357 48.1797C 33.1424 46.6745 33.1391 45.1676 33.1391 43.6607L 30.8434 43.6607Z"/>
</defs>
</svg>
