<svg width="65" height="65" viewBox="0 0 65 65" version="1.1" xmlns="http://www.w3.org/2000/svg" xmlns:xlink="http://www.w3.org/1999/xlink">
<title>DASH</title>
<desc>Created using Figma</desc>
<g id="Canvas" transform="translate(-1341 674)">
<g id="DASH">
<g id="Combined Shape">
<use xlink:href="#path0_fill" transform="translate(1341 -674)" fill="url(#paint0_linear)"/>
</g>
</g>
</g>
<defs>
<linearGradient id="paint0_linear" x1="0" y1="0" x2="1" y2="0" gradientUnits="userSpaceOnUse" gradientTransform="matrix(0 65 -65 0 32.5 0)">
<stop offset="0" stop-color="#6AC1FF"/>
<stop offset="1" stop-color="#2576B9"/>
</linearGradient>
<path id="path0_fill" fill-rule="evenodd" d="M 32.5 0C 14.5505 0 0 14.5508 0 32.5C 0 50.4494 14.5505 65 32.5 65C 50.4492 65 65 50.4494 65 32.5C 65 14.5508 50.4492 0 32.5 0ZM 28.4952 29.8763L 12.8143 29.8763L 10.9999 35.7745L 26.6808 35.7745L 28.4952 29.8763ZM 49.4586 20.0001C 50.8013 20.0001 52.5759 20.6214 53.4387 22.2997C 54.3016 23.9774 54.0627 24.8404 53.4396 27.0917L 53.4387 27.0948C 52.8156 29.3486 50.7865 36.11 49.9546 38.5078C 49.1229 40.9055 47.5886 42.9194 45.6224 44.0704L 45.4473 44.173C 43.61 45.2502 42.8381 45.7026 40.1718 45.7026L 12.031 45.7026L 14.0132 39.2792L 40.4788 39.2792L 44.4333 26.4236L 18.1771 26.4236L 20.1591 20.0001L 49.4586 20.0001Z"/>
</defs>
</svg>
