<svg width="65" height="65" viewBox="0 0 65 65" fill="none" xmlns="http://www.w3.org/2000/svg">
<path fill-rule="evenodd" clip-rule="evenodd" d="M32.5 65C50.4492 65 65 50.4493 65 32.5C65 14.5507 50.4492 0 32.5 0C14.5508 0 0 14.5507 0 32.5C0 50.4493 14.5508 65 32.5 65ZM21.561 23.5127V40.9512H17V48.9999L21.561 49H32.4451L32.4521 48.9999H33.0974V48.9968C33.3743 48.9962 33.6482 48.9965 33.9194 48.9968C36.8408 49.0002 39.4373 49.0031 41.7087 47.9268C44.3735 46.6727 46.3901 44.5005 47.8125 42.1585C49.2529 39.8165 50 36.6099 50 33.4973V31.3894C49.9819 28.3524 49.2529 25.6628 47.8125 23.3207C46.3899 20.9787 44.3374 18.879 41.7087 17.6097C39.1648 16.3815 37.3748 16.0223 33.0974 16.0005H32.9568L32.6611 16H21.561L17 16.0005V23.5127H21.561ZM32.7961 40.9512H30.9512V23.5122L33.0974 23.5127L34.9756 23.5122C37.5244 23.5122 39.5366 29.0122 39.5366 31.5707V33.4973C39.5366 36.2383 37.1221 40.9512 34.9756 40.9512L33.0974 40.9512L32.7961 40.9512Z" fill="url(#paint0_linear)"/>
<defs>
<linearGradient id="paint0_linear" x1="32.5" y1="0" x2="32.5" y2="65" gradientUnits="userSpaceOnUse">
<stop stop-color="#E0CD81"/>
<stop offset="1" stop-color="#BB9F32"/>
</linearGradient>
</defs>
</svg>
