<svg width="65" height="66" viewBox="0 0 65 66" version="1.1" xmlns="http://www.w3.org/2000/svg" xmlns:xlink="http://www.w3.org/1999/xlink">
<title>EOS</title>
<desc>Created using Figma</desc>
<g id="Canvas" transform="translate(326 -161)">
<g id="EOS">
<g id="Fill 9">
<use xlink:href="#path0_fill" transform="translate(-326 161.181)" fill="url(#paint0_linear)"/>
</g>
</g>
</g>
<defs>
<linearGradient id="paint0_linear" x1="0" y1="0" x2="1" y2="0" gradientUnits="userSpaceOnUse" gradientTransform="matrix(0 63.6864 -63.6864 0 32.5 0)">
<stop offset="0" stop-color="#76D4FF"/>
<stop offset="1" stop-color="#FFCDB0"/>
</linearGradient>
<path id="path0_fill" fill-rule="evenodd" d="M 31.9695 12.8739L 31.9695 20.1609L 25.8126 31.0251L 23.6508 24.2376L 31.9695 12.8739ZM 19.7653 41.6953L 23.1644 26.1652L 25.1082 32.2679L 19.7653 41.6953ZM 41.3477 24.2375L 33.0308 12.8741L 33.0308 20.1609L 39.1869 31.0233L 41.3477 24.2375ZM 19.4114 44.446L 25.5416 33.6293L 28.9866 44.446L 19.4114 44.446ZM 45.2346 41.6946L 41.8341 26.1651L 39.8912 32.2662L 45.2346 41.6946ZM 34.9127 44.446L 30.0869 44.446L 26.2462 32.3864L 32.5003 21.3508L 38.7532 32.3846L 34.9127 44.446ZM 36.013 44.446L 45.5887 44.446L 39.458 33.6277L 36.013 44.446ZM 31.5605 52.5267L 20.3359 45.4944L 29.3206 45.4944L 31.5605 52.5267ZM 30.4208 45.4944L 32.5 52.0229L 34.579 45.4944L 30.4208 45.4944ZM 44.6645 45.4942L 33.44 52.5268L 35.679 45.4942L 44.6645 45.4942ZM 46.9958 45.1021C 46.9958 45.1021 46.9953 45.1024 46.9955 45.1029C 46.9864 45.1386 46.9733 45.1734 46.9562 45.2067C 46.956 45.2072 46.956 45.2072 46.956 45.2075C 46.9151 45.2877 46.8537 45.3579 46.7748 45.4091L 46.7748 45.4093C 46.7746 45.4093 46.7743 45.4096 46.7741 45.4098C 46.7743 45.4101 46.7735 45.4101 46.773 45.4104C 46.773 45.4104 46.773 45.4104 46.7727 45.4104C 46.7725 45.4109 46.772 45.4106 46.7714 45.4117C 46.7709 45.4119 46.7706 45.4119 46.7704 45.4122C 46.7699 45.4125 46.7699 45.4127 46.7693 45.4127C 46.7693 45.413 46.7683 45.4127 46.7686 45.4132C 46.768 45.4138 46.7675 45.414 46.7667 45.4143L 32.7849 54.1744C 32.6995 54.2278 32.603 54.2543 32.5066 54.2543L 32.4937 54.2543C 32.3973 54.2543 32.3008 54.2278 32.2154 54.1744L 18.2336 45.4143C 18.233 45.414 18.2325 45.4138 18.2317 45.4132C 18.232 45.4132 18.2315 45.4132 18.2309 45.4127C 18.2307 45.413 18.2301 45.4125 18.2301 45.4122C 18.2299 45.4122 18.2294 45.4119 18.2291 45.4117C 18.2283 45.4112 18.2278 45.4109 18.2273 45.4104C 18.2273 45.4109 18.227 45.4101 18.2265 45.4098C 18.2262 45.4098 18.2257 45.4096 18.2254 45.4093L 18.2254 45.4091C 18.1489 45.3593 18.0886 45.2916 18.048 45.2143C 18.0477 45.2141 18.0477 45.2141 18.0477 45.2141C 18.0477 45.2138 18.0475 45.2135 18.0475 45.2133C 18.0283 45.1768 18.0137 45.1386 18.0037 45.0995L 18.0037 45.0993C 18.0037 45.099 18.0037 45.099 18.0037 45.0987C 17.9869 45.0332 17.983 44.9638 17.9932 44.8946C 17.995 44.8812 17.9974 44.8678 18.0005 44.8545L 22.5563 24.0408C 22.5718 23.9635 22.6043 23.8906 22.6515 23.828L 32.0707 10.9609C 32.1724 10.8217 32.3249 10.7449 32.5003 10.7462C 32.6691 10.7465 32.8276 10.8217 32.9296 10.9609L 42.3472 23.8283C 42.3609 23.8469 42.3737 23.8663 42.385 23.8865L 42.3858 23.8878C 42.386 23.8878 42.3863 23.8886 42.3863 23.8888C 42.3866 23.8893 42.3858 23.8891 42.3871 23.8899C 42.3918 23.8985 42.396 23.9072 42.4004 23.9161C 42.4002 23.9163 42.401 23.9166 42.401 23.9171C 42.4012 23.9174 42.4012 23.9176 42.4015 23.9182C 42.4015 23.9182 42.4015 23.9182 42.4018 23.9184C 42.4198 23.9572 42.4337 23.9981 42.4421 24.0406L 47 44.855C 47.0023 44.866 47.0044 44.8773 47.0063 44.8885L 47.0063 44.8893C 47.0178 44.9614 47.0136 45.0337 46.9958 45.1021ZM 32.5 0C 14.5508 0 0 14.5511 0 32.5C 0 50.4494 14.5508 65 32.5 65C 50.4494 65 65 50.4494 65 32.5C 65 14.5511 50.4494 0 32.5 0Z"/>
</defs>
</svg>
