<svg width="65" height="65" viewBox="0 0 65 65" fill="none" xmlns="http://www.w3.org/2000/svg">
<path fill-rule="evenodd" clip-rule="evenodd" d="M32.5 0C14.5506 0 0 14.5508 0 32.5C0 50.4492 14.5506 65 32.5 65C50.4492 65 65 50.4492 65 32.5C65 14.5508 50.4492 0 32.5 0ZM43.6645 25.3118L32.497 7.10938L21.3281 25.3118L32.497 20.3218L43.6645 25.3118ZM32.497 21.045L43.6645 26.0321L32.497 32.5163L21.3281 26.0321L32.497 21.045ZM32.497 42.8516L21.3281 27.3913L32.497 33.8724V33.8738L43.6719 27.3913L32.497 42.8516ZM32.0498 51.119L32.6295 50.5604L34.483 52.8667H35.0882L32.9765 50.2176L34.9189 48.2879H34.2799L32.528 50.0102L32.0498 50.5265V46.3667H31.542V52.8667H32.0498V51.119ZM26.2269 47.1496H24.1152V52.8667H23.5947V47.1496H21.4873V46.7052H26.2269V47.1496ZM26.4046 50.5096C26.4046 50.0695 26.4892 49.6731 26.6585 49.3205C26.8306 48.9678 27.0718 48.6942 27.3821 48.4995C27.6953 48.302 28.0493 48.2033 28.4443 48.2033C29.0537 48.2033 29.5474 48.4177 29.9254 48.8465C30.3035 49.2725 30.4925 49.8381 30.4925 50.5434V50.6492C30.4925 51.0922 30.4064 51.4914 30.2343 51.8468C30.0651 52.1995 29.8253 52.4717 29.5149 52.6636C29.2046 52.8554 28.8506 52.9513 28.4528 52.9513C27.8462 52.9513 27.3525 52.7383 26.9716 52.3123C26.5936 51.8835 26.4046 51.3164 26.4046 50.6111V50.5096ZM26.9124 50.6492C26.9124 51.1965 27.0535 51.6465 27.3356 51.9992C27.6205 52.349 27.9929 52.5239 28.4528 52.5239C28.9098 52.5239 29.2794 52.349 29.5615 51.9992C29.8464 51.6465 29.9889 51.1824 29.9889 50.6069V50.5096C29.9889 50.1598 29.924 49.8396 29.7942 49.549C29.6645 49.2584 29.4825 49.0341 29.2483 48.8761C29.0142 48.7153 28.7462 48.6349 28.4443 48.6349C27.9929 48.6349 27.6247 48.8126 27.3398 49.1681C27.0549 49.5208 26.9124 49.9834 26.9124 50.5561V50.6492ZM37.4791 52.9513C37.0898 52.9513 36.7372 52.8554 36.4212 52.6636C36.108 52.4717 35.864 52.2051 35.6891 51.8638C35.5142 51.5196 35.4267 51.1345 35.4267 50.7085V50.5265C35.4267 50.0864 35.5114 49.69 35.6806 49.3374C35.8527 48.9847 36.0911 48.7083 36.3958 48.508C36.7005 48.3048 37.0306 48.2033 37.386 48.2033C37.9418 48.2033 38.3819 48.3937 38.7063 48.7746C39.0336 49.1526 39.1972 49.6703 39.1972 50.3276V50.6111H35.9303V50.7085C35.9303 51.2276 36.0784 51.6606 36.3746 52.0076C36.6737 52.3518 37.0489 52.5239 37.5003 52.5239C37.7711 52.5239 38.0095 52.4745 38.2155 52.3758C38.4242 52.2771 38.6132 52.1191 38.7825 51.9018L39.0999 52.143C38.7275 52.6819 38.1872 52.9513 37.4791 52.9513ZM37.386 48.6349C37.0052 48.6349 36.6836 48.7746 36.4212 49.0539C36.1616 49.3332 36.0037 49.7084 35.9472 50.1795H38.6937V50.1245C38.6795 49.6844 38.554 49.3261 38.317 49.0496C38.08 48.7731 37.7697 48.6349 37.386 48.6349ZM40.6826 49.0708L40.6657 48.2879H40.1832V52.8667H40.6868V49.7309C40.8025 49.398 40.9802 49.1343 41.22 48.9396C41.4626 48.7421 41.7405 48.6434 42.0537 48.6434C42.4289 48.6434 42.7011 48.7435 42.8704 48.9438C43.0425 49.1441 43.13 49.4488 43.1328 49.8579V52.8667H43.6364V49.8621C43.6335 49.3092 43.5122 48.8945 43.2724 48.618C43.0326 48.3415 42.6673 48.2033 42.1764 48.2033C41.8661 48.2033 41.5825 48.278 41.3258 48.4276C41.0691 48.5743 40.8547 48.7887 40.6826 49.0708Z" fill="url(#paint0_linear)"/>
<defs>
<linearGradient id="paint0_linear" x1="0.656789" y1="0" x2="0.656789" y2="63.6864" gradientUnits="userSpaceOnUse">
<stop stop-color="#76D4FF"/>
<stop offset="1" stop-color="#627EEA"/>
</linearGradient>
</defs>
</svg>
