<svg width="65" height="65" viewBox="0 0 65 65" version="1.1" xmlns="http://www.w3.org/2000/svg" xmlns:xlink="http://www.w3.org/1999/xlink">
<title>LTC</title>
<desc>Created using Figma</desc>
<g id="Canvas" transform="translate(-1337 1097)">
<g id="LTC">
<g id="Combined Shape">
<use xlink:href="#path0_fill" transform="translate(1337 -1097)" fill="url(#paint0_linear)"/>
</g>
</g>
</g>
<defs>
<linearGradient id="paint0_linear" x1="0" y1="0" x2="1" y2="0" gradientUnits="userSpaceOnUse" gradientTransform="matrix(0 65 -65 0 32.5 0)">
<stop offset="0" stop-color="#FFFFFF"/>
<stop offset="1" stop-color="#B8B8B8"/>
</linearGradient>
<path id="path0_fill" fill-rule="evenodd" d="M 0 32.5C 0 14.5508 14.5505 0 32.5 0C 50.4492 0 65 14.5508 65 32.5C 65 50.4495 50.4492 65 32.5 65C 14.5505 65 0 50.4495 0 32.5ZM 18.7778 40.664L 21.8696 39.4637L 19.3239 49.8334L 47.2197 49.8334L 49.1112 42.0962L 32.3801 42.0962L 34.2175 34.5497L 37.3093 33.3125L 38.7827 27.3542L 35.7277 28.5914L 39.0188 15.1667L 27.906 15.1667L 23.3972 33.4295L 20.2686 34.6862L 18.7778 40.664Z"/>
</defs>
</svg>
