<svg width="65" height="65" viewBox="0 0 65 65" version="1.1" xmlns="http://www.w3.org/2000/svg" xmlns:xlink="http://www.w3.org/1999/xlink">
<title>OMG</title>
<desc>Created using Figma</desc>
<g id="Canvas" transform="translate(153 -941)">
<g id="OMG">
<g id="Combined Shape">
<use xlink:href="#path0_fill" transform="translate(-153 941)" fill="url(#paint0_linear)"/>
</g>
</g>
</g>
<defs>
<linearGradient id="paint0_linear" x1="0" y1="0" x2="1" y2="0" gradientUnits="userSpaceOnUse" gradientTransform="matrix(0 -65 65 0 32.5 65)">
<stop offset="0" stop-color="#1A53F0"/>
<stop offset="1" stop-color="#00A4FF"/>
</linearGradient>
<path id="path0_fill" fill-rule="evenodd" d="M 32.5 0C 14.5506 0 0 14.5508 0 32.5C 0 50.4492 14.5506 65 32.5 65C 50.4492 65 65 50.4492 65 32.5C 65 14.5508 50.4492 0 32.5 0ZM 23.9798 33.0317C 19.573 33.0348 16.0028 36.6091 16.0048 41.0159C 16.0028 45.422 19.5719 48.996 23.978 49.0001C 26.0948 48.9996 28.1248 48.1581 29.6211 46.6607C 31.1175 45.1633 31.9576 43.1328 31.9566 41.0159C 31.9576 38.8993 31.1177 36.8691 29.6218 35.3718C 28.1258 33.8744 26.0964 33.0327 23.9798 33.0317ZM 23.9798 46.5855C 20.9075 46.5835 18.4183 44.0918 18.4193 41.0195C 18.4183 39.5438 19.0036 38.1281 20.0464 37.084C 21.0892 36.0398 22.5041 35.4526 23.9798 35.4517C 25.4558 35.4521 26.8712 36.0391 27.9144 37.0833C 28.9576 38.1275 29.5431 39.5435 29.5421 41.0195C 29.5381 44.0904 27.0507 46.5794 23.9798 46.5855ZM 41.0188 16C 38.9022 16.001 36.8727 16.8427 35.3768 18.34C 33.8808 19.8373 33.041 21.8676 33.0419 23.9842C 33.0399 28.391 36.6102 31.9653 41.0169 31.9683C 43.1338 31.9678 45.1638 31.1263 46.6601 29.629C 48.1565 28.1316 48.9966 26.101 48.9956 23.9842C 48.9966 21.8673 48.1565 19.8368 46.6601 18.3394C 45.1638 16.842 43.1338 16.0005 41.0169 16L 41.0188 16ZM 41.0188 29.5539C 39.5431 29.5534 38.128 28.9667 37.0849 27.9229C 36.0417 26.879 35.456 25.4636 35.4565 23.9879C 35.4555 22.5119 36.041 21.0959 37.0842 20.0517C 38.1274 19.0075 39.5428 18.4205 41.0188 18.42C 42.4945 18.421 43.9094 19.0082 44.9522 20.0523C 45.995 21.0965 46.5803 22.5122 46.5793 23.9879C 46.5753 27.0581 44.089 29.5468 41.0188 29.5539ZM 23.9798 16C 20.1828 16.005 16.9139 18.6816 16.1598 22.403C 15.4058 26.1243 17.3749 29.8623 20.8705 31.345C 24.369 32.8234 28.4248 31.63 30.5651 28.4923C 32.7076 25.3532 32.3435 21.1396 29.6943 18.4145L 31.9548 18.4145L 31.9548 16L 23.9798 16ZM 29.5421 23.9842C 29.5426 25.4599 28.9569 26.8754 27.9137 27.9192C 26.8706 28.963 25.4555 29.5497 23.9798 29.5502C 20.9075 29.5482 18.4183 27.0565 18.4193 23.9842C 18.4183 20.9119 20.9075 18.4202 23.9798 18.4182C 27.0514 18.4233 29.5399 20.9126 29.544 23.9842L 29.5421 23.9842Z"/>
</defs>
</svg>
