<svg width="65" height="65" viewBox="0 0 65 65" version="1.1" xmlns="http://www.w3.org/2000/svg" xmlns:xlink="http://www.w3.org/1999/xlink">
<title>SNT</title>
<desc>Created using Figma</desc>
<g id="Canvas" transform="translate(-652 249)">
<g id="SNT">
<g id="Combined Shape">
<use xlink:href="#path0_fill" transform="translate(652 -249)" fill="url(#paint0_linear)"/>
</g>
</g>
</g>
<defs>
<linearGradient id="paint0_linear" x1="0" y1="0" x2="1" y2="0" gradientUnits="userSpaceOnUse" gradientTransform="matrix(0 65 -65 0 32.5 0)">
<stop offset="0" stop-color="#61B3FA"/>
<stop offset="1" stop-color="#5B6DEE"/>
</linearGradient>
<path id="path0_fill" fill-rule="evenodd" d="M 32.5 0C 14.5505 0 0 14.5508 0 32.5C 0 50.4492 14.5505 65 32.5 65C 50.4492 65 65 50.4492 65 32.5C 65 14.5508 50.4492 0 32.5 0ZM 26.5938 30.7544C 25.3734 30.7481 24.1549 30.8535 22.9537 31.0694C 23.9425 21.9256 31.5637 15 40.6375 15C 46.1937 15 50 17.7213 50 23.3519C 50 28.9847 45.4303 31.7059 38.765 31.7059C 36.3041 31.7059 34.4917 31.4686 32.6794 31.2313C 30.8671 30.9939 29.0547 30.7566 26.5938 30.7566L 26.5938 30.7544ZM 15 42.4444C 15 36.8138 19.5697 34.0903 26.235 34.0903C 28.6946 34.0903 30.5068 34.3281 32.3192 34.566C 34.132 34.8039 35.9451 35.0419 38.4062 35.0419C 39.6266 35.0481 40.8451 34.9427 42.0463 34.7269C 41.0575 43.8728 33.4363 50.7962 24.3625 50.7962C 18.8063 50.7962 15 48.075 15 42.4444Z"/>
</defs>
</svg>
