<svg width="65" height="65" viewBox="0 0 65 65" version="1.1" xmlns="http://www.w3.org/2000/svg" xmlns:xlink="http://www.w3.org/1999/xlink">
<title>TRX</title>
<desc>Created using Figma</desc>
<g id="Canvas" transform="translate(-975 844)">
<g id="TRX">
<g id="Combined Shape">
<use xlink:href="#path0_fill" transform="translate(975 -844)" fill="url(#paint0_linear)"/>
</g>
</g>
</g>
<defs>
<linearGradient id="paint0_linear" x1="0" y1="0" x2="1" y2="0" gradientUnits="userSpaceOnUse" gradientTransform="matrix(0 65 -65 0 32.5 0)">
<stop offset="0" stop-color="#ACACAC"/>
<stop offset="1" stop-color="#555555"/>
</linearGradient>
<path id="path0_fill" fill-rule="evenodd" d="M 32.5 0C 14.5506 0 0 14.5508 0 32.5C 0 50.4492 14.5506 65 32.5 65C 50.4492 65 65 50.4492 65 32.5C 65 14.5508 50.4492 0 32.5 0ZM 47.9774 25.7425C 46.4993 24.6936 44.9176 23.5744 43.371 22.4644C 43.3359 22.4385 43.3026 22.4126 43.26 22.3867C 43.0788 22.2379 42.8736 22.1209 42.6532 22.0408L 42.6347 22.0316C 38.4982 21.0178 34.2915 19.9781 30.2234 18.9717L 19.1533 16.2394L 18.8629 16.1617C 18.5299 16.0673 18.1451 15.9619 17.7344 16.0137C 17.6219 16.0309 17.5146 16.0726 17.4199 16.1358L 17.3163 16.2227C 17.1866 16.3557 17.0875 16.5155 17.0259 16.6908L 17 16.7611L 17 17.1588L 17.0185 17.2198C 19.3494 23.8519 21.7433 30.5802 24.052 37.0901C 25.8298 42.1035 27.6779 47.2944 29.4797 52.3929C 29.5907 52.7388 29.9071 52.9664 30.3011 52.9997L 30.3862 52.9997C 30.7369 53.0087 31.0646 52.8257 31.2409 52.5224L 38.0117 42.5086C 39.66 40.0722 41.3102 37.6285 42.9603 35.1921L 44.986 32.1915C 46.096 30.545 47.243 28.8449 48.3807 27.1892L 48.4399 27.1041L 48.4399 26.9987C 48.4658 26.6953 48.4732 26.0718 47.9774 25.7407L 47.9774 25.7425ZM 40.0449 29.3925C 38.4539 30.2324 36.8315 31.1 35.198 31.9584L 38.0543 28.8541C 39.242 27.5536 40.4814 26.2087 41.695 24.8916L 41.7209 24.8657C 41.8227 24.7269 41.9522 24.5974 42.0891 24.4587C 42.1816 24.3643 42.2851 24.2681 42.3795 24.1553C 43.0122 24.5993 43.6523 25.0488 44.2683 25.4909C 44.7123 25.811 45.1655 26.1329 45.628 26.4529C 43.7605 27.4204 41.8994 28.4003 40.0449 29.3925ZM 35.9601 28.9763C 34.7372 30.3193 33.4719 31.6975 32.2158 33.0591C 29.7779 30.0594 27.3329 27.0656 24.8807 24.0776L 21.5897 20.0632L 21.5823 20.054C 21.3344 19.7691 21.0939 19.4564 20.8552 19.1623C 20.7017 18.9625 20.5389 18.7719 20.3761 18.5721C 21.3677 18.8311 22.3685 19.0753 23.3508 19.3084C 24.2147 19.5175 25.112 19.7339 25.9925 19.9596L 40.8754 23.6262C 39.2252 25.4133 37.5658 27.2243 35.9601 28.9763ZM 31.659 45.8737C 31.7534 44.9635 31.857 44.0275 31.9421 43.108C 32.0198 42.3699 32.0956 41.617 32.1733 40.8973C 32.2917 39.743 32.4212 38.5479 32.5248 37.3769L 32.5489 37.1697C 32.634 36.4223 32.7191 35.6527 32.7709 34.8795C 32.8704 34.8233 32.9736 34.7738 33.0798 34.7315C 33.2075 34.6723 33.3351 34.6205 33.4627 34.5428C 35.4385 33.492 37.4124 32.4431 39.3955 31.4034C 41.3713 30.3637 43.397 29.2871 45.406 28.2215C 43.5831 30.8988 41.7676 33.5813 39.9598 36.2688C 38.4299 38.5294 36.8574 40.8622 35.2923 43.1598C 34.6782 44.0793 34.0362 45.0153 33.4294 45.9163C 32.745 46.9226 32.0438 47.953 31.3612 48.9872C 31.4463 47.9456 31.548 46.8967 31.659 45.8737ZM 19.7454 20.6182C 19.6344 20.3056 19.5123 19.9855 19.4105 19.6821C 21.7193 22.5089 24.0428 25.3522 26.309 28.1086C 27.48 29.5387 28.651 30.9613 29.822 32.4005C 30.0533 32.6688 30.2845 32.9555 30.5065 33.233C 30.797 33.5882 31.0874 33.9619 31.4037 34.3171C 31.3001 35.2087 31.215 36.1115 31.1207 36.9773C 31.0615 37.5841 31.0023 38.1927 30.9338 38.8087L 30.9338 38.8161C 30.9079 39.2046 30.8562 39.5968 30.8136 39.9779L 30.6175 41.7039L 30.6083 41.7631C 30.4547 43.515 30.266 45.2836 30.0866 47.0003C 30.0107 47.7107 29.9423 48.4396 29.8646 49.1684C 29.822 49.039 29.7721 48.9076 29.7277 48.7855C 29.5974 48.4322 29.4722 48.0769 29.3521 47.7199L 28.4364 45.1448L 19.7435 20.6182L 19.7454 20.6182Z"/>
</defs>
</svg>
