<svg width="65" height="65" viewBox="0 0 65 65" version="1.1" xmlns="http://www.w3.org/2000/svg" xmlns:xlink="http://www.w3.org/1999/xlink">
<title>XMR</title>
<desc>Created using Figma</desc>
<g id="Canvas" transform="translate(-1338 842)">
<g id="XMR">
<g id="Combined Shape">
<use xlink:href="#path0_fill" transform="translate(1338 -842)" fill="url(#paint0_linear)"/>
</g>
</g>
</g>
<defs>
<linearGradient id="paint0_linear" x1="0" y1="0" x2="1" y2="0" gradientUnits="userSpaceOnUse" gradientTransform="matrix(0 65 -65 0 32.5 0)">
<stop offset="0" stop-color="#EC8150"/>
<stop offset="1" stop-color="#FF6600"/>
</linearGradient>
<path id="path0_fill" fill-rule="evenodd" d="M 32.5 0C 14.5505 0 0 14.5508 0 32.5C 0 50.4495 14.5505 65 32.5 65C 50.4492 65 65 50.4495 65 32.5C 65 14.5508 50.4492 0 32.5 0ZM 32.4999 11.5557C 44.08 11.5566 53.4443 20.9217 53.4443 32.5001C 53.4365 34.7568 53.072 36.9981 52.3646 39.1411L 46.1223 39.1411L 46.1223 21.5441L 32.4999 35.1666L 18.8774 21.5441L 18.8774 39.1411L 12.6332 39.1411C 11.9264 36.998 11.5626 34.7567 11.5554 32.5001C 11.5554 20.9211 20.9208 11.5557 32.4999 11.5557ZM 32.556 41.3547L 29.3788 38.2297L 29.3768 38.2316L 23.417 32.2718L 23.417 43.34L 14.6205 43.34C 18.3086 49.3578 24.9495 53.3865 32.4999 53.3865C 39.8055 53.3911 46.5839 49.5823 50.3793 43.34L 41.5808 43.34L 41.5808 32.2718L 35.6771 38.2316L 32.556 41.3547Z"/>
</defs>
</svg>
