<svg width="64" height="64" viewBox="0 0 64 64" fill="none" xmlns="http://www.w3.org/2000/svg">
<path fill-rule="evenodd" clip-rule="evenodd" d="M32 0C14.3267 0 0 14.327 0 32C0 49.6733 14.3267 64 32 64C49.673 64 64 49.6733 64 32C64 14.327 49.673 0 32 0ZM31.9999 11.3779C43.4019 11.3788 52.6221 20.5998 52.6221 32.0001C52.6144 34.2221 52.2556 36.429 51.559 38.5389H45.4127V21.2127L31.9999 34.6255L18.5871 21.2127V38.5389H12.4389C11.7429 36.4288 11.3848 34.222 11.3777 32.0001C11.3777 20.5992 20.599 11.3779 31.9999 11.3779ZM32.0551 40.7185L28.9267 37.6415L28.9248 37.6434L23.0567 31.7753V42.6733H14.3955C18.0269 48.5985 24.5656 52.5652 31.9998 52.5652C39.1931 52.5697 45.8671 48.8196 49.6042 42.6733H40.9411V31.7753L35.1282 37.6434L32.0551 40.7185Z" fill="url(#paint0_linear)"/>
<defs>
<linearGradient id="paint0_linear" x2="1" gradientUnits="userSpaceOnUse" gradientTransform="translate(32) scale(64) rotate(90)">
<stop stop-color="#EC8150"/>
<stop offset="1" stop-color="#FF6600"/>
</linearGradient>
</defs>
</svg>
