<svg width="65" height="65" viewBox="0 0 65 65" version="1.1" xmlns="http://www.w3.org/2000/svg" xmlns:xlink="http://www.w3.org/1999/xlink">
<title>XRP</title>
<desc>Created using Figma</desc>
<g id="Canvas" transform="translate(-1345 589)">
<g id="XRP">
<g id="Combined Shape">
<use xlink:href="#path0_fill" transform="translate(1345 -589)" fill="url(#paint0_linear)"/>
</g>
</g>
</g>
<defs>
<linearGradient id="paint0_linear" x1="0" y1="0" x2="1" y2="0" gradientUnits="userSpaceOnUse" gradientTransform="matrix(0 65 -65 0 32.5 0)">
<stop offset="0" stop-color="#1BA6DF"/>
<stop offset="1" stop-color="#0D689C"/>
</linearGradient>
<path id="path0_fill" fill-rule="evenodd" d="M 0 32.5C 0 14.5508 14.5505 0 32.5 0C 50.4492 0 65 14.5508 65 32.5C 65 50.4494 50.4492 65 32.5 65C 14.5505 65 0 50.4494 0 32.5ZM 36.4197 50.0106C 40.2046 52.0863 45.007 50.7904 47.1454 47.1158C 49.2838 43.4417 47.9489 38.7802 44.1644 36.7039C 42.9211 36.0222 41.5681 35.706 40.2351 35.7165L 40.2465 35.7104C 38.4189 35.7313 36.9191 34.3091 36.8978 32.5351C 36.8763 30.7843 38.3008 29.3459 40.0938 29.2852L 40.0902 29.2838C 41.4459 29.2771 42.8177 28.9322 44.0671 28.2112C 47.8048 26.0545 49.0327 21.3654 46.8112 17.7375C 44.5892 14.1102 39.7587 12.9178 36.0222 15.0745C 32.2852 17.2309 31.0566 21.9203 33.2781 25.5479C 34.204 27.0594 33.6921 29.0132 32.1353 29.9118C 30.6005 30.7977 28.6241 30.3267 27.6805 28.8663L 27.6805 28.8703C 27.0005 27.7319 26.011 26.7479 24.746 26.054C 20.9601 23.9777 16.1583 25.2735 14.0193 28.9485C 11.8809 32.6222 13.2159 37.2846 17.0015 39.3603C 20.7865 41.4363 25.5885 40.1402 27.7269 36.4655C 27.7344 36.4529 27.7412 36.4402 27.748 36.4276L 27.7642 36.3982L 27.7642 36.4043C 28.6732 34.9215 30.6406 34.4073 32.1957 35.26C 33.7732 36.1255 34.3291 38.0674 33.4384 39.5981C 31.2994 43.273 32.6344 47.9349 36.4197 50.0106Z"/>
</defs>
</svg>
