<svg width="65" height="65" viewBox="0 0 65 65" version="1.1" xmlns="http://www.w3.org/2000/svg" xmlns:xlink="http://www.w3.org/1999/xlink">
<title>ZEC</title>
<desc>Created using Figma</desc>
<g id="Canvas" transform="translate(-1341 759)">
<g id="ZEC">
<g id="Combined Shape">
<use xlink:href="#path0_fill" transform="translate(1341 -759)" fill="url(#paint0_linear)"/>
</g>
</g>
</g>
<defs>
<linearGradient id="paint0_linear" x1="0" y1="0" x2="1" y2="0" gradientUnits="userSpaceOnUse" gradientTransform="matrix(0 65 -65 0 32.5 0)">
<stop offset="0" stop-color="#F8D175"/>
<stop offset="1" stop-color="#ECB244"/>
</linearGradient>
<path id="path0_fill" fill-rule="evenodd" d="M 0 32.5C 0 14.5508 14.5505 0 32.5 0C 50.4492 0 65 14.5508 65 32.5C 65 50.4494 50.4492 65 32.5 65C 14.5505 65 0 50.4494 0 32.5ZM 43.7592 40.5554L 30.5704 40.5554C 31.6691 39.3478 32.7295 38.1059 33.7499 36.8315C 36.3632 33.6498 38.9561 30.4515 41.5286 27.2368C 41.7402 26.9753 41.9796 26.7137 42.2216 26.4495C 42.9056 25.7019 43.6091 24.9332 43.7592 24.0868C 44.0482 22.5581 43.9949 20.9575 43.9401 19.3103C 43.9177 18.642 43.8953 17.9659 43.8953 17.284L 35.7102 17.284L 35.7102 11.5557L 29.1504 11.5557L 29.1504 17.4285L 21.6398 17.4285L 21.6398 24.4449L 34.2902 24.4449C 33.7845 25.0427 33.3052 25.5991 32.8405 26.1386C 32.2484 26.826 31.6799 27.4859 31.1108 28.1688C 28.4976 31.3505 25.9045 34.5487 23.332 37.7635C 23.1144 38.0565 22.8562 38.3498 22.5947 38.6468C 21.963 39.3642 21.3123 40.1032 21.1685 40.9135C 20.8787 42.4461 20.933 44.0511 20.988 45.6761C 21.0101 46.3297 21.0323 46.9864 21.0323 47.643L 29.1504 47.643L 29.1504 53.4446L 35.9805 53.4446C 35.9132 52.4404 35.8624 51.4719 35.8115 50.5031C 35.7607 49.5382 35.7101 48.573 35.6432 47.5718L 43.7592 47.5718L 43.7592 40.5554Z"/>
</defs>
</svg>
