<svg width="65" height="65" viewBox="0 0 65 65" version="1.1" xmlns="http://www.w3.org/2000/svg" xmlns:xlink="http://www.w3.org/1999/xlink">
<title>ZRX</title>
<desc>Created using Figma</desc>
<g id="Canvas" transform="translate(-973 -1281)">
<g id="ZRX">
<g id="Combined Shape">
<use xlink:href="#path0_fill" transform="translate(973 1281)" fill="url(#paint0_linear)"/>
</g>
</g>
</g>
<defs>
<linearGradient id="paint0_linear" x1="0" y1="0" x2="1" y2="0" gradientUnits="userSpaceOnUse" gradientTransform="matrix(0 65 -65 0 32.5 0)">
<stop offset="0" stop-color="#ACACAC"/>
<stop offset="1" stop-color="#555555"/>
</linearGradient>
<path id="path0_fill" fill-rule="evenodd" d="M 32.5 0C 14.5506 0 0 14.5508 0 32.5C 0 50.4492 14.5506 65 32.5 65C 50.4492 65 65 50.4492 65 32.5C 65 14.5508 50.4492 0 32.5 0ZM 31.6535 51.0014C 31.1994 50.9543 30.7453 50.9122 30.2912 50.8584C 27.8496 50.5673 25.4918 49.787 23.3585 48.5643C 23.3265 48.5475 23.2979 48.5223 23.2357 48.4802C 26.9459 45.7051 30.6394 42.9469 34.3529 40.1718L 35.4714 41.2599C 36.0937 41.8688 36.7193 42.4709 37.3299 43.0881C 37.4812 43.2395 37.5906 43.2378 37.7672 43.147C 39.6167 42.2238 41.1969 40.8393 42.3553 39.1273L 42.5353 38.8616C 42.5874 38.9221 42.6362 38.9709 42.6766 39.0247C 43.9666 40.7436 45.2549 42.4625 46.5499 44.1763C 46.6626 44.3243 46.6492 44.4118 46.5298 44.5463C 43.531 47.9538 39.8039 50.0528 35.3116 50.771C 34.7465 50.8618 34.173 50.8954 33.6028 50.9576C 33.5271 50.9661 33.4515 50.9862 33.3775 51.0014L 31.6535 51.0014ZM 33.2849 14C 33.5977 14.032 33.9122 14.0656 34.2268 14.0942C 36.8774 14.3465 39.3565 15.1319 41.6657 16.4488C 41.6993 16.469 41.7279 16.4925 41.7834 16.5329L 30.4846 24.6379C 30.3349 24.4966 30.1902 24.3621 30.0473 24.2225C 29.2534 23.4488 28.4562 22.6768 27.6674 21.8964C 27.5413 21.772 27.4454 21.7585 27.2873 21.8376C 25.4051 22.7665 23.7989 24.172 22.6285 25.9144L 22.4603 26.1667L 18.3094 20.6367C 18.7282 20.1927 19.1151 19.7503 19.5339 19.3417C 22.2635 16.6792 25.5045 14.9856 29.2602 14.3044C 29.9834 14.1732 30.7217 14.1295 31.4533 14.0437C 31.5357 14.0353 31.6182 14.0151 31.6989 14L 33.2832 14L 33.2849 14ZM 16.4527 23.3075L 24.8536 34.3204L 23.1583 36.0595C 22.7362 36.4917 22.3174 36.929 21.8868 37.3546C 21.7657 37.4757 21.7607 37.5682 21.8347 37.7162C 22.7622 39.5988 24.1674 41.2052 25.9099 42.375C 25.9687 42.412 26.0276 42.4506 26.0831 42.4927C 26.0932 42.4994 26.0982 42.5162 26.1285 42.5734L 20.6439 46.6873C 17.3642 43.8634 15.2367 40.3836 14.3823 36.1638C 13.4673 31.6463 14.209 27.3776 16.4543 23.3075L 16.4527 23.3075ZM 40.2933 30.6574L 41.8373 29.0545C 42.2679 28.6072 42.6917 28.1547 43.1323 27.7191C 43.2703 27.5829 43.2686 27.4803 43.1878 27.3188C 42.2543 25.4136 40.8325 23.7899 39.0672 22.6129C 39.005 22.5709 38.9445 22.5255 38.8385 22.4498L 44.3534 18.3124C 47.4766 20.9866 49.5504 24.2831 50.5023 28.2607C 51.6914 33.2256 50.6318 38.1367 48.5732 41.5946L 40.2933 30.6574Z"/>
</defs>
</svg>
