<svg width="65" height="65" viewBox="0 0 65 65" fill="none" xmlns="http://www.w3.org/2000/svg">
<path fill-rule="evenodd" clip-rule="evenodd" d="M32.5 65C50.4492 65 65 50.4493 65 32.5C65 14.5507 50.4492 0 32.5 0C14.5508 0 0 14.5507 0 32.5C0 50.4493 14.5508 65 32.5 65ZM15.564 42.3707L32.6411 12.0002C31.0955 12.1371 29.6045 12.9803 28.7332 14.5297L13.6489 41.3562C13.0793 42.3692 12.9053 43.4546 13.0464 44.4749H44.4587L43.2756 42.3707H15.564ZM19.0625 40.1761L34.7588 12.2613C35.5403 12.5337 36.2639 13.004 36.8462 13.6722L52.9526 42.3161C53.3833 43.6723 53.1895 45.0788 52.5471 46.2343L35.2849 15.5347L21.4292 40.1761H19.0625ZM35.2642 19.7251L51.0928 47.8751C50.3901 48.3824 49.5405 48.7147 48.592 48.7903H17.5908C15.9299 48.6578 14.5728 47.7386 13.7756 46.4706H47.9368L34.0811 21.8292L35.2642 19.7251ZM32.9702 24.2905L41.9377 40.2386H24.0027L32.9702 24.2905ZM32.9092 28.5434L38.3423 38.206H27.4758L32.9092 28.5434Z" fill="url(#paint0_linear)"/>
<defs>
<linearGradient id="paint0_linear" x1="32.5" y1="0.501587" x2="32.5" y2="65.0003" gradientUnits="userSpaceOnUse">
<stop stop-color="#2F8DFA"/>
<stop offset="1" stop-color="#0047BC"/>
</linearGradient>
</defs>
</svg>
