<svg width="65" height="65" viewBox="0 0 65 65" fill="none" xmlns="http://www.w3.org/2000/svg">
<path fill-rule="evenodd" clip-rule="evenodd" d="M65 32.5C65 50.4493 50.4492 65 32.5 65C14.5508 65 0 50.4493 0 32.5C0 14.5507 14.5508 0 32.5 0C50.4492 0 65 14.5507 65 32.5ZM32.9849 26.8081C32.9849 28.3799 31.7397 29.6541 30.2036 29.6541C28.6675 29.6541 27.4221 28.3799 27.4221 26.8081C27.4221 25.2363 28.6675 23.9622 30.2036 23.9622C31.7397 23.9622 32.9849 25.2363 32.9849 26.8081ZM36.5908 29.6541C38.127 29.6541 39.3721 28.3799 39.3721 26.8081C39.3721 25.2363 38.127 23.9622 36.5908 23.9622C35.0547 23.9622 33.8093 25.2363 33.8093 26.8081C33.8093 28.3799 35.0547 29.6541 36.5908 29.6541ZM42.6685 32.5C42.6685 34.0718 41.4233 35.3459 39.8872 35.3459C38.3511 35.3459 37.1057 34.0718 37.1057 32.5C37.1057 30.9282 38.3511 29.6541 39.8872 29.6541C41.4233 29.6541 42.6685 30.9282 42.6685 32.5ZM36.7966 41.2486C38.3328 41.2486 39.5779 39.9745 39.5779 38.4027C39.5779 36.8309 38.3328 35.5568 36.7966 35.5568C35.2605 35.5568 34.0151 36.8309 34.0151 38.4027C34.0151 39.9745 35.2605 41.2486 36.7966 41.2486ZM32.9849 38.4027C32.9849 39.9745 31.7397 41.2486 30.2036 41.2486C28.6675 41.2486 27.4221 39.9745 27.4221 38.4027C27.4221 36.8309 28.6675 35.5568 30.2036 35.5568C31.7397 35.5568 32.9849 36.8309 32.9849 38.4027ZM26.9072 35.3459C28.4434 35.3459 29.6885 34.0718 29.6885 32.5C29.6885 30.9282 28.4434 29.6541 26.9072 29.6541C25.3711 29.6541 24.1257 30.9282 24.1257 32.5C24.1257 34.0718 25.3711 35.3459 26.9072 35.3459ZM25.3621 26.9135C25.3621 27.8449 24.6243 28.6 23.7139 28.6C22.8037 28.6 22.0657 27.8449 22.0657 26.9135C22.0657 25.9821 22.8037 25.227 23.7139 25.227C24.6243 25.227 25.3621 25.9821 25.3621 26.9135ZM43.0803 28.6C43.9907 28.6 44.7285 27.8449 44.7285 26.9135C44.7285 25.9821 43.9907 25.227 43.0803 25.227C42.1702 25.227 41.4321 25.9821 41.4321 26.9135C41.4321 27.8449 42.1702 28.6 43.0803 28.6ZM35.0452 21.2216C35.0452 22.153 34.3074 22.9081 33.397 22.9081C32.4868 22.9081 31.7488 22.153 31.7488 21.2216C31.7488 20.2902 32.4868 19.5351 33.397 19.5351C34.3074 19.5351 35.0452 20.2902 35.0452 21.2216ZM23.7139 40.1946C24.6243 40.1946 25.3621 39.4395 25.3621 38.5081C25.3621 37.5767 24.6243 36.8216 23.7139 36.8216C22.8037 36.8216 22.0657 37.5767 22.0657 38.5081C22.0657 39.4395 22.8037 40.1946 23.7139 40.1946ZM35.0452 43.9892C35.0452 44.9206 34.3074 45.6757 33.397 45.6757C32.4868 45.6757 31.7488 44.9206 31.7488 43.9892C31.7488 43.0578 32.4868 42.3027 33.397 42.3027C34.3074 42.3027 35.0452 43.0578 35.0452 43.9892ZM43.0803 40.1946C43.9907 40.1946 44.7285 39.4395 44.7285 38.5081C44.7285 37.5767 43.9907 36.8216 43.0803 36.8216C42.1702 36.8216 41.4321 37.5767 41.4321 38.5081C41.4321 39.4395 42.1702 40.1946 43.0803 40.1946ZM49.2617 32.5C49.2617 33.2568 48.6621 33.8703 47.9224 33.8703C47.1829 33.8703 46.5833 33.2568 46.5833 32.5C46.5833 31.7432 47.1829 31.1297 47.9224 31.1297C48.6621 31.1297 49.2617 31.7432 49.2617 32.5ZM40.7109 46.7297C41.4507 46.7297 42.0503 46.1162 42.0503 45.3595C42.0503 44.6027 41.4507 43.9892 40.7109 43.9892C39.9714 43.9892 39.3718 44.6027 39.3718 45.3595C39.3718 46.1162 39.9714 46.7297 40.7109 46.7297ZM27.6282 45.3595C27.6282 46.1162 27.0286 46.7297 26.2888 46.7297C25.5493 46.7297 24.9497 46.1162 24.9497 45.3595C24.9497 44.6027 25.5493 43.9892 26.2888 43.9892C27.0286 43.9892 27.6282 44.6027 27.6282 45.3595ZM19.0781 33.8703C19.8179 33.8703 20.4175 33.2568 20.4175 32.5C20.4175 31.7432 19.8179 31.1297 19.0781 31.1297C18.3386 31.1297 17.739 31.7432 17.739 32.5C17.739 33.2568 18.3386 33.8703 19.0781 33.8703ZM27.4224 19.6405C27.4224 20.3973 26.8228 21.0108 26.083 21.0108C25.3435 21.0108 24.7439 20.3973 24.7439 19.6405C24.7439 18.8838 25.3435 18.2703 26.083 18.2703C26.8228 18.2703 27.4224 18.8838 27.4224 19.6405ZM40.7109 21.0108C41.4507 21.0108 42.0503 20.3973 42.0503 19.6405C42.0503 18.8838 41.4507 18.2703 40.7109 18.2703C39.9714 18.2703 39.3718 18.8838 39.3718 19.6405C39.3718 20.3973 39.9714 21.0108 40.7109 21.0108ZM34.6333 14.2649C34.6333 14.9634 34.0798 15.5297 33.397 15.5297C32.7144 15.5297 32.1609 14.9634 32.1609 14.2649C32.1609 13.5663 32.7144 13 33.397 13C34.0798 13 34.6333 13.5663 34.6333 14.2649ZM48.8494 24.5946C49.5322 24.5946 50.0857 24.0283 50.0857 23.3297C50.0857 22.6312 49.5322 22.0649 48.8494 22.0649C48.1667 22.0649 47.6133 22.6312 47.6133 23.3297C47.6133 24.0283 48.1667 24.5946 48.8494 24.5946ZM19.1809 23.3297C19.1809 24.0283 18.6274 24.5946 17.9446 24.5946C17.262 24.5946 16.7085 24.0283 16.7085 23.3297C16.7085 22.6312 17.262 22.0649 17.9446 22.0649C18.6274 22.0649 19.1809 22.6312 19.1809 23.3297ZM17.9446 42.9351C18.6274 42.9351 19.1809 42.3688 19.1809 41.6703C19.1809 40.9717 18.6274 40.4054 17.9446 40.4054C17.262 40.4054 16.7085 40.9717 16.7085 41.6703C16.7085 42.3688 17.262 42.9351 17.9446 42.9351ZM34.6333 50.7351C34.6333 51.4337 34.0798 52 33.397 52C32.7144 52 32.1609 51.4337 32.1609 50.7351C32.1609 50.0366 32.7144 49.4703 33.397 49.4703C34.0798 49.4703 34.6333 50.0366 34.6333 50.7351ZM48.8494 43.1459C49.5322 43.1459 50.0857 42.5796 50.0857 41.8811C50.0857 41.1825 49.5322 40.6162 48.8494 40.6162C48.1667 40.6162 47.6133 41.1825 47.6133 41.8811C47.6133 42.5796 48.1667 43.1459 48.8494 43.1459ZM44.1104 50.1027C44.1104 50.5684 43.7415 50.9459 43.2864 50.9459C42.8311 50.9459 42.4622 50.5684 42.4622 50.1027C42.4622 49.637 42.8311 49.2595 43.2864 49.2595C43.7415 49.2595 44.1104 49.637 44.1104 50.1027ZM53.1758 33.4487C53.6309 33.4487 53.9998 33.0711 53.9998 32.6054C53.9998 32.1397 53.6309 31.7622 53.1758 31.7622C52.7205 31.7622 52.3516 32.1397 52.3516 32.6054C52.3516 33.0711 52.7205 33.4487 53.1758 33.4487ZM44.1104 15.1081C44.1104 15.5738 43.7415 15.9514 43.2864 15.9514C42.8311 15.9514 42.4622 15.5738 42.4622 15.1081C42.4622 14.6424 42.8311 14.2649 43.2864 14.2649C43.7415 14.2649 44.1104 14.6424 44.1104 15.1081ZM23.7136 50.9459C24.1687 50.9459 24.5376 50.5684 24.5376 50.1027C24.5376 49.637 24.1687 49.2595 23.7136 49.2595C23.2583 49.2595 22.8894 49.637 22.8894 50.1027C22.8894 50.5684 23.2583 50.9459 23.7136 50.9459ZM14.6482 32.6054C14.6482 33.0711 14.2793 33.4487 13.8242 33.4487C13.3689 33.4487 13 33.0711 13 32.6054C13 32.1397 13.3689 31.7622 13.8242 31.7622C14.2793 31.7622 14.6482 32.1397 14.6482 32.6054ZM23.7136 15.9514C24.1687 15.9514 24.5376 15.5738 24.5376 15.1081C24.5376 14.6424 24.1687 14.2649 23.7136 14.2649C23.2583 14.2649 22.8894 14.6424 22.8894 15.1081C22.8894 15.5738 23.2583 15.9514 23.7136 15.9514Z" fill="url(#paint0_linear)"/>
<defs>
<linearGradient id="paint0_linear" x1="32.5" y1="0" x2="32.5" y2="65" gradientUnits="userSpaceOnUse">
<stop stop-color="#4499F9"/>
<stop offset="1" stop-color="#0006FF"/>
</linearGradient>
</defs>
</svg>
