<svg width="65" height="65" viewBox="0 0 65 65" fill="none" xmlns="http://www.w3.org/2000/svg">
<path fill-rule="evenodd" clip-rule="evenodd" d="M50.2023 16.7315L48.2686 14.7978L50.2023 12.8638L52.1361 14.7978L50.2023 16.7315ZM50.2023 22.682L48.2686 20.7482L50.2023 18.8142L52.1361 20.7482L50.2023 22.682ZM50.2023 52.1361L48.2686 50.2021L50.2023 48.2683L52.1361 50.2021L50.2023 52.1361ZM45.3231 47.2565L47.2569 45.3228L49.1909 47.2565L47.2569 49.1905L45.3231 47.2565ZM44.2519 52.1361L42.3181 50.2021L44.2519 48.2683L46.1859 50.2021L44.2519 52.1361ZM39.3727 47.2565L41.3067 45.3228L43.2404 47.2565L41.3067 49.1905L39.3727 47.2565ZM36.4272 44.3115L38.3613 42.3774L40.295 44.3115L38.3613 46.2449L36.4272 44.3115ZM33.4821 41.3656L35.4158 39.4319L37.3496 41.3656L35.4158 43.2996L33.4821 41.3656ZM32.5894 46.1261L30.6554 44.1921L32.5894 42.2583L34.5231 44.1921L32.5894 46.1261ZM27.6507 41.3656L29.5844 39.4319L31.5182 41.3656L29.5844 43.2996L27.6507 41.3656ZM26.639 46.2449L24.7052 44.3115L26.639 42.3774L28.573 44.3115L26.639 46.2449ZM23.6936 49.1905L21.7598 47.2565L23.6936 45.3228L25.6276 47.2565L23.6936 49.1905ZM20.7484 52.1361L18.8144 50.2021L20.7484 48.2683L22.6821 50.2021L20.7484 52.1361ZM15.8094 47.2565L17.7434 45.3228L19.6772 47.2565L17.7434 49.1905L15.8094 47.2565ZM14.798 52.1361L12.8642 50.2021L14.798 48.2683L16.7317 50.2021L14.798 52.1361ZM14.798 18.8142L16.7317 20.7482L14.798 22.682L12.8642 20.7482L14.798 18.8142ZM14.798 12.8638L16.7317 14.7978L14.798 16.7315L12.8642 14.7978L14.798 12.8638ZM19.6772 17.7428L17.7434 19.6768L15.8094 17.7428L17.7434 15.8091L19.6772 17.7428ZM20.5995 13.0125L22.5332 14.9462L20.5995 16.8802L18.6657 14.9462L20.5995 13.0125ZM25.4787 17.8918L23.545 19.8258L21.6112 17.8918L23.545 15.958L25.4787 17.8918ZM28.4241 20.8373L26.4904 22.7711L24.5564 20.8373L26.4904 18.9036L28.4241 20.8373ZM24.6458 32.5297L26.5795 30.5957L26.6985 30.715L26.7284 30.6851L28.6621 32.6188L26.7284 34.5528L26.6094 34.4338L26.5795 34.4635L24.6458 32.5297ZM21.8492 35.5641L23.7829 33.6304L25.7167 35.5641L23.7829 37.4981L21.8492 35.5641ZM20.8375 40.4437L18.9035 38.5097L20.8375 36.5759L22.7712 38.5097L20.8375 40.4437ZM20.6889 42.3774L22.6226 44.3115L20.6889 46.2449L18.7549 44.3115L20.6889 42.3774ZM16.8806 44.4006L14.9466 46.3343L13.0128 44.4006L14.9466 42.4666L16.8806 44.4006ZM15.9583 41.455L17.8921 39.5212L19.8261 41.455L17.8921 43.3887L15.9583 41.455ZM19.6772 23.6933L17.7434 25.6273L15.8094 23.6933L17.7434 21.7595L19.6772 23.6933ZM20.6889 22.6224L18.7549 20.6887L20.6889 18.7546L22.6226 20.6887L20.6889 22.6224ZM21.7003 29.5841L23.6341 27.6504L25.5681 29.5841L23.6341 31.5182L21.7003 29.5841ZM18.7549 26.6388L20.6889 24.7051L22.6226 26.6388L20.6889 28.5728L18.7549 26.6388ZM20.659 30.6255L22.5927 32.5595L20.659 34.4933L18.7252 32.5595L20.659 30.6255ZM31.3696 23.7826L29.4358 25.7164L27.5018 23.7826L29.4358 21.8486L31.3696 23.7826ZM32.4109 18.8735L34.3449 20.8075L32.4109 22.7413L30.4771 20.8075L32.4109 18.8735ZM34.4636 38.4203L32.5299 40.3543L32.5 40.3247L32.4704 40.3543L30.5364 38.4203L32.4704 36.4866L32.5 36.5165L32.5299 36.4866L34.4636 38.4203ZM32.6193 28.662L32.5 28.543L32.381 28.662L30.4473 26.7282L32.381 24.7942L32.5 24.9132L32.6193 24.7942L34.553 26.7282L32.6193 28.662ZM37.4984 23.7826L35.5644 25.7164L33.6307 23.7826L35.5644 21.8486L37.4984 23.7826ZM38.5099 18.9036L40.4439 20.8373L38.5099 22.7711L36.5761 20.8373L38.5099 18.9036ZM41.4553 15.958L43.389 17.8918L41.4553 19.8258L39.5215 17.8918L41.4553 15.958ZM44.4008 13.0125L46.3345 14.9462L44.4008 16.8802L42.467 14.9462L44.4008 13.0125ZM45.3231 17.7428L47.2569 15.8091L49.1909 17.7428L47.2569 19.6768L45.3231 17.7428ZM47.2569 25.6273L45.3231 23.6933L47.2569 21.7595L49.1909 23.6933L47.2569 25.6273ZM50.0536 42.4666L51.9874 44.4006L50.0536 46.3343L48.1196 44.4006L50.0536 42.4666ZM45.1742 41.455L47.1082 39.5212L49.042 41.455L47.1082 43.3887L45.1742 41.455ZM44.3114 42.3774L46.2454 44.3115L44.3114 46.2449L42.3776 44.3115L44.3114 42.3774ZM44.1628 36.5759L46.0965 38.5097L44.1628 40.4437L42.229 38.5097L44.1628 36.5759ZM41.2173 33.6304L43.1511 35.5641L41.2173 37.4981L39.2833 35.5641L41.2173 33.6304ZM40.3545 32.5297L38.4208 34.4635L38.3909 34.4338L38.2719 34.5528L36.3381 32.6188L38.2719 30.6851L38.3018 30.715L38.4208 30.5957L40.3545 32.5297ZM43.3 29.5841L41.3662 31.5182L39.4322 29.5841L41.3662 27.6504L43.3 29.5841ZM46.1264 32.589L44.1924 34.5228L42.2587 32.589L44.1924 30.6553L46.1264 32.589ZM42.3776 20.6887L44.3114 18.7546L46.2454 20.6887L44.3114 22.6224L42.3776 20.6887ZM44.3114 24.7051L46.2454 26.6388L44.3114 28.5728L42.3776 26.6388L44.3114 24.7051ZM32.5 0C14.5508 0 0 14.5506 0 32.5C0 50.4492 14.5508 65 32.5 65C50.4494 65 65 50.4492 65 32.5C65 14.5506 50.4494 0 32.5 0Z" fill="url(#paint0_linear)"/>
<defs>
<linearGradient id="paint0_linear" x2="1" gradientUnits="userSpaceOnUse" gradientTransform="translate(9.1186 9.52334) scale(74.7919) rotate(47.8804)">
<stop stop-color="#51B5F8"/>
<stop offset="1" stop-color="#8D24DC"/>
</linearGradient>
</defs>
</svg>
