<svg width="65" height="65" viewBox="0 0 65 65" fill="none" xmlns="http://www.w3.org/2000/svg">
<path fill-rule="evenodd" clip-rule="evenodd" d="M32.5 0C14.5506 0 0 14.5508 0 32.5C0 50.4495 14.5506 65 32.5 65C50.4492 65 65 50.4495 65 32.5C65 14.5508 50.4492 0 32.5 0ZM15.5561 36.5007H28.4993V49.4441C28.4993 51.6536 30.2904 53.4446 32.4999 53.4446C34.7094 53.4446 36.5005 51.6536 36.5005 49.4441V36.5007H49.4437C51.6532 36.5007 53.4444 34.7097 53.4444 32.5002C53.4444 30.2908 51.6532 28.4995 49.4437 28.4995H38.6185C36.409 28.4995 34.6179 30.2908 34.6179 32.5002V34.6182H30.382V30.3821H32.4999C34.7094 30.3821 36.5005 28.5911 36.5005 26.3816V15.5564C36.5005 13.3469 34.7094 11.5557 32.4999 11.5557C30.2904 11.5557 28.4993 13.3469 28.4993 15.5564V28.4995H15.5561C13.3466 28.4995 11.5555 30.2908 11.5555 32.5002C11.5555 34.7097 13.3466 36.5007 15.5561 36.5007ZM30.382 36.5007V49.4439C30.382 50.6137 31.3302 51.5619 32.4999 51.5619C33.6697 51.5619 34.6179 50.6137 34.6179 49.4439V36.5007H30.382ZM32.4999 13.4382C31.3302 13.4382 30.382 14.3865 30.382 15.5562V28.4994H32.4999C33.6697 28.4994 34.6179 27.5512 34.6179 26.3814V15.5562C34.6179 14.3865 33.6697 13.4382 32.4999 13.4382ZM15.5561 30.3821C14.3864 30.3821 13.4381 31.3303 13.4381 32.5001C13.4381 33.6698 14.3864 34.618 15.5561 34.618H28.4993V30.3821H15.5561ZM38.6185 30.3821C37.4488 30.3821 36.5005 31.3303 36.5005 32.5001V34.618H49.4437C50.6135 34.618 51.5617 33.6698 51.5617 32.5001C51.5617 31.3303 50.6135 30.3821 49.4437 30.3821H38.6185Z" fill="url(#paint0_linear)"/>
<defs>
<linearGradient id="paint0_linear" x2="1" gradientUnits="userSpaceOnUse" gradientTransform="translate(32.5) scale(65) rotate(90)">
<stop stop-color="#ACACAC"/>
<stop offset="1" stop-color="#555555"/>
</linearGradient>
</defs>
</svg>
