<svg width="65" height="65" viewBox="0 0 65 65" fill="none" xmlns="http://www.w3.org/2000/svg">
<path fill-rule="evenodd" clip-rule="evenodd" d="M57.5418 33.1237C54.3859 38.0234 50.4034 41.7197 45.7045 44.1101C41.7951 46.0983 37.3812 47.1383 32.8805 47.1383C32.5484 47.1383 32.2163 47.1326 31.8834 47.1213C26.8578 46.9499 21.8811 45.5259 17.4918 43.0037C13.0975 40.4782 9.61395 37.0392 7.41864 33.0585C7.32061 32.881 7.27737 32.6887 7.28104 32.5C7.27737 32.3107 7.32061 32.1186 7.41864 31.9412C9.61395 27.9604 13.0975 24.5215 17.4918 21.9959C21.8811 19.4735 26.8578 18.0498 31.8834 17.8784C36.7267 17.713 41.5068 18.7546 45.7045 20.8899C50.4034 23.2799 54.3859 26.9763 57.5418 31.8759C57.665 32.0672 57.7219 32.2822 57.719 32.4937C57.719 32.4958 57.719 32.4979 57.719 32.5C57.719 32.5018 57.719 32.5039 57.719 32.506C57.7219 32.7175 57.665 32.9324 57.5418 33.1237ZM32.4999 0C14.5508 0 0 14.5506 0 32.5C0 50.4492 14.5508 65 32.4999 65C50.449 65 65 50.4492 65 32.5C65 14.5506 50.449 0 32.4999 0ZM35.6448 38.7339C35.6893 39.0055 35.4802 39.2521 35.205 39.2521H30.2844C30.0095 39.2521 29.8 39.0055 29.8446 38.7339L30.882 32.4358C29.8871 31.8138 29.2245 30.7091 29.2245 29.4492C29.2245 27.5052 30.8007 25.9292 32.7447 25.9292C34.6889 25.9292 36.2649 27.5052 36.2649 29.4492C36.2649 30.7091 35.6023 31.8138 34.6074 32.4358L35.6448 38.7339ZM32.6779 22.7212C27.2727 22.7212 22.8752 27.1187 22.8752 32.5239C22.8752 37.9291 27.2727 42.3266 32.6779 42.3266C38.0831 42.3266 42.4805 37.9291 42.4805 32.5239C42.4805 27.1187 38.0831 22.7212 32.6779 22.7212ZM43.6777 41.0258C43.5461 41.1959 43.3485 41.285 43.1488 41.285C43.006 41.285 42.8618 41.2394 42.7402 41.1453C42.4482 40.9194 42.3948 40.4995 42.6207 40.2075C44.1028 38.2926 44.994 36.0074 45.1979 33.5985C45.2288 33.2307 45.5507 32.9571 45.9202 32.9888C46.2879 33.02 46.5608 33.3434 46.5298 33.7112C46.3042 36.3775 45.3179 38.9067 43.6777 41.0258ZM32.6778 43.6633C26.5356 43.6633 21.5385 38.6661 21.5385 32.5239C21.5385 26.3814 26.5356 21.3845 32.6778 21.3845C38.8201 21.3845 43.8172 26.3814 43.8172 32.5239C43.8172 38.6661 38.8201 43.6633 32.6778 43.6633ZM44.6944 22.8756C43.4644 22.25 42.1982 21.7289 40.8998 21.3133C41.2332 21.5581 41.5569 21.8181 41.8695 22.094C44.0926 24.0545 45.6225 26.6595 46.2539 29.5219C46.7799 29.7014 47.1591 30.1989 47.1591 30.7862C47.1591 31.5243 46.5608 32.1229 45.8225 32.1229C45.0841 32.1229 44.4858 31.5243 44.4858 30.7862C44.4858 30.3852 44.6629 30.0267 44.9423 29.7816C44.3681 27.206 42.9876 24.8623 40.9855 23.0963C39.2614 21.5761 37.1673 20.5692 34.9334 20.1621C33.955 20.0901 32.9633 20.0709 31.9594 20.105C31.3238 20.1268 30.6891 20.1708 30.0566 20.2353C27.9819 20.6774 26.0392 21.6398 24.4205 23.0525C22.1557 25.0287 20.6723 27.7462 20.2432 30.7042C20.1903 31.0696 19.8511 31.3225 19.486 31.2695C19.1207 31.2169 18.8675 30.8777 18.9204 30.5123C19.3951 27.2385 21.0363 24.2314 23.5417 22.0453C23.7894 21.8288 24.0444 21.6225 24.3055 21.4254C22.3264 22.0505 20.4104 22.8885 18.6017 23.9279C14.7544 26.139 11.6769 29.0944 9.66583 32.5001C11.6769 35.9058 14.7544 38.8612 18.6017 41.0722C20.3785 42.0931 22.2587 42.9203 24.2009 43.5417C21.5267 41.4827 19.6173 38.4704 18.9949 34.996C18.5732 34.7711 18.2859 34.3272 18.2859 33.8161C18.2859 33.0777 18.8843 32.4794 19.6226 32.4794C20.3606 32.4794 20.9593 33.0777 20.9593 33.8161C20.9593 34.2878 20.7142 34.7017 20.3452 34.9394C21.2803 39.7528 24.9539 43.5553 29.6441 44.7196C30.4131 44.8095 31.1855 44.8684 31.9594 44.8949C33.1003 44.9339 34.2252 44.9038 35.3326 44.8055C37.426 44.3539 39.382 43.3721 41.0072 41.9319C41.2835 41.6868 41.706 41.7128 41.9508 41.9888C42.1956 42.2653 42.1702 42.6875 41.8936 42.9323C41.609 43.1845 41.3147 43.4232 41.0127 43.6499C42.2716 43.2403 43.5003 42.7318 44.6944 42.1243C48.8502 40.0105 52.4097 36.7738 55.2844 32.5001C52.4097 28.2261 48.8502 24.9894 44.6944 22.8756Z" fill="url(#paint0_linear)"/>
<defs>
<linearGradient id="paint0_linear" x2="1" gradientUnits="userSpaceOnUse" gradientTransform="translate(5.40883 16.6045) scale(57.4789) rotate(26.2585)">
<stop stop-color="#22B5FF"/>
<stop offset="1" stop-color="#721FF3"/>
</linearGradient>
</defs>
</svg>
