<svg width="65" height="65" viewBox="0 0 65 65" fill="none" xmlns="http://www.w3.org/2000/svg">
<path fill-rule="evenodd" clip-rule="evenodd" d="M32.5 0C14.5506 0 0 14.5508 0 32.5C0 50.4494 14.5506 65 32.5 65C50.4492 65 65 50.4494 65 32.5C65 14.5508 50.4492 0 32.5 0ZM12.9999 32.4106C13.0192 33.171 13.0827 33.8701 13.1901 34.7467H13.4264C13.4264 34.7467 13.4238 34.5977 13.4238 34.5684C13.4238 33.8447 13.4759 33.0422 13.568 32.3435L12.9999 32.4106ZM15.5448 22.3686L17.0087 24.312C17.3129 23.9346 17.6337 23.5717 17.9699 23.2233L16.8097 20.4685C16.3508 21.0742 15.9292 21.7094 15.5448 22.3686ZM14.0803 25.5111L15.5508 26.4512C15.7914 26.0305 16.0487 25.6215 16.3248 25.2253L14.9709 23.4282C14.6343 24.101 14.3358 24.7953 14.0803 25.5111ZM29.641 18.2599C30.6653 18.2599 31.6668 18.3572 32.6386 18.5391L36.1722 13.5126C34.7779 13.1835 33.3276 13.0002 31.8325 13.0002C31.4968 13.0002 31.1632 13.0099 30.8314 13.027L29.5178 18.263C29.559 18.2626 29.5998 18.2599 29.641 18.2599ZM42.0616 24.0595L47.2709 21.0518C46.1834 19.4993 44.8676 18.1213 43.373 16.9602L38.5358 20.9207C39.8591 21.7912 41.0469 22.8497 42.0616 24.0595ZM13.3257 28.2868L14.5144 28.63C14.6735 28.2197 14.8449 27.8156 15.0351 27.422L13.7338 26.5901C13.5729 27.1459 13.4358 27.7113 13.3257 28.2868ZM37.5434 20.3168L42.4585 16.2927C40.892 15.2193 39.1563 14.3787 37.2983 13.8154L33.7936 18.8012C35.1178 19.1509 36.3753 19.6629 37.5434 20.3168ZM13.0012 31.2227L13.745 31.2542C13.8537 30.7147 13.9887 30.1843 14.1495 29.6654L13.1515 29.377C13.0722 29.984 13.0213 30.5994 13.0012 31.2227ZM45.8068 33.2419C47.145 30.4074 47.8967 27.2411 47.8967 23.8985C47.8967 23.2603 47.8629 22.6305 47.809 22.0063L42.7444 24.9303C44.4704 27.2972 45.5736 30.1475 45.8068 33.2419ZM20.4072 21.148L19.9413 17.2273C19.0936 17.9176 18.3099 18.6816 17.5937 19.5069L18.8144 22.4055C19.3176 21.954 19.8501 21.5345 20.4072 21.148ZM24.2237 19.1901L24.4222 14.5146C23.1928 15.0411 22.0326 15.6972 20.9539 16.4612L21.433 20.4918C22.3135 19.9738 23.2467 19.5363 24.2237 19.1901ZM29.6769 13.1265C28.2418 13.29 26.8564 13.6139 25.5375 14.0811L25.335 18.842C26.3146 18.5729 27.331 18.3945 28.3751 18.3138L29.6769 13.1265ZM40.5027 42.5254L40.0153 50.5403C42.0687 49.6759 43.935 48.4557 45.5419 46.9602L43.1088 40.0845C42.3089 40.9677 41.4354 41.782 40.5027 42.5254ZM26.9522 47.2954L25.5303 50.5871C27.5228 51.4098 29.6863 51.8994 31.9541 51.9892L33.3072 46.3315C31.2967 46.95 29.163 47.2862 26.9522 47.2954ZM43.9293 39.1182L46.4018 46.1057C47.7242 44.7075 48.8375 43.1099 49.6847 41.3584L46.084 35.9045C45.4607 37.0415 44.7371 38.1154 43.9293 39.1182ZM33.0781 52.0002C35.1114 51.9612 37.065 51.6009 38.8914 50.9666L39.3529 43.3831C37.8693 44.4148 36.2537 45.2691 34.5337 45.9125L33.0781 52.0002ZM48.7485 26.3577L50.8125 27.9145C50.3167 26.2056 49.5861 24.5965 48.6577 23.1243C48.7336 23.8668 48.773 24.6198 48.773 25.3824C48.773 25.7094 48.7625 26.0342 48.7485 26.3577ZM18.6405 45.699C20.2829 47.5407 22.2842 49.0533 24.5305 50.1386L25.7692 47.2707C23.2585 47.1471 20.8601 46.5975 18.6405 45.699ZM51.2146 29.5902L48.6553 27.6599C48.5418 28.7596 48.3472 29.8352 48.0772 30.8806L51.4754 34.8736C51.5262 34.3095 51.5565 33.7397 51.5565 33.1624C51.5565 31.9404 51.4373 30.7469 51.2146 29.5902ZM46.6571 34.7837L50.2079 40.1617C50.6953 38.9449 51.0591 37.666 51.2843 36.3392L47.7073 32.1367C47.4132 33.0462 47.063 33.9303 46.6571 34.7837ZM23.0106 27.9009L23.7075 32.5553H22.3137L23.0106 27.9009ZM22.1296 33.8702H23.9047L24.1546 35.6234H25.6137L24.1414 26.4189H22.0244L20.5521 35.6234H21.8798L22.1296 33.8702ZM32.8845 35.6234V26.4189H30.8214L29.8352 32.9537L28.7701 26.4189H26.7482V35.6234H28.0632V28.9125L29.0984 35.6234H30.466L31.5696 28.8204V35.6234H32.8845ZM34.1995 35.6231H35.9528V26.4187H34.1995V35.6231ZM37.2676 32.5552V33.2122C37.2676 34.6849 37.9364 35.5265 39.3561 35.5265C40.7762 35.5265 41.4788 34.6849 41.4788 33.2122C41.4788 30.5824 38.6351 30.2273 38.6351 28.3338C38.6351 27.6764 38.806 27.427 39.2663 27.427C39.7265 27.427 39.8974 27.6764 39.8974 28.3338V28.6104H41.6506V28.4259C41.6506 26.9536 40.8183 26.1121 39.4113 26.1121C38.0044 26.1121 37.2268 26.9536 37.2268 28.4259C37.2268 31.0557 40.0263 31.4112 40.0263 33.3042C40.0263 33.9617 39.7646 34.1984 39.3044 34.1984C38.8442 34.1984 38.5825 33.9617 38.5825 33.3042V32.5552H37.2676Z" fill="url(#paint0_linear)"/>
<defs>
<linearGradient id="paint0_linear" x2="1" gradientUnits="userSpaceOnUse" gradientTransform="translate(32.5 1.02987) scale(63.9701) rotate(90)">
<stop stop-color="#C08486"/>
<stop offset="1" stop-color="#894A4C"/>
</linearGradient>
</defs>
</svg>
