<svg width="65" height="65" viewBox="0 0 65 65" fill="none" xmlns="http://www.w3.org/2000/svg">
<path fill-rule="evenodd" clip-rule="evenodd" d="M0 32.5C0 14.5508 14.5506 0 32.5 0C50.4492 0 65 14.5508 65 32.5C65 50.4495 50.4492 65 32.5 65C14.5506 65 0 50.4495 0 32.5ZM14.4444 32.5002C14.4444 42.4719 22.5281 50.5557 32.4999 50.5557H50.5555V32.5002C50.5555 22.5283 42.4717 14.4446 32.4999 14.4446C22.5281 14.4446 14.4444 22.5283 14.4444 32.5002ZM49.5383 49.5383H32.4999C23.0899 49.5383 15.4616 41.9099 15.4616 32.5C15.4616 23.0901 23.0899 15.4617 32.4999 15.4617C41.9099 15.4617 49.5383 23.0901 49.5383 32.5V49.5383ZM32.4999 48.5212H48.5211V32.5002C48.5211 23.6519 41.3481 16.479 32.4999 16.479C23.6517 16.479 16.4788 23.6519 16.4788 32.5002C16.4788 41.3484 23.6517 48.5212 32.4999 48.5212ZM38.8575 38.8577H32.4999C28.9887 38.8577 26.1423 36.0115 26.1423 32.5002C26.1423 28.989 28.9887 26.1426 32.4999 26.1426C36.0111 26.1426 38.8575 28.989 38.8575 32.5002V38.8577ZM25.1251 32.5C25.1251 36.573 28.4269 39.8748 32.4999 39.8748H39.8747V32.5C39.8747 28.427 36.5729 25.1252 32.4999 25.1252C28.4269 25.1252 25.1251 28.427 25.1251 32.5ZM37.8403 37.8403H32.4999C29.5505 37.8403 27.1595 35.4495 27.1595 32.5C27.1595 29.5505 29.5505 27.1597 32.4999 27.1597C35.4493 27.1597 37.8403 29.5505 37.8403 32.5V37.8403Z" fill="url(#paint0_linear)"/>
<defs>
<linearGradient id="paint0_linear" x2="1" gradientUnits="userSpaceOnUse" gradientTransform="translate(32.5) scale(65) rotate(90)">
<stop stop-color="#6AC1FF"/>
<stop offset="1" stop-color="#006EBE"/>
</linearGradient>
</defs>
</svg>
