<svg width="65" height="65" viewBox="0 0 65 65" fill="none" xmlns="http://www.w3.org/2000/svg">
<path fill-rule="evenodd" clip-rule="evenodd" d="M0 32.5C0 14.5508 14.5505 0 32.5 0C50.4492 0 65 14.5508 65 32.5C65 50.4495 50.4492 65 32.5 65C14.5505 65 0 50.4495 0 32.5ZM50.2987 16.9124C45.7487 14.2998 40.0209 13.0002 33.1226 13.0002C26.2244 13.0002 20.4966 14.2998 15.9465 16.9124C14.96 17.479 14.38 18.5559 14.4501 19.6914L15.3463 34.2258C15.7386 40.5869 19.1244 46.3853 24.4717 49.853L31.4946 54.4075C32.4849 55.0498 33.7603 55.0498 34.7506 54.4075L41.7736 49.853C47.1207 46.3853 50.5066 40.5869 50.8989 34.2258L51.7952 19.6914C51.8652 18.5559 51.2853 17.479 50.2987 16.9124ZM15.6797 19.6155L16.576 34.1499C16.7008 36.1738 17.1484 38.137 17.8812 39.9749L22.3077 32.062C21.7936 31.7139 21.4556 31.1252 21.4556 30.4575C21.4556 29.8176 21.7661 29.2505 22.2446 28.8979L16.3069 18.1572C15.8828 18.5122 15.6449 19.0515 15.6797 19.6155ZM17.0605 17.7017L23.0581 28.5508C23.1665 28.532 23.2778 28.5215 23.3916 28.5215C23.6769 28.5215 23.9476 28.5837 24.1915 28.6946L32.2783 14.239C26.2117 14.3364 21.1409 15.4927 17.0605 17.7017ZM34.2695 14.2446L42.037 28.575C42.1818 28.5403 42.3325 28.5215 42.4878 28.5215C42.7128 28.5215 42.9287 28.5603 43.1294 28.6309L49.1163 17.6648C45.116 15.5164 40.1688 14.3745 34.2695 14.2446ZM49.8768 18.1082L43.8729 29.1055C44.2136 29.4546 44.4238 29.9314 44.4238 30.4575C44.4238 31.011 44.1913 31.5098 43.8191 31.8625L48.3009 40.1311C49.071 38.2483 49.5409 36.2312 49.6692 34.1499L50.5656 19.6155C50.6019 19.0249 50.3394 18.4612 49.8768 18.1082ZM47.8503 41.1462L43.0596 32.3079C42.8789 32.3635 42.687 32.3936 42.488 32.3936C42.3549 32.3936 42.2251 32.3801 42.0995 32.3545L34.6973 45.9141C34.8541 46.1187 34.9712 46.3555 35.0364 46.613L46.4307 43.6113C46.9651 42.8267 47.4397 42.0024 47.8503 41.1462ZM45.5974 44.7417L35.0465 47.5229C34.8829 48.238 34.324 48.8018 33.6116 48.9722V53.5879C33.7749 53.5408 33.933 53.4692 34.0803 53.3738L41.1031 48.8193C42.8333 47.6973 44.3445 46.3154 45.5974 44.7417ZM32.7316 53.613V48.9778C31.9973 48.812 31.4211 48.2292 31.2655 47.491C29.4067 47.041 27.7595 46.6416 26.3243 46.2935L25.2382 46.03L24.701 45.8997L23.9661 45.7214L23.915 45.709C22.631 45.3975 21.6007 45.1475 20.8242 44.96C22.0417 46.4434 23.4924 47.7495 25.1421 48.8193L32.1649 53.3738C32.3416 53.4883 32.5336 53.5679 32.7316 53.613ZM19.9824 43.8535C21.4861 44.2119 25.2805 45.1311 31.2886 46.592C31.3572 46.3335 31.4781 46.0962 31.6392 45.8921L24.1022 32.2583C23.8821 32.3455 23.6426 32.3936 23.3916 32.3936C23.3063 32.3936 23.2224 32.3875 23.14 32.3767L18.3213 40.991C18.7902 41.9919 19.3461 42.95 19.9824 43.8535ZM34.0035 45.3469C33.7484 45.2234 33.4622 45.1538 33.1597 45.1538C32.8658 45.1538 32.5873 45.2197 32.3378 45.3369L24.8291 31.7542C25.1389 31.4109 25.3276 30.9563 25.3276 30.4575C25.3276 29.9956 25.1655 29.5715 24.8955 29.2388L33.1978 14.3977C33.2124 14.3713 33.2346 14.3606 33.2506 14.356C33.2665 14.3516 33.2913 14.3491 33.3175 14.3638C33.332 14.3718 33.344 14.384 33.3519 14.3987L41.2499 28.9692C40.8234 29.3245 40.5519 29.8591 40.5519 30.4575C40.5519 31.0784 40.8442 31.6304 41.2986 31.9846L34.0035 45.3469ZM33.1317 23.5935C33.6912 23.5935 34.1716 24.0833 34.1716 24.6431V28.4907L39.765 31.9888L39.0778 33.3901L34.1716 31.6392V35.4868L35.5317 36.5364V37.5857L33.0917 36.8862L30.6516 37.5857V36.5364L32.0917 35.4868V31.6392L27.0902 33.3025L26.4841 31.9888L32.0917 28.4907V24.6431C32.0917 24.0833 32.5721 23.5935 33.1317 23.5935Z" fill="url(#paint0_linear)"/>
<defs>
<linearGradient id="paint0_linear" x2="1" gradientUnits="userSpaceOnUse" gradientTransform="translate(32.5 65) scale(65) rotate(-90)">
<stop stop-color="#106EA5"/>
<stop offset="1" stop-color="#01D3E0"/>
</linearGradient>
</defs>
</svg>
