<svg width="65" height="65" viewBox="0 0 65 65" fill="none" xmlns="http://www.w3.org/2000/svg">
<path fill-rule="evenodd" clip-rule="evenodd" d="M37.9989 37.0776C33.5242 34.3831 28.5439 32.6375 23.3673 31.948C26.2231 31.1672 29.1713 30.7725 32.1318 30.7749C37.0541 30.7749 41.8861 31.9019 46.2799 34.1106C43.7035 35.5366 40.92 36.5259 37.9989 37.0776ZM39.5167 46.6221L32.5234 53.614L28.5665 49.658C32.3622 49.2671 36.0662 48.2549 39.5167 46.6221ZM48.9723 34.041L48.6502 34.248C45.3438 36.3367 41.6642 37.7659 37.8151 38.457L37.7231 38.4801L37.6531 38.4337C31.7611 34.8241 24.9859 32.9137 18.0762 32.9137H16.8108L17.8461 32.4768C22.3586 30.4977 27.2287 29.4648 32.1558 29.4409C37.9532 29.4409 43.6583 30.959 48.6502 33.857L48.9723 34.041ZM11.106 32.7293L11.5431 33.0976C12.2563 33.6729 12.9695 34.2479 13.7054 34.7537C19.2087 38.6399 25.7866 40.7141 32.5235 40.6874C35.1513 40.6847 37.7694 40.3681 40.3223 39.7449C43.9935 38.8527 47.4812 37.3273 50.6282 35.2371C51.4166 34.7265 52.177 34.1735 52.9056 33.5809H52.9051C53.2505 33.3049 53.5954 33.0289 53.8945 32.7298L32.5002 11.386L11.106 32.7293ZM54.9525 33.6036C54.5615 33.9716 54.1476 34.3167 53.7104 34.6617C52.9504 35.2598 52.146 35.8576 51.3408 36.3868C48.051 38.5716 44.4395 40.1586 40.6205 41.0786C37.9696 41.7223 35.2511 42.0465 32.523 42.0447C29.073 42.0447 25.644 41.5386 22.3549 40.5035C18.9953 39.4662 15.8203 37.9062 12.9461 35.8807C12.1868 35.329 11.4278 34.7539 10.7146 34.1558C10.4845 33.9718 10.2777 33.7878 10.0706 33.6038L9.17346 32.822L11.7271 30.2689L32.5235 9.52344L55.8269 32.822L54.9525 33.6036ZM42.3925 45.6327L32.5235 55.4768L25.5758 48.5535L27.0483 48.4615C31.9545 48.1648 36.7294 46.7571 41.0121 44.3447C42.2992 43.7238 45.7049 41.6079 45.7049 41.6079C44.6696 42.9879 43.5654 44.3447 42.3925 45.6327ZM32.5001 0C14.5509 0 0 14.5506 0 32.5C0 50.4492 14.5509 65 32.5001 65C50.4494 65 65 50.4492 65 32.5C65 14.5506 50.4494 0 32.5001 0Z" fill="url(#paint0_linear)"/>
<defs>
<linearGradient id="paint0_linear" x2="1" gradientUnits="userSpaceOnUse" gradientTransform="translate(3.77102 15.4519) scale(65.9346) rotate(29.9707)">
<stop stop-color="#5E72EB"/>
<stop offset="1" stop-color="#00A4FF"/>
</linearGradient>
</defs>
</svg>
