<svg width="65" height="65" viewBox="0 0 65 65" fill="none" xmlns="http://www.w3.org/2000/svg">
<path fill-rule="evenodd" clip-rule="evenodd" d="M32.5 0C14.5506 0 0 14.5508 0 32.5C0 50.4494 14.5506 65 32.5 65C50.4492 65 65 50.4494 65 32.5C65 14.5508 50.4492 0 32.5 0ZM28.5175 14.0002L30.4732 17.377L32.4267 20.7538L30.4732 24.1405L28.5175 27.5173L26.5638 24.1405L26.5431 24.1047H22.8471L24.8008 27.4815L26.7546 30.8583L24.8008 34.237L22.8471 37.6218L22.1376 36.3937L20.9093 34.2708H16.9999L18.9536 37.6476L20.9093 41.0343L18.9536 44.4111L16.9999 47.7879H20.9093H24.8187L26.7645 44.4111L28.7182 41.0343L26.7645 37.6476L26.7532 37.6218H26.7546L28.7023 34.237H28.7182L30.6739 37.6218L32.6276 40.9985L30.6739 44.3753L28.7182 47.7521H32.6276H36.5371L38.4928 44.3753L40.4465 40.9985L38.4928 37.6218L38.4824 37.6039H42.2249L42.2353 37.6218L44.181 40.9985L42.2353 44.3753L40.2815 47.7521H44.181H44.2069H48.0388H48.0905L50.046 44.3753L51.9999 40.9985L50.046 37.6218L48.0905 34.237H44.181H44.1707L44.181 34.2192L46.1367 30.8424L44.181 27.4656L42.2353 24.0868H38.3258H38.3228L40.2458 20.7538L38.292 17.377L36.3363 14.0002H28.5175ZM32.4975 34.0396L34.339 30.8582L32.5154 27.6479L32.4476 27.4814L34.3827 24.1404H34.4572L36.3722 27.4734L36.3746 27.4695L38.3259 30.8423L36.3722 34.219L36.3825 34.2369H32.6277H32.6118H32.3777L32.4975 34.0396Z" fill="url(#paint0_linear)"/>
<defs>
<linearGradient id="paint0_linear" x2="1" gradientUnits="userSpaceOnUse" gradientTransform="translate(32.5) scale(65) rotate(90)">
<stop stop-color="#61B3FA"/>
<stop offset="1" stop-color="#2280C3"/>
</linearGradient>
</defs>
</svg>
