<svg width="65" height="65" viewBox="0 0 65 65" fill="none" xmlns="http://www.w3.org/2000/svg">
<path fill-rule="evenodd" clip-rule="evenodd" d="M32.5 65C50.4493 65 65 50.4493 65 32.5C65 14.5507 50.4493 0 32.5 0C14.5507 0 0 14.5507 0 32.5C0 50.4493 14.5507 65 32.5 65ZM30.0308 16.3363C29.5543 18.59 29.1761 21.3207 28.9312 24.368C30.2745 25.0082 31.6606 25.7072 33.0733 26.4595C34.4197 25.7453 35.7413 25.0799 37.0242 24.4679C36.7796 21.3804 36.3982 18.6146 35.9166 16.3363C35.4801 14.2721 34.9666 12.6345 34.412 11.525C34.1342 10.9693 33.8588 10.5719 33.5984 10.3199C33.3396 10.0695 33.1323 9.99576 32.9736 9.99576C32.815 9.99576 32.6077 10.0695 32.3491 10.3199C32.0887 10.5719 31.8131 10.9693 31.5354 11.525C30.9807 12.6345 30.4672 14.2721 30.0308 16.3363ZM20.6267 20.9756C22.7842 21.6757 25.2718 22.6684 27.9526 23.9084C28.2009 20.9775 28.5727 18.3383 29.0388 16.1337C29.4824 14.0354 30.0169 12.3044 30.626 11.086C30.93 10.4777 31.2653 9.97129 31.6381 9.61046C32.0125 9.24804 32.4608 9 32.9736 9C33.4865 9 33.9348 9.24804 34.3092 9.61046C34.6821 9.97129 35.0175 10.4777 35.3214 11.086C35.9306 12.3044 36.4649 14.0354 36.9087 16.1337C37.38 18.3632 37.7549 21.0371 38.0031 24.0077C39.8342 23.1598 41.5757 22.427 43.184 21.8235C43.2215 21.3143 43.5068 20.8318 43.9905 20.5573C44.6609 20.1769 45.4929 20.3206 45.9952 20.8589C47.8054 20.3029 49.3797 19.9627 50.6189 19.881C51.307 19.8357 51.9208 19.8678 52.4252 20.0047C52.9318 20.1422 53.3745 20.3997 53.6309 20.8362C53.8874 21.2727 53.8929 21.7783 53.7608 22.2782C53.6293 22.776 53.3506 23.3145 52.9666 23.8774C52.1974 25.0051 50.9394 26.3254 49.3122 27.7522C47.6259 29.2309 45.5209 30.8429 43.1042 32.4958C45.5861 34.1864 47.745 35.8362 49.4673 37.347C51.0942 38.7739 52.352 40.0945 53.121 41.2223C53.5048 41.7853 53.7833 42.324 53.9148 42.8217C54.0469 43.3216 54.0412 43.8272 53.7847 44.2637C53.5281 44.7001 53.0854 44.9576 52.5788 45.095C52.0744 45.2318 51.4606 45.2639 50.7725 45.2183C49.3943 45.1273 47.6018 44.7164 45.5312 44.0445C43.319 43.3265 40.7596 42.3011 38.0011 41.017C37.7529 43.9776 37.3786 46.643 36.9087 48.8662C36.4649 50.9646 35.9306 52.6955 35.3214 53.9141C35.0175 54.5223 34.6821 55.0287 34.3092 55.3896C33.9348 55.7521 33.4865 56 32.9736 56C32.4608 56 32.0125 55.7521 31.6381 55.3896C31.2653 55.0287 30.93 54.5223 30.626 53.9141C30.0783 52.8183 29.591 51.3084 29.1757 49.4897C28.4502 49.3312 27.9077 48.6951 27.9077 47.9343C27.9077 47.3853 28.1902 46.9011 28.6202 46.6147C28.3478 44.944 28.1228 43.0955 27.9544 41.1131C25.2127 42.3871 22.669 43.405 20.4688 44.1184C18.3979 44.7901 16.6054 45.2006 15.2271 45.2914C14.5391 45.3368 13.9252 45.3047 13.4209 45.1677C12.9143 45.0303 12.4716 44.7728 12.2151 44.3362C11.9587 43.8997 11.9532 43.3942 12.0853 42.8942C12.2168 42.3965 12.4955 41.858 12.8794 41.295C13.6486 40.1674 14.9067 38.847 16.5339 37.4203C18.2822 35.8872 20.4805 34.2109 23.0096 32.4942C21.3354 31.3523 19.8089 30.2293 18.4651 29.1554C17.9976 29.3781 17.4298 29.3763 16.946 29.1019C16.2758 28.7213 15.9865 27.9414 16.2099 27.2448C14.815 25.9817 13.7283 24.8118 13.0369 23.7977C12.653 23.2347 12.3745 22.6961 12.243 22.1984C12.111 21.6984 12.1167 21.1929 12.3732 20.7564C12.6297 20.3199 13.0724 20.0625 13.579 19.9251C14.0834 19.7883 14.6973 19.7562 15.3853 19.8017C16.7636 19.8928 18.556 20.3037 20.6267 20.9756ZM48.6376 27.0092C46.9126 28.5217 44.7302 30.1852 42.2093 31.8938C40.9742 31.0731 39.6672 30.2458 38.3006 29.4227C38.2585 27.9228 38.1857 26.4675 38.0856 25.0711C39.9823 24.1832 41.7818 23.4193 43.4353 22.7952C43.8991 23.5095 44.8576 23.7447 45.6116 23.3168C46.1827 22.9929 46.4773 22.3791 46.4141 21.7737C48.1339 21.2516 49.5826 20.9473 50.6867 20.8745C51.3153 20.8331 51.8033 20.8689 52.1555 20.9645C52.5054 21.0595 52.6742 21.1991 52.7534 21.3341C52.8329 21.4691 52.8714 21.6825 52.7802 22.0279C52.6882 22.3755 52.4758 22.8087 52.1251 23.323C51.4247 24.3497 50.2385 25.6056 48.6376 27.0092ZM41.3074 32.4974C40.355 31.8703 39.3598 31.2392 38.3276 30.609C38.3381 31.2328 38.3436 31.8635 38.3436 32.5C38.3436 33.1371 38.3381 33.7682 38.3274 34.3925C39.3604 33.76 40.3556 33.1265 41.3074 32.4974ZM37.1026 25.5383C37.1739 26.5964 37.2295 27.6885 37.2678 28.8083C36.7737 28.5178 36.2724 28.2282 35.7648 27.94C35.2183 27.6298 34.674 27.3267 34.1329 27.0311C35.1411 26.5041 36.133 26.0059 37.1026 25.5383ZM35.258 28.8023C34.524 28.3856 33.7947 27.9823 33.0723 27.593C32.3035 28.0057 31.5267 28.4343 30.7447 28.878C30.0303 29.2835 29.3293 29.6914 28.6432 30.1004C28.6259 30.8889 28.6169 31.6894 28.6169 32.5C28.6169 33.3115 28.6259 34.1131 28.6433 34.9024C29.3787 35.3425 30.1316 35.7816 30.8999 36.2178C31.6289 36.6316 32.3534 37.0323 33.0711 37.4193C33.7427 37.0562 34.4201 36.681 35.1014 36.2945C35.8501 35.8697 36.5841 35.4421 37.3016 35.0133C37.3207 34.1882 37.3304 33.3496 37.3304 32.5C37.3304 31.6518 37.3207 30.8144 37.3016 29.9905C36.6339 29.593 35.9522 29.1965 35.258 28.8023ZM30.2381 28.0157C30.8327 27.6783 31.4246 27.3494 32.0126 27.0294C30.9385 26.4656 29.8823 25.9343 28.8516 25.4377C28.7746 26.5617 28.7155 27.7245 28.6758 28.9184C29.1892 28.6164 29.7101 28.3153 30.2381 28.0157ZM27.6037 32.5C27.6037 33.0993 27.6086 33.6931 27.6181 34.281C26.6471 33.6854 25.7095 33.0889 24.8103 32.4962C25.7101 31.9057 26.6476 31.3119 27.6181 30.719C27.6086 31.3069 27.6037 31.9009 27.6037 32.5ZM27.6437 35.4684C26.3385 34.6783 25.0886 33.8847 23.9052 33.0975C21.2707 34.8695 18.9944 36.5974 17.2084 38.1633C15.6076 39.5669 14.4214 40.8228 13.721 41.8494C13.3702 42.3638 13.1578 42.797 13.0659 43.1445C12.9746 43.49 13.0133 43.7033 13.0926 43.8384C13.1719 43.9734 13.3406 44.113 13.6906 44.208C14.0428 44.3036 14.5307 44.3394 15.1594 44.298C16.4143 44.2151 18.1141 43.8336 20.1513 43.1728C22.3997 42.4437 25.0275 41.3854 27.8705 40.0499C27.7633 38.5829 27.6866 37.0502 27.6437 35.4684ZM27.6436 29.5332C26.3399 30.3191 25.0905 31.1089 23.9065 31.893C22.1638 30.715 20.5806 29.5579 19.1959 28.4559C19.5935 27.704 19.3217 26.7706 18.5677 26.3426C17.9967 26.0185 17.3086 26.0745 16.8066 26.4309C15.4869 25.2279 14.4946 24.1469 13.8786 23.2434C13.5279 22.729 13.3155 22.2958 13.2237 21.9482C13.1325 21.6028 13.1712 21.3894 13.2505 21.2544C13.3299 21.1194 13.4986 20.9799 13.8486 20.8849C14.2008 20.7894 14.6888 20.7537 15.3174 20.7952C16.5723 20.8781 18.272 21.2602 20.3091 21.9212C22.5154 22.6371 25.0872 23.6702 27.8689 24.9712C27.7626 26.4321 27.6863 27.9583 27.6436 29.5332ZM30.3931 37.0801C29.812 36.7501 29.2393 36.4185 28.676 36.0855C28.7158 37.2848 28.7754 38.4527 28.8529 39.5813C29.8842 39.0824 30.9406 38.5489 32.0145 37.9833C31.4769 37.6895 30.9362 37.3882 30.3931 37.0801ZM28.9328 40.6517C30.2759 40.0087 31.661 39.3076 33.0719 38.5538C34.4174 39.2706 35.7391 39.9389 37.0224 40.5543C36.7778 43.6328 36.397 46.3909 35.9166 48.6636C35.4801 50.7278 34.9666 52.3655 34.412 53.4749C34.1342 54.0308 33.8588 54.4281 33.5984 54.68C33.3396 54.9305 33.1323 55.0042 32.9736 55.0042C32.815 55.0042 32.6077 54.9305 32.3491 54.68C32.0887 54.4281 31.8131 54.0308 31.5354 53.4749C31.0474 52.4987 30.5912 51.1136 30.1913 49.3889C30.7564 49.14 31.1499 48.5824 31.1499 47.9343C31.1499 47.0786 30.4634 46.3803 29.6021 46.3427C29.3253 44.6234 29.0986 42.7098 28.9328 40.6517ZM38.3006 35.5801C38.2581 37.0875 38.1849 38.5501 38.084 39.9527C40.9445 41.299 43.5883 42.3654 45.8487 43.0989C47.8859 43.7599 49.5856 44.1419 50.8405 44.2249C51.4691 44.2663 51.9571 44.2307 52.3093 44.1351C52.6592 44.0401 52.828 43.9007 52.9073 43.7657C52.9867 43.6306 53.0254 43.4173 52.9342 43.0718C52.8424 42.7243 52.63 42.2909 52.2793 41.7767C51.5792 40.7497 50.3931 39.4936 48.7927 38.0898C47.0325 36.5462 44.7964 34.8452 42.2105 33.0994C40.9763 33.9227 39.6686 34.7534 38.3006 35.5801ZM34.1285 37.9819C35.1374 38.5116 36.1302 39.0127 37.1012 39.4833C37.1731 38.42 37.2291 37.3223 37.2678 36.1967C36.7229 36.5179 36.1695 36.8381 35.608 37.1568C35.1127 37.4378 34.6193 37.7128 34.1285 37.9819ZM32.9736 35.3877C34.5405 35.3877 35.8106 34.1394 35.8106 32.5996C35.8106 31.0597 34.5405 29.8114 32.9736 29.8114C31.4069 29.8114 30.1367 31.0597 30.1367 32.5996C30.1367 34.1394 31.4069 35.3877 32.9736 35.3877Z" fill="url(#paint0_linear)"/>
<defs>
<linearGradient id="paint0_linear" x1="31.9867" y1="0" x2="31.9867" y2="64" gradientUnits="userSpaceOnUse">
<stop stop-color="#324983"/>
<stop offset="1" stop-color="#171835" stop-opacity="0.84"/>
</linearGradient>
</defs>
</svg>
