<svg width="65" height="65" viewBox="0 0 65 65" fill="none" xmlns="http://www.w3.org/2000/svg">
<path fill-rule="evenodd" clip-rule="evenodd" d="M32.5 0C14.5506 0 0 14.5508 0 32.5C0 50.4494 14.5506 65 32.5 65C50.4492 65 65 50.4494 65 32.5C65 14.5508 50.4492 0 32.5 0ZM17.5542 35.3123C16.3221 34.3914 15.1804 33.5379 14.0011 32.6564C13.3876 33.3134 12.6938 34.0565 11.9999 34.7997V35.1495C13.1451 36.7731 14.8885 37.3617 16.7171 37.8739C17.0148 36.9632 17.3103 36.0584 17.5542 35.3123ZM51.5269 35.5299C51.3429 35.1566 51.1589 34.7834 50.975 34.4101C51.2646 34.3207 51.5543 34.2313 52.0251 34.086C51.903 34.7421 51.8369 35.0976 51.7708 35.4532C51.6895 35.4789 51.6082 35.5044 51.5269 35.5299ZM39.402 25.1277L41.2482 26.1723C41.719 26.4386 42.2072 26.7149 42.7289 27.0101C41.1145 27.3042 40.2618 26.8286 39.402 25.1277ZM35.8243 28.7287C34.7849 29.8846 33.9004 31.0867 34.5476 32.8476C33.4349 31.4731 34.4106 28.9799 36.6867 27.6923C36.3999 28.0384 36.1247 28.3947 35.8243 28.7287ZM50.4734 32.1758C48.8606 30.5774 47.3182 28.9046 45.8133 27.2037C45.4872 26.8353 45.2744 26.2146 45.2987 25.7245C45.3338 25.0114 45.0939 24.5595 44.5625 24.1699C43.2473 23.2058 41.9637 22.196 40.6185 21.2763C39.734 20.6718 38.7867 20.1449 37.8216 19.6786C37.4021 19.4757 36.8401 19.3739 36.3882 19.4612C31.0559 20.4917 26.4759 22.8764 22.8339 26.9886C19.6573 30.5755 18.0845 34.9492 16.6154 39.3786C16.5464 39.5865 16.8003 40.0597 17.0267 40.1827C18.7084 41.0951 20.3522 42.1414 22.1376 42.7859C26.6197 44.4036 31.2751 44.4355 35.9399 43.7778C37.8799 43.5043 39.7962 43.0634 41.7906 42.6859C41.6679 42.4245 41.649 42.3353 41.5958 42.2779C39.8442 40.3892 37.9837 38.6863 35.5321 37.6724C31.0596 35.8228 30.2543 29.7318 34.1074 26.8945C35.1332 26.1393 35.1605 25.2098 35.2762 24.0394C34.9066 24.2005 34.6418 24.2956 34.3956 24.4261C32.204 25.5874 30.4589 27.2271 29.2551 29.3973C27.2634 32.9884 26.7797 36.8699 27.1504 40.8993C27.2086 41.533 27.3031 42.1636 27.3807 42.7957C24.377 34.8255 28.3521 24.7559 36.1434 22.957C36.0168 23.9321 35.8701 24.873 35.7804 25.8193C35.7207 26.4493 35.4838 26.8676 34.899 27.1936C33.8783 27.7628 33.1407 28.6159 32.8211 29.7797C32.0735 32.5008 33.768 35.4797 36.5311 36.1673C37.1148 36.3125 37.8758 36.3527 38.3817 36.0974C40.3473 35.105 42.115 35.6009 43.8485 36.6005C44.6646 37.071 45.1722 37.8158 45.387 38.7405C45.6822 40.0108 46.14 40.2627 47.3282 39.7025C47.7851 39.487 48.1742 39.1275 48.6665 38.783C47.8537 37.8345 47.1254 36.9845 46.4056 36.1444C46.8183 35.6588 47.0916 35.6689 47.5262 36.0636C48.4969 36.9451 49.032 38.3147 50.6296 38.5368C51.2042 38.6167 51.5217 38.6795 51.6929 38.1666C52.1766 36.7159 52.6044 35.2463 52.9999 33.9601C52.0042 33.2697 51.133 32.8294 50.4734 32.1758ZM41.2827 43.433C38.9663 43.9722 36.6175 44.4417 34.2555 44.6996C29.7521 45.191 25.2863 44.9046 21.036 43.1865C19.3612 42.5094 17.7983 41.556 16.1853 40.729C15.5687 42.0241 15.5701 42.0222 16.7706 42.8824C19.0857 44.5412 21.584 45.8252 24.3574 46.5188C28.5849 47.5757 32.8436 47.3935 37.0986 46.733C39.3136 46.389 41.4783 45.8436 43.4982 44.6103C43.3342 44.3803 43.2183 44.2474 43.1352 44.0965C42.7089 43.3229 42.1796 43.2242 41.2827 43.433ZM18.0264 34.2287C18.3733 33.4432 18.6643 32.7845 18.8872 32.2793C18.1489 31.2934 17.4823 30.4031 16.7795 29.4646C16.2871 29.783 15.7167 30.1749 15.1237 30.5287C14.621 30.8284 14.6241 31.2049 14.9116 31.6239C15.6987 32.7714 16.8414 33.4738 18.0264 34.2287ZM32.7555 20.1524C32.931 20.0734 33.1344 19.7908 33.1246 19.6119C33.0823 18.8414 32.9655 18.0752 32.8548 17.1263C32.4012 17.0301 31.787 16.9452 31.2199 17.0599C30.3617 18.306 30.9118 19.4416 31.3289 20.6207C31.8276 20.464 32.3115 20.3525 32.7555 20.1524ZM25.5101 24.0138C26.0772 23.5733 26.5693 23.1908 26.9762 22.8749C26.5952 21.9514 26.2598 21.1389 25.8378 20.1163C25.4423 20.3971 24.4618 20.6199 24.0715 20.8424C24.0367 20.8623 24.0445 20.8735 24.0666 20.8787C23.8601 22.1088 24.7178 23.0013 25.5101 24.0138ZM21.1845 28.5224C21.6334 27.8404 21.9649 27.3368 22.2452 26.9108C21.7005 26.1419 21.2035 25.4403 20.6583 24.6709C20.3351 24.8484 19.9751 25.0941 19.5799 25.2522C18.9439 25.5064 18.869 25.9501 19.238 26.4063C19.8228 27.1294 20.495 27.7816 21.1845 28.5224ZM19.4749 31.1063C19.865 30.4173 20.1471 29.9189 20.395 29.4811C19.7756 28.7354 19.211 28.0555 18.6114 27.3335C18.3046 27.5423 17.9664 27.8188 17.5884 28.02C16.9384 28.3661 16.9823 28.841 17.4006 29.2644C18.032 29.9034 18.7427 30.464 19.4749 31.1063ZM27.4603 18.4504C27.4684 18.4744 27.4708 18.4819 27.4603 18.4504V18.4504ZM27.4537 18.4305C27.4467 18.4102 27.4371 18.3813 27.4238 18.342C27.4317 18.3654 27.4439 18.4018 27.4537 18.4305ZM28.2682 22.0379C28.8072 21.7797 29.3167 21.5358 29.7555 21.3258C29.5642 20.3046 29.391 19.3804 29.1871 18.2915C28.9913 18.0234 27.9384 18.1285 27.422 18.3369C27.422 18.3368 27.422 18.3368 27.422 18.3368C27.422 18.3368 27.422 18.3368 27.422 18.3369C26.92 19.923 27.653 20.9369 28.2682 22.0379ZM27.422 18.3367C27.4154 18.3169 27.4131 18.3105 27.422 18.3367V18.3367ZM21.5689 22.9676C21.5646 22.9196 21.5663 22.9388 21.5689 22.9676V22.9676ZM21.569 22.9677C21.5693 22.9718 21.5695 22.9731 21.57 22.9783C21.5697 22.9746 21.5693 22.9713 21.569 22.9677ZM23.1497 26.1608C23.5881 25.6873 23.9967 25.2461 24.3477 24.867C23.9037 24.0204 23.4943 23.2398 23.0044 22.3057C22.5499 22.6584 22.0454 22.6094 21.5699 22.9784C21.5729 23.0118 21.5758 23.0427 21.5699 22.9784C21.4879 23.0142 21.406 23.0499 21.324 23.0858C21.2102 24.4763 22.2641 25.2484 23.1497 26.1608ZM35.5807 19.3495C35.5204 18.6088 35.4653 17.9311 35.4032 17.1678C34.9538 17.1939 34.4769 16.9653 33.8005 17.0047C33.9032 17.7554 34.0121 18.8092 34.1377 19.7277C34.7518 19.5667 35.1629 19.459 35.5807 19.3495Z" fill="url(#paint0_linear)"/>
<defs>
<linearGradient id="paint0_linear" x2="1" gradientUnits="userSpaceOnUse" gradientTransform="translate(32.5 65) scale(65) rotate(-90)">
<stop stop-color="#6198F3"/>
<stop offset="1" stop-color="#71E2E6"/>
</linearGradient>
</defs>
</svg>
