<svg width="65" height="65" viewBox="0 0 65 65" fill="none" xmlns="http://www.w3.org/2000/svg">
<path fill-rule="evenodd" clip-rule="evenodd" d="M32.5 65C50.4492 65 65 50.4492 65 32.5C65 14.5508 50.4492 0 32.5 0C14.5508 0 0 14.5508 0 32.5C0 50.4492 14.5508 65 32.5 65ZM17.1591 19.4513L24.0908 16H40.9092L47.8408 19.4513L55 29L32.3865 55L10 29L17.1591 19.4513ZM39.5774 29.1671C39.345 26.6862 37.1885 25.847 34.4629 25.6006L34.4741 22.1604L32.3621 22.1531L32.3513 25.5027C31.7961 25.5009 31.2285 25.5096 30.6646 25.5188L30.676 22.1471L28.5649 22.1395L28.553 25.5789C28.0957 25.5864 27.6467 25.5933 27.2087 25.592L27.2085 25.5814L24.2955 25.5701L24.2888 27.8066C24.2888 27.8066 24.8534 27.7979 25.2976 27.7971C25.5918 27.7966 25.833 27.7997 25.8225 27.811C26.678 27.8143 26.9548 28.3077 27.0344 28.7329L27.0217 32.6521C27.0808 32.6526 27.1577 32.6553 27.2449 32.6675L27.1863 32.6671C27.1333 32.6669 27.0781 32.6666 27.022 32.667L27.0034 38.1572C26.9648 38.4241 26.8054 38.8491 26.2075 38.848C26.2148 38.8545 26.1062 38.8571 25.9436 38.8573C25.8115 38.8575 25.644 38.8563 25.4741 38.8544C25.0793 38.85 24.6724 38.8423 24.6724 38.8423L24.2445 41.3416L26.9929 41.3512C27.2554 41.3524 27.5156 41.3558 27.7737 41.3594L27.9009 41.3612C28.1025 41.364 28.303 41.3668 28.5017 41.3688L28.4912 44.8483L30.6011 44.8561L30.6123 41.4135C30.8896 41.4202 31.1628 41.425 31.4321 41.4286C31.7253 41.4324 32.0142 41.4346 32.2993 41.4353L32.2871 44.8621L34.3992 44.8693L34.4111 41.3961C37.9626 41.2067 40.4507 40.3285 40.7703 37.0236C41.0281 34.3624 39.7688 33.17 37.7549 32.6831C38.9814 32.0692 39.7505 30.9827 39.5774 29.1671ZM36.5981 36.5964C36.5913 38.9819 32.8125 38.9166 31.0833 38.8867H31.073C30.9211 38.884 30.7856 38.8816 30.6702 38.8813L30.6858 34.2714C30.8296 34.2719 31.0044 34.2684 31.2024 34.2645C32.9744 34.2292 36.6064 34.157 36.5981 36.5964ZM35.6372 30.089C35.6296 32.2576 32.4824 32.1951 31.04 32.1664C30.9089 32.1638 30.792 32.1615 30.6926 32.1611L30.7063 27.9801C30.8269 27.9805 30.9736 27.9772 31.1399 27.9734C32.6182 27.9399 35.6443 27.8711 35.6372 30.089Z" fill="url(#paint0_linear)"/>
<defs>
<linearGradient id="paint0_linear" x1="32.5" y1="0" x2="32.5" y2="65" gradientUnits="userSpaceOnUse">
<stop stop-color="#FF7E20"/>
<stop offset="1" stop-color="#FE6109"/>
</linearGradient>
</defs>
</svg>
