<svg width="65" height="65" viewBox="0 0 65 65" fill="none" xmlns="http://www.w3.org/2000/svg">
<path fill-rule="evenodd" clip-rule="evenodd" d="M29.86 64.8967C49.887 66.476 66.476 49.8865 64.896 29.8621C63.652 14.1104 50.891 1.34807 35.138 0.104416C15.116 -1.47643 -1.47282 15.11 0.103876 35.1354C1.34438 50.8892 14.107 63.6535 29.86 64.8967ZM30.709 41.8526C32.114 41.8447 34.551 41.8309 34.855 41.8309C38.653 41.8309 39.965 39.2843 39.965 37.7623C39.965 36.7059 39.119 34.1297 34.859 33.9439C34.577 33.9304 30.265 33.8866 29.721 33.8866V41.858C29.741 41.858 30.141 41.8558 30.709 41.8526ZM33.873 22.903C32.545 22.903 30.319 22.8978 29.715 22.8951V30.2462C29.78 30.2494 33.399 30.2624 33.852 30.2384C37.764 30.0204 38.351 27.479 38.351 26.3769C38.351 25.4876 37.19 22.903 33.873 22.903ZM45.08 25.6921C45.08 28.5134 43.752 30.0095 41.814 31.3379C43.633 31.9925 47.053 34.3019 46.993 38.2962C46.926 43.1703 42.49 46.1832 37.403 46.1832C37.322 46.1832 37.079 46.1915 37.079 46.1915L37.077 50.4845H32.668L32.674 46.1671H29.718L29.726 50.4761H25.228L25.231 46.1728L19.823 46.1671L20.69 41.8658C20.69 41.8658 21.696 41.8877 22.372 41.858C22.887 41.8309 23.35 41.3787 23.372 40.7996V24.4364L23.369 24.1997C23.369 23.5446 22.698 22.6011 21.208 22.6043C20.863 22.5985 19.661 22.5985 19.661 22.5985V18.8046C19.661 18.8046 24.417 18.8098 25.21 18.7911L25.215 14.5413L29.726 14.5387L29.718 18.8098L32.674 18.8182L32.663 14.5309L37.077 14.52L37.071 18.8072C37.071 18.8072 37.688 18.8182 37.909 18.8421C40.623 19.109 45.08 21.2113 45.08 25.6921Z" fill="url(#paint0_linear)"/>
<defs>
<linearGradient id="paint0_linear" x1="32.5" y1="65.0009" x2="32.5" y2="0" gradientUnits="userSpaceOnUse">
<stop offset="0.0110497" stop-color="#FFE231"/>
<stop offset="1" stop-color="#EE8707"/>
</linearGradient>
</defs>
</svg>
