<svg width="65" height="65" viewBox="0 0 65 65" fill="none" xmlns="http://www.w3.org/2000/svg">
<path fill-rule="evenodd" clip-rule="evenodd" d="M32.5 65C50.4493 65 65 50.4493 65 32.5C65 14.5507 50.4493 0 32.5 0C14.5507 0 0 14.5507 0 32.5C0 50.4493 14.5507 65 32.5 65ZM36.5837 32.1091C36.6337 32.3148 36.6832 32.5191 36.2752 32.6611C36.1105 32.6885 35.9458 32.5354 35.7782 32.3796C35.5764 32.192 35.3706 32.0006 35.1556 32.1164C34.9863 32.2075 35.0412 32.3099 35.1177 32.4525C35.2189 32.6411 35.3578 32.9001 35.0648 33.2965C34.891 33.5316 34.5478 33.3771 34.2449 33.2407C33.9629 33.1138 33.7158 33.0026 33.6729 33.236C33.4666 34.3556 34.4596 35.5056 34.6714 35.5056C34.75 35.5056 34.8538 35.4596 34.9702 35.4081C35.1671 35.3209 35.4003 35.2177 35.6095 35.2937C35.751 35.3452 35.8226 35.5128 35.895 35.6825C35.9929 35.9122 36.0925 36.1455 36.3691 36.0997C36.6646 36.0507 36.7557 35.6781 36.8312 35.3698C36.8786 35.176 36.9198 35.0076 37.0015 34.9609C37.1161 34.8954 37.3255 34.9273 37.5141 34.956C37.6742 34.9804 37.8194 35.0026 37.879 34.9609C37.9439 34.9155 37.9439 34.7566 37.9439 34.5977C37.9439 34.4389 37.9439 34.28 38.0088 34.2346C38.0681 34.1931 38.1537 34.2029 38.2493 34.2139C38.3628 34.2269 38.4904 34.2415 38.6053 34.1741C39.0593 33.8412 37.0923 31.2691 36.6383 31.6927C36.5131 31.8179 36.5485 31.9639 36.5837 32.1091ZM39.9708 25.5495C40.2123 25.3079 40.2604 24.746 40.3061 24.2116C40.3577 23.6081 40.4063 23.0397 40.7273 23.0076C41.3325 22.9471 41.2114 25.8823 40.7273 26.3968C40.1632 26.996 39.48 26.9619 38.4681 26.9113H38.468H38.468L38.4679 26.9113C38.2312 26.8994 37.9765 26.8867 37.7012 26.8809C37.2473 26.8715 37.0355 27.002 37.0355 27.5769C37.0355 28.026 37.3862 28.1797 37.6551 28.2976L37.6552 28.2976L37.6553 28.2976L37.6553 28.2976C37.7306 28.3307 37.7995 28.3609 37.8525 28.394C37.9941 28.4825 38.0736 28.7677 38.1454 29.0255C38.1964 29.2085 38.2436 29.3777 38.3064 29.4531C38.3626 29.5205 38.5399 29.5838 38.7359 29.6538C39.0676 29.7721 39.4529 29.9096 39.3958 30.1188C39.305 30.4517 38.3064 30.3609 38.3064 30.3609C38.3064 30.3609 38.1551 31.3595 37.8525 31.3595C37.6752 31.3595 37.5084 31.1622 37.3701 30.9988C37.2724 30.8832 37.1889 30.7846 37.1262 30.7846C37.0506 30.7846 36.8766 30.9813 36.7026 31.178C36.5286 31.3747 36.3546 31.5714 36.2789 31.5714C36.2096 31.5714 36.0832 31.5269 35.9461 31.4787C35.784 31.4217 35.607 31.3595 35.4922 31.3595C35.3766 31.3595 35.261 31.4946 35.1602 31.6125C35.0762 31.7107 35.0025 31.7969 34.9475 31.7832C34.8264 31.7529 34.4633 31.5714 34.4633 31.5714C34.4633 31.5714 33.7976 32.2371 33.5252 32.2371C33.4824 32.2371 33.4395 32.2416 33.3988 32.2459L33.3987 32.2459C33.1806 32.2688 33.0234 32.2853 33.2529 31.5714C32.4759 32.3656 33.1176 34.0957 33.7894 35.9073C34.2951 37.2708 34.8179 38.6804 34.7659 39.772C34.6449 42.3139 32.9805 42.2231 32.0425 41.86C31.1044 41.4969 29.0466 39.5602 29.2887 37.8958C29.3369 37.5644 29.7086 38.0433 30.2157 38.6967C31.0051 39.7137 32.1226 41.1536 32.8595 40.6193C33.2831 40.3167 33.5036 39.9233 33.5252 39.4089C33.5622 38.7625 33.0889 37.7234 32.5511 36.5429C32.2078 35.7891 31.8381 34.9775 31.5583 34.1738C31.4719 33.9256 31.4317 33.6733 31.3938 33.435C31.3255 33.0058 31.2644 32.6219 30.9531 32.3884C30.5333 32.0736 29.6359 32.0999 29.2074 32.1125L29.2068 32.1125L29.2054 32.1126L29.2047 32.1126L29.2033 32.1126L29.2027 32.1127L29.2012 32.1127C29.1382 32.1145 29.0856 32.116 29.0466 32.116C28.9861 31.0569 28.502 30.9661 28.2901 30.9359C27.8326 31.1577 28.3028 31.7496 28.6418 32.1764L28.6419 32.1765C28.6667 32.2077 28.6908 32.2381 28.7138 32.2673C29.0196 32.6565 29.6216 33.1146 29.7729 32.9633C29.8508 32.8926 29.875 32.8148 29.9005 32.7327C29.9198 32.6704 29.9399 32.6056 29.9847 32.5397C30.4992 32.194 31.1649 35.2934 31.1649 35.2934C29.5308 36.8972 28.8046 36.5341 28.8046 36.3525C28.8046 36.2072 28.8918 36.1443 29.01 36.059C29.1872 35.9312 29.434 35.7532 29.5611 35.1724C29.3965 34.7983 28.7879 35.1641 28.1049 35.5747C27.4067 35.9945 26.6308 36.461 26.1719 36.2315C25.5969 35.9894 25.2035 35.6263 24.9917 35.2026C24.8574 34.9725 24.6745 34.9733 24.5355 34.9739C24.4552 34.9743 24.3895 34.9746 24.3562 34.9303C24.3038 34.8464 24.3313 34.6316 24.3645 34.3729C24.427 33.8852 24.5096 33.2414 24.1142 33.0239C23.7135 32.7507 23.5864 32.9243 23.4764 33.0744C23.4036 33.1738 23.3384 33.2629 23.2063 33.2054C22.8716 32.6406 23.2166 32.2493 23.4615 31.9716C23.5709 31.8476 23.6602 31.7462 23.6602 31.6621C23.6602 31.522 23.3155 31.2214 22.9809 30.9298C22.6655 30.6548 22.359 30.3876 22.359 30.2701C22.359 30.0281 23.5282 29.259 24.447 29.1505C24.9445 29.0917 25.5716 29.3343 26.0145 29.5056C26.3219 29.6245 26.5405 29.7091 26.5653 29.6347C26.625 29.4555 25.7395 29.0289 25.1371 28.7386L25.1128 28.7268C24.8673 28.6086 24.5545 28.5708 24.2684 28.5363C23.8442 28.4851 23.4787 28.4411 23.4787 28.1519C23.4787 27.8293 23.7607 27.7568 24.0743 27.6762C24.2314 27.6358 24.3964 27.5934 24.5378 27.5164C24.7074 27.4242 24.8737 27.3799 25.0313 27.338C25.2922 27.2686 25.5293 27.2056 25.718 26.9415C25.875 26.7217 24.5904 26.3309 22.8825 25.8113C21.2984 25.3293 19.3501 24.7365 17.8502 24.0667C15.0057 22.705 14.1584 20.1933 14.7031 20.042C14.9094 19.9468 15.2374 20.2541 15.7106 20.6974C16.4171 21.3593 17.4473 22.3244 18.8791 22.705C20.2337 23.0651 21.1481 23.1861 22.0788 23.3093L22.0788 23.3093L22.0789 23.3093C22.7906 23.4035 23.5119 23.499 24.447 23.7036C24.9411 23.8117 25.5068 24.0172 26.0322 24.2081C26.909 24.5267 27.6735 24.8045 27.806 24.5206C28.0178 24.0667 26.8074 23.7036 25.8693 23.4615C24.4941 23.0627 23.6564 22.9639 22.8818 22.8725C21.952 22.7628 21.1131 22.6638 19.5448 22.0695C16.67 20.9801 16.0345 18.65 16.7305 18.5593C17.0129 18.5224 17.2057 18.7596 17.5028 19.1252C17.9379 19.6607 18.597 20.4718 20.0895 21.1012C21.3929 21.6508 22.4092 21.8081 23.4162 21.9639C24.3497 22.1084 25.2751 22.2516 26.414 22.705C27.5941 23.0984 28.4717 23.4615 29.319 24.0062C29.7034 24.2368 30.1733 24.2843 30.5192 24.3193H30.5193C30.718 24.3394 30.8758 24.3554 30.9531 24.3996C31.1649 24.5206 31.407 26.0942 31.407 26.0942V27.5164C31.407 27.5164 32.799 27.4862 33.0411 27.5769C33.1286 27.6098 33.22 27.6584 33.3197 27.7114C33.4958 27.805 33.6977 27.9124 33.9489 27.9703C34.6414 27.9703 35.4281 26.9151 35.9373 26.2321C36.0734 26.0496 36.1896 25.8937 36.2789 25.7916C36.5985 25.7916 36.9583 25.8088 37.326 25.8264L37.326 25.8264C38.4207 25.8788 39.5857 25.9345 39.9708 25.5495ZM28.8313 28.126C28.9522 28.0638 29.0447 28.002 29.1264 27.9473L29.1264 27.9473C29.2711 27.8505 29.3821 27.7762 29.5575 27.7629C29.832 27.742 30.3119 27.7838 30.4654 28.2168C30.6188 28.6498 30.4978 28.8919 30.1022 29.2154C29.7259 29.5232 29.2712 29.437 28.8109 29.3497L28.7405 29.3364C28.2563 29.2456 27.533 28.6059 27.7449 28.3941C27.8589 28.2801 28.0679 28.261 28.2888 28.2409C28.4783 28.2236 28.6766 28.2055 28.8313 28.126ZM36.4374 30.0792C36.4711 30.117 36.4967 30.1457 36.5215 30.1618C36.6123 30.2209 37.0056 29.4531 36.582 29.1632C36.1583 28.8733 34.7058 29.0364 34.7966 29.1632C34.8503 29.2382 35.0453 29.3141 35.2937 29.4107C35.4653 29.4775 35.6623 29.5542 35.8557 29.6474C36.1998 29.8131 36.3475 29.9785 36.4374 30.0792ZM23.0525 26.6394C22.9012 26.4578 20.4803 25.8223 20.1172 25.8526C18.7555 26.2762 17.6056 28.2129 17.6056 28.334C17.6056 28.3692 17.6081 28.4223 17.611 28.4821L17.611 28.4823C17.6181 28.6282 17.627 28.8143 17.6056 28.8787C16.2741 31.5719 16.2136 32.5705 16.2136 32.6915C16.2136 32.7377 16.2356 32.8148 16.2612 32.9042C16.3026 33.049 16.3533 33.2263 16.3346 33.3572C16.3044 33.5691 16.0623 35.3242 16.032 36.6859C16.0018 38.0476 16.3346 38.8042 16.4859 38.6831C16.6372 38.5621 17.0004 38.5621 17.0911 38.6831C17.2016 39.0059 17.3073 39.51 17.4236 40.0648C17.7215 41.4862 18.0893 43.2403 18.7857 43.1314C18.9976 43.0407 18.9068 42.0723 18.7857 41.7697C19.1792 41.9513 20.0567 43.4038 20.0567 43.4038C20.1475 45.0076 21.2066 46.1575 21.2066 46.1575C21.7513 46.6417 22.4473 46.5206 22.5986 46.4601C22.7802 46.1575 21.9934 45.6431 21.9934 45.6431C22.3616 45.4897 22.6675 45.6785 23.4514 46.1621C24.2079 46.6289 25.4096 47.3703 27.5419 48.3439C27.6574 49.3032 26.9853 50.7871 26.9853 50.7871C26.9853 50.7871 25.9261 48.8504 25.684 48.6991C25.442 48.5478 24.2315 48.0334 23.7776 48.1242L23.7619 48.1287C23.306 48.2617 22.9286 48.3717 22.779 48.8504C23.7494 48.4668 23.8783 49.1097 23.969 49.5618C23.9999 49.716 24.0264 49.848 24.0802 49.9095C24.2278 50.1063 24.3585 50.1628 24.4804 50.2156C24.5836 50.2602 24.6806 50.3022 24.7762 50.424C25.1199 50.8615 25.1999 51.2108 25.0788 51.816C25.0021 51.8083 24.8182 51.6059 24.5688 51.3313L24.5687 51.3313C23.8348 50.5233 22.5329 49.0902 21.7199 50.1516C20.6608 49.9095 20.1728 51.0292 20.2069 51.3015C20.3582 51.2108 21.266 51.2108 21.266 51.2108C21.266 51.2108 21.6291 51.9673 23.8381 52.7238C22.9001 52.7238 20.2976 53.5408 20.0556 54.3276C19.8135 55.1144 20.2069 56.113 20.6305 56.6577C20.6305 56.6577 20.6608 55.8104 20.8121 55.6893C20.8819 55.6335 21.042 55.6163 21.2299 55.5961C21.449 55.5726 21.7059 55.545 21.9015 55.4473C22.0346 55.3807 22.123 55.2572 22.2158 55.1274C22.3763 54.9033 22.55 54.6605 22.9908 54.6605H25.1999L23.475 56.6577C23.6868 58.9878 24.1408 59.593 24.2013 59.3509C24.2618 59.1088 24.4736 58.7759 24.4736 58.7759C24.4736 58.7759 24.9881 58.7154 25.1999 58.4431C25.6417 57.8224 25.791 57.3773 25.9172 57.001C26.154 56.2946 26.3097 55.8304 28.1654 54.9026C28.2221 54.9466 28.2984 55.0182 28.3887 55.1029C28.7322 55.4251 29.2774 55.9365 29.7087 55.8406L30.1626 57.2629C30.1626 57.2629 30.6771 57.0511 30.7981 56.0827C30.9191 55.1144 30.8284 54.2973 30.7073 53.8132C30.7073 53.8132 29.9508 52.9659 29.2245 52.633C29.2245 52.633 30.2232 51.9673 30.3745 52.0278C30.5258 52.0883 30.5258 52.4817 30.5258 52.9054C30.5258 53.329 31.8572 52.1488 31.8572 51.2108C31.8605 51.0897 32.3717 51.0292 32.4624 51.0897C32.5532 51.1502 32.7045 51.7857 32.765 52.2094C33.5678 52.0029 34.4054 50.5969 34.8429 49.8625L34.8429 49.8624C34.9826 49.628 35.0814 49.462 35.1254 49.4254C35.2247 49.3426 35.5142 49.2417 35.756 49.1673C42.564 48.7907 46.8677 42.5868 46.8677 42.5868C46.8677 42.5868 50.6523 38.1944 50.1448 30.5183L50.3193 29.6959L51.2271 30.0287C51.2271 30.0287 50.9245 30.1498 50.6824 30.9971C50.6824 32.7219 52.0441 32.7219 52.0441 32.7219C52.0441 32.7219 52.0139 31.0273 52.7099 31.0879C53.4059 31.1484 54.5255 32.5706 54.5255 32.5706L55.1307 32.7219C55.1307 32.7219 55.1729 33.0102 55.2518 33.1758C55.8034 33.1257 55.6744 32.5504 55.5582 32.0322C55.5341 31.9251 55.5107 31.8204 55.4939 31.7233C55.3572 30.9338 54.2532 30.0893 54.2532 30.0893C54.8281 29.7867 56.3109 29.8774 56.3109 29.8774C56.3109 29.8774 56.553 30.2406 56.8859 30.0893C57.2187 29.938 56.7472 29.0776 56.3109 28.667C55.7359 28.1828 55.282 28.1828 55.282 28.1828C55.282 27.6684 55.9175 27.0632 55.9175 27.0632C55.9175 27.0632 55.1648 26.7925 54.6768 26.8514C54.131 26.9171 53.4059 27.4566 53.4059 27.4566C53.4059 27.4566 53.194 26.6698 53.5269 25.1265C53.5269 25.1265 52.4358 25.4822 52.1349 26.0646V27.6684C52.1349 27.6684 50.0555 25.6679 48.9898 25.1284C48.9481 25.0631 48.9063 25.0113 48.8649 24.975C48.6439 24.7816 48.4859 24.4369 48.3219 24.0789C48.1266 23.6528 47.9229 23.2081 47.5939 22.9778C47.4744 22.8716 47.3549 22.5148 47.2328 22.1503C47.0767 21.6842 46.9164 21.2057 46.7466 21.2227C46.4546 21.0767 46.4844 22.1487 46.5143 23.2212C46.5401 24.1488 46.566 25.0768 46.3835 25.2171C46.2531 25.2986 46.2105 25.1606 46.1658 25.0159C46.1276 24.892 46.0878 24.7632 45.9901 24.7632C45.6573 24.7935 45.627 25.7013 45.6875 26.4881C45.7014 26.6681 45.7358 26.8814 45.772 27.1056C45.894 27.8608 46.0357 28.7386 45.4757 28.8787C45.4138 28.8663 45.3519 28.7628 45.2839 28.649C45.1855 28.4844 45.0741 28.2982 44.931 28.334C44.5986 28.5201 44.6167 29.226 44.6362 29.9898C44.6612 30.9647 44.6886 32.034 43.9929 32.2376C43.8501 32.1424 43.8321 31.9224 43.8167 31.7346C43.8028 31.5643 43.7911 31.4206 43.6903 31.4206C43.1046 31.4004 42.989 32.9843 42.906 34.121V34.121C42.8647 34.6874 42.8315 35.1428 42.7522 35.2334C42.5139 35.5057 41.9957 35.657 41.8141 35.536C41.7301 35.48 41.7239 35.2556 41.7174 35.0246C41.7099 34.7563 41.7021 34.4791 41.5721 34.4466C41.33 34.3861 40.5129 36.111 40.4221 36.7162C40.3913 36.922 40.3849 37.0753 40.3792 37.2118C40.3682 37.4768 40.3598 37.6785 40.1801 38.0779C40.1759 38.0883 40.1718 38.099 40.1675 38.1102C40.1094 38.2614 40.028 38.4734 39.6051 38.5016C39.5129 38.5169 39.4129 38.6961 39.321 38.8609C39.2319 39.0206 39.1503 39.1668 39.0907 39.137C38.8172 38.9547 38.8641 38.5283 38.9059 38.1488C38.9473 37.7725 38.9836 37.4424 38.6973 37.4424C38.3039 37.3819 37.3053 38.5016 36.8211 39.137C36.6647 39.3423 36.4325 39.6992 36.1694 40.1036L36.1691 40.104L36.1689 40.1044L36.1688 40.1045C35.6176 40.9517 34.9309 42.0072 34.5213 42.3144C34.5213 42.3144 32.5241 43.8274 30.3453 41.6487C28.6051 39.9084 28.1583 37.8979 27.9873 37.1282C27.9442 36.9343 27.9186 36.8191 27.8942 36.807C27.8484 36.784 27.642 36.8523 27.3687 36.9426L27.3686 36.9426C26.9202 37.0908 26.2918 37.2985 25.897 37.2609C25.2615 37.2003 23.688 36.0504 23.2038 33.9927C23.1805 33.9227 23.0666 33.9057 22.9201 33.8839C22.6867 33.8492 22.3704 33.8021 22.2052 33.5085C21.8749 32.9215 22.0842 31.4206 22.0842 31.4206C22.0842 31.4206 22.0842 30.9364 21.0856 30.0891C21.0856 30.0891 22.6289 28.334 22.4473 27.5774C22.4473 27.5774 23.2038 26.8209 23.0525 26.6394ZM16.3349 24.0976C16.4257 24.0673 18.3926 25.187 18.4229 25.308C16.7283 27.275 15.185 30.876 15.185 30.876C14.6706 32.6008 13.3996 36.2624 12.7944 36.6255C11.4629 37.9267 9.61703 37.5031 9.61703 37.5031C7.68035 36.7768 7.9527 35.748 8.07374 35.7782C8.36584 35.7936 8.62671 35.9261 8.86823 36.0488C9.1021 36.1677 9.31784 36.2773 9.52625 36.2624C9.9499 36.2321 10.4341 36.1111 10.4341 36.0203C10.4341 35.9844 10.1887 35.9392 9.862 35.8789C9.36126 35.7864 8.66934 35.6587 8.37635 35.4756C7.89217 35.173 7.1054 34.598 7.01461 33.3876C6.92383 32.1772 7.19618 31.572 7.37774 31.1786C7.55931 30.7852 8.01322 30.301 8.19478 30.3615C8.37635 30.4221 8.37635 30.9062 8.37635 30.9062C8.37635 30.9062 8.40661 32.389 8.86052 32.8127C8.91198 32.8607 8.96733 32.9142 9.02621 32.9711C9.48674 33.416 10.1636 34.0699 10.888 33.9626C11.705 33.8415 12.4918 33.6902 12.4615 33.4481C12.445 33.316 12.0496 33.3281 11.6054 33.3418H11.6053C11.2359 33.3531 10.8327 33.3655 10.5854 33.2968C10.0407 33.1455 8.89078 32.4193 8.86052 31.3601C8.83026 30.301 9.49599 29.605 9.70782 29.6655C9.77312 29.6842 9.84993 29.7777 9.95687 29.9077L9.95688 29.9078C10.1968 30.1996 10.5884 30.676 11.3419 30.9062C11.3419 30.9062 12.8852 30.9062 12.7944 30.5431C12.7482 30.3582 12.3174 30.3302 11.8417 30.2993C11.3834 30.2696 10.8835 30.2371 10.6459 30.0589C10.1617 29.6958 10.313 28.8485 10.4341 28.8182C10.4857 28.8053 10.5539 28.8751 10.634 28.957C10.7414 29.0669 10.8703 29.1987 11.009 29.1814C11.1027 29.1697 11.1601 29.0356 11.2287 28.8756C11.3372 28.6222 11.4736 28.3038 11.8261 28.3038C12.2497 28.3038 12.7944 28.4854 12.976 29.1511C13.0989 29.6076 13.0893 30.0233 13.0833 30.286C13.079 30.4761 13.0765 30.5861 13.1273 30.5734C13.6546 30.3337 14.2073 28.8788 14.7763 27.3808C15.2849 26.0421 15.8065 24.6688 16.3349 24.0976ZM20.8142 17.3492C20.8747 17.4702 20.0274 18.6807 19.1801 19.3767C20.2071 20.281 21.9871 20.6341 23.9422 21.0219L23.9422 21.0219L23.9422 21.0219C25.8469 21.3998 27.9177 21.8105 29.6201 22.7961C32.6461 21.2831 36.6103 21.858 39.243 24.0671C39.3211 24.18 39.3345 24.041 39.3589 23.7869C39.4195 23.1559 39.5482 21.8149 40.9073 21.858C41.8151 21.9619 41.9406 23.3408 41.9967 24.4302C42.0498 25.4612 41.9059 26.5182 41.2704 26.9721C41.7708 28.4942 41.7541 30.7346 41.7447 31.9808C41.7405 32.5433 41.7378 32.9032 41.7849 32.9032C41.867 32.9032 41.9938 32.629 42.1507 32.2899C42.2827 32.0045 42.436 31.673 42.6019 31.4204C42.7587 31.1815 42.9182 31.0098 43.0725 30.8436C43.2731 30.6277 43.4649 30.4212 43.6308 30.0889C43.798 29.7539 43.8392 29.4651 43.8811 29.1706C43.9184 28.9084 43.9564 28.6417 44.0847 28.3338C44.1811 28.1026 44.294 27.9352 44.4048 27.7711C44.5325 27.5818 44.6573 27.3969 44.7504 27.1234C44.8785 26.7468 44.8583 26.4323 44.8379 26.1142C44.8188 25.8161 44.7995 25.5148 44.9017 25.1565C44.9836 24.8695 45.1286 24.6098 45.257 24.3798C45.3744 24.1695 45.478 23.984 45.5069 23.825C45.5674 23.4921 45.9608 20.4963 45.9003 19.6793C45.749 19.1346 44.2662 16.5927 43.6308 16.8045C43.4238 16.8907 43.5314 17.1342 43.6342 17.3669C43.7117 17.5425 43.7866 17.712 43.7215 17.8031C43.5702 18.0149 42.9348 16.9255 42.5716 16.1993C42.5716 16.1993 41.8756 15.473 41.3007 15.6243C41.1608 15.6663 41.286 15.8376 41.4402 16.0485C41.6196 16.2939 41.8382 16.593 41.7243 16.8045C41.3233 16.8904 40.7055 16.2173 40.0503 15.5035L39.939 15.3822C39.8408 15.2756 39.7494 15.1744 39.6633 15.0792L39.6632 15.0791C39.1388 14.4988 38.8158 14.1415 38.4259 14.1416C38.2796 14.2147 38.3765 14.5755 38.4627 14.8962C38.5191 15.1059 38.5709 15.2985 38.547 15.3822C38.547 15.3822 37.3971 15.2612 37.0037 14.2626C36.8221 13.9902 35.884 13.2337 34.9762 13.2337C34.7039 13.264 34.7039 13.6271 35.2485 14.3231C34.4618 14.3534 33.675 13.8692 33.1606 13.385C32.7672 13.143 31.3752 12.7496 31.0423 13.0219C30.8364 13.1904 31.1517 13.3473 31.4149 13.4783C31.5771 13.5591 31.7196 13.63 31.708 13.6876C31.6778 13.8389 30.423 14.0205 30.2555 13.8692C29.3174 13.0219 26.9874 13.2943 26.9269 13.6271C26.8928 13.8146 27.1467 13.8965 27.375 13.9701C27.552 14.0272 27.7136 14.0793 27.7136 14.1718C27.7136 14.3836 26.9874 14.6257 26.5032 14.5652C26.2858 14.538 26.0927 14.4559 25.8994 14.3737C25.6623 14.2728 25.4249 14.1718 25.1415 14.1718C24.627 14.1718 23.6284 14.4744 23.5982 14.7468C23.58 14.9102 23.8887 14.9102 24.1516 14.9102C24.3269 14.9102 24.4818 14.9102 24.506 14.9586C24.5665 15.0796 24.2034 15.6849 23.0535 15.9875C22.9645 16.0394 22.7245 16.0459 22.4178 16.0541C21.4736 16.0795 19.8972 16.122 20.1485 17.561C20.212 17.6246 20.3759 17.5295 20.5258 17.4425C20.6613 17.3638 20.7855 17.2917 20.8142 17.3492Z" fill="url(#paint0_linear)"/>
<defs>
<linearGradient id="paint0_linear" x1="32.5" y1="0" x2="32.5" y2="65" gradientUnits="userSpaceOnUse">
<stop offset="0.0110497" stop-color="#FFE231"/>
<stop offset="1" stop-color="#EE8707"/>
</linearGradient>
</defs>
</svg>
