<svg width="65" height="65" viewBox="0 0 65 65" fill="none" xmlns="http://www.w3.org/2000/svg">
<path fill-rule="evenodd" clip-rule="evenodd" d="M32.5 0C14.5506 0 0 14.5508 0 32.5C0 50.4494 14.5506 65 32.5 65C50.4492 65 65 50.4494 65 32.5C65 14.5508 50.4492 0 32.5 0ZM8.81348 26.1152H13.9639C14.9834 26.1152 15.7436 26.1577 16.2446 26.2427C16.7456 26.3276 17.1938 26.5049 17.5894 26.7744C17.9849 27.0439 18.3145 27.4028 18.5781 27.8511C18.8418 28.2993 18.9736 28.8018 18.9736 29.3584C18.9736 29.9619 18.811 30.5156 18.4858 31.0195C18.1606 31.5234 17.7197 31.9014 17.1631 32.1533C17.9482 32.3818 18.5518 32.7715 18.9736 33.3223C19.3955 33.8731 19.6064 34.5205 19.6064 35.2646C19.6064 35.8506 19.4702 36.4204 19.1978 36.9741C18.9253 37.5278 18.5532 37.9702 18.0815 38.3013C17.6099 38.6323 17.0283 38.8359 16.3369 38.9121C15.9033 38.959 14.8574 38.9883 13.1992 39H8.81348V26.1152ZM11.415 28.2598V31.2393H13.1201C14.1338 31.2393 14.7637 31.2246 15.0098 31.1953C15.4551 31.1426 15.8052 30.9888 16.0601 30.7339C16.3149 30.479 16.4424 30.1436 16.4424 29.7275C16.4424 29.3291 16.3325 29.0054 16.1128 28.7563C15.8931 28.5073 15.5664 28.3564 15.1328 28.3037C14.875 28.2744 14.1338 28.2598 12.9092 28.2598H11.415ZM11.415 33.3838V36.8291H13.8232C14.7607 36.8291 15.3555 36.8027 15.6074 36.75C15.9941 36.6797 16.3091 36.5083 16.5522 36.2358C16.7954 35.9634 16.917 35.5986 16.917 35.1416C16.917 34.7549 16.8232 34.4268 16.6357 34.1572C16.4482 33.8877 16.1772 33.6914 15.8228 33.5684C15.4683 33.4453 14.6992 33.3838 13.5156 33.3838H11.415ZM21.8037 39V26.1152H31.3574V28.2949H24.4053V31.1514H30.874V33.3223H24.4053V36.8291H31.6035V39H21.8037ZM33.8096 39V26.1152H43.3633V28.2949H36.4111V31.1514H42.8799V33.3223H36.4111V36.8291H43.6094V39H33.8096ZM45.8242 39V26.1152H51.2998C52.6768 26.1152 53.6772 26.231 54.3013 26.4624C54.9253 26.6938 55.4248 27.1055 55.7998 27.6973C56.1748 28.2891 56.3623 28.9658 56.3623 29.7275C56.3623 30.6943 56.0781 31.4927 55.5098 32.1226C54.9414 32.7524 54.0918 33.1494 52.9609 33.3135C53.5234 33.6416 53.9878 34.0019 54.354 34.3945C54.7202 34.7871 55.2139 35.4844 55.835 36.4863L57.4082 39H54.2969L52.416 36.1963C51.748 35.1943 51.291 34.563 51.0449 34.3022C50.7988 34.0415 50.5381 33.8628 50.2627 33.7661C49.9873 33.6694 49.5508 33.6211 48.9531 33.6211H48.4258V39H45.8242ZM48.4258 31.5645H50.3506C51.5986 31.5645 52.3779 31.5117 52.6885 31.4062C52.999 31.3008 53.2422 31.1191 53.418 30.8613C53.5938 30.6035 53.6816 30.2813 53.6816 29.8945C53.6816 29.4609 53.5659 29.1108 53.3345 28.8442C53.103 28.5776 52.7764 28.4092 52.3545 28.3389C52.1436 28.3096 51.5107 28.2949 50.4561 28.2949H48.4258V31.5645Z" fill="url(#paint0_linear)"/>
<defs>
<linearGradient id="paint0_linear" x2="1" gradientUnits="userSpaceOnUse" gradientTransform="translate(32.5) scale(65) rotate(90)">
<stop stop-color="white"/>
<stop offset="1" stop-color="#8785FF"/>
</linearGradient>
</defs>
</svg>
