<svg width="65" height="65" viewBox="0 0 65 65" fill="none" xmlns="http://www.w3.org/2000/svg">
<path fill-rule="evenodd" clip-rule="evenodd" d="M32.5 0C14.5506 0 0 14.5508 0 32.5C0 50.4494 14.5506 65 32.5 65C50.4492 65 65 50.4494 65 32.5C65 14.5508 50.4492 0 32.5 0ZM15.9533 27.994C16.4798 27.994 16.9066 27.193 16.9066 26.2048C16.9066 25.2166 16.4798 24.4155 15.9533 24.4155C15.4267 24.4155 14.9999 25.2166 14.9999 26.2048C14.9999 27.193 15.4267 27.994 15.9533 27.994ZM15.9533 40.3346C16.4798 40.3346 16.9066 39.5335 16.9066 38.5454C16.9066 37.5572 16.4798 36.7561 15.9533 36.7561C15.4267 36.7561 14.9999 37.5572 14.9999 38.5454C14.9999 39.5335 15.4267 40.3346 15.9533 40.3346ZM21.3492 34.0365C21.967 34.0365 22.4679 33.094 22.4679 31.9313C22.4679 30.7687 21.967 29.8262 21.3492 29.8262C20.7313 29.8262 20.2305 30.7687 20.2305 31.9313C20.2305 33.094 20.7313 34.0365 21.3492 34.0365ZM48.0459 21.5837L32.9009 18.0002C32.1885 18.0209 31.6272 18.6141 31.6457 19.3265V45.485C31.6406 45.8329 31.5116 46.1677 31.2819 46.4292C31.0336 46.6543 30.7219 46.7972 30.3898 46.8394C30.7731 47.0441 31.2082 47.1312 31.6408 47.0899C32.6983 46.9154 34.5959 46.4383 34.5959 46.4383H34.5727L47.8988 43.2897C49.3152 42.9689 49.9998 42.1942 49.9998 40.9292V23.6649C50.0097 22.4428 49.4615 21.8947 48.0459 21.5837ZM37.14 43.3698C36.4132 43.3698 35.8236 42.2603 35.8236 40.896C35.8236 39.5317 36.4132 38.4221 37.1407 38.4221C37.8676 38.4221 38.4579 39.5317 38.4579 40.896C38.4579 42.261 37.8669 43.3698 37.1407 43.3698H37.14ZM37.14 26.3278C36.4132 26.3278 35.8236 25.2183 35.8236 23.854C35.8236 22.489 36.4132 21.3801 37.1407 21.3801C37.8676 21.3801 38.4579 22.4897 38.4579 23.854C38.4579 25.2183 37.8669 26.3278 37.1407 26.3278H37.14ZM47.1017 40.3388C46.5726 40.3388 46.1575 39.5367 46.1575 38.5502C46.1575 37.5631 46.5824 36.761 47.1017 36.761C47.621 36.761 48.0459 37.5631 48.0459 38.5502C48.0459 39.5367 47.635 40.3388 47.1017 40.3388ZM47.1017 27.9989C46.5726 27.9989 46.1575 27.1968 46.1575 26.2097C46.1575 25.2232 46.5824 24.4204 47.1017 24.4204C47.621 24.4204 48.0459 25.2225 48.0459 26.2097C48.0459 27.1961 47.635 27.994 47.1017 27.994V27.9989ZM27.7605 26.3278C28.4852 26.3278 29.0727 25.2203 29.0727 23.854C29.0727 22.4877 28.4852 21.3801 27.7605 21.3801C27.0357 21.3801 26.4482 22.4877 26.4482 23.854C26.4482 25.2203 27.0357 26.3278 27.7605 26.3278ZM27.7605 43.3698C28.4852 43.3698 29.0727 42.2622 29.0727 40.896C29.0727 39.5297 28.4852 38.4221 27.7605 38.4221C27.0357 38.4221 26.4482 39.5297 26.4482 40.896C26.4482 42.2622 27.0357 43.3698 27.7605 43.3698Z" fill="url(#paint0_linear)"/>
<defs>
<linearGradient id="paint0_linear" x2="1" gradientUnits="userSpaceOnUse" gradientTransform="translate(32.5) scale(65) rotate(90)">
<stop stop-color="#EC8150"/>
<stop offset="1" stop-color="#EE9828"/>
</linearGradient>
</defs>
</svg>
