<svg width="65" height="65" viewBox="0 0 65 65" fill="none" xmlns="http://www.w3.org/2000/svg">
<path fill-rule="evenodd" clip-rule="evenodd" d="M32.5 0C14.5505 0 0 14.5508 0 32.5C0 50.4494 14.5505 65 32.5 65C50.4492 65 65 50.4494 65 32.5C65 14.5508 50.4492 0 32.5 0ZM35.3696 31.8436C35.4835 31.5436 35.5458 31.2184 35.5458 30.8785C35.5458 29.5401 34.5792 28.4276 33.306 28.2007L33.3412 14.644C33.8202 14.5224 34.2393 14.2507 34.5454 13.8818L48.0739 21.6914C48.0568 21.8045 48.048 21.9202 48.048 22.038C48.048 23.1454 48.83 24.07 49.8717 24.29L49.8311 39.9869C49.4137 40.083 49.0396 40.2927 48.7432 40.5816L35.3696 31.8436ZM35.075 12.4129C35.075 12.5957 35.0537 12.7735 35.0134 12.944L48.4686 20.7112C48.8854 20.1215 49.5725 19.7364 50.3496 19.7364C51.6208 19.7364 52.6512 20.7669 52.6512 22.038C52.6512 23.1131 51.9143 24.0159 50.918 24.269L50.8772 39.989C51.894 40.2275 52.6512 41.1403 52.6512 42.2299C52.6512 43.5011 51.6208 44.5315 50.3496 44.5315C49.6714 44.5315 49.0616 44.2382 48.6404 43.7714L34.8992 51.7037C35.0123 51.9758 35.075 52.2743 35.075 52.5874C35.075 53.8585 34.0446 54.889 32.7733 54.889C31.5022 54.889 30.4717 53.8585 30.4717 52.5874C30.4717 52.283 30.5308 51.9924 30.6381 51.7264L16.9572 43.8288C16.5386 44.2621 15.9515 44.5315 15.3015 44.5315C14.0304 44.5315 12.9999 43.5011 12.9999 42.2299C12.9999 41.1574 13.7335 40.2562 14.7262 40.0007V24.2672C13.7335 24.0117 12.9999 23.1105 12.9999 22.038C12.9999 20.7669 14.0304 19.7364 15.3015 19.7364C16.0648 19.7364 16.7413 20.1079 17.16 20.68L30.5366 12.9581C30.4941 12.7833 30.4717 12.6007 30.4717 12.4129C30.4717 11.1417 31.5022 10.1112 32.7733 10.1112C34.0446 10.1112 35.075 11.1417 35.075 12.4129ZM34.2841 50.8508L48.134 42.8557C48.078 42.6567 48.048 42.4468 48.048 42.2299C48.048 41.9609 48.0941 41.7027 48.179 41.4627L34.8165 32.732C34.3199 33.2652 33.6117 33.5986 32.8256 33.5986C31.9474 33.5986 31.1664 33.1824 30.6691 32.5365L17.5015 41.5514C17.5675 41.7658 17.6031 41.9937 17.6031 42.2299C17.6031 42.4744 17.5649 42.7099 17.4944 42.931L31.2434 50.8678C31.65 50.5057 32.186 50.2857 32.7733 50.2857C33.3514 50.2857 33.8798 50.4988 34.2841 50.8508ZM17.5707 21.6509C17.592 21.7768 17.6031 21.9061 17.6031 22.038C17.6031 23.1478 16.8177 24.0741 15.7725 24.2915V39.9764C16.2397 40.0736 16.6552 40.3125 16.9717 40.6461L30.1995 31.59C30.1382 31.3632 30.1055 31.1247 30.1055 30.8785C30.1055 29.5702 31.0291 28.4777 32.2598 28.2173L32.2949 14.6648C31.7834 14.5566 31.3347 14.2787 31.0104 13.8927L17.5707 21.6509Z" fill="url(#paint0_linear)"/>
<defs>
<linearGradient id="paint0_linear" x2="1" gradientUnits="userSpaceOnUse" gradientTransform="translate(32.5) scale(65) rotate(90)">
<stop stop-color="white"/>
<stop offset="1" stop-color="#8785FF"/>
</linearGradient>
</defs>
</svg>
