<svg width="65" height="65" viewBox="0 0 65 65" fill="none" xmlns="http://www.w3.org/2000/svg">
<path fill-rule="evenodd" clip-rule="evenodd" d="M32.5 0C14.5506 0 0 14.5508 0 32.5C0 50.4494 14.5506 65 32.5 65C50.4492 65 65 50.4494 65 32.5C65 14.5508 50.4492 0 32.5 0ZM13.3046 25.6838H19.0272C20.16 25.6838 21.0048 25.731 21.5614 25.8254C22.118 25.9198 22.6161 26.1168 23.0555 26.4163C23.495 26.7157 23.8612 27.1145 24.1542 27.6125C24.4471 28.1106 24.5936 28.6689 24.5936 29.2874C24.5936 29.9579 24.413 30.5732 24.0516 31.1331C23.6903 31.693 23.2004 32.1129 22.5819 32.3928C23.4543 32.6467 24.1249 33.0797 24.5936 33.6917C25.0624 34.3036 25.2968 35.023 25.2968 35.8499C25.2968 36.5009 25.1454 37.134 24.8427 37.7493C24.5399 38.3645 24.1265 38.856 23.6024 39.2239C23.0783 39.5917 22.4322 39.818 21.6639 39.9026C21.1822 39.9547 20.0201 39.9872 18.1776 40.0002H13.3046V25.6838ZM16.1952 28.0667V31.3772H18.0897C19.216 31.3772 19.9159 31.3609 20.1893 31.3284C20.6841 31.2698 21.0731 31.0989 21.3563 30.8157C21.6395 30.5325 21.7811 30.1598 21.7811 29.6975C21.7811 29.2548 21.6591 28.8951 21.4149 28.6184C21.1708 28.3417 20.8078 28.1741 20.326 28.1155C20.0396 28.0829 19.216 28.0667 17.8553 28.0667H16.1952ZM16.1952 33.76V37.5881H18.871C19.9126 37.5881 20.5734 37.5588 20.8534 37.5002C21.2831 37.4221 21.633 37.2317 21.9032 36.929C22.1734 36.6262 22.3085 36.221 22.3085 35.7131C22.3085 35.2834 22.2043 34.9189 21.996 34.6194C21.7876 34.3199 21.4865 34.1018 21.0927 33.9651C20.6988 33.8284 19.8443 33.76 18.5292 33.76H16.1952ZM27.6991 40.0002V25.6838H32.0253L34.6229 35.4495L37.1913 25.6838H41.5272V40.0002H38.8417V28.7307L35.9999 40.0002H33.2167L30.3846 28.7307V40.0002H27.6991ZM47.621 40.0002V28.1057H43.3729V25.6838H54.7499V28.1057H50.5116V40.0002H47.621Z" fill="url(#paint0_linear)"/>
<defs>
<linearGradient id="paint0_linear" x2="1" gradientUnits="userSpaceOnUse" gradientTransform="translate(32.5) scale(65) rotate(90)">
<stop stop-color="#ACACAC"/>
<stop offset="1" stop-color="#555555"/>
</linearGradient>
</defs>
</svg>
