<svg width="65" height="65" viewBox="0 0 65 65" fill="none" xmlns="http://www.w3.org/2000/svg">
<path fill-rule="evenodd" clip-rule="evenodd" d="M32.5 0C14.5505 0 0 14.5508 0 32.5C0 50.4495 14.5505 65 32.5 65C50.4492 65 65 50.4495 65 32.5C65 14.5508 50.4492 0 32.5 0ZM51.9476 31.062C49.9918 23.6582 43.2483 18.2002 35.23 18.2002C25.6809 18.2002 17.9399 25.9412 17.9399 35.4902C17.9399 42.9604 22.6774 49.3242 29.3119 51.741C20.0588 50.2192 12.9999 42.1841 12.9999 32.5002C12.9999 21.7307 21.7303 13.0002 32.4999 13.0002C42.7858 13.0002 51.2115 20.9641 51.9476 31.062ZM22.6718 41.1082C22.6375 40.7134 22.6199 40.3137 22.6199 39.9102C22.6199 32.3716 28.7312 26.2603 36.2699 26.2603C41.9066 26.2603 46.7454 29.677 48.8281 34.5522C48.2214 27.5747 42.3651 22.1001 35.23 22.1001C27.6913 22.1001 21.58 28.2114 21.58 35.75C21.58 37.6521 21.969 39.4631 22.6718 41.1082ZM38.8485 49.735H29.9998V31.2026H38.6174C42.2648 31.2026 44.4609 32.9621 44.4609 35.8261C44.4609 37.9066 42.8941 39.5634 40.8392 39.8459V39.9487C43.3436 40.0643 45.3214 41.9265 45.3214 44.3923C45.3214 47.6416 42.817 49.735 38.8485 49.735ZM34.7131 34.5417V38.7542H37.1404C38.8486 38.7542 39.876 37.9451 39.876 36.6095C39.876 35.3123 38.9513 34.5417 37.3716 34.5417H34.7131ZM34.7131 46.3957H37.5129C39.4522 46.3957 40.531 45.5481 40.531 43.9813C40.531 42.4658 39.4265 41.6182 37.4872 41.6182H34.7131V46.3957Z" fill="url(#paint0_linear)"/>
<defs>
<linearGradient id="paint0_linear" x2="1" gradientUnits="userSpaceOnUse" gradientTransform="translate(32.5 2.01182) scale(62.9882) rotate(90)">
<stop stop-color="#70D463"/>
<stop offset="1" stop-color="#2AA000"/>
</linearGradient>
</defs>
</svg>
