<svg width="65" height="65" viewBox="0 0 65 65" fill="none" xmlns="http://www.w3.org/2000/svg">
<path fill-rule="evenodd" clip-rule="evenodd" d="M65 32.5C65 50.4492 50.4492 65 32.5 65C14.5508 65 0 50.4492 0 32.5C0 14.5508 14.5508 0 32.5 0C50.4492 0 65 14.5508 65 32.5ZM32.5085 10C20.0664 10 10 20.0797 10 32.5C10 44.9203 20.0664 55 32.5085 55C44.9507 55 55 44.9203 55 32.5C55 20.0797 44.9336 10 32.5085 10ZM32.5085 49.8235C22.9377 49.8235 15.1785 42.0671 15.1785 32.5C15.1785 22.9329 22.9377 15.1765 32.5085 15.1765C42.0793 15.1765 49.8215 22.9329 49.8215 32.5C49.8215 42.0671 42.0623 49.8235 32.5085 49.8235ZM31.6882 40.6663H33.2263V42.9214H35.4309V40.6661H36.2512C38.9001 40.6661 41.0537 38.4794 41.0537 35.8313C41.0537 34.1445 40.1797 32.6589 38.8608 31.8025C39.4973 30.9791 39.8745 29.944 39.8745 28.8268C39.8745 26.2993 37.9131 24.2233 35.4309 24.0393V21.6855H33.2263V24.0261H31.6882V21.6855H29.4836V24.0261H24.2024L25.5525 26.7255H27.1079V37.9669H25.5693L24.2192 40.6661L27.1079 40.6663H29.4836V42.9214H31.6882V40.6663ZM36.2512 37.9669H29.8083V33.73H36.2512C37.4133 33.73 38.3704 34.6866 38.3704 35.8484C38.3704 37.0101 37.4133 37.9669 36.2512 37.9669ZM35.0891 30.9624H29.8083V26.7255H35.0891C36.2515 26.7255 37.2085 27.6821 37.2085 28.8439C37.2085 30.0056 36.2515 30.9624 35.0891 30.9624ZM17.1782 32.4999C17.1782 40.9567 24.0488 47.8245 32.5085 47.8245C40.9514 47.8245 47.8391 40.9567 47.8391 32.4999C47.8391 24.0432 40.9685 17.1753 32.5085 17.1753C24.0488 17.1753 17.1782 24.0432 17.1782 32.4999ZM18.7163 32.4999C18.7163 24.8973 24.9033 18.7129 32.5085 18.7129C40.114 18.7129 46.3008 24.8973 46.3008 32.4999C46.3008 40.1024 40.114 46.2869 32.5085 46.2869C24.9033 46.2869 18.7163 40.1024 18.7163 32.4999Z" fill="url(#paint0_linear)"/>
<defs>
<linearGradient id="paint0_linear" x1="32.5" y1="0" x2="32.5" y2="65" gradientUnits="userSpaceOnUse">
<stop offset="0.0110497" stop-color="#FFE231"/>
<stop offset="1" stop-color="#EE8707"/>
</linearGradient>
</defs>
</svg>
