<svg width="65" height="65" viewBox="0 0 65 65" fill="none" xmlns="http://www.w3.org/2000/svg">
<path fill-rule="evenodd" clip-rule="evenodd" d="M39.2111 40.9582L35.3884 37.1355L46.0463 26.4776L44.4522 20.5429L40.4089 19.4626L35.3884 14.4421L36.9012 12.9246L48.8693 16.1303L52.0753 28.0987L39.2111 40.9582ZM48.8693 48.8696L36.9012 52.0753L24.0417 39.2111L27.8644 35.3887L38.5176 46.0419L44.4522 44.4522L45.5375 40.4089L50.5577 35.3887L52.0752 36.9012L48.8693 48.8696ZM28.0987 52.0752L16.1351 48.8648L12.9247 36.9011L15.3336 34.4969L25.7886 24.0369L29.6113 27.8643L18.9581 38.5177L20.5477 44.4521L24.5911 45.533L29.6113 50.5577L28.0987 52.0752ZM16.1351 16.1303L28.0987 12.9246L30.5029 15.3335L40.9582 25.7841L37.1353 29.6115L26.4821 18.958L20.543 20.5476L19.4624 24.5866L14.4422 29.6115L12.9247 28.0987L16.1351 16.1303ZM32.4999 0C14.5508 0 0 14.5506 0 32.5C0 50.4492 14.5508 65 32.4999 65C50.449 65 65 50.4492 65 32.5C65 14.5506 50.449 0 32.4999 0Z" fill="url(#paint0_linear)"/>
<defs>
<linearGradient id="paint0_linear" x2="1" gradientUnits="userSpaceOnUse" gradientTransform="translate(32.5) scale(65) rotate(90)">
<stop stop-color="#DBDBDB"/>
<stop offset="1" stop-color="#797979"/>
</linearGradient>
</defs>
</svg>
