<svg width="65" height="65" viewBox="0 0 65 65" fill="none" xmlns="http://www.w3.org/2000/svg">
<path fill-rule="evenodd" clip-rule="evenodd" d="M32.5 65C50.4493 65 65 50.4493 65 32.5C65 14.5507 50.4493 0 32.5 0C14.5507 0 0 14.5507 0 32.5C0 50.4493 14.5507 65 32.5 65ZM53.1185 32.9022C53.1185 37.994 51.2779 42.6591 48.221 46.2777C46.7633 46.4546 45.0038 46.627 42.902 46.7949C31.3983 47.7141 27.1586 42.2185 27.1589 38.1361C27.1592 34.4532 30.0899 31.3321 34.0153 31.3321C36.6724 31.3321 38.745 32.7371 39.8069 34.7874L42.6826 33.2387C40.9736 30.182 37.7333 28.0871 34.0151 28.0871C28.2579 28.0871 23.8091 32.6705 23.8091 38.1703C23.8091 43.1606 28.3625 51.2202 43.1744 49.86C43.6507 49.8162 44.0984 49.7692 44.5186 49.7191C44.435 49.7799 44.3509 49.8401 44.2664 49.8996C43.0461 50.2123 41.3658 50.3833 39.0912 50.3833C29.3562 50.3833 22.8061 44.8878 22.8061 38.0814C22.8061 32.0415 27.7024 26.9673 33.7424 26.9673C35.2231 26.9673 36.6457 27.2722 37.9498 27.8215L39.3842 24.7801C37.7083 24.0791 35.8776 23.6906 33.9623 23.6906C26.4779 23.6906 19.4122 29.6576 19.4122 37.6127C19.4122 43.2481 22.9497 52.7852 38.2192 52.843C37.9709 52.9176 37.7208 52.9877 37.4688 53.0533C37.1115 53.0875 36.7452 53.105 36.37 53.105C24.8031 53.105 18.3131 45.6729 18.3131 37.1417C18.3131 29.7096 25.0125 22.8009 33.596 22.8009L33.6477 22.801V19.5035C23.3848 19.5037 14.7538 28.1395 14.7538 38.0314C14.7538 44.3795 18.5043 49.3912 23.9997 52.1121C16.4464 48.9589 11.1429 41.5453 11.1429 32.9022C11.1429 21.3977 20.5394 12.0714 32.1307 12.0714C43.7219 12.0714 53.1185 21.3977 53.1185 32.9022Z" fill="url(#paint0_linear)"/>
<defs>
<linearGradient id="paint0_linear" x1="32.5" y1="0" x2="32.5" y2="65" gradientUnits="userSpaceOnUse">
<stop stop-color="#B030EC"/>
<stop offset="1" stop-color="#673399"/>
</linearGradient>
</defs>
</svg>
