<svg width="65" height="65" viewBox="0 0 65 65" fill="none" xmlns="http://www.w3.org/2000/svg">
<path fill-rule="evenodd" clip-rule="evenodd" d="M32.5 65C50.4493 65 65 50.4493 65 32.5C65 14.5507 50.4493 0 32.5 0C14.5507 0 0 14.5507 0 32.5C0 50.4493 14.5507 65 32.5 65ZM35.8264 11.5421C35.8761 11.3302 35.9023 11.1093 35.9023 10.8823C35.9023 9.29042 34.6118 7.99995 33.02 7.99995C31.4281 7.99995 30.1376 9.29042 30.1376 10.8823C30.1376 11.1092 30.1638 11.33 30.2134 11.5418L24.8057 14.6639C24.1883 13.4952 22.8342 12.7683 21.4891 13.0055C19.8333 13.2974 18.6643 14.967 18.9562 16.6228C19.0315 17.05 19.209 17.4219 19.4419 17.7607L16.0981 19.6912C15.6028 19.2896 14.9716 19.049 14.2842 19.049C12.6923 19.049 11.4018 20.3394 11.4018 21.9313C11.4018 23.239 12.2727 24.3434 13.4662 24.6959V30.7081C12.126 30.6325 10.7884 31.4465 10.3146 32.7484C9.73951 34.3284 10.6009 36.1756 12.1808 36.7506C12.6073 36.9059 13.0373 36.934 13.4662 36.8941V40.7843C12.2727 41.1369 11.4018 42.2412 11.4018 43.5489C11.4018 45.1408 12.6923 46.4313 14.2842 46.4313C15.1278 46.4313 15.8868 46.0688 16.414 45.4911L21.7394 48.5657C21.1186 49.6713 21.195 51.1302 22.0392 52.1363C23.12 53.4243 25.1503 53.6019 26.4383 52.5212C26.7295 52.2769 26.9447 51.9859 27.1125 51.6679L30.2134 53.4582C30.1638 53.67 30.1376 53.8908 30.1376 54.1177C30.1376 55.7095 31.4281 57 33.02 57C34.6118 57 35.9023 55.7095 35.9023 54.1177C35.9023 53.8906 35.8761 53.6698 35.8264 53.4579L41.1331 50.3941C41.7914 51.4498 43.0696 52.0856 44.3399 51.8616C45.9957 51.5697 47.1647 49.9001 46.8727 48.2443C46.8109 47.8936 46.6803 47.5802 46.5066 47.2917L49.941 45.3088C50.4363 45.7104 51.0675 45.951 51.7548 45.951C53.3467 45.951 54.6372 44.6605 54.6372 43.0687C54.6372 41.761 53.7664 40.6568 52.5731 40.3041V34.3939C53.8556 34.3958 55.1027 33.5963 55.5568 32.3488C56.1319 30.7688 55.2705 28.9216 53.6905 28.3466C53.3197 28.2116 52.9462 28.1727 52.5731 28.1911V24.6958C53.7664 24.3432 54.6372 23.2389 54.6372 21.9313C54.6372 20.3394 53.3467 19.049 51.7548 19.049C51.0675 19.049 50.4363 19.2896 49.941 19.6911L44.5781 16.5949C45.3 15.4736 45.259 13.9206 44.3738 12.8656C43.293 11.5776 41.2626 11.4 39.9746 12.4807C39.6334 12.767 39.3966 13.1174 39.2179 13.5002L35.8264 11.5421ZM31.086 13.0196C31.5974 13.4826 32.2757 13.7646 33.02 13.7646C33.6519 13.7646 34.2364 13.5613 34.7115 13.2164L38.6156 15.4704C38.4273 16.161 38.1928 16.7978 37.6842 17.2246C36.6722 18.0738 35.427 18.178 34.1818 18.2821C32.9366 18.3863 31.6914 18.4905 30.6794 19.3397C29.0234 20.7292 28.8162 23.098 30.2057 24.754C31.5953 26.41 33.964 26.6173 35.62 25.2277C36.632 24.3785 36.9509 23.1703 37.2697 21.9622C37.5885 20.754 37.9073 19.5458 38.9193 18.6966C39.5418 18.1743 40.403 18.1109 41.2928 18.0454C41.7822 18.0094 42.2803 17.9727 42.7522 17.8587L48.918 21.4185C48.8881 21.5849 48.8725 21.7563 48.8725 21.9313C48.8725 23.1193 49.5912 24.1395 50.6176 24.5806V28.6115C49.8558 28.822 49.1195 28.9833 48.437 28.7349C47.1955 28.2831 46.4827 27.2568 45.7699 26.2305C45.0571 25.2043 44.3443 24.178 43.1029 23.7261C41.0715 22.9868 38.9165 23.9917 38.1771 26.0231C37.4377 28.0545 38.4426 30.2095 40.474 30.9489C41.7154 31.4007 42.9212 31.0727 44.1269 30.7447C45.3326 30.4167 46.5383 30.0888 47.7797 30.5406C48.5434 30.8185 49.0288 31.5326 49.5305 32.2705C49.8585 32.753 50.1935 33.2457 50.6176 33.6333V40.4193C49.5912 40.8605 48.8725 41.8806 48.8725 43.0687C48.8725 43.3869 48.9241 43.6932 49.0193 43.9794L45.4434 46.044C45.3987 46.0003 45.3539 45.9568 45.3092 45.9133C44.6697 45.2911 44.0507 44.689 43.9096 43.8887C43.6802 42.5877 44.2126 41.4573 44.745 40.3268C45.2773 39.1964 45.8097 38.0659 45.5803 36.7649C45.2049 34.636 43.2571 33.2721 41.1282 33.6475C38.9993 34.0229 37.6354 35.9707 38.0108 38.0996C38.2402 39.4006 39.1271 40.2808 40.014 41.161C40.9009 42.0412 41.7878 42.9214 42.0173 44.2224C42.1584 45.0227 41.7827 45.8002 41.3945 46.6036C41.0567 47.3025 40.7095 48.0211 40.6848 48.7914L35.0328 52.0546C34.5133 51.5476 33.8031 51.2353 33.02 51.2353C32.1292 51.2353 31.3328 51.6394 30.8041 52.2742L27.5707 50.4073C27.6068 50.2722 27.6411 50.1366 27.6753 50.0016C27.8943 49.1367 28.1063 48.2996 28.7288 47.7772C29.7408 46.9281 30.986 46.8239 32.2312 46.7197C33.4764 46.6155 34.7215 46.5114 35.7335 45.6622C37.3895 44.2726 37.5968 41.9039 36.2072 40.2479C34.8177 38.5919 32.4489 38.3846 30.7929 39.7742C29.7809 40.6234 29.4621 41.8315 29.1433 43.0397C28.8244 44.2479 28.5056 45.4561 27.4936 46.3052C26.8711 46.8276 26.01 46.891 25.1201 46.9565C24.261 47.0197 23.375 47.0849 22.6512 47.5671L17.0573 44.3375C17.1285 44.0868 17.1665 43.8223 17.1665 43.5489C17.1665 42.1468 16.1654 40.9785 14.8389 40.7199V36.6023C14.8865 36.5889 14.9339 36.5755 14.9813 36.5621C15.8399 36.3193 16.6708 36.0844 17.4344 36.3623C18.6758 36.8141 19.3886 37.8404 20.1014 38.8667C20.8142 39.893 21.5271 40.9192 22.7685 41.3711C24.7999 42.1104 26.9549 41.1055 27.6943 39.0741C28.4336 37.0427 27.4287 34.8877 25.3973 34.1483C24.1559 33.6965 22.9502 34.0245 21.7445 34.3525C20.5387 34.6805 19.333 35.0084 18.0916 34.5566C17.328 34.2787 16.8425 33.5646 16.3409 32.8267C15.9129 32.1972 15.4732 31.5504 14.8389 31.1422V24.7603C16.1654 24.5017 17.1665 23.3334 17.1665 21.9313C17.1665 21.6505 17.1264 21.379 17.0515 21.1224L20.6269 19.0582C21.2271 19.644 21.7861 20.2229 21.9193 20.9784C22.1487 22.2794 21.6164 23.4098 21.084 24.5403C20.5516 25.6707 20.0192 26.8012 20.2486 28.1022C20.624 30.2311 22.5718 31.595 24.7007 31.2196C26.8297 30.8442 28.1935 28.8964 27.8181 26.7675C27.5887 25.4665 26.7018 24.5863 25.8149 23.7061C24.928 22.8259 24.0411 21.9457 23.8117 20.6447C23.6706 19.8444 24.0463 19.0669 24.4345 18.2635C24.7134 17.6863 24.9988 17.0956 25.1037 16.4735L31.086 13.0196Z" fill="url(#paint0_linear)"/>
<defs>
<linearGradient id="paint0_linear" x1="32.5" y1="0" x2="32.5" y2="65" gradientUnits="userSpaceOnUse">
<stop stop-color="#F6BE37"/>
<stop offset="1" stop-color="#B5800D"/>
</linearGradient>
</defs>
</svg>
