<svg width="65" height="65" viewBox="0 0 65 65" fill="none" xmlns="http://www.w3.org/2000/svg">
<path fill-rule="evenodd" clip-rule="evenodd" d="M32.5 65C50.4492 65 65 50.4492 65 32.5C65 14.5508 50.4492 0 32.5 0C14.5508 0 0 14.5508 0 32.5C0 50.4492 14.5508 65 32.5 65ZM51.9999 21.5L32.0171 10L12.0171 21.5L11.9999 44.5L31.9827 56L51.9827 44.5L51.9999 21.5ZM45.3862 25.3027L32.0111 17.6054L18.6245 25.3027L18.6129 40.6974L31.988 48.3947L45.3748 40.6974L45.3862 25.3027ZM24.2999 39.7165C23.0825 39.7165 22.1041 39.2405 21.365 38.2885C20.6693 37.3365 20.3215 35.8405 20.3215 33.8005C20.3215 32.0778 20.6912 30.6498 21.4303 29.5165C22.2129 28.3831 23.2563 27.8165 24.5608 27.8165C24.8651 27.8165 25.1694 27.8618 25.4739 27.9525C25.7782 28.0885 26.0391 28.1565 26.2565 28.1565C26.4304 28.1565 26.5608 28.1338 26.6478 28.0885C26.7782 28.0431 26.887 27.9525 26.9739 27.8165L27.5608 30.8085L27.1696 30.9445C26.9087 30.0831 26.5608 29.4258 26.126 28.9725C25.6912 28.5191 25.126 28.2925 24.4303 28.2925C23.5172 28.2925 22.7998 28.8138 22.2781 29.8565C21.7998 30.8991 21.5607 32.1911 21.5607 33.7325C21.5607 35.4099 21.7781 36.7245 22.2129 37.6765C22.6477 38.6285 23.3651 39.1045 24.3651 39.1045C25.0608 39.1045 25.6477 38.8552 26.126 38.3565C26.6478 37.8125 26.9956 37.1098 27.1696 36.2485L27.5608 36.4525C27.3435 37.4045 26.9304 38.1979 26.3217 38.8325C25.7565 39.4219 25.0825 39.7165 24.2999 39.7165ZM34.2131 30.8085C34.2131 29.9925 34.0392 29.3805 33.6914 28.9725C33.3436 28.5191 32.8219 28.2925 32.1262 28.2925C31.6044 28.2925 31.1478 28.4511 30.7566 28.7685C30.4087 29.0405 30.2349 29.4031 30.2349 29.8565C30.2349 30.1285 30.3218 30.3551 30.4957 30.5365C30.6261 30.7178 30.6914 30.8991 30.6914 31.0805C30.6914 31.3071 30.6261 31.4885 30.4957 31.6245C30.4087 31.7151 30.2566 31.7605 30.0392 31.7605C29.7783 31.7605 29.5609 31.6925 29.387 31.5565C29.2565 31.3751 29.1913 31.1031 29.1913 30.7405C29.1913 29.7885 29.5175 29.0631 30.1696 28.5645C30.8218 28.0658 31.5175 27.8165 32.2566 27.8165C33.3 27.8165 34.061 28.0885 34.5393 28.6325C35.061 29.1765 35.3219 29.8565 35.3219 30.6725C35.3219 31.2165 35.1914 31.7605 34.9305 32.3045C34.7131 32.8485 34.3436 33.3698 33.8219 33.8685C32.5609 35.1378 31.5826 36.1805 30.887 36.9965C30.2349 37.7672 29.8435 38.2885 29.713 38.5605H33.561C33.9523 38.5605 34.2784 38.4019 34.5393 38.0845C34.8002 37.7672 34.9741 37.2912 35.061 36.6565H35.4523L35.061 39.5805H28.9956V38.6965C29.213 38.2885 29.5609 37.7672 30.0392 37.1325C30.5609 36.4978 31.2349 35.7498 32.0609 34.8885C32.8 34.1178 33.3436 33.3925 33.6914 32.7125C34.0392 32.0325 34.2131 31.3978 34.2131 30.8085ZM40.6698 28.3605C40.0612 28.3605 39.5394 28.8591 39.1046 29.8565C38.7133 30.8085 38.5176 32.1005 38.5176 33.7325C38.5176 35.4552 38.7133 36.7925 39.1046 37.7445C39.5394 38.6965 40.0612 39.1725 40.6698 39.1725C41.322 39.1725 41.822 38.6965 42.1699 37.7445C42.5612 36.7925 42.7568 35.4552 42.7568 33.7325C42.7568 32.1005 42.5829 30.8085 42.2351 29.8565C41.8873 28.8591 41.3655 28.3605 40.6698 28.3605ZM40.6698 39.7165C39.7133 39.7165 38.9089 39.1952 38.2567 38.1525C37.6046 37.1098 37.2784 35.6365 37.2784 33.7325C37.2784 31.9645 37.5828 30.5365 38.1915 29.4485C38.8438 28.3605 39.6698 27.8165 40.6698 27.8165C41.6263 27.8165 42.4091 28.3378 43.0177 29.3805C43.6699 30.4231 43.996 31.8738 43.996 33.7325C43.996 35.5912 43.6699 37.0645 43.0177 38.1525C42.4091 39.1952 41.6263 39.7165 40.6698 39.7165Z" fill="url(#paint0_linear)"/>
<defs>
<linearGradient id="paint0_linear" x2="1" gradientUnits="userSpaceOnUse" gradientTransform="translate(65) scale(65) rotate(90)">
<stop stop-color="white"/>
<stop offset="1" stop-color="#8785FF"/>
</linearGradient>
</defs>
</svg>
