<svg width="65" height="65" viewBox="0 0 65 65" fill="none" xmlns="http://www.w3.org/2000/svg">
<path fill-rule="evenodd" clip-rule="evenodd" d="M28.8152 42.3019C34.2288 44.6605 40.529 42.1837 42.8877 36.7703L51.4538 39.3085C49.4718 44.6474 45.2617 48.8574 39.9228 50.8394C29.7941 54.5997 18.5349 49.4372 14.7746 39.3085C11.0143 29.1797 16.1771 17.9206 26.3056 14.1603C36.4343 10.4 47.6935 15.5625 51.4538 25.6915L42.8877 28.2296C41.8089 25.7531 39.8324 23.7766 37.3558 22.6978C31.9425 20.3395 25.6422 22.816 23.2836 28.2296C20.925 33.643 23.4018 39.9433 28.8152 42.3019ZM32.5 0C14.5508 0 0 14.5506 0 32.5C0 50.4492 14.5508 65 32.5 65C50.4492 65 65 50.4492 65 32.5C65 14.5506 50.4492 0 32.5 0Z" fill="url(#paint0_linear)"/>
<defs>
<linearGradient id="paint0_linear" x2="1" gradientUnits="userSpaceOnUse" gradientTransform="translate(0 32.5) scale(65)">
<stop stop-color="#16E0DA"/>
<stop offset="1" stop-color="#0D9FD3"/>
</linearGradient>
</defs>
</svg>
