<svg width="65" height="65" viewBox="0 0 65 65" fill="none" xmlns="http://www.w3.org/2000/svg">
<path fill-rule="evenodd" clip-rule="evenodd" d="M32.5 0C14.5506 0 0 14.5508 0 32.5C0 50.4494 14.5506 65 32.5 65C50.4492 65 65 50.4494 65 32.5C65 14.5508 50.4492 0 32.5 0ZM13 32.5005C12.9999 24.6135 17.7508 17.5032 25.0374 14.4849C32.324 11.4667 40.7112 13.135 46.2881 18.7119C51.865 24.2888 53.5333 32.676 50.5151 39.9626C47.4968 47.2492 40.3865 52.0001 32.4995 52C21.7303 51.9999 13.0001 43.2697 13 32.5005ZM15.1857 32.5572C15.1954 40.2722 20.2985 47.054 27.709 49.2C35.1196 51.3461 43.0569 48.3408 47.1878 41.8248C51.3187 35.3089 50.6505 26.848 45.5481 21.0612C40.4457 15.2744 32.1349 13.5523 25.1531 16.8349V26.5217C28.0904 22.9249 33.1902 21.9643 37.2347 24.2461C41.2792 26.5279 43.0943 31.3896 41.5347 35.7636C39.9752 40.1376 35.4936 42.7542 30.9179 41.9624C26.3421 41.1706 23.0005 37.2002 23.0014 32.5565V18.0468C18.1194 21.259 15.1819 26.7125 15.1857 32.5565V32.5572ZM25.1614 32.5574C25.1664 36.6403 28.4795 39.9466 32.5624 39.9432C36.6454 39.9398 39.953 36.6281 39.9513 32.5451C39.9495 28.4622 36.6391 25.1532 32.5561 25.1533C28.4709 25.1584 25.1618 28.4714 25.1614 32.5566V32.5574ZM22.356 43.1557C16.9316 37.7145 16.6018 29.0174 21.5986 23.1809V27.0439C19.1235 31.8855 20.0516 37.7705 23.8965 41.6155C28.7982 46.5028 36.7302 46.5028 41.6319 41.6155C41.907 41.3417 42.3072 41.2356 42.6818 41.337C43.0564 41.4384 43.3485 41.7319 43.448 42.107C43.5475 42.4821 43.4393 42.8818 43.1642 43.1555C37.4159 48.8958 28.1046 48.8958 22.3564 43.1555L22.356 43.1557ZM41.6232 23.8887C37.7501 20.0271 31.824 19.1144 26.9685 21.6317V19.234C32.4954 16.871 38.9038 18.1071 43.1553 22.3562C43.4662 22.6654 43.5591 23.1321 43.3904 23.5368C43.2216 23.9416 42.8247 24.204 42.3862 24.2007C42.1005 24.2022 41.826 24.0899 41.6232 23.8887Z" fill="url(#paint0_linear)"/>
<defs>
<linearGradient id="paint0_linear" x2="1" gradientUnits="userSpaceOnUse" gradientTransform="translate(32.5) scale(65) rotate(90)">
<stop stop-color="#FEF967"/>
<stop offset="1" stop-color="#FC8E00"/>
</linearGradient>
</defs>
</svg>
