<svg width="65" height="65" viewBox="0 0 65 65" fill="none" xmlns="http://www.w3.org/2000/svg">
<path fill-rule="evenodd" clip-rule="evenodd" d="M29.13 54.882V49.1779C37.3643 49.1779 44.1997 43.2032 45.5527 35.3518H37.538C37.8415 34.4557 38.014 33.4988 38.014 32.4999C38.014 31.5006 37.8415 30.5442 37.538 29.6478H45.5527C44.1997 21.7964 37.3643 15.8219 29.13 15.8219V10.1179C41.4661 10.1179 51.5017 20.1583 51.5017 32.4999C51.5017 44.8413 41.4661 54.882 29.13 54.882ZM14.5463 32.5627C14.5463 24.5037 21.0764 17.9707 29.1311 17.9707C35.5116 17.9707 40.9312 22.0707 42.911 27.7794H36.6108C35.0322 25.3136 32.2757 23.675 29.1311 23.675C24.2252 23.675 20.2476 27.6539 20.2476 32.5627C20.2476 37.4712 24.2252 41.4504 29.1311 41.4504C32.2757 41.4504 35.0322 39.8115 36.6108 37.3457H42.911C40.9312 43.0544 35.5116 47.1541 29.1311 47.1541C21.0764 47.1541 14.5463 40.6216 14.5463 32.5627ZM0 32.5C0 50.4492 14.5508 65 32.4999 65C50.4492 65 65 50.4492 65 32.5C65 14.5508 50.4492 0 32.4999 0C14.5508 0 0 14.5508 0 32.5Z" fill="url(#paint0_linear)"/>
<defs>
<linearGradient id="paint0_linear" x2="1" gradientUnits="userSpaceOnUse" gradientTransform="translate(3.20947 7.62143) scale(74.1773) rotate(33.5907)">
<stop stop-color="#5BD1F1"/>
<stop offset="1" stop-color="#41C2FC"/>
</linearGradient>
</defs>
</svg>
