<svg width="65" height="65" viewBox="0 0 65 65" fill="none" xmlns="http://www.w3.org/2000/svg">
<path fill-rule="evenodd" clip-rule="evenodd" d="M32.5 65C50.4493 65 65 50.4493 65 32.5C65 14.5507 50.4493 0 32.5 0C14.5507 0 0 14.5507 0 32.5C0 50.4493 14.5507 65 32.5 65ZM13.4643 21.0963L32.5006 10.2143L39.2712 14.085L35.6445 16.1573L32.5 14.3597L20.716 21.0963L35.8691 29.759L35.8716 29.7589L36.1259 29.9041V47.5264L47.9098 40.7898V37.1944L51.5357 35.1206V42.862L32.617 53.6781L32.5 53.8571V53.745V31.9785L13.4643 21.0963ZM37.3602 17.1382L40.987 15.0659L51.5357 21.0962V33.159L47.9098 35.2328V23.1692L37.3602 17.1382ZM17.0902 25.3018L13.4643 23.2279V42.862H13.4648L30.9146 52.8425L30.9137 48.6961L17.0902 40.7894V25.3018Z" fill="url(#paint0_linear)"/>
<defs>
<linearGradient id="paint0_linear" x1="32" y1="0" x2="32" y2="69.9965" gradientUnits="userSpaceOnUse">
<stop stop-color="#68A8FF"/>
<stop offset="1" stop-color="#197BFF"/>
</linearGradient>
</defs>
</svg>
