<svg width="65" height="65" viewBox="0 0 65 65" fill="none" xmlns="http://www.w3.org/2000/svg">
<path fill-rule="evenodd" clip-rule="evenodd" d="M32.5 65C50.4492 65 65 50.4492 65 32.5C65 14.5507 50.4492 0 32.5 0C14.5508 0 0 14.5507 0 32.5C0 50.4492 14.5508 65 32.5 65ZM20.2661 38.6464C21.3269 37.744 21.9147 36.5073 22.0295 34.9365H18.9893C18.9216 35.8255 18.6548 36.4839 18.1886 36.9118C17.7291 37.3329 17.0299 37.5434 16.0908 37.5434C15.0503 37.5434 14.2869 37.1791 13.8004 36.4505C13.3207 35.7219 13.0808 34.5688 13.0808 32.9913V31.8884C13.0944 30.3777 13.3511 29.2647 13.8511 28.5495C14.3578 27.8275 15.1179 27.4666 16.1313 27.4666C17.0637 27.4666 17.7562 27.6805 18.2089 28.1083C18.6683 28.5294 18.9352 29.2112 19.0095 30.1537H22.0498C21.8877 28.5227 21.2864 27.256 20.2458 26.3536C19.2054 25.4512 17.8339 25 16.1313 25C14.9016 25 13.8207 25.2874 12.8883 25.8623C11.9626 26.4305 11.2499 27.2493 10.75 28.3189C10.25 29.3884 10 30.625 10 32.0287V32.9211C10 35.1203 10.5405 36.8516 11.6215 38.1149C12.7092 39.3716 14.199 40 16.0908 40C17.8204 40 19.2122 39.5487 20.2661 38.6464ZM27.0663 33.8335H32.9037V31.4071H27.0663V27.637H33.6334V25.2005H24.026V39.7994H27.0663V33.8335ZM38.5487 40C39.8254 40 40.8254 39.5655 41.5483 38.6966L41.6294 39.7994H44.3861V28.9505H41.4469V36.631C41.0754 37.3128 40.3931 37.6537 39.3999 37.6537C38.3594 37.6537 37.8391 37.0889 37.8391 35.9592V28.9505H34.9103V36.0595C34.924 37.3496 35.238 38.3288 35.8529 38.9972C36.4744 39.6658 37.373 40 38.5487 40ZM49.3822 30.2039L49.291 28.9505H46.5345V39.7994H49.4633V32.1491C49.8755 31.4539 50.4937 31.1063 51.318 31.1063C51.9463 31.1063 52.3955 31.2466 52.6659 31.5274C52.936 31.8015 53.071 32.246 53.071 32.8609V39.7994H56V32.7908C55.9865 31.4472 55.6959 30.4378 55.1284 29.7627C54.5609 29.0876 53.6962 28.75 52.5341 28.75C51.2166 28.75 50.166 29.2346 49.3822 30.2039Z" fill="url(#paint0_linear)"/>
<defs>
<linearGradient id="paint0_linear" x2="1" gradientUnits="userSpaceOnUse" gradientTransform="translate(65) scale(65) rotate(90)">
<stop stop-color="white"/>
<stop offset="1" stop-color="#8785FF"/>
</linearGradient>
</defs>
</svg>
