<svg width="65" height="65" viewBox="0 0 65 65" fill="none" xmlns="http://www.w3.org/2000/svg">
<path fill-rule="evenodd" clip-rule="evenodd" d="M32.5 0C14.5506 0 0 14.5508 0 32.5C0 50.4494 14.5506 65 32.5 65C50.4492 65 65 50.4494 65 32.5C65 14.5508 50.4492 0 32.5 0ZM50.7156 29.4313C50.4179 28.3035 50.1254 27.1706 49.7448 26.0698C49.5058 25.3779 49.1101 24.7401 48.7829 24.0791C48.1103 22.7207 47.2321 21.4935 46.2286 20.3728C45.5014 19.5609 44.6487 18.8603 43.8401 18.1229C43.6278 17.9293 43.3793 17.7717 43.1347 17.6175C42.4882 17.2101 41.8365 16.8108 41.1838 16.4135C40.1835 15.8043 39.1249 15.3155 38.0045 14.9799C37.24 14.7508 36.46 14.5665 35.6785 14.4032C34.9447 14.2498 34.2006 14.0566 33.459 14.0481C32.2167 14.0338 30.966 13.8986 29.7267 14.1584C28.9009 14.3315 28.0402 14.3758 27.2384 14.6198C25.5589 15.1308 23.8705 15.649 22.3893 16.6428C21.5629 17.1973 20.7464 17.7669 19.9302 18.3363C19.6839 18.5082 19.4828 18.7451 19.7147 19.0353C20.1548 19.5859 20.6199 20.1186 21.1088 20.626C21.1882 20.7082 21.4828 20.6833 21.6107 20.6021C22.479 20.0507 23.3154 19.4487 24.1901 18.9086C24.7079 18.5891 25.2635 18.32 25.8271 18.0887C26.3485 17.8749 26.915 17.7725 27.4407 17.5673C28.7315 17.0635 30.0993 17.0422 31.4447 16.9418C32.3294 16.8758 33.2309 16.9956 34.1218 17.068C34.6155 17.1083 35.1091 17.197 35.5922 17.3094C36.1877 17.4478 36.7769 17.6192 37.3601 17.8036C37.7999 17.9423 38.2467 18.0839 38.6538 18.2946C39.3816 18.6712 40.1154 19.0528 40.7855 19.5201C41.678 20.1424 42.6011 20.7641 43.3434 21.5452C43.949 22.1827 44.61 22.7852 45.097 23.5622C45.7421 24.5916 46.4304 25.5883 46.8506 26.7352C47.1469 27.5436 47.4197 28.3617 47.6697 29.1854C47.7695 29.5138 47.7822 29.8688 47.8299 30.2124C47.9188 30.8534 48.0613 31.4935 48.0764 32.1364C48.0938 32.8879 47.9814 33.6413 47.957 34.3949C47.9266 35.3279 47.8047 36.2384 47.4963 37.1253C47.2966 37.6995 47.2091 38.3201 46.9575 38.8674C46.4865 39.8921 45.9853 40.8973 45.3164 41.8294C44.692 42.6995 44.0485 43.5416 43.3068 44.3082C43.0093 44.6156 42.6604 44.8734 42.3324 45.1507C42.0222 45.4131 41.7293 45.7026 41.3927 45.926C40.3715 46.6029 39.2837 47.1532 38.1655 47.6604C37.1231 48.1333 36.0131 48.3392 34.9276 48.6351C34.3437 48.7942 33.7086 48.8166 33.0972 48.8113C31.9466 48.8012 30.7959 48.7381 29.6465 48.6729C29.1853 48.6468 28.7065 48.6224 28.2723 48.4828C27.2064 48.1403 26.1435 47.7737 25.1129 47.338C23.8817 46.8174 22.7876 46.0509 21.7396 45.2251C21.4036 44.9603 21.2176 44.9368 20.9195 45.251C20.5198 45.6722 20.1378 46.1126 19.7784 46.5684C19.5213 46.8946 19.5673 47.1056 19.8904 47.3766C20.0053 47.4728 20.1487 47.5356 20.2614 47.6338C21.165 48.4219 22.1592 49.0743 23.2426 49.5823C24.1614 50.0131 25.0793 50.4555 26.0301 50.8045C26.7322 51.0623 27.4816 51.2036 28.219 51.3505C28.9769 51.5015 29.7452 51.6885 30.5102 51.6953C31.8231 51.7071 33.1449 51.851 34.453 51.5814C34.8485 51.4998 35.2649 51.5088 35.6544 51.4081C36.9627 51.0698 38.285 50.7634 39.5141 50.1801C40.2734 49.8197 41.0287 49.4452 41.7575 49.0278C42.3171 48.7072 42.8474 48.3294 43.3636 47.9412C43.9661 47.4881 44.5853 47.0418 45.1139 46.5097C45.8496 45.7693 46.5611 44.9917 47.1848 44.1568C47.8329 43.2894 48.4192 42.3643 48.9303 41.4095C49.3799 40.5698 49.7226 39.6671 50.0474 38.7685C50.2901 38.0964 50.4225 37.3848 50.6158 36.6942C50.8548 35.8411 50.9897 34.9752 50.9852 34.0883C50.9832 33.6791 50.9848 33.2699 50.9848 32.8607C51.0214 31.7076 51.0123 30.5547 50.7156 29.4313ZM18.1987 41.0881C17.1931 40.9916 16.1676 40.9187 15.2648 40.3664C14.6199 39.9717 14.3691 39.4245 14.5256 38.6865C14.5943 38.3625 15.1708 37.9905 15.6599 37.9698C15.9628 37.9571 16.2666 37.9675 16.6764 37.9675C17.4867 37.8671 18.3606 38.0918 19.1888 38.4242C20.2331 38.8435 21.24 39.3562 22.2592 39.8367C22.463 39.9329 22.4605 40.1158 22.2586 40.218C21.49 40.6072 20.6861 40.8874 19.8216 40.9652C19.2803 41.0142 18.731 41.1391 18.1987 41.0881ZM20.9253 43.1363C21.453 43.0101 21.9818 42.8878 22.5084 42.7566C23.4571 42.5206 24.346 42.1386 25.1735 41.6209C25.6912 41.2972 26.2063 41.0206 26.8326 41.3209C26.8623 41.335 26.9016 41.3308 26.9367 41.3314C27.9568 41.3513 28.9694 41.3016 29.8322 40.6722C30.2167 40.3919 30.5453 40.0349 30.8992 39.7127C30.872 39.6775 30.8446 39.6422 30.8175 39.6069C30.7174 39.6523 30.6164 39.6953 30.5177 39.7432C30.1666 39.9138 29.8296 40.1878 29.4628 40.2354C28.8306 40.3173 28.1796 40.272 27.5372 40.254C27.1767 40.2439 27.0615 39.9962 27.2454 39.6744C27.3489 39.4932 27.4825 39.3292 27.5848 39.1474C28.1813 38.0866 28.2999 36.8956 28.3699 35.7288C28.4306 34.7168 28.1896 33.7137 27.7771 32.7598C27.4506 32.0047 27.0399 31.3036 26.4519 30.7472C25.8674 30.194 25.2145 29.7066 24.4827 29.3404C23.4349 28.8159 22.3643 28.4219 21.1593 28.4698C20.1672 28.5093 19.1722 28.4783 18.1785 28.4777C17.7076 28.4774 17.6568 28.3995 17.7996 27.9411C17.9684 27.3992 18.1507 26.86 18.2812 26.3086C18.33 26.1031 18.3895 26.0424 18.5889 26.0368C20.2538 25.9902 21.9257 26.1746 23.5828 25.8965C24.1283 25.8049 24.693 25.7437 25.2038 25.5499C26.0913 25.2132 26.8063 24.5897 27.349 23.8259C27.7117 23.3154 27.8266 22.6726 27.8273 22.0369C27.8276 21.761 27.6861 21.72 27.4396 21.8784C26.8862 22.2334 26.3802 22.674 25.7184 22.8358C25.1151 22.9833 24.514 23.2568 23.9104 23.261C22.5509 23.2705 21.1896 23.3851 19.825 23.1679C18.8895 23.019 17.925 23.0439 16.973 23.0097C16.4173 22.9898 15.9353 23.3844 15.7817 23.9356C15.5929 24.6131 15.406 25.2913 15.2073 25.9661C15.0308 26.5664 14.8331 27.1607 14.6569 27.761C14.5006 28.2937 14.3744 28.8353 14.2109 29.3657C13.9183 30.3149 13.5912 31.2538 13.3195 32.2089C13.2707 32.3807 13.3663 32.6598 13.4948 32.7936C13.5879 32.8904 13.8636 32.8821 14.0269 32.8278C14.5299 32.6602 15.0056 32.4013 15.515 32.2641C16.2475 32.0671 16.9951 31.8611 17.7459 31.815C18.5863 31.7634 19.4408 31.8537 20.2825 31.9441C20.8387 32.004 21.4073 32.1096 21.927 32.3082C22.6443 32.5825 23.2607 33.0385 23.7946 33.6105C24.3544 34.2101 24.6235 34.9047 24.6622 35.7108C24.7059 36.6165 24.6001 37.4838 24.226 38.3297C23.9881 38.8675 23.7511 38.9772 23.2652 38.6537C22.5258 38.1615 21.7812 37.6718 21.0051 37.2423C20.4859 36.9551 19.9013 36.7893 19.3582 36.5422C18.423 36.1167 17.4183 36.0263 16.4198 35.9262C16.0955 35.8937 15.7578 36.0129 15.4246 36.0488C14.3433 36.1654 13.4095 36.5335 12.6378 37.3627C11.8904 38.166 11.9179 39.0813 12.1288 40.0018C12.2735 40.633 12.7427 41.1002 13.2796 41.5181C13.9237 42.0196 14.6076 42.4031 15.377 42.6318C15.9519 42.8026 16.5418 42.9274 17.1308 43.0437C17.6629 43.1487 18.2017 43.2737 18.739 43.2824C19.4443 43.2939 20.151 43.2 20.857 43.1509C20.88 43.1492 20.9026 43.1417 20.9253 43.1363Z" fill="url(#paint0_linear)"/>
<defs>
<linearGradient id="paint0_linear" x2="1" gradientUnits="userSpaceOnUse" gradientTransform="translate(32.5) scale(65) rotate(90)">
<stop stop-color="#DABC66"/>
<stop offset="1" stop-color="#9A7131"/>
</linearGradient>
</defs>
</svg>
