<svg width="65" height="65" viewBox="0 0 65 65" fill="none" xmlns="http://www.w3.org/2000/svg">
<path fill-rule="evenodd" clip-rule="evenodd" d="M32.5 0C14.5505 0 0 14.5508 0 32.5C0 50.4495 14.5505 65 32.5 65C50.4492 65 65 50.4495 65 32.5C65 14.5508 50.4492 0 32.5 0ZM32.4999 54.8892C20.1349 54.8892 10.111 44.8652 10.111 32.5002C10.111 20.1353 20.1349 10.1113 32.4999 10.1113C44.8649 10.1113 54.8888 20.1353 54.8888 32.5002C54.8888 44.8652 44.8649 54.8892 32.4999 54.8892ZM53.2664 32.5002C53.2664 43.9692 43.9689 53.2666 32.4999 53.2666C21.0309 53.2666 11.7334 43.9692 11.7334 32.5002C11.7334 21.031 21.0309 11.7336 32.4999 11.7336C43.9689 11.7336 53.2664 21.031 53.2664 32.5002ZM32.4999 49.2107C23.2709 49.2107 15.7894 41.729 15.7894 32.5C15.7894 23.271 23.2709 15.7896 32.4999 15.7896C39.5515 15.7896 45.5829 20.1572 48.0364 26.335H40.653C38.7867 23.8708 35.8293 22.2791 32.4999 22.2791C26.855 22.2791 22.2789 26.8552 22.2789 32.5C22.2789 38.145 26.855 42.7212 32.4999 42.7212C35.8293 42.7212 38.787 41.1292 40.6531 38.665H48.0364C45.5829 44.8428 39.5515 49.2107 32.4999 49.2107ZM38.665 32.5C38.665 35.9048 35.9048 38.665 32.4999 38.665C29.095 38.665 26.3348 35.9048 26.3348 32.5C26.3348 29.0952 29.095 26.335 32.4999 26.335C35.9048 26.335 38.665 29.0952 38.665 32.5Z" fill="url(#paint0_linear)"/>
<defs>
<linearGradient id="paint0_linear" x2="1" gradientUnits="userSpaceOnUse" gradientTransform="translate(32.5 1.95871) scale(63.0413) rotate(90)">
<stop stop-color="#90BAEA"/>
<stop offset="1" stop-color="#2C3E53"/>
</linearGradient>
</defs>
</svg>
