<svg width="65" height="65" viewBox="0 0 65 65" fill="none" xmlns="http://www.w3.org/2000/svg">
<path fill-rule="evenodd" clip-rule="evenodd" d="M32.5 0C14.5505 0 0 14.5508 0 32.5C0 50.4495 14.5505 65 32.5 65C50.4492 65 65 50.4495 65 32.5C65 14.5508 50.4492 0 32.5 0ZM40.6503 36.9624L44.4694 37.4939C43.262 40.8274 41.5034 43.3472 39.1935 45.0532C37.2535 46.4861 35.1145 47.3171 32.7764 47.5466L31.8447 50.0002H28.0789L29.0538 47.4329C28.1227 47.2839 27.2547 47.0422 26.4495 46.7078L25.1991 50.0002H21.4333L23.4277 44.7483C23.3099 44.6367 23.1942 44.5217 23.0807 44.4036C21.0269 42.2644 19.9999 39.2 19.9999 35.2104C19.9999 30.0134 21.5616 25.7153 24.6852 22.3162C27.1451 19.636 30.1333 18.1404 33.6499 17.8298L34.7244 15.0002H38.4902L37.373 17.9424C38.3077 18.0906 39.1754 18.3335 39.976 18.6711L41.37 15.0002H45.1358L42.9785 20.6812C44.5767 22.2671 45.5133 24.3213 45.7883 26.844L42.1858 27.1787C42.0176 26.2561 41.7704 25.4368 41.4445 24.7207L34.0889 44.0903C35.167 43.7751 36.1795 43.2366 37.1266 42.4744C38.7408 41.1753 39.9153 39.3379 40.6503 36.9624ZM32.3087 21.3616C30.0923 22.0112 28.2139 23.4448 26.6734 25.6628C24.7836 28.3662 23.8387 31.575 23.8387 35.2891C23.8387 37.4412 24.2222 39.2236 24.9891 40.6365L32.3087 21.3616ZM27.6967 43.4231L36.2091 21.0073C37.1758 21.1086 38.0378 21.3665 38.7951 21.7808L30.2394 44.3108C29.309 44.1621 28.4614 43.8662 27.6967 43.4231Z" fill="url(#paint0_linear)"/>
<defs>
<linearGradient id="paint0_linear" x2="1" gradientUnits="userSpaceOnUse" gradientTransform="translate(32.5) scale(65) rotate(90)">
<stop stop-color="#FEF967"/>
<stop offset="1" stop-color="#FC8E00"/>
</linearGradient>
</defs>
</svg>
