<svg width="65" height="65" viewBox="0 0 65 65" fill="none" xmlns="http://www.w3.org/2000/svg">
<path fill-rule="evenodd" clip-rule="evenodd" d="M32.5 0C14.5506 0 0 14.5508 0 32.5C0 50.4494 14.5506 65 32.5 65C50.4492 65 65 50.4494 65 32.5C65 14.5508 50.4492 0 32.5 0ZM23.6768 34.7363L26.4795 35.625C26.0498 37.1875 25.3353 38.348 24.3359 39.1064C23.3366 39.8649 22.0687 40.2441 20.5322 40.2441C18.6312 40.2441 17.0687 39.5947 15.8447 38.2959C14.6208 36.9971 14.0088 35.2214 14.0088 32.9688C14.0088 30.5859 14.624 28.7354 15.8545 27.417C17.085 26.0986 18.7028 25.4395 20.708 25.4395C22.4593 25.4395 23.8818 25.957 24.9756 26.9922C25.6266 27.6042 26.1149 28.4831 26.4404 29.6289L23.5791 30.3125C23.4098 29.5703 23.0566 28.9844 22.5195 28.5547C21.9824 28.125 21.3298 27.9102 20.5615 27.9102C19.5003 27.9102 18.6393 28.291 17.9785 29.0527C17.3177 29.8145 16.9873 31.0482 16.9873 32.7539C16.9873 34.5638 17.3128 35.8529 17.9639 36.6211C18.6149 37.3893 19.4613 37.7734 20.5029 37.7734C21.2712 37.7734 21.932 37.5293 22.4854 37.041C23.0387 36.5527 23.4359 35.7845 23.6768 34.7363ZM32.1826 40V28.1055H27.9346V25.6836H39.3115V28.1055H35.0732V40H32.1826ZM41.2549 40V25.8008H44.1455V37.5879H51.333V40H41.2549Z" fill="url(#paint0_linear)"/>
<defs>
<linearGradient id="paint0_linear" x2="1" gradientUnits="userSpaceOnUse" gradientTransform="translate(32.5) scale(65) rotate(90)">
<stop stop-color="#ACACAC"/>
<stop offset="1" stop-color="#555555"/>
</linearGradient>
</defs>
</svg>
