<svg width="65" height="65" viewBox="0 0 65 65" fill="none" xmlns="http://www.w3.org/2000/svg">
<path fill-rule="evenodd" clip-rule="evenodd" d="M27.8703 29.767C27.8703 27.1044 30.057 24.9468 32.7505 24.9468C35.4444 24.9468 37.6297 27.1046 37.6297 29.7673C37.6316 31.6082 36.5696 33.2896 34.8924 34.1016H34.8921V40.0548H30.61V34.1013C28.9313 33.2906 27.8682 31.6085 27.8703 29.767ZM32.7509 53.0747C21.2514 53.0747 11.9288 43.8631 11.9288 32.5001C11.9288 21.1369 21.2514 11.9255 32.7509 11.9255C42.6848 11.9255 50.9941 18.8009 53.0709 27.9986H47.6888C45.7343 21.6789 39.7779 17.0702 32.7509 17.0702C24.1404 17.0702 17.1343 23.9906 17.1343 32.5001C17.1343 41.0094 24.1394 47.9311 32.7509 47.9311C39.7779 47.9311 45.733 43.3224 47.6888 37.0011H53.0709C50.9941 46.1991 42.6848 53.0747 32.7509 53.0747ZM32.5 0C14.5506 0 0 14.5506 0 32.5C0 50.4492 14.5506 65 32.5 65C50.4492 65 65 50.4492 65 32.5C65 14.5506 50.4492 0 32.5 0Z" fill="url(#paint0_linear)"/>
<defs>
<linearGradient id="paint0_linear" x2="1" gradientUnits="userSpaceOnUse" gradientTransform="translate(32.5) scale(63.4144) rotate(90)">
<stop stop-color="#72E776"/>
<stop offset="1" stop-color="#3AB03E"/>
</linearGradient>
</defs>
</svg>
