<svg width="65" height="65" viewBox="0 0 65 65" fill="none" xmlns="http://www.w3.org/2000/svg">
<path fill-rule="evenodd" clip-rule="evenodd" d="M32.5 0C14.5506 0 0 14.5508 0 32.5C0 50.4494 14.5506 65 32.5 65C50.4492 65 65 50.4494 65 32.5C65 14.5508 50.4492 0 32.5 0ZM12.7802 25.6837H18.0634C19.2548 25.6837 20.163 25.7749 20.788 25.9572C21.6279 26.2045 22.3473 26.644 22.9462 27.2755C23.5452 27.907 24.0009 28.6801 24.3134 29.5948C24.6259 30.5096 24.7822 31.6375 24.7822 32.9786C24.7822 34.157 24.6357 35.1726 24.3427 36.0255C23.9846 37.0672 23.4736 37.9103 22.8095 38.5548C22.3082 39.0431 21.6311 39.424 20.7783 39.6974C20.1402 39.8992 19.2874 40.0001 18.2197 40.0001H12.7802V25.6837ZM15.6708 28.1056V37.588H17.829C18.6363 37.588 19.219 37.5424 19.5771 37.4513C20.0458 37.3341 20.4348 37.1355 20.7441 36.8556C21.0533 36.5756 21.3056 36.115 21.5009 35.4738C21.6962 34.8325 21.7939 33.9585 21.7939 32.8517C21.7939 31.7449 21.6962 30.8953 21.5009 30.3029C21.3056 29.7104 21.0322 29.2482 20.6806 28.9161C20.329 28.5841 19.8831 28.3595 19.3427 28.2423C18.9391 28.1512 18.1481 28.1056 16.9697 28.1056H15.6708ZM40.1435 40.0001H36.999L35.749 36.7482H30.0263L28.8447 40.0001H25.7783L31.3544 25.6837H34.4111L40.1435 40.0001ZM34.8212 34.3361L32.8486 29.0236L30.915 34.3361H34.8212ZM41.6865 25.6837H47.4091C48.5419 25.6837 49.3867 25.7309 49.9433 25.8253C50.4999 25.9197 50.998 26.1167 51.4374 26.4161C51.8769 26.7156 52.2431 27.1144 52.5361 27.6124C52.829 28.1105 52.9755 28.6687 52.9755 29.2872C52.9755 29.9578 52.7949 30.573 52.4335 31.1329C52.0722 31.6928 51.5823 32.1128 50.9638 32.3927C51.8362 32.6466 52.5068 33.0795 52.9755 33.6915C53.4443 34.3035 53.6786 35.0229 53.6786 35.8497C53.6786 36.5008 53.5273 37.1339 53.2245 37.7491C52.9218 38.3644 52.5084 38.8559 51.9843 39.2238C51.4602 39.5916 50.8141 39.8178 50.0458 39.9025C49.5641 39.9545 48.402 39.9871 46.5595 40.0001H41.6865V25.6837ZM44.5771 28.0665V31.3771H46.4716C47.5979 31.3771 48.2978 31.3608 48.5712 31.3282C49.066 31.2697 49.455 31.0988 49.7382 30.8156C50.0214 30.5323 50.163 30.1596 50.163 29.6974C50.163 29.2547 50.041 28.895 49.7968 28.6183C49.5527 28.3416 49.1897 28.174 48.7079 28.1154C48.4215 28.0828 47.5979 28.0665 46.2372 28.0665H44.5771ZM44.5771 33.7599V37.588H47.2529C48.2945 37.588 48.9553 37.5587 49.2353 37.5001C49.665 37.422 50.0149 37.2316 50.2851 36.9288C50.5553 36.6261 50.6904 36.2208 50.6904 35.713C50.6904 35.2833 50.5862 34.9187 50.3779 34.6193C50.1695 34.3198 49.8684 34.1017 49.4745 33.965C49.0807 33.8282 48.2262 33.7599 46.9111 33.7599H44.5771Z" fill="url(#paint0_linear)"/>
<defs>
<linearGradient id="paint0_linear" x2="1" gradientUnits="userSpaceOnUse" gradientTransform="translate(32.5) scale(65) rotate(90)">
<stop stop-color="white"/>
<stop offset="1" stop-color="#8785FF"/>
</linearGradient>
</defs>
</svg>
