<svg width="65" height="65" viewBox="0 0 65 65" fill="none" xmlns="http://www.w3.org/2000/svg">
<path fill-rule="evenodd" clip-rule="evenodd" d="M32.5 0C14.5505 0 0 14.5508 0 32.5C0 50.4495 14.5505 65 32.5 65C50.4492 65 65 50.4495 65 32.5C65 14.5508 50.4492 0 32.5 0ZM32.4999 50.4402C42.4079 50.4402 50.4399 42.4082 50.4399 32.5001C50.4399 22.5922 42.4079 14.5602 32.4999 14.5602C22.5919 14.5602 14.5599 22.5922 14.5599 32.5001C14.5599 42.4082 22.5919 50.4402 32.4999 50.4402ZM32.4999 52.0001C21.7304 52.0001 12.9999 43.2697 12.9999 32.5001C12.9999 21.7306 21.7304 13.0001 32.4999 13.0001C43.2695 13.0001 51.9999 21.7306 51.9999 32.5001C51.9999 43.2697 43.2695 52.0001 32.4999 52.0001ZM22.8859 20.9971H30.4684C32.8158 20.9971 34.8328 21.2155 36.5197 21.6521C38.2065 22.0889 39.6122 22.7876 40.7368 23.7484C42.0251 24.8402 42.994 26.0985 43.6437 27.5233C43.6591 27.5571 43.6744 27.5911 43.6895 27.6251H45.955V31.3301H44.5887C44.6083 31.6156 44.6181 31.9053 44.6181 32.1989C44.6181 32.7666 44.5815 33.322 44.5085 33.8651H45.955V37.5701H43.3452C42.7941 38.6289 42.0748 39.5763 41.1871 40.412C40.068 41.4656 38.6869 42.2953 37.0438 42.9012C35.4006 43.5072 33.52 43.8102 31.4019 43.8102H22.8859V37.5701H20.6049V33.8651H22.8859V31.3301H20.6049V27.6251H22.8859V20.9971ZM40.0269 33.8651H37.6835C37.5499 34.8574 37.2944 35.8087 36.9169 36.7189C36.7961 37.0103 36.6639 37.2939 36.5201 37.5701H38.8979C38.4825 38.3458 37.9791 39.0256 37.3876 39.6094C36.5415 40.4447 35.5507 41.0752 34.4152 41.501C33.2798 41.9268 32.0679 42.1396 30.7795 42.1396H26.7181V37.5701H30.1599V33.8651H26.7181V31.3301H30.1599V27.6251H26.7181V22.6838H30.8123C32.1661 22.6838 33.4135 22.9213 34.5544 23.3962C35.6954 23.8712 36.678 24.5317 37.5023 25.3778C38.1374 26.0298 38.6639 26.7788 39.0818 27.6251H36.8645C37.3736 28.7739 37.6733 30.0089 37.7638 31.3301H40.079C40.1026 31.6357 40.1144 31.9471 40.1144 32.2644C40.1144 32.8206 40.0853 33.3541 40.0269 33.8651Z" fill="url(#paint0_linear)"/>
<defs>
<linearGradient id="paint0_linear" x2="1" gradientUnits="userSpaceOnUse" gradientTransform="translate(32.5) scale(65) rotate(90)">
<stop stop-color="white"/>
<stop offset="1" stop-color="#8785FF"/>
</linearGradient>
</defs>
</svg>
