<svg width="65" height="65" viewBox="0 0 65 65" fill="none" xmlns="http://www.w3.org/2000/svg">
<path fill-rule="evenodd" clip-rule="evenodd" d="M28.8826 29.5177C27.2904 31.0969 27.2904 33.6665 28.8826 35.2453C30.4751 36.8242 33.067 36.8242 34.6592 35.2453C36.2517 33.6665 36.2514 31.0966 34.6592 29.5177C33.067 27.9389 30.4751 27.9386 28.8826 29.5177ZM45.6318 45.3535C41.5366 49.414 36.1083 51.3058 30.8449 51.0104C29.715 50.948 28.8747 49.9995 28.9727 48.878L29.0256 48.2741C29.1121 47.2925 29.9849 46.5228 30.9704 46.5967C35.0806 46.901 39.3509 45.4618 42.5459 42.2938C47.563 37.3195 48.2871 29.7187 44.6414 24.227L39.667 29.1586C40.9356 32.2243 40.317 35.8837 37.8093 38.3702C35.3016 40.8568 31.6102 41.4706 28.518 40.2123L24.1331 44.5599C24.131 44.5623 24.1292 44.5646 24.1273 44.5667L21.4243 47.2464L21.4225 47.248L17.6821 50.9567C16.997 51.6363 15.713 51.4649 14.815 50.575C13.9171 49.685 13.7459 48.4114 14.431 47.7321L17.907 44.2855C11.8169 36.8666 12.2234 25.9699 19.1517 19.1004C23.334 14.9535 28.9965 13.1665 34.4744 13.7282C35.7922 13.8631 36.7711 15.0124 36.6909 16.3221C36.6196 17.4895 35.5663 18.3322 34.3955 18.1841C28.9441 17.4934 23.1895 19.8494 19.9726 25.2688C17.9117 28.7413 17.5699 32.9566 18.8413 36.804C19.3973 38.4869 20.1662 39.9174 21.0862 41.133L24.8738 37.3774C22.4316 34.0666 22.7175 29.3822 25.7316 26.394C28.7455 23.4056 33.4705 23.122 36.8094 25.5435L41.7711 20.6239L41.9654 20.4316L47.6607 14.7847C48.3773 14.0739 49.6878 14.2191 50.5852 15.1094C51.4826 15.9995 51.6294 17.2982 50.9128 18.0087L47.8785 21.0171C53.209 28.2457 52.4238 38.6187 45.6318 45.3535ZM32.5 0C14.5508 0 0 14.5508 0 32.5C0 50.4492 14.5508 65 32.5 65C50.4492 65 65 50.4492 65 32.5C65 14.5508 50.4492 0 32.5 0Z" fill="url(#paint0_linear)"/>
<defs>
<linearGradient id="paint0_linear" x2="1" gradientUnits="userSpaceOnUse" gradientTransform="translate(32.5) scale(65) rotate(90)">
<stop stop-color="#EC8150"/>
<stop offset="1" stop-color="#E9570F"/>
</linearGradient>
</defs>
</svg>
