<svg width="65" height="65" viewBox="0 0 65 65" fill="none" xmlns="http://www.w3.org/2000/svg">
<path fill-rule="evenodd" clip-rule="evenodd" d="M32.5 0C14.5506 0 0 14.5508 0 32.5C0 50.4495 14.5506 65 32.5 65C50.4492 65 65 50.4495 65 32.5C65 14.5508 50.4492 0 32.5 0ZM49.1792 27.0654L44.3973 18.7615C44.9904 18.1497 45.3563 17.3162 45.3563 16.3989C45.3563 14.5251 43.8318 13.0002 41.9576 13.0002C40.0835 13.0002 38.5591 14.5247 38.5591 16.3989C38.5591 18.2729 40.0835 19.7974 41.9576 19.7974C42.184 19.7974 42.4047 19.7749 42.6183 19.7324L47.4235 28.0764C47.611 28.4019 47.9516 28.5842 48.3018 28.5842C48.4737 28.5842 48.6476 28.5405 48.8068 28.4487C49.2921 28.1694 49.4584 27.5503 49.1792 27.0654ZM41.9581 15.0259C41.2012 15.0259 40.5849 15.6416 40.5849 16.3987C40.5849 17.1555 41.2012 17.772 41.9581 17.772C42.7151 17.772 43.3314 17.1555 43.3314 16.3987C43.3314 15.6416 42.7151 15.0259 41.9581 15.0259ZM45.6188 44.4363L50.5948 36.2473C51.4163 36.4724 52.3228 36.3923 53.1271 35.9504C54.7695 35.0483 55.3717 32.9785 54.4697 31.3357C53.5671 29.6934 51.4974 29.0911 49.855 29.9937C48.2126 30.8958 47.6104 32.9656 48.5125 34.6079C48.6213 34.8064 48.7473 34.9888 48.8875 35.1562L43.8878 43.385C43.6927 43.7061 43.6973 44.0925 43.8656 44.4001C43.9482 44.5498 44.0702 44.6812 44.2269 44.7771C44.7052 45.0667 45.3286 44.9146 45.6188 44.4363ZM52.6943 32.3113C52.3294 31.6477 51.4933 31.4043 50.8297 31.7686C50.1664 32.1335 49.9236 32.9695 50.2879 33.6333C50.6523 34.2964 51.4888 34.5398 52.152 34.1755C52.8152 33.811 53.0586 32.9751 52.6943 32.3113ZM15.6859 38.6499L20.4679 46.9546C19.8752 47.5662 19.5089 48.3994 19.5089 49.3169C19.5089 51.1912 21.0333 52.7156 22.9075 52.7156C24.7816 52.7156 26.3061 51.1912 26.3061 49.3169C26.3061 47.4434 24.7816 45.9185 22.9075 45.9185C22.6812 45.9185 22.4605 45.9417 22.2468 45.9839L17.4412 37.6396C17.2537 37.314 16.913 37.1326 16.5628 37.1326C16.3914 37.1326 16.2171 37.176 16.0583 37.2676C15.5735 37.5464 15.4067 38.1658 15.6859 38.6499ZM22.907 50.6899C23.6639 50.6899 24.2802 50.0735 24.2802 49.3167C24.2802 48.5601 23.6644 47.9443 22.907 47.9443C22.1505 47.9443 21.5342 48.5601 21.5342 49.3167C21.5342 50.074 22.1505 50.6899 22.907 50.6899ZM19.3813 21.2791L14.4054 29.4683C13.5834 29.2429 12.6768 29.323 11.8726 29.7649C10.2302 30.6675 9.62796 32.7378 10.5305 34.3801C11.4326 36.0225 13.5023 36.6248 15.1452 35.7227C16.788 34.8201 17.3903 32.7505 16.4877 31.1074C16.3788 30.9094 16.2528 30.7266 16.1122 30.5598L21.1119 22.3308C21.3069 22.0098 21.3024 21.6233 21.1341 21.3164C21.0514 21.1663 20.9295 21.0342 20.7722 20.939C20.295 20.6492 19.6721 20.8013 19.3813 21.2791ZM12.306 33.405C12.6703 34.0686 13.5069 34.3115 14.1701 33.9473C14.8343 33.5828 15.0772 32.7468 14.7128 32.083C14.3484 31.4199 13.5119 31.176 12.8482 31.5408C12.185 31.9053 11.9416 32.7417 12.306 33.405ZM35.6709 15.5632L26.0884 15.5532C25.8551 14.7336 25.3163 14 24.5216 13.5415C22.8989 12.605 20.8161 13.1628 19.8793 14.7856C18.9429 16.4089 19.5013 18.4917 21.124 19.428C22.7467 20.3643 24.8295 19.8059 25.7659 18.1838C25.8792 17.9878 25.9695 17.7847 26.0405 17.5786L35.6689 17.5886C36.0449 17.5886 36.3724 17.385 36.5478 17.0811C36.6335 16.9329 36.6829 16.76 36.6829 16.5762C36.6833 16.0178 36.2303 15.5637 35.6709 15.5632ZM21.6335 15.7991C21.255 16.4548 21.4808 17.2959 22.1359 17.6738C22.7916 18.0522 23.6331 17.8269 24.0111 17.1709C24.3896 16.5159 24.1638 15.6746 23.5082 15.2961C22.8525 14.9177 22.0114 15.1431 21.6335 15.7991ZM28.0538 49.4268C28.0538 49.6108 28.1031 49.7832 28.1888 49.9319C28.3642 50.2351 28.6923 50.4392 29.0682 50.4387L38.6966 50.4292C38.7672 50.6357 38.8574 50.8384 38.9708 51.0344C39.9071 52.6572 41.9899 53.2156 43.6131 52.2786C45.2358 51.3423 45.7942 49.2595 44.8574 47.6367C43.921 46.0137 41.8377 45.4553 40.215 46.3926C39.4208 46.8511 38.8816 47.5845 38.6487 48.4038L29.0662 48.4133C28.5063 48.4133 28.0533 48.8674 28.0538 49.4268ZM41.2275 48.1458C40.5718 48.5244 40.3466 49.366 40.7245 50.021C41.103 50.6768 41.9446 50.9023 42.6002 50.5234C43.2559 50.1455 43.4811 49.304 43.1031 48.6482C42.7242 47.9927 41.8826 47.7673 41.2275 48.1458ZM32.3378 36.1873C30.5034 36.1873 29.0108 34.6946 29.0108 32.8604C29.0108 31.0259 30.5034 29.5332 32.3378 29.5332C34.1727 29.5332 35.6649 31.0259 35.6649 32.8604C35.6649 34.6946 34.1727 36.1873 32.3378 36.1873ZM30.9011 32.8601C30.9011 32.0679 31.5456 31.4233 32.3378 31.4233C33.13 31.4233 33.7746 32.0679 33.7746 32.8601C33.7746 33.6523 33.13 34.2969 32.3378 34.2969C31.5456 34.2969 30.9011 33.6523 30.9011 32.8601ZM26.3832 33.8057C25.8606 33.8057 25.4378 33.3823 25.4378 32.8604C25.4378 29.0554 28.533 25.9602 32.3378 25.9602C32.8604 25.9602 33.2832 26.3831 33.2832 26.9055C33.2832 27.4272 32.8604 27.8506 32.3378 27.8506C29.5757 27.8506 27.3281 30.0977 27.3281 32.8604C27.3281 33.3823 26.9048 33.8057 26.3832 33.8057ZM31.3929 38.8152C31.3929 39.3374 31.8157 39.7603 32.3378 39.7603C36.1426 39.7603 39.2379 36.665 39.2374 32.8606C39.2374 32.3391 38.8145 31.9158 38.2924 31.9158C37.7704 31.9158 37.347 32.3386 37.347 32.8606C37.347 35.6228 35.0999 37.8704 32.3378 37.8704C31.8162 37.8704 31.3929 38.2937 31.3929 38.8152ZM22.977 33.8057C22.4554 33.8057 22.0321 33.3823 22.0321 32.8601C22.0321 27.1777 26.6558 22.554 32.3388 22.554C32.8609 22.554 33.2842 22.9773 33.2842 23.4988C33.2842 24.0215 32.8609 24.4443 32.3388 24.4443C27.6985 24.4443 23.9229 28.2192 23.9229 32.8596C23.9224 33.3823 23.4996 33.8057 22.977 33.8057ZM31.3934 42.2209C31.3934 42.7432 31.8157 43.1665 32.3383 43.1665C38.0208 43.1665 42.644 38.5432 42.644 32.8596C42.644 32.3381 42.2207 31.9148 41.6992 31.9148C41.1771 31.9148 40.7537 32.3376 40.7537 32.8596C40.7537 37.5 36.9787 41.2756 32.3383 41.2756C31.8163 41.2756 31.3934 41.699 31.3934 42.2209Z" fill="url(#paint0_linear)"/>
<defs>
<linearGradient id="paint0_linear" x2="1" gradientUnits="userSpaceOnUse" gradientTransform="translate(32.5 1.3926) scale(63.6074) rotate(90)">
<stop stop-color="#F12348"/>
<stop offset="1" stop-color="#302D95"/>
</linearGradient>
</defs>
</svg>
