<svg width="65" height="65" viewBox="0 0 65 65" fill="none" xmlns="http://www.w3.org/2000/svg">
<path fill-rule="evenodd" clip-rule="evenodd" d="M32.5 65C50.4492 65 65 50.4493 65 32.5C65 14.5507 50.4492 0 32.5 0C14.5508 0 0 14.5507 0 32.5C0 50.4493 14.5508 65 32.5 65ZM45.8013 48.0994C39.0514 37.312 34.2776 25.1591 31.9874 12.149C29.7388 24.9232 25.0957 36.8709 18.5388 47.5112C14.5162 43.7683 12 38.428 12 32.5C12 21.3578 20.8892 12.2919 31.9625 12.0069L32.0126 12.0057C32.1746 12.0019 32.337 12 32.5 12C43.8218 12 53 21.1782 53 32.5C53 38.7458 50.2068 44.3394 45.8013 48.0994ZM25.4642 51.7607C28.4303 44.7997 30.6392 37.438 31.9874 29.7793C33.3553 37.5496 35.6091 45.014 38.6406 52.0645C36.7019 52.6724 34.6392 53 32.5 53C30.0282 53 27.6584 52.5625 25.4642 51.7607Z" fill="url(#paint0_linear)"/>
<defs>
<linearGradient id="paint0_linear" x2="1" gradientUnits="userSpaceOnUse" gradientTransform="translate(65) scale(65) rotate(90)">
<stop stop-color="white"/>
<stop offset="1" stop-color="#8785FF"/>
</linearGradient>
</defs>
</svg>
