<svg width="65" height="65" viewBox="0 0 65 65" fill="none" xmlns="http://www.w3.org/2000/svg">
<path fill-rule="evenodd" clip-rule="evenodd" d="M32.5 0C14.5505 0 0 14.5508 0 32.5C0 50.4495 14.5505 65 32.5 65C50.4492 65 65 50.4495 65 32.5C65 14.5508 50.4492 0 32.5 0ZM30.9579 36.0261H40.2443C41.9091 36.0211 43.5037 35.355 44.6774 34.1742C45.851 32.9935 46.5076 31.3948 46.5026 29.73C46.5118 26.264 43.7102 23.4464 40.2443 23.436H37.2896L30.9556 17.9111H40.2443C45.879 17.9246 50.7141 21.929 51.7773 27.4625C52.8625 32.9978 49.8907 38.5298 44.6763 40.681L52 47.0737H43.6129L30.9579 36.0261ZM26.1998 28.9651H35.4885L22.8374 17.9111H14.4503L21.7677 24.3081C16.5532 26.4592 13.5814 31.9913 14.6667 37.5266C15.7299 43.0602 20.5651 47.0645 26.1998 47.0779H35.4863L29.1566 41.551H26.1998C22.7339 41.5405 19.9323 38.723 19.9415 35.257C19.9333 31.7918 22.7346 28.9755 26.1998 28.9651Z" fill="url(#paint0_linear)"/>
<defs>
<linearGradient id="paint0_linear" x1="0" y1="0" x2="0" y2="65" gradientUnits="userSpaceOnUse">
<stop stop-color="#5BC7AF"/>
<stop offset="1" stop-color="#2ED6A1"/>
</linearGradient>
</defs>
</svg>
