<svg width="65" height="65" viewBox="0 0 65 65" fill="none" xmlns="http://www.w3.org/2000/svg">
<path fill-rule="evenodd" clip-rule="evenodd" d="M29.6066 15.3943C29.6066 13.7964 30.9021 12.5007 32.5001 12.5007C34.0981 12.5007 35.3937 13.7964 35.3937 15.3943V25.9163L32.5001 27.5864L29.6066 25.916V15.3943ZM16.2393 26.4531C14.8554 25.6541 14.3813 23.8843 15.1802 22.5005C15.9793 21.1165 17.7487 20.6423 19.1329 21.4412L28.2449 26.7021V30.0432L25.3514 31.7139L16.2393 26.4531ZM29.6066 27.4883V29.2571L31.1385 28.3728L29.6066 27.4883ZM35.3936 37.5115V35.7427L33.8619 36.6272L35.3936 37.5115ZM29.6066 35.7429V37.5117L31.1385 36.6274L29.6066 35.7429ZM29.6066 49.6057V39.084L32.5001 37.4133L35.3937 39.084V49.6057C35.3937 51.2039 34.0981 52.4993 32.5001 52.4993C30.9021 52.4993 29.6066 51.2039 29.6066 49.6057ZM15.1802 42.4995C14.3813 41.1155 14.8554 39.3462 16.2393 38.5469L25.3514 33.2861L28.2449 34.9568V38.2976L19.1329 43.5588C17.7487 44.3577 15.9793 43.8835 15.1802 42.4995ZM28.245 33.3843V31.6155L26.713 32.4998L28.245 33.3843ZM49.8199 22.5005C49.0211 21.1165 47.2513 20.6423 45.8675 21.4412L36.7551 26.7024V30.0432L39.6487 31.7139L48.7608 26.4531C50.1447 25.6541 50.6191 23.8843 49.8199 22.5005ZM45.8676 43.5588L36.7552 38.2979V34.9568L39.6488 33.2861L48.7609 38.5469C50.1448 39.3462 50.6192 41.1157 49.8201 42.4995C49.0212 43.8838 47.2515 44.3577 45.8676 43.5588ZM36.7552 33.3843L38.2872 32.5L36.7552 31.6155V33.3843ZM29.6066 34.1707V30.8296L32.5001 29.1589L35.3937 30.8296V34.1707L32.5001 35.8413L29.6066 34.1707ZM35.3936 27.4883L33.8619 28.3726L35.3936 29.2571V27.4883ZM49.4416 37.368C51.4771 38.5429 52.1743 41.1453 50.9993 43.1805C49.8243 45.2157 47.2217 45.9131 45.1867 44.7381L36.7553 39.8702V49.6058C36.7553 51.956 34.8501 53.8609 32.5002 53.8609C30.1502 53.8609 28.245 51.956 28.245 49.6058V39.8702L19.8136 44.7381C17.7784 45.9131 15.176 45.2157 14.001 43.1805C12.8258 41.1453 13.5232 38.5429 15.5584 37.368L23.9898 32.5L15.5584 27.6324C13.5232 26.4574 12.8258 23.8548 14.001 21.8196C15.176 19.7844 17.7784 19.0872 19.8136 20.2622L28.245 25.1301V15.3946C28.245 13.0443 30.1502 11.1392 32.5002 11.1392C34.8501 11.1392 36.7553 13.0443 36.7553 15.3946V25.1301L45.1867 20.2622C47.2217 19.0872 49.8243 19.7844 50.9993 21.8196C52.1743 23.8548 51.4771 26.4574 49.4416 27.6324L41.0105 32.5L49.4416 37.368ZM32.5001 0C14.5506 0 0 14.5508 0 32.5C0 50.4494 14.5506 65 32.5001 65C50.4494 65 65 50.4494 65 32.5C65 14.5508 50.4494 0 32.5001 0Z" fill="url(#paint0_linear)"/>
<defs>
<linearGradient id="paint0_linear" x2="1" gradientUnits="userSpaceOnUse" gradientTransform="translate(32.5) scale(65) rotate(90)">
<stop stop-color="#B5A4A4"/>
<stop offset="1" stop-color="#686868"/>
</linearGradient>
</defs>
</svg>
