<svg width="65" height="65" viewBox="0 0 65 65" fill="none" xmlns="http://www.w3.org/2000/svg">
<path fill-rule="evenodd" clip-rule="evenodd" d="M13.2875 39.2807H26.8492V34.76H13.2875V39.2807ZM51.7124 39.2808V34.7601H42.6712V30.2398H56.2328V43.8014H33.6301V21.1987H56.2328V25.7191H38.1508V39.2808H51.7124ZM31.3698 43.8014H8.76709V30.2398H26.8494V21.1987H31.3698V43.8014ZM8.76709 27.9794H24.5891V21.1987H8.76709V27.9794ZM32.5 0C14.5508 0 0 14.5508 0 32.5C0 50.4492 14.5508 65 32.5 65C50.4494 65 65 50.4492 65 32.5C65 14.5508 50.4494 0 32.5 0Z" fill="url(#paint0_linear)"/>
<defs>
<linearGradient id="paint0_linear" x2="1" gradientUnits="userSpaceOnUse" gradientTransform="translate(32.5) scale(65) rotate(90)">
<stop stop-color="#FDE785"/>
<stop offset="1" stop-color="#F4D029"/>
</linearGradient>
</defs>
</svg>
