<svg width="70" height="70" viewBox="0 0 70 70" fill="none" xmlns="http://www.w3.org/2000/svg">
<path d="M35 70C54.33 70 70 54.33 70 35C70 15.67 54.33 0 35 0C15.67 0 0 15.67 0 35C0 54.33 15.67 70 35 70Z" fill="url(#paint0_linear)"/>
<path d="M32.367 47.8693H25.0924V22.1147H32.367V6.59619C25.3109 7.28398 18.7634 10.5735 13.9997 15.8241C9.23599 21.0747 6.59717 27.9105 6.59717 35C6.59717 42.0896 9.23599 48.9253 13.9997 54.176C18.7634 59.4266 25.3109 62.7161 32.367 63.4039V47.8693Z" fill="white"/>
<path d="M37.6008 6.59614V22.2923C38.6482 22.445 39.6756 22.7122 40.6647 23.0892C42.2736 23.6939 43.7482 24.6086 45.0047 25.7815C46.2118 26.9284 47.1688 28.3125 47.8154 29.8469C48.4852 31.4496 48.8222 33.1716 48.8062 34.9084V35C48.8216 36.742 48.4846 38.4692 47.8154 40.0777C47.1719 41.6169 46.2146 43.0051 45.0047 44.1538C43.7449 45.3223 42.2712 46.2365 40.6647 46.8461C39.6778 47.2334 38.6498 47.5063 37.6008 47.6592V63.3769C44.6569 62.6891 51.2044 59.3996 55.9681 54.149C60.7318 48.8984 63.3707 42.0626 63.3707 34.9731C63.3707 27.8835 60.7318 21.0478 55.9681 15.7971C51.2044 10.5465 44.6569 7.257 37.6008 6.56921V6.59614Z" fill="white"/>
<defs>
<linearGradient id="paint0_linear" x1="35" y1="70" x2="35" y2="0" gradientUnits="userSpaceOnUse">
<stop offset="0.02" stop-color="#00B7E8"/>
<stop offset="0.52" stop-color="#0FC0FC"/>
<stop offset="1" stop-color="#5ADCFF"/>
</linearGradient>
</defs>
</svg>
