<svg width="65" height="65" viewBox="0 0 65 65" fill="none" xmlns="http://www.w3.org/2000/svg">
<path fill-rule="evenodd" clip-rule="evenodd" d="M32.5 0C14.5506 0 0 14.5508 0 32.5C0 50.4494 14.5506 65 32.5 65C50.4492 65 65 50.4494 65 32.5C65 14.5508 50.4492 0 32.5 0ZM26.3332 24.0002V29.286H13.9999V24.0002H26.3332ZM28.0951 24.0002H31.6189V41.6193H13.9999V31.0479H28.0951V24.0002ZM17.5237 34.5715V38.0953H28.0951V34.5715H17.5237ZM50.9999 27.5241H36.9047V38.0955H47.4761V34.5717H40.4285V31.0479H50.9999V41.6193H33.3809V24.0002H50.9999V27.5241Z" fill="url(#paint0_linear)"/>
<defs>
<linearGradient id="paint0_linear" x2="1" gradientUnits="userSpaceOnUse" gradientTransform="translate(32.5) scale(65) rotate(90)">
<stop stop-color="#FDE785"/>
<stop offset="1" stop-color="#F4D029"/>
</linearGradient>
</defs>
</svg>
