<svg width="65" height="65" viewBox="0 0 65 65" fill="none" xmlns="http://www.w3.org/2000/svg">
<path fill-rule="evenodd" clip-rule="evenodd" d="M42.9798 25.0357C42.6166 24.7909 42.2153 24.6256 41.7765 24.5393C41.3375 24.4539 40.9061 24.4106 40.4828 24.4106H38.2125V30.9924H40.3465C41.3753 30.9924 42.2758 30.7293 43.048 30.2017C43.8198 29.6751 44.2059 28.823 44.2059 27.6462C44.2059 26.9847 44.0922 26.4456 43.8655 26.0286C43.6385 25.6121 43.3431 25.2811 42.9798 25.0357ZM44.6379 45.5161L40.3395 35.1473H38.2126V45.5161H31.2206V19.4836H41.5035C44.6138 19.4836 47.0301 20.1397 48.7518 21.4507C50.473 22.7625 51.3342 24.7175 51.3342 27.3154C51.3342 28.2715 51.1977 29.1299 50.9269 29.8891C50.6551 30.6495 50.3005 31.2992 49.8633 31.8378C49.4259 32.3775 48.9355 32.8186 48.3927 33.1617C47.8496 33.5053 47.3215 33.7501 46.8094 33.8969L52.2877 45.5161H44.6379ZM30.3578 45.5161H14.2852V19.4836H29.8129V24.6682H21.2318V29.7791H29.132V34.6326H21.2318V40.2213H30.3578V45.5161ZM32.5001 0C14.5509 0 0 14.5506 0 32.5C0 50.4492 14.5509 65 32.5001 65C50.4494 65 65 50.4492 65 32.5C65 14.5506 50.4494 0 32.5001 0Z" fill="url(#paint0_linear)"/>
<defs>
<linearGradient id="paint0_linear" x2="1" gradientUnits="userSpaceOnUse" gradientTransform="translate(7.21085 5.04185) scale(77.3746) rotate(41.6796)">
<stop stop-color="#70CE49"/>
<stop offset="0.981744" stop-color="#408FB2"/>
</linearGradient>
</defs>
</svg>
