<svg width="65" height="65" viewBox="0 0 65 65" fill="none" xmlns="http://www.w3.org/2000/svg">
<path fill-rule="evenodd" clip-rule="evenodd" d="M49.5724 47.6272C49.375 47.7192 49.1677 47.763 48.9638 47.763C48.4207 47.763 47.901 47.4548 47.6562 46.9306L32.8526 15.2085L18.3468 44.8794H42.0714C42.8674 44.8794 43.5129 45.5249 43.5129 46.3209C43.5129 47.1172 42.8674 47.7625 42.0714 47.7625H16.0375C15.54 47.7625 15.0779 47.5061 14.8145 47.0844C14.5511 46.6624 14.5239 46.1346 14.7425 45.688L31.588 11.2312C31.8318 10.7321 32.3434 10.4242 32.8961 10.4229C33.4513 10.4278 33.9545 10.7515 34.1893 11.2547L50.269 45.7113C50.6056 46.4329 50.2937 47.2907 49.5724 47.6272ZM32.5001 0C14.5506 0 0 14.5506 0 32.5C0 50.4492 14.5506 65 32.5001 65C50.4494 65 65 50.4492 65 32.5C65 14.5506 50.4494 0 32.5001 0Z" fill="url(#paint0_linear)"/>
<defs>
<linearGradient id="paint0_linear" x2="1" gradientUnits="userSpaceOnUse" gradientTransform="translate(32.5) scale(65) rotate(90)">
<stop stop-color="#EFA893"/>
<stop offset="1" stop-color="#753DB2"/>
</linearGradient>
</defs>
</svg>
