<svg width="65" height="65" viewBox="0 0 65 65" fill="none" xmlns="http://www.w3.org/2000/svg">
<path fill-rule="evenodd" clip-rule="evenodd" d="M32.5 0C14.5506 0 0 14.5508 0 32.5C0 50.4494 14.5506 65 32.5 65C50.4492 65 65 50.4494 65 32.5C65 14.5508 50.4492 0 32.5 0ZM8.30072 26.1154H13.0556C14.1279 26.1154 14.9452 26.1974 15.5078 26.3615C16.2636 26.5841 16.9111 26.9796 17.4501 27.548C17.9892 28.1163 18.3994 28.8121 18.6806 29.6354C18.9619 30.4586 19.1025 31.4737 19.1025 32.6808C19.1025 33.7413 18.9706 34.6554 18.707 35.423C18.3847 36.3605 17.9247 37.1193 17.3271 37.6993C16.8759 38.1388 16.2665 38.4816 15.499 38.7277C14.9247 38.9093 14.1572 39.0001 13.1962 39.0001H8.30072V26.1154ZM10.9023 28.295V36.8292H12.8447C13.5712 36.8292 14.0956 36.7882 14.4179 36.7062C14.8398 36.6007 15.1899 36.422 15.4682 36.17C15.7465 35.9181 15.9736 35.5035 16.1494 34.9264C16.3251 34.3492 16.413 33.5626 16.413 32.5665C16.413 31.5704 16.3251 30.8058 16.1494 30.2726C15.9736 29.7394 15.7275 29.3234 15.4111 29.0245C15.0947 28.7257 14.6933 28.5236 14.207 28.4181C13.8437 28.3361 13.1318 28.295 12.0712 28.295H10.9023ZM21.3173 39.0001V26.1154H26.7929C28.1699 26.1154 29.1703 26.2311 29.7944 26.4625C30.4184 26.694 30.9179 27.1056 31.2929 27.6974C31.6679 28.2892 31.8554 28.9659 31.8554 29.7277C31.8554 30.6945 31.5712 31.4928 31.0029 32.1227C30.4345 32.7526 29.5849 33.1495 28.454 33.3136C29.0165 33.6417 29.4809 34.0021 29.8471 34.3947C30.2133 34.7872 30.707 35.4845 31.3281 36.4865L32.9013 39.0001H29.79L27.9091 36.1964C27.2411 35.1945 26.7841 34.5631 26.538 34.3024C26.2919 34.0416 26.0312 33.8629 25.7558 33.7662C25.4804 33.6696 25.0439 33.6212 24.4462 33.6212H23.9189V39.0001H21.3173ZM23.9189 31.5646H25.8437C27.0917 31.5646 27.871 31.5118 28.1816 31.4064C28.4921 31.3009 28.7353 31.1193 28.9111 30.8615C29.0869 30.6036 29.1747 30.2814 29.1747 29.8947C29.1747 29.4611 29.059 29.111 28.8276 28.8444C28.5961 28.5778 28.2695 28.4093 27.8476 28.339C27.6367 28.3097 27.0039 28.295 25.9492 28.295H23.9189V31.5646ZM33.7802 32.6368C33.7802 31.3243 33.9765 30.2228 34.3691 29.3322C34.662 28.6759 35.0619 28.087 35.5688 27.5656C36.0756 27.0441 36.6308 26.6574 37.2343 26.4054C38.0371 26.0655 38.9628 25.8956 40.0117 25.8956C41.9101 25.8956 43.4291 26.4845 44.5688 27.6622C45.7084 28.84 46.2783 30.4776 46.2783 32.5753C46.2783 34.6554 45.7128 36.2828 44.582 37.4576C43.4511 38.6325 41.9394 39.2198 40.0468 39.2198C38.1308 39.2198 36.6074 38.6354 35.4765 37.4664C34.3456 36.2975 33.7802 34.6876 33.7802 32.6368ZM36.4609 32.549C36.4609 34.0079 36.7978 35.1139 37.4716 35.8668C38.1455 36.6198 39.0009 36.9962 40.038 36.9962C41.0751 36.9962 41.9262 36.6227 42.5912 35.8756C43.2563 35.1285 43.5888 34.0079 43.5888 32.5138C43.5888 31.0372 43.2651 29.9357 42.6176 29.2091C41.9701 28.4825 41.1103 28.1193 40.038 28.1193C38.9658 28.1193 38.1015 28.4869 37.4453 29.2223C36.789 29.9576 36.4609 31.0665 36.4609 32.549ZM48.3085 39.0001V26.1154H52.4833C54.0654 26.1154 55.0966 26.1798 55.5771 26.3087C56.3154 26.5021 56.9335 26.9225 57.4316 27.5699C57.9296 28.2174 58.1786 29.0538 58.1786 30.0792C58.1786 30.8702 58.0351 31.5353 57.748 32.0743C57.4609 32.6134 57.0961 33.0367 56.6537 33.3444C56.2114 33.652 55.7617 33.8556 55.3046 33.9552C54.6835 34.0782 53.7841 34.1398 52.6064 34.1398H50.9101V39.0001H48.3085ZM50.9101 28.295V31.9513H52.3339C53.3593 31.9513 54.0449 31.8839 54.3906 31.7491C54.7363 31.6144 55.0073 31.4034 55.2036 31.1163C55.3998 30.8292 55.498 30.4952 55.498 30.1144C55.498 29.6456 55.3603 29.2589 55.0849 28.9542C54.8095 28.6495 54.4609 28.4591 54.039 28.3829C53.7285 28.3243 53.1044 28.295 52.1669 28.295H50.9101Z" fill="url(#paint0_linear)"/>
<defs>
<linearGradient id="paint0_linear" x2="1" gradientUnits="userSpaceOnUse" gradientTransform="translate(32.5) scale(65) rotate(90)">
<stop stop-color="white"/>
<stop offset="1" stop-color="#8785FF"/>
</linearGradient>
</defs>
</svg>
