<svg width="65" height="65" viewBox="0 0 65 65" fill="none" xmlns="http://www.w3.org/2000/svg">
<path fill-rule="evenodd" clip-rule="evenodd" d="M32.5 0C14.5506 0 0 14.5508 0 32.5C0 50.4494 14.5506 65 32.5 65C50.4492 65 65 50.4494 65 32.5C65 14.5508 50.4492 0 32.5 0ZM8.30066 26.1155H13.0555C14.1278 26.1155 14.9452 26.1975 15.5077 26.3616C16.2636 26.5842 16.911 26.9797 17.4501 27.5481C17.9891 28.1165 18.3993 28.8123 18.6805 29.6355C18.9618 30.4587 19.1024 31.4739 19.1024 32.6809C19.1024 33.7415 18.9706 34.6555 18.7069 35.4231C18.3846 36.3606 17.9247 37.1194 17.327 37.6995C16.8759 38.1389 16.2665 38.4817 15.4989 38.7278C14.9247 38.9094 14.1571 39.0002 13.1962 39.0002H8.30066V26.1155ZM10.9022 28.2952V36.8293H12.8446C13.5712 36.8293 14.0956 36.7883 14.4178 36.7063C14.8397 36.6008 15.1898 36.4221 15.4681 36.1702C15.7465 35.9182 15.9735 35.5037 16.1493 34.9265C16.3251 34.3494 16.413 33.5627 16.413 32.5667C16.413 31.5706 16.3251 30.8059 16.1493 30.2727C15.9735 29.7395 15.7274 29.3235 15.411 29.0247C15.0946 28.7258 14.6932 28.5237 14.2069 28.4182C13.8436 28.3362 13.1317 28.2952 12.0712 28.2952H10.9022ZM21.3173 39.0002V26.1155H26.7928C28.1698 26.1155 29.1703 26.2312 29.7943 26.4626C30.4183 26.6941 30.9178 27.1057 31.2928 27.6975C31.6678 28.2893 31.8553 28.9661 31.8553 29.7278C31.8553 30.6946 31.5712 31.4929 31.0028 32.1228C30.4344 32.7527 29.5848 33.1497 28.454 33.3137C29.0165 33.6418 29.4808 34.0022 29.847 34.3948C30.2133 34.7874 30.7069 35.4846 31.328 36.4866L32.9012 39.0002H29.7899L27.9091 36.1965C27.2411 35.1946 26.7841 34.5632 26.538 34.3025C26.2919 34.0417 26.0311 33.863 25.7557 33.7664C25.4803 33.6697 25.0438 33.6213 24.4462 33.6213H23.9188V39.0002H21.3173ZM23.9188 31.5647H25.8436C27.0917 31.5647 27.871 31.512 28.1815 31.4065C28.4921 31.301 28.7352 31.1194 28.911 30.8616C29.0868 30.6038 29.1747 30.2815 29.1747 29.8948C29.1747 29.4612 29.059 29.1111 28.8275 28.8445C28.5961 28.5779 28.2694 28.4094 27.8475 28.3391C27.6366 28.3098 27.0038 28.2952 25.9491 28.2952H23.9188V31.5647ZM33.7802 32.637C33.7802 31.3245 33.9764 30.2229 34.369 29.3323C34.662 28.676 35.0619 28.0872 35.5687 27.5657C36.0756 27.0442 36.6307 26.6575 37.2343 26.4055C38.037 26.0657 38.9628 25.8958 40.0116 25.8958C41.91 25.8958 43.4291 26.4846 44.5687 27.6624C45.7084 28.8401 46.2782 30.4778 46.2782 32.5754C46.2782 34.6555 45.7128 36.283 44.5819 37.4578C43.451 38.6326 41.9393 39.22 40.0468 39.22C38.1307 39.22 36.6073 38.6355 35.4764 37.4666C34.3456 36.2976 33.7802 34.6878 33.7802 32.637ZM36.4608 32.5491C36.4608 34.0081 36.7977 35.114 37.4716 35.8669C38.1454 36.6199 39.0009 36.9963 40.038 36.9963C41.0751 36.9963 41.9261 36.6228 42.5912 35.8757C43.2562 35.1287 43.5887 34.0081 43.5887 32.5139C43.5887 31.0373 43.265 29.9358 42.6176 29.2092C41.9701 28.4827 41.1102 28.1194 40.038 28.1194C38.9657 28.1194 38.1014 28.4871 37.4452 29.2224C36.7889 29.9578 36.4608 31.0666 36.4608 32.5491ZM48.3085 39.0002V26.1155H52.4833C54.0653 26.1155 55.0966 26.1799 55.577 26.3088C56.3153 26.5022 56.9335 26.9226 57.4315 27.5701C57.9296 28.2175 58.1786 29.0539 58.1786 30.0793C58.1786 30.8704 58.035 31.5354 57.7479 32.0745C57.4608 32.6135 57.0961 33.0369 56.6537 33.3445C56.2113 33.6521 55.7616 33.8557 55.3046 33.9553C54.6835 34.0784 53.7841 34.1399 52.6063 34.1399H50.91V39.0002H48.3085ZM50.91 28.2952V31.9514H52.3339C53.3593 31.9514 54.0448 31.884 54.3905 31.7493C54.7362 31.6145 55.0072 31.4036 55.2035 31.1165C55.3998 30.8293 55.4979 30.4954 55.4979 30.1145C55.4979 29.6458 55.3602 29.259 55.0848 28.9543C54.8094 28.6497 54.4608 28.4592 54.0389 28.3831C53.7284 28.3245 53.1044 28.2952 52.1669 28.2952H50.91Z" fill="url(#paint0_linear)"/>
<defs>
<linearGradient id="paint0_linear" x2="1" gradientUnits="userSpaceOnUse" gradientTransform="translate(32.5) scale(65) rotate(90)">
<stop stop-color="#ACACAC"/>
<stop offset="1" stop-color="#555555"/>
</linearGradient>
</defs>
</svg>
