<svg width="65" height="65" viewBox="0 0 65 65" fill="none" xmlns="http://www.w3.org/2000/svg">
<path fill-rule="evenodd" clip-rule="evenodd" d="M32.5 0C14.5505 0 0 14.5508 0 32.5C0 50.4495 14.5505 65 32.5 65C50.4492 65 65 50.4495 65 32.5C65 14.5508 50.4492 0 32.5 0ZM27.9962 18.3079C28.7607 17.1799 29.5229 16.05 30.2852 14.9202L30.3369 14.8435L30.3893 14.7659L30.4031 14.7454L30.4557 14.6675C31.4814 13.1472 32.5073 11.627 33.5394 10.1113C34.2709 11.1921 35.3845 12.8359 36.667 14.7288L37.2992 15.6619L37.7629 16.3462C41.8962 22.4465 47.0471 30.0488 47.2244 30.3308C48.6761 32.6079 49.5419 35.2563 49.7051 37.9521C49.8448 40.1406 49.5428 42.3579 48.8021 44.4226C47.7595 47.3555 45.8414 49.967 43.3644 51.8501C42.0359 52.8635 40.5586 53.6653 38.9849 54.2268C38.1705 54.5093 37.3381 54.7549 36.4856 54.8867C37.9816 54.3782 39.3478 53.489 40.4037 52.312C42.4277 50.0771 43.2286 46.9924 42.5474 44.0554C42.3477 43.1704 41.9987 42.3228 41.5513 41.5349C41.3201 41.1201 38.0413 36.293 35.4896 32.5364L35.0974 31.959L34.791 31.5078C34.3224 30.8176 33.8956 30.189 33.5397 29.6636C33.0065 30.4377 31.1851 33.135 29.4318 35.7314L29.3192 35.8982L29.2662 35.9768C28.0016 37.8499 26.7949 39.637 26.1603 40.5715C24.7384 42.4458 24.0667 44.8752 24.3541 47.2124C24.5389 48.8455 25.1826 50.4219 26.1818 51.7258C27.3077 53.1985 28.8488 54.3 30.6064 54.8892C30.2616 54.8477 29.9241 54.7627 29.5872 54.678L29.5852 54.6775L29.5833 54.677L29.5813 54.6765L29.5793 54.676L29.5714 54.6741C29.4855 54.6521 29.3995 54.6304 29.3135 54.6094C26.9238 53.9646 24.714 52.7803 22.8536 51.1475C20.6104 49.1865 18.921 46.5959 18.0502 43.7451C17.7677 42.8267 17.5677 41.885 17.4525 40.9309C17.4243 40.7161 17.4565 40.4973 17.5457 40.2996C17.7279 39.8826 18.1665 39.5969 18.6217 39.5969C18.8439 39.5957 19.0662 39.5959 19.2883 39.5962H19.3717C19.8092 39.5969 20.2466 39.5977 20.6842 39.5881C20.7711 39.5854 20.8595 39.5872 20.9482 39.5889C21.2283 39.5945 21.5122 39.6001 21.7644 39.4644C22.1661 39.2703 22.4207 38.8318 22.4177 38.3896V35.489C22.4067 35.033 22.7039 34.595 23.1183 34.4131C23.3325 34.3162 23.5714 34.3013 23.8027 34.3025C24.2566 34.3032 24.7107 34.3032 25.1648 34.3032C25.6188 34.3032 26.0728 34.3032 26.5267 34.3042C26.9169 34.3066 27.2823 34.1138 27.501 33.7908C27.6436 33.5835 27.7061 33.3293 27.7078 33.0798L27.7073 32.1123C27.7068 31.467 27.7063 30.8218 27.7078 30.1768C27.7118 29.729 28.0029 29.3057 28.4115 29.1289C28.6166 29.0325 28.8469 29.0151 29.0704 29.022C29.5151 29.0229 29.9598 29.0229 30.4045 29.0229H30.6268C31.0304 29.0227 31.4338 29.0227 31.8374 29.0232C32.4419 29.0293 32.9774 28.499 32.9943 27.8984C32.9973 27.3528 32.9969 26.8069 32.9966 26.261V26.2063C32.9962 25.7896 32.9958 25.3726 32.9969 24.9558C33.0026 24.5125 32.7424 24.0752 32.3417 23.8811C32.157 23.7915 31.9531 23.7485 31.748 23.7563C31.2798 23.7573 30.8114 23.7573 30.343 23.7573C29.9332 23.7571 29.5234 23.7571 29.1136 23.7578C28.8727 23.7615 28.6228 23.7517 28.4008 23.6482C27.9912 23.4658 27.7067 23.0371 27.7067 22.5876C27.7045 21.5625 27.7058 20.5374 27.7107 19.512C27.712 19.4487 27.7112 19.385 27.7103 19.321C27.7076 19.1128 27.7048 18.9023 27.7761 18.7041C27.8245 18.5593 27.9109 18.4326 27.9962 18.3079ZM19.5177 19.7412C19.4155 19.7407 19.3129 19.7402 19.2125 19.7595C18.951 19.8188 18.7546 20.0759 18.7629 20.3438C18.7611 21.2375 18.7611 22.1311 18.7629 23.0244C18.7479 23.3501 19.0403 23.6416 19.3647 23.6316C20.2592 23.6326 21.1541 23.6326 22.0497 23.6316C22.374 23.644 22.6696 23.3538 22.6542 23.0271C22.6559 22.1326 22.6559 21.2378 22.6542 20.343C22.666 20.0349 22.4011 19.7466 22.0908 19.7451C21.6228 19.74 21.1547 19.741 20.6864 19.7419C20.3202 19.7427 19.954 19.7434 19.5878 19.7412H19.5177ZM23.2946 23.7561C24.0953 23.7432 24.8966 23.7451 25.698 23.7471C26.1938 23.7483 26.6898 23.7495 27.1857 23.7471C27.5826 23.729 27.9501 24.0737 27.9501 24.4722C27.9536 25.7451 27.9536 27.0186 27.9501 28.292C27.9561 28.6758 27.6173 29.0361 27.2286 29.0276C26.616 29.0291 26.0033 29.0288 25.3905 29.0286C24.7581 29.0283 24.1254 29.0281 23.4929 29.0298C23.3553 29.0298 23.2114 29.0298 23.0863 28.9648C22.8131 28.8425 22.6434 28.5461 22.6534 28.2498V24.5144C22.6407 24.1472 22.9271 23.8 23.2946 23.7561ZM16.5989 23.8733H16.5876C16.2323 23.8704 15.8776 23.8674 15.5238 23.8875C15.3055 23.939 15.1515 24.1592 15.1678 24.3816L15.1672 25.0125C15.1666 25.4329 15.166 25.8533 15.1678 26.2739C15.1577 26.53 15.3802 26.7583 15.6353 26.7583C15.9563 26.7656 16.277 26.7644 16.5975 26.7632C16.848 26.7622 17.0986 26.7612 17.3491 26.7644L17.4127 26.7639C17.5713 26.7634 17.7404 26.7629 17.869 26.6611C18.0029 26.5623 18.0631 26.3933 18.0601 26.2312L18.0598 25.6299C18.0594 25.2288 18.0592 24.8274 18.0601 24.4265C18.0684 24.2512 18.0048 24.0674 17.8567 23.9636C17.7356 23.8672 17.5817 23.8699 17.4327 23.8726H17.4309C17.3882 23.8735 17.3458 23.8743 17.3048 23.8728C17.0775 23.8772 16.8502 23.8755 16.6232 23.8735L16.5989 23.8733ZM17.6344 29.0696C17.7687 29.0266 17.9114 29.0249 18.0515 29.0249C18.5613 29.0271 19.071 29.0266 19.5809 29.0261H19.6986C20.3647 29.0254 21.0309 29.0247 21.6969 29.0293C22.0735 29.033 22.4147 29.3596 22.4189 29.7388C22.422 30.428 22.4216 31.1174 22.4213 31.8066C22.4209 32.3472 22.4207 32.8877 22.422 33.4282C22.4265 33.6091 22.418 33.8008 22.3141 33.9568C22.1812 34.1868 21.9155 34.3218 21.6521 34.3171C20.3926 34.3164 19.1332 34.3164 17.8738 34.3171C17.4707 34.325 17.1156 33.9651 17.1295 33.563C17.1255 32.6348 17.1265 31.7068 17.1274 30.7788L17.1282 29.8252C17.1102 29.4973 17.3185 29.1702 17.6344 29.0696ZM41.595 43.5054C40.2316 44.6802 38.6444 45.5994 36.9354 46.1697C33.924 47.1873 30.5586 47.1147 27.5946 45.9656C26.7932 45.6641 26.0348 45.2654 25.2959 44.834C25.1163 46.0635 25.2012 47.3342 25.5668 48.5237C26.3674 51.1321 28.3818 53.1909 30.9722 54.0483C33.0044 54.7234 35.2927 54.582 37.2227 53.6531C38.7128 52.9419 39.9612 51.8088 40.8132 50.3948C42.051 48.356 42.3562 45.7681 41.595 43.5054Z" fill="url(#paint0_linear)"/>
<defs>
<linearGradient id="paint0_linear" x2="1" gradientUnits="userSpaceOnUse" gradientTransform="translate(32.5) scale(65) rotate(90)">
<stop stop-color="#56A6DD"/>
<stop offset="1" stop-color="#5D2A74"/>
</linearGradient>
</defs>
</svg>
