<svg width="65" height="65" viewBox="0 0 65 65" fill="none" xmlns="http://www.w3.org/2000/svg">
<path fill-rule="evenodd" clip-rule="evenodd" d="M0 32.5C0 14.5508 14.5505 0 32.5 0C50.4492 0 65 14.5508 65 32.5C65 50.4495 50.4492 65 32.5 65C14.5505 65 0 50.4495 0 32.5ZM53.0673 40.3005L27.6195 54.8684L20.7627 51.0869L20.7628 51.071L14.4443 47.0996V18.0078L18.4165 15.7083L27.6566 10.1113L53.0439 24.7727L53.136 33.176L53.0419 33.2271L53.0673 40.3005ZM28.1471 18.8748L45.7765 28.9744V35.0178L28.1243 24.8801L28.1471 18.8748ZM28.1191 26.2385L28.0707 38.9751L39.1222 32.4209L28.1191 26.2385ZM27.1483 39.5222V18.9282L21.8093 22.0586V42.6885L27.1483 39.5222ZM20.889 43.2341V22.0586L15.5487 18.9282V46.3621L20.781 49.4292L20.8492 43.2578L20.889 43.2341ZM45.6477 36.0874L27.6442 46.4734L22.426 43.4294L40.3237 33.0959L45.6477 36.0874Z" fill="url(#paint0_linear)"/>
<defs>
<linearGradient id="paint0_linear" x2="1" gradientUnits="userSpaceOnUse" gradientTransform="translate(32.5 2.01182) scale(62.9882) rotate(90)">
<stop stop-color="#70D463"/>
<stop offset="1" stop-color="#2470D4"/>
</linearGradient>
</defs>
</svg>
