<svg width="65" height="65" viewBox="0 0 65 65" fill="none" xmlns="http://www.w3.org/2000/svg">
<path fill-rule="evenodd" clip-rule="evenodd" d="M31.3401 29.4177C30.5842 29.7141 29.7214 29.7822 28.9576 29.4778C28.2078 29.1892 27.6317 28.4753 27.5407 27.6641C27.4658 27.0645 27.6458 26.4653 27.9147 25.9402C28.2492 25.1968 28.8111 24.5974 29.3969 24.0422C30.5289 22.9883 31.5023 21.7817 32.379 20.5129C32.5135 20.5591 32.6044 20.6492 32.6639 20.7795C33.3902 22.1304 34.4092 23.2988 35.4736 24.3911C36.1624 25.0664 36.673 25.9463 36.8452 26.9104C37.0706 27.9807 36.4413 29.165 35.4283 29.5518C34.686 29.8403 33.8253 29.7861 33.1129 29.4375C33.0858 29.4282 33.0551 29.4143 33.0225 29.3997C32.8934 29.3418 32.7365 29.2712 32.6718 29.4216C32.7941 30.262 33.195 31.0085 33.5876 31.74L33.7068 31.9626C33.7898 32.1008 33.6806 32.2061 33.5834 32.2998C33.5578 32.3245 33.5331 32.3484 33.5129 32.3718C33.3383 32.5334 33.174 32.7075 33.0095 32.8816C32.7581 33.1475 32.5062 33.4141 32.2168 33.6382C32.1101 33.6038 32.0289 33.5186 31.9509 33.437C31.9246 33.4094 31.8987 33.3823 31.8724 33.3577C31.6853 33.1609 31.4932 32.9673 31.3008 32.7734C31.0699 32.5408 30.8383 32.3074 30.6138 32.0669C30.6092 32.0496 30.6047 32.0164 30.6004 31.9858C30.5974 31.9639 30.5945 31.9431 30.592 31.9307C30.6842 31.7654 30.7813 31.6008 30.8787 31.4355C31.2647 30.781 31.657 30.116 31.7754 29.3574C31.6249 29.3354 31.4766 29.3574 31.3401 29.4177ZM35.4856 39.4705C36.4216 40.2683 37.9136 40.1619 38.7822 39.3181C39.6291 38.4905 39.8231 37.0493 39.1641 36.0474C38.7445 35.3638 37.9729 34.939 37.1795 34.917C36.4472 34.8569 35.7131 35.1594 35.1946 35.6765C34.9183 35.9644 34.6379 36.2463 34.3576 36.5283C34.076 36.8115 33.7944 37.0947 33.5167 37.384C33.522 37.4092 33.5272 37.4546 33.5319 37.4954L33.5385 37.5503C33.8218 37.8142 34.09 38.0938 34.3583 38.3733C34.7216 38.752 35.0849 39.1304 35.4856 39.4705ZM34.2213 34.0212C35.2243 33.0952 36.6946 32.8228 37.9965 33.0874C40.0349 33.49 41.5485 35.5986 41.4061 37.6865C41.3387 39.0073 40.6799 40.312 39.5995 41.0637C38.8654 41.573 37.9965 41.9355 37.0962 41.9136C35.9131 41.9597 34.7515 41.4287 33.9125 40.6008C33.1711 39.8574 32.4414 39.1021 31.7116 38.3464C30.8852 37.491 30.0587 36.6355 29.215 35.7969C28.7497 35.2959 28.1207 34.9309 27.4319 34.887C26.9452 34.865 26.4506 34.9851 26.0092 35.2056C25.3265 35.5706 24.8694 36.2981 24.7588 37.0654C24.6162 37.8772 24.9089 38.7571 25.5144 39.3123C26.4506 40.2158 28.0929 40.208 29.005 39.282C29.0589 39.2363 29.1121 39.1799 29.1664 39.1221C29.3456 38.9319 29.538 38.7275 29.8143 38.8491C29.9572 38.9353 30.0723 39.0586 30.1872 39.1816C30.2538 39.2532 30.3203 39.3245 30.3923 39.3884C30.4306 39.4329 30.4742 39.4753 30.5183 39.5183C30.6471 39.6436 30.7797 39.7727 30.7959 39.9656C30.7959 40.1697 30.6514 40.3064 30.5128 40.438C30.4759 40.4729 30.4395 40.5073 30.4062 40.5427C29.9866 40.9836 29.4998 41.3545 28.9301 41.583C27.8277 42.0156 26.5554 42.0239 25.4612 41.5527C23.7298 40.771 22.6138 38.7751 22.8908 36.863C23.0866 35.5024 23.89 34.2197 25.095 33.5662C26.2346 32.8748 27.6872 32.7847 28.9023 33.3079C28.9788 33.3376 29.0096 33.3579 29.055 33.3875L29.096 33.4138C29.486 33.5662 29.8222 33.8169 30.137 34.0974C30.4741 34.3884 30.7805 34.7114 31.087 35.0344C31.4284 35.394 31.7697 35.7537 32.1533 36.0693C32.4725 35.7668 32.7806 35.4519 33.0886 35.1372C33.4603 34.7571 33.8316 34.3774 34.2213 34.0212ZM50.4214 40.6067C50.1208 41.9497 49.4105 43.202 48.4129 44.1361C47.9399 44.5911 47.3483 44.8857 46.7864 45.2204C42.9634 47.4448 39.1504 49.6755 35.3293 51.9062C34.1617 52.5294 32.7825 52.6359 31.4865 52.4755C30.8118 52.385 30.1527 52.1869 29.5611 51.8459C25.5384 49.5012 21.5134 47.1483 17.4905 44.8034C16.5092 44.2564 15.7751 43.3545 15.2349 42.3824C14.7935 41.5405 14.4709 40.6148 14.4709 39.6508V25.241C14.5461 23.838 15.1675 22.5091 16.0521 21.4469C16.4101 21 16.8455 20.6131 17.3322 20.3164C21.0721 18.1379 24.8101 15.9536 28.5499 13.7669C29.1653 13.4262 29.749 13.0095 30.4161 12.7809C31.524 12.4242 32.7152 12.3702 33.8928 12.5846C34.4091 12.7287 34.9336 12.8813 35.3985 13.1536C39.4671 15.5426 43.5432 17.9117 47.6115 20.3026C48.6978 20.946 49.4933 22.0161 50.0099 23.1626C50.3383 23.8841 50.5262 24.6796 50.5262 25.4774V38.8249C50.5262 39.4183 50.5561 40.0235 50.4214 40.6067ZM32.5 0C14.5508 0 0 14.5508 0 32.5C0 50.4494 14.5508 65 32.5 65C50.4492 65 65 50.4494 65 32.5C65 14.5508 50.4492 0 32.5 0Z" fill="url(#paint0_linear)"/>
<defs>
<linearGradient id="paint0_linear" x2="1" gradientUnits="userSpaceOnUse" gradientTransform="translate(32.5) scale(65) rotate(90)">
<stop stop-color="#BD83FF"/>
<stop offset="1" stop-color="#682BAC"/>
</linearGradient>
</defs>
</svg>
