<svg width="65" height="65" viewBox="0 0 65 65" fill="none" xmlns="http://www.w3.org/2000/svg">
<path fill-rule="evenodd" clip-rule="evenodd" d="M53.1575 34.0685L39.693 47.533L33.8954 41.7354L49.458 26.1729L53.1575 29.8723C54.3162 31.0311 54.3162 32.9098 53.1575 34.0685ZM34.0459 53.1216C32.8869 54.2803 31.0084 54.2803 29.8495 53.1216L26.1696 49.4224L31.9475 43.6245L37.7451 49.4224L34.0459 53.1216ZM17.9605 41.1392L33.4989 25.6008L39.2944 31.3966L23.7563 46.935L17.9605 41.1392ZM11.8292 35.0685C10.6778 33.9027 10.6896 32.024 11.8554 30.8726L15.5549 27.1729L21.3525 32.9707L15.5287 38.7683L11.8292 35.0685ZM30.8103 11.8786C31.9693 10.7198 33.8478 10.7198 35.0068 11.8786L38.706 15.5846L23.1435 31.1406L17.3459 25.343L30.8103 11.8786ZM46.9287 23.7638L41.1329 29.5592L35.3375 23.7638L41.1329 17.968L46.9287 23.7638ZM32.5 0C14.5506 0 0 14.5508 0 32.5C0 50.4492 14.5506 65 32.5 65C50.4492 65 65 50.4492 65 32.5C65 14.5508 50.4492 0 32.5 0Z" fill="url(#paint0_linear)"/>
<defs>
<linearGradient id="paint0_linear" x2="1" gradientUnits="userSpaceOnUse" gradientTransform="translate(32.5) scale(65) rotate(90)">
<stop stop-color="#ACACAC"/>
<stop offset="1" stop-color="#555555"/>
</linearGradient>
</defs>
</svg>
