<svg width="65" height="65" viewBox="0 0 65 65" fill="none" xmlns="http://www.w3.org/2000/svg">
<path fill-rule="evenodd" clip-rule="evenodd" d="M32.5 0C14.5506 0 0 14.5508 0 32.5C0 50.4494 14.5506 65 32.5 65C50.4492 65 65 50.4494 65 32.5C65 14.5508 50.4492 0 32.5 0ZM14.455 40.0002V25.6838H25.0702V28.1057H17.3456V31.2795H24.5331V33.6917H17.3456V37.5881H25.3436V40.0002H14.455ZM27.8046 40.0002V25.6838H30.6952V31.3186H36.3593V25.6838H39.2499V40.0002H36.3593V33.7405H30.6952V40.0002H27.8046ZM45.4608 40.0002V28.1057H41.2128V25.6838H52.5897V28.1057H48.3514V40.0002H45.4608Z" fill="url(#paint0_linear)"/>
<defs>
<linearGradient id="paint0_linear" x2="1" gradientUnits="userSpaceOnUse" gradientTransform="translate(32.5) scale(65) rotate(90)">
<stop stop-color="#ACACAC"/>
<stop offset="1" stop-color="#555555"/>
</linearGradient>
</defs>
</svg>
