<svg width="65" height="65" viewBox="0 0 65 65" fill="none" xmlns="http://www.w3.org/2000/svg">
<path fill-rule="evenodd" clip-rule="evenodd" d="M0 32.5C0 14.5508 14.5505 0 32.5 0C50.4492 0 65 14.5508 65 32.5C65 50.4495 50.4492 65 32.5 65C14.5505 65 0 50.4495 0 32.5ZM56.3333 32.4966C56.3333 37.6782 52.1326 41.8789 46.9507 41.8789C41.7689 41.8789 37.5682 37.6782 37.5682 32.4966C37.5682 27.3147 41.7689 23.114 46.9507 23.114C52.1326 23.114 56.3333 27.3147 56.3333 32.4966ZM35.0945 19.5928C37.5931 19.5928 39.6187 17.5674 39.6187 15.0688C39.6187 12.5701 37.5931 10.5447 35.0945 10.5447C32.5959 10.5447 30.5704 12.5701 30.5704 15.0688C30.5704 17.5674 32.5959 19.5928 35.0945 19.5928ZM39.6187 49.9465C39.6187 52.4451 37.5931 54.4705 35.0945 54.4705C32.5959 54.4705 30.5704 52.4451 30.5704 49.9465C30.5704 47.4478 32.5959 45.4224 35.0945 45.4224C37.5931 45.4224 39.6187 47.4478 39.6187 49.9465ZM33.0219 39.2715C33.2953 39.3608 33.5812 39.406 33.8688 39.405C35.2233 39.4011 36.3849 38.438 36.64 37.1079C36.8951 35.7776 36.172 34.4531 34.9152 33.9485C33.6583 33.4436 32.2201 33.8999 31.4841 35.0371V35.0593C31.3958 35.1731 31.3279 35.3013 31.2836 35.4382C28.1636 40.9429 21.9011 37.2656 21.9011 37.2656C19.4283 35.791 16.296 36.0276 14.0728 37.8567C11.8495 39.686 11.0139 42.7141 11.9846 45.4246C12.9552 48.135 15.5231 49.9443 18.4021 49.9465C20.9459 49.9514 23.2782 48.5312 24.4418 46.2693V46.2471C24.6412 45.8616 24.8054 45.4587 24.932 45.0435C28.1858 37.5776 33.0219 39.2715 33.0219 39.2715ZM31.9298 29.9558C31.7275 29.7505 31.5551 29.5181 31.4172 29.2649C31.4172 29.2649 29.2109 24.6294 21.6559 27.6157C21.2673 27.8147 20.8651 27.9858 20.4524 28.1282H20.4302C17.7723 28.9788 14.8647 28.1196 13.0961 25.9612C11.3275 23.8027 11.0566 20.783 12.413 18.3442C13.7693 15.9053 16.4775 14.5425 19.2443 14.9065C22.011 15.2705 24.2747 17.2874 24.9542 19.9939C24.9542 19.9939 26.7817 27.0364 32.8881 25.3425C33.0222 25.2781 33.1648 25.2329 33.3115 25.2087H33.3339C34.6562 24.9226 35.9956 25.6155 36.526 26.8601C37.0565 28.1047 36.6289 29.5508 35.5067 30.3066C34.3845 31.0623 32.8838 30.9153 31.9298 29.9558Z" fill="url(#paint0_linear)"/>
<defs>
<linearGradient id="paint0_linear" x2="1" gradientUnits="userSpaceOnUse" gradientTransform="translate(32.5 65) scale(65) rotate(-90)">
<stop stop-color="#2B5EBA"/>
<stop offset="1" stop-color="#01D3E0"/>
</linearGradient>
</defs>
</svg>
