<svg width="65" height="65" viewBox="0 0 65 65" fill="none" xmlns="http://www.w3.org/2000/svg">
<path fill-rule="evenodd" clip-rule="evenodd" d="M32.5 0C14.5505 0 0 14.5508 0 32.5C0 50.4495 14.5505 65 32.5 65C50.4492 65 65 50.4495 65 32.5C65 14.5508 50.4492 0 32.5 0ZM27.798 32.502L23.9419 41.8794L31.0607 32.5024L23.938 23.1262L27.798 32.502ZM41.0881 41.8796L33.9675 32.5024L41.0898 23.1265L37.23 32.5022L41.0881 41.8796ZM43.3787 17.009L33.2361 21.0564V30.3606L43.3787 17.009ZM31.7916 30.3606L21.649 17.009L31.7916 21.0564V30.3606ZM33.2361 11.1829V19.5173L43.593 15.3757L33.2361 11.1829ZM31.7916 19.5173L21.4347 15.3757L31.7916 11.1829V19.5173ZM31.7916 43.9438V34.6396L21.649 47.9912L31.7916 43.9438ZM33.2361 43.9438V34.6396L43.3787 47.9912L33.2361 43.9438ZM31.7916 53.8174V45.4829L21.4347 49.6243L31.7916 53.8174ZM33.2361 53.8174V45.4829L43.593 49.6243L33.2361 53.8174Z" fill="url(#paint0_linear)"/>
<defs>
<linearGradient id="paint0_linear" x2="1" gradientUnits="userSpaceOnUse" gradientTransform="translate(32.5 63.7473) scale(63.7473) rotate(-90)">
<stop stop-color="#295BA7"/>
<stop offset="1" stop-color="#00ADED"/>
</linearGradient>
</defs>
</svg>
