<svg width="65" height="65" viewBox="0 0 65 65" fill="none" xmlns="http://www.w3.org/2000/svg">
<path fill-rule="evenodd" clip-rule="evenodd" d="M32.5123 22.6658L24.4161 27.3555C25.3112 27.8628 26.2063 28.3687 27.1014 28.8745C28.0013 29.3831 28.9011 29.8916 29.8009 30.4019L32.5249 31.9441L40.5264 27.3301L32.5123 22.6658ZM33.0685 42.0564C35.7484 40.5142 38.4281 38.9783 41.1015 37.4487V28.2654L33.0748 32.8918L33.0685 42.0564ZM32.7714 19.1958C32.5312 19.0444 32.2343 19.0381 32.0068 19.1707C31.7982 19.2781 31.6655 19.4805 31.6464 19.7268C31.6276 19.9734 31.735 20.2136 31.9182 20.3337C32.0448 20.4348 32.2026 20.4854 32.3672 20.4854C32.4744 20.4854 32.5818 20.46 32.683 20.4158C32.9357 20.302 33.0938 20.0872 33.1066 19.8406C33.1254 19.5813 32.9991 19.3413 32.7714 19.1958ZM32.7399 16.2317C32.4933 16.0989 32.2026 16.1055 31.9879 16.2507C31.7982 16.3582 31.6719 16.5605 31.6464 16.7942C31.6276 17.0281 31.7224 17.2429 31.8739 17.3633C32.0068 17.4893 32.1774 17.5527 32.3607 17.5527C32.4681 17.5527 32.5756 17.5273 32.6767 17.4834C32.9485 17.3633 33.1129 17.1167 33.1066 16.8574C33.1191 16.6045 32.98 16.3645 32.7399 16.2317ZM32.2786 13.2168C32.0448 13.2422 31.8362 13.3938 31.7287 13.6152C31.6212 13.8491 31.6339 14.1016 31.7664 14.2915C31.8931 14.4934 32.1268 14.6135 32.3795 14.6135C32.4219 14.6135 32.4702 14.6077 32.5186 14.6018L32.525 14.6011C32.8219 14.5505 33.0434 14.3484 33.0937 14.0891C33.1571 13.8616 33.1 13.6216 32.9296 13.4443C32.7653 13.2612 32.5124 13.1726 32.2786 13.2168ZM32.9167 21.6355C32.6767 21.4648 32.3606 21.4648 32.1331 21.6165L23.3164 26.7231L15.3086 22.1982L20.8957 18.9304C24.77 16.6616 28.6443 14.3987 32.525 12.1362C36.0834 14.1902 39.6417 16.2317 43.2062 18.2732C44.314 18.9109 45.4218 19.5469 46.5297 20.1829C47.596 20.7952 48.6624 21.4072 49.7287 22.021L41.6199 26.698L32.9167 21.6355ZM31.9688 42.05L23.9863 37.4614L23.8346 28.2844L31.9813 32.8918L31.9688 42.05ZM21.8438 39.5281C21.7743 39.7179 21.5845 39.8756 21.357 39.9265C21.3065 39.9388 21.2496 39.9454 21.1993 39.9454C21.0409 39.9454 20.8895 39.8885 20.7692 39.781C20.5797 39.6356 20.4848 39.3638 20.5417 39.092C20.5988 38.8265 20.7883 38.6244 21.0347 38.5549H21.0349C21.2813 38.4789 21.5468 38.5549 21.7237 38.7636C21.9198 38.9845 21.9638 39.2817 21.8438 39.5281ZM19.4356 40.8617C19.4167 41.0641 19.265 41.2661 19.0438 41.3676C18.9429 41.4116 18.848 41.437 18.7468 41.437C18.6268 41.437 18.5067 41.399 18.4056 41.3358C18.1844 41.2095 18.0452 40.9375 18.0706 40.6471C18.0958 40.3624 18.2664 40.1349 18.5193 40.0466C18.7405 39.9517 18.9869 39.996 19.1829 40.1666C19.3916 40.3373 19.4925 40.6153 19.4356 40.8617ZM16.6548 42.7956C16.5347 42.8716 16.4021 42.9094 16.2755 42.9094C16.1681 42.9094 16.0609 42.8842 15.966 42.8273C15.7511 42.7199 15.5993 42.4798 15.5993 42.2017C15.5993 41.9299 15.7385 41.6896 15.9594 41.5695C16.1618 41.4495 16.4084 41.4495 16.6233 41.5695C16.8508 41.6959 16.9897 41.9236 16.9834 42.17C17.0086 42.3912 16.8823 42.6504 16.6548 42.7956ZM23.2659 38.3083C23.0256 38.2008 22.8741 37.9227 22.8929 37.613L22.7286 27.6585L14.7588 23.146L14.7208 42.7957L31.9625 52.6049L31.9688 43.3075L28.5686 41.3546C26.799 40.3372 25.029 39.326 23.2659 38.3083ZM42.6816 39.0923C42.7322 38.8268 42.9157 38.6181 43.1558 38.5487C43.4021 38.4664 43.6739 38.5424 43.8637 38.751C44.0595 38.9785 44.1101 39.2818 43.9837 39.5347C43.9268 39.7116 43.7497 39.8696 43.5224 39.9265C43.4593 39.9454 43.4021 39.9517 43.3453 39.9517C43.1809 39.9517 43.0231 39.8951 42.9091 39.7748C42.7259 39.6293 42.6313 39.3641 42.6816 39.0923ZM45.1278 40.5964C45.1718 40.3308 45.349 40.1222 45.5825 40.0402C45.8103 39.9516 46.0755 40.0087 46.2653 40.1854C46.4673 40.3689 46.5496 40.6344 46.4802 40.8807C46.4548 41.0894 46.2841 41.298 46.044 41.3863C45.962 41.418 45.8797 41.4306 45.7977 41.4306C45.6459 41.4306 45.4942 41.3737 45.3739 41.2789C45.1846 41.1337 45.0835 40.8681 45.1278 40.5964ZM47.9337 41.5698C48.1487 41.4307 48.4205 41.437 48.6417 41.5887C48.8817 41.7468 49.0083 42.0248 48.9575 42.2966C48.9449 42.5178 48.7743 42.7453 48.5279 42.8528C48.4396 42.8908 48.351 42.9097 48.2624 42.9097C48.1109 42.9097 47.9655 42.8528 47.8517 42.7516C47.6811 42.6379 47.5736 42.4041 47.5862 42.1575C47.5988 41.9048 47.7317 41.6899 47.9337 41.5698ZM42.1254 31.3118C42.1192 33.4733 42.1192 35.7108 42.1383 37.9038V37.9861L42.0874 38.0555C41.9991 38.1819 41.8728 38.2579 41.7779 38.3148L41.7273 38.3462C39.9702 39.3576 38.2197 40.3562 36.4752 41.3611L33.0684 43.314L33.0558 52.5985L39.3194 48.9897C42.966 46.8913 46.6068 44.793 50.247 42.701L50.2659 30.9894L50.2785 22.969L42.1254 27.6713C42.1317 28.8848 42.1254 30.0983 42.1254 31.3118ZM50.8918 43.5921C48.1424 45.172 45.3742 46.7711 42.6059 48.3639L32.8601 53.9764C32.7715 54.0459 32.6641 54.0836 32.544 54.0836C32.4048 54.0836 32.2533 54.033 32.1016 53.9384L25.383 50.1147C21.5847 47.9532 17.7861 45.7916 13.9876 43.6362C13.7412 43.5224 13.5957 43.2443 13.6212 42.9157L13.6337 37.4551C13.6463 32.5505 13.6526 27.6459 13.6589 22.7415C13.6652 22.6784 13.6589 22.615 13.6589 22.5583C13.6526 22.2991 13.64 21.8693 14.051 21.6798C17.3374 19.7458 20.6556 17.8118 23.9672 15.8712C26.6282 14.3164 29.2953 12.7554 31.9624 11.1943C32.1079 11.1123 32.2659 11.0363 32.4683 10.9606L32.582 10.9163L32.6892 10.9794C35.7547 12.7302 38.8136 14.4936 41.8789 16.2507C44.7989 17.9255 47.7192 19.6066 50.6452 21.2814C50.6958 21.3131 50.7401 21.3383 50.7844 21.3637C51.0245 21.49 51.4226 21.7112 51.3783 22.1854L51.3466 42.8525C51.3848 43.1434 51.2016 43.453 50.8918 43.5921ZM32.5 0C14.5508 0 0 14.5508 0 32.5C0 50.4494 14.5508 65 32.5 65C50.4494 65 65 50.4494 65 32.5C65 14.5508 50.4494 0 32.5 0Z" fill="url(#paint0_linear)"/>
<defs>
<linearGradient id="paint0_linear" x2="1" gradientUnits="userSpaceOnUse" gradientTransform="translate(32.5) scale(65) rotate(90)">
<stop stop-color="#61F4D7"/>
<stop offset="1" stop-color="#1ABC9C"/>
</linearGradient>
</defs>
</svg>
