<svg width="65" height="65" viewBox="0 0 65 65" fill="none" xmlns="http://www.w3.org/2000/svg">
<path fill-rule="evenodd" clip-rule="evenodd" d="M31.9695 12.8738V20.1609L25.8126 31.0251L23.6508 24.2375L31.9695 12.8738ZM19.7653 41.6951L23.1644 26.165L25.1082 32.2678L19.7653 41.6951ZM41.3477 24.2375L33.0308 12.874V20.1609L39.187 31.0232L41.3477 24.2375ZM19.4114 44.4458L25.5416 33.6292L28.9866 44.4458H19.4114ZM45.2346 41.6946L41.8341 26.165L39.8912 32.2661L45.2346 41.6946ZM34.9127 44.446H30.087L26.2462 32.3865L32.5004 21.3508L38.7532 32.3845L34.9127 44.446ZM36.0131 44.446H45.5887L39.4581 33.6277L36.0131 44.446ZM31.5605 52.5266L20.3359 45.4944H29.3206L31.5605 52.5266ZM30.4208 45.4944L32.5001 52.0229L34.579 45.4944H30.4208ZM44.6646 45.4941L33.4399 52.5266L35.679 45.4941H44.6646ZM46.9958 45.1023C46.9958 45.1023 46.9953 45.1025 46.9955 45.103C46.9864 45.1387 46.9733 45.1735 46.9562 45.2068C46.956 45.2074 46.956 45.2074 46.956 45.2076C46.9151 45.2878 46.8537 45.3581 46.7748 45.4092V45.4094C46.7746 45.4094 46.7743 45.4097 46.7741 45.41C46.7743 45.4102 46.7735 45.4102 46.773 45.4105C46.773 45.4105 46.773 45.4105 46.7727 45.4105C46.7725 45.411 46.772 45.4107 46.7714 45.4118C46.7709 45.4121 46.7706 45.4121 46.7704 45.4123C46.7699 45.4126 46.7699 45.4128 46.7693 45.4128C46.7693 45.4131 46.7683 45.4128 46.7686 45.4134C46.768 45.4139 46.7675 45.4142 46.7667 45.4144L32.7849 54.1745C32.6995 54.2279 32.603 54.2544 32.5066 54.2544H32.4937C32.3973 54.2544 32.3008 54.2279 32.2154 54.1745L18.2336 45.4144C18.233 45.4142 18.2325 45.4139 18.2317 45.4134C18.232 45.4134 18.2315 45.4134 18.2309 45.4128C18.2307 45.4131 18.2301 45.4126 18.2301 45.4123C18.2299 45.4123 18.2294 45.4121 18.2291 45.4118C18.2283 45.4113 18.2278 45.411 18.2273 45.4105C18.2273 45.411 18.227 45.4102 18.2265 45.41C18.2262 45.41 18.2257 45.4097 18.2254 45.4094V45.4092C18.1489 45.3594 18.0886 45.2918 18.048 45.2144C18.0477 45.2142 18.0477 45.2142 18.0477 45.2142C18.0477 45.2139 18.0475 45.2137 18.0475 45.2134C18.0283 45.177 18.0137 45.1387 18.0037 45.0996V45.0994C18.0037 45.0991 18.0037 45.0991 18.0037 45.0989C17.9869 45.0333 17.983 44.9639 17.9932 44.8947C17.995 44.8813 17.9974 44.8679 18.0005 44.8546L22.5563 24.041C22.5718 23.9636 22.6043 23.8908 22.6515 23.8281L32.0707 10.961C32.1724 10.8218 32.3249 10.745 32.5003 10.7464C32.6691 10.7466 32.8276 10.8218 32.9296 10.961L42.3472 23.8284C42.3609 23.847 42.3737 23.8664 42.385 23.8866L42.3858 23.8879C42.386 23.8879 42.3863 23.8887 42.3863 23.8889C42.3866 23.8895 42.3858 23.8892 42.3871 23.89C42.3918 23.8986 42.396 23.9073 42.4004 23.9162C42.4002 23.9165 42.401 23.9167 42.401 23.9172C42.4012 23.9175 42.4012 23.9178 42.4015 23.9183C42.4015 23.9183 42.4015 23.9183 42.4018 23.9186C42.4198 23.9573 42.4337 23.9982 42.4421 24.0407L47 44.8551C47.0023 44.8661 47.0044 44.8774 47.0063 44.8886V44.8894C47.0178 44.9615 47.0136 45.0339 46.9958 45.1023ZM32.5 0C14.5508 0 0 14.5511 0 32.5C0 50.4494 14.5508 65 32.5 65C50.4494 65 65 50.4494 65 32.5C65 14.5511 50.4494 0 32.5 0Z" fill="url(#paint0_linear)"/>
<defs>
<linearGradient id="paint0_linear" x2="1" gradientUnits="userSpaceOnUse" gradientTransform="translate(32.5) scale(63.6864) rotate(90)">
<stop stop-color="#76D4FF"/>
<stop offset="1" stop-color="#FFCDB0"/>
</linearGradient>
</defs>
</svg>
