<svg width="65" height="65" viewBox="0 0 65 65" fill="none" xmlns="http://www.w3.org/2000/svg">
<path fill-rule="evenodd" clip-rule="evenodd" d="M0 32.5C0 14.5508 14.5505 0 32.5 0C50.4492 0 65 14.5508 65 32.5C65 50.4494 50.4492 65 32.5 65C14.5505 65 0 50.4494 0 32.5ZM11.5555 32.4266C11.5555 43.9534 20.8997 53.2976 32.4265 53.2976C43.9531 53.2976 53.2974 43.9534 53.2974 32.4266C53.2974 20.8999 43.9531 11.5557 32.4265 11.5557C20.8997 11.5557 11.5555 20.8999 11.5555 32.4266ZM32.4265 49.8191C42.032 49.8191 49.8189 42.0322 49.8189 32.4266C49.8189 22.821 42.032 15.0342 32.4265 15.0342C22.8209 15.0342 15.034 22.821 15.034 32.4266C15.034 42.0322 22.8209 49.8191 32.4265 49.8191ZM39.6996 37.9606H28.6317V23.7304H25.4694V41.1229H27.4459H39.6996V37.9606ZM31.0034 30.8455H37.3279V34.0078H31.0034V30.8455ZM39.6996 23.7304H31.0034V26.8927H39.6996V23.7304Z" fill="url(#paint0_linear)"/>
<defs>
<linearGradient id="paint0_linear" x2="1" gradientUnits="userSpaceOnUse" gradientTransform="translate(32.5) scale(65) rotate(90)">
<stop stop-color="white"/>
<stop offset="1" stop-color="#8785FF"/>
</linearGradient>
</defs>
</svg>
