<svg width="65" height="65" viewBox="0 0 65 65" fill="none" xmlns="http://www.w3.org/2000/svg">
<path fill-rule="evenodd" clip-rule="evenodd" d="M0 32.5C0 14.5508 14.5505 0 32.5 0C50.4492 0 65 14.5508 65 32.5C65 50.4495 50.4492 65 32.5 65C14.5505 65 0 50.4495 0 32.5ZM11.5554 32.4265C11.5554 43.9534 20.8997 53.2976 32.4264 53.2976C43.9531 53.2976 53.2974 43.9534 53.2974 32.4265C53.2974 20.8999 43.9531 11.5557 32.4264 11.5557C20.8997 11.5557 11.5554 20.8999 11.5554 32.4265ZM32.4264 49.8191C42.032 49.8191 49.8188 42.0322 49.8188 32.4268C49.8188 22.821 42.032 15.0342 32.4264 15.0342C22.8208 15.0342 15.0339 22.821 15.0339 32.4268C15.0339 42.0322 22.8208 49.8191 32.4264 49.8191ZM39.6997 37.9607H28.6317V23.7305H25.4695V41.123H27.4459H39.6997V37.9607ZM31.0034 30.8455H37.328V34.0078H31.0034V30.8455ZM39.6997 23.7305H31.0034V26.8928H39.6997V23.7305Z" fill="url(#paint0_linear)"/>
<defs>
<linearGradient id="paint0_linear" x2="1" gradientUnits="userSpaceOnUse" gradientTransform="translate(32.5) scale(65) rotate(90)">
<stop stop-color="#ACACAC"/>
<stop offset="1" stop-color="#555555"/>
</linearGradient>
</defs>
</svg>
