<svg width="65" height="65" viewBox="0 0 65 65" fill="none" xmlns="http://www.w3.org/2000/svg">
<path fill-rule="evenodd" clip-rule="evenodd" d="M41.0262 36.7271C40.623 36.5568 40.1897 36.4699 39.7522 36.4712C37.5783 36.4712 35.791 34.8151 35.5815 32.6947C35.5671 32.5534 35.5597 32.4097 35.5597 32.2648C35.5597 29.9487 37.4354 28.0712 39.7515 28.0712C40.0824 28.0717 40.4113 28.0222 40.7274 27.9244C41.0306 27.8299 41.3179 27.6915 41.5806 27.5135C42.1088 27.1566 42.5227 26.6547 42.7721 26.068C43.1457 25.1752 43.108 24.1636 42.6698 23.3008C42.4385 22.852 42.108 22.4622 41.7033 22.1607C40.8637 21.5358 39.7758 21.3508 38.7768 21.663C38.4739 21.7572 38.1866 21.8956 37.9242 22.0736C37.3959 22.4305 36.982 22.9324 36.7327 23.5191C36.5623 23.9223 36.4752 24.3559 36.4763 24.7937C36.4763 27.11 34.5993 28.9873 32.2845 28.9873C32.3029 28.9873 32.3212 28.987 32.3392 28.987C32.3128 28.9873 32.2866 28.9876 32.2602 28.9876C29.9455 28.9876 28.0685 27.1103 28.0685 24.7939C28.0711 24.1421 27.877 23.5044 27.5115 22.9646C27.1548 22.4362 26.653 22.0225 26.0667 21.7726C25.2514 21.4317 24.3339 21.4317 23.5186 21.7726C23.1293 21.9378 22.7753 22.1769 22.4765 22.4765C22.4663 22.4865 22.4563 22.4964 22.4461 22.5064C21.3622 23.6146 21.2044 25.3348 22.0741 26.6231C22.4307 27.1511 22.9325 27.5651 23.5188 27.815C23.922 27.9853 24.3553 28.0722 24.793 28.0706C26.9659 28.0706 28.7521 29.7255 28.9633 31.844C28.9779 31.9866 28.9855 32.1313 28.9855 32.2779C28.9855 34.594 27.1101 36.4712 24.7941 36.4712C24.1423 36.4694 23.5052 36.6635 22.9655 37.0286C22.4372 37.3858 22.0233 37.8879 21.774 38.4746C21.437 39.2803 21.4331 40.1867 21.7627 40.9956C21.9202 41.3774 22.1489 41.7262 22.4362 42.0234L22.4385 42.0258C23.2972 42.9186 24.5866 43.2489 25.7689 42.8791C26.0719 42.7849 26.3592 42.6465 26.6219 42.4683C27.1501 42.1116 27.564 41.6097 27.8134 41.0231C27.9832 40.6198 28.0703 40.1865 28.069 39.749C28.069 37.4326 29.9447 35.5548 32.2607 35.5548C32.2654 35.5548 32.2699 35.5554 32.2746 35.5554C32.278 35.5554 32.2814 35.5551 32.2848 35.5551C34.5995 35.5551 36.4765 37.4326 36.4765 39.749C36.4747 40.4008 36.6686 41.0385 37.0335 41.5786C37.3904 42.1067 37.892 42.5206 38.4786 42.7705C39.3012 43.1146 40.2282 43.111 41.0484 42.7608C41.4443 42.5892 41.8024 42.3414 42.1025 42.0316C42.3919 41.734 42.6224 41.3844 42.7815 41.0011C43.1983 39.9863 43.0816 38.8305 42.4709 37.9191C42.1143 37.391 41.6125 36.977 41.0262 36.7271ZM48.3747 48.131H48.3736C45.0613 51.5453 40.0088 52.6086 35.6012 50.8196C34.4566 50.3551 33.4163 49.7211 32.5013 48.9555C31.5816 49.7248 30.5353 50.3609 29.384 50.8256C24.966 52.6094 19.9078 51.5304 16.602 48.0995C13.347 44.7263 12.4237 39.7339 14.2565 35.4195C14.7123 34.3465 15.317 33.3673 16.0398 32.5014C15.2936 31.6081 14.6727 30.5949 14.212 29.4823C12.4035 25.1152 13.4052 20.0882 16.7501 16.7483C16.7669 16.7313 16.7839 16.7145 16.8012 16.698C19.5459 13.9829 23.4572 12.799 27.2492 13.5392C29.2136 13.9226 31.0131 14.7962 32.5032 16.0425C32.392 16.1353 32.2854 16.233 32.1779 16.33C32.9422 15.6409 33.8016 15.0444 34.7475 14.5687C38.6934 12.5844 43.4211 12.9959 46.9646 15.6318C46.9678 15.6341 46.9701 15.6365 46.973 15.6388C48.4048 16.7061 49.5738 18.0868 50.3902 19.6751C52.2469 23.2976 52.0855 27.625 49.9635 31.0989C49.6619 31.5924 49.3235 32.0555 48.9589 32.4922C49.6896 33.366 50.299 34.3552 50.7566 35.44C52.5813 39.7651 51.6436 44.762 48.3747 48.131ZM32.5 0C14.5506 0 0 14.5508 0 32.5C0 50.4492 14.5506 65 32.5 65C50.4492 65 65 50.4492 65 32.5C65 14.5508 50.4492 0 32.5 0Z" fill="url(#paint0_linear)"/>
<defs>
<linearGradient id="paint0_linear" x2="1" gradientUnits="userSpaceOnUse" gradientTransform="translate(32.5) scale(63.6864) rotate(90)">
<stop stop-color="#00FFBB"/>
<stop offset="1" stop-color="#00CFAB"/>
</linearGradient>
</defs>
</svg>
