<svg width="65" height="65" viewBox="0 0 65 65" fill="none" xmlns="http://www.w3.org/2000/svg">
<path fill-rule="evenodd" clip-rule="evenodd" d="M32.5 65C50.4493 65 65 50.4493 65 32.5C65 14.5507 50.4493 0 32.5 0C14.5507 0 0 14.5507 0 32.5C0 50.4493 14.5507 65 32.5 65ZM40.3 14.3C43.8898 14.3 46.8 17.9563 46.8 22.1H26V26H18.2V22.1C18.2 16.9 22.1 14.3 25.1875 14.3H40.3ZM40.3 28.6C43.8898 28.6 46.8 32.2563 46.8 36.4H39.8273H39.8125H25.35C21.7602 36.4 18.2 33.15 18.2 28.6H25.1719L25.1875 28.6H40.3ZM18.2 42.9C18.2 47.775 21.8415 50.7 25.4313 50.7H39.8125C43.6313 50.7 46.8 48.1 46.8 42.9V39H39V42.9H18.2Z" fill="url(#paint0_linear)"/>
<defs>
<linearGradient id="paint0_linear" x1="32.5" y1="0" x2="32.5" y2="65" gradientUnits="userSpaceOnUse">
<stop stop-color="#57BEFF"/>
<stop offset="1" stop-color="#2468E3"/>
</linearGradient>
</defs>
</svg>
