<svg width="65" height="65" viewBox="0 0 65 65" fill="none" xmlns="http://www.w3.org/2000/svg">
<path fill-rule="evenodd" clip-rule="evenodd" d="M32.5 65C50.4493 65 65 50.4493 65 32.5C65 14.5507 50.4493 0 32.5 0C14.5507 0 0 14.5507 0 32.5C0 50.4493 14.5507 65 32.5 65ZM34.4586 6.07128C38.8571 6.39262 42.9574 7.7875 46.4989 9.99506C39.2167 10.3509 28.5275 12.9353 24.2598 22.05H49.625L46.875 28.65H22.5161C22.4398 29.4424 22.4002 30.2669 22.4002 31.125C22.4002 32.7983 22.548 34.3547 22.8274 35.8H44.4375L41.6875 42.4H25.4165C30.0419 49.6044 39.3013 52.3 48.3187 52.3C48.942 52.3 49.5601 52.2822 50.1723 52.2472C47.6173 54.5353 44.6157 56.3348 41.3142 57.4988C40.9242 57.5162 40.5319 57.525 40.1376 57.525C29.0646 57.525 20.0167 52.073 16.2178 42.4H8L10.75 35.8H14.5541C14.3783 34.4354 14.2876 33.0139 14.2876 31.5375C14.2876 30.5542 14.3306 29.5912 14.4149 28.65H7L9.75 22.05H15.7872C18.6593 13.5952 25.4591 7.78066 34.4586 6.07128Z" fill="url(#paint0_linear)"/>
<defs>
<linearGradient id="paint0_linear" x1="32.5" y1="0" x2="32.5" y2="65" gradientUnits="userSpaceOnUse">
<stop stop-color="#15BCFF"/>
<stop offset="1" stop-color="#B030EC"/>
</linearGradient>
</defs>
</svg>
