<svg width="65" height="65" viewBox="0 0 65 65" fill="none" xmlns="http://www.w3.org/2000/svg">
<path fill-rule="evenodd" clip-rule="evenodd" d="M32.5 0C14.5506 0 0 14.5508 0 32.5C0 50.4492 14.5506 65 32.5 65C50.4492 65 65 50.4492 65 32.5C65 14.5508 50.4492 0 32.5 0ZM9.30945 39V26.1152H18.8632V28.2949H11.911V31.1514H18.3798V33.3223H11.911V36.8291H19.1093V39H9.30945ZM21.2977 26.1152H23.8993V33.0938C23.8993 34.2012 23.9315 34.9189 23.996 35.2471C24.1073 35.7744 24.3724 36.1978 24.7914 36.5171C25.2103 36.8364 25.7831 36.9961 26.5096 36.9961C27.2479 36.9961 27.8046 36.8452 28.1796 36.5435C28.5546 36.2417 28.7802 35.8711 28.8563 35.4316C28.9325 34.9922 28.9706 34.2627 28.9706 33.2432V26.1152H31.5721V32.8828C31.5721 34.4297 31.5018 35.5225 31.3612 36.1611C31.2206 36.7998 30.9613 37.3389 30.5834 37.7783C30.2054 38.2178 29.7001 38.5679 29.0673 38.8286C28.4344 39.0894 27.6083 39.2197 26.5887 39.2197C25.3583 39.2197 24.4252 39.0776 23.7894 38.7935C23.1537 38.5093 22.6512 38.1401 22.2821 37.686C21.913 37.2319 21.6698 36.7559 21.5526 36.2578C21.3827 35.5195 21.2977 34.4297 21.2977 32.9883V26.1152ZM34.3231 39V26.1152H39.7987C41.1757 26.1152 42.1761 26.231 42.8002 26.4624C43.4242 26.6938 43.9237 27.1055 44.2987 27.6973C44.6737 28.2891 44.8612 28.9658 44.8612 29.7275C44.8612 30.6943 44.577 31.4927 44.0087 32.1226C43.4403 32.7524 42.5907 33.1494 41.4598 33.3135C42.0223 33.6416 42.4867 34.0019 42.8529 34.3945C43.2191 34.7871 43.7128 35.4844 44.3339 36.4863L45.9071 39H42.7958L40.9149 36.1963C40.2469 35.1943 39.7899 34.563 39.5438 34.3022C39.2977 34.0415 39.037 33.8628 38.7616 33.7661C38.4862 33.6694 38.0497 33.6211 37.452 33.6211H36.9247V39H34.3231ZM36.9247 31.5645H38.8495C40.0975 31.5645 40.8768 31.5117 41.1874 31.4062C41.4979 31.3008 41.7411 31.1191 41.9169 30.8613C42.0927 30.6035 42.1805 30.2813 42.1805 29.8945C42.1805 29.4609 42.0648 29.1108 41.8334 28.8442C41.6019 28.5776 41.2753 28.4092 40.8534 28.3389C40.6425 28.3096 40.0096 28.2949 38.955 28.2949H36.9247V31.5645ZM50.2137 39V28.2949H46.3905V26.1152H56.6298V28.2949H52.8153V39H50.2137Z" fill="url(#paint0_linear)"/>
<defs>
<linearGradient id="paint0_linear" x2="1" gradientUnits="userSpaceOnUse" gradientTransform="translate(32.5) scale(65) rotate(90)">
<stop stop-color="#ACACAC"/>
<stop offset="1" stop-color="#555555"/>
</linearGradient>
</defs>
</svg>
