<svg width="65" height="65" viewBox="0 0 65 65" fill="none" xmlns="http://www.w3.org/2000/svg">
<path fill-rule="evenodd" clip-rule="evenodd" d="M32.5 0C14.5506 0 0 14.5508 0 32.5C0 50.4492 14.5506 65 32.5 65C50.4492 65 65 50.4492 65 32.5C65 14.5508 50.4492 0 32.5 0ZM13.3143 40V25.6836H23.1288V28.1055H16.205V31.4941H22.1815V33.916H16.205V40H13.3143ZM38.4218 40H35.2772L34.0272 36.748H28.3046L27.1229 40H24.0565L29.6327 25.6836H32.6893L38.4218 40ZM33.0995 34.3359L31.1268 29.0234L29.1932 34.3359H33.0995ZM39.9159 40V25.6836H44.2421L46.8397 35.4492L49.4081 25.6836H53.744V40H51.0585V28.7305L48.2167 40H45.4335L42.6014 28.7305V40H39.9159Z" fill="url(#paint0_linear)"/>
<defs>
<linearGradient id="paint0_linear" x2="1" gradientUnits="userSpaceOnUse" gradientTransform="translate(32.5) scale(65) rotate(90)">
<stop stop-color="#ACACAC"/>
<stop offset="1" stop-color="#555555"/>
</linearGradient>
</defs>
</svg>
