<svg width="65" height="65" viewBox="0 0 65 65" fill="none" xmlns="http://www.w3.org/2000/svg">
<path fill-rule="evenodd" clip-rule="evenodd" d="M32.5 0C14.5505 0 0 14.5508 0 32.5C0 50.4492 14.5505 65 32.5 65C50.4492 65 65 50.4492 65 32.5C65 14.5508 50.4492 0 32.5 0ZM32.8856 12L33.8228 26.0571L45.7714 31.4458L32.8856 12ZM31.9485 38.9429L32.8856 12L19.9999 33.5542L31.9485 38.9429ZM44.9857 31.8718L33.084 26.5044L32.6648 38.5544L44.9857 31.8718ZM32.8856 53L33.3738 38.9663L45.0667 32.6245L32.8856 53Z" fill="url(#paint0_linear)"/>
<defs>
<linearGradient id="paint0_linear" x2="1" gradientUnits="userSpaceOnUse" gradientTransform="translate(32.5) scale(61.337) rotate(90)">
<stop stop-color="#DC3045"/>
<stop offset="1" stop-color="#A01A33"/>
</linearGradient>
</defs>
</svg>
