<svg width="65" height="65" viewBox="0 0 65 65" fill="none" xmlns="http://www.w3.org/2000/svg">
<path fill-rule="evenodd" clip-rule="evenodd" d="M32.5 0C14.5505 0 0 14.5508 0 32.5C0 50.4492 14.5505 65 32.5 65C50.4492 65 65 50.4492 65 32.5C65 14.5508 50.4492 0 32.5 0ZM32.4999 53.4404C20.9348 53.4404 11.5594 44.0652 11.5594 32.5C11.5594 20.9351 20.9348 11.5596 32.4999 11.5596C44.065 11.5596 53.4404 20.9351 53.4404 32.5C53.4404 44.0652 44.065 53.4404 32.4999 53.4404ZM51.9773 32.5C51.9773 43.2571 43.257 51.9775 32.4999 51.9775C21.7429 51.9775 13.0225 43.2571 13.0225 32.5C13.0225 21.7429 21.7429 13.0227 32.4999 13.0227C43.257 13.0227 51.9773 21.7429 51.9773 32.5ZM43.8477 19.1909C36.1634 23.2117 33.2354 26.595 33.2354 26.595L32.7801 29.7961C32.3248 30.3425 31.9535 29.7051 31.9535 29.7051L31.6803 28.0591L29.4878 30.1604C29.4878 34.1812 28.6613 35.5542 28.6613 35.5542C28.297 36.1006 27.9327 35.6453 27.9327 35.6453L27.7506 31.4424L26.3776 32.6333L26.4687 39.3088C25.1868 39.0356 24.9136 35.8345 24.9136 35.8345C23.905 36.7451 24.0941 40.0374 24.0941 40.0374L21.8105 37.1094L23.1835 40.4927L19.9822 38.7554L22.455 41.228C21.173 42.4189 22.2728 43.3296 22.2728 43.3296C21.9996 42.5029 22.7281 42.2297 22.7281 42.2297C23.8279 41.6833 23.6458 43.2385 23.6458 43.2385L21.8175 45.4309C21.5443 45.8862 21.9996 45.7952 21.9996 45.7952L24.1921 43.4207C25.474 45.0667 27.0291 44.7024 27.0291 44.7024C25.1098 43.8831 25.1098 41.9565 25.1098 41.9565C26.7559 44.6113 29.5018 43.6938 29.5018 43.6938C26.3917 43.1475 26.3006 41.2212 26.3006 41.2212C33.1583 42.594 34.8955 40.6748 34.8955 40.6748L26.7559 40.3105C28.6752 38.3 33.6136 39.1196 33.6136 39.1196L37.9146 33.4526L43.2733 27.1064C43.7776 26.511 44.1839 25.8315 44.4781 25.103C46.0192 21.1382 43.8477 19.1909 43.8477 19.1909Z" fill="url(#paint0_linear)"/>
<defs>
<linearGradient id="paint0_linear" x2="1" gradientUnits="userSpaceOnUse" gradientTransform="translate(32.5) scale(65) rotate(90)">
<stop stop-color="#ACACAC"/>
<stop offset="1" stop-color="#28323A"/>
</linearGradient>
</defs>
</svg>
