<svg width="65" height="65" viewBox="0 0 65 65" fill="none" xmlns="http://www.w3.org/2000/svg">
<path fill-rule="evenodd" clip-rule="evenodd" d="M46.7013 24.7034H42.0261L39.8376 29.8337C42.1647 29.8326 44.4526 29.8326 46.7013 29.8337C47.0125 29.8337 47.1679 29.6816 47.1666 29.3768V25.1723C47.1666 24.9159 47.0117 24.7595 46.7013 24.7034ZM51.565 33.7106C51.565 33.7106 51.5241 34.7131 50.4967 34.8785C49.4695 35.0452 37.4647 34.8785 37.4647 34.8785L33.272 45.2222H32.6417H27.1691L31.2203 34.8785H20.8594V40.2913H27.162L25.2503 45.2222C25.028 45.2222 20.0608 45.1986 17.7074 45.2222C17.2233 45.2269 16.6355 45.2096 16.4682 45.2222C15.4875 45.2932 15.4699 44.2508 15.4699 44.2508V34.879H10.5218L12.3025 29.8966L15.4699 29.8984V20.4011C15.4626 19.8761 15.7066 19.6038 16.2009 19.5839H35.1381L33.2681 24.5889H20.8586V29.8955L33.0877 29.8974L37.1882 19.5833H50.6309C51.2536 19.511 51.565 19.8182 51.565 20.5057V33.7106ZM32.4999 0C14.5508 0 0 14.5508 0 32.5C0 50.4494 14.5508 65 32.4999 65C50.449 65 65 50.4494 65 32.5C65 14.5508 50.449 0 32.4999 0Z" fill="url(#paint0_linear)"/>
<defs>
<linearGradient id="paint0_linear" x2="1" gradientUnits="userSpaceOnUse" gradientTransform="translate(32.5) scale(63.6864) rotate(90)">
<stop stop-color="#B8C9D8"/>
<stop offset="1" stop-color="#075396"/>
</linearGradient>
</defs>
</svg>
