<svg width="65" height="65" viewBox="0 0 65 65" fill="none" xmlns="http://www.w3.org/2000/svg">
<path fill-rule="evenodd" clip-rule="evenodd" d="M0 32.5C0 14.5508 14.5505 0 32.5 0C50.4492 0 65 14.5508 65 32.5C65 50.4492 50.4492 65 32.5 65C14.5505 65 0 50.4492 0 32.5ZM45.679 13H20.1366C19.2266 13 18.4888 13.7378 18.4888 14.6479V23.1619C18.4888 24.072 19.2266 24.8098 20.1366 24.8098H45.679C46.589 24.8098 47.3268 24.072 47.3268 23.1619V14.6479C47.3268 13.7378 46.589 13 45.679 13ZM20.4113 26.5952H33.5944C34.6562 26.5952 35.517 27.4561 35.517 28.5178V36.4824C35.517 37.5444 34.6562 38.405 33.5944 38.405H20.4113C19.3495 38.405 18.4888 37.5444 18.4888 36.4824V28.5178C18.4888 27.4561 19.3495 26.5952 20.4113 26.5952ZM27.2775 40.1902H20.4113C19.3495 40.1902 18.4888 41.051 18.4888 42.1128V50.0774C18.4888 51.1394 19.3495 52 20.4113 52H27.2775C28.3392 52 29.2001 51.1394 29.2001 50.0774V42.1128C29.2001 41.051 28.3392 40.1902 27.2775 40.1902Z" fill="url(#paint0_linear)"/>
<defs>
<linearGradient id="paint0_linear" x2="1" gradientUnits="userSpaceOnUse" gradientTransform="translate(32.5) scale(65) rotate(90)">
<stop stop-color="#FBA000"/>
<stop offset="1" stop-color="#DA5919"/>
</linearGradient>
</defs>
</svg>
