<svg width="65" height="65" viewBox="0 0 65 65" fill="none" xmlns="http://www.w3.org/2000/svg">
<path fill-rule="evenodd" clip-rule="evenodd" d="M32.5 65C50.4492 65 65 50.4492 65 32.5C65 14.5508 50.4492 0 32.5 0C14.5508 0 0 14.5508 0 32.5C0 50.4492 14.5508 65 32.5 65ZM36.6044 20.5577C37.9491 18.3617 39.1071 16.9649 40.0645 16.2439C40.6372 15.8126 41.0354 15.7016 41.2842 15.7C41.4961 15.6986 41.7515 15.7741 42.0767 16.1006C42.4717 16.4973 42.6096 16.798 42.6487 17.0005C42.6833 17.18 42.6649 17.4025 42.4833 17.7193C42.0684 18.4428 40.9591 19.3831 38.8422 20.5084L38.8683 20.5577H36.6044ZM33.8182 20.5577C35.5038 17.5982 37.0973 15.474 38.6206 14.3268C39.4313 13.7163 40.3223 13.3063 41.2683 13.3C42.2511 13.2935 43.0962 13.7232 43.7772 14.407C44.3882 15.0206 44.8478 15.7301 45.0051 16.5457C45.1671 17.3845 44.9811 18.188 44.5653 18.9131C44.2367 19.4862 43.7522 20.032 43.1401 20.5577H49.9816C51.4908 20.5577 53 21.8264 53 23.5885C53 25.1039 51.7365 26.6193 49.9816 26.6193H34.129V22.5782H31.6136V26.6193H16.0184C14.5092 26.6193 13 25.3506 13 23.5885C13 22.0731 14.2635 20.5577 16.0184 20.5577H22.6025C21.9905 20.032 21.506 19.4862 21.1774 18.9131C20.7616 18.188 20.5756 17.3845 20.7374 16.5457C20.8949 15.7301 21.3544 15.0206 21.9655 14.407C22.6465 13.7232 23.4915 13.2935 24.4744 13.3C25.4204 13.3063 26.3113 13.7163 27.1219 14.3268C28.6453 15.474 30.2388 17.5982 31.9244 20.5577H33.8182ZM26.9005 20.5084L26.8743 20.5577H29.1382C27.7935 18.3617 26.6356 16.9649 25.6782 16.2439C25.1055 15.8126 24.7073 15.7016 24.4585 15.7C24.2466 15.6986 23.9911 15.7741 23.666 16.1006C23.2709 16.4973 23.1331 16.798 23.094 17.0005C23.0593 17.18 23.0778 17.4025 23.2593 17.7193C23.6742 18.4428 24.7836 19.3831 26.9005 20.5084ZM31.6136 29.145H15.2639V45.562C15.2556 46.3935 15.4127 47.2183 15.7258 47.9881C16.0389 48.7579 16.5018 49.4572 17.0874 50.0452C17.673 50.6332 18.3695 51.098 19.1361 51.4124C19.9027 51.7268 20.7241 51.8845 21.5522 51.8763H31.6136V29.145ZM34.129 29.145H50.4789V45.562C50.4871 46.3935 50.33 47.2183 50.0168 47.9881C49.7037 48.7579 49.2408 49.4572 48.6553 50.0452C48.0697 50.6332 47.3733 51.098 46.6066 51.4124C45.84 51.7268 45.0186 51.8845 44.1904 51.8763H34.129V29.145Z" fill="url(#paint0_linear)"/>
<defs>
<linearGradient id="paint0_linear" x2="1" gradientUnits="userSpaceOnUse" gradientTransform="translate(65) scale(65) rotate(90)">
<stop stop-color="#FC51FF"/>
<stop offset="1" stop-color="#7F27FF"/>
</linearGradient>
</defs>
</svg>
