<svg width="65" height="65" viewBox="0 0 65 65" fill="none" xmlns="http://www.w3.org/2000/svg">
<path fill-rule="evenodd" clip-rule="evenodd" d="M49.5693 36.6057C49.5693 37.3296 48.9827 37.9162 48.2588 37.9162H40.3757C39.6518 37.9162 39.0652 37.3296 39.0652 36.6057V28.7223C39.0652 27.9987 39.6518 27.4119 40.3757 27.4119H48.2588C48.9827 27.4119 49.5693 27.9987 49.5693 28.7223V36.6057ZM37.7521 24.7886C37.7521 25.5122 37.1656 26.099 36.4417 26.099H28.5583C27.8347 26.099 27.2478 25.5122 27.2478 24.7886V16.9052C27.2478 16.1816 27.8347 15.5947 28.5583 15.5947H36.4417C37.1656 15.5947 37.7521 16.1816 37.7521 16.9052V24.7886ZM37.7521 36.4416C37.7521 37.1653 37.1656 37.7521 36.4417 37.7521H28.5583C27.8347 37.7521 27.2478 37.1653 27.2478 36.4416V28.5583C27.2478 27.8346 27.8347 27.2478 28.5583 27.2478H36.4417C37.1656 27.2478 37.7521 27.8346 37.7521 28.5583V36.4416ZM37.7521 48.0947C37.7521 48.8186 37.1656 49.4052 36.4417 49.4052H28.5583C27.8347 49.4052 27.2478 48.8186 27.2478 48.0947V40.2114C27.2478 39.4877 27.8347 38.9009 28.5583 38.9009H36.4417C37.1656 38.9009 37.7521 39.4877 37.7521 40.2114V48.0947ZM25.935 36.6057C25.935 37.3296 25.3482 37.9162 24.6245 37.9162H16.7412C16.0173 37.9162 15.4307 37.3296 15.4307 36.6057V28.7223C15.4307 27.9987 16.0173 27.4119 16.7412 27.4119H24.6245C25.3482 27.4119 25.935 27.9987 25.935 28.7223V36.6057ZM32.5 0C14.5508 0 0 14.5508 0 32.5C0 50.4492 14.5508 65 32.5 65C50.4492 65 65 50.4492 65 32.5C65 14.5508 50.4492 0 32.5 0Z" fill="url(#paint0_linear)"/>
<defs>
<linearGradient id="paint0_linear" x2="1" gradientUnits="userSpaceOnUse" gradientTransform="translate(23.5956) scale(64.8729) rotate(64.2391)">
<stop stop-color="#6CBDD8"/>
<stop offset="1" stop-color="#27C9FF"/>
</linearGradient>
</defs>
</svg>
