<svg width="65" height="65" viewBox="0 0 65 65" fill="none" xmlns="http://www.w3.org/2000/svg">
<path fill-rule="evenodd" clip-rule="evenodd" d="M45.2497 43.9342C43.8834 46.5347 41.7717 48.6608 39.1897 50.0366C32.1441 53.7741 23.4215 51.0291 19.7099 43.9342C17.55 39.8166 20.0664 35.1925 21.597 30.9059C23.0034 27.7468 24.4237 24.8339 26.0351 22.0342L32.4798 28.5242L38.9599 21.9988C40.6635 24.9463 42.1365 27.9804 43.6142 31.244C45.1448 35.5303 47.3884 39.8166 45.2497 43.9342ZM32.5002 12.7678C34.4916 15.1343 36.3075 17.6452 37.933 20.2803L32.4798 25.771L27.0596 20.3128C28.687 17.6667 30.5054 15.145 32.5002 12.7678ZM32.5 0C14.5508 0 0 14.5506 0 32.5C0 50.4492 14.5508 65 32.5 65C50.4494 65 65 50.4492 65 32.5C65 14.5506 50.4494 0 32.5 0Z" fill="url(#paint0_linear)"/>
<defs>
<linearGradient id="paint0_linear" x2="1" gradientUnits="userSpaceOnUse" gradientTransform="translate(32.5) scale(65) rotate(90)">
<stop stop-color="#71D9C2"/>
<stop offset="1" stop-color="#37DCD8"/>
</linearGradient>
</defs>
</svg>
