<svg width="65" height="65" viewBox="0 0 65 65" fill="none" xmlns="http://www.w3.org/2000/svg">
<path fill-rule="evenodd" clip-rule="evenodd" d="M0 32.5C0 14.5508 14.5506 0 32.5 0C50.4492 0 65 14.5508 65 32.5C65 50.4492 50.4492 65 32.5 65C14.5506 65 0 50.4492 0 32.5ZM38.3549 29.5284L38.3548 29.5283V37.3548H28.6451L28.6451 37.3548V35.4717L28.6451 35.4718V27.6452L38.3548 27.6452H38.3549V29.5284ZM41.8226 37.2243C46.7545 36.4747 50.6522 32.577 51.4018 27.6452H41.8226V37.2243ZM41.8226 24.1774H51.4018C50.5663 18.6801 45.8194 14.4677 40.0887 14.4677C34.358 14.4677 29.6111 18.6801 28.7756 24.1774H38.3549H41.8226ZM41.7329 40.7329C49.1944 39.9145 54.9998 33.5909 54.9998 25.9113C54.9998 17.676 48.3238 11 40.0887 11C32.4091 11 26.0854 16.8055 25.267 24.2671C17.8054 25.0856 12 31.4092 12 39.0888C12 47.324 18.676 54 26.9114 54C34.5908 54 40.9145 48.1945 41.7329 40.7329ZM15.5983 37.3548C16.3479 32.423 20.2455 28.5254 25.1773 27.7757V37.3548H15.5983ZM15.5983 40.8226C16.4338 46.3199 21.1807 50.5322 26.9114 50.5322C32.642 50.5322 37.3889 46.3199 38.2245 40.8226H15.5983Z" fill="url(#paint0_linear)"/>
<defs>
<linearGradient id="paint0_linear" x1="0.606913" y1="0" x2="0.606913" y2="63.7862" gradientUnits="userSpaceOnUse">
<stop stop-color="#26DDF9"/>
<stop offset="1" stop-color="#0490A6"/>
</linearGradient>
</defs>
</svg>
