<svg width="65" height="65" viewBox="0 0 65 65" fill="none" xmlns="http://www.w3.org/2000/svg">
<path fill-rule="evenodd" clip-rule="evenodd" d="M0 32.5C0 14.5508 14.5505 0 32.5 0C50.4492 0 65 14.5508 65 32.5C65 50.4492 50.4492 65 32.5 65C14.5505 65 0 50.4492 0 32.5ZM23.1862 41.8137H10.111L19.3353 32.5896L23.1862 41.8137ZM23.1862 23.2759H10.111L19.3353 32.5L23.1862 23.2759ZM32.4999 45.6646L23.2757 54.8889V41.8137L32.4999 45.6646ZM23.2757 10.2007V23.2759L32.4999 19.4248L41.7241 23.2756L45.6646 32.5L54.8888 23.2759L41.7241 23.2756V10.1111L32.4999 19.4248L23.2757 10.2007ZM54.8888 41.8137H41.7241L45.6646 32.5896L54.8888 41.8137ZM41.7241 41.8137V54.8889L32.4999 45.575L41.7241 41.8137ZM32.5895 27.5745C35.3657 27.5745 37.6046 29.8132 37.6046 32.5896C37.6046 35.3657 35.3657 37.6047 32.5895 37.6047C29.8132 37.6047 27.5743 35.3657 27.5743 32.5896C27.5743 29.8132 29.8132 27.5745 32.5895 27.5745Z" fill="url(#paint0_linear)"/>
<defs>
<linearGradient id="paint0_linear" x2="1" gradientUnits="userSpaceOnUse" gradientTransform="translate(32.5) scale(65) rotate(90)">
<stop stop-color="#ACACAC"/>
<stop offset="1" stop-color="#555555"/>
</linearGradient>
</defs>
</svg>
