<svg width="65" height="65" viewBox="0 0 65 65" fill="none" xmlns="http://www.w3.org/2000/svg">
<path fill-rule="evenodd" clip-rule="evenodd" d="M32.5 65C50.4492 65 65 50.4492 65 32.5C65 14.5507 50.4492 0 32.5 0C14.5508 0 0 14.5507 0 32.5C0 50.4492 14.5508 65 32.5 65ZM10 25.892C10 23.7425 11.7424 22 13.892 22C14.3219 22 14.6703 22.3485 14.6703 22.7784V31.2581H23.7775V25.892C23.7775 23.7425 25.5199 22 27.6694 22C28.0994 22 28.4478 22.3485 28.4478 22.7784V40.5323C28.4478 41.0845 28.8955 41.5323 29.4478 41.5323H34.9419C35.4823 41.5323 35.9204 41.9703 35.9204 42.5107C35.9204 42.781 35.7013 43 35.4312 43H24.7775C24.2252 43 23.7775 42.5523 23.7775 42V33.2903H14.6703V39.108C14.6703 41.2575 12.9279 43 10.7784 43C10.3485 43 10 42.6515 10 42.2216V25.892ZM56 28.7742H55.1356C53.7482 25.9656 50.8412 24.0322 47.4796 24.0322C42.7722 24.0322 38.9562 27.8234 38.9562 32.5C38.9562 37.1766 42.7722 40.9677 47.4796 40.9677C50.6578 40.9677 53.4298 39.2395 54.8953 36.6774H55.8102C54.1399 40.3979 50.3066 43 45.8448 43C39.8479 43 34.9863 38.299 34.9863 32.5C34.9863 26.701 39.8479 22 45.8448 22C50.485 22 54.4454 24.8144 56 28.7742Z" fill="url(#paint0_linear)"/>
<defs>
<linearGradient id="paint0_linear" x2="1" gradientUnits="userSpaceOnUse" gradientTransform="translate(65) scale(65) rotate(90)">
<stop stop-color="white"/>
<stop offset="1" stop-color="#8785FF"/>
</linearGradient>
</defs>
</svg>
