<svg width="65" height="65" viewBox="0 0 65 65" fill="none" xmlns="http://www.w3.org/2000/svg">
<path fill-rule="evenodd" clip-rule="evenodd" d="M45.7097 48.1002H41.9355V36.7777C41.9355 31.6196 37.6581 27.3422 32.5 27.3422C27.5936 27.3422 23.0645 31.1164 23.0645 35.6451V40.0486V40.9293V48.2258H19.2903V25.4551V16.7742H23.0645V27.468C25.4549 24.9519 28.8516 23.568 32.5 23.568C39.671 23.568 45.7097 28.3486 45.7097 36.6518V48.1002ZM32.5 0C14.5508 0 0 14.5511 0 32.5C0 50.4494 14.5508 65 32.5 65C50.4492 65 65 50.4494 65 32.5C65 14.5511 50.4492 0 32.5 0Z" fill="url(#paint0_linear)"/>
<defs>
<linearGradient id="paint0_linear" x2="1" gradientUnits="userSpaceOnUse" gradientTransform="translate(32.5) scale(62.904) rotate(90)">
<stop stop-color="#9CC1EF"/>
<stop offset="1" stop-color="#58A1FC"/>
</linearGradient>
</defs>
</svg>
