<svg width="65" height="65" viewBox="0 0 65 65" fill="none" xmlns="http://www.w3.org/2000/svg">
<path fill-rule="evenodd" clip-rule="evenodd" d="M0 32.5C0 14.5508 14.5505 0 32.5 0C50.4492 0 65 14.5508 65 32.5C65 50.4492 50.4492 65 32.5 65C14.5505 65 0 50.4492 0 32.5ZM51.9999 32.5C51.9999 43.2695 43.2694 52 32.4999 52C32.3381 52 32.1768 51.998 32.0159 51.9941C42.0395 51.7437 50.0881 43.5398 50.0881 33.4561C50.0881 23.2144 41.7856 14.9119 31.544 14.9119C21.4602 14.9119 13.2562 22.9607 13.0058 32.9841C13.0019 32.8232 12.9999 32.6619 12.9999 32.5C12.9999 21.7305 21.7303 13 32.4999 13C43.2694 13 51.9999 21.7305 51.9999 32.5Z" fill="url(#paint0_linear)"/>
<defs>
<linearGradient id="paint0_linear" x2="1" gradientUnits="userSpaceOnUse" gradientTransform="translate(32.5) scale(65) rotate(90)">
<stop stop-color="#81A5FD"/>
<stop offset="1" stop-color="#1254CE"/>
</linearGradient>
</defs>
</svg>
