<svg width="65" height="65" viewBox="0 0 65 65" fill="none" xmlns="http://www.w3.org/2000/svg">
<path fill-rule="evenodd" clip-rule="evenodd" d="M32.5 0C14.5506 0 0 14.5508 0 32.5C0 50.4492 14.5506 65 32.5 65C50.4492 65 65 50.4492 65 32.5C65 14.5508 50.4492 0 32.5 0ZM49.1063 29.3627C48.1081 34.0949 47.1016 38.8252 46.1096 43.5588C45.9 44.5583 45.3606 45.2065 44.3706 45.5249C39.9092 46.9588 35.4545 48.4144 30.9968 49.8602C30.7731 49.9328 30.5438 49.9886 30.2101 50.0824C30.5416 48.4961 30.8554 46.9983 31.1676 45.5004C31.9302 41.8425 32.6883 38.1838 33.466 34.5292C33.5022 34.3591 33.683 34.143 33.8444 34.0873C38.92 32.3333 44.0017 30.5965 49.1582 28.8313C49.1377 29.0514 49.1384 29.2106 49.1063 29.3627ZM28.644 49.2862C28.5895 49.543 28.5206 49.7967 28.4324 50.1576C28.1377 49.9426 27.8934 49.7952 27.6848 49.6078C23.9767 46.276 20.2783 42.9337 16.5644 39.6085C15.8161 38.9387 15.5475 38.1623 15.7569 37.1829C16.7886 32.3581 17.8079 27.5309 18.8346 22.7051C18.8733 22.5233 18.9427 22.3482 19.024 22.085C20.6286 23.5134 22.1767 24.8895 23.7226 26.2685C26.0752 28.3666 28.4161 30.4777 30.7826 32.5598C31.5986 33.2777 31.8857 34.0855 31.6501 35.1673C30.6258 39.8687 29.6432 44.5794 28.644 49.2862ZM20.2924 20.7531C22.9256 19.8969 25.5588 19.0408 28.3005 18.1494C27.7658 20.438 28.0827 22.4763 29.3974 24.3857C29.2043 24.4157 29.0951 24.4352 28.9852 24.4494C28.4701 24.5157 28.1807 24.8001 28.2012 25.3265C28.2222 25.863 28.5653 26.1159 29.067 26.1278C30.0928 26.1519 31.1193 26.151 32.1456 26.1538C35.1024 26.1614 38.0596 26.1819 41.016 26.1485C41.3373 26.1448 41.7657 25.8928 41.9369 25.6238C42.0598 25.4308 41.9081 24.971 41.7437 24.7179C41.6257 24.5361 41.2846 24.499 41.0813 24.4135C41.4998 23.3633 41.9255 22.2955 42.3792 21.157C44.5286 23.0916 46.7058 25.0514 48.9873 27.1051C48.0654 27.4256 47.2906 27.6984 46.5136 27.9648C42.2399 29.4306 37.9623 30.8857 33.6957 32.3722C33.1928 32.5474 32.9833 32.4144 32.6225 32.044C31.568 30.9613 30.421 29.9671 29.2935 28.9572C26.363 26.3322 23.4239 23.7167 20.4859 21.1004C20.414 21.0363 20.3135 21.0044 20.2262 20.9575C20.2484 20.8894 20.2704 20.8212 20.2924 20.7531ZM29.7521 17.3982C31.0455 14.9865 33.7523 13.7641 36.4656 14.3661C39.0718 14.9443 41.0014 17.2437 41.1339 19.899C41.1889 21.0001 40.9941 22.0415 40.496 23.0223C40.1904 23.6239 39.8389 24.1471 39.3949 24.5256L30.6975 24.4244C29.0688 22.5729 28.4873 19.756 29.7521 17.3982ZM49.4772 25.259C47.1933 23.2295 44.9207 21.1875 42.6694 19.1222C42.3482 18.8274 42.0947 18.4026 41.9427 17.989C41.0522 15.5651 39.4036 13.9758 36.9026 13.3006C36.4112 13.168 35.9026 13.0986 35.402 13H34.9618C34.7482 13.0453 34.5367 13.1077 34.3209 13.1335C32.5178 13.3489 31.0449 14.174 29.8069 15.4881C29.5059 15.8075 29.1014 16.0949 28.6894 16.2334C25.7964 17.2058 22.889 18.136 19.986 19.0786C18.4816 19.567 17.572 20.5867 17.2451 22.1326C16.1993 27.0787 15.1539 32.0248 14.1044 36.9702C13.7935 38.435 14.1741 39.7007 15.2718 40.6969C19.0727 44.1464 22.8888 47.579 26.7136 51.002C27.8005 51.9747 29.0886 52.2354 30.4748 51.7884C35.3552 50.2146 40.231 48.6266 45.1037 47.0287C46.5222 46.5635 47.3844 45.5592 47.6942 44.105C48.742 39.184 49.7688 34.2584 50.8233 29.3387C51.1746 27.6993 50.7257 26.3685 49.4772 25.259ZM23.2712 33.5726C22.2673 33.5406 21.459 34.4606 21.4518 35.6436C21.4444 36.8507 22.2574 37.8006 23.2872 37.7878C24.2646 37.7758 25.0272 36.8738 25.0338 35.7219C25.0406 34.5516 24.2636 33.6041 23.2712 33.5726ZM41.7059 44.0343C42.5081 44.011 43.1947 43.7459 43.707 43.1234C44.1178 42.624 44.3056 42.0577 44.0468 41.4259C43.7879 40.7936 43.2565 40.5214 42.6126 40.4597C41.8177 40.3834 41.1176 40.6272 40.5513 41.1927C40.0331 41.7103 39.7741 42.3301 40.0643 43.0492C40.3572 43.7742 40.989 43.9977 41.7059 44.0343ZM36.7855 38.1768C37.2167 38.0206 37.8665 37.6346 38.0428 36.5677C38.1895 35.6798 37.6618 35.1698 37.4654 35.0427C36.3879 34.3453 34.6097 35.0149 34.1652 36.2257C33.951 36.8092 33.9796 37.3925 34.4644 37.8469C35.1517 38.4912 35.9629 38.4748 36.7855 38.1768Z" fill="url(#paint0_linear)"/>
<defs>
<linearGradient id="paint0_linear" x2="1" gradientUnits="userSpaceOnUse" gradientTransform="translate(32.5) scale(65) rotate(90)">
<stop stop-color="#ACACAC"/>
<stop offset="1" stop-color="#555555"/>
</linearGradient>
</defs>
</svg>
