<svg width="65" height="65" viewBox="0 0 65 65" fill="none" xmlns="http://www.w3.org/2000/svg">
<path fill-rule="evenodd" clip-rule="evenodd" d="M32.5 0C14.5506 0 0 14.5508 0 32.5C0 50.4492 14.5506 65 32.5 65C50.4492 65 65 50.4492 65 32.5C65 14.5508 50.4492 0 32.5 0ZM17.6454 40V25.6836H20.536V40H17.6454ZM23.329 40V25.6836H26.2196V32.041L32.0594 25.6836H35.9462L30.5555 31.2598L36.2391 40H32.4989L28.5634 33.2812L26.2196 35.6738V40H23.329ZM37.743 25.6836H43.4657C44.5985 25.6836 45.4432 25.7308 45.9999 25.8252C46.5565 25.9196 47.0546 26.1165 47.494 26.416C47.9335 26.7155 48.2997 27.1143 48.5927 27.6123C48.8856 28.1104 49.0321 28.6686 49.0321 29.2871C49.0321 29.9577 48.8514 30.5729 48.4901 31.1328C48.1288 31.6927 47.6389 32.1126 47.0204 32.3926C47.8928 32.6465 48.5634 33.0794 49.0321 33.6914C49.5009 34.3034 49.7352 35.0228 49.7352 35.8496C49.7352 36.5007 49.5839 37.1338 49.2811 37.749C48.9784 38.3643 48.565 38.8558 48.0409 39.2236C47.5168 39.5915 46.8707 39.8177 46.1024 39.9023C45.6206 39.9544 44.4585 39.987 42.6161 40H37.743V25.6836ZM40.6337 28.0664V31.377H42.5282C43.6545 31.377 44.3544 31.3607 44.6278 31.3281C45.1226 31.2695 45.5116 31.0986 45.7948 30.8154C46.078 30.5322 46.2196 30.1595 46.2196 29.6973C46.2196 29.2546 46.0975 28.8949 45.8534 28.6182C45.6093 28.3415 45.2463 28.1738 44.7645 28.1152C44.4781 28.0827 43.6545 28.0664 42.2938 28.0664H40.6337ZM40.6337 33.7598V37.5879H43.3094C44.3511 37.5879 45.0119 37.5586 45.2919 37.5C45.7216 37.4219 46.0715 37.2314 46.3417 36.9287C46.6119 36.626 46.7469 36.2207 46.7469 35.7129C46.7469 35.2832 46.6428 34.9186 46.4344 34.6191C46.2261 34.3197 45.925 34.1016 45.5311 33.9648C45.1372 33.8281 44.2828 33.7598 42.9677 33.7598H40.6337Z" fill="url(#paint0_linear)"/>
<defs>
<linearGradient id="paint0_linear" x2="1" gradientUnits="userSpaceOnUse" gradientTransform="translate(32.5) scale(65) rotate(90)">
<stop stop-color="#ACACAC"/>
<stop offset="1" stop-color="#555555"/>
</linearGradient>
</defs>
</svg>
