<svg width="65" height="65" viewBox="0 0 65 65" fill="none" xmlns="http://www.w3.org/2000/svg">
<path fill-rule="evenodd" clip-rule="evenodd" d="M32.5 65C50.4492 65 65 50.4492 65 32.5C65 14.5508 50.4492 0 32.5 0C14.5508 0 0 14.5508 0 32.5C0 50.4492 14.5508 65 32.5 65ZM18.1818 21L23.2727 22.2778L13.0909 44L8 42.7222L18.1818 21ZM43.6364 38.8889L50 42.7222V44H41.0909L43.6364 38.8889ZM57 22.2778L51.9091 21L48.7273 27.3889H52.5455L57 22.2778ZM28.3635 21L32.1818 24.8333L36.1736 28.8408L39.8181 21L44.9091 22.2778L34.7273 44L30.9092 40.1667L26.9174 36.159L23.2727 44L18.1818 42.7222L28.3635 21Z" fill="url(#paint0_linear)"/>
<defs>
<linearGradient id="paint0_linear" x2="1" gradientUnits="userSpaceOnUse" gradientTransform="translate(65) scale(65) rotate(90)">
<stop stop-color="#FF008A"/>
<stop offset="1" stop-color="#DF1616"/>
</linearGradient>
</defs>
</svg>
