<svg width="65" height="65" viewBox="0 0 65 65" fill="none" xmlns="http://www.w3.org/2000/svg">
<path fill-rule="evenodd" clip-rule="evenodd" d="M32.5 0C14.5505 0 0 14.5508 0 32.5C0 50.4492 14.5505 65 32.5 65C50.4492 65 65 50.4492 65 32.5C65 14.5508 50.4492 0 32.5 0ZM50.0499 42.9724L32.2471 53.4446L14.4443 42.9724V22.0278L32.2471 11.5557L50.0499 22.0278V42.9724ZM30.0312 34.3306L31.6858 33.3523L29.5265 32.083L28.2216 32.8538L25.1302 31.0464L26.4456 30.2715L19.4731 26.1685L32.6052 18.4441L44.998 25.6448L41.6763 27.6094L32.6116 22.3125L26.0559 26.1685L29.7296 28.3298L31.6083 27.2197L34.6997 29.0273L32.8126 30.1436L34.9698 31.4128L36.5093 30.5039L39.6007 32.3093L38.0508 33.2246L45.7458 37.7527L32.6136 45.4751L18.9453 37.5371L19.0018 33.677L32.6052 41.6064L39.163 37.7527L34.7667 35.166L33.1226 36.1357L30.0312 34.3306Z" fill="url(#paint0_linear)"/>
<defs>
<linearGradient id="paint0_linear" x2="1" gradientUnits="userSpaceOnUse" gradientTransform="translate(32.5) scale(65) rotate(90)">
<stop stop-color="#ACACAC"/>
<stop offset="1" stop-color="#555555"/>
</linearGradient>
</defs>
</svg>
