<svg width="65" height="65" viewBox="0 0 65 65" fill="none" xmlns="http://www.w3.org/2000/svg">
<path fill-rule="evenodd" clip-rule="evenodd" d="M32.5 65C50.4492 65 65 50.4492 65 32.5C65 14.5508 50.4492 0 32.5 0C14.5508 0 0 14.5508 0 32.5C0 50.4492 14.5508 65 32.5 65ZM44.5631 10.7263C44.5631 12.2295 43.3741 13.4525 41.9082 13.4525C40.4421 13.4525 39.2532 12.2363 39.2532 10.7331C39.2532 9.22989 40.4421 8.00684 41.9082 8C43.3741 8 44.5631 9.22305 44.5631 10.7263ZM44.9407 18.2287C44.9407 19.5064 43.9341 20.5381 42.691 20.5381C41.448 20.5381 40.4414 19.5064 40.4414 18.2287C40.4414 16.951 41.448 15.9192 42.691 15.9192C43.9341 15.9192 44.9407 16.9578 44.9407 18.2287ZM51.109 19.1373C51.109 20.4082 50.1024 21.4399 48.8661 21.4399C47.6298 21.4399 46.6232 20.4082 46.6232 19.1373C46.6232 17.8664 47.6298 16.8347 48.8661 16.8347C50.1024 16.8347 51.109 17.8664 51.109 19.1373ZM50.0432 25.5341C50.0432 26.6205 49.1852 27.502 48.1245 27.502C47.0638 27.502 46.2059 26.6205 46.2059 25.5341C46.2059 24.4477 47.0638 23.5663 48.1245 23.5663C49.1852 23.5663 50.0432 24.4477 50.0432 25.5341ZM55 27.4864C55 28.5796 54.1353 29.4679 53.0679 29.4679C52.0005 29.4679 51.1357 28.5796 51.1357 27.4864C51.1357 26.3931 52.0005 25.5049 53.0679 25.5049C54.1353 25.5049 55 26.3931 55 27.4864ZM43.8779 24.666C43.8779 25.7798 42.9996 26.6817 41.912 26.6817C40.8243 26.6817 39.9462 25.7729 39.9462 24.666C39.9462 23.5523 40.8243 22.6504 41.912 22.6504C42.9996 22.6504 43.8779 23.5523 43.8779 24.666ZM41.7788 29.8177C41.7788 30.7469 41.0425 31.5054 40.1305 31.5054C39.2185 31.5054 38.4821 30.7469 38.4821 29.8177C38.4821 28.8885 39.2185 28.13 40.1305 28.13C41.0425 28.13 41.7788 28.8816 41.7788 29.8177ZM47.9478 30.6771C47.9478 31.6064 47.2181 32.358 46.3129 32.358C45.4076 32.358 44.6713 31.6064 44.678 30.6771C44.678 29.7479 45.4076 28.9963 46.3129 28.9963C47.2181 28.9963 47.9478 29.7479 47.9478 30.6771ZM52.8906 32.6219C52.8906 33.558 52.1543 34.3165 51.2423 34.3165C50.3303 34.3165 49.5939 33.558 49.5939 32.6219C49.5939 31.6859 50.3303 30.9274 51.2423 30.9274C52.1543 30.9274 52.8906 31.6859 52.8906 32.6219ZM50.1989 36.5474C50.1989 37.3332 49.5773 37.9755 48.8071 37.9755C48.037 37.9755 47.4154 37.3332 47.4154 36.5474C47.4154 35.7617 48.037 35.1194 48.8071 35.1194C49.5773 35.1194 50.1989 35.7617 50.1989 36.5474ZM45.2799 34.586C45.2799 35.3923 44.6382 36.0482 43.8545 36.0482C43.0708 36.0482 42.4291 35.3923 42.4291 34.586C42.4291 33.7798 43.0641 33.1238 43.8545 33.1238C44.6449 33.1238 45.2799 33.7798 45.2799 34.586ZM39.0922 33.7068C39.0922 34.5062 38.4572 35.1553 37.6803 35.1553C36.8966 35.1553 36.2683 34.5062 36.2683 33.7068C36.2683 32.9073 36.9033 32.2582 37.6803 32.2582C38.4639 32.2582 39.0922 32.9073 39.0922 33.7068ZM42.3417 37.3351C42.3417 38.0252 41.7944 38.5923 41.1122 38.5923C40.4298 38.5923 39.8826 38.032 39.8826 37.3351C39.8826 36.645 40.4298 36.0779 41.1122 36.0779C41.7944 36.0779 42.3417 36.6382 42.3417 37.3351ZM47.3059 39.2806C47.3059 39.9843 46.7452 40.5515 46.0629 40.5515C45.3806 40.5515 44.8267 39.9843 44.8198 39.2806C44.8198 38.5768 45.3806 38.0097 46.0629 38.0097C46.752 38.0097 47.3059 38.5768 47.3059 39.2806ZM44.2539 41.0173C44.2539 41.5707 43.8148 42.0217 43.2744 42.0217C42.7339 42.0217 42.3015 41.5707 42.2948 41.0173C42.2948 40.4638 42.7339 40.0128 43.2744 40.0128C43.8148 40.0128 44.2539 40.4638 44.2539 41.0173ZM41.5181 41.9014C41.5181 42.4002 41.1262 42.8102 40.6331 42.8102C40.1399 42.8102 39.7413 42.407 39.748 41.9014C39.748 41.4026 40.1399 40.9927 40.6331 40.9927C41.1194 40.9927 41.5181 41.3958 41.5181 41.9014ZM39.3734 39.1176C39.3734 39.7121 38.9005 40.1972 38.3195 40.1972C37.7385 40.1972 37.2656 39.7121 37.2656 39.1176C37.2656 38.5232 37.7385 38.0381 38.3195 38.0381C38.9005 38.0381 39.3734 38.5232 39.3734 39.1176ZM36.153 36.4627C36.153 37.1596 35.599 37.7199 34.9235 37.7199C34.2479 37.7199 33.7007 37.1596 33.694 36.4627C33.694 35.7657 34.2479 35.2055 34.9235 35.2055C35.6058 35.2055 36.153 35.7657 36.153 36.4627ZM47.634 50.752C47.634 52.2484 46.4518 53.4646 44.9926 53.4646C43.5333 53.4646 42.3511 52.2484 42.3511 50.752C42.3511 49.2556 43.5333 48.0394 44.9926 48.0394C46.4518 48.0394 47.634 49.2556 47.634 50.752ZM40.4819 47.7685C40.4819 49.0189 39.4956 50.0301 38.2797 50.0301C37.0636 50.0301 36.0773 49.0189 36.0773 47.7685C36.0773 46.5181 37.0636 45.5069 38.2797 45.5069C39.4956 45.5069 40.4819 46.5181 40.4819 47.7685ZM36.6677 52.7179C36.6677 53.9819 35.6747 55 34.4452 55C33.2156 55 32.2225 53.9751 32.2225 52.7179C32.2225 51.4538 33.2156 50.4357 34.4452 50.4357C35.6747 50.4357 36.6677 51.4606 36.6677 52.7179ZM35.2175 43.8687C35.2175 44.9619 34.3528 45.8434 33.2921 45.8434C32.2316 45.8434 31.3668 44.9551 31.3668 43.8687C31.3668 42.7755 32.2316 41.894 33.2921 41.894C34.3528 41.894 35.2175 42.7755 35.2175 43.8687ZM31.3843 48.9122C31.3843 49.9986 30.5262 50.8801 29.4656 50.8801C28.405 50.8801 27.5403 49.9986 27.547 48.9122C27.547 47.8258 28.405 46.9444 29.4656 46.9444C30.5262 46.9444 31.3843 47.8258 31.3843 48.9122ZM27.2545 52.3393C27.2545 53.4188 26.4033 54.3003 25.3427 54.3003C24.2887 54.3003 23.4308 53.4188 23.4308 52.3393C23.4308 51.2597 24.282 50.3783 25.3427 50.3783C26.3965 50.3783 27.2545 51.2528 27.2545 52.3393ZM23.546 48.1751C23.546 49.0975 22.8097 49.8491 21.9111 49.8491C21.0127 49.8491 20.2831 49.0975 20.2762 48.1751C20.2762 47.2527 21.0127 46.5011 21.9111 46.5011C22.8164 46.5011 23.546 47.2527 23.546 48.1751ZM27.6766 44.7411C27.6766 45.6635 26.947 46.4151 26.0417 46.4151C25.1365 46.4151 24.4069 45.6635 24.4069 44.7411C24.4069 43.8187 25.1365 43.0671 26.0417 43.0671C26.947 43.0671 27.6766 43.8119 27.6766 44.7411ZM31.5312 39.6978C31.5312 40.6271 30.8016 41.3787 29.8964 41.3787C28.9911 41.3787 28.2615 40.6271 28.2615 39.6978C28.2615 38.7686 28.9911 38.017 29.8964 38.017C30.8016 38.017 31.5312 38.7686 31.5312 39.6978ZM25.4194 40.617C25.4194 41.4233 24.7844 42.0724 24.0007 42.0724C23.217 42.0724 22.582 41.4233 22.582 40.617C22.582 39.8107 23.217 39.1616 24.0007 39.1616C24.7844 39.1616 25.4194 39.8107 25.4194 40.617ZM21.297 44.0513C21.297 44.8507 20.6688 45.493 19.8918 45.493C19.115 45.493 18.4867 44.8507 18.4867 44.0513C18.4867 43.2518 19.115 42.6096 19.8918 42.6096C20.6688 42.6096 21.297 43.2518 21.297 44.0513ZM20.1621 40.2402C20.1621 40.9235 19.6149 41.4838 18.946 41.4838C18.2772 41.4838 17.7301 40.9304 17.7301 40.2402C17.7301 39.557 18.2772 38.9967 18.946 38.9967C19.6149 38.9967 20.1621 39.5501 20.1621 40.2402ZM19.9519 36.8937C19.9519 37.4882 19.4858 37.9664 18.9115 37.9664C18.3373 37.9664 17.8712 37.4882 17.8712 36.8937C17.8712 36.2993 18.3373 35.821 18.9115 35.821C19.4858 35.821 19.9519 36.3061 19.9519 36.8937ZM20.3695 34.1324C20.3695 34.6312 19.9778 35.0411 19.4846 35.0411C18.9915 35.0411 18.5996 34.6312 18.5996 34.1324C18.5996 33.6336 18.9915 33.2236 19.4846 33.2236C19.9709 33.2236 20.3695 33.6336 20.3695 34.1324ZM24.0815 33.4734C24.0815 34.0678 23.6086 34.5529 23.0277 34.5529C22.4467 34.5529 21.9738 34.0678 21.9738 33.4734C21.9738 32.8789 22.4467 32.3938 23.0277 32.3938C23.6086 32.3938 24.0815 32.8789 24.0815 33.4734ZM28.146 31.7625C28.146 32.4525 27.592 33.0197 26.9164 33.0197C26.2341 33.0197 25.6869 32.4594 25.6869 31.7625C25.6869 31.0723 26.2408 30.5052 26.9164 30.5052C27.5988 30.5052 28.146 31.0655 28.146 31.7625ZM29.2406 35.5743C29.2406 36.3669 28.6123 37.0092 27.8422 37.0092C27.0653 37.0092 26.4437 36.3669 26.4437 35.5743C26.4437 34.7817 27.072 34.1394 27.8422 34.1394C28.6123 34.1394 29.2406 34.7817 29.2406 35.5743ZM24.2924 36.8206C24.2924 37.5108 23.7518 38.071 23.0763 38.071C22.4008 38.071 21.8535 37.5108 21.8602 36.8206C21.8602 36.1306 22.4008 35.5703 23.0763 35.5703C23.7451 35.5703 24.2924 36.1306 24.2924 36.8206ZM12.2694 33.5188C12.2694 35.0083 11.0872 36.2177 9.63477 36.2177C8.18225 36.2177 7 35.0083 7 33.5188C7 32.0293 8.18225 30.8199 9.63477 30.8199C11.0872 30.8199 12.2694 32.0293 12.2694 33.5188ZM17.8716 29.0805C17.8716 30.3582 16.865 31.3968 15.6152 31.3968C14.3722 31.3968 13.3588 30.3651 13.3588 29.0805C13.3588 27.8028 14.3654 26.7642 15.6152 26.7642C16.8583 26.7642 17.8716 27.8028 17.8716 29.0805ZM15.5243 23.1505C15.5243 24.4214 14.5245 25.4531 13.2815 25.4531C12.0383 25.4531 11.0317 24.4214 11.0386 23.1505C11.0386 21.8795 12.0383 20.8478 13.2815 20.8478C14.5177 20.8478 15.5243 21.8795 15.5243 23.1505ZM20.9723 20.6622C20.9723 21.7554 20.1075 22.6368 19.0469 22.6368C17.9863 22.6368 17.1216 21.7554 17.1216 20.6622C17.1216 19.5689 17.9863 18.6875 19.0469 18.6875C20.1075 18.6875 20.9723 19.5689 20.9723 20.6622ZM23.334 26.585C23.334 27.6783 22.4692 28.5665 21.4019 28.5665C20.3345 28.5665 19.4697 27.6783 19.4697 26.585C19.4697 25.4918 20.3345 24.6035 21.4019 24.6035C22.4692 24.6035 23.334 25.4918 23.334 26.585ZM28.291 25.6475C28.291 26.5836 27.5547 27.3352 26.6494 27.3352C25.7373 27.3352 25.001 26.5767 25.0077 25.6475C25.0077 24.7114 25.7441 23.9598 26.6494 23.9598C27.5547 23.9598 28.291 24.7182 28.291 25.6475ZM32.5988 25.9016C32.5988 26.7011 31.9637 27.3502 31.1801 27.3502C30.4032 27.3502 29.7682 26.7011 29.7614 25.9016C29.7614 25.1022 30.3964 24.4531 31.1801 24.4531C31.9637 24.4531 32.5988 25.1022 32.5988 25.9016ZM36.1208 26.9997C36.1208 27.6761 35.5804 28.2227 34.925 28.2227C34.2698 28.2227 33.7361 27.6693 33.7294 26.9997C33.7294 26.3232 34.2698 25.7766 34.925 25.7766C35.5872 25.7766 36.1208 26.3232 36.1208 26.9997ZM36.4535 22.6933C36.4535 23.2809 35.9873 23.7592 35.4131 23.7592C34.8389 23.7592 34.3727 23.2809 34.3727 22.6933C34.3727 22.1057 34.8389 21.6273 35.4131 21.6273C35.9873 21.6273 36.4535 22.1057 36.4535 22.6933ZM33.7362 21.0617C33.7362 21.745 33.1958 22.2984 32.5337 22.2984C31.8649 22.2984 31.3312 21.745 31.3312 21.0617C31.3312 20.3784 31.8717 19.825 32.5337 19.825C33.1958 19.825 33.7362 20.3784 33.7362 21.0617ZM30.2373 19.9716C30.2373 20.7642 29.609 21.4133 28.8322 21.4133C28.0552 21.4133 27.427 20.771 27.427 19.9716C27.427 19.179 28.0552 18.5299 28.8322 18.5299C29.609 18.5299 30.2373 19.1721 30.2373 19.9716ZM25.9568 19.7314C25.9568 20.6606 25.2205 21.419 24.3083 21.419C23.4031 21.419 22.6667 20.6674 22.66 19.7314C22.66 18.8021 23.3964 18.0437 24.3083 18.0437C25.2205 18.0437 25.9568 18.8021 25.9568 19.7314ZM20.0797 15.2853C20.0797 16.3444 19.2488 17.1985 18.2151 17.1985C17.1882 17.1985 16.3506 16.3444 16.3506 15.2853C16.3506 14.2263 17.1815 13.3722 18.2151 13.3722C19.2419 13.3722 20.0797 14.2263 20.0797 15.2853ZM25.1077 14.3514C25.1077 15.2806 24.3713 16.0391 23.4594 16.0391C22.5474 16.0391 21.8109 15.2806 21.8109 14.3514C21.8109 13.4221 22.5474 12.6637 23.4594 12.6637C24.3713 12.6637 25.1077 13.4221 25.1077 14.3514ZM29.4086 14.6056C29.4086 15.4118 28.7736 16.0609 27.9899 16.0609C27.2063 16.0609 26.5712 15.405 26.5712 14.6056C26.5712 13.7993 27.2063 13.1502 27.9899 13.1502C28.7736 13.1502 29.4086 13.7993 29.4086 14.6056ZM32.9025 15.7037C32.9025 16.3802 32.3688 16.9268 31.7068 16.9268C31.0514 16.9268 30.511 16.3733 30.511 15.7037C30.511 15.0273 31.0447 14.4807 31.7068 14.4807C32.3688 14.4807 32.9025 15.0273 32.9025 15.7037ZM35.6305 17.3337C35.6305 17.9349 35.1509 18.4269 34.5631 18.4269C33.9753 18.4269 33.4957 17.9349 33.4957 17.3337C33.4957 16.7324 33.9753 16.2404 34.5631 16.2404C35.1509 16.2404 35.6305 16.7256 35.6305 17.3337ZM37.5366 19.2458C37.5366 19.7446 37.1448 20.1477 36.6583 20.1477C36.1719 20.1477 35.7733 19.7446 35.78 19.2458C35.78 18.747 36.1719 18.3439 36.6583 18.3439C37.1448 18.3439 37.5366 18.747 37.5366 19.2458Z" fill="url(#paint0_linear)"/>
<defs>
<linearGradient id="paint0_linear" x1="32.5" y1="0" x2="32.5" y2="65" gradientUnits="userSpaceOnUse">
<stop stop-color="white"/>
<stop offset="1" stop-color="#8785FF"/>
</linearGradient>
</defs>
</svg>
