<svg width="65" height="65" viewBox="0 0 65 65" fill="none" xmlns="http://www.w3.org/2000/svg">
<path fill-rule="evenodd" clip-rule="evenodd" d="M32.5 65C50.4493 65 65 50.4493 65 32.5C65 14.5507 50.4493 0 32.5 0C14.5507 0 0 14.5507 0 32.5C0 50.4493 14.5507 65 32.5 65ZM44.5272 16.9341L36.0606 12L27.5909 16.9359L36.0606 21.8719V31.7292L27.5909 36.6651L36.0606 41.601L36.0638 41.5992L44.5303 46.5332L52.9969 41.5992L53 41.601V41.5973V31.7364V31.7328V31.7292V21.8682V21.8646L52.9969 21.8664L44.5303 16.9323L44.5272 16.9341ZM34.649 30.9691L32.9997 30.008L24.7677 34.8054V35.0706L26.9394 36.3362L18.4697 41.2721V44.0123L10 39.0764L18.4697 34.1405V31.4639L16.298 30.1983L24.7677 25.2624V25.2143L17.7096 21.101L26.1793 16.165V20.3301L31.0724 23.1816L34.649 21.0973V25.266V30.9691ZM36.0606 43.1282L44.5303 48.0641L36.0606 53V43.1282ZM22.4874 26.3621L14.0177 21.4261V31.298L22.4874 26.3621ZM33.9975 50.8079L27.27 46.8874L24.1162 48.7254V38.8536L30.8436 42.7741L33.9975 40.9361V50.8079Z" fill="url(#paint0_linear)"/>
<defs>
<linearGradient id="paint0_linear" x1="32" y1="0" x2="32" y2="70" gradientUnits="userSpaceOnUse">
<stop stop-color="#9AEFE8"/>
<stop offset="1" stop-color="#0CD8CC"/>
</linearGradient>
</defs>
</svg>
