<svg width="65" height="65" viewBox="0 0 65 65" fill="none" xmlns="http://www.w3.org/2000/svg">
<path fill-rule="evenodd" clip-rule="evenodd" d="M32.5 0C14.5505 0 0 14.5508 0 32.5C0 50.4492 14.5505 65 32.5 65C50.4492 65 65 50.4492 65 32.5C65 14.5508 50.4492 0 32.5 0ZM32.4999 52C21.7303 52 12.9999 43.2695 12.9999 32.5C12.9999 21.7305 21.7303 13 32.4999 13C43.2694 13 51.9999 21.7305 51.9999 32.5C51.9999 43.2695 43.2694 52 32.4999 52ZM32.4999 49.4001C41.8335 49.4001 49.3999 41.8337 49.3999 32.5C49.3999 23.1665 41.8335 15.6001 32.4999 15.6001C23.1663 15.6001 15.5999 23.1665 15.5999 32.5C15.5999 41.8337 23.1663 49.4001 32.4999 49.4001ZM48.0999 32.5002C48.0999 41.1157 41.1156 48.1001 32.4999 48.1001C23.8843 48.1001 16.8999 41.1157 16.8999 32.5002C16.8999 23.8845 23.8843 16.9001 32.4999 16.9001C41.1156 16.9001 48.0999 23.8845 48.0999 32.5002ZM29.4475 28.3484C29.2913 29.4766 30.0046 29.73 30.7501 29.8237C31.1178 29.8696 31.4922 29.8606 31.8669 29.8518L31.8721 29.8516L31.8772 29.8513L31.8823 29.8511C32.2371 29.842 32.592 29.833 32.9419 29.8699C34.0825 29.9897 34.3865 29.4314 34.2634 28.3484H29.4475ZM29.5955 27.6562C28.7776 27.626 28.0587 27.3818 28.0436 26.2004H34.4741C34.7976 27.2937 34.4789 27.7524 33.3395 27.6924C32.6698 27.6572 31.998 27.6626 31.3262 27.668C30.7489 27.6726 30.1716 27.6772 29.5955 27.6562ZM26.8265 23.9944C26.7623 24.9207 27.3121 25.3899 28.0305 25.4131C29.6322 25.4658 31.2361 25.4565 32.8568 25.4473H32.8645C33.4983 25.4436 34.1348 25.4399 34.7747 25.4399L34.9591 23.9944H26.8265ZM35.9371 23.9915H40.7172C40.4606 25.395 40.2245 26.7878 39.99 28.1704C39.4696 31.2395 38.9578 34.2581 38.2509 37.23C36.8431 43.1475 30.217 43.5364 26.6938 41.8792C24.9412 41.0547 23.9932 38.6538 24.2842 36.2681C24.3335 35.8638 24.3997 35.4614 24.4705 35.0315C24.5043 34.8267 24.5391 34.6155 24.5735 34.3948H29.0497C29.0302 34.5896 29.0088 34.7786 28.9878 34.9636C28.9429 35.3591 28.9 35.7368 28.8824 36.116C28.8375 37.0903 28.8256 38.0918 30.0021 38.4607C31.403 38.9004 32.9005 38.481 33.3927 37.3237C33.8745 36.1909 34.1421 34.9463 34.3571 33.7251C34.762 31.4226 35.1263 29.113 35.493 26.7891C35.6398 25.8591 35.7869 24.9265 35.9371 23.9915Z" fill="url(#paint0_linear)"/>
<defs>
<linearGradient id="paint0_linear" x2="1" gradientUnits="userSpaceOnUse" gradientTransform="translate(32.5) scale(65) rotate(90)">
<stop stop-color="#E4C079"/>
<stop offset="1" stop-color="#9C6114"/>
</linearGradient>
</defs>
</svg>
