<svg width="65" height="65" viewBox="0 0 65 65" fill="none" xmlns="http://www.w3.org/2000/svg">
<path fill-rule="evenodd" clip-rule="evenodd" d="M0 32.5C0 14.5508 14.5505 0 32.5 0C50.4492 0 65 14.5508 65 32.5C65 50.4492 50.4492 65 32.5 65C14.5505 65 0 50.4492 0 32.5ZM18.22 45.5608C21.7634 49.3936 26.8345 51.7935 32.4659 51.7935C43.1785 51.7935 51.8627 43.1094 51.8627 32.3967C51.8627 28.116 50.4761 24.1592 48.1273 20.9509L55 18.4495L54.2942 16.5105L46.7377 19.2607C43.193 15.4116 38.1111 13 32.4659 13C21.7534 13 13.0692 21.6843 13.0692 32.3967C13.0692 36.6521 14.4396 40.5874 16.7629 43.7854L9.99988 46.2471L10.7408 48.283L18.22 45.5608ZM20.3451 44.7874C23.4705 47.8452 27.748 49.73 32.4659 49.73C42.0388 49.73 49.7992 41.9697 49.7992 32.3967C49.7992 28.3555 48.4163 24.6375 46.0978 21.6897L31.6344 26.9539L36.0454 39.0728L34.3003 39.708L34.2032 39.7434L20.3451 44.7874ZM18.7902 43.0476L33.4623 37.7075L29.7924 27.6243L15.1416 32.9568C15.2622 36.7556 16.6051 40.2461 18.7902 43.0476ZM44.6147 20.0334C41.4869 16.9595 37.1979 15.0635 32.4659 15.0635C23.4534 15.0635 16.0475 21.9419 15.2113 30.7356L44.6147 20.0334Z" fill="url(#paint0_linear)"/>
<defs>
<linearGradient id="paint0_linear" x2="1" gradientUnits="userSpaceOnUse" gradientTransform="translate(32.5) scale(65) rotate(90)">
<stop stop-color="#FDE785"/>
<stop offset="1" stop-color="#770000"/>
</linearGradient>
</defs>
</svg>
