<svg width="65" height="65" viewBox="0 0 65 65" fill="none" xmlns="http://www.w3.org/2000/svg">
<path fill-rule="evenodd" clip-rule="evenodd" d="M32.5 0C14.5505 0 0 14.5508 0 32.5C0 50.4492 14.5505 65 32.5 65C50.4492 65 65 50.4492 65 32.5C65 14.5508 50.4492 0 32.5 0ZM32.4706 53.4446C31.09 53.4446 29.7338 53.0796 28.5396 52.3867L17.2322 45.8511C14.7958 44.4409 13.2937 41.8408 13.2888 39.0259V25.9753C13.2987 23.1616 14.7996 20.564 17.2322 19.1501L28.5396 12.6143C29.7399 11.9219 31.1011 11.5569 32.4867 11.5557C33.8625 11.5544 35.2139 11.9199 36.4015 12.6143L47.7098 19.1501C50.1459 20.5605 51.6476 23.1604 51.6523 25.9753V39.0259C51.6426 41.8394 50.1422 44.437 47.7098 45.8511L36.4015 52.3867C35.2074 53.0798 33.8512 53.4446 32.4706 53.4446ZM23.8707 42.0742L25.9652 39.9797C26.5183 40.5378 27.2711 40.8523 28.0569 40.8535C29.6869 40.8535 31.0082 39.5322 31.0082 37.9023V21.1797H33.9539V31.0151C33.9569 32.6406 35.2739 33.9578 36.8994 33.9609C37.6858 33.9612 38.4397 33.6475 38.9939 33.0898L41.0884 35.1843C39.9847 36.3022 38.4701 36.9177 36.8994 36.8865C35.8652 36.8879 34.849 36.616 33.9539 36.0981V37.8833C33.9496 41.1472 31.3046 43.7917 28.0406 43.7954C26.475 43.8098 24.9703 43.1887 23.8707 42.0742Z" fill="url(#paint0_linear)"/>
<defs>
<linearGradient id="paint0_linear" x2="1" gradientUnits="userSpaceOnUse" gradientTransform="translate(32.5 65) scale(65) rotate(-90)">
<stop stop-color="#0050DB"/>
<stop offset="1" stop-color="#00A4FF"/>
</linearGradient>
</defs>
</svg>
