<svg width="65" height="65" viewBox="0 0 65 65" fill="none" xmlns="http://www.w3.org/2000/svg">
<path fill-rule="evenodd" clip-rule="evenodd" d="M38.0459 29.8608L42.6512 32.3405C43.3049 32.6925 43.5489 33.5066 43.1956 34.1584C42.9526 34.6077 42.4892 34.863 42.0109 34.863C41.7949 34.863 41.5758 34.8111 41.3727 34.7015L34.6381 31.0751C34.635 31.0736 34.6329 31.0712 34.6297 31.0694C34.6017 31.0542 34.5755 31.0366 34.5485 31.0193C34.5341 31.0099 34.5191 31.0007 34.505 30.9907C34.4798 30.9732 34.4552 30.9546 34.4311 30.9352C34.4166 30.9236 34.4035 30.9116 34.3897 30.8995C34.3679 30.8804 34.3454 30.8623 34.3247 30.8416C34.3226 30.8395 34.3207 30.8371 34.3186 30.8351C34.2945 30.8102 34.272 30.7832 34.2492 30.7562C34.24 30.7454 34.2298 30.7357 34.2211 30.7247C34.2064 30.7061 34.1933 30.6854 34.1795 30.6655C34.1669 30.6479 34.1553 30.6304 34.1435 30.612C34.1325 30.5947 34.1197 30.5787 34.1092 30.5606C34.1053 30.5536 34.1034 30.546 34.0995 30.5389C34.0861 30.5145 34.0757 30.4893 34.0639 30.4644C34.0476 30.4304 34.0329 30.396 34.0198 30.3607C34.0114 30.3381 34.0012 30.3161 33.9941 30.2933C33.9865 30.2692 33.9826 30.2443 33.9763 30.2199C33.9672 30.1837 33.9596 30.1478 33.9533 30.1109C33.9493 30.0865 33.9433 30.0629 33.9404 30.0385C33.9375 30.0108 33.9394 29.9827 33.9381 29.9544C33.937 29.9329 33.9315 29.9127 33.9315 29.891L33.9525 22.1287C33.954 21.3891 34.5563 20.7905 35.2976 20.7905H35.3012C36.0443 20.7926 36.6447 21.3948 36.6432 22.1355L36.6287 27.578L45.8726 22.3046C45.4229 21.7204 44.9356 21.1595 44.4046 20.6301C41.2249 17.4595 36.997 15.7134 32.5002 15.7134C28.0034 15.7134 23.7755 17.4595 20.5958 20.6301C20.0676 21.1566 19.583 21.7143 19.1354 22.2949L28.4361 27.5822L28.4217 22.1355C28.4199 21.3948 29.0206 20.7926 29.7634 20.7905H29.7673C30.5085 20.7905 31.1108 21.3891 31.1124 22.1287L31.1331 29.891C31.1331 29.9125 31.1279 29.9327 31.1271 29.9541C31.1258 29.9822 31.1273 30.0105 31.1245 30.0385C31.1218 30.0629 31.1155 30.0868 31.1113 30.1111C31.1056 30.1478 31.0975 30.1837 31.0885 30.2194C31.0825 30.244 31.0786 30.2689 31.071 30.2933C31.0636 30.3161 31.0534 30.3381 31.045 30.3609C31.0317 30.396 31.0173 30.4304 31.0013 30.4639C30.9895 30.4891 30.9787 30.5145 30.9654 30.5389C30.9614 30.546 30.9596 30.5536 30.9557 30.5606C30.9452 30.579 30.9321 30.595 30.9211 30.6125C30.9095 30.6306 30.898 30.6479 30.8857 30.6652C30.8718 30.6851 30.8587 30.7058 30.8437 30.7247C30.8351 30.7357 30.8249 30.7454 30.816 30.7562C30.7929 30.7834 30.7701 30.8107 30.7455 30.8358C30.7436 30.8377 30.7423 30.8395 30.7405 30.8413C30.7198 30.862 30.697 30.8804 30.6752 30.8995C30.6616 30.9116 30.648 30.9236 30.6338 30.9352C30.6097 30.9548 30.5851 30.9732 30.5599 30.991C30.5457 31.001 30.5311 31.0099 30.5166 31.019C30.4897 31.0363 30.4632 31.0542 30.4351 31.0694C30.4323 31.0712 30.4299 31.0736 30.427 31.0751L23.6922 34.7015C23.489 34.8111 23.2699 34.863 23.0542 34.863C22.5756 34.863 22.1125 34.6077 21.869 34.1584C21.516 33.5066 21.76 32.6925 22.4137 32.3405L27.0153 29.8629L17.666 24.5481C16.3595 26.9636 15.6647 29.6787 15.6647 32.5002C15.6647 36.9838 17.416 41.1997 20.5958 44.3703C23.4613 47.2268 27.1786 48.9223 31.1758 49.2306L31.1402 36.901L26.424 39.6336C26.2109 39.7568 25.9784 39.8153 25.7491 39.8153C25.2852 39.8153 24.8341 39.5762 24.5844 39.1477C24.2111 38.5071 24.4292 37.6857 25.0716 37.3141L31.8028 33.4138C31.8242 33.4012 31.8476 33.3947 31.8696 33.3834C31.8958 33.3703 31.9199 33.3533 31.9469 33.3417C31.965 33.3339 31.9849 33.3299 32.003 33.3231C32.0421 33.3085 32.0811 33.2964 32.1207 33.2857C32.1458 33.2786 32.17 33.2684 32.1954 33.2629C32.2145 33.2587 32.235 33.2584 32.2544 33.255C32.2955 33.2482 32.3359 33.2437 32.3768 33.2408C32.4051 33.2385 32.4326 33.234 32.4609 33.2335C32.4656 33.2335 32.4701 33.2322 32.4745 33.2322H32.4787C32.4936 33.2322 32.5073 33.2361 32.5219 33.2364C32.5589 33.2377 32.5953 33.2414 32.632 33.2456C32.664 33.2492 32.6957 33.2513 32.7277 33.2571C32.7481 33.261 32.7678 33.2665 32.788 33.2712C32.8215 33.2791 32.854 33.2901 32.8868 33.3006C32.9177 33.3103 32.9486 33.3179 32.979 33.3302C32.9979 33.3378 33.016 33.3465 33.0344 33.3551C33.0692 33.3708 33.102 33.3902 33.1353 33.4088C33.1575 33.4212 33.1809 33.4288 33.2026 33.4427L39.6872 37.567C40.3136 37.9654 40.4976 38.7952 40.0979 39.4198C39.8415 39.8208 39.4064 40.0399 38.9622 40.0399C38.7145 40.0399 38.4642 39.9717 38.2401 39.8289L33.8314 37.025L33.8665 49.2277C37.848 48.9108 41.5494 47.2169 44.4046 44.3703C47.5844 41.1997 49.3355 36.9838 49.3355 32.5002C49.3355 29.6826 48.6433 26.9717 47.3404 24.5589L38.0459 29.8608ZM50.4913 40.0789C49.5077 42.3974 48.1002 44.4798 46.3072 46.2673C44.5145 48.055 42.4264 49.4583 40.101 50.4391C37.6929 51.4547 35.1353 51.9697 32.5 51.9697C29.8648 51.9697 27.3073 51.4547 24.8989 50.4391C22.5738 49.4583 20.4857 48.055 18.693 46.2673C16.9 44.4798 15.4925 42.3974 14.5089 40.0789C13.4903 37.6779 12.9738 35.1277 12.9738 32.4999C12.9738 29.8721 13.4903 27.3224 14.5089 24.9211C15.4925 22.6023 16.9 20.5205 18.693 18.7327C20.4857 16.9452 22.5738 15.5414 24.8989 14.5607C27.3073 13.545 29.8648 13.0303 32.5 13.0303C35.1353 13.0303 37.6929 13.545 40.101 14.5607C42.4264 15.5414 44.5145 16.9452 46.3072 18.7327C48.1002 20.5205 49.5077 22.6023 50.4913 24.9211C51.5101 27.3224 52.0262 29.8721 52.0262 32.4999C52.0262 35.1277 51.5101 37.6779 50.4913 40.0789ZM32.5 0C14.5511 0 0 14.5511 0 32.5C0 50.4494 14.5511 65 32.5 65C50.4494 65 65 50.4494 65 32.5C65 14.5511 50.4494 0 32.5 0Z" fill="url(#paint0_linear)"/>
<defs>
<linearGradient id="paint0_linear" x2="1" gradientUnits="userSpaceOnUse" gradientTransform="translate(-2.39477e-08 30.9051) scale(65.0196) rotate(1.40561)">
<stop stop-color="#23BBE3"/>
<stop offset="1" stop-color="#5E4598"/>
</linearGradient>
</defs>
</svg>
