<svg width="65" height="65" viewBox="0 0 65 65" fill="none" xmlns="http://www.w3.org/2000/svg">
<path fill-rule="evenodd" clip-rule="evenodd" d="M32.5 64.9999C50.4493 64.9999 65 50.4491 65 32.4999C65 14.5506 50.4493 -0.00012207 32.5 -0.00012207C14.5507 -0.00012207 0 14.5506 0 32.4999C0 50.4491 14.5507 64.9999 32.5 64.9999ZM11.6992 42.8113C6.00443 37.1164 6.00443 27.8835 11.6992 22.1887L22.1883 11.6996C27.883 6.00488 37.1159 6.00487 42.8108 11.6996L53.2998 22.1887C58.9947 27.8834 58.9947 37.1164 53.2998 42.8113L42.8108 53.3002C37.1162 58.9951 27.883 58.9951 22.1882 53.3002L11.6992 42.8113ZM14.3659 40.1445C10.144 35.9226 10.144 29.0774 14.3659 24.8554L24.855 14.3663C29.0769 10.1444 35.9222 10.1444 40.144 14.3663L50.6332 24.8554C54.8553 29.0773 54.8551 35.9226 50.6332 40.1445L40.144 50.6334C35.9222 54.8555 29.077 54.8555 24.855 50.6334L14.3659 40.1445ZM40.801 28.1621C40.801 29.0068 40.1171 29.6933 39.2748 29.6933H37.849C36.3154 29.6933 35.0734 30.9403 35.0734 32.4765H35.0683C35.0683 34.0126 36.4939 35.2596 38.025 35.2596H39.2849C40.1221 35.2596 40.801 35.941 40.801 36.7782V40.9694H36.5819C35.7447 40.9694 35.0683 40.288 35.0683 39.4508V38.0479C35.0683 36.5117 33.776 35.2144 32.2424 35.2144V35.2093C30.7087 35.2093 29.5169 36.5695 29.5169 38.1887V39.4634C29.5169 40.2956 28.8456 40.9694 28.0134 40.9694H24.2671V24.0161H28.0436C28.8557 24.0161 29.5144 24.6774 29.5144 25.492V26.91C29.5144 28.4462 30.8344 29.7687 32.3681 29.7687C33.9018 29.7687 35.0658 28.4462 35.0658 26.91V25.5473C35.0658 24.7025 35.7497 24.0161 36.5919 24.0161H40.7985V28.1621H40.801Z" fill="url(#paint0_linear)"/>
<defs>
<linearGradient id="paint0_linear" x1="32.4995" y1="-8.71931e-06" x2="32.4995" y2="65" gradientUnits="userSpaceOnUse">
<stop stop-color="#C05AFF"/>
<stop offset="1" stop-color="#7A00E7"/>
</linearGradient>
</defs>
</svg>
