<svg width="65" height="65" viewBox="0 0 65 65" fill="none" xmlns="http://www.w3.org/2000/svg">
<path fill-rule="evenodd" clip-rule="evenodd" d="M56.1694 33.4096H56.1689H56.1691C55.6662 33.4096 55.2594 33.002 55.2594 32.4996C55.2594 31.9971 55.6664 31.5898 56.1689 31.5898C56.6718 31.5898 57.0789 31.9971 57.0789 32.4996C57.0789 33.002 56.6721 33.4096 56.1691 33.4096H56.1694ZM52.822 40.9175C52.4823 41.7374 51.5416 42.1276 50.7218 41.7874C49.9014 41.4478 49.5119 40.5071 49.8514 39.6867C50.1913 38.8669 51.1314 38.4774 51.9518 38.8171C52.7722 39.157 53.1616 40.0972 52.822 40.9175ZM49.8803 49.8799C49.5249 50.2353 48.9491 50.2353 48.5937 49.8799C48.2383 49.5242 48.2383 48.9487 48.5937 48.5933C48.9491 48.2381 49.5249 48.2381 49.8803 48.5933C50.2352 48.9487 50.2352 49.5242 49.8803 49.8799ZM46.8007 34.866C45.7324 34.866 44.8665 33.9995 44.8665 32.9312V31.8542C44.8665 30.7854 45.7324 29.9192 46.8007 29.9192H47.8779C48.9463 29.9192 49.8127 30.7854 49.8127 31.8542V32.9312C49.8127 33.9995 48.9463 34.866 47.8779 34.866H46.8007ZM45.148 42.9915C45.148 44.0598 44.2817 44.926 43.2132 44.926H42.0649C40.9958 44.926 40.1301 44.0598 40.1301 42.9915V39.9087H36.3342C35.578 39.9087 34.965 39.2951 34.965 38.5387V37.2738C34.965 35.8887 33.7955 34.7187 32.4101 34.7187V34.7139C31.0244 34.7139 29.9469 35.9395 29.9469 37.3997V38.55C29.9469 39.3001 29.3391 39.9087 28.5884 39.9087H25.2021V24.6248H28.6162C29.3509 24.6248 29.9469 25.2203 29.9469 25.9555V27.2334C29.9469 28.6189 31.1399 29.812 32.5259 29.812C33.9114 29.812 34.965 28.6189 34.965 27.2334V26.005C34.965 25.2426 35.5828 24.6248 36.3452 24.6248H40.1301V21.5415C40.1301 20.4732 40.9958 19.6067 42.0649 19.6067H43.2132C44.2817 19.6067 45.148 20.4732 45.148 21.5415V22.69C45.148 23.7583 44.2817 24.6248 43.2132 24.6248H40.148V28.3615C40.148 29.1239 39.5302 29.7422 38.7675 29.7422H37.4785C36.0925 29.7422 34.97 30.8656 34.97 32.2513H34.965C34.965 33.637 36.2532 34.7603 37.6389 34.7603H38.7782C39.5344 34.7603 40.148 35.3736 40.148 36.1298V39.9082H43.2132C44.2817 39.9082 45.148 40.7744 45.148 41.843V42.9915ZM40.9178 52.8211C40.0974 53.1611 39.1573 52.7716 38.8171 51.9512C38.4776 51.1309 38.8671 50.1907 39.6875 49.8508C40.5078 49.5111 41.448 49.9006 41.7882 50.7209C42.1279 51.5413 41.7379 52.4814 40.9178 52.8211ZM34.9734 47.9856C34.9734 49.054 34.1074 49.9204 33.0386 49.9204H31.9614C30.8931 49.9204 30.0271 49.054 30.0271 47.9856V46.9082C30.0271 45.8399 30.8931 44.9736 31.9614 44.9736H33.0386C34.1074 44.9736 34.9734 45.8399 34.9734 46.9082V47.9856ZM32.5006 57.079C31.9976 57.079 31.5906 56.6715 31.5906 56.169C31.5906 55.6666 31.9976 55.259 32.5006 55.259C33.003 55.259 33.4101 55.6666 33.4101 56.169C33.4101 56.6715 33.003 57.079 32.5006 57.079ZM26.1835 51.9512C25.8433 52.7716 24.9032 53.1611 24.0828 52.8211C23.263 52.4814 22.873 51.5413 23.2129 50.7209C23.5526 49.9006 24.4933 49.5111 25.3136 49.8508C26.1335 50.1907 26.5237 51.1309 26.1835 51.9512ZM20.1663 42.9759V41.8274C20.1663 40.7591 21.0328 39.8926 22.1011 39.8926H25.1844V42.9759C25.1844 44.0442 24.3181 44.9107 23.2496 44.9107H22.1011C21.0328 44.9107 20.1663 44.0442 20.1663 42.9759ZM20.1343 32.9312C20.1343 33.9995 19.2678 34.866 18.1995 34.866H17.1223C16.0537 34.866 15.188 33.9995 15.188 32.9312V31.8542C15.188 30.7854 16.0537 29.9192 17.1223 29.9192H18.1995C19.2678 29.9192 20.1343 30.7854 20.1343 31.8542V32.9312ZM16.4073 49.8799C16.0519 50.2353 15.476 50.2353 15.1206 49.8799C14.765 49.5242 14.765 48.9487 15.1206 48.5933C15.476 48.2381 16.0519 48.2381 16.4073 48.5933C16.7621 48.9487 16.7621 49.5242 16.4073 49.8799ZM14.2793 41.7874C13.4589 42.1276 12.5185 41.7374 12.1789 40.9175C11.8392 40.0972 12.2289 39.157 13.049 38.8171C13.8689 38.4774 14.8095 38.8669 15.1492 39.6867C15.4889 40.5071 15.0997 41.4478 14.2793 41.7874ZM12.1788 24.0827C12.5185 23.2629 13.4586 22.8731 14.2787 23.2128C15.0993 23.553 15.4888 24.4929 15.1491 25.3132C14.8089 26.1331 13.8688 26.5233 13.0487 26.1831C12.2283 25.8435 11.8386 24.9025 12.1788 24.0827ZM8.83112 33.4096C8.32868 33.4096 7.92139 33.0023 7.92139 32.4996C7.92139 31.9971 8.32868 31.5898 8.83112 31.5898C9.33383 31.5898 9.74113 31.9971 9.74113 32.4996C9.74113 33.0023 9.33383 33.4096 8.83112 33.4096ZM15.12 15.1198C15.4754 14.7644 16.0513 14.7644 16.4067 15.1198C16.7621 15.4752 16.7621 16.0511 16.4067 16.4065C16.0513 16.7619 15.4754 16.7619 15.12 16.4065C14.7644 16.0511 14.7644 15.4752 15.12 15.1198ZM20.1667 21.5415C20.1667 20.4732 21.0327 19.6067 22.101 19.6067H23.2495C24.3181 19.6067 25.1843 20.4732 25.1843 21.5415V24.6248H22.101C21.0327 24.6248 20.1667 23.7583 20.1667 22.69V21.5415ZM24.0828 12.1786C24.9032 11.8389 25.8433 12.2287 26.1835 13.049C26.5237 13.8689 26.1335 14.8095 25.3136 15.1492C24.4933 15.4892 23.5526 15.0997 23.2129 14.2793C22.873 13.459 23.263 12.5183 24.0828 12.1786ZM30.0271 17.0144C30.0271 15.9456 30.8931 15.0796 31.9614 15.0796H33.0386C34.1074 15.0796 34.9734 15.9456 34.9734 17.0144V18.0911C34.9734 19.1594 34.1074 20.0259 33.0386 20.0259H31.9614C30.8931 20.0259 30.0271 19.1594 30.0271 18.0911V17.0144ZM32.5006 7.92114C33.003 7.92114 33.4101 8.32844 33.4101 8.83114C33.4101 9.33358 33.003 9.74088 32.5006 9.74088C31.9976 9.74088 31.5906 9.33358 31.5906 8.83114C31.5906 8.32844 31.9976 7.92114 32.5006 7.92114ZM38.8171 13.049C39.1573 12.2287 40.0974 11.8389 40.9178 12.1786C41.7379 12.5183 42.1279 13.459 41.7882 14.2793C41.448 15.0997 40.5078 15.4892 39.6875 15.1492C38.8671 14.8095 38.4776 13.8689 38.8171 13.049ZM48.5935 15.1198C48.9486 14.7644 49.5245 14.7644 49.8801 15.1198C50.2353 15.4752 50.2353 16.0511 49.8801 16.4065C49.5245 16.7619 48.9486 16.7619 48.5935 16.4065C48.2384 16.0511 48.2384 15.4752 48.5935 15.1198ZM50.7218 23.2128C51.5417 22.8731 52.4818 23.2629 52.822 24.0827C53.1614 24.9028 52.7717 25.8435 51.9518 26.1831C51.1315 26.5233 50.1908 26.1326 49.8514 25.3127C49.5115 24.4929 49.9009 23.553 50.7218 23.2128ZM32.5 0C14.5508 0 0 14.5508 0 32.5C0 50.4494 14.5508 65 32.5 65C50.4494 65 65 50.4494 65 32.5C65 14.5508 50.4494 0 32.5 0Z" fill="url(#paint0_linear)"/>
<defs>
<linearGradient id="paint0_linear" x2="1" gradientUnits="userSpaceOnUse" gradientTransform="translate(32.5 -1.14664) scale(66.1466) rotate(90)">
<stop stop-color="#FAFAFA"/>
<stop offset="1" stop-color="#82FFEE"/>
</linearGradient>
</defs>
</svg>
