<svg width="65" height="65" viewBox="0 0 65 65" fill="none" xmlns="http://www.w3.org/2000/svg">
<path fill-rule="evenodd" clip-rule="evenodd" d="M30.3496 13.1282C30.2595 13.1497 30.1656 13.1611 30.0692 13.1611C30.0021 13.1611 29.9363 13.1555 29.8721 13.145L30.1114 27.5833C30.2783 27.4927 30.4689 27.4399 30.6714 27.4373L30.3496 13.1282ZM30.6885 29.8523C30.4938 29.8523 30.3101 29.8059 30.147 29.7239L30.5137 51.8513C30.5709 51.843 30.629 51.8386 30.6885 51.8386C30.8026 51.8386 30.9126 51.8547 31.0172 51.8843L30.6885 29.9451L42.0981 42.1313C42.199 41.9785 42.334 41.8499 42.4921 41.7566L31.3647 29.6453C31.1716 29.7761 30.9391 29.8523 30.6885 29.8523ZM31.7015 27.9873C31.593 27.8206 31.4452 27.6824 31.2704 27.5862L42.8199 21.6365C42.8619 21.8455 42.9575 22.0344 43.092 22.1892L31.7015 27.9873ZM44.1106 22.6013L43.1484 41.5899C43.7958 41.6122 44.3137 42.1437 44.3137 42.7963C44.3137 43.4634 43.773 44.0041 43.106 44.0041C42.8502 44.0041 42.6132 43.9244 42.418 43.7886L31.7456 52.4622C31.8413 52.6354 31.8961 52.8344 31.8961 53.0464C31.8961 53.7135 31.3554 54.2542 30.6886 54.2542C30.0216 54.2542 29.4809 53.7135 29.4809 53.0464C29.4809 52.6703 29.6528 52.3343 29.9222 52.1128L23.6854 42.5893C23.4922 42.7201 23.2595 42.7963 23.0087 42.7963C22.3416 42.7963 21.8012 42.2556 21.8012 41.5886C21.8012 40.9444 22.306 40.4178 22.9416 40.3829L21.1732 23.0266C21.1155 23.0353 21.0563 23.0397 20.996 23.0397C20.329 23.0397 19.7883 22.499 19.7883 21.832C19.7883 21.1652 20.329 20.6243 20.996 20.6243C21.3344 20.6243 21.6402 20.7637 21.8594 20.988L29.1548 12.7422C28.9721 12.5304 28.8615 12.255 28.8615 11.9536C28.8615 11.2868 29.4022 10.7461 30.0693 10.7461C30.7361 10.7461 31.2768 11.2868 31.2768 11.9536C31.2768 12.0731 31.2592 12.1882 31.227 12.2969L43.2129 20.4864C43.4249 20.3024 43.7012 20.1908 44.0042 20.1908C44.6712 20.1908 45.2117 20.7315 45.2117 21.3985C45.2117 22.0296 44.7276 22.5473 44.1106 22.6013ZM32.5 0C14.5508 0 0 14.5506 0 32.5C0 50.4492 14.5508 65 32.5 65C50.4494 65 65 50.4492 65 32.5C65 14.5506 50.4494 0 32.5 0Z" fill="url(#paint0_linear)"/>
<defs>
<linearGradient id="paint0_linear" x2="1" gradientUnits="userSpaceOnUse" gradientTransform="translate(32.5 -1.14664) scale(66.1466) rotate(90)">
<stop stop-color="#3297AE"/>
<stop offset="1" stop-color="#6EBB9D"/>
</linearGradient>
</defs>
</svg>
