<svg width="65" height="65" viewBox="0 0 65 65" fill="none" xmlns="http://www.w3.org/2000/svg">
<path fill-rule="evenodd" clip-rule="evenodd" d="M34.4382 32.0975C34.4089 32.0296 34.3895 31.9591 34.3627 31.892C34.3486 31.8409 34.3318 31.7906 34.3124 31.7426C34.2671 31.6548 34.2361 31.5623 34.2052 31.47C34.1882 31.393 34.1541 31.3217 34.1187 31.252C34.0996 31.2027 34.0828 31.1532 34.0692 31.1028C34.0417 31.0349 34.0223 30.966 33.9947 30.8989C33.951 30.8085 33.9198 30.7155 33.882 30.6232L33.8629 30.5225C33.8328 30.4552 33.8107 30.3857 33.7824 30.3186C33.7405 30.2298 33.7085 30.1373 33.6768 30.0468C33.6616 29.9687 33.6265 29.8969 33.5919 29.8262C33.572 29.7769 33.5542 29.7266 33.54 29.6752C33.5091 29.5829 33.4771 29.4899 33.4336 29.4018C33.4058 29.3366 33.3856 29.2676 33.3605 29.2005C33.3437 29.1227 33.3094 29.0514 33.275 28.9798C33.2465 28.9138 33.2281 28.8433 33.2011 28.7762C33.1843 28.6991 33.15 28.6278 33.1165 28.5581C33.0889 28.491 33.0695 28.4205 33.0425 28.3526C33.0284 28.3023 33.0116 28.2536 32.9933 28.2043C32.9471 28.117 32.916 28.0248 32.8842 27.9325C32.8683 27.8552 32.8347 27.7839 32.7996 27.7144C32.7791 27.6649 32.7618 27.6138 32.7482 27.5627C32.7165 27.4704 32.6837 27.3771 32.6418 27.2891C32.6124 27.2214 32.5923 27.1507 32.5621 27.0838L32.5427 26.9848C32.5 26.8891 32.4691 26.7885 32.4337 26.6904H32.354C32.3181 26.7885 32.2869 26.8883 32.245 26.984L32.2259 27.0846C32.1939 27.1507 32.1737 27.223 32.1451 27.2901C32.1118 27.3614 32.0783 27.4327 32.0613 27.5108C32.0345 27.5776 32.0151 27.6473 31.9876 27.7137C31.9462 27.8009 31.9108 27.8914 31.882 27.9836C31.8623 28.0607 31.8332 28.1348 31.7947 28.2043C31.7753 28.252 31.7585 28.3023 31.746 28.3526C31.7176 28.4205 31.699 28.491 31.6705 28.5581C31.6277 28.6446 31.5958 28.7369 31.5648 28.8291C31.5481 28.907 31.5127 28.9775 31.4791 29.0496C31.4516 29.1143 31.4314 29.1838 31.4063 29.2509C31.3895 29.329 31.3544 29.4002 31.3208 29.4715C31.293 29.5378 31.2739 29.6081 31.2469 29.6754C31.2301 29.7517 31.1966 29.8238 31.163 29.8943C31.1337 29.9622 31.1135 30.0327 31.0834 30.0998L31.0635 30.2004C31.033 30.2675 31.0121 30.3388 30.9827 30.4075C30.9408 30.4948 30.9091 30.587 30.8771 30.6793C30.8611 30.7556 30.8268 30.8268 30.7932 30.8981C30.7647 30.9637 30.7455 31.0331 30.7196 31.1002C30.7012 31.177 30.6721 31.2507 30.6331 31.3191C30.6137 31.3686 30.5969 31.4181 30.5836 31.47C30.5558 31.5371 30.5366 31.6076 30.5089 31.6747C30.4737 31.7444 30.4402 31.8157 30.4242 31.8938C30.3922 31.9861 30.3613 32.0784 30.3167 32.1654C30.2966 32.2141 30.28 32.2644 30.2672 32.3156L30.2103 32.4455C31.6663 32.4497 33.1214 32.4497 34.5774 32.4455L34.5205 32.3156C34.5053 32.2385 34.4718 32.1672 34.4382 32.0975ZM39.4378 45.4941L39.3733 45.36L39.3565 45.2593C39.3177 45.1678 39.2868 45.074 39.2449 44.9852C39.2155 44.9181 39.1953 44.8491 39.1694 44.782C39.1526 44.7031 39.1191 44.6318 39.0855 44.5606C39.0554 44.4927 39.036 44.4222 39.005 44.3551L38.9856 44.2563C38.9539 44.1873 38.9338 44.116 38.9052 44.0489C38.8716 43.9777 38.8381 43.9064 38.8213 43.8309C38.7896 43.7378 38.7576 43.6448 38.7157 43.5575C38.6863 43.4896 38.6672 43.4199 38.6402 43.3531C38.6261 43.3017 38.609 43.2514 38.5899 43.2037C38.5453 43.1164 38.5136 43.0241 38.4824 42.9319C38.4659 42.8538 38.4324 42.7835 38.3988 42.7138C38.3692 42.6459 38.3493 42.5762 38.3239 42.5091C38.3097 42.4572 38.2921 42.4069 38.2738 42.3582C38.235 42.29 38.2062 42.2166 38.1881 42.1401C38.1614 42.0722 38.1412 42.0025 38.1134 41.9354C38.0699 41.8473 38.039 41.7551 38.007 41.6628C37.9928 41.6125 37.9758 41.5624 37.9574 41.5145C37.9187 41.4455 37.8893 41.3716 37.871 41.2948C37.8442 41.2277 37.8251 41.1572 37.7957 41.0901C37.7527 41.0021 37.7226 40.908 37.6849 40.8176L37.6657 40.7169C37.6345 40.6498 37.6136 40.5785 37.585 40.5114C37.5423 40.4223 37.5103 40.3301 37.4786 40.2381C37.4644 40.1859 37.4477 40.1356 37.4283 40.0871C37.384 40.0006 37.3528 39.9083 37.3208 39.8169C37.304 39.739 37.2697 39.6677 37.2362 39.5964C37.2086 39.5301 37.1885 39.4612 37.1625 39.3949C37.1473 39.317 37.1119 39.245 37.0768 39.1745C37.0569 39.1257 37.0401 39.0754 37.0273 39.0251C36.999 38.9572 36.9804 38.8875 36.9518 38.8206C36.9174 38.7493 36.8831 38.6781 36.8679 38.6007C36.8354 38.5085 36.8034 38.4154 36.7607 38.3292C36.7321 38.2618 36.7135 38.1916 36.6868 38.1242C36.6719 38.0734 36.6551 38.0228 36.6357 37.9735C36.5911 37.887 36.5602 37.7948 36.5282 37.7041C36.5122 37.6263 36.4782 37.5547 36.4446 37.4845C36.4161 37.4174 36.3967 37.3477 36.3691 37.2808C36.3547 37.2263 36.3379 37.1734 36.3188 37.1212C36.3002 37.0457 36.2667 36.9736 36.2331 36.9031C36.2045 36.836 36.1851 36.7666 36.1592 36.6995C36.1469 36.6319 36.1199 36.5677 36.0803 36.5116C35.521 36.5192 34.9606 36.5123 34.4005 36.515V45.4941H33.0274V35.1418H43.1674V36.515C42.0721 36.5116 40.9768 36.5207 39.8815 36.5108C39.9226 36.5669 39.9499 36.6321 39.9612 36.7011C39.9932 36.7917 40.0241 36.8832 40.0676 36.9694C40.088 37.0195 40.1053 37.0704 40.1197 37.1222C40.1465 37.1883 40.1648 37.2588 40.1944 37.3267C40.2311 37.3956 40.2594 37.469 40.2783 37.5448C40.305 37.6111 40.3244 37.6816 40.3527 37.7487C40.3892 37.8181 40.4175 37.8915 40.4369 37.9675C40.4628 38.0346 40.4827 38.1043 40.5113 38.1714C40.554 38.2603 40.5844 38.3541 40.623 38.4448L40.6432 38.5454C40.6722 38.6125 40.6935 38.6838 40.7228 38.7509C40.7645 38.839 40.7957 38.9312 40.8285 39.0235C40.8473 39.0998 40.8754 39.1732 40.9123 39.2424C40.9409 39.3087 40.9592 39.3784 40.986 39.4452C41.0048 39.522 41.0337 39.5957 41.0725 39.6643C41.0919 39.7136 41.1086 39.7642 41.1228 39.8153C41.1487 39.8813 41.1689 39.9518 41.1975 40.0189C41.235 40.0884 41.2633 40.1628 41.2814 40.2396C41.3081 40.3059 41.3275 40.3754 41.3561 40.4425C41.3896 40.5122 41.4247 40.5835 41.4399 40.6624C41.4667 40.7284 41.4858 40.7974 41.5144 40.8645C41.5571 40.9517 41.5883 41.0432 41.621 41.1355C41.6391 41.212 41.6672 41.2859 41.7049 41.3551C41.7335 41.4222 41.7526 41.4927 41.7804 41.5606C41.7938 41.6114 41.8105 41.6612 41.8307 41.71C41.8742 41.7988 41.9054 41.8927 41.9431 41.9849L41.9623 42.084C41.9992 42.1744 42.0302 42.2685 42.0747 42.3574C42.0949 42.4066 42.1127 42.4572 42.1277 42.5083C42.1586 42.6006 42.1887 42.6936 42.2341 42.7809C42.2535 42.8299 42.2702 42.8803 42.2844 42.9311C42.3111 42.9982 42.3305 43.0687 42.3599 43.1355C42.3934 43.2063 42.427 43.2781 42.4438 43.357C42.4697 43.4225 42.4899 43.4912 42.5174 43.5583C42.5549 43.6272 42.5832 43.7006 42.6023 43.7764C42.6283 43.8437 42.6477 43.9132 42.676 43.9803C42.7129 44.0505 42.7412 44.1247 42.7609 44.2017C42.7868 44.2681 42.8062 44.3367 42.8353 44.4038C42.876 44.4924 42.9111 44.5831 42.9412 44.6756C42.9596 44.7516 42.9879 44.825 43.0259 44.8934C43.0534 44.9608 43.0728 45.031 43.0995 45.0999C43.1129 45.1553 43.1325 45.2087 43.1582 45.2593L43.1761 45.36L43.2405 45.4915C41.9733 45.4976 40.7042 45.4915 39.4378 45.4941ZM21.6204 33.8207V32.4479H26.4125C26.4545 32.3297 26.4906 32.2096 26.5467 32.0972C26.5753 32.0301 26.5947 31.9588 26.6222 31.892C26.6358 31.8411 26.6526 31.791 26.6725 31.7426C26.7171 31.6527 26.7488 31.5596 26.7858 31.4681L26.8052 31.3683C26.8353 31.3015 26.8563 31.2302 26.8856 31.1631C26.9276 31.0747 26.9595 30.9825 26.9912 30.8905C27.0099 30.8137 27.0384 30.7398 27.0767 30.6706C27.0971 30.6218 27.1129 30.5715 27.1273 30.5215C27.1598 30.4289 27.1894 30.3362 27.2353 30.2497C27.2544 30.2001 27.2712 30.1498 27.2856 30.0987C27.3126 30.0305 27.332 29.9603 27.3611 29.8932C27.398 29.8227 27.4263 29.7485 27.446 29.6717C27.4719 29.6062 27.4903 29.5368 27.5188 29.4723C27.5524 29.4007 27.5878 29.3294 27.6027 29.2516C27.6347 29.1601 27.6656 29.0679 27.7099 28.9816C27.7298 28.9321 27.7469 28.8818 27.7613 28.8304C27.788 28.7625 27.8074 28.6928 27.836 28.626C27.8695 28.5555 27.9031 28.4842 27.9199 28.4069C27.9466 28.3398 27.9657 28.2695 27.9953 28.2032C28.0381 28.1159 28.0682 28.0229 28.1018 27.9314C28.1159 27.8774 28.1327 27.8242 28.1521 27.7721C28.1728 27.6966 28.2013 27.6234 28.2378 27.554C28.2653 27.4869 28.2847 27.4164 28.3122 27.3493C28.3258 27.2987 28.3426 27.2486 28.3625 27.2002C28.4071 27.1137 28.4391 27.0214 28.47 26.9292C28.4881 26.8524 28.5169 26.7782 28.5554 26.7095C28.5748 26.66 28.5916 26.6097 28.6058 26.5593C28.6325 26.492 28.6519 26.4217 28.6805 26.3546C28.7177 26.2854 28.7462 26.2121 28.7651 26.1358C28.7911 26.0687 28.8112 25.999 28.839 25.9327C28.8734 25.8614 28.9069 25.7901 28.9237 25.713C28.9496 25.6451 28.9698 25.5762 28.9976 25.5091C29.0309 25.4386 29.0663 25.3684 29.0815 25.2903C29.1082 25.2232 29.1276 25.1545 29.1559 25.0874C29.1989 25.0001 29.2306 24.9086 29.2626 24.8164C29.2794 24.7393 29.3129 24.6673 29.3465 24.5968C29.3748 24.5278 29.3952 24.4565 29.4269 24.3913L29.4453 24.2906C29.4757 24.2235 29.4966 24.1522 29.526 24.0851C29.5679 23.9971 29.5996 23.9056 29.6324 23.8133C29.6473 23.7352 29.6819 23.6632 29.7171 23.5927C29.7448 23.5256 29.764 23.4553 29.791 23.3882C29.8043 23.3376 29.8208 23.2881 29.8402 23.2396C29.8866 23.1516 29.9176 23.0585 29.9485 22.9663C29.9624 22.9154 29.9792 22.8651 29.9988 22.8161C30.0371 22.7474 30.0662 22.6743 30.0853 22.598C30.117 22.505 30.1474 22.4127 30.1928 22.3262C30.2116 22.2767 30.2284 22.2264 30.2428 22.1752C30.2698 22.1074 30.29 22.0369 30.3186 21.9716C30.3547 21.9024 30.3828 21.829 30.4024 21.7535C30.4334 21.6602 30.4653 21.5672 30.5089 21.4799C30.5366 21.412 30.5558 21.3433 30.5835 21.2763C30.5977 21.222 30.6147 21.1685 30.6347 21.1161C30.6493 21.0655 30.6666 21.016 30.6866 20.9675C30.7211 20.8962 30.7571 20.8257 30.7715 20.7471C30.7982 20.68 30.8176 20.6103 30.847 20.544C30.8897 20.4559 30.9198 20.3636 30.9526 20.2714C30.9662 20.221 30.9832 20.1715 31.0029 20.123C31.042 20.0541 31.071 19.9802 31.0891 19.9031C31.1153 19.8355 31.1345 19.7666 31.163 19.6995C31.1966 19.629 31.2301 19.5585 31.2469 19.4814C31.2789 19.3892 31.3098 19.2969 31.3544 19.2104C31.374 19.1609 31.3911 19.11 31.4055 19.0586C31.4375 18.9664 31.4684 18.8741 31.5127 18.7861C31.5397 18.719 31.5588 18.6495 31.5866 18.5824C31.6 18.5313 31.6165 18.4813 31.6361 18.4322C31.6752 18.3638 31.7043 18.2904 31.7224 18.2142C31.7543 18.1219 31.7863 18.0286 31.829 17.9408C31.8576 17.8745 31.8759 17.8048 31.9035 17.7377C31.9181 17.6834 31.9354 17.63 31.9556 17.5775C31.9724 17.5013 32.0059 17.4308 32.0395 17.3613C32.0681 17.294 32.0875 17.2227 32.115 17.1556C32.1283 17.1047 32.1451 17.0549 32.1653 17.0064C32.2096 16.9192 32.2408 16.8269 32.2728 16.7346C32.2937 16.6531 32.3254 16.5753 32.354 16.4956L32.4269 16.4972L32.4908 16.6314L32.5092 16.7312C32.5461 16.8235 32.5781 16.9176 32.6216 17.0064C32.6413 17.0554 32.6586 17.1052 32.6735 17.1556C32.7026 17.2494 32.738 17.3409 32.7791 17.43C32.8077 17.4979 32.8287 17.5684 32.8599 17.6352L32.8782 17.7351C32.9167 17.8265 32.9479 17.9196 32.9896 18.0087C33.0182 18.0758 33.0383 18.1471 33.0653 18.2142C33.0834 18.2907 33.1123 18.3644 33.1508 18.433C33.1697 18.4815 33.1862 18.531 33.2003 18.5814C33.2281 18.6495 33.2472 18.7198 33.2758 18.7871C33.3122 18.856 33.3403 18.9294 33.3597 19.0049C33.3914 19.0964 33.4215 19.1887 33.4669 19.2759C33.4868 19.3252 33.5036 19.3755 33.5175 19.4269C33.545 19.494 33.5633 19.5645 33.5927 19.6324C33.6294 19.7018 33.6577 19.7757 33.6768 19.8523C33.7028 19.9191 33.7227 19.988 33.7512 20.0551C33.784 20.1254 33.8191 20.1967 33.8359 20.274C33.8647 20.3668 33.9001 20.4577 33.9418 20.5458C33.9693 20.6118 33.9887 20.6823 34.0162 20.7494C34.0299 20.8005 34.0466 20.8509 34.0666 20.8996C34.1111 20.9885 34.142 21.0826 34.1798 21.1738L34.1992 21.2747C34.2361 21.3659 34.2678 21.4589 34.3124 21.547C34.3315 21.5965 34.3486 21.6471 34.3627 21.698C34.3895 21.7661 34.4088 21.8356 34.4374 21.9027C34.4739 21.9721 34.5019 22.0458 34.5213 22.1218C34.553 22.213 34.5842 22.3052 34.6269 22.3925C34.6555 22.4588 34.6757 22.5293 34.7024 22.5964C34.72 22.6735 34.7485 22.7474 34.7878 22.8161C34.8072 22.8653 34.824 22.9154 34.8384 22.9663C34.8644 23.0326 34.8843 23.102 34.9121 23.1691C34.9548 23.2582 34.9868 23.3505 35.0195 23.4427C35.0379 23.5185 35.0662 23.5919 35.1031 23.6608C35.1309 23.7269 35.1503 23.7966 35.1771 23.8637C35.1954 23.9405 35.2242 24.0144 35.2628 24.0836C35.2816 24.1328 35.2984 24.1826 35.3131 24.2335C35.3422 24.3276 35.3786 24.4193 35.4221 24.5079C35.4412 24.5561 35.4585 24.6049 35.474 24.6547C35.4934 24.7071 35.5102 24.7606 35.5243 24.8148C35.5511 24.8819 35.5712 24.9522 35.5998 25.0193C35.6334 25.0898 35.6669 25.1603 35.6837 25.2373C35.7146 25.3296 35.745 25.4218 35.7901 25.5083C35.81 25.5576 35.8273 25.6079 35.8415 25.6593C35.8682 25.7264 35.8876 25.7961 35.9159 25.8632C35.9589 25.9513 35.9906 26.0435 36.0226 26.1358C36.0401 26.2126 36.069 26.2862 36.108 26.3546C36.1274 26.4039 36.1447 26.454 36.1591 26.5048C36.1903 26.5971 36.2212 26.6893 36.265 26.7782C36.2933 26.8434 36.3127 26.914 36.3395 26.981C36.3583 27.0573 36.3866 27.1307 36.4236 27.2002C36.4511 27.2665 36.4713 27.3359 36.498 27.403C36.5164 27.4798 36.5447 27.5537 36.5827 27.6227C36.6105 27.6898 36.6299 27.7595 36.6566 27.8281C36.6705 27.879 36.6875 27.9288 36.7077 27.9775C36.7512 28.0656 36.7824 28.1594 36.8201 28.2517L36.8393 28.3516C36.8705 28.4179 36.8906 28.4892 36.9208 28.5578C36.9619 28.6451 36.9936 28.7366 37.0264 28.8288C37.045 28.9056 37.0731 28.9798 37.1103 29.0493C37.1381 29.114 37.1572 29.1837 37.1842 29.2505C37.2028 29.3279 37.2314 29.4023 37.2688 29.4723C37.2966 29.5375 37.3158 29.6062 37.3425 29.6733C37.3608 29.7504 37.3897 29.8243 37.4282 29.8932C37.4473 29.9425 37.4641 29.9923 37.4785 30.0431C37.5053 30.1105 37.5247 30.1807 37.554 30.2486C37.5967 30.3367 37.6279 30.4289 37.6604 30.5215C37.674 30.5726 37.6911 30.6231 37.711 30.6724C37.7553 30.7586 37.7862 30.8509 37.8182 30.9432C37.8373 31.0192 37.8654 31.0928 37.9021 31.162C37.9314 31.2291 37.9508 31.3004 37.9818 31.3678L38.0019 31.4681C38.0321 31.5345 38.053 31.6057 38.0816 31.6744C38.1175 31.7439 38.1456 31.817 38.1655 31.8925C38.1951 31.9853 38.2307 32.0762 38.2719 32.1643C38.3088 32.2576 38.3406 32.353 38.3752 32.4479H43.1673V33.8207H21.6204ZM31.7075 45.4941H30.3346V36.515C29.791 36.5123 29.2485 36.5192 28.7057 36.5116C28.658 36.5863 28.6362 36.6709 28.6066 36.754C28.5917 36.8043 28.5749 36.8546 28.5547 36.905C28.5112 36.993 28.48 37.0861 28.4423 37.1776L28.4231 37.2771C28.392 37.3445 28.3718 37.4158 28.3432 37.4837C28.3091 37.5542 28.2764 37.6255 28.2596 37.7033C28.2318 37.7696 28.2124 37.8391 28.1849 37.9062C28.1506 37.9767 28.117 38.0498 28.1002 38.1279C28.0732 38.194 28.0541 38.2637 28.0263 38.3308C27.9826 38.4178 27.9516 38.5103 27.9199 38.6026C27.9055 38.6526 27.8879 38.703 27.8685 38.7535C27.8235 38.8398 27.7931 38.932 27.7614 39.0243C27.7472 39.0754 27.7304 39.1249 27.71 39.1753C27.6649 39.2625 27.6348 39.3548 27.6028 39.447C27.5886 39.4974 27.5719 39.5477 27.5517 39.598C27.5071 39.6842 27.4762 39.7775 27.4453 39.8706C27.4301 39.9201 27.4133 39.9694 27.3947 40.0189C27.3554 40.0879 27.3265 40.1618 27.3084 40.2388C27.2817 40.3059 27.2623 40.3738 27.2345 40.4401C27.191 40.5298 27.1598 40.6246 27.1221 40.7169L27.1022 40.8168C27.0718 40.8839 27.0508 40.9552 27.0222 41.023C26.9795 41.1111 26.9494 41.2023 26.9158 41.2938C26.9001 41.3711 26.8666 41.4424 26.832 41.5137C26.8042 41.5797 26.785 41.6502 26.7583 41.7173C26.7423 41.7946 26.708 41.8652 26.6734 41.9354C26.6535 41.9841 26.6367 42.0345 26.6215 42.0866C26.5903 42.1789 26.5586 42.2719 26.5151 42.36C26.4865 42.426 26.4679 42.4958 26.4412 42.5644C26.4262 42.6147 26.4095 42.6643 26.3908 42.713C26.3523 42.7822 26.3232 42.8564 26.3046 42.9335C26.2734 43.0241 26.2425 43.1156 26.1979 43.2026C26.1778 43.2514 26.161 43.3017 26.1468 43.3536C26.1198 43.4207 26.1007 43.4912 26.0721 43.5583C26.0284 43.6482 25.9974 43.7412 25.9607 43.8327L25.9414 43.9326C25.9102 43.9986 25.8892 44.0699 25.8609 44.1388C25.819 44.2251 25.787 44.3173 25.755 44.4096C25.7382 44.4869 25.7039 44.5582 25.6703 44.6303C25.6418 44.6966 25.6226 44.766 25.5956 44.8334C25.5773 44.9097 25.549 44.9831 25.5118 45.052C25.4835 45.1183 25.4641 45.188 25.4381 45.2551C25.4156 45.3364 25.3844 45.4145 25.3566 45.4941C24.0878 45.4915 22.8179 45.4976 21.5491 45.4915L21.606 45.3618C21.6183 45.3054 21.6375 45.2512 21.6631 45.1998L21.6831 45.1007C21.7127 45.0329 21.7337 44.9616 21.7627 44.8945C21.7963 44.8232 21.8298 44.7519 21.8466 44.6756C21.8778 44.5823 21.9098 44.4895 21.9533 44.403C21.9811 44.3359 22.0002 44.2654 22.028 44.1983C22.0416 44.1475 22.0584 44.0977 22.0783 44.0489C22.1218 43.9619 22.1538 43.8705 22.1863 43.7782C22.2046 43.7011 22.2327 43.627 22.2704 43.5575C22.2979 43.4912 22.3163 43.4225 22.3433 43.3562C22.3616 43.2794 22.3907 43.2055 22.4295 43.1366C22.4487 43.0873 22.4652 43.0373 22.4791 42.9864C22.5068 42.9185 22.5262 42.8488 22.5545 42.7817C22.598 42.6929 22.6292 42.6006 22.6612 42.5083C22.6748 42.4578 22.6916 42.4077 22.7115 42.3592C22.7467 42.2877 22.7828 42.2166 22.797 42.1385C22.8237 42.0704 22.8431 42.0017 22.8725 41.9354C22.9144 41.8458 22.9453 41.7527 22.9841 41.6612L23.0032 41.5624C23.0326 41.4943 23.0536 41.423 23.0829 41.3551C23.1165 41.2846 23.15 41.2133 23.1668 41.1363C23.1988 41.0448 23.2307 40.9525 23.2724 40.8653C23.301 40.7982 23.3204 40.7277 23.3479 40.6606C23.3665 40.5845 23.3953 40.5112 23.4336 40.4428C23.4527 40.3932 23.4687 40.3437 23.4839 40.2934C23.5149 40.1993 23.5468 40.1062 23.5903 40.0189C23.6189 39.9518 23.6373 39.8824 23.665 39.8153C23.6831 39.739 23.7114 39.6659 23.7489 39.597C23.7767 39.5301 23.7958 39.4612 23.8226 39.3944C23.8417 39.3176 23.87 39.2439 23.9075 39.1745C23.9353 39.1066 23.9544 39.0361 23.9811 38.969C23.995 38.9187 24.0121 38.8689 24.0315 38.8206C24.0676 38.7493 24.102 38.6781 24.1179 38.5999C24.1439 38.5329 24.1633 38.4642 24.1919 38.3987C24.2346 38.3082 24.2663 38.2141 24.3032 38.1235L24.3234 38.0228C24.3604 37.9316 24.3913 37.8367 24.4351 37.7479C24.4636 37.6808 24.4828 37.6103 24.5095 37.544C24.5231 37.4929 24.5399 37.4428 24.5598 37.3938C24.5952 37.3225 24.6303 37.2512 24.6455 37.1734C24.6723 37.107 24.6917 37.0373 24.7192 36.9721C24.7619 36.8848 24.7939 36.7925 24.8267 36.7003C24.8379 36.6319 24.8652 36.5666 24.9063 36.5108C23.811 36.5207 22.7157 36.5116 21.6204 36.515V35.1418H31.7075V45.4941ZM32.4814 13.7559C22.1192 13.7559 13.7195 22.1563 13.7195 32.5194C13.7195 42.8808 22.1192 51.2813 32.4814 51.2813C42.8429 51.2813 51.2434 42.8808 51.2434 32.5186C51.2434 22.1563 42.8429 13.7559 32.4814 13.7559ZM32.5 53.4677C20.9198 53.4677 11.5323 44.0802 11.5323 32.5C11.5323 20.9197 20.9198 11.5322 32.5 11.5322C44.0803 11.5322 53.4678 20.9197 53.4678 32.5C53.4678 44.0802 44.0803 53.4677 32.5 53.4677ZM32.5 0C14.5508 0 0 14.5508 0 32.5C0 50.4492 14.5508 65 32.5 65C50.4492 65 65 50.4492 65 32.5C65 14.5508 50.4492 0 32.5 0Z" fill="url(#paint0_linear)"/>
<defs>
<linearGradient id="paint0_linear" x2="1" gradientUnits="userSpaceOnUse" gradientTransform="translate(32.5 -1.14664) scale(66.1466) rotate(90)">
<stop stop-color="#6BD9EA"/>
<stop offset="1" stop-color="#0096AC"/>
</linearGradient>
</defs>
</svg>
