<svg width="65" height="65" viewBox="0 0 65 65" fill="none" xmlns="http://www.w3.org/2000/svg">
<path fill-rule="evenodd" clip-rule="evenodd" d="M32.5 65C50.4492 65 65 50.4493 65 32.5C65 14.5507 50.4492 0 32.5 0C14.5508 0 0 14.5507 0 32.5C0 50.4493 14.5508 65 32.5 65ZM32.5 57C46.031 57 57 46.031 57 32.5C57 18.969 46.031 8 32.5 8C18.969 8 8 18.969 8 32.5C8 46.031 18.969 57 32.5 57ZM32.5853 55.2927C45.2206 55.2927 55.4634 45.0498 55.4634 32.4146C55.4634 19.7794 45.2206 9.53659 32.5853 9.53659C19.9501 9.53659 9.70728 19.7794 9.70728 32.4146C9.70728 37.7899 11.561 42.7322 14.6641 46.637L25.8861 27.1999L35.4026 43.6829L38.6019 38.1415L43.9452 47.3963H15.2946C19.4894 52.2334 25.6801 55.2927 32.5853 55.2927ZM38.6019 38.1415L29.0854 21.6585L25.8861 27.1999L20.5428 17.9451L50.2623 17.9451L38.6019 38.1415Z" fill="url(#paint0_linear)"/>
<defs>
<linearGradient id="paint0_linear" x2="1" gradientUnits="userSpaceOnUse" gradientTransform="translate(65) scale(65) rotate(90)">
<stop stop-color="#FFCD05"/>
<stop offset="1" stop-color="#FC7500"/>
</linearGradient>
</defs>
</svg>
