<svg width="65" height="65" viewBox="0 0 65 65" fill="none" xmlns="http://www.w3.org/2000/svg">
<path fill-rule="evenodd" clip-rule="evenodd" d="M32.5 0C14.5505 0 0 14.5508 0 32.5C0 50.4492 14.5505 65 32.5 65C50.4492 65 65 50.4492 65 32.5C65 14.5508 50.4492 0 32.5 0ZM37.6738 34.8074C39.4935 34.8074 40.9686 33.3323 40.9686 31.5125C40.9686 29.6929 39.4935 28.2178 37.6738 28.2178C35.8541 28.2178 34.379 29.6929 34.379 31.5125C34.379 33.3323 35.8541 34.8074 37.6738 34.8074ZM25.5947 13.0645V47.106H44.4819V51.9377H25.5947H20.3248V47.106V13.0645H25.5947Z" fill="url(#paint0_linear)"/>
<defs>
<linearGradient id="paint0_linear" x2="1" gradientUnits="userSpaceOnUse" gradientTransform="translate(32.5) scale(65) rotate(90)">
<stop stop-color="#5BC7AF"/>
<stop offset="1" stop-color="#16BC9C"/>
</linearGradient>
</defs>
</svg>
