<svg width="65" height="65" viewBox="0 0 65 65" fill="none" xmlns="http://www.w3.org/2000/svg">
<path fill-rule="evenodd" clip-rule="evenodd" d="M0 32.5C0 14.5508 14.5505 0 32.5 0C50.4492 0 65 14.5508 65 32.5C65 50.4492 50.4492 65 32.5 65C14.5505 65 0 50.4492 0 32.5ZM15.8888 13L19.5044 33.168L22.5642 34.7324L20.7177 35.5996L17.5975 47.342L27.8693 40.644L28.9735 42.5151L30.9958 41.675L34.985 53.8887L39.0408 42.8196L38.416 41.1069L41.7581 41.9038L57.7777 27.9385L38.452 29.332L34.7455 32.0952L33.7791 30.3716L31.6578 30.9392L30.5101 25.019L15.8888 13ZM21.4446 31.73L27.4778 34.8149L22.5497 37.1294L21.1354 42.4521L28.5827 37.5959L29.8807 39.7956L32.3261 38.7797L35.1023 47.2797L36.7372 42.818L35.0049 38.0693L41.1762 39.5409L51.4757 30.562L39.2382 31.4445L34.0631 35.3023L32.7141 32.8961L29.9755 33.6289L28.5344 26.1956L19.0555 18.4038L21.4446 31.73Z" fill="url(#paint0_linear)"/>
<defs>
<linearGradient id="paint0_linear" x2="1" gradientUnits="userSpaceOnUse" gradientTransform="translate(32.5) scale(65) rotate(90)">
<stop stop-color="#41D4FC"/>
<stop offset="1" stop-color="#3FA0F1"/>
</linearGradient>
</defs>
</svg>
