<svg width="65" height="65" viewBox="0 0 65 65" fill="none" xmlns="http://www.w3.org/2000/svg">
<path fill-rule="evenodd" clip-rule="evenodd" d="M32.5 0C14.5506 0 0 14.5508 0 32.5C0 50.4492 14.5506 65 32.5 65C50.4492 65 65 50.4492 65 32.5C65 14.5508 50.4492 0 32.5 0ZM13.4764 40V25.8008H16.3671V37.5879H23.5546V40H13.4764ZM25.6151 40V25.6836H30.2538C32.0116 25.6836 33.1574 25.7552 33.6913 25.8984C34.5116 26.1133 35.1984 26.5804 35.7518 27.2998C36.3052 28.0192 36.5819 28.9486 36.5819 30.0879C36.5819 30.9668 36.4224 31.7057 36.1034 32.3047C35.7844 32.9036 35.3791 33.374 34.8876 33.7158C34.396 34.0576 33.8964 34.2839 33.3885 34.3945C32.6984 34.5312 31.6991 34.5996 30.3905 34.5996H28.5057V40H25.6151ZM28.5057 28.1055V32.168H30.0878C31.2271 32.168 31.9888 32.0931 32.3729 31.9434C32.757 31.7936 33.0581 31.5592 33.2762 31.2402C33.4943 30.9212 33.6034 30.5501 33.6034 30.127C33.6034 29.6061 33.4504 29.1764 33.1444 28.8379C32.8384 28.4993 32.4511 28.2878 31.9823 28.2031C31.6372 28.138 30.9439 28.1055 29.9022 28.1055H28.5057ZM45.6151 34.7363V32.3242H51.8456V38.0273C51.2401 38.6133 50.3628 39.1292 49.2137 39.5752C48.0647 40.0212 46.9009 40.2441 45.7225 40.2441C44.2251 40.2441 42.9198 39.93 41.8065 39.3018C40.6932 38.6735 39.8567 37.7751 39.2968 36.6064C38.7369 35.4378 38.4569 34.1667 38.4569 32.793C38.4569 31.3021 38.7694 29.9772 39.3944 28.8184C40.0194 27.6595 40.9341 26.7708 42.1385 26.1523C43.0565 25.6771 44.1991 25.4395 45.5663 25.4395C47.3436 25.4395 48.732 25.8122 49.7313 26.5576C50.7307 27.3031 51.3736 28.3333 51.66 29.6484L48.7889 30.1855C48.5871 29.4824 48.2079 28.9274 47.6512 28.5205C47.0946 28.1136 46.3996 27.9102 45.5663 27.9102C44.3033 27.9102 43.299 28.3105 42.5536 29.1113C41.8081 29.9121 41.4354 31.1003 41.4354 32.6758C41.4354 34.375 41.813 35.6494 42.5682 36.499C43.3234 37.3486 44.313 37.7734 45.537 37.7734C46.1425 37.7734 46.7495 37.6546 47.3583 37.417C47.967 37.1794 48.4895 36.8913 48.9257 36.5527V34.7363H45.6151Z" fill="url(#paint0_linear)"/>
<defs>
<linearGradient id="paint0_linear" x2="1" gradientUnits="userSpaceOnUse" gradientTransform="translate(32.5) scale(65) rotate(90)">
<stop stop-color="#ACACAC"/>
<stop offset="1" stop-color="#3C3C3C"/>
</linearGradient>
</defs>
</svg>
