<svg width="65" height="65" viewBox="0 0 65 65" fill="none" xmlns="http://www.w3.org/2000/svg">
<path d="M31.4301 39.4242L31.4957 12.1006L20.291 30.6876L31.4301 39.4242Z" fill="#307DFB"/>
<path d="M31.168 47.811H30.2725V50.978H31.168C31.4082 50.978 31.6048 50.8907 31.7795 50.7159C31.9542 50.5412 32.0198 50.3446 32.0198 50.1044V48.6847C32.0198 48.1168 31.7358 47.811 31.168 47.811Z" fill="#307DFB"/>
<path d="M44.6871 30.6876L33.4824 12.1006L33.5479 39.4242L44.6871 30.6876Z" fill="#307DFB"/>
<path d="M32.653 1.81299C15.7041 1.81299 1.96582 15.5512 1.96582 32.5002C1.96582 49.4491 15.7041 63.1873 32.653 63.1873C49.6019 63.1873 63.3402 49.4491 63.3402 32.5002C63.3402 15.5512 49.5801 1.81299 32.653 1.81299ZM25.9477 56.2199H21.8633V46.3039H23.3704V54.7347H25.9477V56.2199ZM32.1725 56.2199L31.2551 52.485C31.2115 52.485 31.1678 52.485 31.1241 52.485H30.2504V56.2199H28.7434V46.3039H31.1241V46.2821C31.9541 46.2821 32.5656 46.5223 32.9588 46.981C33.3082 47.3741 33.483 47.942 33.483 48.6628V50.1043C33.483 50.8032 33.2209 51.393 32.6748 51.8953L33.7887 56.2199H32.1725V56.2199ZM41.3459 49.6893H39.7951V48.5317C39.7951 48.2915 39.7078 48.0949 39.533 47.9202C39.3583 47.7455 39.1617 47.6581 38.9215 47.6581C38.6812 47.6581 38.4846 47.7455 38.3099 47.9202C38.1352 48.0949 38.0697 48.2915 38.0697 48.5317V53.9703C38.0697 54.2105 38.157 54.4071 38.3099 54.5818C38.4628 54.7565 38.6812 54.8221 38.9215 54.8221C39.1617 54.8221 39.3583 54.7347 39.533 54.5818C39.7078 54.4071 39.7951 54.2105 39.7951 53.9703V52.5942H41.3459V53.9703C41.3459 54.6255 41.1056 55.1934 40.6469 55.652C40.1883 56.1107 39.6204 56.351 38.9652 56.351C38.3099 56.351 37.742 56.1107 37.2834 55.652C36.8247 55.1934 36.5844 54.6255 36.5844 53.9703V48.5536C36.5844 47.8983 36.8247 47.3305 37.2834 46.8718C37.742 46.4131 38.3099 46.1729 38.9652 46.1729C39.6204 46.1729 40.1883 46.4131 40.6469 46.8718C41.1056 47.3305 41.3459 47.8983 41.3459 48.5536V49.6893ZM32.4127 42.7438L17.5169 30.8184L32.4127 7.12045L47.4615 30.8184L32.4127 42.7438Z" fill="#307DFB"/>
<path d="M32.5 65C14.5464 65 0 50.4536 0 32.5C0 14.5464 14.5464 0 32.5 0C50.4536 0 65 14.5464 65 32.5C65 50.4536 50.3663 65 32.5 65ZM32.5 2.14046C15.7477 2.14046 2.11862 15.7695 2.11862 32.5218C2.11862 49.2742 15.7477 62.9032 32.5 62.9032C49.2524 62.9032 62.8814 49.2742 62.8814 32.5218C62.8814 15.7695 49.2305 2.14046 32.5 2.14046Z" fill="white"/>
</svg>
