<svg width="65" height="65" viewBox="0 0 65 65" fill="none" xmlns="http://www.w3.org/2000/svg">
<path fill-rule="evenodd" clip-rule="evenodd" d="M0 32.5C0 14.5508 14.5505 0 32.5 0C50.4492 0 65 14.5508 65 32.5C65 50.4492 50.4492 65 32.5 65C14.5505 65 0 50.4492 0 32.5ZM42.0583 25.3303C38.758 20.7336 35.4584 16.1381 32.1426 11.5556C25.7815 20.3427 19.4006 29.11 12.9999 37.8577C16.5254 40.7108 20.0402 43.5746 23.556 46.4393C26.4233 48.7756 29.2912 51.1124 32.1664 53.4445C38.4485 48.2331 44.7504 43.0375 51.0721 37.8577C48.0583 33.687 45.058 29.5081 42.0583 25.3303ZM20.9059 36.8383C23.6914 39.0904 26.4532 41.378 29.2505 43.6064C29.2624 37.5257 29.2742 31.4332 29.2387 25.3526C26.5006 29.2049 23.6677 32.9979 20.9059 36.8383ZM35.0467 25.4474C35.0348 31.4925 35.0348 37.5376 35.0467 43.5827C37.7492 41.2951 40.4991 39.0904 43.2135 36.8146C40.4872 33.0334 37.7492 29.2523 35.0467 25.4474Z" fill="url(#paint0_linear)"/>
<defs>
<linearGradient id="paint0_linear" x2="1" gradientUnits="userSpaceOnUse" gradientTransform="translate(32.5) scale(65) rotate(90)">
<stop stop-color="white"/>
<stop offset="1" stop-color="#8785FF"/>
</linearGradient>
</defs>
</svg>
