<svg width="65" height="65" viewBox="0 0 65 65" fill="none" xmlns="http://www.w3.org/2000/svg">
<path fill-rule="evenodd" clip-rule="evenodd" d="M32.5 65C50.4493 65 65 50.4493 65 32.5C65 14.5507 50.4493 0 32.5 0C14.5507 0 0 14.5507 0 32.5C0 50.4493 14.5507 65 32.5 65ZM28.9534 18.3918L32.5002 12.1333L49.4001 41.7287L39.6983 52.8667H31.4571L41.8891 40.8801L28.9534 18.3918ZM31.3525 26.6658L27.8056 20.4073L15.6001 41.7287L25.3019 52.8667H28.7444L34.1691 46.7142H28.2228L23.1111 40.8801L31.3525 26.6658Z" fill="url(#paint0_radial)"/>
<defs>
<radialGradient id="paint0_radial" cx="0" cy="0" r="1" gradientUnits="userSpaceOnUse" gradientTransform="translate(69.25 9.48399) rotate(123.519) scale(66.551 66.5838)">
<stop stop-color="#245FAB"/>
<stop offset="0.5" stop-color="#0B4B9E"/>
<stop offset="1" stop-color="#093D84"/>
</radialGradient>
</defs>
</svg>
