<svg width="65" height="65" viewBox="0 0 65 65" fill="none" xmlns="http://www.w3.org/2000/svg">
<path fill-rule="evenodd" clip-rule="evenodd" d="M32.5 65C50.4492 65 65 50.4493 65 32.5C65 14.5507 50.4492 0 32.5 0C14.5507 0 0 14.5507 0 32.5C0 50.4493 14.5507 65 32.5 65ZM38.4736 38.6024C42.8923 38.6024 46.7637 36.2587 48.9122 32.7466V32.7866C48.9122 41.5989 41.7684 48.7427 32.9562 48.7427C24.1438 48.7427 17 41.5989 17 32.7866C17 24.7673 22.9159 18.1297 30.6216 17C27.9465 19.2431 26.2456 22.6101 26.2456 26.3743C26.2456 33.1277 31.7203 38.6024 38.4736 38.6024ZM31.9122 25.1813C31.9122 26.3912 32.5126 27.4608 33.4316 28.1086L38.772 33.8304L44.1127 28.1082C45.0314 27.4604 45.6315 26.3909 45.6315 25.1813C45.6315 23.2047 44.0292 21.6024 42.0526 21.6024C40.5853 21.6024 39.3243 22.4853 38.7719 23.7488C38.2194 22.4853 36.9584 21.6024 35.4912 21.6024C33.5145 21.6024 31.9122 23.2047 31.9122 25.1813Z" fill="url(#paint0_linear)"/>
<defs>
<linearGradient id="paint0_linear" x2="1" gradientUnits="userSpaceOnUse" gradientTransform="translate(65) scale(65) rotate(90)">
<stop stop-color="#D600FF"/>
<stop offset="1" stop-color="#7300FF"/>
</linearGradient>
</defs>
</svg>
