<svg width="65" height="65" viewBox="0 0 65 65" fill="none" xmlns="http://www.w3.org/2000/svg">
<path d="M18.2927 40.5429L18.0591 41.4793L18.9588 41.13L21.155 40.2774L18.8383 49.7141L18.6863 50.3333H19.3239H47.2197H47.6122L47.7054 49.952L49.5969 42.2148L49.7482 41.5961H49.1112H33.0164L34.6424 34.9182L37.4951 33.7767L37.7331 33.6814L37.7947 33.4325L39.2681 27.4741L39.5033 26.5228L38.595 26.8907L36.4461 27.7609L39.5044 15.2857L39.6562 14.6666H39.0188H27.906H27.5144L27.4206 15.0468L22.9732 33.0609L20.0822 34.2222L19.8453 34.3174L19.7835 34.5652L18.2927 40.5429ZM0.5 32.5C0.5 14.8269 14.8266 0.5 32.5 0.5C50.1731 0.5 64.5 14.8269 64.5 32.5C64.5 50.1734 50.1731 64.5 32.5 64.5C14.8266 64.5 0.5 50.1734 0.5 32.5Z" fill="url(#paint0_linear)" stroke="#727070"/>
<defs>
<linearGradient id="paint0_linear" x1="32.5" y1="0" x2="32.5" y2="65" gradientUnits="userSpaceOnUse">
<stop stop-color="#E0E0E0"/>
<stop offset="1" stop-color="#BEBEC6"/>
</linearGradient>
</defs>
</svg>
