<svg width="65" height="65" viewBox="0 0 65 65" fill="none" xmlns="http://www.w3.org/2000/svg">
<path fill-rule="evenodd" clip-rule="evenodd" d="M32.5 0C14.5506 0 0 14.5508 0 32.5C0 50.4492 14.5506 65 32.5 65C50.4492 65 65 50.4492 65 32.5C65 14.5508 50.4492 0 32.5 0ZM9.38367 39V26.2207H11.9852V36.8291H18.454V39H9.38367ZM20.2909 26.1152H22.8925V33.0938C22.8925 34.2012 22.9247 34.9189 22.9891 35.2471C23.1005 35.7744 23.3656 36.1978 23.7845 36.5171C24.2035 36.8364 24.7762 36.9961 25.5028 36.9961C26.2411 36.9961 26.7977 36.8452 27.1727 36.5435C27.5477 36.2417 27.7733 35.8711 27.8495 35.4316C27.9257 34.9922 27.9637 34.2627 27.9637 33.2432V26.1152H30.5653V32.8828C30.5653 34.4297 30.495 35.5225 30.3544 36.1611C30.2137 36.7998 29.9545 37.3389 29.5765 37.7783C29.1986 38.2178 28.6932 38.5679 28.0604 38.8286C27.4276 39.0894 26.6014 39.2197 25.5819 39.2197C24.3514 39.2197 23.4183 39.0776 22.7826 38.7935C22.1468 38.5093 21.6444 38.1401 21.2753 37.686C20.9061 37.2319 20.663 36.7559 20.5458 36.2578C20.3759 35.5195 20.2909 34.4297 20.2909 32.9883V26.1152ZM41.5516 34.2627L44.0741 35.0625C43.6874 36.4688 43.0443 37.5132 42.1449 38.1958C41.2455 38.8784 40.1044 39.2197 38.7216 39.2197C37.0106 39.2197 35.6044 38.6353 34.5028 37.4663C33.4012 36.2974 32.8505 34.6992 32.8505 32.6719C32.8505 30.5273 33.4042 28.8618 34.5116 27.6753C35.619 26.4888 37.0751 25.8955 38.8798 25.8955C40.4559 25.8955 41.7362 26.3613 42.7206 27.293C43.3065 27.8438 43.746 28.6348 44.0389 29.666L41.4637 30.2812C41.3114 29.6133 40.9935 29.0859 40.5101 28.6992C40.0267 28.3125 39.4393 28.1191 38.7479 28.1191C37.7928 28.1191 37.0179 28.4619 36.4232 29.1475C35.8285 29.833 35.5311 30.9434 35.5311 32.4785C35.5311 34.1074 35.8241 35.2676 36.41 35.959C36.996 36.6504 37.7577 36.9961 38.6952 36.9961C39.3866 36.9961 39.9813 36.7764 40.4794 36.3369C40.9774 35.8975 41.3348 35.2061 41.5516 34.2627ZM46.3417 39V26.1152H48.9432V31.8369L54.1991 26.1152H57.6971L52.8456 31.1338L57.9608 39H54.5946L51.0526 32.9531L48.9432 35.1064V39H46.3417Z" fill="url(#paint0_linear)"/>
<defs>
<linearGradient id="paint0_linear" x2="1" gradientUnits="userSpaceOnUse" gradientTransform="translate(32.5) scale(65) rotate(90)">
<stop stop-color="#ACACAC"/>
<stop offset="1" stop-color="#3C3C3C"/>
</linearGradient>
</defs>
</svg>
