<svg width="65" height="65" viewBox="0 0 65 65" fill="none" xmlns="http://www.w3.org/2000/svg">
<path fill-rule="evenodd" clip-rule="evenodd" d="M0 32.5C0 14.5508 14.5505 0 32.5 0C50.4492 0 65 14.5508 65 32.5C65 50.4492 50.4492 65 32.5 65C14.5505 65 0 50.4492 0 32.5ZM33.2555 11.6572C33.0195 11.5217 32.7295 11.5217 32.4935 11.6572L32.4937 11.6599L15.6669 21.3601C15.1597 21.6526 15.1606 22.3828 15.6682 22.6743L30.323 31.0911C30.8287 30.5012 31.5229 30.1042 32.2878 29.9675V25.3647C30.7125 25.0835 29.5155 23.7141 29.5155 22.0632C29.5155 20.2092 31.0232 18.7061 32.884 18.7061C34.745 18.7061 36.2531 20.2092 36.2531 22.0632C36.2531 23.7234 35.0428 25.0984 33.4545 25.3691V29.9624C34.2303 30.0947 34.9355 30.4946 35.4478 31.0923L50.1007 22.6438C50.3359 22.5083 50.481 22.2576 50.4806 21.9861C50.4803 21.7146 50.335 21.4641 50.0994 21.3293L33.2555 11.6572ZM50.1471 23.8438C50.3822 23.707 50.6722 23.7061 50.9082 23.8413C51.1442 23.9763 51.29 24.2271 51.2909 24.499L51.3071 43.28C51.3071 43.5513 51.1621 43.8018 50.9269 43.937L34.6151 53.3411C34.1077 53.6345 33.473 53.2688 33.473 52.6853L33.4592 36.571C34.2501 36.437 34.967 36.0249 35.4808 35.4087L39.5557 37.7444C39.4431 38.1738 39.4172 38.6213 39.4797 39.0608C39.7393 40.897 41.4434 42.1753 43.2861 41.9158C45.1288 41.6562 46.4113 39.9587 46.1517 38.1226C45.8922 36.2864 44.1877 35.0076 42.3455 35.2676C41.4149 35.3975 40.5815 35.9119 40.048 36.6851L36.0555 34.396C36.339 33.6179 36.3199 32.762 36.0023 31.9973L50.1471 23.8438ZM15.223 23.7395C14.8262 23.7395 14.4611 24.0559 14.4611 24.499L14.4443 43.2788C14.4445 43.55 14.5895 43.8005 14.8245 43.9355L31.1388 53.3406C31.6456 53.6333 32.2809 53.2683 32.2809 52.6848L32.2947 36.5669C31.5116 36.429 30.8026 36.0183 30.293 35.408L26.2192 37.7434C26.3319 38.1726 26.3577 38.6204 26.2953 39.0598C26.0354 40.895 24.3315 42.1741 22.489 41.9148C20.6465 41.6555 19.3634 39.9565 19.6233 38.1213C19.8833 36.2861 21.5865 35.0076 23.4296 35.2664C24.3597 35.397 25.1927 35.9111 25.7264 36.6841L29.717 34.3967C29.4352 33.6221 29.4525 32.7703 29.7659 32.0076L15.6031 23.8428C15.4879 23.7754 15.3567 23.7397 15.223 23.7395Z" fill="url(#paint0_linear)"/>
<defs>
<linearGradient id="paint0_linear" x2="1" gradientUnits="userSpaceOnUse" gradientTransform="translate(-20.906 5.55768) scale(104.86) rotate(27.262)">
<stop stop-color="#F85F7D"/>
<stop offset="1" stop-color="#F14E10"/>
</linearGradient>
</defs>
</svg>
