<svg width="65" height="65" viewBox="0 0 65 65" fill="none" xmlns="http://www.w3.org/2000/svg">
<path fill-rule="evenodd" clip-rule="evenodd" d="M32.5 65C50.4492 65 65 50.4493 65 32.5C65 14.5507 50.4492 0 32.5 0C14.5507 0 0 14.5507 0 32.5C0 50.4493 14.5507 65 32.5 65ZM43.625 32.9933L38.2961 23.8956L32.2596 28.5945L26.7028 23.8973L21.3749 32.9933H21.3981C20.5048 34.6917 20 36.621 20 38.6667C20 45.4782 25.5964 51 32.5 51C39.4036 51 45 45.4782 45 38.6667C45 36.621 44.4952 34.6917 43.6019 32.9933H43.625ZM32.5 14L36.9116 21.5317L32.2596 25.1L28.0826 21.5415L32.5 14Z" fill="url(#paint0_linear)"/>
<defs>
<linearGradient id="paint0_linear" x2="1" gradientUnits="userSpaceOnUse" gradientTransform="translate(65) scale(65) rotate(90)">
<stop stop-color="white"/>
<stop offset="1" stop-color="#8785FF"/>
</linearGradient>
</defs>
</svg>
