<svg width="65" height="65" viewBox="0 0 65 65" fill="none" xmlns="http://www.w3.org/2000/svg">
<path fill-rule="evenodd" clip-rule="evenodd" d="M0 32.5C0 14.5508 14.5505 0 32.5 0C50.4492 0 65 14.5508 65 32.5C65 50.4492 50.4492 65 32.5 65C14.5505 65 0 50.4492 0 32.5ZM35.0153 13.7886C33.9738 13.1484 32.6919 12.7825 31.4858 13.1406C30.8997 13.303 30.3699 13.6101 29.8481 13.9124L29.7614 13.9626C26.1143 16.0715 22.4515 18.1521 18.7889 20.2329C17.5641 20.9285 16.3395 21.6243 15.1154 22.321C13.8034 23.0444 12.9854 24.5051 13.0416 25.9985C13.0397 28.1353 13.0432 30.272 13.0466 32.4089C13.0545 37.4148 13.0624 42.4211 13.0035 47.4263C12.9575 47.8601 13.3536 48.2422 13.7835 48.2002L14.8386 48.2036C16.6314 48.2097 18.4252 48.2161 20.2175 48.1943C20.7275 48.2043 20.9874 47.6624 20.9375 47.2163C20.9735 42.9978 20.9754 38.7793 20.9773 34.5608C20.978 32.9053 20.9788 31.25 20.9816 29.5945C20.9976 28.9604 21.128 28.2725 21.6155 27.8225C22.1911 27.2869 22.8792 26.9053 23.5641 26.5254C23.7692 26.4116 23.9741 26.2979 24.1755 26.1804C24.4678 26.0259 24.7546 25.8604 25.0413 25.6948C25.6117 25.3657 26.1819 25.0366 26.7955 24.7944C27.219 24.6384 27.7836 24.5166 28.1355 24.8845C28.4661 25.262 28.4932 25.7808 28.5185 26.2642L28.5275 26.4265C28.5457 28.2415 28.5388 30.0571 28.532 31.8726C28.5276 33.0481 28.5231 34.2236 28.5255 35.3987L28.5335 35.5825C28.5527 36.0544 28.5728 36.5513 28.8416 36.9546C29.1558 37.3821 29.7172 37.4399 30.2125 37.4907L30.3236 37.5024C31.1121 37.5422 31.9012 37.5376 32.6907 37.5327C33.1309 37.53 33.5713 37.5273 34.0117 37.5325L34.0363 37.532C34.7104 37.52 35.4819 37.5063 35.9937 36.9963C36.4774 36.4968 36.4785 35.7571 36.4794 35.1018L36.4796 35.0144C36.4076 32.1687 36.4275 29.3206 36.5035 26.4766C36.5085 26.4143 36.513 26.3506 36.5175 26.2864C36.554 25.7612 36.5939 25.1882 36.9895 24.8086C37.3896 24.4805 37.9436 24.6665 38.3676 24.8386C39.0608 25.1499 39.7151 25.5347 40.3697 25.9197C40.7744 26.1577 41.1793 26.3958 41.5934 26.6165C41.7067 26.6797 41.8223 26.7417 41.9382 26.8037C42.5 27.1042 43.0735 27.4114 43.4614 27.9285C43.9233 28.5146 44.0594 29.2808 44.0613 30.0085L44.0506 31.0684C43.995 36.5173 43.9394 41.9697 44.1273 47.4165C44.0793 47.8845 44.5153 48.2725 44.9712 48.2043L46.3173 48.2061C47.9506 48.2087 49.584 48.2114 51.2173 48.2002C51.7453 48.2502 52.0632 47.7102 51.9893 47.2363C51.9827 42.5505 51.9879 37.864 51.9932 33.1777C51.9955 31.0532 51.9979 28.9287 51.9992 26.8044C52.0251 24.7505 50.8251 22.7583 49.0212 21.7883C44.3597 19.1897 39.7376 16.5181 35.1179 13.8479L35.0153 13.7886Z" fill="url(#paint0_linear)"/>
<defs>
<linearGradient id="paint0_linear" x2="1" gradientUnits="userSpaceOnUse" gradientTransform="translate(32.5) scale(62.904) rotate(90)">
<stop stop-color="#5BC7AF"/>
<stop offset="1" stop-color="#033B4A"/>
</linearGradient>
</defs>
</svg>
