<svg width="65" height="65" viewBox="0 0 65 65" fill="none" xmlns="http://www.w3.org/2000/svg">
<path fill-rule="evenodd" clip-rule="evenodd" d="M32.5 0C14.5506 0 0 14.5508 0 32.5C0 50.4492 14.5506 65 32.5 65C50.4492 65 65 50.4492 65 32.5C65 14.5508 50.4492 0 32.5 0ZM29.0273 31.6986C30.6501 31.6986 31.9656 30.3831 31.9656 28.7603C31.9656 27.1375 30.6501 25.8219 29.0273 25.8219C27.4045 25.8219 26.0889 27.1375 26.0889 28.7603C26.0889 30.3831 27.4045 31.6986 29.0273 31.6986ZM39.178 28.7603C39.178 30.3831 37.8624 31.6986 36.2396 31.6986C34.6168 31.6986 33.3013 30.3831 33.3013 28.7603C33.3013 27.1375 34.6168 25.8219 36.2396 25.8219C37.8624 25.8219 39.178 27.1375 39.178 28.7603ZM29.0273 38.911C30.6501 38.911 31.9656 37.5955 31.9656 35.9727C31.9656 34.3499 30.6501 33.0343 29.0273 33.0343C27.4045 33.0343 26.0889 34.3499 26.0889 35.9727C26.0889 37.5955 27.4045 38.911 29.0273 38.911ZM39.178 35.9727C39.178 37.5955 37.8624 38.911 36.2396 38.911C34.6168 38.911 33.3013 37.5955 33.3013 35.9727C33.3013 34.3499 34.6168 33.0343 36.2396 33.0343C37.8624 33.0343 39.178 34.3499 39.178 35.9727ZM43.452 30.8972C44.6322 30.8972 45.5889 29.9406 45.5889 28.7603C45.5889 27.5801 44.6322 26.6233 43.452 26.6233C42.2717 26.6233 41.315 27.5801 41.315 28.7603C41.315 29.9406 42.2717 30.8972 43.452 30.8972ZM45.5889 35.9727C45.5889 37.153 44.6322 38.1096 43.452 38.1096C42.2717 38.1096 41.315 37.153 41.315 35.9727C41.315 34.7925 42.2717 33.8357 43.452 33.8357C44.6322 33.8357 45.5889 34.7925 45.5889 35.9727ZM21.5479 30.8972C22.7281 30.8972 23.6848 29.9406 23.6848 28.7603C23.6848 27.5801 22.7281 26.6233 21.5479 26.6233C20.3676 26.6233 19.4109 27.5801 19.4109 28.7603C19.4109 29.9406 20.3676 30.8972 21.5479 30.8972ZM23.6848 35.9727C23.6848 37.153 22.7281 38.1096 21.5479 38.1096C20.3676 38.1096 19.4109 37.153 19.4109 35.9727C19.4109 34.7925 20.3676 33.8357 21.5479 33.8357C22.7281 33.8357 23.6848 34.7925 23.6848 35.9727ZM29.0273 45.3219C30.2075 45.3219 31.1643 44.3652 31.1643 43.1849C31.1643 42.0048 30.2075 41.048 29.0273 41.048C27.8471 41.048 26.8903 42.0048 26.8903 43.1849C26.8903 44.3652 27.8471 45.3219 29.0273 45.3219ZM38.3766 43.1849C38.3766 44.3652 37.4198 45.3219 36.2396 45.3219C35.0594 45.3219 34.1026 44.3652 34.1026 43.1849C34.1026 42.0048 35.0594 41.048 36.2396 41.048C37.4198 41.048 38.3766 42.0048 38.3766 43.1849ZM29.0273 23.6849C30.2075 23.6849 31.1643 22.7283 31.1643 21.548C31.1643 20.3678 30.2075 19.411 29.0273 19.411C27.8471 19.411 26.8903 20.3678 26.8903 21.548C26.8903 22.7283 27.8471 23.6849 29.0273 23.6849ZM38.3766 21.548C38.3766 22.7283 37.4198 23.6849 36.2396 23.6849C35.0594 23.6849 34.1026 22.7283 34.1026 21.548C34.1026 20.3678 35.0594 19.411 36.2396 19.411C37.4198 19.411 38.3766 20.3678 38.3766 21.548ZM29.0273 15.6713C29.7649 15.6713 30.3629 15.0732 30.3629 14.3356C30.3629 13.598 29.7649 13 29.0273 13C28.2897 13 27.6917 13.598 27.6917 14.3356C27.6917 15.0732 28.2897 15.6713 29.0273 15.6713ZM37.5752 14.3356C37.5752 15.0732 36.9773 15.6713 36.2396 15.6713C35.502 15.6713 34.904 15.0732 34.904 14.3356C34.904 13.598 35.502 13 36.2396 13C36.9773 13 37.5752 13.598 37.5752 14.3356ZM50.6643 30.0959C51.4019 30.0959 51.9999 29.4979 51.9999 28.7603C51.9999 28.0227 51.4019 27.4247 50.6643 27.4247C49.9266 27.4247 49.3287 28.0227 49.3287 28.7603C49.3287 29.4979 49.9266 30.0959 50.6643 30.0959ZM51.9999 35.9725C51.9999 36.7102 51.4019 37.3082 50.6643 37.3082C49.9266 37.3082 49.3287 36.7102 49.3287 35.9725C49.3287 35.235 49.9266 34.637 50.6643 34.637C51.4019 34.637 51.9999 35.235 51.9999 35.9725ZM14.3355 30.0959C15.0732 30.0959 15.6711 29.4979 15.6711 28.7603C15.6711 28.0227 15.0732 27.4247 14.3355 27.4247C13.5979 27.4247 12.9999 28.0227 12.9999 28.7603C12.9999 29.4979 13.5979 30.0959 14.3355 30.0959ZM15.6711 35.9725C15.6711 36.7102 15.0732 37.3082 14.3355 37.3082C13.5979 37.3082 12.9999 36.7102 12.9999 35.9725C12.9999 35.235 13.5979 34.637 14.3355 34.637C15.0732 34.637 15.6711 35.235 15.6711 35.9725ZM29.0273 52C29.7649 52 30.3629 51.402 30.3629 50.6643C30.3629 49.9268 29.7649 49.3287 29.0273 49.3287C28.2897 49.3287 27.6917 49.9268 27.6917 50.6643C27.6917 51.402 28.2897 52 29.0273 52ZM37.5752 50.6643C37.5752 51.402 36.9773 52 36.2396 52C35.502 52 34.904 51.402 34.904 50.6643C34.904 49.9268 35.502 49.3287 36.2396 49.3287C36.9773 49.3287 37.5752 49.9268 37.5752 50.6643Z" fill="url(#paint0_linear)"/>
<defs>
<linearGradient id="paint0_linear" x2="1" gradientUnits="userSpaceOnUse" gradientTransform="translate(32.5) scale(65) rotate(90)">
<stop stop-color="white"/>
<stop offset="1" stop-color="#8785FF"/>
</linearGradient>
</defs>
</svg>
