<svg width="65" height="65" viewBox="0 0 65 65" fill="none" xmlns="http://www.w3.org/2000/svg">
<path fill-rule="evenodd" clip-rule="evenodd" d="M32.5 0C14.5505 0 0 14.5508 0 32.5C0 50.4492 14.5505 65 32.5 65C50.4492 65 65 50.4492 65 32.5C65 14.5508 50.4492 0 32.5 0ZM29.0273 31.6987C30.6501 31.6987 31.9656 30.3833 31.9656 28.7605C31.9656 27.1375 30.6501 25.822 29.0273 25.822C27.4045 25.822 26.0889 27.1375 26.0889 28.7605C26.0889 30.3833 27.4045 31.6987 29.0273 31.6987ZM39.178 28.7605C39.178 30.3833 37.8624 31.6987 36.2396 31.6987C34.6168 31.6987 33.3013 30.3833 33.3013 28.7605C33.3013 27.1375 34.6168 25.822 36.2396 25.822C37.8624 25.822 39.178 27.1375 39.178 28.7605ZM29.0273 38.9109C30.6501 38.9109 31.9656 37.5955 31.9656 35.9727C31.9656 34.3496 30.6501 33.0342 29.0273 33.0342C27.4045 33.0342 26.0889 34.3496 26.0889 35.9727C26.0889 37.5955 27.4045 38.9109 29.0273 38.9109ZM39.178 35.9727C39.178 37.5955 37.8624 38.9109 36.2396 38.9109C34.6168 38.9109 33.3013 37.5955 33.3013 35.9727C33.3013 34.3496 34.6168 33.0342 36.2396 33.0342C37.8624 33.0342 39.178 34.3496 39.178 35.9727ZM43.4519 30.8972C44.6321 30.8972 45.5889 29.9404 45.5889 28.7603C45.5889 27.5801 44.6321 26.6233 43.4519 26.6233C42.2717 26.6233 41.3149 27.5801 41.3149 28.7603C41.3149 29.9404 42.2717 30.8972 43.4519 30.8972ZM45.5889 35.9727C45.5889 37.1528 44.6321 38.1096 43.4519 38.1096C42.2717 38.1096 41.3149 37.1528 41.3149 35.9727C41.3149 34.7925 42.2717 33.8357 43.4519 33.8357C44.6321 33.8357 45.5889 34.7925 45.5889 35.9727ZM21.5478 30.8972C22.728 30.8972 23.6848 29.9404 23.6848 28.7603C23.6848 27.5801 22.728 26.6233 21.5478 26.6233C20.3676 26.6233 19.4108 27.5801 19.4108 28.7603C19.4108 29.9404 20.3676 30.8972 21.5478 30.8972ZM23.6848 35.9727C23.6848 37.1528 22.728 38.1096 21.5478 38.1096C20.3676 38.1096 19.4108 37.1528 19.4108 35.9727C19.4108 34.7925 20.3676 33.8357 21.5478 33.8357C22.728 33.8357 23.6848 34.7925 23.6848 35.9727ZM29.0273 45.3218C30.2075 45.3218 31.1643 44.365 31.1643 43.1848C31.1643 42.0046 30.2075 41.0479 29.0273 41.0479C27.8471 41.0479 26.8903 42.0046 26.8903 43.1848C26.8903 44.365 27.8471 45.3218 29.0273 45.3218ZM38.3766 43.1848C38.3766 44.365 37.4199 45.3218 36.2396 45.3218C35.0594 45.3218 34.1027 44.365 34.1027 43.1848C34.1027 42.0046 35.0594 41.0479 36.2396 41.0479C37.4199 41.0479 38.3766 42.0046 38.3766 43.1848ZM29.0273 23.6848C30.2075 23.6848 31.1643 22.728 31.1643 21.5479C31.1643 20.3677 30.2075 19.4109 29.0273 19.4109C27.8471 19.4109 26.8903 20.3677 26.8903 21.5479C26.8903 22.728 27.8471 23.6848 29.0273 23.6848ZM38.3766 21.5479C38.3766 22.728 37.4199 23.6848 36.2396 23.6848C35.0594 23.6848 34.1027 22.728 34.1027 21.5479C34.1027 20.3677 35.0594 19.4109 36.2396 19.4109C37.4199 19.4109 38.3766 20.3677 38.3766 21.5479ZM29.0273 15.6711C29.7649 15.6711 30.3629 15.0732 30.3629 14.3357C30.3629 13.5979 29.7649 13 29.0273 13C28.2896 13 27.6917 13.5979 27.6917 14.3357C27.6917 15.0732 28.2896 15.6711 29.0273 15.6711ZM37.5752 14.3357C37.5752 15.0732 36.9772 15.6711 36.2396 15.6711C35.502 15.6711 34.904 15.0732 34.904 14.3357C34.904 13.5979 35.502 13 36.2396 13C36.9772 13 37.5752 13.5979 37.5752 14.3357ZM50.6643 30.0959C51.4019 30.0959 51.9999 29.498 51.9999 28.7605C51.9999 28.0227 51.4019 27.4248 50.6643 27.4248C49.9266 27.4248 49.3287 28.0227 49.3287 28.7605C49.3287 29.498 49.9266 30.0959 50.6643 30.0959ZM51.9999 35.9727C51.9999 36.7102 51.4019 37.3081 50.6643 37.3081C49.9266 37.3081 49.3287 36.7102 49.3287 35.9727C49.3287 35.2349 49.9266 34.637 50.6643 34.637C51.4019 34.637 51.9999 35.2349 51.9999 35.9727ZM14.3355 30.0959C15.0731 30.0959 15.6711 29.498 15.6711 28.7605C15.6711 28.0227 15.0731 27.4248 14.3355 27.4248C13.5978 27.4248 12.9999 28.0227 12.9999 28.7605C12.9999 29.498 13.5978 30.0959 14.3355 30.0959ZM15.6711 35.9727C15.6711 36.7102 15.0731 37.3081 14.3355 37.3081C13.5978 37.3081 12.9999 36.7102 12.9999 35.9727C12.9999 35.2349 13.5978 34.637 14.3355 34.637C15.0731 34.637 15.6711 35.2349 15.6711 35.9727ZM29.0273 52C29.7649 52 30.3629 51.4021 30.3629 50.6646C30.3629 49.9268 29.7649 49.3289 29.0273 49.3289C28.2896 49.3289 27.6917 49.9268 27.6917 50.6646C27.6917 51.4021 28.2896 52 29.0273 52ZM37.5752 50.6646C37.5752 51.4021 36.9772 52 36.2396 52C35.502 52 34.904 51.4021 34.904 50.6646C34.904 49.9268 35.502 49.3289 36.2396 49.3289C36.9772 49.3289 37.5752 49.9268 37.5752 50.6646Z" fill="url(#paint0_linear)"/>
<defs>
<linearGradient id="paint0_linear" x2="1" gradientUnits="userSpaceOnUse" gradientTransform="translate(32.5) scale(65) rotate(90)">
<stop stop-color="#ACACAC"/>
<stop offset="1" stop-color="#1E252C"/>
</linearGradient>
</defs>
</svg>
