<svg width="65" height="65" viewBox="0 0 65 65" fill="none" xmlns="http://www.w3.org/2000/svg">
<path fill-rule="evenodd" clip-rule="evenodd" d="M32.5 65C50.4492 65 65 50.4492 65 32.5C65 14.5507 50.4492 0 32.5 0C14.5508 0 0 14.5507 0 32.5C0 50.4492 14.5508 65 32.5 65ZM18.6095 47C26.2986 54.732 38.7651 54.732 46.4542 47C48.3424 45.1013 49.767 42.9128 50.7278 40.5769L47.9965 37.8304L43.1929 33L47.9965 28.1696L50.7278 25.423C49.767 23.0871 48.3424 20.8987 46.4542 19C38.7651 11.268 26.2986 11.268 18.6095 19C10.9204 26.732 10.9204 39.268 18.6095 47ZM21.0835 44.5121C27.4061 50.8701 37.6573 50.8701 43.98 44.5121C44.9824 43.5041 45.8259 42.3967 46.5105 41.2216L40.7637 35.4427L37.8848 38.3376L37.1201 39.1066L37.0654 39.0516C34.1255 41.2624 29.9407 41.0244 27.2688 38.3376C24.3372 35.3897 24.3372 30.6102 27.2688 27.6623C29.8779 25.0386 33.9298 24.7501 36.8563 26.7966L36.9401 26.7124L37.87 27.6475L37.8848 27.6623L37.8995 27.6772L40.7638 30.5574L46.5106 24.7785C45.826 23.6033 44.9824 22.4959 43.98 21.4878C37.6573 15.1298 27.4061 15.1298 21.0835 21.4878C14.7607 27.8458 14.7607 38.1541 21.0835 44.5121ZM29.6305 35.9176C31.2253 37.5214 33.8068 37.529 35.4108 35.9402L35.4332 35.9176L38.3347 33L35.449 30.0982L35.4332 30.0824L35.4174 30.0665L35.3208 29.9693L35.3186 29.9714C33.7094 28.4719 31.1952 28.5089 29.6305 30.0824C28.0281 31.6937 28.0281 34.3062 29.6305 35.9176Z" fill="url(#paint0_linear)"/>
<defs>
<linearGradient id="paint0_linear" x2="1" gradientUnits="userSpaceOnUse" gradientTransform="translate(65) scale(65) rotate(90)">
<stop stop-color="#EB2D84"/>
<stop offset="1" stop-color="#7300FF"/>
</linearGradient>
</defs>
</svg>
