<svg width="65" height="65" viewBox="0 0 65 65" fill="none" xmlns="http://www.w3.org/2000/svg">
<path fill-rule="evenodd" clip-rule="evenodd" d="M32.5 0C14.5505 0 0 14.5508 0 32.5C0 50.4492 14.5505 65 32.5 65C50.4492 65 65 50.4492 65 32.5C65 14.5508 50.4492 0 32.5 0ZM25.7744 26.2649L35.4805 16.5588L31.9215 13L18.6567 26.2649L31.9215 39.5295L45.1863 26.2649L38.608 19.6865L35.049 23.2451L38.0687 26.2649L31.9215 32.4119L25.7744 26.2649ZM22.2154 34.6667L31.9215 44.3726L41.6274 34.6667L45.1863 38.2256L35.4805 47.9316L31.9215 51.4902L28.3625 47.9316L18.6567 38.2256L22.2154 34.6667ZM44.6567 32.4478L48.2155 28.8889L55.0098 35.6831L51.451 39.2419L44.6567 32.4478ZM9.98999 35.6833L13.5488 39.2422L20.3431 32.448L16.7842 28.8889L9.98999 35.6833Z" fill="url(#paint0_linear)"/>
<defs>
<linearGradient id="paint0_linear" x2="1" gradientUnits="userSpaceOnUse" gradientTransform="translate(32.5 65) scale(65) rotate(-90)">
<stop stop-color="#ED5250"/>
<stop offset="1" stop-color="#03B2C6"/>
</linearGradient>
</defs>
</svg>
