<svg width="65" height="65" viewBox="0 0 65 65" fill="none" xmlns="http://www.w3.org/2000/svg">
<path fill-rule="evenodd" clip-rule="evenodd" d="M32.5 0C14.5506 0 0 14.5508 0 32.5C0 50.4492 14.5506 65 32.5 65C50.4492 65 65 50.4492 65 32.5C65 14.5508 50.4492 0 32.5 0ZM16.6991 40V25.6836H21.0253L23.6229 35.4492L26.1913 25.6836H30.5272V40H27.8417V28.7305L24.9999 40H22.2167L19.3847 28.7305V40H16.6991ZM33.3104 40V25.6836H36.2011V40H33.3104ZM42.1776 40V28.1055H37.9296V25.6836H49.3065V28.1055H45.0683V40H42.1776Z" fill="url(#paint0_linear)"/>
<defs>
<linearGradient id="paint0_linear" x2="1" gradientUnits="userSpaceOnUse" gradientTransform="translate(32.5) scale(65) rotate(90)">
<stop stop-color="white"/>
<stop offset="1" stop-color="#8785FF"/>
</linearGradient>
</defs>
</svg>
