<svg width="65" height="65" viewBox="0 0 65 65" fill="none" xmlns="http://www.w3.org/2000/svg">
<path fill-rule="evenodd" clip-rule="evenodd" d="M32.5 65C50.4493 65 65 50.4493 65 32.5C65 14.5507 50.4493 0 32.5 0C14.5507 0 0 14.5507 0 32.5C0 50.4493 14.5507 65 32.5 65ZM41.0155 15.0008C41.4981 14.9844 41.95 15.2353 42.1892 15.6524L52.1779 33.0719L58.784 42.9928C59.0481 43.3898 59.0718 43.8993 58.8453 44.3188C58.6189 44.7383 58.1787 45 57.7 45H8.30003C7.77999 45 7.31 44.6917 7.10514 44.2164C6.90029 43.7408 7.00001 43.1897 7.35865 42.8152L15.0699 34.7612C15.0797 34.751 15.0887 34.7399 15.0967 34.7282L24.6445 20.7392C24.8803 20.3936 25.2696 20.1826 25.6894 20.1728C26.1093 20.1629 26.508 20.3555 26.76 20.6897L33.0224 28.9954C33.1394 29.1504 33.3799 29.1272 33.4646 28.9528L39.8895 15.7304C40.0996 15.2981 40.5332 15.0171 41.0155 15.0008ZM39.656 22.1541C39.7761 21.9067 40.15 21.9919 40.15 22.2666V30.4391C40.15 30.5012 40.1277 30.5612 40.0868 30.6082L34.5473 36.9884C34.3879 37.1721 34.0847 37.0559 34.0905 36.8133L34.17 33.4914C34.17 33.4209 34.2859 33.1966 34.4125 32.9517C34.5181 32.7475 34.6312 32.5288 34.6905 32.3731L39.656 22.1541ZM32.7723 33.001C32.8253 33.0719 32.8688 33.157 32.8669 33.2453L32.7823 37.1385C32.7773 37.3675 32.4975 37.4775 32.3365 37.3137L28.152 33.0568L25.6777 30.1268C25.6337 30.0748 25.6121 30.0077 25.6175 29.94L26.0286 24.7843C26.0476 24.5467 26.3521 24.4589 26.4958 24.6496L32.4689 32.5715C32.4763 32.5813 32.4845 32.5905 32.4928 32.5994C32.5478 32.6587 32.6047 32.7474 32.6608 32.835C32.6985 32.894 32.736 32.9524 32.7723 33.001ZM24.1327 26.0934C24.2826 25.8738 24.6281 25.9945 24.6069 26.2592L24.3296 29.7378C24.3229 29.8219 24.2753 29.8975 24.2022 29.9403L20.7112 31.9829C20.4722 32.1228 20.2085 31.843 20.3643 31.6147L24.1327 26.0934ZM17.2689 36.1499C17.2184 36.2239 17.2099 36.3187 17.2466 36.4005L19.9006 42.3184C19.9267 42.3763 19.9847 42.4138 20.0487 42.4138C20.0997 42.4138 20.1477 42.39 20.1783 42.3494L26.7165 33.6784C26.7891 33.5822 26.7854 33.449 26.7076 33.3569L24.9373 31.2606C24.8557 31.1639 24.7158 31.14 24.6064 31.204L18.0609 35.0338C18.0277 35.0533 17.9993 35.0798 17.9776 35.1115L17.2689 36.1499ZM15.9599 37.5817C16.0875 37.4484 16.3102 37.4866 16.3856 37.6547L18.3567 42.0499C18.4335 42.2209 18.3076 42.4138 18.1193 42.4138H11.94C11.7114 42.4138 11.5941 42.1415 11.7518 41.9767L15.9599 37.5817ZM22.2748 42.4138C22.0605 42.4138 21.9382 42.1704 22.0668 42L27.5533 34.7238C27.649 34.597 27.8358 34.5848 27.9472 34.6982L32.3238 39.1504C32.4202 39.2485 32.4229 39.4045 32.3298 39.5057L29.7341 42.3297C29.6849 42.3833 29.6152 42.4138 29.5422 42.4138H22.2748ZM37.3155 42.4138C37.5929 42.4138 37.6774 42.0393 37.4265 41.9214L33.7197 40.1802C33.6167 40.1317 33.4937 40.1558 33.4168 40.2395L31.8164 41.9806C31.6638 42.1466 31.7822 42.4138 32.0083 42.4138H37.3155ZM41.5777 42.4138C41.5395 42.4138 41.5015 42.4053 41.4666 42.389L34.7506 39.2343C34.5951 39.1613 34.5525 38.9609 34.6648 38.8315L40.5244 32.0826C40.6357 31.9546 40.8382 31.9654 40.9349 32.1043L47.8359 42.0078C47.9555 42.1795 47.832 42.4138 47.6222 42.4138H41.5777ZM50.9353 42.4138C50.7843 42.4138 50.6652 42.2863 50.6758 42.1366L51.056 36.9096C51.0737 36.6635 51.395 36.5797 51.532 36.7854L55.0124 42.0124C55.1268 42.1844 55.003 42.4138 54.7956 42.4138H50.9353ZM49.4682 33.5667C49.4325 33.5045 49.3725 33.4597 49.3023 33.4432L42.9601 31.9492C42.7282 31.8945 42.5508 32.1533 42.6866 32.3481L48.9653 41.3589C49.1052 41.5596 49.4206 41.4737 49.4383 41.2303L49.9304 34.4609C49.9341 34.4098 49.9226 34.3587 49.8969 34.3142L49.4682 33.5667ZM48.235 31.4158C48.3475 31.6122 48.1705 31.8477 47.9492 31.7956L41.6502 30.3117C41.533 30.2841 41.45 30.1799 41.45 30.0601V20.5588C41.45 20.2934 41.8036 20.2002 41.936 20.4306L48.235 31.4158Z" fill="url(#paint0_linear)"/>
<defs>
<linearGradient id="paint0_linear" x1="32.5" y1="0" x2="32.5" y2="65" gradientUnits="userSpaceOnUse">
<stop stop-color="#57BEFF"/>
<stop offset="1" stop-color="#143BBC"/>
</linearGradient>
</defs>
</svg>
