<svg width="65" height="65" viewBox="0 0 65 65" fill="none" xmlns="http://www.w3.org/2000/svg">
<path fill-rule="evenodd" clip-rule="evenodd" d="M32.5 0C14.5505 0 0 14.5508 0 32.5C0 50.4492 14.5505 65 32.5 65C50.4492 65 65 50.4492 65 32.5C65 14.5508 50.4492 0 32.5 0ZM11.6468 19.6479V48.5654C11.6468 48.9895 11.303 49.3335 10.8789 49.3335C10.4548 49.3335 10.111 48.9895 10.111 48.5654V18.1025C10.111 17.468 10.837 17.1072 11.3427 17.4905L30.0804 31.6902C30.272 31.8352 30.3845 32.0618 30.3845 32.3022V48.5654C30.3845 48.9895 30.0407 49.3335 29.6166 49.3335C29.1925 49.3335 28.8487 48.9895 28.8487 48.5654V32.6838L11.6468 19.6479ZM36.1511 48.5654V32.6838L53.353 19.6479V48.5654C53.353 48.9895 53.6968 49.3335 54.1208 49.3335C54.545 49.3335 54.8887 48.9895 54.8887 48.5654V18.1025C54.8887 17.468 54.1628 17.1072 53.6571 17.4905L34.9194 31.6902C34.7278 31.8352 34.6153 32.0618 34.6153 32.3022V48.5654C34.6153 48.9895 34.9591 49.3335 35.3832 49.3335C35.8073 49.3335 36.1511 48.9895 36.1511 48.5654Z" fill="url(#paint0_linear)"/>
<defs>
<linearGradient id="paint0_linear" x2="1" gradientUnits="userSpaceOnUse" gradientTransform="translate(32.5) scale(65) rotate(90)">
<stop stop-color="#1ABC9C"/>
<stop offset="1" stop-color="#546979"/>
</linearGradient>
</defs>
</svg>
