<svg width="65" height="65" viewBox="0 0 65 65" fill="none" xmlns="http://www.w3.org/2000/svg">
<path fill-rule="evenodd" clip-rule="evenodd" d="M32.5 0C14.5506 0 0 14.5508 0 32.5C0 50.4492 14.5506 65 32.5 65C50.4492 65 65 50.4492 65 32.5C65 14.5508 50.4492 0 32.5 0ZM19.1408 40.5447L28.7425 46.176V49.325L16.1776 41.9307V22.6436L32.5689 13L48.9602 22.6436V41.9307L36.3954 49.325V46.1742L45.9952 40.5447L43.5183 39.1132L43.8425 38.5504L46.2884 39.9637V25.6632L33.8675 33.0247V54.0784L32.5689 54.8889L31.2685 54.0784V33.0247L18.8494 25.6632V39.9619L21.2935 38.5504L21.6177 39.115L19.1408 40.5447ZM32.2083 16.3039L20.1479 23.3794L32.5689 30.7428L44.9899 23.3794L32.8585 16.262V19.1833H32.2083V16.3039ZM32.2083 21.0244H32.8585V24.0422H32.2083V21.0244ZM32.2083 25.8835H32.8585V28.9014L32.5325 29.0489L32.2083 28.9032V25.8835ZM42.3345 37.6307L42.0103 38.1953L39.395 36.6836L39.721 36.1208L42.3345 37.6325V37.6307ZM38.2093 35.2011L37.8833 35.7657L35.2698 34.2541L35.3063 33.9007L35.594 33.6931L38.2093 35.2011ZM22.8015 37.6307L25.415 36.1208L25.741 36.6854L23.1275 38.1934L22.8015 37.6307ZM26.9285 35.2011L29.542 33.6931L29.8334 33.9007L29.8662 34.2559L27.2527 35.7639L26.9285 35.2011Z" fill="url(#paint0_linear)"/>
<defs>
<linearGradient id="paint0_linear" x2="1" gradientUnits="userSpaceOnUse" gradientTransform="translate(32.5 65) scale(65) rotate(-90)">
<stop stop-color="#0B1529"/>
<stop offset="1" stop-color="#4C6F8C"/>
</linearGradient>
</defs>
</svg>
