<svg width="65" height="65" viewBox="0 0 65 65" fill="none" xmlns="http://www.w3.org/2000/svg">
<path fill-rule="evenodd" clip-rule="evenodd" d="M32.5 65C50.4492 65 65 50.4492 65 32.5C65 14.5508 50.4492 0 32.5 0C14.5507 0 0 14.5508 0 32.5C0 50.4492 14.5507 65 32.5 65ZM29.2528 21.7782C29.1848 21.7811 29.1165 21.7826 29.0477 21.7826C26.5281 21.7826 24.4856 19.8166 24.4856 17.3913C24.4856 14.966 26.5281 13 29.0477 13C31.5673 13 33.6099 14.966 33.6099 17.3913C33.6099 19.2981 32.3472 20.9211 30.5828 21.5278L31.7638 26.9757C31.9258 26.963 32.0895 26.9565 32.2549 26.9565C35.5477 26.9565 38.2172 29.526 38.2172 32.6957C38.2172 33.7833 37.9028 34.8003 37.3568 35.6671L44.6202 42.0725C45.2964 41.5124 46.1761 41.1739 47.1381 41.1739C49.271 41.1739 51.0001 42.8382 51.0001 44.8913C51.0001 46.9443 49.271 48.6087 47.1381 48.6087C45.0052 48.6087 43.2761 46.9443 43.2761 44.8913C43.2761 44.2356 43.4525 43.6195 43.7621 43.0847L36.5242 36.7018C35.4413 37.7709 33.9286 38.4348 32.2549 38.4348C31.7281 38.4348 31.2174 38.3691 30.731 38.2456L27.1514 47.6136C27.631 48.1819 27.9185 48.9065 27.9185 49.6957C27.9185 51.5206 26.3815 53 24.4856 53C22.5897 53 21.0527 51.5206 21.0527 49.6957C21.0527 49.2684 21.137 48.86 21.2904 48.4852L19.4905 46.9299C19.0168 47.3 18.413 47.5218 17.7553 47.5218C16.2336 47.5218 15 46.3343 15 44.8696C15 43.4048 16.2336 42.2174 17.7553 42.2174C19.277 42.2174 20.5107 43.4048 20.5107 44.8696C20.5107 45.2273 20.4371 45.5685 20.3037 45.8798L22.0382 47.3785C22.6609 46.7692 23.5274 46.3913 24.4856 46.3913C25.0444 46.3913 25.5721 46.5199 26.0384 46.7479L29.4685 37.7708C27.5795 36.8079 26.2925 34.8965 26.2925 32.6957C26.2925 30.1372 28.0317 27.9697 30.4343 27.229L29.2528 21.7782ZM31.8934 17.3913C31.8934 18.9041 30.6194 20.1304 29.0477 20.1304C27.4761 20.1304 26.202 18.9041 26.202 17.3913C26.202 15.8785 27.4761 14.6522 29.0477 14.6522C30.6194 14.6522 31.8934 15.8785 31.8934 17.3913ZM35.9739 32.6957C35.9739 34.6728 34.3087 36.2755 32.2548 36.2755C30.2007 36.2755 28.5356 34.6728 28.5356 32.6957C28.5356 30.7186 30.2007 29.1158 32.2548 29.1158C34.3087 29.1158 35.9739 30.7186 35.9739 32.6957ZM47.1382 47.2101C48.4686 47.2101 49.5471 46.1719 49.5471 44.8913C49.5471 43.6107 48.4686 42.5725 47.1382 42.5725C45.8077 42.5725 44.7292 43.6107 44.7292 44.8913C44.7292 46.1719 45.8077 47.2101 47.1382 47.2101ZM26.6268 49.6956C26.6268 50.834 25.6682 51.7568 24.4855 51.7568C23.3029 51.7568 22.3442 50.834 22.3442 49.6956C22.3442 48.5573 23.3029 47.6345 24.4855 47.6345C25.6682 47.6345 26.6268 48.5573 26.6268 49.6956ZM17.7554 46.5239C18.7046 46.5239 19.4741 45.7832 19.4741 44.8696C19.4741 43.9559 18.7046 43.2152 17.7554 43.2152C16.8062 43.2152 16.0367 43.9559 16.0367 44.8696C16.0367 45.7832 16.8062 46.5239 17.7554 46.5239Z" fill="url(#paint0_linear)"/>
<defs>
<linearGradient id="paint0_linear" x2="1" gradientUnits="userSpaceOnUse" gradientTransform="translate(65) scale(65) rotate(90)">
<stop stop-color="white"/>
<stop offset="1" stop-color="#459BFF"/>
</linearGradient>
</defs>
</svg>
