<svg width="65" height="65" viewBox="0 0 65 65" fill="none" xmlns="http://www.w3.org/2000/svg">
<path fill-rule="evenodd" clip-rule="evenodd" d="M32.5 0C14.5505 0 0 14.5508 0 32.5C0 50.4492 14.5505 65 32.5 65C50.4492 65 65 50.4492 65 32.5C65 14.5508 50.4492 0 32.5 0ZM18.9999 37.8679C18.9999 41.3762 21.8436 44.2202 25.3517 44.2202V32.8682L27.1956 36.062C28.332 37.7827 30.2831 38.9182 32.4994 38.9182C33.4889 38.9194 34.465 38.6887 35.349 38.2444L35.6797 38.0535C36.5338 37.5586 37.2616 36.8701 37.8042 36.0486L39.6472 32.8562V44.2202C43.1552 44.2202 45.999 41.3762 45.999 37.8679V21.8606L45.9999 21.8521C42.9624 20.0979 39.0771 21.1389 37.3232 24.177L32.4958 32.5388L27.6765 24.1909C27.0979 23.1885 26.2872 22.4038 25.3517 21.8647V21.8606H25.3446C23.4481 20.7712 21.0398 20.6919 19.0088 21.8606H18.9999V21.8657V37.8679Z" fill="url(#paint0_linear)"/>
<defs>
<linearGradient id="paint0_linear" x2="1" gradientUnits="userSpaceOnUse" gradientTransform="scale(65) rotate(90)">
<stop stop-color="#16ED8C"/>
<stop offset="1" stop-color="#0767FC"/>
</linearGradient>
</defs>
</svg>
