<svg width="65" height="65" viewBox="0 0 65 65" fill="none" xmlns="http://www.w3.org/2000/svg">
<path fill-rule="evenodd" clip-rule="evenodd" d="M32.5 0C14.5506 0 0 14.5508 0 32.5C0 50.4492 14.5506 65 32.5 65C50.4492 65 65 50.4492 65 32.5C65 14.5508 50.4492 0 32.5 0ZM22.5589 44.6231H18.4221V34.7641L22.5589 33.739V44.6231ZM25.4817 44.6232H29.6188V31.9836L25.4817 33.0089V44.6232ZM36.6781 44.6231H32.5413V31.2632L36.6781 30.2379V44.6231ZM45.9195 26.6327L46.4756 28.2231L52.9999 21.8949L44.2727 21L44.7462 22.4913L11.9999 33.9879L12.3708 34.9484L39.6012 28.1985V44.6232H43.7379V27.1732L45.9195 26.6327Z" fill="url(#paint0_linear)"/>
<defs>
<linearGradient id="paint0_linear" x2="1" gradientUnits="userSpaceOnUse" gradientTransform="translate(32.5) scale(65) rotate(90)">
<stop stop-color="white"/>
<stop offset="1" stop-color="#8785FF"/>
</linearGradient>
</defs>
</svg>
