<svg width="65" height="65" viewBox="0 0 65 65" fill="none" xmlns="http://www.w3.org/2000/svg">
<path fill-rule="evenodd" clip-rule="evenodd" d="M32.5 0C14.5506 0 0 14.5508 0 32.5C0 50.4492 14.5506 65 32.5 65C50.4492 65 65 50.4492 65 32.5C65 14.5508 50.4492 0 32.5 0ZM22.9643 16.0291L17.6236 19.7392L17.4999 19.9819V46.3819L17.6722 46.6439L23.0104 48.9976H23.2191L30.3408 46.5954V46.047L24.7356 44.3145H24.5755L23.4156 44.6324V21.9425L24.5803 22.2312L24.7793 22.2118L30.3602 19.5451V19.021L23.2385 16L22.9643 16.0291ZM18.075 20.125L22.8381 16.8153V48.2866L18.075 46.1878V20.125ZM24.6434 44.892L29.3192 46.3479L23.4156 48.34V45.2147L24.6434 44.892ZM24.6192 21.6464L23.4059 21.3504V16.6989L29.5522 19.3025L24.6192 21.6464ZM41.8958 16.0291L47.2364 19.7392L47.3602 19.9819V46.3819L47.1879 46.6439L41.8497 48.9976H41.641L34.5193 46.5954V46.047L40.1244 44.3145H40.2846L41.4445 44.6324V21.9425L40.2797 22.2312L40.0808 22.2118L34.4999 19.5451V19.021L41.6216 16L41.8958 16.0291ZM46.7851 20.125L42.0219 16.8153V48.2866L46.7851 46.1878V20.125ZM40.2167 44.892L35.5409 46.3479L41.4445 48.34V45.2147L40.2167 44.892ZM40.2409 21.6464L41.4542 21.3504V16.6989L35.3079 19.3025L40.2409 21.6464Z" fill="url(#paint0_linear)"/>
<defs>
<linearGradient id="paint0_linear" x2="1" gradientUnits="userSpaceOnUse" gradientTransform="translate(32.5) scale(65) rotate(90)">
<stop stop-color="white"/>
<stop offset="1" stop-color="#8785FF"/>
</linearGradient>
</defs>
</svg>
