<svg width="65" height="65" viewBox="0 0 65 65" fill="none" xmlns="http://www.w3.org/2000/svg">
<path fill-rule="evenodd" clip-rule="evenodd" d="M32.5 0C14.5506 0 0 14.5508 0 32.5C0 50.4492 14.5506 65 32.5 65C50.4492 65 65 50.4492 65 32.5C65 14.5508 50.4492 0 32.5 0ZM22.9643 16.0291L17.6236 19.7392L17.4999 19.9818V46.3818L17.6722 46.6439L23.0104 48.9976H23.2191L30.3408 46.5954V46.047L24.7356 44.3145H24.5755L23.4156 44.6324V21.9424L24.5803 22.2312L24.7793 22.2118L30.3602 19.5451V19.021L23.2385 16L22.9643 16.0291ZM18.075 20.1251L22.8381 16.8154V48.2868L18.075 46.1879V20.1251ZM24.6434 44.8921L29.3193 46.348L23.4156 48.3401V45.2148L24.6434 44.8921ZM24.6191 21.6463L23.4059 21.3503V16.6987L29.5521 19.3023L24.6191 21.6463ZM41.8958 16.0291L47.2365 19.7392L47.3602 19.9818V46.3818L47.188 46.6439L41.8497 48.9976H41.641L34.5193 46.5954V46.047L40.1245 44.3145H40.2846L41.4445 44.6324V21.9424L40.2798 22.2312L40.0808 22.2118L34.4999 19.5451V19.021L41.6216 16L41.8958 16.0291ZM46.7852 20.1251L42.022 16.8154V48.2868L46.7852 46.1879V20.1251ZM40.2167 44.8921L35.5409 46.348L41.4445 48.3401V45.2148L40.2167 44.8921ZM40.2409 21.6463L41.4541 21.3503V16.6987L35.3079 19.3023L40.2409 21.6463Z" fill="url(#paint0_linear)"/>
<defs>
<linearGradient id="paint0_linear" x2="1" gradientUnits="userSpaceOnUse" gradientTransform="translate(32.5) scale(65) rotate(90)">
<stop stop-color="#ACACAC"/>
<stop offset="1" stop-color="#555555"/>
</linearGradient>
</defs>
</svg>
