<svg width="65" height="65" viewBox="0 0 65 65" fill="none" xmlns="http://www.w3.org/2000/svg">
<path fill-rule="evenodd" clip-rule="evenodd" d="M32.5 65C50.4493 65 65 50.4493 65 32.5C65 14.5507 50.4493 0 32.5 0C14.5507 0 0 14.5507 0 32.5C0 50.4493 14.5507 65 32.5 65ZM27.8811 9.31061H36.9779L37.0064 9.29418L55.5341 41.3851L55.6949 41.4779L51.0493 49.5244V49.5573H13.9448V49.4557L9.31456 41.4358L9.28571 41.4192L27.6868 9.54757V9.31061H27.8236L27.838 9.28571L27.8811 9.31061ZM47.9285 46.565H15.7311L13.8883 43.3732H39.0804V43.373H42.0135L34.1326 29.7229L36.1687 26.1963L47.9285 46.565ZM13.3404 40.3809H36.8308L34.6973 36.6855H19.1594L20.6259 34.1455L20.6258 34.1454L33.2366 12.3029H29.5512L13.3404 40.3809ZM32.405 32.7152L32.9697 33.6932H31.8403L32.405 32.7152ZM35.99 13.5184L24.3421 33.6932H28.3851L36.1688 20.2115L37.8964 23.2038L37.8963 23.204L50.3432 44.7628L52.1861 41.5708L35.99 13.5184Z" fill="url(#paint0_linear)"/>
<defs>
<linearGradient id="paint0_linear" x1="32.5" y1="0" x2="32.5" y2="65" gradientUnits="userSpaceOnUse">
<stop stop-color="#47F3D1"/>
<stop offset="1" stop-color="#1AD9EB"/>
</linearGradient>
</defs>
</svg>
