<svg width="65" height="65" viewBox="0 0 65 65" fill="none" xmlns="http://www.w3.org/2000/svg">
<path fill-rule="evenodd" clip-rule="evenodd" d="M32.5 0C14.5506 0 0 14.5508 0 32.5C0 50.4492 14.5506 65 32.5 65C50.4492 65 65 50.4492 65 32.5C65 14.5508 50.4492 0 32.5 0ZM26.1085 37.6895L32.2575 50.1634L35.4161 40.8343L26.1105 37.6895H26.1085ZM14.864 32.2772L24.1755 35.4377L27.3379 26.1145L14.864 32.2772ZM26.6519 36.2333C26.7984 36.3115 26.859 36.3584 26.9274 36.3819C29.9296 37.4021 32.9279 38.4302 35.9379 39.4251C36.1822 39.5033 36.5301 39.4368 36.7705 39.3195C40.2125 37.6406 43.6447 35.9421 47.0769 34.2475C48.0541 33.7647 49.0275 33.2761 50.0927 32.7444C49.8582 32.6545 49.737 32.6037 49.6099 32.5607C46.7035 31.5737 43.7971 30.5808 40.8809 29.6211C40.573 29.5303 40.2428 29.5511 39.9486 29.6797C36.2897 31.4584 32.6445 33.2663 28.9973 35.0665C28.237 35.4417 27.4806 35.8209 26.6519 36.2333ZM39.3545 28.2881C37.1459 23.8044 34.9646 19.3871 32.7286 14.8506L25.9268 34.9179L39.3545 28.2881ZM10.9999 32.5039C13.1382 31.4465 15.1552 30.4419 17.1762 29.445C20.6123 27.7505 24.0484 26.0539 27.4904 24.371C27.8355 24.2198 28.096 23.9235 28.2018 23.5619C29.5466 19.5492 30.9108 15.5443 32.2712 11.5375C32.322 11.389 32.3826 11.2443 32.4764 11C32.6132 11.2658 32.7149 11.4535 32.8087 11.643C35.4376 16.979 38.0625 22.3149 40.7129 27.639C40.8419 27.897 41.182 28.112 41.4732 28.2117C45.4527 29.5838 49.4399 30.9325 53.4252 32.287C53.5757 32.3378 53.7243 32.3925 53.9999 32.4902C53.6324 32.6759 53.3607 32.8186 53.0871 32.9535C47.9506 35.4885 42.816 38.0294 37.6716 40.5469C37.2018 40.7529 36.8485 41.1578 36.708 41.6512C35.3809 45.6267 34.0205 49.5905 32.6699 53.5583C32.6328 53.6677 32.5878 53.7733 32.4999 54C32.1539 53.3061 31.8549 52.7139 31.5617 52.1197C29.1693 47.2685 26.775 42.4174 24.3963 37.5584C24.2325 37.176 23.9075 36.8861 23.509 36.7668C19.5178 35.4318 15.5344 34.0695 11.5491 32.715C11.4025 32.6642 11.2598 32.6036 10.9999 32.5039Z" fill="url(#paint0_linear)"/>
<defs>
<linearGradient id="paint0_linear" x2="1" gradientUnits="userSpaceOnUse" gradientTransform="translate(32.5) scale(65) rotate(90)">
<stop stop-color="#ACACAC"/>
<stop offset="1" stop-color="#555555"/>
</linearGradient>
</defs>
</svg>
