<svg width="65" height="65" viewBox="0 0 65 65" fill="none" xmlns="http://www.w3.org/2000/svg">
<path fill-rule="evenodd" clip-rule="evenodd" d="M32.5 0C14.5506 0 0 14.5508 0 32.5C0 50.4492 14.5506 65 32.5 65C50.4492 65 65 50.4492 65 32.5C65 14.5508 50.4492 0 32.5 0ZM26.1085 37.6893L32.2575 50.1633L35.4161 40.8342L26.1105 37.6893H26.1085ZM14.864 32.2772L24.1755 35.4377L27.3379 26.1145L14.864 32.2772ZM26.6519 36.2332C26.7985 36.3114 26.8591 36.3583 26.9275 36.3818C29.9297 37.402 32.9279 38.4301 35.9379 39.425C36.1823 39.5032 36.5302 39.4367 36.7706 39.3194C40.2125 37.6405 43.6447 35.942 47.0769 34.2474C48.0542 33.7646 49.0275 33.276 50.0928 32.7443C49.8582 32.6544 49.737 32.6036 49.61 32.5606C46.7036 31.5736 43.7972 30.5807 40.881 29.621C40.573 29.5302 40.2429 29.551 39.9487 29.6796C36.2898 31.4583 32.6445 33.2662 28.9973 35.0663C28.237 35.4416 27.4806 35.8208 26.6519 36.2332ZM39.3545 28.288C37.1459 23.8043 34.9646 19.387 32.7286 14.8505L25.9268 34.9178L39.3545 28.288ZM10.9999 32.5039C13.1382 31.4465 15.1553 30.4419 17.1763 29.4451C20.6123 27.7505 24.0484 26.0539 27.4904 24.3711C27.8355 24.2198 28.096 23.9235 28.2018 23.5619C29.5466 19.5492 30.9108 15.5443 32.2712 11.5375C32.322 11.389 32.3826 11.2443 32.4764 11C32.6133 11.2658 32.7149 11.4535 32.8087 11.6431C35.4376 16.979 38.0625 22.3149 40.7129 27.6391C40.8419 27.8971 41.182 28.1121 41.4732 28.2118C45.4527 29.5838 49.4399 30.9325 53.4253 32.287C53.5758 32.3378 53.7243 32.3925 53.9999 32.4903C53.6324 32.6759 53.3608 32.8186 53.0871 32.9535C47.9506 35.4885 42.816 38.0294 37.6716 40.5469C37.2018 40.7529 36.8485 41.1578 36.708 41.6512C35.3809 45.6268 34.0205 49.5906 32.6699 53.5583C32.6328 53.6678 32.5878 53.7733 32.4999 54C32.1539 53.3062 31.8549 52.7139 31.5617 52.1198C29.1693 47.2686 26.775 42.4174 24.3963 37.5584C24.2325 37.1761 23.9075 36.8861 23.509 36.7668C19.5178 35.4319 15.5344 34.0695 11.5491 32.715C11.4025 32.6642 11.2598 32.6036 10.9999 32.5039Z" fill="url(#paint0_linear)"/>
<defs>
<linearGradient id="paint0_linear" x2="1" gradientUnits="userSpaceOnUse" gradientTransform="translate(32.5) scale(65) rotate(90)">
<stop stop-color="white"/>
<stop offset="1" stop-color="#8785FF"/>
</linearGradient>
</defs>
</svg>
