<svg width="65" height="65" viewBox="0 0 65 65" fill="none" xmlns="http://www.w3.org/2000/svg">
<path fill-rule="evenodd" clip-rule="evenodd" d="M32.5 65C50.4493 65 65 50.4493 65 32.5C65 14.5507 50.4493 0 32.5 0C14.5507 0 0 14.5507 0 32.5C0 50.4493 14.5507 65 32.5 65ZM22.0588 16.6083C19.2462 17.4485 16.5732 18.6089 14.0199 20.0894C14.0199 20.1894 14.0199 20.2494 14 20.3495C14 21.8099 14.0997 23.2704 14.2793 24.7309C14.4388 26.0513 14.6583 27.3517 14.9575 28.6521C14.9974 28.8722 15.0772 29.0923 15.1769 29.3124C16.9722 33.1336 21.1213 35.1742 25.2304 34.2339C28.3622 33.5137 30.8955 31.0929 31.7732 27.9919C32.0325 27.1317 32.1123 26.2514 32.1323 25.3711C32.1522 24.7909 32.2121 24.2107 32.3118 23.6305C32.99 20.1094 35.3239 17.2085 38.6152 15.828C38.705 15.788 38.7997 15.753 38.8945 15.718L38.8945 15.718C38.9893 15.683 39.084 15.648 39.1738 15.6079C39.2136 15.6079 39.2535 15.5879 39.2336 15.5479C38.715 15.3479 35.6231 15.0478 33.768 15.0077C29.7785 14.9277 25.8887 15.4679 22.0588 16.6083ZM43.4618 43.8752L43.4425 44.0571C43.5175 44.0195 43.5611 43.9741 43.6029 43.9307L43.6029 43.9306C43.6278 43.9047 43.6521 43.8795 43.6819 43.857C44.4798 42.8567 45.2378 41.8164 45.936 40.736C48.4493 36.8548 50.1848 32.6734 51.1622 28.152C51.4814 26.6315 51.7207 25.071 51.8604 23.5105C51.9402 22.4501 52 21.3698 52 20.3095C52 20.2694 51.995 20.2344 51.99 20.1994C51.985 20.1644 51.9801 20.1294 51.9801 20.0894C51.9003 20.036 51.8382 20.0005 51.7762 19.9649C51.7451 19.9471 51.7141 19.9293 51.6808 19.9093C50.863 19.4492 50.0451 19.009 49.1874 18.6089C47.9507 18.0287 46.7139 17.4885 45.4173 17.0884C43.8415 16.5883 42.2656 16.5482 40.6499 16.9284C36.0819 18.0287 33.1696 22.5102 34.0273 27.1517C34.506 29.7325 35.8625 31.7131 38.0766 33.1136C38.1465 33.1636 38.2213 33.2086 38.2961 33.2536L38.2961 33.2537L38.2962 33.2537C38.3709 33.2987 38.4457 33.3437 38.5155 33.3937C40.1312 34.394 41.3879 35.7144 42.2856 37.375C43.2231 39.1155 43.642 40.9961 43.5423 42.9768C43.5255 43.2785 43.4948 43.5662 43.4618 43.8752ZM33.01 53C32.7108 52.88 31.7932 52.3198 30.8158 51.6596C28.6415 50.1991 26.6268 48.5186 24.7916 46.638C22.9564 44.7573 21.3207 42.6967 19.9244 40.476C18.6079 38.4153 17.5108 36.2546 16.6331 33.9739C16.6281 33.9589 16.6231 33.9451 16.6181 33.9314C16.6032 33.8901 16.5882 33.8488 16.5732 33.7738C16.6113 33.7967 16.6407 33.8138 16.6658 33.8284C16.7064 33.852 16.7357 33.8691 16.7727 33.8938C17.4709 34.434 18.2089 34.8942 19.0068 35.2343C20.0242 35.6744 21.0814 35.9745 22.1984 36.0746C24.4525 36.2946 26.5669 35.8345 28.5617 34.7141C29.599 34.1339 30.716 33.7538 31.8929 33.5938C36.0619 33.0736 40.211 35.5544 41.5076 39.8758C42.1659 42.0965 41.9664 44.2572 40.9491 46.3579C40.9018 46.4528 40.8568 46.5454 40.8125 46.6364C40.7261 46.8142 40.6425 46.9862 40.5501 47.1581C40.4703 47.3182 40.3706 47.4782 40.231 47.5983C38.1165 49.5989 35.8026 51.3595 33.2892 52.84L33.2891 52.84L33.2891 52.8401C33.1894 52.9 33.0897 52.96 33.01 53Z" fill="url(#paint0_linear)"/>
<defs>
<linearGradient id="paint0_linear" x1="32.5" y1="0" x2="32.5" y2="65" gradientUnits="userSpaceOnUse">
<stop offset="0.0497238" stop-color="#FF8C04"/>
<stop offset="0.497238" stop-color="#7EE37C"/>
<stop offset="1" stop-color="#00C8D5"/>
</linearGradient>
</defs>
</svg>
