<svg width="65" height="65" viewBox="0 0 65 65" fill="none" xmlns="http://www.w3.org/2000/svg">
<path fill-rule="evenodd" clip-rule="evenodd" d="M32.5 0C14.5506 0 0 14.5508 0 32.5C0 50.4492 14.5506 65 32.5 65C50.4492 65 65 50.4492 65 32.5C65 14.5508 50.4492 0 32.5 0ZM41.3579 17H23.6419L14.9999 32.1235L23.6419 47.2469H41.3579L49.9999 32.1235L41.3579 17ZM34.1203 40.7654V44.0062H31.4197V41.1975C29.7993 41.1975 27.8549 40.3333 26.5586 39.037L28.395 36.4444C29.7993 37.5247 30.9876 38.0648 32.2839 38.0648C33.7962 38.0648 34.4444 37.4167 34.4444 36.2284C34.4444 33.4198 27.2067 33.4198 27.2067 28.6667C27.2067 25.858 28.9351 24.0216 31.5277 23.4815V20.4568H34.2283V23.2654C35.9567 23.4815 37.253 24.3457 38.3333 25.4259L36.1728 27.8025C35.3086 26.7222 34.4444 26.3981 33.2561 26.3981C31.9598 26.3981 31.0956 26.9383 31.0956 28.1265C31.3117 30.7191 38.6574 30.5031 38.6574 35.6883C38.6574 38.2809 37.037 40.3333 34.3364 40.8735L34.1203 40.7654Z" fill="url(#paint0_linear)"/>
<defs>
<linearGradient id="paint0_linear" x2="1" gradientUnits="userSpaceOnUse" gradientTransform="translate(32.5) scale(63.7991) rotate(90)">
<stop stop-color="#EFB823"/>
<stop offset="1" stop-color="#F6AE2D"/>
</linearGradient>
</defs>
</svg>
