<svg width="65" height="65" viewBox="0 0 65 65" fill="none" xmlns="http://www.w3.org/2000/svg">
<path fill-rule="evenodd" clip-rule="evenodd" d="M65 32.5C65 50.4493 50.4492 65 32.5 65C14.5508 65 0 50.4493 0 32.5C0 14.5507 14.5508 0 32.5 0C50.4492 0 65 14.5507 65 32.5ZM43.4761 14L53 19.6923V43.8846L43.4761 38.1923V14ZM22.5238 26.8077L13 21.1154V45.3077L22.5238 51V26.8077ZM23.4762 27.282L52.0476 44.3589L42.5239 50.0513L23.4762 38.6667V27.282ZM13.9525 20.6411L42.5239 37.718V26.3333L23.4763 14.9487L13.9525 20.6411ZM42.5239 14V25.3846L33 19.6923L42.5239 14ZM33 45.3077L23.4762 51V39.6154L33 45.3077Z" fill="url(#paint0_linear)"/>
<defs>
<linearGradient id="paint0_linear" x1="32.5" y1="0" x2="32.5" y2="65" gradientUnits="userSpaceOnUse">
<stop stop-color="#60BEFE"/>
<stop offset="1" stop-color="#2853C3"/>
</linearGradient>
</defs>
</svg>
