<svg width="65" height="65" viewBox="0 0 65 65" fill="none" xmlns="http://www.w3.org/2000/svg">
<path fill-rule="evenodd" clip-rule="evenodd" d="M32.5 0C14.5506 0 0 14.5508 0 32.5C0 50.4492 14.5506 65 32.5 65C50.4492 65 65 50.4492 65 32.5C65 14.5508 50.4492 0 32.5 0ZM47.0077 18.3758C47.3506 18.383 47.6292 18.1238 47.6215 17.7865C47.6135 17.4327 47.4237 17.2179 47.0719 17.1786C46.7581 17.1436 46.429 17.4412 46.4161 17.7466C46.4027 18.0612 46.6924 18.3691 47.0077 18.3758ZM17.777 46.3344C17.4293 46.3431 17.1582 46.6159 17.1883 46.9483C17.2198 47.2952 17.4106 47.5115 17.769 47.5312C18.0863 47.5488 18.3959 47.2412 18.3972 46.9311C18.3986 46.6071 18.1067 46.3262 17.777 46.3344ZM46.4401 47.8257V47.2286C46.4401 38.1457 46.4387 29.0628 46.4454 19.9799C46.4456 19.6503 46.3869 19.4343 46.0655 19.2481C45.3731 18.8469 45.107 18.0771 45.3183 17.3115C45.5228 16.57 46.2081 16.0192 46.9496 16.0006C47.758 15.9803 48.4764 16.4872 48.7214 17.2509C48.9506 17.9658 48.6952 18.8301 48.0501 19.2211C47.6891 19.4398 47.6237 19.6922 47.624 20.0683C47.6318 29.334 47.6302 38.5998 47.6297 47.8655C47.6296 48.0483 47.6368 48.2325 47.6165 48.4134C47.5751 48.7822 47.3719 48.9973 46.9869 48.9978C45.3868 49 43.7865 48.9979 42.1864 48.9994C41.7958 48.9997 41.5954 48.7569 41.418 48.4492C39.6409 45.3665 37.8566 42.288 36.0766 39.207C31.9764 32.1103 27.8765 25.0137 23.7821 17.9137C23.6312 17.6519 23.4724 17.5258 23.1449 17.5303C21.5775 17.5513 20.0096 17.5397 18.3935 17.5397C18.3831 17.726 18.3666 17.8858 18.3666 18.0455C18.3653 26.9607 18.3669 35.8758 18.3594 44.7909C18.3591 45.0988 18.4414 45.2778 18.7204 45.4387C19.4093 45.836 19.7075 46.6537 19.4929 47.4111C19.2886 48.1318 18.6181 48.6773 17.8975 48.7091C17.1062 48.7439 16.3454 48.2334 16.0905 47.4964C15.8511 46.8041 16.0931 45.894 16.7398 45.5147C17.1784 45.2574 17.2203 44.9502 17.22 44.5191C17.2114 35.4363 17.2134 26.3533 17.2135 17.2705C17.2136 16.4781 17.3411 16.3513 18.144 16.351C19.9423 16.3504 21.7407 16.362 23.5388 16.3436C24.0411 16.3384 24.3499 16.5276 24.6004 16.962C30.4651 27.1312 36.3409 37.2941 42.206 47.4631C42.3633 47.7358 42.53 47.8385 42.8446 47.8333C44.0158 47.8141 45.1875 47.8257 46.4401 47.8257ZM36.6505 45.8389C36.9922 45.832 37.2716 45.5554 37.2451 45.226C37.2168 44.8745 36.9979 44.671 36.6609 44.6329C36.3535 44.5983 36.0481 44.9211 36.0481 45.2366C36.048 45.581 36.3128 45.8458 36.6505 45.8389ZM24.1837 37.3072C24.5413 37.3102 24.8069 37.0622 24.8085 36.7235C24.8101 36.4082 24.5022 36.0846 24.1949 36.1139C23.8591 36.1458 23.6232 36.3127 23.6098 36.6876C23.5968 37.0488 23.8348 37.3042 24.1837 37.3072ZM21.5381 21.495V47.7906H23.552C23.5608 47.6295 23.5759 47.4816 23.576 47.3337C23.5774 44.4987 23.574 41.6637 23.5817 38.8287C23.5826 38.5461 23.5202 38.3676 23.2548 38.2049C22.5448 37.7695 22.2689 37.0206 22.4841 36.2762C22.714 35.481 23.3709 34.9458 24.1348 34.9312C24.9104 34.9164 25.6497 35.4344 25.8857 36.1579C26.1315 36.9115 25.8662 37.7798 25.1712 38.1962C24.821 38.406 24.7596 38.6402 24.7608 39.0001C24.7718 42.018 24.7675 45.0359 24.7668 48.0538C24.7666 48.8732 24.6373 48.9991 23.8059 48.9992C22.9066 48.9993 22.0074 49.0013 21.1082 48.9984C20.5434 48.9967 20.3325 48.7941 20.3324 48.2354C20.3306 39.1818 20.3307 30.1281 20.3321 21.0744C20.3322 20.487 20.5374 20.2889 21.1335 20.284C21.5906 20.2802 22.0491 20.3032 22.5049 20.2775C22.9379 20.2532 23.2061 20.4172 23.4227 20.7992C25.876 25.1255 28.345 29.4426 30.8051 33.765C32.5725 36.8704 34.3358 39.978 36.0904 43.0907C36.2403 43.3566 36.394 43.468 36.7167 43.4808C37.6605 43.518 38.3851 44.2695 38.4226 45.1806C38.4576 46.0307 37.8122 46.8463 36.9896 46.9916C36.0926 47.1501 35.211 46.6329 34.9403 45.7804C34.7897 45.3064 34.8227 44.8261 35.0907 44.417C35.2787 44.1302 35.2192 43.9346 35.0723 43.677C32.9635 39.9767 30.8645 36.271 28.7584 32.5693C26.7504 29.0399 24.7201 25.5228 22.743 21.9762C22.4365 21.4264 22.0581 21.4442 21.5381 21.495ZM29.8493 18.3426C29.8435 18.0173 29.5378 17.699 29.2334 17.7437C28.9064 17.7917 28.6673 17.9684 28.6554 18.3371C28.6442 18.68 28.9119 18.951 29.2489 18.9504C29.592 18.9499 29.8553 18.6833 29.8493 18.3426ZM40.5498 25.9513C40.874 25.963 41.1828 25.6845 41.1778 25.3601C41.1725 25.0091 40.9942 24.7857 40.6313 24.7535C40.2755 24.7219 39.9988 24.9647 39.9831 25.3042C39.9675 25.6411 40.2291 25.9398 40.5498 25.9513ZM43.1992 17.5547H41.1821C41.1821 17.7192 41.1821 17.8792 41.1821 18.0394C41.1821 19.7614 41.1874 21.4835 41.1771 23.2055C41.1754 23.501 41.2311 23.6912 41.518 23.861C42.2404 24.2888 42.5149 25.0919 42.2717 25.8744C42.0413 26.6154 41.3466 27.1357 40.5991 27.1268C39.7929 27.1172 39.081 26.5855 38.8576 25.826C38.6426 25.0955 38.9662 24.2301 39.6788 23.8212C39.961 23.6593 39.9978 23.479 39.9969 23.2061C39.9902 21.1946 39.9924 19.183 39.9938 17.1714C39.9943 16.5499 40.1871 16.3545 40.8094 16.352C41.7542 16.3481 42.6991 16.3468 43.6439 16.3526C44.1998 16.356 44.39 16.5457 44.3901 17.0902C44.3913 26.1728 44.3896 35.2556 44.3957 44.3383C44.3959 44.684 44.3117 44.947 43.9602 45.0427C43.5716 45.1486 43.3765 44.8989 43.2092 44.6004C40.6974 40.117 38.1753 35.6394 35.6724 31.1511C33.7325 27.6722 31.8104 24.1834 29.8974 20.6897C29.6925 20.3154 29.4912 20.1164 29.0262 20.0869C28.0827 20.0271 27.3783 19.1286 27.4742 18.2245C27.5828 17.2006 28.435 16.4829 29.4176 16.5878C30.4032 16.6933 31.1254 17.544 31.0192 18.5113C30.9917 18.7608 30.9087 19.0267 30.7748 19.2361C30.6281 19.4654 30.6396 19.6311 30.7643 19.8546C34.7785 27.0508 38.7876 34.2498 42.7978 41.4482C42.9056 41.6416 43.0185 41.832 43.1992 42.1458V17.5547Z" fill="url(#paint0_linear)"/>
<defs>
<linearGradient id="paint0_linear" x2="1" gradientUnits="userSpaceOnUse" gradientTransform="translate(32.5) scale(65) rotate(90)">
<stop stop-color="#00E8C5"/>
<stop offset="1" stop-color="#00BBD3"/>
</linearGradient>
</defs>
</svg>
