<svg width="65" height="65" viewBox="0 0 65 65" fill="none" xmlns="http://www.w3.org/2000/svg">
<path fill-rule="evenodd" clip-rule="evenodd" d="M0 32.5C0 14.5508 14.5505 0 32.5 0C50.4492 0 65 14.5508 65 32.5C65 50.4492 50.4492 65 32.5 65C14.5505 65 0 50.4492 0 32.5ZM51.7501 25.2427C51.7512 30.0791 51.7512 34.9158 51.7501 39.7527C51.774 40.2771 51.4943 40.7944 51.0619 41.0859C45.3209 45.2849 39.5778 49.4819 33.8325 53.677C33.2676 54.1333 32.4091 54.0964 31.8615 53.6282C26.1412 49.4458 20.4198 45.2644 14.6973 41.0837C14.2668 40.7888 13.9949 40.2805 14.0023 39.7566C13.999 34.9219 13.999 30.0867 14.0023 25.251C13.9999 24.7222 14.2577 24.2258 14.6919 23.9241L31.8604 11.3767C32.076 11.2146 32.3181 11.0806 32.5867 11.0278C33.0262 10.9434 33.481 11.0532 33.8336 11.3289C39.5973 15.5413 45.361 19.7532 51.1245 23.9644C51.5214 24.2561 51.7697 24.748 51.7501 25.2427ZM30.8827 14.4897C30.9091 14.46 30.9354 14.4272 30.9624 14.3936C31.0913 14.2339 31.2347 14.0557 31.4552 14.0852C31.7637 14.0869 32.0725 14.0859 32.3815 14.0847L32.4476 14.0845C33.0251 14.082 33.603 14.0798 34.1798 14.095C34.2921 14.1648 34.3856 14.2593 34.4789 14.3535C34.5161 14.3914 34.5533 14.429 34.5917 14.4648C34.5884 15.4014 34.5884 16.3381 34.5917 17.2751L34.4106 17.2781C34.2007 17.2822 33.9905 17.2861 33.7808 17.2717L33.767 17.2161L33.7162 17.0095C33.7162 16.7776 33.7229 16.5454 33.7296 16.3135L33.73 16.3013C33.7435 15.8376 33.7571 15.3743 33.7184 14.9116C33.0515 14.9126 32.385 14.9126 31.7189 14.9116C31.7166 15.074 31.7153 15.2373 31.7141 15.4001L31.7124 15.6184C31.4316 15.6184 31.1498 15.6184 30.8678 15.6162C30.8684 15.4998 30.8649 15.3826 30.8612 15.2654C30.8533 15.0059 30.8453 14.7456 30.8827 14.4897ZM29.5415 15.6282C29.2336 15.6206 28.9268 15.6206 28.62 15.6326C28.6278 16.1008 28.6226 16.5701 28.6173 17.0391V17.0432C28.6082 17.8694 28.599 18.6953 28.661 19.5173C28.9529 19.5193 29.2455 19.5193 29.5383 19.5129C29.5504 18.2925 29.5464 17.0718 29.5422 15.8501L29.5415 15.6282ZM36.4247 17.0244C37.2417 17.0137 38.0575 17.0168 38.874 17.0222C38.8783 17.3215 38.8783 17.6199 38.8751 17.9189C38.0581 17.9275 37.2411 17.9307 36.4241 17.9167C36.421 17.6196 36.421 17.3206 36.4247 17.0244ZM32.3582 17.4592H32.3286C32.0424 17.4592 31.7565 17.4592 31.4706 17.4658C31.812 18.0825 32.1591 18.6965 32.5186 19.3035L32.5773 19.3032C32.8604 19.3025 33.1442 19.3015 33.4271 19.2883C33.2651 18.8818 33.0472 18.5037 32.8292 18.1252L32.828 18.123L32.8247 18.1174L32.8209 18.1108C32.6969 17.8953 32.573 17.6799 32.4596 17.4592H32.3582ZM34.8357 18.5447C35.1208 18.5381 35.4059 18.5393 35.6924 18.5435C36.0399 19.0825 36.3832 19.6245 36.7263 20.1665L36.7554 20.2124L36.7721 20.2388L36.7889 20.2654C37.1917 20.9009 37.5945 21.5364 38.0049 22.167L38.0045 22.4436C38.0043 22.7168 38.004 22.9902 37.9984 23.2634C37.9139 23.2483 37.7469 23.219 37.6635 23.2051C37.3149 22.6858 36.9812 22.1565 36.6476 21.6272L36.6461 21.6248L36.6266 21.5938C36.3322 21.1262 36.0378 20.6589 35.7336 20.1985C35.7283 20.7573 35.729 21.3164 35.7299 21.8755C35.7307 22.4346 35.7314 22.9937 35.7261 23.5525C35.429 23.5579 35.1312 23.5579 34.8328 23.5525L34.8317 23.0396C34.8284 21.5415 34.8252 20.043 34.8357 18.5447ZM39.2909 19.2244C38.9873 19.2156 38.6826 19.2156 38.379 19.2222C38.3776 19.511 38.3779 19.7991 38.3801 20.0864C38.6826 20.0918 38.9873 20.0918 39.2909 20.0842C39.293 19.7979 39.293 19.5105 39.2909 19.2244ZM23.3702 19.5049C23.6097 19.5007 23.8495 19.5017 24.089 19.5039C24.7286 19.4609 25.3672 19.4736 26.0071 19.5103C26.0092 19.7878 26.0082 20.0667 26.0049 20.3442C25.6144 20.5786 25.2302 20.8237 24.8461 21.0688L24.8279 21.0806L24.8217 21.0845C24.2834 21.428 23.7454 21.7712 23.1903 22.0857C22.9705 22.0022 22.7913 21.8469 22.6139 21.6934C22.563 21.6492 22.5121 21.6052 22.4606 21.563C22.7113 21.4102 22.9598 21.2542 23.2084 21.0981L23.2137 21.0947C23.5859 20.8611 23.9581 20.6274 24.3373 20.405C24.0885 20.3923 23.839 20.3909 23.59 20.3894L23.3735 20.3877C23.368 20.0928 23.3669 19.7986 23.3702 19.5049ZM31.8197 19.8347C31.5269 19.8271 31.2321 19.8262 30.9382 19.8347C30.932 20.1296 30.9324 20.4246 30.9393 20.7195C31.2332 20.7275 31.527 20.7271 31.8208 20.7183C31.8273 20.4233 31.8273 20.1296 31.8197 19.8347ZM26.625 20.6978C26.819 20.9917 27.0105 21.2874 27.202 21.583C27.4753 22.0049 27.7487 22.4265 28.0289 22.8435C28.2234 22.5503 28.4152 22.2551 28.6067 21.96L28.6117 21.9524L28.6315 21.9219L28.6514 21.8911L28.6615 21.8755L28.6687 21.8645C28.9254 21.469 29.182 21.0737 29.4449 20.6826C29.4449 20.8196 29.4476 20.9568 29.4503 21.0945L29.4507 21.1123C29.4574 21.4438 29.464 21.7764 29.4353 22.1062C29.1459 22.6023 28.8262 23.0803 28.5066 23.5581C28.345 23.7998 28.1835 24.0415 28.0258 24.2854C27.8716 24.0469 27.7142 23.8098 27.5569 23.573L27.5402 23.5479L27.5365 23.5422C27.2294 23.0801 26.9222 22.6177 26.6368 22.1431C26.6012 21.7986 26.6095 21.4512 26.6178 21.1045C26.6211 20.9688 26.6244 20.8333 26.625 20.6978ZM43.8922 20.8191C42.4795 20.812 41.0668 20.8115 39.6541 20.8181C39.652 21.1047 39.653 21.3928 39.6541 21.6802C41.0671 21.6829 42.4795 21.6824 43.8911 21.6792C43.8933 21.3928 43.8933 21.1052 43.8922 20.8191ZM32.1763 21.937C32.4602 21.9316 32.7454 21.9316 33.0306 21.9348C33.0385 22.6177 33.0374 23.301 33.0363 23.9846V24.0122C33.0353 24.5737 33.0343 25.1355 33.0382 25.6973C32.906 25.8232 32.7748 25.9512 32.6459 26.0791C32.0665 26.0854 31.4874 26.0847 30.9084 26.0837C30.5088 26.0833 30.1091 26.0828 29.7097 26.0845L29.6239 26.0029C29.5231 25.9077 29.4229 25.813 29.3324 25.7092C29.2976 25.4421 29.3049 25.1711 29.3123 24.9011C29.3154 24.7832 29.3186 24.6653 29.3182 24.5481C29.5914 24.5461 29.8646 24.5461 30.1378 24.5481C30.1453 24.7695 30.1443 24.9905 30.141 25.2117C30.5774 25.261 31.0159 25.2554 31.4547 25.2498L31.4734 25.2495C31.7054 25.2466 31.9376 25.2439 32.1696 25.2495C32.1708 24.8481 32.1702 24.4463 32.1696 24.0447C32.1685 23.3418 32.1674 22.6387 32.1763 21.937ZM45.8341 22.8015C45.8253 23.7485 45.8253 24.6951 45.8341 25.6411C46.1301 25.6462 46.426 25.6472 46.722 25.6423C46.7325 24.6946 46.7329 23.7476 46.7231 22.8015C46.426 22.7942 46.1301 22.7952 45.8341 22.8015ZM41.6156 23.5166C41.7916 23.5149 41.968 23.5051 42.1444 23.4954C42.5281 23.4741 42.9117 23.4529 43.2926 23.5146C43.4791 24.1228 43.6521 24.7356 43.8251 25.3486L43.8278 25.3579C43.9916 25.9385 44.1556 26.5195 44.3313 27.0967C44.045 27.0989 43.7576 27.0989 43.4712 27.0989C43.3479 26.6826 43.2328 26.2639 43.1177 25.8452L43.1145 25.8337C42.9756 25.3284 42.8365 24.8232 42.683 24.322C42.5259 24.3242 42.3687 24.3264 42.2113 24.3274C42.0868 24.823 41.9482 25.3142 41.8097 25.8052L41.8082 25.8103L41.8068 25.8154L41.8053 25.8206L41.8038 25.8257L41.8024 25.8308L41.8009 25.8359L41.7994 25.8411C41.6813 26.2593 41.5632 26.6772 41.4535 27.0977C41.165 27.0986 40.8767 27.0984 40.5883 27.0964C40.8583 26.1919 41.1155 25.283 41.3726 24.3743L41.6156 23.5166ZM21.5813 23.9712C20.2933 23.9595 19.0042 23.9626 17.7161 23.9702C17.7107 24.2654 17.7107 24.563 17.7148 24.8591C19.004 24.8667 20.2924 24.8699 21.5823 24.8582C21.5887 24.562 21.5887 24.2673 21.5813 23.9712ZM22.1886 23.9712C22.4814 23.969 22.774 23.968 23.068 23.9702C23.0745 24.2673 23.0745 24.5652 23.068 24.8625C22.774 24.8657 22.4814 24.8645 22.1886 24.8613C22.1852 24.5642 22.1852 24.2681 22.1886 23.9712ZM26.2891 24.0093C26.0017 24.0061 25.7133 24.0051 25.426 24.0073C25.4108 24.5745 25.4142 25.1421 25.4176 25.709L25.4196 26.0771C25.71 26.0791 26.0016 26.0781 26.2933 26.0759L26.2938 25.5596C26.2947 25.0425 26.2955 24.5254 26.2891 24.0093ZM48.6882 24.6199H48.7257L48.9348 24.6194C49.0352 24.8052 49.142 24.988 49.249 25.1711L49.2543 25.1802C49.4951 25.5918 49.7361 26.0039 49.9041 26.4507C49.6107 26.4612 49.3153 26.4624 49.0214 26.4636H48.9988C48.8508 26.2107 48.7059 25.9556 48.5613 25.7007L48.548 25.6772L48.5347 25.6538L48.5187 25.6257C48.3286 25.291 48.1384 24.9563 47.9418 24.6257C48.1903 24.6208 48.4395 24.6204 48.6882 24.6199ZM35.7653 25.3628C35.4786 25.3599 35.1919 25.3596 34.9053 25.3618C34.9032 25.969 34.9033 26.5767 34.9034 27.1841L34.9033 28.1958C35.1917 28.1958 35.4791 28.1948 35.7675 28.1926L35.7682 27.3872C35.769 26.7124 35.7699 26.0376 35.7653 25.3628ZM37.9297 26.5093C37.9264 26.2144 37.9268 25.9187 37.9308 25.6223C38.2202 25.6179 38.5114 25.6179 38.8014 25.6255L38.8015 25.6453V25.6653C38.8024 25.947 38.8032 26.2285 38.7992 26.5103C38.5103 26.5112 38.2197 26.5103 37.9297 26.5093ZM22.9185 26.9092L22.9128 26.9128L22.91 26.9146L22.9072 26.9163L22.9044 26.918L22.9016 26.9199C22.4504 27.2102 21.9994 27.5007 21.5662 27.8167C21.9701 28.1045 22.387 28.374 22.804 28.6436C23.0977 28.8335 23.3914 29.0234 23.6805 29.2197C23.8052 29.2192 23.9298 29.2195 24.0543 29.2197L24.1478 29.22H24.1831C24.5001 29.2205 24.8173 29.2209 25.1344 29.2153C24.8229 29.0164 24.5132 28.8142 24.2034 28.6118C23.7972 28.3467 23.3909 28.0815 22.98 27.8232C23.3143 27.5886 23.6578 27.3679 24.0012 27.1475C24.3816 26.9031 24.7618 26.6584 25.13 26.3953C24.876 26.3914 24.6224 26.3914 24.3688 26.3914C24.1514 26.3914 23.9338 26.3914 23.7162 26.3889C23.4529 26.5659 23.1857 26.7375 22.9185 26.9092ZM45.8352 26.9939C46.1323 26.9875 46.4293 26.9863 46.7275 26.9929C46.735 27.29 46.7339 27.5859 46.7253 27.8831C46.4293 27.8894 46.1323 27.8884 45.8363 27.8818C45.8298 27.5859 45.8295 27.29 45.8352 26.9939ZM19.7893 27.1174C18.3038 27.1035 16.8176 27.1067 15.3341 27.1152C15.3295 27.4131 15.3292 27.7104 15.3335 28.0076C15.8851 28.0139 16.4363 28.0132 16.9873 28.0122C17.3678 28.0117 17.7482 28.0112 18.1285 28.0129C17.861 28.1997 17.5837 28.3728 17.3065 28.5459L17.2964 28.5522L17.0321 28.7178C17.1088 28.7725 17.1827 28.833 17.2568 28.894C17.4208 29.0288 17.5861 29.1646 17.7845 29.2371C18.4319 28.8538 19.0623 28.4409 19.6919 28.0286L19.696 28.0259L19.7001 28.0232L19.7041 28.0205L19.7081 28.0178L19.7936 27.9619L19.7928 27.7446C19.7922 27.5354 19.7916 27.3259 19.7893 27.1174ZM28.0367 27.9761C28.5786 27.9783 29.1204 27.9775 29.6621 27.9768H29.7278C30.4487 27.9758 31.1696 27.9749 31.89 27.9814C31.9214 28.2737 31.9174 28.5686 31.8782 28.8599C31.0651 28.8633 30.2526 28.8628 29.4402 28.8623C28.9731 28.8618 28.5061 28.8616 28.0391 28.8621C28.0369 28.5659 28.036 28.2705 28.0367 27.9761ZM33.6552 27.9861C33.3461 27.9753 33.0381 27.9753 32.7291 27.9817C32.7266 28.2722 32.7266 28.5618 32.7296 28.8523C33.0372 28.8577 33.3462 28.8577 33.6542 28.8491C33.656 28.562 33.6564 28.2744 33.6552 27.9861ZM36.7701 29.2241C36.7416 29.0078 36.8907 28.8665 37.0371 28.7278C37.0969 28.6711 37.1562 28.615 37.2028 28.5542L37.5182 28.5544C37.7904 28.5542 38.0625 28.5542 38.3347 28.5596C38.3433 28.8435 38.3433 29.1277 38.339 29.4128C38.2006 29.4153 38.0618 29.4165 37.923 29.4175L37.6224 29.4204V31.4436C38.1349 31.447 38.6472 31.4465 39.1595 31.4458C39.7563 31.4451 40.353 31.4443 40.9498 31.4502C40.953 31.7373 40.953 32.0249 40.9456 32.3101C40.1938 32.3152 39.4417 32.3147 38.6896 32.314C38.192 32.3135 37.6946 32.3132 37.1974 32.3145C37.1523 32.2556 37.0957 32.2009 37.0385 32.1458L37.0356 32.1431C36.891 32.0039 36.7435 31.8621 36.7712 31.6465C36.7657 30.8394 36.7654 30.032 36.7701 29.2241ZM41.8961 28.9563C41.5894 28.9443 41.2814 28.9443 40.9757 28.9551C40.9724 29.249 40.9724 29.5417 40.9757 29.8357C41.2825 29.8452 41.5883 29.8452 41.895 29.8345C41.899 29.5417 41.8994 29.249 41.8961 28.9563ZM43.8978 28.9551C44.7942 28.9431 45.6902 28.9451 46.5863 28.9473L46.7841 28.9478L46.9818 28.948C47.2457 28.9485 47.5098 28.949 47.7739 28.9487C47.7761 29.2468 47.7761 29.5461 47.7728 29.844L46.8845 29.8452L46.6625 29.8457C45.7413 29.8481 44.8201 29.8503 43.8989 29.8386C43.8947 29.5439 43.8943 29.2493 43.8978 28.9551ZM27.0812 29.9856L25.9954 29.9861C25.984 30.2859 25.9846 30.5864 25.9973 30.8882C26.7198 30.8892 27.4426 30.8892 28.1658 30.8882C28.1733 30.5872 28.1733 30.2861 28.1669 29.9851L27.0812 29.9856ZM30.7712 29.9861L32.0374 29.9858C32.7516 29.9861 33.4658 29.9861 34.1798 29.9841C34.5929 29.9194 35.0061 30.3481 34.9539 30.7559C34.9518 31.5906 34.9514 32.4263 34.9528 33.2627C34.8533 33.3701 34.7533 33.4768 34.6531 33.5835L34.6321 33.606L34.5149 33.731H34.3644C34.0385 33.7312 33.7133 33.7312 33.3873 33.7266C33.384 33.4399 33.3837 33.1536 33.3862 32.8679L34.0922 32.8594L34.0924 32.1094V32.0415C34.0924 31.6565 34.0924 31.2715 34.0942 30.887C33.411 30.8259 32.7245 30.8342 32.038 30.8425L32.019 30.8428C31.6029 30.8477 31.1866 30.8523 30.7712 30.8416C30.7683 30.5554 30.7683 30.2703 30.7712 29.9861ZM22.7968 30.2505L22.7632 30.2507C22.4709 31.249 22.1859 32.2498 21.901 33.2502L21.8992 33.2566L21.8973 33.2632L21.8955 33.2698L21.8937 33.2764L21.8918 33.283L21.89 33.2896L21.8882 33.2961L21.8864 33.3027L21.8845 33.3093L21.8827 33.3159L21.8809 33.3225L21.879 33.3291L21.7307 33.8503C21.9283 33.8518 22.127 33.8523 22.3259 33.8528L22.5907 33.8535C22.6897 33.4556 22.802 33.061 22.9143 32.6667L22.9155 32.6624L22.9183 32.6523L22.9211 32.6426C23.0673 32.1301 23.2134 31.6174 23.3312 31.0974L23.3331 31.0972L23.3837 31.0935C23.5245 31.083 23.6654 31.0725 23.8062 31.0637C23.9629 31.5554 24.0988 32.053 24.2346 32.551C24.3534 32.9866 24.4723 33.4224 24.6053 33.8545C24.8833 33.8525 25.1628 33.8525 25.4424 33.8525C25.2402 33.0859 25.0208 32.3242 24.8013 31.5625C24.6755 31.1262 24.5499 30.6899 24.4275 30.2529C23.8835 30.2444 23.3407 30.2473 22.7968 30.2505ZM46.9813 31.335C47.9489 31.3252 48.9177 31.3154 49.8839 31.3381C50.1279 31.4885 50.4032 31.7329 50.3501 32.0537L50.3491 32.7419C50.3481 33.2014 50.3472 33.6611 50.3501 34.1204C50.3458 34.2822 50.3473 34.4443 50.3488 34.6062C50.3502 34.7749 50.3517 34.9436 50.3468 35.1123C50.3544 35.2471 50.3398 35.3806 50.3253 35.5144C50.3107 35.6487 50.296 35.7832 50.3038 35.9189L50.0394 35.9185C49.8522 35.9182 49.6648 35.918 49.4775 35.9158C49.4792 35.2756 49.4791 34.6355 49.479 33.9951V33.8821C49.4789 33.3169 49.4788 32.752 49.4797 32.1873C49.0568 32.1755 48.6338 32.1768 48.2109 32.178C47.9584 32.1787 47.7058 32.1794 47.4532 32.1775L47.4528 32.3035C47.4521 32.4924 47.4514 32.6816 47.4479 32.8713C47.1638 32.8757 46.8798 32.877 46.5957 32.8757C46.5903 32.4951 46.5913 32.1135 46.5924 31.7329C46.7234 31.6018 46.8524 31.4692 46.9813 31.335ZM20.3474 31.3696H19.4486C19.4478 31.7598 19.4478 32.1499 19.4479 32.54V32.6123C19.4479 33.1418 19.4479 33.6716 19.4454 34.2007H20.3485L20.3483 32.9741V32.8508C20.3484 32.3572 20.3485 31.8635 20.3474 31.3696ZM16.6287 32.1589C16.9237 32.1548 17.2184 32.1633 17.5123 32.1829C17.5156 32.4626 17.5156 32.7427 17.5123 33.0232C17.2152 33.0264 16.9183 33.0273 16.6211 33.022C16.6179 32.7336 16.619 32.4463 16.6287 32.1589ZM27.1879 32.3245C27.181 33.9946 27.1814 35.6643 27.189 37.3342C27.4849 37.3416 27.7815 37.3416 28.0793 37.3386C28.0931 36.9087 28.0881 36.478 28.0831 36.0474V36.0439C28.0753 35.3616 28.0675 34.679 28.1345 34.0002C28.5338 34.6729 28.9573 35.3315 29.3807 35.9902C29.5989 36.3296 29.817 36.6689 30.032 37.0103C30.1328 37.0081 30.2347 37.0071 30.3367 37.0061C30.321 36.8604 30.3291 36.7075 30.3373 36.5542L30.3374 36.5513C30.3547 36.2266 30.3722 35.8999 30.1664 35.6345L29.6379 34.8079L29.6346 34.8027L29.6313 34.7976L29.6281 34.7925L29.6248 34.7874L29.6216 34.7822C29.0989 33.9658 28.5764 33.1497 28.0662 32.3267C27.7733 32.3203 27.4807 32.3203 27.1879 32.3245ZM31.0925 32.9666C31.3907 32.9602 31.6888 32.9595 31.9869 32.9644C31.9913 33.6941 31.9902 34.4238 31.988 35.1533C31.6888 35.1587 31.3906 35.1587 31.0916 35.1514C31.0865 34.4229 31.0854 33.6941 31.0925 32.9666ZM37.3751 33.9424C37.0823 33.9392 36.7897 33.9404 36.4979 33.9424C36.4946 34.24 36.4946 34.5366 36.4979 34.8325C36.79 34.8345 37.0825 34.8347 37.3751 34.8337C37.3806 34.5366 37.3806 34.2395 37.3751 33.9424ZM39.3419 33.9814C40.0806 33.9719 40.8193 33.9744 41.5587 33.9768L42.0688 33.9783C42.1056 34.2439 42.1283 34.5139 42.1023 34.783C42.0387 34.9121 41.9093 34.9077 41.7839 34.9031C41.74 34.9016 41.6965 34.9001 41.6566 34.9043C41.3719 34.896 41.087 34.8997 40.8022 34.9036C40.3126 34.9102 39.8236 34.9165 39.3376 34.8613C39.3323 34.5669 39.3323 34.2744 39.3419 33.9814ZM43.1763 34.1038L43.0077 34.1072C42.9979 35.1414 42.9979 36.1753 43.0077 37.209C43.303 37.2153 43.5986 37.2156 43.8945 37.2102L43.8986 36.6011C43.9047 35.7766 43.9106 34.9517 43.8881 34.1287C43.6522 34.092 43.4137 34.0979 43.1763 34.1038ZM34.9053 34.7144C35.1915 34.7134 35.4789 34.7124 35.7653 34.7156C35.7686 35.0105 35.7697 35.3064 35.7653 35.6035C35.4786 35.6079 35.192 35.6079 34.9053 35.6035C34.9032 35.3076 34.9032 35.0105 34.9053 34.7144ZM23.0352 35.2927H23.0291C22.3916 35.2849 21.754 35.2771 21.1205 35.3455C21.1184 35.6362 21.1184 35.9268 21.1259 36.217C21.9529 36.2239 22.7798 36.2229 23.6072 36.2219C24.0682 36.2212 24.5294 36.2207 24.991 36.2214C24.9932 35.9233 24.9943 35.6243 24.9899 35.3259C24.7271 35.2988 24.4628 35.2871 24.1985 35.2903C23.8113 35.3025 23.4232 35.2976 23.0352 35.2927ZM15.3352 36.0044L15.4177 35.9238L15.757 35.5935C16.13 35.5916 16.5028 35.5903 16.875 35.5979C16.8793 35.8799 16.8793 36.1628 16.8772 36.4446C16.7075 36.4487 16.5383 36.4502 16.369 36.4517L16.3271 36.4521L16.2856 36.4524L16.1823 36.4531C16.1847 36.7549 16.1843 37.0566 16.1838 37.3584C16.1833 37.7288 16.1829 38.0994 16.1876 38.47C16.5941 38.4712 17.0006 38.4705 17.4071 38.4697C18.099 38.4685 18.7908 38.4673 19.4825 38.4753C19.4879 38.7529 19.4879 39.0293 19.4858 39.3069C19.2136 39.3081 18.9403 39.3091 18.6688 39.3091C18.2805 39.3052 17.8921 39.3069 17.5037 39.3088C16.9169 39.3115 16.33 39.3142 15.7437 39.2974C15.5811 39.2051 15.4172 39.0532 15.3435 38.8811C15.3274 38.2751 15.3304 37.6685 15.3336 37.0618L15.3337 37.0288C15.3354 36.6873 15.337 36.3457 15.3352 36.0044ZM38.5647 36.1536C38.4139 36.2878 38.2665 36.4258 38.12 36.5635L38.1198 36.6562C38.1187 37.0151 38.1176 37.3735 38.1261 37.7322C38.4103 37.7332 38.6954 37.7332 38.9805 37.729C38.9858 37.4883 38.9869 37.2476 38.9858 37.0068L39.9827 37.0073C40.3151 37.0073 40.6476 37.0073 40.9808 37.0081C40.9734 37.6233 40.975 38.2378 40.9766 38.8528L40.9777 39.3779C41.266 39.3865 41.5555 39.3877 41.845 39.3855C41.8453 38.4463 41.8451 37.5066 41.8439 36.5667C41.7494 36.4775 41.6552 36.3875 41.561 36.2974L41.4139 36.1567C41.0502 36.156 40.6865 36.1562 40.3228 36.1567C39.7367 36.1575 39.1506 36.1582 38.5647 36.1536ZM46.9457 36.4827L46.9683 36.4685L47.3973 36.1978C47.6511 36.3669 47.9005 36.5447 48.1477 36.7227C47.3833 37.21 46.6194 37.696 45.8558 38.1809C46.4712 38.1875 47.0865 38.1865 47.702 38.1855C48.209 38.1848 48.7162 38.1841 49.2234 38.1875C49.2256 38.4856 49.2256 38.7849 49.2223 39.083C47.5548 39.0884 45.8872 39.0886 44.2198 39.084C44.2153 38.7964 44.2153 38.5093 44.2174 38.2231C45.1141 37.6389 46.0187 37.0679 46.9229 36.4971L46.9457 36.4827ZM33.8988 37.3621C33.3612 37.7014 32.8236 38.041 32.2944 38.3933L32.2948 38.4351C32.2968 38.7056 32.2987 38.9763 32.3394 39.2439L33.7786 39.2449C34.9688 39.2463 36.1588 39.2478 37.349 39.2407C37.3575 38.9338 37.3575 38.626 37.35 38.3193C36.8311 38.3127 36.312 38.314 35.7931 38.3152H35.7573C35.1725 38.3164 34.5878 38.3176 34.0031 38.3074C34.3124 38.1016 34.6272 37.9041 34.9418 37.7068L34.9486 37.7024L34.9554 37.698L34.9623 37.6938L34.9788 37.6836C35.4093 37.4131 35.8395 37.1428 36.255 36.8503C36.0665 36.7275 35.8822 36.5994 35.6978 36.4709L35.4993 36.3333C34.9713 36.6846 34.4351 37.0234 33.8988 37.3621ZM21.3201 37.6343L21.5071 37.9202L21.5306 37.9563C21.9247 38.5583 22.3187 39.1606 22.7079 39.7646C22.9657 39.3967 23.2092 39.019 23.4528 38.6414C23.6743 38.2979 23.8959 37.9543 24.1282 37.6179C24.134 37.9021 24.1337 38.1865 24.1333 38.4709V38.5054C24.1332 38.6882 24.1331 38.8708 24.1346 39.0535C23.9315 39.3511 23.7354 39.6538 23.5397 39.9558L23.5355 39.9622L23.5315 39.9685L23.5228 39.9819C23.2563 40.394 22.9897 40.8059 22.7057 41.2056C22.5867 41.0239 22.4686 40.8418 22.3507 40.6594L22.2971 40.5769C21.9752 40.0791 21.6532 39.5813 21.3147 39.0947L21.3146 39.0779C21.3098 38.5967 21.3051 38.1145 21.3201 37.6343ZM26.4109 38.5449C26.3937 38.8477 26.3948 39.1511 26.4055 39.4546C26.7 39.458 26.9938 39.4568 27.2871 39.4546C27.2942 39.1584 27.2946 38.8625 27.2882 38.5667C26.9963 38.543 26.7026 38.5417 26.4109 38.5449ZM30.5392 39.8928C30.8352 39.8896 31.1321 39.8887 31.4282 39.8918C31.4324 40.5088 31.4319 41.126 31.4314 41.7432C31.431 42.2285 31.4307 42.7141 31.4325 43.1997C31.2222 43.2083 31.0117 43.2183 30.8014 43.2375C30.7424 43.2261 30.6317 43.2063 30.5599 43.1936L30.5325 43.1887C30.5354 42.7083 30.5348 42.2275 30.5341 41.7468C30.5332 41.1289 30.5323 40.5107 30.5392 39.8928ZM37.7196 40.5781C37.3678 40.5776 37.016 40.5771 36.6637 40.584C36.3408 41.7856 35.9916 42.9805 35.6405 44.1753C35.8481 44.1775 36.0558 44.1782 36.2639 44.179L36.5035 44.1797C36.7601 43.2544 37.0173 42.3289 37.2754 41.4028L37.3853 41.408C37.5048 41.4136 37.6241 41.4192 37.7437 41.4268C37.8536 41.8308 37.9668 42.2341 38.08 42.6372L38.0874 42.6636C38.2283 43.1658 38.369 43.668 38.5037 44.1719C38.7909 44.1794 39.0795 44.1794 39.3678 44.1782L38.3387 40.5776C38.1323 40.5789 37.9259 40.5786 37.7196 40.5781ZM24.0057 42.5728L24.4254 42.303L24.4337 42.2976C25.3544 41.7056 26.2754 41.1135 27.2092 40.542L27.4696 40.7234L27.4762 40.728L27.5018 40.7458C27.6532 40.8508 27.8044 40.9558 27.954 41.0647C27.6605 41.2473 27.3693 41.4336 27.078 41.6199L27.0402 41.644C26.5781 41.9399 26.1161 42.2356 25.6458 42.5173C26.2452 42.5288 26.8448 42.5273 27.4447 42.5256C27.9755 42.5242 28.5062 42.5229 29.0372 42.5305C29.0426 42.8276 29.0437 43.1245 29.035 43.4216L28.6559 43.4229C27.1072 43.4282 25.5585 43.4336 24.0098 43.4185C24.0013 43.1365 24.0024 42.8545 24.0057 42.5728ZM33.7225 40.7039C33.4138 40.7449 33.1025 40.7637 32.7911 40.7603C33.1427 41.3682 33.4901 41.9788 33.8333 42.5925C33.9786 42.5913 34.1243 42.5908 34.2701 42.5903L34.707 42.5881C34.5544 42.0312 34.2412 41.533 33.933 41.0425L33.9303 41.0381C33.8601 40.9265 33.7902 40.8152 33.7225 40.7039ZM45.1044 41.1277C45.4091 41.1179 45.7148 41.1179 46.0205 41.1243C46.0217 41.416 46.0217 41.708 46.0205 42.0005C45.7148 42.0081 45.4102 42.0081 45.1055 41.9951C45.1001 41.7056 45.1001 41.4172 45.1044 41.1277ZM43.4506 42.5417C43.251 42.8464 43.0515 43.1514 42.8591 43.4609C42.8418 43.4844 42.8256 43.5093 42.8093 43.5342L42.806 43.5393L42.803 43.5442L42.8005 43.5481C42.7422 43.6389 42.6825 43.7319 42.5807 43.7749C42.3007 43.3689 42.0333 42.9546 41.766 42.5403L41.7644 42.5378C41.5746 42.2437 41.3849 41.9497 41.1907 41.6587C41.1803 42.0801 41.1824 42.5022 41.1844 42.9248V42.937L41.1853 43.1018C41.3502 43.3521 41.5139 43.6028 41.6775 43.8535L41.7178 43.9153L41.7272 43.9297L41.7654 43.9883L41.7749 44.0029C42.0522 44.4275 42.3295 44.8518 42.6121 45.2734C42.7522 45.061 42.8912 44.8477 43.0302 44.6343L43.0559 44.5947C43.306 44.2102 43.5563 43.8257 43.8132 43.4458C43.8311 43.415 43.8512 43.3843 43.8715 43.3535C43.9388 43.2512 44.0081 43.1465 43.9998 43.0198C44.0106 42.5796 44.004 42.1392 43.9933 41.7002C43.8186 41.9788 43.6388 42.2539 43.459 42.5288L43.4506 42.5417ZM20.1687 42.6077C20.8229 42.5859 21.4778 42.5916 22.1328 42.5972L22.5161 42.6001L22.5199 42.7776C22.5256 43.0085 22.5314 43.2397 22.502 43.4697C21.7784 43.5049 21.0521 43.4915 20.3282 43.478L20.1698 43.4751C20.1666 43.1855 20.1666 42.8972 20.1687 42.6077ZM31.8829 44.4893C31.155 44.4878 30.4271 44.4866 29.699 44.4973C29.6949 44.7773 29.6946 45.0579 29.6979 45.3389C30.3822 45.3542 31.0674 45.3521 31.7527 45.3499H31.7805C32.1965 45.3484 32.6127 45.3472 33.0286 45.3496L33.0283 46.2109C33.0286 46.594 33.0287 46.9773 33.0275 47.3606L32.8571 47.3608H32.8503C32.6812 47.3606 32.5125 47.3604 32.3444 47.3782C32.298 47.5674 32.3024 47.7625 32.3068 47.9573L32.3069 47.9653C32.3086 48.0408 32.3103 48.1162 32.3087 48.1912C32.7103 48.2031 33.1116 48.2019 33.5127 48.1934C33.6357 48.0591 33.76 47.9265 33.8857 47.7954L33.8854 47.4612C33.8843 46.6135 33.8832 45.7664 33.8879 44.9202C33.7445 44.7751 33.6012 44.6309 33.4579 44.4875C32.9327 44.4912 32.4078 44.4902 31.8829 44.4893ZM23.6781 44.8162C23.9708 44.812 24.2639 44.8127 24.5575 44.8184C24.5618 45.1111 24.5621 45.4045 24.5586 45.6987C24.2638 45.7031 23.97 45.7034 23.6771 45.7C23.6731 45.405 23.6735 45.1104 23.6781 44.8162ZM39.8491 45.4363C39.6399 45.2683 39.4198 45.0916 39.1846 45.2898C38.7874 45.5505 38.3855 45.8035 37.9836 46.0564L37.9572 46.073C37.3683 46.4434 36.7794 46.814 36.2053 47.2073C36.2076 47.4827 36.2107 47.7603 36.2292 48.0366C37.1421 48.0442 38.0551 48.0476 38.9679 48.0347C38.9722 47.7417 38.9722 47.448 38.9701 47.1553C38.7451 47.1501 38.521 47.1477 38.2977 47.1477L37.877 47.1509C38.3525 46.821 38.8424 46.5132 39.3324 46.2056L39.3472 46.1963L39.387 46.1714C39.6262 46.021 39.8655 45.8706 40.1029 45.7175L40.1018 45.6123C40.0199 45.573 39.9365 45.5063 39.8514 45.4382L39.8491 45.4363ZM25.3252 46.103L25.6372 46.1018C26.7184 46.0977 27.8004 46.0935 28.8813 46.1062C28.8834 46.3979 28.8834 46.6899 28.8813 46.9824C27.8003 46.9983 26.72 46.9932 25.6393 46.988L25.3241 46.9866C25.3187 46.6919 25.3198 46.397 25.3252 46.103ZM29.4855 48.356C29.1514 48.3496 28.8174 48.3506 28.4835 48.354C28.6174 48.5857 28.7494 48.8188 28.8813 49.052C29.0997 49.438 29.3182 49.8242 29.5463 50.2046L29.6523 50.2039C29.9159 50.2021 30.179 50.2004 30.4429 50.186C30.2932 49.7771 30.0748 49.4011 29.8564 49.0251L29.8534 49.02C29.7261 48.8008 29.599 48.5818 29.4855 48.356ZM34.4021 49.2886C34.6938 49.2864 34.9854 49.2908 35.2759 49.3101C35.2812 49.6018 35.2791 49.8945 35.2423 50.1851C34.9637 50.1863 34.6858 50.1863 34.4086 50.1851C34.3978 49.885 34.3978 49.5869 34.4021 49.2886ZM32.3673 51.5947C32.3684 51.7932 32.3696 51.9915 32.3693 52.1899C32.6667 52.1948 32.9641 52.1951 33.2616 52.1904C33.2649 51.5229 33.2649 50.8557 33.2616 50.189C32.9688 50.1624 32.674 50.147 32.3801 50.146C32.3616 50.6287 32.3644 51.1118 32.3673 51.5947Z" fill="url(#paint0_linear)"/>
<defs>
<linearGradient id="paint0_linear" x2="1" gradientUnits="userSpaceOnUse" gradientTransform="translate(32.5) scale(65) rotate(90)">
<stop stop-color="#ACACAC"/>
<stop offset="1" stop-color="#555555"/>
</linearGradient>
</defs>
</svg>
