<svg width="65" height="65" viewBox="0 0 65 65" fill="none" xmlns="http://www.w3.org/2000/svg">
<path fill-rule="evenodd" clip-rule="evenodd" d="M32.5 65C50.4492 65 65 50.4493 65 32.5C65 14.5507 50.4492 0 32.5 0C14.5508 0 0 14.5507 0 32.5C0 50.4493 14.5508 65 32.5 65ZM23.7001 34.1857H20.5536L15.9014 26.7059V34.1857H12.7368V22.1651H15.9014L20.5446 29.645V22.1651H23.7001V34.1857ZM36.8182 28.4231C36.8182 29.5955 36.5808 30.6329 36.106 31.5356C35.6311 32.4382 34.955 33.1345 34.0774 33.6244C33.2059 34.1086 32.2112 34.3509 31.0931 34.3509C29.9752 34.3509 28.9834 34.117 28.1178 33.649C27.2523 33.1758 26.5762 32.5015 26.0894 31.6264C25.6085 30.7513 25.3561 29.7468 25.332 28.613V27.936C25.332 26.7582 25.5664 25.7207 26.0353 24.8235C26.51 23.9209 27.1863 23.2246 28.0638 22.7348C28.9474 22.2449 29.951 22 31.0751 22C32.1871 22 33.1788 22.2422 34.0503 22.7265C34.9219 23.2109 35.5981 23.9016 36.079 24.7988C36.5658 25.6904 36.8121 26.7141 36.8182 27.87V28.4231ZM33.5995 27.9195C33.5995 26.7252 33.3801 25.8198 32.9414 25.2033C32.5085 24.5814 31.8865 24.2704 31.0751 24.2704C29.4883 24.2704 28.6498 25.3602 28.5596 27.5397L28.5507 28.4231C28.5507 29.601 28.7639 30.5063 29.1908 31.1393C29.6174 31.7723 30.2516 32.0887 31.0931 32.0887C31.8926 32.0887 32.5085 31.7778 32.9414 31.1558C33.3741 30.5339 33.5935 29.6395 33.5995 28.4727V27.9195ZM48.6199 29.7028L50.1257 22.1651H53.2632L50.4773 34.1857H47.1956L45.4374 27.3333L43.7153 34.1857H40.4426L37.6477 22.1651H40.7942L42.2998 29.7028L44.103 22.1651H46.7898L48.6199 29.7028ZM18.5861 41.9205H16.4857V46.8122H14.7987V41.9205H12.7368V40.8019H18.5861V41.9205ZM27.3911 43.9308C27.3911 44.517 27.2645 45.0358 27.0114 45.4871C26.7583 45.9384 26.3977 46.2866 25.9299 46.5315C25.4653 46.7736 24.9351 46.8947 24.3391 46.8947C23.7432 46.8947 23.2145 46.7778 22.7531 46.5438C22.2916 46.3072 21.9312 45.9701 21.6716 45.5325C21.4153 45.0949 21.2808 44.5927 21.2679 44.0258V43.6873C21.2679 43.0984 21.3929 42.5797 21.6428 42.131C21.896 41.6797 22.2563 41.3316 22.7242 41.0867C23.1952 40.8417 23.7303 40.7193 24.3296 40.7193C24.9222 40.7193 25.4509 40.8404 25.9155 41.0826C26.3802 41.3247 26.7406 41.6701 26.9969 42.1187C27.2565 42.5645 27.3879 43.0764 27.3911 43.6543V43.9308ZM25.6753 43.679C25.6753 43.0818 25.5583 42.6292 25.3243 42.3209C25.0938 42.0099 24.7621 41.8545 24.3296 41.8545C23.4836 41.8545 23.0366 42.3994 22.9885 43.4891L22.9838 43.9308C22.9838 44.5198 23.0975 44.9725 23.325 45.2889C23.5525 45.6054 23.8905 45.7637 24.3391 45.7637C24.7653 45.7637 25.0938 45.6082 25.3243 45.2972C25.5551 44.9862 25.6721 44.5391 25.6753 43.9556V43.679ZM33.0913 44.5748L32.3992 45.2271V46.8122H30.7122V40.8019H32.3992V43.452L32.9856 42.6884L34.4948 40.8019H36.5807L34.2159 43.4603L36.5807 46.8122H34.5812L33.0913 44.5748ZM43.7997 44.2652H41.1466V45.6976H44.2803V46.8122H39.4596V40.8019H44.2898V41.9205H41.1466V43.1878H43.7997V44.2652ZM53.2632 46.8122H51.5858L49.1057 43.0723V46.8122H47.4187V40.8019H49.1057L51.5809 44.5418V40.8019H53.2632V46.8122Z" fill="url(#paint0_linear)"/>
<defs>
<linearGradient id="paint0_linear" x2="1" gradientUnits="userSpaceOnUse" gradientTransform="translate(63.2891) scale(63.2264 65) rotate(90)">
<stop stop-color="#3BEE81"/>
<stop offset="1" stop-color="#00AD44"/>
</linearGradient>
</defs>
</svg>
