<svg width="65" height="65" viewBox="0 0 65 65" fill="none" xmlns="http://www.w3.org/2000/svg">
<path fill-rule="evenodd" clip-rule="evenodd" d="M65 32.5C65 50.4493 50.4493 65 32.5 65C14.5507 65 0 50.4493 0 32.5C0 14.5507 14.5507 0 32.5 0C50.4493 0 65 14.5507 65 32.5ZM13.0965 29.1129H9V40.8499H10.9292V38.8274H13.0965C13.7302 38.8274 14.3577 38.7016 14.9431 38.4572C15.5285 38.2129 16.0604 37.8548 16.5084 37.4033C16.9564 36.9518 17.3117 36.4159 17.554 35.826C17.7963 35.2362 17.9209 34.6041 17.9206 33.9657C17.9188 32.6781 17.4098 31.4438 16.5053 30.5339C15.6008 29.624 14.3748 29.1129 13.0965 29.1129ZM15.8821 34.0009C15.8821 34.8181 15.5599 35.6018 14.9863 36.1797C14.4126 36.7575 13.6346 37.0821 12.8234 37.0821H10.9838V30.9044H12.8147C13.6259 30.9044 14.4039 31.229 14.9775 31.8068C15.5511 32.3847 15.8734 33.1684 15.8734 33.9855L15.8821 34.0009ZM26.4785 29.1195L26.4784 36.0917C26.4784 36.8505 26.1792 37.5783 25.6466 38.1148C25.1139 38.6514 24.3915 38.9528 23.6382 38.9528C22.8849 38.9528 22.1625 38.6514 21.6298 38.1148C21.0972 37.5783 20.7979 36.8505 20.7979 36.0917L20.798 29.1195H19.0326L19.0326 36.2018C19.0326 37.4345 19.5188 38.6168 20.3841 39.4885C21.2495 40.3602 22.4231 40.8499 23.6469 40.8499C24.8702 40.8488 26.0429 40.3586 26.9077 39.4871C27.7724 38.6156 28.2585 37.434 28.2591 36.2018L28.2591 29.1195H26.4785ZM31.7766 32.2557L38.9319 40.8499H40.6797V29.1195H38.9406V37.87L31.9099 29.1195H30.0004V40.8499H31.7766V32.2557ZM54.007 29.1195H55.7833V40.8521H54.007V29.1195ZM47.0091 29.1195H43.2185V40.8499H47.0091C48.5533 40.8499 50.0343 40.232 51.1262 39.132C52.2182 38.0321 52.8316 36.5403 52.8316 34.9847C52.8316 33.4292 52.2182 31.9373 51.1262 30.8374C50.0343 29.7375 48.5533 29.1195 47.0091 29.1195ZM50.8937 35.2818C50.8937 36.2875 50.4971 37.2521 49.7911 37.9632C49.0852 38.6743 48.1277 39.0738 47.1293 39.0738H45.0668V30.9836H47.1293C47.6237 30.9833 48.1133 31.0812 48.5702 31.2717C49.027 31.4621 49.4421 31.7414 49.7918 32.0936C50.1414 32.4458 50.4187 32.864 50.6077 33.3242C50.7968 33.7844 50.894 34.2776 50.8937 34.7756V35.2818ZM53.8162 26.3842L51.8357 28.3793L52.6406 29.19L54.6211 27.195L53.8162 26.3842ZM54.6222 24.997L52.6415 23.002L51.8368 23.8128L53.8173 25.8078L54.6222 24.997ZM56.0002 25.8058L57.9807 23.811L57.1758 23L55.1953 24.995L56.0002 25.8058ZM55.1942 27.197L57.1749 29.192L57.9796 28.3812L55.9991 26.3862L55.1942 27.197ZM54.088 26.0827L54.8929 26.8935L55.6978 26.0827L54.8929 25.2719L54.088 26.0827Z" fill="url(#paint0_linear)"/>
<defs>
<linearGradient id="paint0_linear" x1="32.5" y1="0" x2="32.5" y2="65" gradientUnits="userSpaceOnUse">
<stop stop-color="#6562F5"/>
<stop offset="1" stop-color="#8785FF"/>
</linearGradient>
</defs>
</svg>
