<svg width="65" height="65" viewBox="0 0 65 65" fill="none" xmlns="http://www.w3.org/2000/svg">
<path d="M32.5211 61.0582C48.32 61.0582 61.1274 48.2507 61.1274 32.4519C61.1274 16.653 48.32 3.84552 32.5211 3.84552C16.7223 3.84552 3.91479 16.653 3.91479 32.4519C3.91479 48.2507 16.7223 61.0582 32.5211 61.0582Z" fill="#1E1E1E"/>
<path d="M28.7711 30.8973L30.9666 28.7019L19.3166 17.052L17.1212 19.2474L28.7711 30.8973Z" fill="white"/>
<path d="M45.6986 47.8243L47.894 45.6289L36.2441 33.979L34.0487 36.1744L45.6986 47.8243Z" fill="white"/>
<path d="M32.5228 34.6485L34.7183 32.4531L32.5199 30.2547L30.3245 32.4501L32.5228 34.6485Z" fill="white"/>
<path d="M34.0756 28.787L36.271 30.9824L47.9209 19.3325L45.7255 17.1371L34.0756 28.787Z" fill="white"/>
<path d="M17.2054 45.6567L19.4009 47.8522L31.0508 36.2022L28.8554 34.0068L17.2054 45.6567Z" fill="white"/>
</svg>
