<svg width="65" height="65" viewBox="0 0 65 65" fill="none" xmlns="http://www.w3.org/2000/svg">
<path fill-rule="evenodd" clip-rule="evenodd" d="M32.5 65C50.4492 65 65 50.4493 65 32.5C65 14.5507 50.4492 0 32.5 0C14.5508 0 0 14.5507 0 32.5C0 50.4493 14.5508 65 32.5 65ZM33 45.1132L29.2738 40.0639L29.2307 50.8442L22.64 47.3715L22.7908 24.6818L33.8616 39.6165L43.8339 45.3475L47 42.6631V14.6685L33.0646 8L33.2153 24.3196L36.5107 28.8149L36.8123 13.9441L43.0369 17.1398V40.8522L35.9939 36.4208L23.243 19.2277C23.1249 19.0623 22.9725 18.9235 22.796 18.8207C22.6196 18.7178 22.4231 18.6532 22.2195 18.631C22.0159 18.6089 21.8099 18.6298 21.615 18.6922C21.4202 18.7546 21.241 18.8573 21.0892 18.9933L19.4954 20.3995C19.3394 20.5352 19.2144 20.7024 19.1289 20.8898C19.0435 21.0771 18.9995 21.2805 19 21.486V49.6085L33 56V45.1132Z" fill="url(#paint0_linear)"/>
<defs>
<linearGradient id="paint0_linear" x2="1" gradientUnits="userSpaceOnUse" gradientTransform="translate(65) scale(65) rotate(90)">
<stop stop-color="#B0FE4F"/>
<stop offset="1" stop-color="#7DC326"/>
</linearGradient>
</defs>
</svg>
