<svg width="65" height="65" viewBox="0 0 65 65" fill="none" xmlns="http://www.w3.org/2000/svg">
<path fill-rule="evenodd" clip-rule="evenodd" d="M0 32.5C0 14.5508 14.5505 0 32.5 0C50.4492 0 65 14.5508 65 32.5C65 50.4492 50.4492 65 32.5 65C14.5505 65 0 50.4492 0 32.5ZM41.7054 38.8818C41.5396 38.9507 41.4532 38.9421 41.4362 38.9338L41.4366 38.9258C41.4375 38.9004 41.4401 38.8167 41.4985 38.675L48.6005 21.5005C50.744 24.6316 51.9999 28.4187 51.9999 32.5002C51.9999 43.2705 43.269 52.0007 32.4995 52.0007C27.6007 52.0007 23.1274 50.1902 19.7024 47.207L27.6436 28.0525C27.7124 27.8865 27.7794 27.8315 27.7972 27.8252L27.8029 27.8318C27.8208 27.8511 27.8774 27.9121 27.9357 28.0525L29.8007 32.554L30.4412 34.1003L32.8505 28.2407L32.4154 27.1897M41.7054 38.8818L46.2054 37.0176L41.7054 38.8818ZM46.2054 37.0176C46.6898 36.8171 46.9435 36.9688 47.0515 37.0767L46.2054 37.0176ZM47.0515 37.0767C47.1599 37.1851 47.3112 37.4387 47.1104 37.9231L47.0515 37.0767ZM47.1104 37.9231L45.7654 41.1677L47.1104 37.9231ZM45.7654 41.1677C45.5206 41.7573 44.8677 42.4104 44.2784 42.6545L45.7654 41.1677ZM44.2784 42.6545L37.2014 45.5872L44.2784 42.6545ZM37.2014 45.5872C36.8829 45.7188 36.5312 45.7185 36.2113 45.5862L37.2014 45.5872ZM36.2113 45.5862C35.8911 45.4534 35.6421 45.2048 35.5101 44.886L36.2113 45.5862ZM35.5101 44.886L33.6155 40.3105L35.5101 44.886ZM33.6155 40.3105L32.1443 36.7583L33.6155 40.3105ZM32.1443 36.7583L34.554 30.8958L32.1443 36.7583ZM34.554 30.8958L35.2494 32.5742L34.554 30.8958ZM35.2494 32.5742L37.0605 36.9456L35.2494 32.5742ZM37.0605 36.9456C37.1189 37.0862 37.1757 37.1472 37.1935 37.1663L37.0605 36.9456ZM37.1935 37.1663L37.199 37.1726L37.1935 37.1663ZM37.199 37.1726C37.2168 37.1663 37.2838 37.1113 37.3527 36.9456L37.199 37.1726ZM37.3527 36.9456L45.2938 17.7908L37.3527 36.9456ZM45.2938 17.7908C41.8688 14.8093 37.3969 13 32.4995 13L45.2938 17.7908ZM32.4995 13C21.73 13 12.9999 21.7302 12.9999 32.5002L32.4995 13ZM12.9999 32.5002C12.9999 36.5798 14.2543 40.3655 16.3958 43.4961L12.9999 32.5002ZM16.3958 43.4961L23.4973 26.323L16.3958 43.4961ZM23.4973 26.323C23.5554 26.1819 23.5582 26.0981 23.5591 26.0723L23.4973 26.323ZM23.5591 26.0723L23.5597 26.064L23.5591 26.0723ZM23.5597 26.064C23.5426 26.0557 23.4563 26.0471 23.2904 26.116L23.5597 26.064ZM23.2904 26.116L18.791 27.9797L23.2904 26.116ZM18.791 27.9797C18.3068 28.1802 18.0531 28.0288 17.9447 27.9204L18.791 27.9797ZM17.9447 27.9204C17.8751 27.8508 17.7874 27.7207 17.7874 27.5078L17.9447 27.9204ZM17.7874 27.5078C17.7874 27.3896 17.8142 27.2466 17.8855 27.0745L17.7874 27.5078ZM17.8855 27.0745L19.229 23.8301L17.8855 27.0745ZM19.229 23.8301C19.4734 23.2405 20.1265 22.5876 20.7156 22.3435L19.229 23.8301ZM20.7156 22.3435L27.7933 19.4114L20.7156 22.3435ZM27.7933 19.4114C28.1118 19.2795 28.4635 19.2798 28.7838 19.4126L27.7933 19.4114ZM28.7838 19.4126C29.104 19.5452 29.353 19.7935 29.4846 20.1118L28.7838 19.4126ZM29.4846 20.1118L29.7725 20.8066L29.4846 20.1118ZM29.7725 20.8066L31.4702 24.9065L29.7725 20.8066ZM31.4702 24.9065L32.4154 27.1897L31.4702 24.9065Z" fill="url(#paint0_linear)"/>
<defs>
<linearGradient id="paint0_linear" x2="1" gradientUnits="userSpaceOnUse" gradientTransform="translate(32.5 65) scale(65) rotate(-90)">
<stop stop-color="#70D463"/>
<stop offset="1" stop-color="#8DC63F"/>
</linearGradient>
</defs>
</svg>
