<svg width="65" height="65" viewBox="0 0 65 65" fill="none" xmlns="http://www.w3.org/2000/svg">
<path fill-rule="evenodd" clip-rule="evenodd" d="M32.5 65C50.4492 65 65 50.4493 65 32.5C65 14.5508 50.4492 0 32.5 0C14.5508 0 0 14.5508 0 32.5C0 50.4493 14.5508 65 32.5 65ZM29.2867 13.8792C35.9142 10.0107 44.3887 12.3064 48.215 19.0069C48.3551 19.2523 48.4872 19.5003 48.6111 19.7505C45.5072 15.0765 39.306 13.5713 34.412 16.428C32.7657 17.3889 31.4684 18.7262 30.5647 20.2702C30.9779 20.4595 31.3857 20.6711 31.7869 20.9052C33.9615 22.1746 35.6671 23.95 36.8422 25.9994C41.5525 26.2359 45.6439 28.8504 47.9657 32.68C48.4962 32.0346 48.9456 31.3335 49.3094 30.5936C49.0171 31.4488 48.6428 32.2767 48.1902 33.064C49.3419 35.1069 49.9999 37.4712 49.9999 39.9909C49.9999 47.7279 43.7961 54 36.1434 54C35.863 54 35.5846 53.9916 35.3083 53.975C40.8641 53.5944 45.2542 48.9175 45.2542 43.204C45.2542 41.2114 44.7202 39.345 43.7891 37.7428C43.5786 37.8814 43.3633 38.0151 43.1432 38.1436C41.1621 39.3 39.016 39.9056 36.8783 40.0073L36.8586 40.042C34.2472 44.6151 29.4705 47.1364 24.5936 47.0465C24.8763 47.7967 25.2393 48.5067 25.672 49.166C25.1056 48.5058 24.5992 47.7914 24.1615 47.0317C22.035 46.9252 19.9011 46.3199 17.9304 45.1696C11.303 41.3011 9.03223 32.7333 12.8586 26.0329C12.9988 25.7874 13.1453 25.5478 13.2976 25.3142C10.8458 30.3689 12.657 36.551 17.5511 39.4077C19.0571 40.2868 20.6869 40.7528 22.312 40.8405C22.2954 40.5595 22.287 40.2762 22.287 39.9909C22.287 37.4185 22.9728 35.0079 24.1697 32.9361C21.7162 28.5751 21.8312 23.4375 24.0381 19.322C23.4369 19.2566 22.8345 19.2436 22.2369 19.2812C22.8809 19.1554 23.5343 19.0755 24.1919 19.0429C25.368 16.9642 27.0875 15.1629 29.2867 13.8792ZM29.2642 27.8276C28.8762 25.7993 29.0802 23.7186 29.8105 21.8335C31.2499 23.0685 32.3038 24.6395 32.9236 26.3621C31.623 26.6749 30.3937 27.1732 29.2642 27.8276ZM31.6528 32.8175C32.1855 32.6645 32.7352 32.5524 33.2983 32.4845C33.1814 32.9967 33.0261 33.5045 32.8314 34.0039C32.4126 33.6438 32.0181 33.2479 31.6528 32.8175ZM42.6721 36.1645C41.2285 36.5806 39.7383 36.675 38.2955 36.4733C38.5626 35.408 38.7008 34.3261 38.7159 33.2495C40.2502 33.9025 41.6019 34.9075 42.6721 36.1645ZM26.563 36.0677C27.5065 36.9942 28.5649 37.7676 29.7002 38.3776C28.1105 39.7073 26.1818 40.5301 24.1683 40.7771C24.5721 38.9997 25.41 37.3899 26.563 36.0677Z" fill="url(#paint0_linear)"/>
<defs>
<linearGradient id="paint0_linear" x2="1" gradientUnits="userSpaceOnUse" gradientTransform="translate(65) scale(65) rotate(90)">
<stop stop-color="#4399FF"/>
<stop offset="1" stop-color="#002CCF"/>
</linearGradient>
</defs>
</svg>
