<svg width="65" height="65" viewBox="0 0 65 65" fill="none" xmlns="http://www.w3.org/2000/svg">
<path fill-rule="evenodd" clip-rule="evenodd" d="M32.5 65C50.4493 65 65 50.4493 65 32.5C65 14.5507 50.4493 0 32.5 0C14.5507 0 0 14.5507 0 32.5C0 50.4493 14.5507 65 32.5 65ZM28.5144 10.0651C31.2679 7.31164 35.7319 7.31163 38.4855 10.0651L55.9348 27.5145C58.6884 30.2679 58.6884 34.7322 55.9348 37.4854L47.3466 46.0737V55.0468C47.3466 55.696 46.8205 56.2222 46.1715 56.2219C45.5226 56.2219 44.9964 55.6957 44.9964 55.0468V45.6583L35.02 35.6819C33.7096 36.308 32.0926 36.0783 31.0072 34.9928C29.6305 33.6161 29.6305 31.384 31.0072 30.0072C32.3839 28.6305 34.616 28.6305 35.9928 30.0072C37.078 31.0926 37.3077 32.7096 36.6817 34.0201L45.9638 43.3019L53.8575 35.4081C55.4636 33.802 55.4636 31.1979 53.8575 29.5918L36.4082 12.1424C34.802 10.5362 32.1979 10.5362 30.5917 12.1424L13.1424 29.5918C11.5362 31.1979 11.5362 33.8021 13.1424 35.4081L30.5917 52.8575C32.1979 54.4639 34.802 54.4639 36.4082 52.8575L43.1268 46.1389V50.2935L38.4855 54.9348C35.7319 57.6884 31.2679 57.6884 28.5144 54.9348L11.0651 37.4854C8.31164 34.7322 8.31165 30.2679 11.0651 27.5145L28.5144 10.0651Z" fill="url(#paint0_linear)"/>
<defs>
<linearGradient id="paint0_linear" x1="32" y1="0" x2="32" y2="70" gradientUnits="userSpaceOnUse">
<stop stop-color="#57BEFF"/>
<stop offset="1" stop-color="#2468E3"/>
</linearGradient>
</defs>
</svg>
