<svg width="65" height="65" viewBox="0 0 65 65" fill="none" xmlns="http://www.w3.org/2000/svg">
<path fill-rule="evenodd" clip-rule="evenodd" d="M32.5 0C14.5506 0 0 14.5508 0 32.5C0 50.4492 14.5506 65 32.5 65C50.4492 65 65 50.4492 65 32.5C65 14.5508 50.4492 0 32.5 0ZM11.2821 32.6367C11.2821 31.3242 11.4784 30.2227 11.871 29.332C12.164 28.6758 12.5639 28.0869 13.0707 27.5654C13.5775 27.0439 14.1327 26.6572 14.7362 26.4053C15.539 26.0654 16.4647 25.8955 17.5136 25.8955C19.412 25.8955 20.931 26.4844 22.0707 27.6621C23.2103 28.8398 23.7802 30.4775 23.7802 32.5752C23.7802 34.6553 23.2147 36.2827 22.0839 37.4575C20.953 38.6323 19.4413 39.2197 17.5487 39.2197C15.6327 39.2197 14.1093 38.6353 12.9784 37.4663C11.8475 36.2974 11.2821 34.6875 11.2821 32.6367ZM13.9628 32.5488C13.9628 34.0078 14.2997 35.1138 14.9735 35.8667C15.6474 36.6196 16.5028 36.9961 17.5399 36.9961C18.577 36.9961 19.4281 36.6226 20.0932 35.8755C20.7582 35.1284 21.0907 34.0078 21.0907 32.5137C21.0907 31.0371 20.767 29.9356 20.1195 29.209C19.4721 28.4824 18.6122 28.1191 17.5399 28.1191C16.4677 28.1191 15.6034 28.4868 14.9472 29.2222C14.2909 29.9575 13.9628 31.0664 13.9628 32.5488ZM25.8192 39V26.1152H28.4208V31.1865H33.5184V26.1152H36.12V39H33.5184V33.3662H28.4208V39H25.8192ZM38.8358 39V26.1152H41.3671L46.6405 34.7197V26.1152H49.0575V39H46.4472L41.2528 30.5977V39H38.8358ZM51.7294 39V26.1152H54.3309V39H51.7294Z" fill="url(#paint0_linear)"/>
<defs>
<linearGradient id="paint0_linear" x2="1" gradientUnits="userSpaceOnUse" gradientTransform="translate(32.5) scale(65) rotate(90)">
<stop stop-color="white"/>
<stop offset="1" stop-color="#8785FF"/>
</linearGradient>
</defs>
</svg>
