<svg width="65" height="65" viewBox="0 0 65 65" fill="none" xmlns="http://www.w3.org/2000/svg">
<path fill-rule="evenodd" clip-rule="evenodd" d="M32.5 0C14.5506 0 0 14.5508 0 32.5C0 50.4492 14.5506 65 32.5 65C50.4492 65 65 50.4492 65 32.5C65 14.5508 50.4492 0 32.5 0ZM23.9798 33.0317C19.573 33.0348 16.0027 36.6091 16.0048 41.0159C16.0027 45.422 19.5719 48.996 23.9779 49.0001C26.0948 48.9996 28.1248 48.1581 29.6211 46.6607C31.1174 45.1633 31.9576 43.1328 31.9566 41.0159C31.9576 38.8993 31.1177 36.8691 29.6218 35.3718C28.1258 33.8744 26.0963 33.0327 23.9798 33.0317ZM23.9798 46.5855C20.9075 46.5835 18.4183 44.0918 18.4193 41.0195C18.4183 39.5438 19.0036 38.1281 20.0464 37.084C21.0892 36.0398 22.5041 35.4526 23.9798 35.4517C25.4558 35.4521 26.8712 36.0391 27.9144 37.0833C28.9576 38.1275 29.5431 39.5435 29.5421 41.0195C29.5381 44.0904 27.0507 46.5794 23.9798 46.5855ZM41.0188 16C38.9023 16.001 36.8728 16.8427 35.3768 18.34C33.8809 19.8373 33.041 21.8676 33.042 23.9842C33.04 28.391 36.6102 31.9653 41.017 31.9683C43.1339 31.9678 45.1638 31.1263 46.6602 29.629C48.1565 28.1316 48.9966 26.101 48.9957 23.9842C48.9966 21.8673 48.1565 19.8368 46.6602 18.3394C45.1638 16.842 43.1339 16.0005 41.017 16H41.0188ZM41.0188 29.5538C39.543 29.5533 38.128 28.9666 37.0848 27.9228C36.0417 26.8789 35.4559 25.4635 35.4564 23.9878C35.4554 22.5117 36.041 21.0958 37.0842 20.0516C38.1274 19.0073 39.5427 18.4204 41.0188 18.4199C42.4945 18.4209 43.9093 19.008 44.9521 20.0522C45.9949 21.0964 46.5802 22.512 46.5793 23.9878C46.5752 27.058 44.089 29.5467 41.0188 29.5538ZM23.9798 16C20.1828 16.005 16.9139 18.6816 16.1598 22.403C15.4058 26.1243 17.3749 29.8623 20.8704 31.345C24.369 32.8234 28.4248 31.63 30.5651 28.4923C32.7076 25.3532 32.3435 21.1396 29.6943 18.4145H31.9548V16H23.9798ZM29.5421 23.9842C29.5426 25.4599 28.9569 26.8754 27.9137 27.9192C26.8706 28.963 25.4555 29.5497 23.9798 29.5502C20.9075 29.5482 18.4183 27.0565 18.4193 23.9842C18.4183 20.9119 20.9075 18.4202 23.9798 18.4182C27.0514 18.4233 29.5399 20.9126 29.544 23.9842H29.5421Z" fill="url(#paint0_linear)"/>
<defs>
<linearGradient id="paint0_linear" x2="1" gradientUnits="userSpaceOnUse" gradientTransform="translate(32.5 65) scale(65) rotate(-90)">
<stop stop-color="#1A53F0"/>
<stop offset="1" stop-color="#00A4FF"/>
</linearGradient>
</defs>
</svg>
