<svg width="65" height="65" viewBox="0 0 65 65" fill="none" xmlns="http://www.w3.org/2000/svg">
<path fill-rule="evenodd" clip-rule="evenodd" d="M32.5 0C14.5506 0 0 14.5508 0 32.5C0 50.4494 14.5506 65 32.5 65C50.4492 65 65 50.4494 65 32.5C65 14.5508 50.4492 0 32.5 0ZM48.3899 32C48.3899 32.0436 48.3897 32.0871 48.3894 32.1306V47H48.3891L22.7829 21.3938C25.4974 18.6791 29.2476 17 33.3899 17C41.6742 17 48.3899 23.7157 48.3899 32ZM17.0006 31.8598C17.0002 31.9065 17 31.9532 17 32C17 40.2842 23.7157 47 32 47C36.1423 47 39.8923 45.321 42.6068 42.6064L17.0006 17.0002V31.8598Z" fill="url(#paint0_linear)"/>
<defs>
<linearGradient id="paint0_linear" x1="0.000488162" y1="3.08154" x2="0.000488162" y2="49.1316" gradientUnits="userSpaceOnUse">
<stop stop-color="#58A9FF"/>
<stop offset="1" stop-color="#2B85E3"/>
</linearGradient>
</defs>
</svg>
