<svg width="65" height="65" viewBox="0 0 65 65" fill="none" xmlns="http://www.w3.org/2000/svg">
<path fill-rule="evenodd" clip-rule="evenodd" d="M32.5 0C14.5506 0 0 14.5508 0 32.5C0 50.4492 14.5506 65 32.5 65C50.4492 65 65 50.4492 65 32.5C65 14.5508 50.4492 0 32.5 0ZM47.8678 32.2294C47.8678 29.6003 47.851 26.9711 47.8812 24.3424C47.8877 23.7774 47.665 23.4591 47.2086 23.2026C42.7443 20.6934 38.2772 18.1886 33.8275 15.6537C32.9541 15.1562 32.2041 15.2597 31.3807 15.7498C26.9815 18.369 22.5697 20.9673 18.1568 23.5637C17.6294 23.874 17.3413 24.2786 17.3588 24.908C17.3892 26.0028 17.3973 27.0982 17.4073 28.1935C17.4451 32.3159 17.4895 36.4383 17.5065 40.5609C17.5093 41.2537 17.7522 41.7121 18.3605 42.0544C19.8805 42.9102 21.3657 43.8279 22.8866 44.6822C25.8957 46.3721 28.9227 48.03 31.9338 49.7166C32.4167 49.9872 32.8252 49.9248 33.2736 49.6573C37.9328 46.8769 42.5904 44.0936 47.267 41.3426C47.8338 41.0092 48.0081 40.6121 48.0032 39.997C47.9824 37.408 47.91 32.2294 47.8678 32.2294ZM49.6898 32.4791C49.6898 35.3884 49.669 38.2979 49.7048 41.2067C49.7135 41.9201 49.4534 42.3616 48.8626 42.7062C46.6648 43.9879 44.4815 45.2943 42.2862 46.5802C40.1636 47.8238 38.0337 49.055 35.9053 50.2887C35.0139 50.8054 34.1171 51.3125 33.2249 51.8274C32.761 52.095 32.3357 52.0326 31.878 51.7696C28.9316 50.0773 25.9787 48.3965 23.0224 46.7218C20.9169 45.529 18.8117 44.3349 16.6878 43.1756C15.8376 42.7115 15.4955 42.0563 15.4999 41.0967C15.5269 35.2389 15.5241 29.381 15.5283 23.5232C15.5286 23.0235 15.7143 22.6616 16.1626 22.3985C19.9128 20.1961 23.6522 17.9754 27.4028 15.7735C28.8911 14.8998 30.4006 14.0623 31.8975 13.203C32.3913 12.9195 32.8507 12.9391 33.3521 13.2231C37.0332 15.3086 40.723 17.3786 44.4099 19.454C45.822 20.2489 47.2393 21.0346 48.6423 21.8452C49.3628 22.2614 49.716 22.8479 49.6995 23.7518C49.6464 26.6601 49.6798 29.57 49.6798 32.4791C49.6832 32.4791 49.6865 32.4791 49.6898 32.4791ZM44.2993 32.2936C44.2224 32.293 44.0812 30.1876 44.0647 29.1357C44.0517 28.3003 44.0334 27.4628 43.9621 26.631C43.8863 25.7449 43.4679 25.0506 42.6482 24.6334C39.708 23.1368 36.772 21.6322 33.8284 20.1426C32.8938 19.6696 32.0027 19.7941 31.1162 20.3476C28.2725 22.1232 25.4172 23.8807 22.5551 25.6265C21.5228 26.2562 20.9764 27.0424 21.0245 28.3467C21.1478 31.6894 21.1429 35.037 21.1876 38.3826C21.1982 39.1752 21.4938 39.8148 22.1899 40.2279C22.8902 40.6434 23.5879 41.0658 24.3077 41.4451C26.6582 42.6834 29.0057 43.9284 31.3808 45.118C32.315 45.5861 33.2596 45.5633 34.1999 44.939C37.1771 42.9625 40.1795 41.0236 43.1867 39.0927C43.9463 38.6048 44.2991 37.9459 44.2992 37.0673C44.2994 35.4761 44.2993 33.8848 44.2993 32.2936ZM45.7525 32.1953C45.752 34.0876 45.6957 35.982 45.7733 37.871C45.8191 38.9838 45.3065 39.6943 44.4685 40.2354C42.1658 41.7224 39.8462 43.1834 37.526 44.6432C36.5367 45.2655 35.4922 45.8065 34.5398 46.4791C33.2555 47.3862 32.0331 47.3137 30.6993 46.592C27.5412 44.883 24.3647 43.2072 21.1718 41.5642C20.2041 41.0663 19.7021 40.3168 19.5718 39.2913C19.4969 38.702 19.4949 38.1006 19.4946 37.5047C19.4925 33.8599 19.5095 30.215 19.4958 26.5702C19.4935 25.9609 19.7666 25.5254 20.209 25.2089C21.3055 24.4246 22.4122 23.6502 23.5532 22.9329C26.1228 21.3172 28.7108 19.7304 31.3021 18.1495C32.1251 17.6476 33.0602 17.6541 33.8646 18.0655C37.4719 19.91 41.0594 21.7951 44.6187 23.7308C45.4795 24.199 45.7427 25.1418 45.749 26.1006C45.7624 28.132 45.7531 30.1637 45.7525 32.1953ZM40.7795 32.3399C40.7269 31.3142 40.6815 30.1824 40.6074 29.0526C40.5379 27.9957 40.0694 27.1525 39.1733 26.5665C37.5716 25.5188 35.8928 24.6391 34.0395 24.1076C32.7988 23.7517 31.6719 23.8376 30.5901 24.6181C29.16 25.6501 27.6931 26.632 26.2243 27.6091C25.4849 28.1009 25.012 28.7455 24.8853 29.6223C24.5743 31.7749 24.4382 33.9353 24.7218 36.1015C24.7982 36.6853 24.863 37.3135 25.4049 37.6952C27.6352 39.2661 29.9119 40.7716 32.7225 41.0331C33.3516 41.0916 34.1227 40.9726 34.6397 40.6411C36.4063 39.5074 38.1152 38.2772 39.7842 37.0028C40.1847 36.697 40.5041 36.1029 40.5837 35.5977C40.7466 34.5641 40.7216 33.501 40.7795 32.3399ZM22.9795 33.183C22.9795 31.7303 22.9771 30.2776 22.9806 28.8249C22.9824 28.0417 23.3698 27.4514 23.9837 27.0223C25.4806 25.9759 26.9903 24.9479 28.5044 23.9266C29.2108 23.45 29.9715 23.0489 30.6497 22.5368C31.5862 21.8295 32.5976 21.7679 33.6319 22.1268C36.321 23.0597 38.9342 24.1683 41.1978 25.9387C41.5378 26.2046 41.8658 26.6836 41.9107 27.0956C42.1499 29.2873 42.3003 31.4888 42.473 33.6874C42.4995 34.0241 42.4476 34.3687 42.4909 34.7021C42.7156 36.4339 41.998 37.6967 40.61 38.6708C38.9521 39.8343 37.3073 41.0172 35.6743 42.2154C34.3647 43.1761 33.0489 43.427 31.4537 42.8093C28.9998 41.8589 26.6163 40.8051 24.3974 39.3837C23.4933 38.8045 22.975 38.0266 22.9641 36.9466C22.9513 35.6923 22.9611 34.4377 22.9611 33.1833C22.9672 33.1831 22.9734 33.1831 22.9795 33.183ZM32.6847 37.104C35.258 37.268 37.3046 34.9459 37.3009 32.5995C37.297 30.1887 35.3471 28.0649 32.8167 28.0475C30.237 28.0297 28.2407 29.9856 28.1998 32.5924C28.1633 34.9234 30.1315 37.2084 32.6847 37.104ZM38.8176 32.61C38.98 35.7023 36.1031 38.8701 32.422 38.6888C29.5828 38.5491 26.6696 36.1693 26.6317 32.6376C26.5993 29.6232 29.7949 26.4808 32.7451 26.4917C36.3668 26.5052 38.9961 29.6505 38.8176 32.61Z" fill="url(#paint0_linear)"/>
<defs>
<linearGradient id="paint0_linear" x2="1" gradientUnits="userSpaceOnUse" gradientTransform="translate(32.5 65) scale(65) rotate(-90)">
<stop stop-color="#451F86"/>
<stop offset="1" stop-color="#E54F7D"/>
</linearGradient>
</defs>
</svg>
