<svg width="65" height="65" viewBox="0 0 65 65" fill="none" xmlns="http://www.w3.org/2000/svg">
<path fill-rule="evenodd" clip-rule="evenodd" d="M32.5 65C50.4492 65 65 50.4492 65 32.5C65 14.5508 50.4492 0 32.5 0C14.5508 0 0 14.5508 0 32.5C0 50.4492 14.5508 65 32.5 65ZM38.9585 15.2894C41.2283 15.2894 43.0684 13.4338 43.0684 11.1448C43.0684 8.85571 41.2283 7 38.9585 7C36.6887 7 34.8486 8.85571 34.8486 11.1448C34.8486 12.0515 35.1375 12.8903 35.6272 13.5726L31.0295 20.8064C23.1589 21.5533 17 28.2356 17 36.3685C17 45.0016 23.9397 52.0001 32.5 52.0001C41.0603 52.0001 48 45.0016 48 36.3685C48 28.3672 42.0386 21.7699 34.3508 20.8473L37.9614 15.1666C38.2808 15.2468 38.6147 15.2894 38.9585 15.2894ZM32.5 44.658C36.2969 44.658 39.4924 42.0618 40.4365 38.5336C39.657 40.0607 38.0781 41.1052 36.2578 41.1052C33.6636 41.1052 31.5608 38.9845 31.5608 36.3684C31.5608 33.7523 33.6636 31.6316 36.2578 31.6316C38.0781 31.6316 39.657 32.676 40.4365 34.2031C39.4924 30.675 36.2969 28.079 32.5 28.079C27.9604 28.079 24.2803 31.7903 24.2803 36.3684C24.2803 40.9467 27.9604 44.658 32.5 44.658Z" fill="url(#paint0_linear)"/>
<defs>
<linearGradient id="paint0_linear" x2="1" gradientUnits="userSpaceOnUse" gradientTransform="translate(65) scale(65) rotate(90)">
<stop stop-color="white"/>
<stop offset="1" stop-color="#8785FF"/>
</linearGradient>
</defs>
</svg>
