<svg width="65" height="65" viewBox="0 0 65 65" fill="none" xmlns="http://www.w3.org/2000/svg">
<path fill-rule="evenodd" clip-rule="evenodd" d="M32.5 65C50.4493 65 65 50.4493 65 32.5C65 14.5507 50.4493 0 32.5 0C14.5507 0 0 14.5507 0 32.5C0 50.4493 14.5507 65 32.5 65ZM54.9907 28.6574C57.1736 31.8511 57.7723 35.6128 55.8116 39.588C54.539 42.168 52.8089 42.9273 50.5207 43.9317C48.9535 44.6196 47.1245 45.4224 45.0014 47.0038C42.2974 48.851 40.5186 50.516 39.0432 51.897C36.3434 54.4241 34.6598 56 30.1829 56C27.1971 56 22.6632 54.093 19.327 49.9837C16.2621 49.8551 13.3985 48.9583 11.0008 47.0187C6.23999 42.4833 8.09361 37.5516 10.0962 32.2236C10.5846 30.9241 11.0819 29.601 11.4943 28.2543C11.9569 26.7433 12.2071 25.1884 12.4511 23.672C13.1183 19.5263 13.7392 15.6681 18.5267 13.7824C20.2951 13.0859 22.308 12.8822 24.4367 13.0618C26.7226 10.8728 29.4249 9.68155 32.2603 10.0741C34.8274 10.4296 35.6435 10.971 36.8834 11.7937C37.9565 12.5056 39.347 13.4282 42.4646 14.6231C45.0813 15.4283 47.2923 15.7349 49.1067 15.9865C51.7253 16.3496 53.5181 16.5982 54.5131 18.0655C56.5176 21.0214 56.388 24.7786 54.9907 28.6574ZM44 33C44 40.8491 38.726 46 31.6214 46C24.5168 46 19 40.1797 19 33C19 25.8203 25.609 20 32.7136 20C40.3593 20 44 27.1132 44 33Z" fill="url(#paint0_linear)"/>
<defs>
<linearGradient id="paint0_linear" x1="32.5" y1="0" x2="32.5" y2="65" gradientUnits="userSpaceOnUse">
<stop stop-color="#3CD796"/>
<stop offset="1" stop-color="#0F754D"/>
</linearGradient>
</defs>
</svg>
