<svg width="65" height="65" viewBox="0 0 65 65" fill="none" xmlns="http://www.w3.org/2000/svg">
<path fill-rule="evenodd" clip-rule="evenodd" d="M32.5 0C14.5506 0 0 14.5508 0 32.5C0 50.4492 14.5506 65 32.5 65C50.4492 65 65 50.4492 65 32.5C65 14.5508 50.4492 0 32.5 0ZM51.8403 31.8697C51.7431 31.6729 51.6143 31.4932 51.4592 31.3379C48.0876 27.5196 41.2256 20 41.2256 20L32.5095 29.5333L23.6817 20.0904C23.6817 20.0904 16.74 27.6756 13.3382 31.5347C12.8951 31.9707 12.8951 32.7578 13.2922 33.2222C15.0595 35.236 23.7402 44.8083 23.7402 44.8083L32.4971 35.2111L41.1937 44.8172L51.6825 33.2134C51.6825 33.2134 51.9041 32.9829 51.952 32.8287C52.0548 32.5096 51.9803 32.1622 51.8403 31.8697ZM18.1741 32.9314C17.8905 32.5964 17.9862 32.0699 18.2503 31.7526C19.36 30.4887 23.8005 25.7256 23.8005 25.7256L29.9871 32.2933L23.7899 39.0719C23.7899 39.0719 19.9964 35.0232 18.1741 32.9314ZM46.5152 33.1549C46.4018 33.3924 46.0614 33.7841 46.0614 33.7841L41.2575 39.0046L35.0532 32.4086L41.1582 25.7168C41.1582 25.7168 44.6752 29.3596 46.2865 31.3184C46.423 31.4886 46.5843 31.6499 46.6535 31.8661C46.8006 32.2898 46.7066 32.7613 46.5134 33.1531L46.5152 33.1549Z" fill="url(#paint0_linear)"/>
<defs>
<linearGradient id="paint0_linear" x2="1" gradientUnits="userSpaceOnUse" gradientTransform="translate(32.5) scale(65) rotate(90)">
<stop stop-color="#ACACAC"/>
<stop offset="1" stop-color="#302C2C"/>
</linearGradient>
</defs>
</svg>
