<svg width="65" height="65" viewBox="0 0 65 65" fill="none" xmlns="http://www.w3.org/2000/svg">
<path fill-rule="evenodd" clip-rule="evenodd" d="M32.5 0C14.5506 0 0 14.5508 0 32.5C0 50.4492 14.5506 65 32.5 65C50.4492 65 65 50.4492 65 32.5C65 14.5508 50.4492 0 32.5 0ZM51.8403 31.8697C51.7431 31.6729 51.6143 31.4932 51.4592 31.3379C48.0876 27.5196 41.2257 20 41.2257 20L32.5095 29.5333L23.6817 20.0904C23.6817 20.0904 16.74 27.6756 13.3383 31.5347C12.8951 31.9707 12.8951 32.7578 13.2922 33.2222C15.0595 35.236 23.7402 44.8083 23.7402 44.8083L32.4971 35.2111L41.1937 44.8172L51.6825 33.2134C51.6825 33.2134 51.9041 32.9829 51.952 32.8287C52.0548 32.5096 51.9804 32.1622 51.8403 31.8697ZM18.1741 32.9315C17.8904 32.5965 17.9862 32.07 18.2503 31.7527C19.36 30.4888 23.8005 25.7257 23.8005 25.7257L29.987 32.2934L23.7898 39.072C23.7898 39.072 19.9963 35.0233 18.1741 32.9315ZM46.5153 33.1549C46.4018 33.3924 46.0615 33.7841 46.0615 33.7841L41.2576 39.0046L35.0533 32.4086L41.1583 25.7168C41.1583 25.7168 44.6752 29.3596 46.2866 31.3184C46.4231 31.4886 46.5844 31.6499 46.6535 31.8661C46.8007 32.2898 46.7067 32.7613 46.5135 33.1531L46.5153 33.1549Z" fill="url(#paint0_linear)"/>
<defs>
<linearGradient id="paint0_linear" x2="1" gradientUnits="userSpaceOnUse" gradientTransform="translate(32.5) scale(65) rotate(90)">
<stop stop-color="white"/>
<stop offset="1" stop-color="#8785FF"/>
</linearGradient>
</defs>
</svg>
