<svg width="65" height="65" viewBox="0 0 65 65" fill="none" xmlns="http://www.w3.org/2000/svg">
<path fill-rule="evenodd" clip-rule="evenodd" d="M32.5 0C14.5506 0 0 14.5508 0 32.5C0 50.4492 14.5506 65 32.5 65C50.4492 65 65 50.4492 65 32.5C65 14.5508 50.4492 0 32.5 0ZM40.2886 32.5L50.8899 21.8987L48.7264 19.7351L35.9615 32.5L48.7264 45.2648L50.8899 43.1013L40.2886 32.5ZM43.1012 50.89L32.4999 40.2887L21.8986 50.89L19.735 48.7266L32.4999 35.9617L45.2648 48.7266L43.1012 50.89ZM24.7112 32.5L14.1098 43.1013L16.2734 45.2648L29.0382 32.5L16.2734 19.7351L14.1098 21.8987L24.7112 32.5ZM21.8986 14.11L32.4999 24.7113L43.1012 14.11L45.2648 16.2736L32.4999 29.0383L19.735 16.2736L21.8986 14.11Z" fill="url(#paint0_linear)"/>
<defs>
<linearGradient id="paint0_linear" x2="1" gradientUnits="userSpaceOnUse" gradientTransform="translate(32.5) scale(65) rotate(90)">
<stop stop-color="white"/>
<stop offset="1" stop-color="#B8B8B8"/>
</linearGradient>
</defs>
</svg>
