<svg width="65" height="65" viewBox="0 0 65 65" fill="none" xmlns="http://www.w3.org/2000/svg">
<path fill-rule="evenodd" clip-rule="evenodd" d="M32.5 0C14.5506 0 0 14.5508 0 32.5C0 50.4492 14.5506 65 32.5 65C50.4492 65 65 50.4492 65 32.5C65 14.5508 50.4492 0 32.5 0ZM34.9737 42.2812C36.2164 43.8055 37.5023 45.3815 36.0996 47.152C35.6482 47.7216 35.1323 48.0841 34.6763 48.404C33.6917 49.0998 33.0392 49.5578 33.3299 51.819L32.135 51.9756C31.7486 48.9829 32.8865 48.183 33.9872 47.4076C34.4127 47.1075 34.8157 46.8247 35.1569 46.3919C35.8845 45.4757 35.4543 44.7866 34.0423 43.0533C33.7613 42.7133 33.4869 42.3681 33.2191 42.0177C32.7344 41.3784 32.5572 40.6693 32.7092 39.971C32.8685 39.242 33.3465 38.6419 33.8272 38.1984C31.6072 36.7379 31.5674 34.3049 31.5674 34.271H32.1695L32.7736 34.2677C32.7749 34.3805 32.8314 36.3582 34.8993 37.4131L35.0487 37.4881C35.7471 37.8147 36.6652 38.0345 37.8608 38.059C42.8438 37.9541 42.946 34.4197 42.9474 34.2677L44.1536 34.271C44.1536 34.283 44.1476 34.6156 44.0334 35.1028C44.6097 35.0816 45.6831 34.8857 46.0735 34.6673C45.8511 33.8641 44.4251 31.2179 43.1153 29.0291L43.4784 28.1263L43.6172 28.0878C43.4094 27.1418 43.0011 25.2438 42.798 23.9904C38.1914 23.284 34.8701 23.8224 32.9243 25.5956C31.0456 27.311 31.1584 29.5828 31.1631 29.6797L30.4939 29.7229L29.9601 29.7673C29.9336 29.4553 29.7178 29.126 29.4556 29.0026C29.2173 28.8904 28.9431 28.9441 28.6391 29.1612C28.1684 29.4965 28.0004 29.9207 28.1119 30.4996C28.3045 31.5126 29.3089 32.6253 30.0823 33.1019C30.1998 33.0289 30.2848 32.9831 30.32 32.9632L30.4952 33.2984C30.5198 33.3064 30.5483 33.398 30.5483 33.398L30.6021 33.5016L30.8856 34.0387C30.6832 34.1523 30.4895 34.2808 30.306 34.423C30.306 34.423 30.2456 34.4921 30.2257 34.4861C29.7955 34.8293 29.3348 35.3133 29.2233 35.8318C29.1489 36.1796 29.2432 36.5209 29.5134 36.878C29.7789 37.2272 30.0484 37.5591 30.3093 37.8791C31.5521 39.4047 32.8373 40.9814 31.4359 42.7519C30.9845 43.3208 30.468 43.684 30.0133 44.0039C29.0268 44.699 28.3755 45.1571 28.6669 47.4162L27.472 47.5736C27.0856 44.5822 28.2235 43.7809 29.3228 43.0068C29.7477 42.7054 30.1507 42.4226 30.4939 41.9918C31.2195 41.0736 30.7913 40.3859 29.3786 38.6525C29.1111 38.3239 28.8336 37.984 28.5554 37.6162C28.0695 36.9763 27.8942 36.2673 28.0449 35.5689C28.1943 34.8831 28.6291 34.3108 29.0785 33.8767C28.1013 33.1398 27.1513 31.9037 26.9276 30.7299C26.7271 29.6877 27.0889 28.7769 27.944 28.1661C28.6079 27.6941 29.3255 27.5998 29.9648 27.8999C30.0312 27.9304 30.0942 27.9689 30.1553 28.0074C30.4622 26.741 31.1377 25.5939 32.0965 24.7113C34.3125 22.6753 37.9551 22.0273 42.9201 22.7782C44.0314 21.3535 44.5121 19.2391 42.6028 17.4486C40.8502 15.8089 37.7831 15.3243 35.68 17.3577L34.6736 17.0444C34.3184 15.3488 32.3421 14.5064 30.6107 14.2847C27.9931 13.9481 24.5742 14.8025 23.2584 17.4765C21.5091 21.0229 23.7583 22.814 23.8546 22.889L23.4596 23.9824C20.8705 23.839 19.1305 24.2679 18.2854 25.2557C17.194 26.5323 17.6375 28.7211 17.9946 30.4803C18.2934 31.9528 18.5297 33.1159 17.9455 33.8063C17.281 34.5923 16.485 34.8765 15.7528 34.8765C15.2938 34.8756 14.8415 34.7676 14.4317 34.5611C13.402 34.0393 12.8324 33.0249 13.0435 32.0955L14.2192 32.3697C14.1343 32.7375 14.4589 33.2128 14.976 33.4737C15.2482 33.6138 16.2048 33.9909 17.028 33.017C17.2299 32.7786 16.9796 31.5419 16.8136 30.724C16.4033 28.7045 15.8935 26.1911 17.3726 24.4611C18.3139 23.361 19.8906 22.7934 22.1703 22.7417C21.464 21.6137 20.8373 19.6547 22.1777 16.9348C23.7577 13.731 27.7342 12.6881 30.7641 13.0778C33.0577 13.3725 34.7991 14.4214 35.5419 15.8979C38.0991 14.059 41.4464 14.7049 43.424 16.5577C44.9927 18.0269 46.0343 20.6923 43.9365 23.4473C44.1516 24.9809 44.9151 28.3566 44.923 28.3918L44.5327 29.0444C47.6555 34.346 47.366 34.9136 47.224 35.1938C46.9299 35.7687 45.8498 36.0993 44.8878 36.2334C46.0237 36.9929 47.1264 38.31 47.0487 40.3062C46.9876 41.8723 45.8086 43.1376 44.6701 44.3604C43.1419 46.0002 42.2483 47.071 43.0888 48.3582L42.0823 49.0274C40.6749 46.8725 42.3306 45.096 43.7911 43.5273C44.7796 42.4671 45.8013 41.3704 45.8438 40.2584C45.9308 38.0345 44.052 37.0732 43.3185 36.7824C42.5351 37.9747 41.0175 39.1604 38.0825 39.2693V39.2805C38.0062 39.2805 37.9365 39.2759 37.8615 39.2739C37.7865 39.2759 37.7161 39.2805 37.6404 39.2805V39.2693C36.5942 39.2314 35.7285 39.0555 35.0128 38.7913C34.5521 39.1385 34.0091 39.6649 33.8876 40.2319C33.8126 40.5797 33.9075 40.9229 34.1784 41.2781C34.4426 41.6293 34.7141 41.9612 34.975 42.2805L34.9737 42.2812ZM26.2969 20.8782L27.2257 21.6549C26.6567 22.3467 26.9827 22.9428 27.1493 23.1685C27.4209 23.5357 27.93 23.8032 28.3782 23.6093C29.1409 23.2801 29.2545 23.1081 29.8957 22.1608C30.4009 21.4035 30.9319 20.6637 31.4877 19.9428C32.2731 18.9165 33.1772 18.3768 34.171 18.3363C35.7617 18.2765 36.936 19.5531 36.9845 19.6089L36.0923 20.4288C36.085 20.4195 35.2359 19.5086 34.2122 19.5531C33.5935 19.5797 32.9973 19.9607 32.4403 20.6857C31.9017 21.3889 31.3856 22.1091 30.8929 22.8452C30.2191 23.843 29.9396 24.2573 28.8555 24.7273C28.6038 24.8362 28.3324 24.8922 28.0582 24.8919C27.3598 24.8919 26.6567 24.5354 26.1821 23.8968C25.501 22.9773 25.5448 21.7917 26.2969 20.8775V20.8782ZM39.4382 46.3049C40.6796 47.8291 41.9655 49.4072 40.5621 51.1764C40.1127 51.7453 39.5969 52.1084 39.1415 52.4297C38.1543 53.1235 37.5037 53.5815 37.7945 55.8427L36.5975 56C36.2132 53.0066 37.351 52.2067 38.4504 51.4313C38.8753 51.1319 39.2782 50.8484 39.6214 50.4162C40.347 49.5001 39.9175 48.811 38.5068 47.077C38.2255 46.7371 37.951 46.3916 37.6836 46.0407C37.197 45.4007 37.0217 44.693 37.1724 43.9947C37.5044 42.4658 39.2497 41.4952 39.4475 41.3896L40.0131 42.4651C39.6121 42.6815 38.5294 43.4244 38.3515 44.2562C38.2764 44.6041 38.3714 44.9453 38.6409 45.3025C38.9065 45.653 39.176 45.9849 39.4382 46.3049ZM27.002 26.9731C23.4444 26.839 21.5855 27.6111 21.474 29.2695C21.4282 29.9307 21.4833 30.71 21.543 31.5366C21.6878 33.5514 21.8524 35.8371 20.5001 37.1967C19.7606 37.9415 18.6851 38.3073 17.2259 38.3073C16.9896 38.3073 16.7413 38.298 16.485 38.2794L16.5727 37.0666C18.0458 37.1761 19.0502 36.9378 19.6464 36.3363C20.609 35.3684 20.4716 33.4658 20.3388 31.6249C20.2764 30.7558 20.2186 29.9346 20.2691 29.1858C20.3833 27.5102 21.6519 25.5545 27.0452 25.7569L27.0013 26.9738L27.002 26.9731ZM41.6754 29.0425C41.6568 29.0132 41.2207 28.3487 40.0157 28.3487C38.8892 28.3487 37.3032 29.456 36.7867 29.8836L36.0664 28.996C36.1554 28.9223 38.2565 27.2029 40.0164 27.2029C41.8951 27.2029 42.6188 28.3992 42.648 28.4503L42.1587 28.7424L41.6754 29.0425ZM39.6865 30.1576C39.6865 29.7626 40.0463 29.4426 40.4897 29.4426C40.9339 29.4426 41.295 29.7626 41.295 30.1583C41.295 30.5533 40.9339 30.8733 40.4897 30.8733C40.0463 30.8733 39.6865 30.5533 39.6865 30.1583V30.1576Z" fill="url(#paint0_linear)"/>
<defs>
<linearGradient id="paint0_linear" x2="1" gradientUnits="userSpaceOnUse" gradientTransform="translate(32.5) scale(65) rotate(90)">
<stop stop-color="#F8D175"/>
<stop offset="1" stop-color="#D1AE52"/>
</linearGradient>
</defs>
</svg>
