<svg width="65" height="65" viewBox="0 0 65 65" fill="none" xmlns="http://www.w3.org/2000/svg">
<path fill-rule="evenodd" clip-rule="evenodd" d="M32.5 65C50.4492 65 65 50.4492 65 32.5C65 14.5508 50.4492 0 32.5 0C14.5508 0 0 14.5508 0 32.5C0 50.4492 14.5508 65 32.5 65ZM35.5 44C41.5751 44 46.5 39.0751 46.5 33C46.5 26.9249 41.5751 22 35.5 22C32.8989 22 30.5087 22.9028 28.6255 24.4122L37.5 29.5359C40.1666 31.0755 40.1666 34.9245 37.5 36.4641L28.6255 41.5878C30.5087 43.0972 32.8989 44 35.5 44ZM37 35.5981L23.5 43.3923C21.5 44.547 19 43.1036 19 40.7942V25.2058C19 22.8964 21.5 21.453 23.5 22.6077L37 30.4019C39 31.5566 39 34.4434 37 35.5981Z" fill="url(#paint0_linear)"/>
<defs>
<linearGradient id="paint0_linear" x2="1" gradientUnits="userSpaceOnUse" gradientTransform="translate(65) scale(65) rotate(90)">
<stop stop-color="#FFA900"/>
<stop offset="0.458564" stop-color="#FFB977"/>
<stop offset="1" stop-color="#004EFF"/>
</linearGradient>
</defs>
</svg>
