<svg width="65" height="65" viewBox="0 0 65 65" fill="none" xmlns="http://www.w3.org/2000/svg">
<path fill-rule="evenodd" clip-rule="evenodd" d="M0 32.5C0 14.5508 14.5506 0 32.5 0C50.4492 0 65 14.5508 65 32.5C65 50.4494 50.4492 65 32.5 65C14.5506 65 0 50.4494 0 32.5ZM30.8855 17.0001H21.443L18.4583 26.7991H27.9008L30.8855 17.0001ZM12.0005 48.0001L16.4504 33.391H25.8929L21.443 48.0001H12.0005ZM25.7189 43.1898L28.7185 33.391H36.409H38.9033H39.2023C41.3084 33.391 43.0598 31.7991 43.5698 30.0951C44.0797 28.391 43.1929 26.7991 41.5523 26.7991H38.9033H38.4042H30.7364L33.7361 17.0001H46.3855C52.9775 17.0001 56.5407 23.3248 54.4919 30.0949C52.443 36.8651 45.4057 43.1898 36.943 43.1898H25.7189Z" fill="url(#paint0_linear)"/>
<defs>
<linearGradient id="paint0_linear" x1="0.000488162" y1="3.08154" x2="0.000488162" y2="49.1316" gradientUnits="userSpaceOnUse">
<stop stop-color="#58A9FF"/>
<stop offset="1" stop-color="#2B85E3"/>
</linearGradient>
</defs>
</svg>
