<svg width="65" height="65" viewBox="0 0 65 65" fill="none" xmlns="http://www.w3.org/2000/svg">
<path fill-rule="evenodd" clip-rule="evenodd" d="M32.5 65C50.4492 65 65 50.4492 65 32.5C65 14.5508 50.4492 0 32.5 0C14.5508 0 0 14.5508 0 32.5C0 50.4492 14.5508 65 32.5 65ZM42.5751 21.5714L37.5271 19L34.2917 19.6663L24.4517 27.691L19.752 29.2843L17.7252 31.1372H14.3179L12.3206 34.6438L10 35.0783L12.3206 35.3391L14.5236 32.7607L17.7252 33.3981C17.7252 33.3981 18.0776 35.9764 16.9908 37.9174C15.9041 39.8584 15.1697 44.4066 15.1697 44.4066L14.1123 46L16.7264 45.5654L16.4034 44.088L18.6945 39.6556L23.0125 37.9174L24.4517 35.3391L27.2715 33.3981L32.7639 34.383L37.9341 32.0365L37.1116 35.5998H34.6741L33.9941 38.8734L36.3773 37.338L39.6671 36.1212L42.4869 31.7178L42.5751 29.9135L43.8381 31.1372L48.3029 33.9195L50.7996 32.9056L50.5646 27.2564L50.0653 25.2934L53.032 24.608L55 21.8988V20.1298L54.4125 21.4335L52.1508 23.78L49.2135 23.9552L48.5378 23.3472L50.7996 20.1298L53.7369 19H50.7996L46.4524 21.8988L42.5751 21.5714Z" fill="url(#paint0_linear)"/>
<defs>
<linearGradient id="paint0_linear" x2="1" gradientUnits="userSpaceOnUse" gradientTransform="translate(65) scale(65) rotate(90)">
<stop stop-color="white"/>
<stop offset="1" stop-color="#8785FF"/>
</linearGradient>
</defs>
</svg>
