<svg width="65" height="65" viewBox="0 0 65 65" fill="none" xmlns="http://www.w3.org/2000/svg">
<path fill-rule="evenodd" clip-rule="evenodd" d="M32.5 0C14.5506 0 0 14.5508 0 32.5C0 50.4492 14.5506 65 32.5 65C50.4492 65 65 50.4492 65 32.5C65 14.5508 50.4492 0 32.5 0ZM33.0236 18.8244C30.6839 18.8244 28.7868 17.5212 28.7868 15.9122C28.7868 14.3032 30.6839 13 33.0236 13C35.3633 13 37.2585 14.3032 37.2585 15.9122C37.2585 17.5212 35.3633 18.8244 33.0236 18.8244ZM30.8314 51.3315V20.2254H40.2756C40.6259 20.2254 40.873 20.4868 40.873 20.837V38.0968C40.873 38.4453 40.6241 38.744 40.2756 38.744H35.0699V51.3315C35.0699 51.6818 34.8032 52 34.453 52H31.4875C31.127 51.986 30.8396 51.694 30.8314 51.3333V51.3315ZM29.2384 38.7422H25.6648C25.3059 38.7387 25.0132 38.4537 24.9999 38.0951V20.837C24.9999 20.4868 25.3146 20.2254 25.6631 20.2254H29.2384V38.744V38.7422Z" fill="url(#paint0_linear)"/>
<defs>
<linearGradient id="paint0_linear" x2="1" gradientUnits="userSpaceOnUse" gradientTransform="translate(32.5 65) scale(65) rotate(-90)">
<stop stop-color="#8785FF"/>
<stop offset="1" stop-color="white"/>
</linearGradient>
</defs>
</svg>
