<svg width="65" height="65" viewBox="0 0 65 65" fill="none" xmlns="http://www.w3.org/2000/svg">
<path fill-rule="evenodd" clip-rule="evenodd" d="M32.5 0C14.5506 0 0 14.5508 0 32.5C0 50.4492 14.5506 65 32.5 65C50.4492 65 65 50.4492 65 32.5C65 14.5508 50.4492 0 32.5 0ZM51.981 32.1248C51.9847 32.1181 51.9847 32.11 51.981 32.1033L47.917 28.0393V16.5447H47.8997V16.5274H39.1749V16.5364H39.1666V19.331L32.8381 13L17.0173 28.8167L17.0107 28.8274C17.0046 28.8294 17.0004 28.835 17 28.8414V47.9522H47.8305V36.3174L52 32.1479L51.981 32.1248ZM23.3475 45.8089H19.1433V29.7226L32.8348 16.0303L38.794 21.9895C38.9927 22.8566 39.1174 23.7391 39.1666 24.6274V25.2522H39.1848C39.2095 32.8362 32.0369 38.1227 25.6556 37.3956C24.8807 37.3074 24.213 37.1434 23.3475 36.9093V45.8089ZM45.6922 35.4222C45.6879 35.4263 45.6855 35.4319 45.6856 35.4378V45.8089H25.4891V39.7681C25.7414 39.7821 26.0002 39.7887 26.2723 39.7887C34.5808 39.7887 41.3165 33.4965 41.3165 25.7337C41.3165 25.5729 41.3165 25.4138 41.3075 25.2547V18.6682H45.7672V28.9099C45.7606 28.918 45.7606 28.9297 45.7672 28.9379L48.9706 32.1413L45.6922 35.4222Z" fill="url(#paint0_linear)"/>
<defs>
<linearGradient id="paint0_linear" x2="1" gradientUnits="userSpaceOnUse" gradientTransform="translate(32.5 65) scale(65) rotate(-90)">
<stop stop-color="#2CACE2"/>
<stop offset="1" stop-color="#00C8DC"/>
</linearGradient>
</defs>
</svg>
