<svg width="65" height="65" viewBox="0 0 65 65" fill="none" xmlns="http://www.w3.org/2000/svg">
<path fill-rule="evenodd" clip-rule="evenodd" d="M32.5 0C14.5506 0 0 14.5508 0 32.5C0 50.4492 14.5506 65 32.5 65C50.4492 65 65 50.4492 65 32.5C65 14.5508 50.4492 0 32.5 0ZM51.8389 35.5263H44.6547C43.821 42.1069 39.8278 47.5369 34.4656 49.7944C27.035 48.8727 21.2105 41.7097 21.2105 32.9605C21.2105 24.2113 27.035 17.0483 34.4657 16.1266C39.8278 18.3842 43.821 23.8141 44.6547 30.3947H51.8389C50.7362 21.6908 44.1062 15 36.0921 15C34.8568 15 33.6544 15.159 32.5 15.4598C31.3456 15.159 30.1432 15 28.9079 15C20.1222 15 13 23.0412 13 32.9605C13 42.8799 20.1222 50.9211 28.9079 50.9211C30.1432 50.9211 31.3456 50.7621 32.5 50.4612C33.6544 50.7621 34.8568 50.9211 36.0921 50.9211C44.1062 50.9211 50.7362 44.2302 51.8389 35.5263ZM30.5349 49.7947C24.4897 47.2498 20.1842 40.6729 20.1842 32.9605C20.1842 25.2482 24.4896 18.6712 30.5349 16.1263C29.9976 16.0598 29.4548 16.0263 28.9079 16.0263C20.7186 16.0263 14.0263 23.5822 14.0263 32.9605C14.0263 42.3389 20.7186 49.8947 28.9079 49.8947C29.4548 49.8947 29.9977 49.8612 30.5349 49.7947Z" fill="url(#paint0_linear)"/>
<defs>
<linearGradient id="paint0_linear" x2="1" gradientUnits="userSpaceOnUse" gradientTransform="translate(32.5) scale(65) rotate(90)">
<stop stop-color="white"/>
<stop offset="1" stop-color="#8785FF"/>
</linearGradient>
</defs>
</svg>
