<svg width="65" height="65" viewBox="0 0 65 65" fill="none" xmlns="http://www.w3.org/2000/svg">
<path fill-rule="evenodd" clip-rule="evenodd" d="M32.5 0C14.5505 0 0 14.5508 0 32.5C0 50.4492 14.5505 65 32.5 65C50.4492 65 65 50.4492 65 32.5C65 14.5508 50.4492 0 32.5 0ZM51.8389 35.5264H44.6547C43.8209 42.1069 39.8279 47.5366 34.4658 49.7944C27.0352 48.8728 21.2106 41.7097 21.2106 32.9604C21.2106 24.2114 27.0352 17.0483 34.4658 16.1267C39.8279 18.3845 43.8209 23.8142 44.6547 30.3948H51.8389C50.7362 21.6909 44.1062 15 36.0922 15C36.015 15 35.9379 15.0007 35.861 15.002C34.7068 15.0205 33.5823 15.1777 32.5 15.4597C31.3457 15.1589 30.1431 15 28.9078 15C20.1222 15 13 23.0413 13 32.9604C13 42.8799 20.1222 50.9211 28.9078 50.9211C30.1431 50.9211 31.3457 50.7622 32.5 50.4614C33.5823 50.7434 34.7068 50.9006 35.861 50.9192C35.9379 50.9204 36.015 50.9211 36.0922 50.9211C44.1062 50.9211 50.7362 44.2302 51.8389 35.5264ZM30.5347 49.7947C24.4894 47.2498 20.1842 40.6726 20.1842 32.9604C20.1842 25.2483 24.4895 18.6714 30.5347 16.1265C29.9976 16.0601 29.4547 16.0264 28.9078 16.0264C20.7186 16.0264 14.0264 23.5823 14.0264 32.9604C14.0264 42.3389 20.7186 49.8948 28.9078 49.8948C29.4547 49.8948 29.9974 49.8611 30.5347 49.7947Z" fill="url(#paint0_linear)"/>
<defs>
<linearGradient id="paint0_linear" x2="1" gradientUnits="userSpaceOnUse" gradientTransform="translate(32.5) scale(65) rotate(90)">
<stop stop-color="#ACACAC"/>
<stop offset="1" stop-color="#555555"/>
</linearGradient>
</defs>
</svg>
