<svg width="65" height="65" viewBox="0 0 65 65" fill="none" xmlns="http://www.w3.org/2000/svg">
<path fill-rule="evenodd" clip-rule="evenodd" d="M32.5 0C14.5506 0 0 14.5508 0 32.5C0 50.4492 14.5506 65 32.5 65C50.4492 65 65 50.4492 65 32.5C65 14.5508 50.4492 0 32.5 0ZM10.3013 39V26.1152H14.4761C16.0581 26.1152 17.0894 26.1797 17.5698 26.3086C18.3081 26.502 18.9263 26.9224 19.4243 27.5698C19.9224 28.2173 20.1714 29.0537 20.1714 30.0791C20.1714 30.8701 20.0278 31.5352 19.7407 32.0742C19.4536 32.6133 19.0889 33.0366 18.6465 33.3442C18.2041 33.6519 17.7544 33.8555 17.2974 33.9551C16.6763 34.0781 15.7769 34.1396 14.5991 34.1396H12.9028V39H10.3013ZM12.9028 28.2949V31.9512H14.3267C15.3521 31.9512 16.0376 31.8838 16.3833 31.749C16.729 31.6143 17 31.4033 17.1963 31.1162C17.3926 30.8291 17.4907 30.4951 17.4907 30.1143C17.4907 29.6455 17.353 29.2588 17.0776 28.9541C16.8022 28.6494 16.4536 28.459 16.0317 28.3828C15.7212 28.3242 15.0972 28.2949 14.1597 28.2949H12.9028ZM22.3159 39V26.1152H27.7915C29.1685 26.1152 30.1689 26.231 30.793 26.4624C31.417 26.6938 31.9165 27.1055 32.2915 27.6973C32.6665 28.2891 32.854 28.9658 32.854 29.7275C32.854 30.6943 32.5698 31.4927 32.0015 32.1226C31.4331 32.7524 30.5835 33.1494 29.4526 33.3135C30.0151 33.6416 30.4795 34.0019 30.8457 34.3945C31.2119 34.7871 31.7056 35.4844 32.3267 36.4863L33.8999 39H30.7886L28.9077 36.1963C28.2397 35.1943 27.7827 34.563 27.5366 34.3022C27.2905 34.0415 27.0298 33.8628 26.7544 33.7661C26.479 33.6694 26.0425 33.6211 25.4448 33.6211H24.9175V39H22.3159ZM24.9175 31.5645H26.8423C28.0903 31.5645 28.8696 31.5117 29.1802 31.4062C29.4907 31.3008 29.7339 31.1191 29.9097 30.8613C30.0854 30.6035 30.1733 30.2813 30.1733 29.8945C30.1733 29.4609 30.0576 29.1108 29.8262 28.8442C29.5947 28.5776 29.2681 28.4092 28.8462 28.3389C28.6353 28.3096 28.0024 28.2949 26.9478 28.2949H24.9175V31.5645ZM34.647 34.8076L37.1782 34.5615C37.3306 35.4111 37.6396 36.0352 38.1055 36.4336C38.5713 36.832 39.1997 37.0312 39.9907 37.0312C40.8286 37.0312 41.46 36.854 41.8848 36.4995C42.3096 36.145 42.522 35.7305 42.522 35.2559C42.522 34.9512 42.4326 34.6919 42.2539 34.478C42.0752 34.2642 41.7632 34.0781 41.3179 33.9199C41.0132 33.8145 40.3189 33.627 39.2349 33.3574C37.8403 33.0117 36.8618 32.5869 36.2993 32.083C35.5083 31.374 35.1128 30.5098 35.1128 29.4902C35.1128 28.834 35.2988 28.2202 35.6709 27.6489C36.043 27.0776 36.5791 26.6426 37.2793 26.3438C37.9795 26.0449 38.8247 25.8955 39.8149 25.8955C41.4321 25.8955 42.6494 26.25 43.4668 26.959C44.2842 27.668 44.7134 28.6143 44.7544 29.7979L42.1528 29.9121C42.0415 29.25 41.8027 28.7739 41.4365 28.4839C41.0703 28.1938 40.521 28.0488 39.7886 28.0488C39.0327 28.0488 38.4409 28.2041 38.0132 28.5146C37.7378 28.7139 37.6001 28.9805 37.6001 29.3145C37.6001 29.6191 37.729 29.8799 37.9868 30.0967C38.3149 30.3721 39.1118 30.6592 40.3774 30.958C41.6431 31.2568 42.5791 31.5659 43.1855 31.8853C43.792 32.2046 44.2666 32.6411 44.6094 33.1948C44.9521 33.7485 45.1235 34.4326 45.1235 35.2471C45.1235 35.9854 44.9185 36.6768 44.5083 37.3213C44.0981 37.9658 43.5181 38.4448 42.7681 38.7583C42.0181 39.0718 41.0835 39.2285 39.9644 39.2285C38.3354 39.2285 37.0845 38.8521 36.2114 38.0991C35.3384 37.3462 34.8169 36.249 34.647 34.8076ZM47.312 39V26.1152H51.4868C53.0689 26.1152 54.1001 26.1797 54.5806 26.3086C55.3189 26.502 55.937 26.9224 56.4351 27.5698C56.9331 28.2173 57.1821 29.0537 57.1821 30.0791C57.1821 30.8701 57.0386 31.5352 56.7515 32.0742C56.4644 32.6133 56.0996 33.0366 55.6572 33.3442C55.2148 33.6519 54.7651 33.8555 54.3081 33.9551C53.687 34.0781 52.7876 34.1396 51.6099 34.1396H49.9136V39H47.312ZM49.9136 28.2949V31.9512H51.3374C52.3628 31.9512 53.0483 31.8838 53.394 31.749C53.7397 31.6143 54.0107 31.4033 54.207 31.1162C54.4033 30.8291 54.5015 30.4951 54.5015 30.1143C54.5015 29.6455 54.3638 29.2588 54.0884 28.9541C53.813 28.6494 53.4644 28.459 53.0425 28.3828C52.7319 28.3242 52.1079 28.2949 51.1704 28.2949H49.9136Z" fill="url(#paint0_linear)"/>
<defs>
<linearGradient id="paint0_linear" x2="1" gradientUnits="userSpaceOnUse" gradientTransform="translate(32.5) scale(65) rotate(90)">
<stop stop-color="white"/>
<stop offset="1" stop-color="#8785FF"/>
</linearGradient>
</defs>
</svg>
