<svg width="65" height="65" viewBox="0 0 65 65" fill="none" xmlns="http://www.w3.org/2000/svg">
<path fill-rule="evenodd" clip-rule="evenodd" d="M32.5 0C14.5506 0 0 14.5508 0 32.5C0 50.4492 14.5506 65 32.5 65C50.4492 65 65 50.4492 65 32.5C65 14.5508 50.4492 0 32.5 0ZM21.6768 40V25.6836H26.3154C28.0733 25.6836 29.2191 25.7552 29.7529 25.8984C30.5732 26.1133 31.2601 26.5804 31.8135 27.2998C32.3669 28.0192 32.6436 28.9486 32.6436 30.0879C32.6436 30.9668 32.4841 31.7057 32.165 32.3047C31.846 32.9036 31.4408 33.374 30.9492 33.7158C30.4577 34.0576 29.958 34.2839 29.4502 34.3945C28.7601 34.5312 27.7607 34.5996 26.4521 34.5996H24.5674V40H21.6768ZM24.5674 28.1055V32.168H26.1494C27.2887 32.168 28.0505 32.0931 28.4346 31.9434C28.8187 31.7936 29.1198 31.5592 29.3379 31.2402C29.556 30.9212 29.665 30.5501 29.665 30.127C29.665 29.6061 29.512 29.1764 29.2061 28.8379C28.9001 28.4993 28.5127 28.2878 28.0439 28.2031C27.6989 28.138 27.0055 28.1055 25.9639 28.1055H24.5674ZM38.2393 40V28.1055H33.9912V25.6836H45.3682V28.1055H41.1299V40H38.2393Z" fill="url(#paint0_linear)"/>
<defs>
<linearGradient id="paint0_linear" x2="1" gradientUnits="userSpaceOnUse" gradientTransform="translate(32.5) scale(65) rotate(90)">
<stop stop-color="white"/>
<stop offset="1" stop-color="#8785FF"/>
</linearGradient>
</defs>
</svg>
