<svg width="65" height="65" viewBox="0 0 65 65" fill="none" xmlns="http://www.w3.org/2000/svg">
<path fill-rule="evenodd" clip-rule="evenodd" d="M32.5 65C50.4492 65 65 50.4493 65 32.5C65 14.5507 50.4492 0 32.5 0C14.5508 0 0 14.5507 0 32.5C0 50.4493 14.5508 65 32.5 65ZM16.1864 40.7832V35.2222H18.9799C20.8138 35.2222 22.2477 34.7778 23.2815 33.8889C24.3224 32.9928 24.8428 31.7715 24.8428 30.2249C24.8428 29.206 24.6056 28.299 24.1312 27.5041C23.6567 26.7019 22.9769 26.084 22.0919 25.6504C21.2139 25.2168 20.1942 25 19.033 25H13V40.7832H16.1864ZM19.033 32.5881H16.1864V27.6341H19.1073C19.8933 27.6486 20.5093 27.8943 20.9554 28.3713C21.4015 28.8482 21.6245 29.4733 21.6245 30.2466C21.6245 30.9982 21.4015 31.5763 20.9554 31.981C20.5164 32.3857 19.8756 32.5881 19.033 32.5881ZM38.7461 35.3956V25H35.5492V35.504C35.5208 37.4264 34.611 38.3875 32.8195 38.3875C31.9628 38.3875 31.29 38.1526 30.8014 37.6829C30.3199 37.206 30.0791 36.4507 30.0791 35.4173V25H26.8927V35.5149C26.9139 37.2204 27.4557 38.561 28.5178 39.5366C29.58 40.5121 31.0138 41 32.8195 41C34.6533 41 36.0979 40.4977 37.153 39.4931C38.2152 38.4887 38.7461 37.1228 38.7461 35.3956ZM48.2628 27.6341H53V25H40.4031V27.6341H45.0764V40.7832H48.2628V27.6341Z" fill="url(#paint0_linear)"/>
<defs>
<linearGradient id="paint0_linear" x2="1" gradientUnits="userSpaceOnUse" gradientTransform="translate(65) scale(65) rotate(90)">
<stop stop-color="white"/>
<stop offset="1" stop-color="#8785FF"/>
</linearGradient>
</defs>
</svg>
