<svg width="65" height="65" viewBox="0 0 65 65" fill="none" xmlns="http://www.w3.org/2000/svg">
<path fill-rule="evenodd" clip-rule="evenodd" d="M65 32.5C65 50.4492 50.4492 65 32.5 65C14.5508 65 0 50.4492 0 32.5C0 14.5508 14.5508 0 32.5 0C50.4492 0 65 14.5508 65 32.5ZM32.5 8C18.9724 8 8 18.9724 8 32.5C8 46.0276 18.9724 57 32.5 57C46.0276 57 57 46.0276 57 32.5C57 18.9724 46.0276 8 32.5 8ZM55.7548 31.4973L53.7738 31.5135L53.7656 30.6807L55.7467 30.6645L55.7548 31.4973ZM55.2454 27.2119L53.2805 27.4868L53.1674 26.662L55.1322 26.3871L55.2454 27.2119ZM53.5554 21.9965L53.895 22.7566L52.0919 23.5814L51.7523 22.8294L53.5554 21.9965ZM51.0731 18.2205L51.6229 18.8431L50.1351 20.153L49.5853 19.5304L51.0731 18.2205ZM48.1703 15.1236L48.801 15.6653L47.5072 17.1693L46.8766 16.6276L48.1703 15.1236ZM44.7096 12.3178L45.4049 12.7706L44.3214 14.4363L43.6261 13.9835L44.7096 12.3178ZM40.7637 10.3691L41.5642 10.5794L41.0629 12.4957L40.2623 12.2855L40.7637 10.3691ZM36.4297 9.30991L37.2544 9.38266L37.0928 11.3637L36.2679 11.2909L36.4297 9.30991ZM31.9502 8.78433H32.783V10.7654H31.9502V8.78433ZM28.2631 9.30991L28.4248 11.2909L27.6 11.3637L27.4382 9.38266L28.2631 9.30991ZM23.9291 10.3691L24.4304 12.2855L23.6299 12.4957L23.1285 10.5875L23.9291 10.3691ZM19.9912 12.3178L21.0667 13.9835L20.3713 14.4363L19.2959 12.7706L19.9912 12.3178ZM16.5225 15.1236L17.8162 16.6276L17.1854 17.1693L15.8917 15.6653L16.5225 15.1236ZM13.6196 18.2205L15.1074 19.5304L14.5576 20.153L13.0698 18.8431L13.6196 18.2205ZM11.1454 21.9965L12.9485 22.8213L12.6089 23.5733L10.8058 22.7485L11.1454 21.9965ZM9.5686 26.3952L11.5334 26.6701L11.4203 27.4868L9.45544 27.2119L9.5686 26.3952ZM8.9541 30.6645L10.9352 30.6807L10.9271 31.5135L8.94604 31.4973L8.9541 30.6645ZM9.13196 35.33L11.105 35.1279L11.1858 35.9526L9.21289 36.1548L9.13196 35.33ZM10.0295 39.5508L11.962 39.098L12.1481 39.9066L10.2155 40.3594L10.0295 39.5508ZM12.1965 44.5883L11.7842 43.8687L13.5065 42.8822L13.9188 43.6018L12.1965 44.5883ZM15.0023 48.1218L14.3959 47.5477L15.7623 46.1084L16.3688 46.6825L15.0023 48.1218ZM18.1801 50.9437L17.5009 50.4586L18.649 48.8414L19.3282 49.3266L18.1801 50.9437ZM21.8833 53.418L21.1476 53.0299L22.0693 51.2752L22.8052 51.6634L21.8833 53.418ZM25.991 54.9947L25.1743 54.8573L25.4977 52.9005L26.3143 53.038L25.991 54.9947ZM29.5729 55.6658L29.5568 53.6848L30.3896 53.6767L30.4058 55.6577L29.5729 55.6658ZM11.873 32.5C11.873 21.1313 21.1313 11.8731 32.5 11.8731C43.8687 11.8731 53.127 21.1233 53.127 32.5C53.127 43.8687 43.8767 53.1269 32.5 53.1269C21.1313 53.1269 11.873 43.8687 11.873 32.5ZM34.1172 55.8437H34.0929L33.915 53.8708L34.7397 53.798H34.764L34.9419 55.771L34.1172 55.8437ZM38.54 54.9138L38.1924 52.9571L39.009 52.8116L39.3568 54.7683L38.54 54.9138ZM42.7528 53.4584L42.0736 51.5906L42.8579 51.3076L43.5371 53.1754L42.7528 53.4584ZM46.5046 51.162L45.2756 49.6015L45.9305 49.084L47.1595 50.6446L46.5046 51.162ZM49.6904 48.049L48.2673 46.6744L48.8414 46.0761L50.2645 47.4507L49.6904 48.049ZM52.3021 44.7015L50.7012 43.5371L51.1863 42.866L52.7874 44.0304L52.3021 44.7015ZM54.4207 40.7071L52.5447 40.0522L52.8196 39.2678L54.6956 39.9228L54.4207 40.7071ZM55.593 36.1952L53.6121 36.1063L53.6525 35.2734L55.6335 35.3624L55.593 36.1952ZM40.5974 43.0707L41.2119 43.6933C41.5435 44.0491 41.5515 44.5908 41.2362 44.9223C40.9127 45.2458 40.371 45.2296 40.0153 44.89L39.4008 44.2674L37.9938 42.8443C37.0963 43.2809 36.0936 43.4831 35.0668 43.4426H31.1936C27.6843 43.5639 24.4501 41.8174 24.7087 36.125C24.7146 35.9524 24.704 34.351 24.6974 33.3542C24.6947 32.9501 24.6926 32.6453 24.6926 32.5753C24.6926 32.4581 24.6946 31.9426 24.6967 31.4271C24.6987 30.9117 24.7007 30.3962 24.7007 30.2789C24.6926 24.5946 26.0834 22.0233 29.908 21.1096C30.3365 21.0126 32.7057 20.956 33.1584 20.956H33.3606C33.8135 20.956 35.8995 21.0045 36.3362 21.1096C40.1608 22.0233 41.5515 24.6027 41.5435 30.2789C41.5435 30.3952 41.5454 30.9009 41.5475 31.411C41.5494 31.9298 41.5515 32.453 41.5515 32.5753C41.5515 32.6453 41.5494 32.9501 41.5468 33.3542C41.5402 34.351 41.5295 35.9524 41.5354 36.125C41.6729 39.1976 40.7915 40.5317 39.4008 41.8578L40.5974 43.0707ZM30.9348 41.6233H35.2931C35.7297 41.6233 36.1744 41.5586 36.6354 41.4373L35.843 40.6368L35.2284 40.0143C34.897 39.6585 34.8807 39.1167 35.2123 38.7933C35.5356 38.4698 36.0774 38.4779 36.4332 38.8175L37.0477 39.4402L38.1555 40.5641C38.1929 40.5321 38.2267 40.4966 38.2616 40.4599C38.2797 40.4409 38.298 40.4217 38.3173 40.4024C39.3522 39.3108 39.8455 38.4052 39.7484 36.1978C39.7404 36.0441 39.7404 36.036 39.7565 33.2707V31.0147C39.7505 30.3194 39.749 30.3142 39.7485 30.3089L39.7484 30.2708C39.7484 27.7562 39.4655 25.5649 38.8508 24.5784C38.4871 23.9882 37.8563 23.3332 35.9562 22.8723C35.5842 22.8157 33.9427 22.7591 33.3687 22.7591H33.1665C32.5924 22.7591 30.6761 22.8157 30.3042 22.8723C28.4041 23.3332 27.7733 23.9962 27.4094 24.5784C26.7949 25.5649 26.512 27.7562 26.512 30.2708C26.512 30.3058 26.5114 30.3071 26.5105 30.3091C26.5082 30.3143 26.5039 30.3241 26.5039 31.0147V32.5672V33.2707C26.52 36.036 26.52 36.0441 26.512 36.1978C26.4069 38.4052 26.9081 39.3189 27.9431 40.4024C28.9053 41.4131 30.1021 41.6233 30.9348 41.6233Z" fill="url(#paint0_linear)"/>
<defs>
<linearGradient id="paint0_linear" x2="1" gradientUnits="userSpaceOnUse" gradientTransform="translate(65) scale(65) rotate(90)">
<stop stop-color="#43BBFF"/>
<stop offset="1" stop-color="#0047FF"/>
</linearGradient>
</defs>
</svg>
