<svg width="65" height="65" viewBox="0 0 65 65" fill="none" xmlns="http://www.w3.org/2000/svg">
<path fill-rule="evenodd" clip-rule="evenodd" d="M32.5 0C14.5506 0 0 14.5508 0 32.5C0 50.4492 14.5506 65 32.5 65C50.4492 65 65 50.4492 65 32.5C65 14.5508 50.4492 0 32.5 0ZM52.1898 42.3006C51.7706 42.3033 51.4314 42.6425 51.4287 43.0617V45.3449H41.6084L41.5838 43.8964C47.2308 39.9291 49.6551 32.7595 47.5747 26.1793C45.4943 19.599 39.389 15.1262 32.4877 15.1262C25.5864 15.1262 19.4812 19.599 17.4008 26.1793C15.3203 32.7595 17.7446 39.9291 23.3916 43.8964H23.4162L23.3916 45.3204H13.5713V43.0371C13.5713 42.6168 13.2305 42.276 12.8102 42.276C12.3898 42.276 12.0491 42.6168 12.0491 43.0371V46.818H24.8892L24.9383 43.5281C24.936 43.2198 24.7536 42.9414 24.4719 42.8162C24.4267 42.7332 24.3585 42.665 24.2754 42.6198C20.4294 39.9732 18.1337 35.6022 18.1377 30.9335C18.1393 24.1032 22.9589 18.2223 29.6558 16.8791C36.3527 15.5358 43.0674 19.1032 45.7029 25.4046C48.3384 31.706 46.1628 38.9917 40.5036 42.8162C40.4403 42.8671 40.3827 42.9248 40.3317 42.988C40.1622 43.1267 40.0633 43.3337 40.0617 43.5527L40.1108 46.8425H52.9509V43.0617C52.9482 42.6425 52.609 42.3033 52.1898 42.3006ZM42.0503 32.0408C41.7356 31.6463 41.3995 31.2693 41.0437 30.9114C41.3995 30.5536 41.7356 30.1766 42.0503 29.7821C43.7443 27.6953 44.2599 25.854 43.5234 24.5773C42.9587 23.6198 41.7557 23.1042 40.0126 23.1042C38.9176 23.1301 37.8297 23.2867 36.7719 23.5707C35.8389 20.3054 34.2922 18.2186 32.5246 18.2186C30.7569 18.2186 29.2102 20.3054 28.2527 23.5462C27.1949 23.2621 26.1069 23.1055 25.012 23.0797C23.2689 23.0797 22.0659 23.5953 21.5012 24.5528C20.7647 25.8294 21.2802 27.6707 22.9743 29.7575C23.289 30.152 23.625 30.529 23.9808 30.8869C21.624 33.3174 20.5928 35.6989 21.5012 37.221C22.0659 38.1785 23.2689 38.6941 25.012 38.6941C26.1069 38.6682 27.1949 38.5116 28.2527 38.2276C29.1856 41.4683 30.7323 43.5551 32.5 43.5551C34.2677 43.5551 35.8144 41.4683 36.7719 38.2276C37.8297 38.5116 38.9176 38.6682 40.0126 38.6941C41.7557 38.6941 42.9587 38.1785 43.5234 37.221C44.2599 35.9935 43.7443 34.1276 42.0503 32.0408ZM40.0371 24.0126C40.9946 24.0126 42.2467 24.1845 42.7132 25.0192C43.2287 25.9276 42.7132 27.4252 41.3138 29.1683C41.0192 29.512 40.7 29.8803 40.3563 30.224C39.4787 29.415 38.5522 28.6606 37.582 27.9653C37.4692 26.7761 37.2806 25.5952 37.0174 24.43C38.0062 24.1838 39.0186 24.0439 40.0371 24.0126ZM34.6359 34.5941C33.9445 35.0008 33.2315 35.3696 32.5 35.6989C31.788 35.3551 31.0761 34.9869 30.3641 34.5695C29.6521 34.1522 28.9647 33.7348 28.3264 33.2929C28.2773 32.5318 28.2281 31.7216 28.2281 30.8869C28.2281 30.0522 28.2527 29.242 28.3264 28.4809C28.9647 28.039 29.6276 27.6216 30.3641 27.2043C31.0555 26.7975 31.7685 26.4287 32.5 26.0995C33.212 26.4432 33.924 26.8114 34.6359 27.2043C35.3479 27.6216 36.0353 28.039 36.6737 28.4809C36.7228 29.242 36.7719 30.0522 36.7719 30.8869C36.7719 31.7216 36.7473 32.5072 36.6737 33.2929C36.0353 33.7348 35.3479 34.1767 34.6359 34.5941ZM36.5755 34.5204C36.4527 35.4534 36.3054 36.3126 36.1335 37.1228C35.2894 36.8705 34.4613 36.5671 33.6539 36.2144C34.1449 35.9689 34.6359 35.6989 35.127 35.4043C35.618 35.1096 36.0844 34.815 36.5755 34.5204ZM31.3952 36.2144C30.5863 36.5632 29.7584 36.8665 28.9156 37.1228C28.7085 36.2666 28.5608 35.397 28.4737 34.5204C28.9401 34.815 29.4311 35.1096 29.9222 35.4043L31.3952 36.2144ZM27.3689 32.5809C26.659 32.0541 25.9788 31.4886 25.3311 30.8869C25.9746 30.2805 26.6551 29.7147 27.3689 29.1929C27.3443 29.7575 27.3198 30.2977 27.3198 30.8869C27.3198 31.4761 27.3443 32.0408 27.3689 32.5809ZM28.4737 27.3025C28.5964 26.3695 28.7437 25.5102 28.9156 24.7001C29.7597 24.9524 30.5878 25.2558 31.3952 25.6084C30.9042 25.854 30.4132 26.124 29.8976 26.4186C29.382 26.7132 28.9401 26.9833 28.4737 27.3025ZM33.6293 25.6084C34.4383 25.2597 35.2661 24.9564 36.109 24.7001C36.3161 25.5563 36.4637 26.4258 36.5509 27.3025C36.0844 27.0078 35.5934 26.7132 35.1024 26.4186C34.6114 26.124 34.1203 25.854 33.6293 25.6084ZM37.6802 29.2174C38.3881 29.7368 39.0606 30.3028 39.6934 30.9114C39.0796 31.4761 38.3922 32.0408 37.6802 32.6054C37.7048 32.0653 37.7293 31.5007 37.7293 30.9114C37.7293 30.3222 37.7048 29.7821 37.6802 29.2174ZM32.5245 19.1516C33.7521 19.1516 35.0533 20.8701 35.888 23.7917C34.7402 24.1423 33.6166 24.5679 32.5245 25.0659C31.4326 24.5671 30.309 24.1406 29.1611 23.7892C29.9958 20.8701 31.2724 19.1516 32.5245 19.1516ZM22.3359 25.0192C22.8269 24.1845 24.0545 24.0126 25.012 24.0126C26.0314 24.0333 27.0449 24.1734 28.0317 24.43C27.7685 25.5952 27.5798 26.7761 27.4671 27.9653C26.4933 28.6551 25.5665 29.4088 24.6928 30.2216C24.3491 29.8533 24.0299 29.5096 23.7353 29.1413C22.3114 27.4498 21.7958 25.9276 22.3359 25.0192ZM25.012 37.7857C24.0545 37.7857 22.8024 37.6138 22.3359 36.7791C21.7222 35.6989 22.5569 33.7348 24.6683 31.5498C25.5431 32.3719 26.4787 33.1269 27.4671 33.8084C27.58 34.9969 27.7686 36.1769 28.0317 37.3413C27.0483 37.6178 26.0334 37.7671 25.012 37.7857ZM32.5245 42.6468C31.297 42.6468 29.9958 40.9282 29.1611 38.0066C30.309 37.6552 31.4326 37.2288 32.5245 36.73C33.6165 37.2288 34.7401 37.6552 35.888 38.0066C35.0533 40.9282 33.7521 42.6468 32.5245 42.6468ZM42.7132 36.7791C42.2222 37.6138 40.9946 37.7857 40.0371 37.7857C39.0177 37.765 38.0042 37.625 37.0174 37.3683C37.2806 36.2031 37.4692 35.0223 37.582 33.833C38.5559 33.1425 39.4827 32.3879 40.3563 31.5743C40.7 31.918 41.0192 32.2863 41.3138 32.63C42.7132 34.3731 43.2287 35.8953 42.7132 36.7791ZM32.5245 27.3025C30.5482 27.316 28.9557 28.9267 28.9647 30.9031C28.9737 32.8795 30.5808 34.4757 32.5572 34.4712C34.5336 34.4667 36.1335 32.8633 36.1335 30.8869C36.12 28.9033 34.5082 27.3024 32.5245 27.3025ZM32.5245 33.5629C31.0602 33.5629 29.873 32.3758 29.873 30.9114C29.873 29.4471 31.0602 28.2599 32.5245 28.2599C33.9889 28.2599 35.176 29.4471 35.176 30.9114C35.1653 32.3714 33.9845 33.5522 32.5245 33.5629Z" fill="url(#paint0_linear)"/>
<defs>
<linearGradient id="paint0_linear" x2="1" gradientUnits="userSpaceOnUse" gradientTransform="translate(32.5) scale(65) rotate(90)">
<stop stop-color="white"/>
<stop offset="1" stop-color="#8785FF"/>
</linearGradient>
</defs>
</svg>
