<svg width="65" height="65" viewBox="0 0 65 65" fill="none" xmlns="http://www.w3.org/2000/svg">
<path fill-rule="evenodd" clip-rule="evenodd" d="M32.5 0C14.5506 0 0 14.5508 0 32.5C0 50.4492 14.5506 65 32.5 65C50.4492 65 65 50.4492 65 32.5C65 14.5508 50.4492 0 32.5 0ZM23.25 32.5C23.25 27.4002 27.4002 23.25 32.5 23.25C37.5998 23.25 41.75 27.4002 41.75 32.5C41.75 33.8423 41.4561 35.1147 40.9401 36.2678L34.8351 30.1628L30.1649 34.8351L36.2699 40.9401C35.0847 41.4738 33.7998 41.7498 32.5 41.75C27.3937 41.7443 23.2557 37.6063 23.25 32.5ZM47.5323 32.5C47.5349 29.5966 46.6921 26.7553 45.1067 24.323L51 18.4277L46.5723 14L40.677 19.8953C38.3213 18.3639 35.5176 17.4677 32.5 17.4677C29.4824 17.4677 26.6787 18.3639 24.323 19.8933L18.4277 14L14 18.4277L19.8953 24.323C18.3639 26.6787 17.4677 29.4824 17.4677 32.5C17.4677 35.5176 18.366 38.3213 19.8953 40.677L14 46.5723L18.4277 51L24.323 45.1047C26.6787 46.6361 29.4824 47.5323 32.5 47.5323C35.5176 47.5323 38.3213 46.6361 40.677 45.1047L46.5723 51L51 46.5723L45.1047 40.677C46.6909 38.245 47.5344 35.4036 47.5323 32.5Z" fill="url(#paint0_linear)"/>
<defs>
<linearGradient id="paint0_linear" x2="1" gradientUnits="userSpaceOnUse" gradientTransform="translate(32.5) scale(65) rotate(90)">
<stop stop-color="white"/>
<stop offset="1" stop-color="#8785FF"/>
</linearGradient>
</defs>
</svg>
