<svg width="65" height="65" viewBox="0 0 65 65" fill="none" xmlns="http://www.w3.org/2000/svg">
<path fill-rule="evenodd" clip-rule="evenodd" d="M32.5 0C14.5506 0 0 14.5508 0 32.5C0 50.4492 14.5506 65 32.5 65C50.4492 65 65 50.4492 65 32.5C65 14.5508 50.4492 0 32.5 0ZM50.6541 46.6266L47.004 43.378L39.6188 48.9188C39.7069 49.1122 39.7524 49.3223 39.752 49.5348C39.7582 50.3365 39.1144 50.9919 38.3127 51C37.6151 50.9959 37.0195 50.4952 36.8956 49.8086H28.9221C28.7984 50.4945 28.2038 50.995 27.5069 51C26.7045 50.9929 26.0596 50.3372 26.0657 49.5348C26.0653 49.3237 26.1101 49.1149 26.1971 48.9225L19.637 44.0385C19.3755 44.2755 19.0353 44.4067 18.6824 44.4066C17.88 44.3995 17.2351 43.7438 17.2412 42.9414C17.2412 42.3864 17.5446 41.9035 17.9923 41.6538L15.5818 33.9578C15.1739 33.9938 14.7697 33.8561 14.4686 33.5786C14.1675 33.3011 13.9974 32.9095 14 32.5C13.9976 32.0826 14.1746 31.6842 14.4861 31.4063C14.7977 31.1284 15.2136 30.9978 15.628 31.0478L17.9979 23.3499C17.5288 23.0899 17.2388 22.5949 17.2412 22.0586C17.2412 21.2502 17.8869 20.5934 18.6824 20.5934C19.0561 20.5934 19.3965 20.7377 19.6518 20.9745L26.2618 16.2015C26.1332 15.9774 26.0656 15.7236 26.0657 15.4652C26.0657 14.6567 26.7114 14 27.5069 14C28.2099 14 28.7963 14.5125 28.9221 15.1914H36.8956C37.0195 14.5048 37.6151 14.0041 38.3127 14C39.1082 14 39.752 14.6567 39.752 15.4652C39.7526 15.7105 39.6922 15.9521 39.5763 16.1682L46.1438 20.9967C46.4098 20.738 46.7662 20.5933 47.1372 20.5934C47.9327 20.5934 48.5765 21.2502 48.5765 22.0586C48.5787 22.5527 48.3327 23.0148 47.9216 23.2888L50.2822 31.0385C50.6844 31.0109 51.0796 31.1535 51.3716 31.4314C51.6635 31.7093 51.8254 32.097 51.8177 32.5C51.8208 32.8934 51.6644 33.2713 51.3841 33.5474C51.1038 33.8235 50.7237 33.9742 50.3303 33.9652L47.5609 42.9007L51.1073 46.0568C51.4884 45.7127 51.9898 45.5055 52.5392 45.5055C53.7325 45.5055 54.7 46.4897 54.7 47.7033C54.7 48.9169 53.7325 49.9011 52.5392 49.9011C51.9612 49.8962 51.4089 49.6619 51.0036 49.2497C50.5984 48.8376 50.3735 48.2813 50.3784 47.7033C50.3784 47.3111 50.4783 46.9448 50.6559 46.6266H50.6541ZM38.4349 48.0751L41.1858 41.8794C40.9599 41.6928 40.795 41.4428 40.7122 41.1616L34.3297 42.0903C34.2844 42.3616 34.1639 42.6148 33.9819 42.8211L37.7689 48.1768C37.9795 48.0898 38.2079 48.0549 38.4349 48.0751ZM39.1618 48.3526L46.3195 42.982L43.2337 41.6389C42.9091 42.0686 42.3707 42.2795 41.8407 42.1847L39.1156 48.3193C39.1312 48.3294 39.1466 48.3399 39.1618 48.3507V48.3526ZM37.1916 48.6135L33.3806 43.2263C33.0753 43.3341 32.7424 43.3341 32.4371 43.2263L28.6261 48.6135C28.7364 48.7514 28.821 48.9081 28.8758 49.076H36.9418C36.9967 48.9081 37.0813 48.7514 37.1916 48.6135ZM49.6385 33.758C49.2011 33.4899 48.9353 33.013 48.9373 32.5C48.9373 31.982 49.2 31.5287 49.5978 31.2679L47.3667 23.9419L46.8672 31.1088C47.4407 31.3012 47.8569 31.8506 47.8569 32.5C47.8598 33.1238 47.4669 33.6809 46.8783 33.8875L47.3704 41.0766L49.6385 33.758ZM45.4685 31.3956L42.5381 25.6514C42.2995 25.7303 42.0441 25.7444 41.7981 25.6921L39.2229 31.366C39.5592 31.6466 39.7531 32.0622 39.752 32.5001C39.7529 32.9452 39.5522 33.3669 39.2063 33.6471L41.861 39.297C42.0517 39.2654 42.2469 39.273 42.4345 39.3192L45.4297 33.5657C45.1388 33.2876 44.9743 32.9025 44.9746 32.5001C44.9746 32.0598 45.167 31.6639 45.4685 31.3956ZM46.1604 33.9431C46.1269 33.9369 46.0936 33.9295 46.0605 33.9209L43.0691 39.6633C43.4253 39.9962 43.5937 40.4839 43.5186 40.9657L46.7376 42.368L46.1604 33.9431ZM46.1493 31.0606L46.6784 23.4497C46.3997 23.3538 46.157 23.175 45.9828 22.9373L43.5075 23.9714C43.5954 24.4328 43.4619 24.9088 43.1467 25.2572L46.1141 31.0662C46.1258 31.0642 46.1375 31.0623 46.1493 31.0606ZM38.5495 33.9466C38.343 33.9812 38.1314 33.9698 37.9297 33.9133L34.0022 40.8878C34.1187 41.0247 34.2094 41.1838 34.2704 41.3577L40.6862 40.4253C40.7602 40.0905 40.9452 39.7963 41.2005 39.5928L38.5495 33.9429V33.9466ZM38.5681 31.0588L41.1525 25.3664C40.8899 25.1356 40.718 24.8188 40.6678 24.4728L34.2391 23.5386C34.1683 23.7112 34.0654 23.8688 33.9357 24.0029L37.8928 31.0977C38.1121 31.0302 38.3444 31.0169 38.5699 31.0588H38.5681ZM37.3063 33.549C37.027 33.2715 36.8704 32.8937 36.8716 32.5C36.8716 32.1041 37.027 31.7434 37.2786 31.4807L33.3196 24.3804C33.0989 24.4472 32.8652 24.4593 32.6388 24.4155L28.5558 31.4955C28.8087 31.7688 28.9488 32.1277 28.948 32.5C28.9492 32.8865 28.7983 33.2579 28.5281 33.5342L32.5389 40.4254C32.826 40.3483 33.1301 40.3632 33.4084 40.468L37.3063 33.549ZM16.2589 33.7063L18.5566 41.0434L19.0987 33.932C18.4315 33.7795 17.9594 33.1845 17.9628 32.5001C17.9628 31.7878 18.4623 31.1958 19.1227 31.0626L18.5622 23.9697L16.2996 31.3235C16.6679 31.6024 16.8837 32.0381 16.8824 32.5001C16.8824 32.9996 16.6345 33.4436 16.2589 33.7063ZM23.4517 39.3042C23.6652 39.2623 23.8854 39.2699 24.0955 39.3264L26.63 33.6635C26.2725 33.3834 26.0643 32.954 26.0657 32.4999C26.0657 32.0411 26.2729 31.6322 26.5967 31.364L24.0215 25.6919C23.8436 25.7294 23.6603 25.7325 23.4813 25.7011L20.3751 31.4195C20.6753 31.6985 20.8456 32.0901 20.845 32.4999C20.8462 32.8982 20.686 33.2799 20.401 33.5581L23.4535 39.3042H23.4517ZM24.0511 42.1718C23.5128 42.2982 22.9501 42.1012 22.6081 41.6667L20.1106 42.7545C20.1389 42.982 20.1149 43.213 20.0403 43.4298L26.654 48.3545C26.6734 48.3398 26.6931 48.3256 26.7132 48.3119L24.0492 42.1699L24.0511 42.1718ZM22.3066 41.0007C22.2129 40.4844 22.4011 39.9573 22.8005 39.6169L19.8165 34.0022L19.2374 41.5872C19.4802 41.6911 19.69 41.8593 19.8442 42.0737L22.3066 41.0007ZM25.1371 40.4477L31.5473 41.3616C31.6218 41.1433 31.7466 40.9455 31.9118 40.7844L27.9084 33.908C27.7092 33.9669 27.4995 33.9814 27.2942 33.9505L24.7227 39.6874C24.9299 39.889 25.0779 40.1517 25.1371 40.4477ZM25.1 41.1821C25.0229 41.4305 24.8811 41.654 24.6893 41.8296L27.3959 48.0734C27.6187 48.0566 27.8423 48.0921 28.0489 48.177L31.8377 42.8212C31.6564 42.616 31.5359 42.3642 31.4899 42.0942L25.1 41.1821ZM22.3195 23.9363L19.8571 22.9077C19.7027 23.1296 19.4893 23.3039 19.2411 23.4109L19.8331 30.9053L22.8227 25.3997C22.3922 25.0468 22.1975 24.4813 22.3195 23.9382V23.9363ZM24.077 22.8356L26.6208 16.8416L20.0477 21.5887C20.1156 21.7928 20.1383 22.0094 20.1143 22.2232L22.6488 23.2833C23.0021 22.8762 23.5546 22.703 24.077 22.8356ZM25.1537 24.4507C25.108 24.8049 24.9351 25.1304 24.6671 25.3664L27.2497 31.0589C27.483 31.0158 27.7234 31.0317 27.949 31.1051L31.9857 24.101C31.8066 23.9477 31.667 23.7535 31.5787 23.5349L25.1537 24.4507ZM24.7097 23.189C24.8651 23.337 24.9872 23.5202 25.0668 23.7237L31.477 22.8098C31.5064 22.5419 31.6088 22.2872 31.773 22.0735L28.0915 16.8047C27.8657 16.9073 27.6169 16.9488 27.37 16.9249L24.7116 23.189H24.7097ZM41.9572 22.7985C42.4285 22.7549 42.8909 22.9467 43.193 23.311L45.709 22.2602C45.6803 22.0448 45.6986 21.8258 45.7627 21.6182L39.234 16.8193L41.9554 22.7985H41.9572ZM40.7436 23.7422C40.8475 23.4616 41.0347 23.2196 41.2801 23.0484L38.4866 16.9194C38.2281 16.9509 37.9658 16.9112 37.7281 16.8047L34.0466 22.0735C34.2057 22.2825 34.3112 22.536 34.3426 22.8135L40.7436 23.744V23.7422ZM37.1621 16.3496C37.0666 16.2206 36.9928 16.0769 36.9438 15.9241H28.8741C28.8244 16.077 28.7501 16.2207 28.6539 16.3496L32.3428 21.6276C32.7027 21.4712 33.1114 21.4712 33.4713 21.6276L37.1621 16.3496Z" fill="url(#paint0_linear)"/>
<defs>
<linearGradient id="paint0_linear" x2="1" gradientUnits="userSpaceOnUse" gradientTransform="translate(32.5) scale(65) rotate(90)">
<stop stop-color="#41D4FC"/>
<stop offset="1" stop-color="#2E9AD0"/>
</linearGradient>
</defs>
</svg>
