<svg width="65" height="65" viewBox="0 0 65 65" fill="none" xmlns="http://www.w3.org/2000/svg">
<path fill-rule="evenodd" clip-rule="evenodd" d="M32.5 0C14.5506 0 0 14.5508 0 32.5C0 50.4492 14.5506 65 32.5 65C50.4492 65 65 50.4492 65 32.5C65 14.5508 50.4492 0 32.5 0ZM29.2128 13.2606C30.9576 12.9363 32.7434 12.9732 34.5086 13.0615C36.5449 13.2996 38.5852 13.7265 40.4572 14.5681C44.196 16.1304 47.3651 18.8029 49.536 22.2245C50.3427 23.4006 50.8846 24.7184 51.4286 26.0259C51.9335 25.2213 52.3851 24.3838 52.8243 23.5422C53.0132 23.1461 53.4093 22.8402 53.8712 22.8608C54.4911 22.7951 55.1007 23.2939 55.152 23.9076C55.2034 24.4003 54.8934 24.8251 54.6902 25.2521C54.0498 26.5453 53.2226 27.7399 52.3666 28.9058C52.2085 29.0741 52.2742 29.3081 52.2927 29.5134C53.2451 35.1314 51.4327 41.1108 47.5716 45.3433C45.3458 47.8173 42.5409 49.7004 39.4083 50.8239C35.7998 52.0863 31.8258 52.3716 28.0941 51.4889C22.6834 50.3169 17.8966 46.7494 15.1748 42.016C14.5796 41.0574 14.1998 39.9921 13.7298 38.974C13.2166 39.7643 12.7815 40.5956 12.3442 41.4248C12.1352 41.843 11.7207 42.1194 11.2543 42.1515C10.4722 42.1515 9.76203 41.3099 10.0761 40.5607C10.7493 39.013 11.671 37.5802 12.7035 36.2419C12.9251 36.01 12.8944 35.6816 12.8533 35.3921C12.4699 32.9221 12.5816 30.4004 13.1817 27.9739C14.7623 21.1509 20.4275 15.4528 27.2936 13.6773C27.9299 13.5274 28.5663 13.3694 29.2128 13.2606ZM24.3645 17.3864C20.7252 19.2995 17.7961 22.4995 16.2771 26.2785C15.3986 28.561 14.9511 31.0159 15.0866 33.4586C15.472 33.1693 15.8395 32.8567 16.1868 32.5226C18.2292 30.6998 20.6205 29.2876 23.1206 28.1628C27.7658 26.0506 32.8809 25.1413 37.9633 24.895C36.2452 23.1133 34.3814 21.4691 32.6633 19.6874C33.2052 19.0922 33.7923 18.5421 34.3794 17.992C35.0465 18.5954 35.6623 19.2502 36.315 19.8681C38.4292 21.972 40.6071 24.0144 42.6864 26.1471C40.4695 28.3578 38.1952 30.5131 35.9784 32.7237C35.7915 32.8995 35.5956 33.0653 35.3913 33.2205C34.833 32.6581 34.1844 32.1654 33.7369 31.5065C35.0998 30.0779 36.6516 28.8258 37.9592 27.3458C35.615 27.3787 33.2832 27.7112 30.9884 28.1669C29.1349 28.4974 27.3532 29.1234 25.5735 29.7207C21.8459 31.1165 18.4078 33.3416 15.7866 36.3179C15.6306 36.4719 15.6531 36.6997 15.6942 36.8927C16.0041 38.2228 16.5891 39.4667 17.2296 40.6695C19.3438 44.4813 22.9975 47.4268 27.1951 48.7569C29.6501 49.5123 32.2692 49.8038 34.8227 49.4487C38.3922 49.0002 41.7391 47.4711 44.4147 45.0663C48.2429 41.6917 50.3899 36.5499 50.0595 31.5024C49.6551 31.8165 49.2938 32.1736 48.9161 32.5144C46.3486 34.7233 43.3953 36.4393 40.2047 37.5762C36.0584 39.1157 31.6411 39.9121 27.2177 40.0373C27.6036 40.5422 28.0798 40.9651 28.5293 41.4146C29.8533 42.7037 31.1588 44.0092 32.5032 45.2777C31.986 45.8873 31.3825 46.419 30.8119 46.9773C30.2392 46.5113 29.7445 45.9694 29.2108 45.4583C27.2115 43.5206 25.2328 41.5583 23.2376 39.6124C22.9614 39.361 22.7073 39.0863 22.4782 38.7913C23.3423 37.8636 24.3358 37.063 25.2205 36.1558C26.7394 34.6881 28.2173 33.1774 29.7548 31.7282C30.3295 32.2865 30.933 32.8202 31.4441 33.4381C30.077 34.8544 28.6217 36.1865 27.2362 37.5844C28.7551 37.6603 30.2536 37.3997 31.7602 37.256C32.8481 37.141 33.9175 36.8947 34.991 36.671C40.5024 35.3983 45.87 32.7812 49.5689 28.4686C48.1526 22.3435 42.945 17.3023 36.7481 15.8777C32.6202 14.8288 28.1188 15.4262 24.3645 17.3864Z" fill="url(#paint0_linear)"/>
<defs>
<linearGradient id="paint0_linear" x2="1" gradientUnits="userSpaceOnUse" gradientTransform="translate(32.5 65) scale(65) rotate(-90)">
<stop stop-color="#3555F9"/>
<stop offset="1" stop-color="#00A4FF"/>
</linearGradient>
</defs>
</svg>
