<svg width="65" height="65" viewBox="0 0 65 65" fill="none" xmlns="http://www.w3.org/2000/svg">
<path fill-rule="evenodd" clip-rule="evenodd" d="M32.5 65C50.4492 65 65 50.4492 65 32.5C65 14.5508 50.4492 0 32.5 0C14.5508 0 0 14.5508 0 32.5C0 50.4492 14.5508 65 32.5 65ZM35.5995 12.0108H20C20.1239 12.0835 20.2537 12.1394 20.3845 12.1958C20.423 12.2124 20.4615 12.229 20.5001 12.2461C23.4823 13.6107 26.3417 15.2953 28.8802 17.4129C31.2113 19.3704 33.2686 21.7327 34.7407 24.4619C36.1185 27.0124 36.9867 29.8923 37.0717 32.8286C37.0717 33.2427 37.0717 33.6568 37.0245 34.0709H44.98C45.1027 30.9557 44.6591 27.8312 43.7343 24.8666C42.8566 22.0621 41.5543 19.4175 39.9406 16.9988C38.7892 15.2765 37.4869 13.6578 36.0052 12.2273C35.9739 12.2032 35.9445 12.1737 35.9148 12.144C35.8282 12.0572 35.74 11.9688 35.5995 12.0108ZM34.2043 42.7605C31.5431 37.7443 28.8818 32.7375 26.2111 27.7307V53C27.8673 51.8989 29.5188 50.7954 31.1703 49.6919C32.8218 48.5884 34.4733 47.485 36.1295 46.3839C35.4878 45.1698 34.8461 43.9651 34.2043 42.7605Z" fill="url(#paint0_linear)"/>
<defs>
<linearGradient id="paint0_linear" x2="1" gradientUnits="userSpaceOnUse" gradientTransform="translate(65) scale(65) rotate(90)">
<stop stop-color="white"/>
<stop offset="1" stop-color="#8785FF"/>
</linearGradient>
</defs>
</svg>
