<svg width="65" height="65" viewBox="0 0 65 65" fill="none" xmlns="http://www.w3.org/2000/svg">
<path fill-rule="evenodd" clip-rule="evenodd" d="M32.5 0C14.5506 0 0 14.5508 0 32.5C0 50.4492 14.5506 65 32.5 65C50.4492 65 65 50.4492 65 32.5C65 14.5508 50.4492 0 32.5 0ZM40.5447 33.1106C40.0008 31.5936 39.0302 30.266 37.7496 29.2874L37.736 29.2718C37.6003 29.1691 37.4614 29.0707 37.3196 28.9766L37.2923 28.9571C37.1526 28.8654 37.0105 28.7774 36.8662 28.6932L36.8271 28.6698C36.6855 28.5877 36.5401 28.5127 36.3912 28.445L36.3482 28.4215C36.1958 28.35 36.042 28.2815 35.8869 28.2163L35.8361 28.1967C35.3339 27.9883 34.8129 27.8286 34.2802 27.7198C33.9732 28.2765 33.5786 28.7801 33.1113 29.2112C34.2086 29.2987 35.2686 29.6494 36.2016 30.2334L36.2544 30.2647L36.5124 30.4406L36.6297 30.5227C36.7078 30.5814 36.7802 30.64 36.8603 30.6986L36.9913 30.8042C37.0616 30.8628 37.1261 30.9215 37.1926 30.9821L37.3255 31.1091L37.5073 31.2928L37.6402 31.4355L37.8024 31.6251L37.9295 31.7835L38.0761 31.9789C38.1249 32.0434 38.1582 32.0942 38.1973 32.1509C38.2363 32.2076 38.2872 32.2819 38.3282 32.3503L38.4416 32.5379C38.4768 32.6005 38.5198 32.6708 38.5549 32.7373C38.594 32.8018 38.6253 32.8741 38.6605 32.9445C38.6937 33.0149 38.727 33.0735 38.7563 33.14C38.7856 33.2103 38.8286 33.3139 38.8618 33.4019C39.0473 33.8647 39.1785 34.3474 39.2527 34.8405L39.4658 35.6301C39.5557 35.9585 40.3864 38.867 42.3117 39.8462C44.5185 40.978 47.4406 42.3755 48.5899 42.9287L33.4104 51.8417V45.7335C33.4104 44.7699 35.365 43.6421 36.27 43.2453L36.3228 43.216C36.5085 43.1241 36.6942 43.0244 36.8701 42.9189L36.9463 42.8798C37.3372 42.6433 37.7125 42.3775 38.0604 42.0843L38.1543 42.0002L38.2618 41.9044C38.3718 41.8055 38.4794 41.7039 38.5843 41.5995L38.639 41.5467C38.7543 41.4314 38.8696 41.322 38.9713 41.1871L39.0671 41.0776C39.1531 40.976 39.2352 40.8724 39.3153 40.7669L39.3857 40.6789C39.4834 40.5499 39.5733 40.417 39.6632 40.2821L39.6945 40.243C39.8157 40.0534 39.9232 39.8638 40.0365 39.6664C39.6109 39.1526 39.2462 38.5911 38.9498 37.9933C38.8286 38.3314 38.6761 38.6598 38.5002 38.9745C38.4259 39.1113 38.3478 39.2442 38.2696 39.3732L38.2344 39.426C38.1606 39.5357 38.0837 39.6432 38.0037 39.7485L37.9334 39.8384C37.8537 39.9412 37.7703 40.041 37.6832 40.1375L37.6363 40.1922C37.0708 40.8098 36.3954 41.3168 35.6445 41.6875L35.5018 41.7598C35.1168 41.9299 31.7236 43.4349 31.7236 45.7238V51.8339L16.4971 42.9052C17.4764 42.3071 20.3379 40.6418 22.6913 39.9088C23.6119 39.6273 25.5665 40.8333 26.6748 41.7188L26.7413 41.7774C26.8879 41.9142 27.0423 42.0452 27.2025 42.1683L27.2573 42.2172C27.6091 42.4986 27.9844 42.7508 28.3773 42.9736L28.6411 43.1163L28.6939 43.1437C28.95 43.2727 29.2119 43.3899 29.4797 43.4935L29.597 43.5385L29.6751 43.5698C30.0602 43.7105 30.457 43.82 30.8577 43.9021C31.1704 43.3411 31.5789 42.8329 32.0617 42.4009C31.4194 42.3534 30.787 42.2152 30.1833 41.9904L30.0797 41.9514L29.8804 41.8712L29.7787 41.8282L29.5852 41.7383C29.1371 41.5209 28.7143 41.2548 28.3245 40.9447L27.7186 40.4053C27.1622 39.9262 26.5599 39.5032 25.9203 39.1426C24.4153 38.3021 23.1565 38.0284 22.1909 38.3255C20.1777 38.9471 17.9103 40.1551 16.5265 40.9525L31.7294 14.1411V25.8825C31.7294 26.2988 31.104 27.3856 29.0145 28.3082L28.8698 28.3863C28.6666 28.4841 28.4691 28.5896 28.2756 28.703L28.2365 28.7225C27.5931 29.1015 27.0029 29.5643 26.4813 30.0986L26.4618 30.1181C26.264 30.3215 26.0768 30.5348 25.9008 30.7573L25.8793 30.7866C25.7943 30.895 25.7116 31.0052 25.631 31.1169L25.6037 31.156C25.5312 31.2615 25.4608 31.3683 25.3926 31.4766L25.3691 31.5098C25.3007 31.6212 25.2343 31.7326 25.1717 31.848L25.1268 31.9281C25.0701 32.0376 25.0134 32.1548 24.9567 32.2565L24.9313 32.3092C24.8805 32.4128 24.8336 32.5164 24.7886 32.622L24.7397 32.7393C24.6948 32.8487 24.6537 32.966 24.6127 33.0715L24.5736 33.1888C24.5437 33.2727 24.5163 33.3574 24.4915 33.4429C24.4778 33.4898 24.4622 33.5348 24.4505 33.5837C24.3383 33.9762 24.2566 34.3767 24.2061 34.7818L24.1866 34.9636C24.1773 35.0462 24.1702 35.1289 24.1651 35.2118C24.1612 35.2959 24.1651 35.378 24.1514 35.4601C24.1377 35.5441 24.1514 35.5617 24.1514 35.6165V35.8021C24.1514 36.2126 24.1827 36.6231 24.2452 37.0316C24.9 37.1913 25.5337 37.4275 26.1334 37.7353C25.9493 37.1451 25.8506 36.5317 25.8402 35.9136V35.8021C25.8402 35.6536 25.8402 35.507 25.8578 35.3506V35.2333C25.8578 35.1063 25.8832 34.9773 25.9008 34.8502V34.7955C25.9203 34.6528 25.9496 34.5121 25.9829 34.3753L26.0063 34.2678C26.0356 34.1505 26.065 34.0371 26.1021 33.9218L26.1256 33.8475C26.1646 33.7127 26.2135 33.5817 26.2643 33.4507L26.3034 33.3628C26.3464 33.2553 26.3933 33.1478 26.4422 33.0403L26.4793 32.9582C26.5399 32.8311 26.6064 32.708 26.6748 32.5848L26.7119 32.5243C26.7735 32.4182 26.8381 32.3139 26.9054 32.2115L26.9543 32.1392C27.0345 32.0219 27.1165 31.9125 27.2045 31.7913L27.2201 31.7717C27.3042 31.6642 27.3921 31.5606 27.4821 31.459L27.5309 31.4004C27.9433 30.9469 28.4164 30.5501 28.9382 30.2217L29.6575 29.8894C30.0426 29.7194 33.4202 28.1733 33.4202 25.8825V14.1411L48.7424 41.1539C47.3742 40.4952 44.97 39.3322 43.0936 38.3783C42.0224 37.831 41.2914 35.9018 41.1038 35.2099L40.8966 34.3987C40.8199 33.9635 40.7074 33.5352 40.5604 33.1185L40.5447 33.1106ZM50.9238 41.6132L34.0359 11.8522C33.7323 11.3223 33.167 10.9967 32.5563 11C31.9469 10.9981 31.3834 11.3235 31.0805 11.8522L14.2122 41.6151C13.7702 42.3961 14.0407 43.3874 14.8181 43.8356L31.7001 53.765C32.2363 54.0783 32.8997 54.0783 33.4358 53.765L50.3159 43.8434C51.0928 43.3959 51.3641 42.4059 50.9238 41.6249L50.9277 41.6132H50.9238Z" fill="url(#paint0_linear)"/>
<defs>
<linearGradient id="paint0_linear" x2="1" gradientUnits="userSpaceOnUse" gradientTransform="translate(32.5) scale(63.6864) rotate(90)">
<stop stop-color="#FF6C88"/>
<stop offset="1" stop-color="#602A52"/>
</linearGradient>
</defs>
</svg>
