<svg width="65" height="65" viewBox="0 0 65 65" fill="none" xmlns="http://www.w3.org/2000/svg">
<path fill-rule="evenodd" clip-rule="evenodd" d="M32.5 65C50.4493 65 65 50.4493 65 32.5C65 14.5507 50.4493 0 32.5 0C14.5507 0 0 14.5507 0 32.5C0 50.4493 14.5507 65 32.5 65ZM33.2494 14.8571H16.7143V29.5232C16.7143 29.5232 19.2618 25.893 28.3946 25.893V22.9888L38.2244 29.2207L28.3946 36.2028V33.2986C21.9055 33.2986 15.765 43.0881 21.9055 50.1429H47.3571L43.3543 40.5828C43.1974 40.2074 43.2933 39.7725 43.5673 39.4729C44.6798 38.2556 47.3571 34.752 47.3571 29.2207V29.0634C47.3571 21.2175 41.0409 14.8571 33.2494 14.8571Z" fill="url(#paint0_linear)"/>
<defs>
<linearGradient id="paint0_linear" x1="32" y1="0" x2="32" y2="70" gradientUnits="userSpaceOnUse">
<stop stop-color="#FB3E56"/>
<stop offset="1" stop-color="#7A3FF9"/>
</linearGradient>
</defs>
</svg>
