<svg width="65" height="65" viewBox="0 0 65 65" fill="none" xmlns="http://www.w3.org/2000/svg">
<path fill-rule="evenodd" clip-rule="evenodd" d="M32.5 0C14.5506 0 0 14.5508 0 32.5C0 50.4492 14.5506 65 32.5 65C50.4492 65 65 50.4492 65 32.5C65 14.5508 50.4492 0 32.5 0ZM29.8699 32.48C29.8704 32.4935 29.8708 32.507 29.8713 32.5205C31.0486 32.4787 32.2395 32.5355 33.4008 32.3761C36.657 31.9293 38.9899 28.6594 38.4431 25.4215C37.8677 22.0147 34.7756 19.789 31.3627 20.3249C28.4686 20.7793 26.2685 23.338 26.2649 26.2597C26.2625 28.141 26.2667 30.0225 26.2686 31.9038C26.2691 32.3731 26.3682 32.4778 26.8307 32.4791C27.8438 32.4821 28.8569 32.48 29.8699 32.48ZM39.6805 35.0892C40.1075 35.5279 40.5468 35.9371 40.9377 36.3883C42.6 38.307 43.5881 40.5286 43.6945 43.0727C43.7829 45.1847 43.7487 47.3019 43.7612 49.4168C43.7637 49.8297 43.5789 49.998 43.1633 49.9986C41.8158 50.0007 40.4683 50.0003 39.1208 49.9982C38.6761 49.9975 38.5226 49.8427 38.522 49.3957C38.5195 47.536 38.5318 45.6761 38.515 43.8165C38.4918 41.2446 36.8637 38.9764 34.4385 38.097C33.7619 37.8516 33.0639 37.7442 32.3461 37.7449C30.5198 37.7466 28.6934 37.7447 26.867 37.7459C26.3201 37.7463 26.2566 37.8121 26.2566 38.366C26.2563 41.9853 26.2567 45.6046 26.2569 49.2239C26.2569 49.8845 26.1432 49.9988 25.485 49.999C24.2155 49.9992 22.946 49.9999 21.6764 49.9993C21.1593 49.9991 21.0145 49.8595 21.0145 49.3577C21.0145 41.618 20.9735 33.8779 21.0294 26.1386C21.069 20.656 25.0776 16.1786 30.169 15.213C36.3008 14.0501 42.0821 17.7497 43.4499 23.8366C44.4187 28.1481 43.1443 31.8512 39.9186 34.8756C39.8386 34.9507 39.7553 35.0222 39.6805 35.0892Z" fill="url(#paint0_linear)"/>
<defs>
<linearGradient id="paint0_linear" x2="1" gradientUnits="userSpaceOnUse" gradientTransform="translate(32.5) scale(63.7991) rotate(90)">
<stop stop-color="#EFB823"/>
<stop offset="1" stop-color="#FF6F00"/>
</linearGradient>
</defs>
</svg>
