<svg width="65" height="65" viewBox="0 0 65 65" fill="none" xmlns="http://www.w3.org/2000/svg">
<path fill-rule="evenodd" clip-rule="evenodd" d="M32.5 0C14.5506 0 0 14.5508 0 32.5C0 50.4492 14.5506 65 32.5 65C50.4492 65 65 50.4492 65 32.5C65 14.5508 50.4492 0 32.5 0ZM35.0065 27.0758H30.62C29.6249 27.0758 28.8176 27.8508 28.8176 28.8479C28.8176 29.8451 29.6246 30.6201 30.62 30.6201H35.0065C37.5568 30.6201 39.6316 32.7392 39.6316 35.2614C39.6316 37.7836 37.5568 39.9027 35.0065 39.9027H22.2682C19.7178 39.9027 17.6431 37.8171 17.6431 35.2948C17.6431 33.4071 18.8427 31.7034 20.5892 31.0128C20.5916 31.012 20.5938 31.0111 20.5963 31.0098C20.6366 30.9939 20.679 30.9823 20.7202 30.9671C20.947 30.8916 21.397 30.7561 21.9399 30.6684C22.6439 34.4759 26.0032 37.3707 30.0318 37.3707H34.4184C35.4135 37.3707 36.2206 36.5957 36.2206 35.5986C36.2206 34.6015 35.4137 33.8268 34.4184 33.8268H30.0318C27.4815 33.8268 25.4067 31.7077 25.4067 29.1855C25.4067 26.6633 27.4815 24.5442 30.0318 24.5442H42.7701C45.3204 24.5442 47.3952 26.6297 47.3952 29.1521C47.3952 31.0218 46.217 32.7097 44.497 33.4128C44.3709 33.4585 43.7984 33.6575 43.0992 33.7824C42.3969 29.9728 39.0365 27.0758 35.0065 27.0758ZM51 29.1856C51 24.672 47.3081 21 42.77 21H30.0318C26.2357 21 23.0333 23.5703 22.0872 27.0524C21.7657 27.0772 21.2123 27.1323 20.657 27.2408C20.656 27.2413 20.6551 27.2413 20.6545 27.2415C20.6524 27.242 20.6507 27.2425 20.6484 27.243C20.4107 27.2894 20.1738 27.3469 19.9549 27.4153C19.937 27.4207 19.881 27.4268 19.8629 27.4325C19.847 27.4374 19.9451 27.4425 19.7763 27.4477V27.448C16.4012 28.5044 14 31.6683 14 35.2615C14 39.7748 17.7303 43.4471 22.2681 43.4471H35.0064C38.7834 43.4471 41.9721 40.9023 42.9359 37.4469C43.4888 37.3801 44.4146 37.2458 45.0873 37.0302C48.5533 36.0048 51 32.8132 51 29.1856Z" fill="url(#paint0_linear)"/>
<defs>
<linearGradient id="paint0_linear" x2="1" gradientUnits="userSpaceOnUse" gradientTransform="translate(32.5) scale(65) rotate(90)">
<stop stop-color="#61B3FA"/>
<stop offset="1" stop-color="#1377D5"/>
</linearGradient>
</defs>
</svg>
