<svg width="65" height="65" viewBox="0 0 65 65" fill="none" xmlns="http://www.w3.org/2000/svg">
<path fill-rule="evenodd" clip-rule="evenodd" d="M32.5 0C14.5505 0 0 14.5508 0 32.5C0 50.4492 14.5505 65 32.5 65C50.4492 65 65 50.4492 65 32.5C65 14.5508 50.4492 0 32.5 0ZM32.5 52C21.7305 52 13 43.2695 13 32.5C13 21.7305 21.7305 13 32.5 13C43.2695 13 52 21.7305 52 32.5C52 43.2695 43.2695 52 32.5 52ZM50.4805 32.5C50.4805 42.4304 42.4304 50.4805 32.5 50.4805C22.5696 50.4805 14.5195 42.4304 14.5195 32.5L14.52 32.3665C14.9212 30.1064 16.0383 28.8396 17.0772 27.896C17.9232 27.1277 19.0133 26.5613 20.1225 25.9851C21.4427 25.2993 22.79 24.5994 23.7848 23.5281C24.744 22.4949 25.399 21.1743 26.0442 19.8735C26.6302 18.6919 27.2081 17.5269 27.9985 16.6086C28.1556 16.426 28.2944 16.2524 28.4257 16.0881C28.9201 15.4692 29.3074 14.9844 30.1653 14.6697C30.9295 14.5706 31.7088 14.5195 32.5 14.5195C42.4304 14.5195 50.4805 22.5696 50.4805 32.5ZM40.6685 32.4055L34.9381 26.6753L32.8687 28.7446L36.5296 32.4055L32.8687 36.0664L34.9381 38.136L40.6685 32.4055ZM35.097 32.4055L29.3667 26.6753L23.6364 32.4055L29.3667 38.136L35.097 32.4055Z" fill="url(#paint0_linear)"/>
<defs>
<linearGradient id="paint0_linear" x2="1" gradientUnits="userSpaceOnUse" gradientTransform="translate(32.5) scale(65) rotate(90)">
<stop stop-color="#00E9F1"/>
<stop offset="1" stop-color="#005584"/>
</linearGradient>
</defs>
</svg>
