<svg width="65" height="65" viewBox="0 0 65 65" fill="none" xmlns="http://www.w3.org/2000/svg">
<path fill-rule="evenodd" clip-rule="evenodd" d="M32.5 0C14.5506 0 0 14.5508 0 32.5C0 50.4492 14.5506 65 32.5 65C50.4492 65 65 50.4492 65 32.5C65 14.5508 50.4492 0 32.5 0ZM9.14209 34.8076L11.6733 34.5615C11.8257 35.4111 12.1348 36.0352 12.6006 36.4336C13.0664 36.832 13.6948 37.0312 14.4858 37.0312C15.3237 37.0312 15.9551 36.854 16.3799 36.4995C16.8047 36.145 17.0171 35.7305 17.0171 35.2559C17.0171 34.9512 16.9277 34.6919 16.749 34.478C16.5703 34.2642 16.2583 34.0781 15.813 33.9199C15.5083 33.8145 14.814 33.627 13.73 33.3574C12.3354 33.0117 11.3569 32.5869 10.7944 32.083C10.0034 31.374 9.60791 30.5098 9.60791 29.4902C9.60791 28.834 9.79394 28.2202 10.166 27.6489C10.5381 27.0776 11.0742 26.6426 11.7744 26.3438C12.4746 26.0449 13.3198 25.8955 14.3101 25.8955C15.9273 25.8955 17.1445 26.25 17.9619 26.959C18.7793 27.668 19.2085 28.6143 19.2495 29.7979L16.6479 29.9121C16.5366 29.25 16.2979 28.7739 15.9316 28.4839C15.5654 28.1938 15.0161 28.0488 14.2837 28.0488C13.5278 28.0488 12.936 28.2041 12.5083 28.5146C12.2329 28.7139 12.0952 28.9805 12.0952 29.3145C12.0952 29.6191 12.2241 29.8799 12.4819 30.0967C12.8101 30.3721 13.6069 30.6592 14.8726 30.958C16.1382 31.2568 17.0742 31.5659 17.6807 31.8853C18.2871 32.2046 18.7617 32.6411 19.1045 33.1948C19.4473 33.7485 19.6187 34.4326 19.6187 35.2471C19.6187 35.9854 19.4136 36.6768 19.0034 37.3213C18.5933 37.9658 18.0132 38.4448 17.2632 38.7583C16.5132 39.0718 15.5786 39.2285 14.4595 39.2285C12.8306 39.2285 11.5796 38.8521 10.7065 38.0991C9.83349 37.3462 9.31201 36.249 9.14209 34.8076ZM21.8423 39V26.1152H24.4438V31.8369L29.6997 26.1152H33.1978L28.3462 31.1338L33.4614 39H30.0952L26.5532 32.9531L24.4438 35.1064V39H21.8423ZM34.2788 32.6367C34.2788 31.3242 34.4751 30.2227 34.8677 29.332C35.1606 28.6758 35.5605 28.0869 36.0674 27.5654C36.5742 27.0439 37.1294 26.6572 37.7329 26.4053C38.5356 26.0654 39.4614 25.8955 40.5103 25.8955C42.4087 25.8955 43.9277 26.4844 45.0674 27.6621C46.207 28.8398 46.7769 30.4775 46.7769 32.5752C46.7769 34.6553 46.2114 36.2827 45.0806 37.4575C43.9497 38.6323 42.438 39.2197 40.5454 39.2197C38.6294 39.2197 37.106 38.6353 35.9751 37.4663C34.8442 36.2974 34.2788 34.6875 34.2788 32.6367ZM36.9595 32.5488C36.9595 34.0078 37.2964 35.1138 37.9702 35.8667C38.644 36.6196 39.4995 36.9961 40.5366 36.9961C41.5737 36.9961 42.4248 36.6226 43.0898 35.8755C43.7549 35.1284 44.0874 34.0078 44.0874 32.5137C44.0874 31.0371 43.7637 29.9356 43.1162 29.209C42.4687 28.4824 41.6089 28.1191 40.5366 28.1191C39.4644 28.1191 38.6001 28.4868 37.9438 29.2222C37.2876 29.9575 36.9595 31.0664 36.9595 32.5488ZM54.5815 39H52.1118V29.6924C51.2095 30.5361 50.146 31.1602 48.9214 31.5645V29.3232C49.5659 29.1123 50.2661 28.7124 51.022 28.1235C51.7778 27.5347 52.2964 26.8477 52.5776 26.0625H54.5815V39Z" fill="url(#paint0_linear)"/>
<defs>
<linearGradient id="paint0_linear" x2="1" gradientUnits="userSpaceOnUse" gradientTransform="translate(32.5) scale(65) rotate(90)">
<stop stop-color="#ACACAC"/>
<stop offset="1" stop-color="#555555"/>
</linearGradient>
</defs>
</svg>
