<svg width="65" height="65" viewBox="0 0 65 65" fill="none" xmlns="http://www.w3.org/2000/svg">
<path fill-rule="evenodd" clip-rule="evenodd" d="M0 32.5C0 14.5508 14.5505 0 32.5 0C50.4492 0 65 14.5508 65 32.5C65 50.4492 50.4492 65 32.5 65C14.5505 65 0 50.4492 0 32.5ZM51.2291 22.0997L52 18.035L49.8471 18.0701C47.0037 18.1129 44.5423 20.0571 43.8419 22.8132L38.9678 41.3271C38.8619 41.7441 38.487 42.0366 38.0567 42.0377C37.623 42.0376 37.2454 41.7413 37.1422 41.3201L31.8405 21.8447C31.2704 19.5842 29.2374 18.0002 26.9061 18C24.5797 18 22.5493 19.5776 21.9745 21.832L19.2372 30.4744H14.4717L13.5607 33.7682H17.8356L18.8167 32.9272L16.6442 40.496C15.9434 42.6685 13.8409 42.248 13.8409 42.248L13 46.3127H14.2615C17.6395 46.3127 20.5853 44.0165 21.4097 40.7405L25.965 22.6498C26.048 22.3071 26.3544 22.0654 26.7071 22.0647C27.0544 22.0645 27.3582 22.2985 27.4465 22.6345L32.7964 41.9361C33.3949 44.3036 35.525 45.9623 37.967 45.9623C40.3261 45.9623 42.4049 44.4123 43.078 42.1512L45.5175 33.8383H50.4232L51.4043 30.4744H47.0593L46.1483 31.1051L48.3207 23.4663C49.3019 21.5741 51.2291 22.0997 51.2291 22.0997Z" fill="url(#paint0_linear)"/>
<defs>
<linearGradient id="paint0_linear" x2="1" gradientUnits="userSpaceOnUse" gradientTransform="translate(32.5) scale(65) rotate(90)">
<stop stop-color="white"/>
<stop offset="1" stop-color="#8785FF"/>
</linearGradient>
</defs>
</svg>
