<svg width="65" height="65" viewBox="0 0 65 65" fill="none" xmlns="http://www.w3.org/2000/svg">
<path fill-rule="evenodd" clip-rule="evenodd" d="M32.5 0C14.5505 0 0 14.5508 0 32.5C0 50.4492 14.5505 65 32.5 65C50.4492 65 65 50.4492 65 32.5C65 14.5508 50.4492 0 32.5 0ZM26.5938 30.7544C25.3733 30.748 24.1549 30.8535 22.9537 31.0693C23.9425 21.9255 31.5637 15 40.6375 15C46.1937 15 50 17.7212 50 23.3518C50 28.9846 45.4303 31.7061 38.765 31.7061C36.3041 31.7061 34.4917 31.4688 32.6794 31.2314C30.8671 30.9939 29.0547 30.7566 26.5938 30.7566V30.7544ZM15 42.4443C15 36.8137 19.5697 34.0903 26.235 34.0903C28.6946 34.0903 30.5067 34.3281 32.3192 34.5662C34.132 34.804 35.9451 35.042 38.4062 35.042C39.6267 35.0481 40.8451 34.9426 42.0463 34.7268C41.0575 43.8728 33.4363 50.7964 24.3625 50.7964C18.8063 50.7964 15 48.075 15 42.4443Z" fill="url(#paint0_linear)"/>
<defs>
<linearGradient id="paint0_linear" x2="1" gradientUnits="userSpaceOnUse" gradientTransform="translate(32.5) scale(65) rotate(90)">
<stop stop-color="#61B3FA"/>
<stop offset="1" stop-color="#5B6DEE"/>
</linearGradient>
</defs>
</svg>
