<svg width="65" height="65" viewBox="0 0 65 65" fill="none" xmlns="http://www.w3.org/2000/svg">
<path fill-rule="evenodd" clip-rule="evenodd" d="M32.5 0C14.5506 0 0 14.5508 0 32.5C0 50.4492 14.5506 65 32.5 65C50.4492 65 65 50.4492 65 32.5C65 14.5508 50.4492 0 32.5 0ZM31.7277 15L32.4408 41.605C31.4615 41.623 30.5794 41.8579 29.7205 42.3186L29.672 42.2317L29.6682 42.2249L29.667 42.2227L29.6657 42.2205C29.6349 42.1655 29.6051 42.1125 29.5785 42.0574L27.9728 38.7329C26.3423 35.3569 24.7119 31.9812 23.0786 28.6064C22.9905 28.4246 22.9824 28.2871 23.0905 28.1008C24.4774 25.7063 25.8604 23.3093 27.2431 20.9126L27.2483 20.9036L27.3198 20.7798L27.4312 20.5867L27.5096 20.4507L29.4712 17.051C29.8919 16.3223 30.4076 15.6785 31.1588 15.2615C31.2659 15.2019 31.3787 15.1528 31.5043 15.0981L31.5146 15.0938L31.5199 15.0916L31.5259 15.0889C31.5896 15.0615 31.6565 15.0325 31.7277 15ZM34.8407 16.1301C34.4884 15.6853 34.0515 15.3298 33.449 15.0928L32.7389 41.5259L35.054 42.127L35.0757 42.0872L35.0811 42.0774C35.1043 42.0347 35.1342 41.9795 35.1622 41.9236L36.4621 39.3293L36.4817 39.2903C38.264 35.7327 40.0464 32.1753 41.8352 28.6211C41.9516 28.3896 41.9411 28.2268 41.8141 28.0076C40.7565 26.1809 39.7019 24.3528 38.6473 22.5244L38.5536 22.3621C37.5801 20.6743 36.6064 18.9866 35.6304 17.3003C35.395 16.8938 35.1321 16.498 34.8407 16.1301ZM38.1827 47.8232C38.1667 47.6538 38.1526 47.4861 38.1386 47.3198C38.1056 46.9272 38.0732 46.5422 38.0175 46.1609C37.972 45.8501 37.8843 45.5339 37.7513 45.2502C37.6213 44.9729 37.6679 44.8093 37.873 44.5894C39.9727 42.3369 42.0655 40.0781 44.1582 37.8193L45.9702 35.864C46.0114 35.8196 46.0542 35.7766 46.1021 35.7288L46.1057 35.7251L46.1806 35.6499L46.2224 35.7041C46.251 35.7405 46.2782 35.7751 46.3 35.813L47.2407 37.4395C48.2614 39.2039 49.2822 40.9683 50.2958 42.7366C50.7798 43.5811 51.0698 44.4814 50.9048 45.4722C50.7508 46.3967 50.2001 47.021 49.3739 47.4199C48.7917 47.7009 48.1691 47.8311 47.5277 47.8325C45.2093 47.8379 42.8909 47.8369 40.5724 47.8359H40.324L38.3593 47.8352C38.3091 47.8352 38.2589 47.8303 38.2207 47.8267L38.1827 47.8232ZM27.5242 44.5198L17.7673 37.3967L17.7198 37.4634C17.6929 37.5007 17.6704 37.5317 17.6514 37.5647L16.8828 38.8928C16.1223 40.2058 15.3617 41.5188 14.6174 42.8408C14.3941 43.2375 14.2267 43.6802 14.114 44.1221C13.6932 45.7717 14.4563 47.1228 16.0887 47.6072C16.5445 47.7424 17.0339 47.823 17.5086 47.8259C19.7664 47.8403 22.0243 47.8386 24.2822 47.8369L26.521 47.8357H26.8343C26.7392 46.6416 26.9596 45.5522 27.5242 44.5198ZM18.3472 36.3379L22.1417 29.7524L29.3318 42.4575L27.6709 44.124L18.3472 36.3379ZM35.3473 42.322L36.8767 43.6235C36.8777 43.623 36.8963 43.6138 36.9109 43.6003L38.789 41.8535C41.0993 39.7048 43.4096 37.5559 45.7235 35.4109C45.8866 35.2598 45.9159 35.1565 45.798 34.9539C45.0787 33.7185 44.3666 32.479 43.6545 31.2393L42.8491 29.8381C42.8274 29.8005 42.8013 29.7654 42.7697 29.7231C42.7532 29.7012 42.7352 29.677 42.7156 29.6494L35.3473 42.322Z" fill="url(#paint0_linear)"/>
<path fill-rule="evenodd" clip-rule="evenodd" d="M32.5 0C14.5506 0 0 14.5508 0 32.5C0 50.4492 14.5506 65 32.5 65C50.4492 65 65 50.4492 65 32.5C65 14.5508 50.4492 0 32.5 0ZM31.7277 15L32.4408 41.605C31.4615 41.623 30.5794 41.8579 29.7205 42.3186L29.672 42.2317L29.6682 42.2249L29.667 42.2227L29.6657 42.2205C29.6349 42.1655 29.6051 42.1125 29.5785 42.0574L27.9728 38.7329C26.3423 35.3569 24.7119 31.9812 23.0786 28.6064C22.9905 28.4246 22.9824 28.2871 23.0905 28.1008C24.4774 25.7063 25.8604 23.3093 27.2431 20.9126L27.2483 20.9036L27.3198 20.7798L27.4312 20.5867L27.5096 20.4507L29.4712 17.051C29.8919 16.3223 30.4076 15.6785 31.1588 15.2615C31.2659 15.2019 31.3787 15.1528 31.5043 15.0981L31.5146 15.0938L31.5199 15.0916L31.5259 15.0889C31.5896 15.0615 31.6565 15.0325 31.7277 15ZM34.8407 16.1301C34.4884 15.6853 34.0515 15.3298 33.449 15.0928L32.7389 41.5259L35.054 42.127L35.0757 42.0872L35.0811 42.0774C35.1043 42.0347 35.1342 41.9795 35.1622 41.9236L36.4621 39.3293L36.4817 39.2903C38.264 35.7327 40.0464 32.1753 41.8352 28.6211C41.9516 28.3896 41.9411 28.2268 41.8141 28.0076C40.7565 26.1809 39.7019 24.3528 38.6473 22.5244L38.5536 22.3621C37.5801 20.6743 36.6064 18.9866 35.6304 17.3003C35.395 16.8938 35.1321 16.498 34.8407 16.1301ZM38.1827 47.8232C38.1667 47.6538 38.1526 47.4861 38.1386 47.3198C38.1056 46.9272 38.0732 46.5422 38.0175 46.1609C37.972 45.8501 37.8843 45.5339 37.7513 45.2502C37.6213 44.9729 37.6679 44.8093 37.873 44.5894C39.9727 42.3369 42.0655 40.0781 44.1582 37.8193L45.9702 35.864C46.0114 35.8196 46.0542 35.7766 46.1021 35.7288L46.1057 35.7251L46.1806 35.6499L46.2224 35.7041C46.251 35.7405 46.2782 35.7751 46.3 35.813L47.2407 37.4395C48.2614 39.2039 49.2822 40.9683 50.2958 42.7366C50.7798 43.5811 51.0698 44.4814 50.9048 45.4722C50.7508 46.3967 50.2001 47.021 49.3739 47.4199C48.7917 47.7009 48.1691 47.8311 47.5277 47.8325C45.2093 47.8379 42.8909 47.8369 40.5724 47.8359H40.324L38.3593 47.8352C38.3091 47.8352 38.2589 47.8303 38.2207 47.8267L38.1827 47.8232ZM27.5242 44.5198L17.7673 37.3967L17.7198 37.4634C17.6929 37.5007 17.6704 37.5317 17.6514 37.5647L16.8828 38.8928C16.1223 40.2058 15.3617 41.5188 14.6174 42.8408C14.3941 43.2375 14.2267 43.6802 14.114 44.1221C13.6932 45.7717 14.4563 47.1228 16.0887 47.6072C16.5445 47.7424 17.0339 47.823 17.5086 47.8259C19.7664 47.8403 22.0243 47.8386 24.2822 47.8369L26.521 47.8357H26.8343C26.7392 46.6416 26.9596 45.5522 27.5242 44.5198ZM18.3472 36.3379L22.1417 29.7524L29.3318 42.4575L27.6709 44.124L18.3472 36.3379ZM35.3473 42.322L36.8767 43.6235C36.8777 43.623 36.8963 43.6138 36.9109 43.6003L38.789 41.8535C41.0993 39.7048 43.4096 37.5559 45.7235 35.4109C45.8866 35.2598 45.9159 35.1565 45.798 34.9539C45.0787 33.7185 44.3666 32.479 43.6545 31.2393L42.8491 29.8381C42.8274 29.8005 42.8013 29.7654 42.7697 29.7231C42.7532 29.7012 42.7352 29.677 42.7156 29.6494L35.3473 42.322Z" fill="url(#paint1_linear)" fill-opacity="0.12" style="mix-blend-mode:soft-light"/>
<defs>
<linearGradient id="paint0_linear" x2="1" gradientUnits="userSpaceOnUse" gradientTransform="translate(32.5) scale(63.018) rotate(90)">
<stop stop-color="#61B3FA"/>
<stop offset="1" stop-color="#1588C5"/>
</linearGradient>
<linearGradient id="paint1_linear" x2="1" gradientUnits="userSpaceOnUse" gradientTransform="translate(32.5) scale(65) rotate(90)">
<stop stop-color="#61B3FA"/>
<stop offset="1" stop-color="#0B549B"/>
</linearGradient>
</defs>
</svg>
