<svg width="65" height="65" viewBox="0 0 65 65" fill="none" xmlns="http://www.w3.org/2000/svg">
<path fill-rule="evenodd" clip-rule="evenodd" d="M32.5 65C50.4492 65 65 50.4492 65 32.5C65 14.5508 50.4492 0 32.5 0C14.5508 0 0 14.5508 0 32.5C0 50.4492 14.5508 65 32.5 65ZM15.3938 34.0073C15.7126 34.2622 15.8721 34.625 15.8721 35.0956C15.8721 35.527 15.7148 35.875 15.4009 36.1396C15.0913 36.3995 14.6272 36.5294 14.0085 36.5294C13.291 36.5294 12.7402 36.3628 12.356 36.0294C11.9714 35.696 11.7793 35.2255 11.7793 34.6177H10C10 35.2892 10.1711 35.8774 10.5134 36.3823C10.8604 36.8872 11.3433 37.2843 11.9619 37.5735C12.5854 37.8578 13.2676 38 14.0085 38C15.1289 38 16.0149 37.7377 16.6667 37.2133C17.323 36.6838 17.6511 35.973 17.6511 35.0809C17.6511 34.5319 17.5386 34.054 17.3137 33.6471C17.0886 33.2352 16.7346 32.8726 16.2517 32.5588C15.7688 32.2402 15.1289 31.9584 14.332 31.7133C13.5349 31.4633 12.9629 31.2084 12.616 30.9485C12.269 30.6838 12.0957 30.3555 12.0957 29.9633C12.0957 29.4976 12.2551 29.1348 12.5737 28.875C12.8972 28.6152 13.3496 28.4854 13.9312 28.4854C14.5547 28.4854 15.0327 28.6447 15.3657 28.9633C15.7031 29.277 15.8721 29.7133 15.8721 30.2721H17.644C17.644 29.6544 17.4849 29.0931 17.166 28.5883C16.8472 28.0785 16.4089 27.6863 15.8508 27.4117C15.293 27.1373 14.6577 27 13.9451 27C12.8716 27 11.9971 27.2794 11.322 27.8383C10.6516 28.3971 10.3164 29.1079 10.3164 29.9706C10.3164 30.9559 10.783 31.7549 11.7158 32.3677C12.2034 32.6863 12.8599 32.9755 13.6851 33.2352C14.51 33.4951 15.0796 33.7524 15.3938 34.0073ZM20.9915 37.8529V33.875H23.1084C24.2944 33.875 25.2156 33.5834 25.8721 33C26.533 32.4166 26.8635 31.6005 26.8635 30.5515C26.8635 29.527 26.5261 28.7035 25.8508 28.0809C25.1804 27.4584 24.2734 27.1471 23.1294 27.1471H19.2124V37.8529H20.9915ZM23.1294 32.3823H20.9915V28.6471H23.1787C23.7693 28.6569 24.2334 28.8358 24.571 29.1838C24.9087 29.527 25.0774 29.9878 25.0774 30.5662C25.0774 31.1544 24.9109 31.6053 24.5781 31.9191C24.2451 32.2279 23.7622 32.3823 23.1294 32.3823ZM34.782 37.8529H36.5542V27.1471H34.782V31.6029H30.2039V27.1471H28.4248V37.8529H30.2039V33.0956H34.782V37.8529ZM42.6582 28.6471H45.8511V27.1471H37.7285V28.6471H40.8931V37.8529H42.6582V28.6471ZM52.8762 27.1471L50.7244 31.0146L48.5725 27.1471H46.5188L49.6201 32.4559L46.4487 37.8529H48.5164L50.7244 33.9265L52.9255 37.8529H55L51.8354 32.4559L54.9297 27.1471H52.8762Z" fill="url(#paint0_linear)"/>
<defs>
<linearGradient id="paint0_linear" x2="1" gradientUnits="userSpaceOnUse" gradientTransform="translate(65) scale(65) rotate(90)">
<stop stop-color="white"/>
<stop offset="1" stop-color="#8785FF"/>
</linearGradient>
</defs>
</svg>
