<svg width="65" height="65" viewBox="0 0 65 65" fill="none" xmlns="http://www.w3.org/2000/svg">
<path fill-rule="evenodd" clip-rule="evenodd" d="M32.5 0C14.5506 0 0 14.5508 0 32.5C0 50.4492 14.5506 65 32.5 65C50.4492 65 65 50.4492 65 32.5C65 14.5508 50.4492 0 32.5 0ZM25.6225 12.5942L18.7689 16.5509C16.2055 18.0218 14.337 20.4571 13.58 23.314L11.5319 30.9572C10.7573 33.8119 11.158 36.8579 12.6446 39.4151L16.6013 46.2687C18.0722 48.8322 20.5075 50.7007 23.3644 51.4576L31.0076 53.497C31.9536 53.7512 32.9287 53.8805 33.9082 53.8817C35.8581 53.88 37.773 53.3634 39.4592 52.3843L46.3128 48.4275C48.8763 46.9567 50.7448 44.5213 51.5018 41.6644L53.5499 34.0212C54.3227 31.1685 53.922 28.1251 52.4372 25.5696L48.4804 18.7185C47.0096 16.155 44.5743 14.2866 41.7174 13.5296L34.0742 11.4815C33.1279 11.2298 32.1527 11.103 31.1736 11.1043C29.2238 11.1056 27.3089 11.6217 25.6225 12.6005V12.5942ZM31.0729 53.2583L23.4285 51.2101C20.636 50.4693 18.2557 48.6427 16.8176 46.1369L12.8608 39.2896C11.4091 36.7916 11.0174 33.8164 11.7732 31.0278L13.8214 23.3834C14.5601 20.5885 16.3872 18.2059 18.8946 16.7674L25.747 12.8106C27.3956 11.8542 29.2675 11.3498 31.1735 11.3484C32.131 11.3495 33.0843 11.4763 34.0088 11.7256L41.6532 13.7662C44.4457 14.507 46.8261 16.3337 48.2641 18.8394L52.2209 25.6918C53.6714 28.1902 54.063 31.1649 53.3085 33.9536L51.2603 41.598C50.5213 44.3933 48.6944 46.7767 46.1871 48.2165L39.3335 52.1732C37.6854 53.1301 35.8139 53.6349 33.9082 53.6368C32.9507 53.6357 31.9974 53.5088 31.0729 53.2596V53.2583ZM34.5117 52.6068L27.0998 51.9593C24.2212 51.7147 21.5598 50.3294 19.7081 48.1119L14.9303 42.4125C13.0672 40.2044 12.1653 37.3425 12.4258 34.4651L13.0733 27.0532C13.3179 24.1746 14.7031 21.5133 16.9206 19.6615L22.62 14.8837C24.5729 13.2367 27.0459 12.3342 29.6006 12.3364C29.9212 12.3364 30.2444 12.3503 30.5675 12.3792L37.9793 13.0267C40.8583 13.2712 43.5198 14.657 45.3711 16.8753L50.1488 22.5747C52.012 24.7824 52.9144 27.6438 52.6547 30.5209L52.0071 37.9327C51.7641 40.8115 50.3791 43.4733 48.161 45.3245L42.4616 50.1022C40.5091 51.7491 38.0366 52.6515 35.4823 52.6496C35.1617 52.6496 34.8386 52.6357 34.5154 52.6068H34.5117ZM22.4591 14.6878L16.7597 19.4656C14.489 21.3603 13.0713 24.0851 12.8231 27.032L12.1743 34.4426C11.9087 37.3862 12.8319 40.3136 14.738 42.5724L19.5157 48.2718C21.4089 50.541 24.1313 51.9585 27.0759 52.2084L34.4878 52.8559C34.8197 52.8861 35.1491 52.8999 35.4785 52.8999C38.0915 52.9023 40.6208 51.9789 42.6175 50.2935L48.3169 45.5158C50.5861 43.6226 52.0037 40.9002 52.2536 37.9556L52.9011 30.5437C53.167 27.6003 52.2443 24.6729 50.3387 22.4139L45.5609 16.7146C43.6686 14.4435 40.9461 13.0241 38.0007 12.7729L30.5889 12.1317C30.2569 12.1028 29.9275 12.0877 29.5981 12.0877C26.9859 12.0831 24.4565 13.0043 22.4591 14.6878ZM27.4154 13.6216L34.3118 13.018C37.1896 12.7595 40.0512 13.6627 42.2592 15.5264L47.5613 19.976C49.78 21.8264 51.1659 24.4877 51.4099 27.3665L52.0122 34.2603C52.2723 37.1378 51.3699 39.9998 49.5064 42.2077L45.0567 47.5123C43.2061 49.7305 40.5448 51.116 37.6663 51.3597L30.7699 51.9632C27.8912 52.2236 25.028 51.3213 22.8187 49.4574L17.5204 45.0078C15.3021 43.1565 13.9163 40.495 13.6718 37.6161L13.0683 30.7197C12.8095 27.8423 13.7117 24.9808 15.5741 22.7723L20.0237 17.4702L19.9269 17.3897L20.0224 17.4702C21.8737 15.2519 24.5353 13.8661 27.4142 13.6216H27.4154ZM35.2786 12.7263C34.9505 12.7263 34.6198 12.7402 34.2891 12.7703L27.3928 13.3726C24.4481 13.6225 21.7258 15.04 19.8326 17.3092L15.383 22.6125C13.4771 24.8704 12.5544 27.7971 12.8206 30.7398L13.4228 37.6361C13.6721 40.5817 15.0897 43.3051 17.3595 45.1989L22.6615 49.6485C24.6587 51.334 27.1884 52.2574 29.8018 52.2549C30.13 52.2549 30.4606 52.2411 30.7913 52.2121L37.6876 51.6086C40.6328 51.3591 43.3556 49.9415 45.2491 47.672L49.6987 42.3699C51.6043 40.111 52.527 37.1835 52.2611 34.2402L51.6589 27.3451C51.4093 24.3999 49.9917 21.6771 47.7222 19.7836L42.4202 15.3327C40.4229 13.6483 37.8939 12.725 35.2812 12.7263H35.2786ZM26.0047 50.2154L20.4575 47.0131C17.9518 45.5758 16.1254 43.1957 15.3855 40.4034L13.7271 34.2162C12.9724 31.4275 13.364 28.4528 14.8147 25.9544L18.017 20.4084C19.4553 17.9023 21.8362 16.0755 24.6292 15.3351L30.8152 13.6768C31.7398 13.4281 32.6929 13.3013 33.6504 13.2996C35.5574 13.3032 37.4296 13.8112 39.077 14.7719L44.623 17.9742C47.128 19.4101 48.9548 21.7883 49.6962 24.5789L51.3596 30.7649C52.1155 33.5535 51.7238 36.5286 50.2721 39.0266L47.0634 44.5701C45.6258 47.0761 43.2452 48.9025 40.4525 49.6421L34.2665 51.3005C33.3419 51.5492 32.3887 51.676 31.4313 51.6777C29.525 51.6767 27.6529 51.1718 26.0047 50.2142V50.2154ZM30.7511 13.4355L24.5638 15.0939C21.7069 15.8508 19.2716 17.7193 17.8008 20.2828L14.5984 25.8363C13.1139 28.3915 12.7132 31.4343 13.4857 34.2867L15.1491 40.4676C15.906 43.3246 17.7745 45.7599 20.338 47.2307L25.8853 50.4331C27.5711 51.412 29.4856 51.9282 31.435 51.9293C32.4142 51.9307 33.3894 51.8039 34.3356 51.5521L40.5229 49.8937C43.3794 49.1334 45.813 47.2617 47.2809 44.696L50.4795 39.1512C51.9644 36.5962 52.3656 33.5534 51.5935 30.7009L49.9351 24.5136C49.1781 21.6567 47.3097 19.2214 44.7462 17.7506L39.2014 14.5482C37.5156 13.5693 35.6011 13.0531 33.6517 13.052C32.6722 13.0527 31.697 13.1816 30.7511 13.4355ZM31.3684 42.4328V24.2119H28.9657V23.0803C28.9664 22.8216 29.176 22.612 29.4347 22.6113H36.2241L35.2535 24.2056H33.2418V42.4328H31.3684ZM25.3019 42.4428H25.1422C23.5604 42.3957 22.3055 41.0944 22.3158 39.512V38.6532C22.3155 38.4154 22.4216 38.1899 22.605 38.0384L24.1829 36.7384V39.4026C24.1829 40.3619 24.5601 40.8485 25.3007 40.8485C26.1808 40.8485 26.3631 40.0627 26.3631 39.4026V36.6365C26.3631 35.9437 26.2235 35.4358 25.8476 34.7644L23.1959 30.1463C22.693 29.2863 22.4264 28.6275 22.4264 27.6141V25.2352C22.4264 23.3178 23.421 22.3044 25.3019 22.3044C27.2646 22.3044 28.1774 23.1921 28.1774 25.0982V25.7394C28.178 26.0119 28.055 26.2699 27.8429 26.441L26.3103 27.6794V25.2076C26.3103 24.2897 26.0085 23.8987 25.3044 23.8987C24.6003 23.8987 24.2986 24.2897 24.2986 25.2076V27.2859C24.2986 27.99 24.4356 28.5834 24.7047 29.0461L27.5714 33.971C28.0049 34.7062 28.2333 35.5442 28.2327 36.3976V39.5158C28.2327 40.4311 27.9624 41.1804 27.4507 41.6859C26.9389 42.1913 26.2021 42.4465 25.3019 42.4465V42.4428ZM41.359 42.3069L38.9261 32.4106V42.3069H37.0577V22.7897C37.0584 22.6254 37.1914 22.4924 37.3557 22.4917H38.9261V30.9672L41.1126 22.4917H42.9847L40.377 31.5443L43.2299 42.3069H41.359Z" fill="url(#paint0_linear)"/>
<defs>
<linearGradient id="paint0_linear" x2="1" gradientUnits="userSpaceOnUse" gradientTransform="translate(32.5) scale(65) rotate(90)">
<stop stop-color="#D82553"/>
<stop offset="1" stop-color="#AD3873"/>
</linearGradient>
</defs>
</svg>
