<svg width="65" height="65" viewBox="0 0 65 65" fill="none" xmlns="http://www.w3.org/2000/svg">
<path fill-rule="evenodd" clip-rule="evenodd" d="M32.5 0C14.5506 0 0 14.5508 0 32.5C0 50.4492 14.5506 65 32.5 65C50.4492 65 65 50.4492 65 32.5C65 14.5508 50.4492 0 32.5 0ZM25.3085 14.0886C25.382 14.0319 25.4726 14.0017 25.5655 14.003C25.6581 14.003 25.7483 14.033 25.8224 14.0886L27.9759 15.7025C28.0984 15.7946 28.1623 15.945 28.1438 16.0971C28.1252 16.2491 28.0269 16.3798 27.8859 16.4397C27.7449 16.4997 27.5827 16.4799 27.4603 16.3877L25.5655 14.9709L19.4031 19.5914L46.4716 39.8997C46.5802 39.9812 46.6441 40.1091 46.6441 40.2449C46.6441 40.3807 46.5802 40.5085 46.4716 40.5901L44.4826 42.0806C44.2924 42.2225 44.0232 42.1834 43.8813 41.9932C43.7393 41.803 43.7785 41.5338 43.9686 41.3919L45.4985 40.244L18.4283 19.9392C18.3191 19.8592 18.2546 19.7319 18.2546 19.5966C18.2546 19.4612 18.3191 19.334 18.4283 19.2539L25.3085 14.0903V14.0886ZM32.1904 14.0887C32.3413 13.9717 32.5519 13.9703 32.7044 14.0853L46.4699 24.4107C46.6185 24.5205 46.6782 24.7143 46.6172 24.8887C46.5601 25.0645 46.3961 25.1835 46.2112 25.1834H39.3293C39.2367 25.1828 39.1467 25.1528 39.0723 25.0977L30.0386 18.3237C29.9156 18.2316 29.8511 18.0809 29.8693 17.9282C29.8876 17.7756 29.9859 17.6444 30.1272 17.5839C30.2684 17.5234 30.4313 17.5429 30.5543 17.635L39.4749 24.3233H44.9212L32.4491 14.9693L23.8146 21.4452C23.6244 21.5876 23.3548 21.5488 23.2124 21.3587C23.07 21.1685 23.1087 20.8989 23.2989 20.7565L32.1904 14.0887ZM20.3282 22.9888C20.5183 22.8739 20.7646 22.922 20.8975 23.1001C21.0303 23.2781 21.0064 23.5279 20.8422 23.6775L19.4014 24.7568L46.4716 45.065C46.5808 45.1458 46.6452 45.2736 46.6452 45.4094C46.6452 45.5452 46.5808 45.673 46.4716 45.7537L39.5897 50.9156C39.4369 51.0281 39.2286 51.0281 39.0757 50.9156L37.0833 49.4217C36.9603 49.329 36.8961 49.1777 36.9148 49.0247C36.9336 48.8718 37.0326 48.7406 37.1744 48.6804C37.3162 48.6202 37.4794 48.6403 37.6024 48.733L39.3327 50.0299L45.5002 45.4042L18.4231 25.1011C18.3159 25.0191 18.2529 24.8918 18.2529 24.7568C18.2529 24.6217 18.3159 24.4944 18.4231 24.4124L20.3248 22.9905L20.3282 22.9888ZM18.6852 39.8107V39.8141H25.5637C25.6562 39.8124 25.747 39.8433 25.8207 39.8998L34.7568 46.6001C34.8798 46.6919 34.9445 46.8424 34.9265 46.9949C34.9085 47.1473 34.8105 47.2786 34.6695 47.3392C34.5285 47.3998 34.3658 47.3806 34.2428 47.2888L25.4267 40.6742H19.977L32.4508 50.0282L41.0682 43.5661C41.1912 43.4736 41.3542 43.4539 41.4957 43.5142C41.6373 43.5745 41.7359 43.7058 41.7544 43.8585C41.773 44.0113 41.7086 44.1623 41.5856 44.2548L32.7095 50.9088C32.6353 50.9644 32.5452 50.9945 32.4525 50.9945C32.3592 50.9954 32.2682 50.9652 32.1938 50.9088L18.4248 40.5868C18.2388 40.5845 18.0754 40.4629 18.0197 40.2854C17.9641 40.1079 18.0289 39.9148 18.1803 39.8067C18.3318 39.6987 18.5355 39.7003 18.6852 39.8107Z" fill="url(#paint0_linear)"/>
<defs>
<linearGradient id="paint0_linear" x2="1" gradientUnits="userSpaceOnUse" gradientTransform="translate(32.5) scale(65) rotate(90)">
<stop stop-color="#ED5250"/>
<stop offset="1" stop-color="#E53431"/>
</linearGradient>
</defs>
</svg>
