<svg width="65" height="65" viewBox="0 0 65 65" fill="none" xmlns="http://www.w3.org/2000/svg">
<path fill-rule="evenodd" clip-rule="evenodd" d="M0 32.5C0 14.5508 14.5505 0 32.5 0C50.4492 0 65 14.5508 65 32.5C65 50.4492 50.4492 65 32.5 65C14.5505 65 0 50.4492 0 32.5ZM27.7079 32.1653C32.5052 27.8567 37.9125 23 44.2673 23C58.5524 23 59.0765 41.0857 42.8254 41.0857C36.5355 41.0857 31.5548 38.2026 27.6232 34.6641C23.9539 37.8091 20.4153 40.4304 16.4835 40.4304C8.22705 40.4304 7.83386 29.5522 15.4324 27.718C15.6945 27.5869 15.6945 27.98 15.4324 27.98C9.66602 29.8147 9.66602 38.9885 16.3497 38.9885C19.6272 38.9885 23.8209 35.8435 26.4421 33.3533C24.8712 31.9119 23.4299 30.2078 22.2499 28.7664C22.1189 28.6353 22.1189 28.5042 22.2499 28.3733C22.381 28.3733 22.5121 28.3733 22.6431 28.5042C23.9535 29.946 25.5264 31.5186 26.9679 32.8291L27.5457 32.3108L27.7079 32.1653ZM42.6947 39.6448C37.5836 39.6448 32.6023 37.417 28.2787 34.0095C28.7094 33.6355 29.1401 33.2576 29.5713 32.8792C34.1261 28.8823 38.7375 24.8357 44.0052 24.8357C55.538 24.8347 55.8 39.7754 42.6947 39.6448ZM20.6771 26.8008C20.6771 27.7417 19.9144 28.5044 18.9735 28.5044C18.0326 28.5044 17.2699 27.7417 17.2699 26.8008C17.2699 25.8599 18.0326 25.0972 18.9735 25.0972C19.9144 25.0972 20.6771 25.8599 20.6771 26.8008Z" fill="url(#paint0_linear)"/>
<defs>
<linearGradient id="paint0_linear" x2="1" gradientUnits="userSpaceOnUse" gradientTransform="translate(32.5) scale(65) rotate(90)">
<stop stop-color="#FDE785"/>
<stop offset="1" stop-color="#EFD96F"/>
</linearGradient>
</defs>
</svg>
