<svg width="65" height="65" viewBox="0 0 65 65" fill="none" xmlns="http://www.w3.org/2000/svg">
<path fill-rule="evenodd" clip-rule="evenodd" d="M0 32.5C0 14.5508 14.5505 0 32.5 0C50.4492 0 65 14.5508 65 32.5C65 50.4492 50.4492 65 32.5 65C14.5505 65 0 50.4492 0 32.5ZM25.7676 14.0671C26.1044 13.8987 26.4413 14.0671 26.6658 14.3479C27.1775 14.9619 27.3627 15.7625 27.5615 16.6221L27.6202 16.8743C27.668 16.9888 27.7157 17.1211 27.7661 17.2612C28.0126 17.9448 28.3247 18.8108 29.0238 18.6709C29.5652 18.5876 29.8904 18.1953 30.2056 17.8149C30.3152 17.6826 30.4237 17.5518 30.5397 17.4358C30.8765 17.0427 34.1327 13.9548 34.5258 14.9656C34.6381 15.2461 33.8521 16.2007 33.6836 16.3691C33.3514 16.7314 32.8691 17.1101 32.3577 17.5115C30.9674 18.6025 29.3625 19.8621 29.9781 21.4219C30.2866 21.4456 30.6453 21.1785 31.0073 20.9087C31.5021 20.5403 32.0034 20.167 32.3923 20.5234C32.8976 20.9727 30.8765 22.3201 30.5958 22.4885C29.4167 23.3306 29.0238 24.8464 28.8553 26.25C28.8127 26.5769 28.7197 26.9326 28.6237 27.2998C28.3405 28.3831 28.031 29.5659 28.9115 30.4045C30.2589 31.6958 32.2239 30.3484 32.7853 28.9448C33.5184 27.0342 34.278 25.1414 35.036 23.252C36.1936 20.3667 37.3479 17.49 38.3995 14.5725C38.6803 13.8987 39.5785 13.9548 39.8593 14.5725C40.1176 15.1926 39.8528 15.908 39.6338 16.4993L39.5785 16.6497C39.5396 16.7471 39.4921 16.8547 39.4415 16.9695C39.2006 17.5161 38.8876 18.2263 39.0732 18.7832C39.3846 19.6731 40.2604 19.4697 41.0295 19.291C41.2308 19.2444 41.4249 19.1992 41.5996 19.176L41.7118 19.1599C42.5259 19.0413 43.9628 18.8318 44.0699 19.8499C44.1823 20.6357 43.4524 20.748 43.0032 20.748C41.9365 20.748 38.3995 20.9165 38.0066 21.478C37.4519 22.1912 37.1488 23.0161 36.8409 23.8542C36.7125 24.2039 36.5833 24.5557 36.4346 24.9026C36.1538 25.5764 35.8732 26.25 35.6486 26.9238C35.6144 27.0261 35.5388 27.1804 35.4532 27.355C35.2573 27.7546 35.009 28.2612 35.0872 28.4958C35.3118 29.2256 36.6592 28.552 37.1083 28.3274C38.1448 27.8782 39.1388 27.3652 40.1296 26.8538C40.7488 26.5344 41.3666 26.2156 41.9927 25.9133C42.8113 25.5039 43.6449 25.1169 44.4771 24.7305C45.9277 24.0571 47.374 23.3857 48.7297 22.6008C49.0104 22.4324 49.4034 22.5447 49.5719 22.8254C49.714 23.0149 49.6962 23.1643 49.6871 23.24C49.6854 23.2542 49.6841 23.2656 49.6841 23.2744C49.5157 23.6675 48.9543 24.2852 48.2805 24.5659C47.4946 24.9587 46.3717 25.5203 46.7648 26.5869C47.0479 27.2744 48.0011 28.1077 48.7849 28.7927C49.0891 29.0586 49.3678 29.3022 49.5719 29.5063C49.9087 29.8433 50.6947 30.9661 50.0771 31.303C49.6228 31.53 48.9845 30.9114 48.5791 30.5183C48.4835 30.4258 48.4009 30.3457 48.3367 30.2922C48.2067 30.1753 47.9501 29.9136 47.6257 29.5828C46.5494 28.4854 44.726 26.626 44.2944 26.7554C43.2839 27.0361 40.3645 28.0466 40.4768 29.5063C40.5227 29.9648 41.0933 30.4988 41.5149 30.8931C41.6093 30.9812 41.6962 31.0625 41.7681 31.1345C42.3633 31.804 42.983 32.4487 43.5947 33.0854C43.9064 33.4097 44.2159 33.7317 44.519 34.0537H44.6313L51.4807 35.2891C52.2106 35.4014 52.0983 36.2434 51.593 36.5242C51.0839 36.8481 50.0403 36.6379 49.312 36.4912C49.1571 36.46 49.0164 36.4316 48.8982 36.4119L48.7148 36.3777C47.276 36.1077 46.0531 35.8784 46.484 37.8716C46.5797 38.3501 46.7979 38.8389 47.0166 39.3291C47.311 39.989 47.6068 40.6519 47.6068 41.2961C47.5508 42.6997 46.8771 42.4751 46.484 41.3523C46.3419 40.9463 46.2219 40.5403 46.1025 40.137C45.892 39.4248 45.6838 38.7209 45.3612 38.04C45.2747 37.8669 45.1826 37.6748 45.0864 37.4739C44.7456 36.762 44.3517 35.939 43.9576 35.4573C42.9559 34.2139 42.1667 35.4995 41.5508 36.5027C41.1656 37.1301 40.8483 37.647 40.5891 37.3662C40.3645 37.1416 40.8137 36.2434 40.9259 36.0188C41.0095 35.8098 41.1277 35.5801 41.2521 35.3384C41.6292 34.6055 42.0636 33.761 41.7681 33.0432C41.4313 32.2573 40.3083 31.415 39.6346 30.9099C39.5474 30.8359 39.464 30.7629 39.3833 30.6921C38.79 30.1716 38.3414 29.7781 37.5012 30.1238C36.7153 30.4607 35.5924 31.0784 35.1433 31.8081C34.6942 32.4819 35.1433 33.4924 35.5363 34.0537C37.6049 37.176 39.9176 40.1084 42.2292 43.0396C43.2429 44.3247 44.2563 45.6099 45.2489 46.9104C45.6418 47.3596 45.1366 48.2017 44.5752 47.9771C44.1823 47.8086 43.733 47.135 43.2839 46.4612C43.2397 46.395 43.1772 46.2939 43.1003 46.1697C42.5897 45.345 41.4404 43.4885 40.7576 43.8787C40.4093 44.0964 40.1287 44.8201 39.9154 45.3699C39.8536 45.5293 39.7975 45.6741 39.7469 45.7876C39.5505 46.2085 39.3821 46.6296 39.2136 47.0508C39.0452 47.4719 38.8767 47.8931 38.6803 48.314C38.6345 48.4055 38.5842 48.5317 38.5272 48.6746C38.3046 49.2332 37.9816 50.043 37.4451 49.9983C36.996 49.9421 36.7153 49.3245 36.9398 48.9316C37.5223 47.9609 37.9436 46.8557 38.3523 45.7837C38.5345 45.3057 38.7144 44.8342 38.9048 44.384L38.9492 44.2739C39.1997 43.6565 39.7166 42.3818 39.2417 41.8015C39.0171 41.5208 35.9855 37.8154 35.7609 38.04C35.131 38.6699 35.0037 39.7395 34.8855 40.7319C34.8456 41.0664 34.8069 41.3921 34.7502 41.6892C34.6487 42.324 34.5358 42.97 34.4216 43.6226C34.2833 44.4128 34.1434 45.2126 34.0205 46.0122C33.9371 46.4568 33.84 46.9153 33.741 47.3823C33.4401 48.8022 33.1222 50.3022 33.1222 51.7385C33.1222 51.907 33.066 52.0754 32.9537 52.1877C32.8414 52.3 32.6731 52.3562 32.5046 52.3562C32.4766 52.3562 32.4344 52.3423 32.3923 52.3281C32.3502 52.314 32.3081 52.3 32.28 52.3C31.8599 52.1599 31.9443 50.5833 31.9847 49.8301C31.9929 49.6777 31.9993 49.5591 31.9993 49.4929C31.9993 49.3337 32.0177 49.1167 32.0387 48.8696C32.1213 47.8979 32.2437 46.4604 31.4379 46.2368C30.98 46.1118 30.5221 46.4807 30.1329 46.7942C29.9972 46.9036 29.8698 47.0063 29.7537 47.0789C28.5747 47.8086 27.115 48.707 25.7114 49.0999C24.8693 49.3245 24.8693 48.5386 25.2062 48.0894C25.4777 47.7092 25.9594 47.4341 26.3463 47.2134L26.3851 47.1912C26.7085 46.9971 27.0402 46.8196 27.3706 46.6428C27.9006 46.3591 28.4274 46.0771 28.9115 45.7314C29.2487 45.5066 29.5999 45.3101 29.951 45.1133C30.3016 44.917 30.6522 44.7207 30.9888 44.4963C32.1116 43.8225 35.0872 38.8821 32.3362 38.489C31.5527 38.3652 30.5875 39.0896 29.7965 39.6831C29.5106 39.8977 29.2474 40.0952 29.0238 40.2295C28.3501 40.6787 27.6202 41.0715 26.8904 41.4084C26.7802 41.4558 26.6256 41.5073 26.4542 41.5647C26.0148 41.7119 25.4642 41.896 25.2622 42.1384L20.6586 47.5842C20.4341 47.8086 20.041 47.8647 19.7604 47.6401C19.5919 47.4719 19.5358 47.3596 19.5358 47.2473C19.5144 46.4353 20.347 45.5417 21.1545 44.6755C22.4685 43.2656 23.7157 41.9275 21.1078 41.1277C20.7064 41.0022 20.2938 40.9216 19.8801 40.8408C19.3678 40.741 18.8538 40.6404 18.3568 40.4541C18.3031 40.4312 18.2399 40.406 18.1708 40.3784C17.7339 40.2046 17.0579 39.9358 17.0094 39.4995C16.8665 38.6423 17.9758 38.9568 18.6241 39.1404C18.7402 39.1733 18.8416 39.2019 18.9182 39.219C20.041 39.4436 21.22 39.7803 22.2867 40.1172C23.4657 40.5103 24.5885 40.6226 25.5991 39.668C25.6107 39.668 25.5338 39.5317 25.4149 39.3208C24.9574 38.51 23.8774 36.5955 24.8131 37.0854C25.2715 37.3354 25.5752 37.8176 25.8678 38.282C26.3635 39.0688 26.8273 39.8047 27.957 39.2751C29.6414 38.489 32.28 37.2539 33.459 35.738C34.2395 34.7136 33.4094 33.6045 32.7363 32.7053C32.6348 32.5696 32.5369 32.4387 32.4485 32.3135C26.3851 33.9978 19.9849 35.4014 13.7531 36.5242C13.4163 36.5803 13.0793 36.3557 13.0233 36.0188C12.9672 35.738 13.0233 35.6257 13.0793 35.5696C13.5286 34.9521 15.2128 34.7275 16.0549 34.6152L16.0984 34.6035C16.7405 34.4287 18.1884 34.0349 18.1884 33.2117C18.1884 32.9634 17.6086 32.3489 17.214 31.9307C17.0732 31.7815 16.9561 31.6572 16.8971 31.5835C16.4479 30.9661 15.9988 30.4045 15.5497 29.8433L15.5378 29.8293C15.2036 29.4397 14.8225 28.9951 15.0444 28.4958C15.3812 27.6536 16.2234 28.1589 16.5602 28.7202C17.2261 29.8142 18.1741 30.9084 19.0627 31.9341C19.223 32.1191 19.3813 32.3018 19.5358 32.4819C19.6077 32.5684 19.6797 32.6658 19.7535 32.7656C19.9678 33.0557 20.1979 33.3672 20.4901 33.4924L20.5463 33.5486C21.2448 33.8203 21.97 33.5823 22.6665 33.3538C22.9777 33.2517 23.2832 33.1514 23.578 33.0994C24.9254 32.8748 26.0482 32.3696 27.2833 31.8081C25.6553 30.2922 24.0833 29.0571 22.2306 27.8782C21.9207 27.6824 21.6107 27.4878 21.3013 27.2937C19.4808 26.1509 17.6782 25.0193 15.9988 23.7236L15.9238 23.675C15.7349 23.5535 15.4302 23.3579 15.3812 23.1624C15.3251 23.05 15.3251 22.9377 15.4374 22.7131C15.9384 21.8225 17.2672 22.7532 17.8369 23.1521L17.8514 23.1624C17.9727 23.2505 18.1047 23.3582 18.245 23.4724C18.8195 23.9407 19.5326 24.5217 20.2095 24.3413C21.1141 24.115 21.1805 22.8684 21.231 21.9229C21.243 21.6946 21.2543 21.4841 21.2761 21.3096C21.2924 21.0823 21.2992 20.8455 21.3062 20.605C21.3232 20.0134 21.3411 19.3979 21.5007 18.8394L21.613 18.4463C21.6692 18.2778 21.7253 18.1655 21.8937 18.0532C22.0621 17.9971 22.2306 17.9409 22.399 17.9971C22.7358 18.1094 22.9604 18.4463 22.8481 18.7832C22.8481 18.7832 22.2867 23.4429 22.2306 24.678L22.22 24.8918C22.1707 25.8596 22.1689 25.8933 22.9043 26.4185C23.4418 26.8025 24.0026 27.1631 24.5601 27.5215C25.2256 27.9495 25.8864 28.3743 26.4974 28.8325C27.224 27.0403 27.5745 25.2896 27.9454 23.4365C28.0044 23.1421 28.0638 22.845 28.1255 22.5447C28.2406 22.0076 27.8574 21.0505 26.9758 18.8494C26.5676 17.8303 26.0526 16.5442 25.4307 14.9094C25.3745 14.741 25.3745 14.5725 25.4307 14.4041C25.4868 14.2356 25.5991 14.1233 25.7676 14.0671Z" fill="url(#paint0_linear)"/>
<defs>
<linearGradient id="paint0_linear" x2="1" gradientUnits="userSpaceOnUse" gradientTransform="translate(32.5 65) scale(65) rotate(-90)">
<stop stop-color="#D82553"/>
<stop offset="1" stop-color="#EC1F8E"/>
</linearGradient>
</defs>
</svg>
