<svg width="65" height="65" viewBox="0 0 65 65" fill="none" xmlns="http://www.w3.org/2000/svg">
<path fill-rule="evenodd" clip-rule="evenodd" d="M32.5 0C14.5506 0 0 14.5508 0 32.5C0 50.4492 14.5506 65 32.5 65C50.4492 65 65 50.4492 65 32.5C65 14.5508 50.4492 0 32.5 0ZM11 27H13.3256V29.1876H11V27ZM13.3256 35.5534H20.0927V37.75H11V31.3752H17.8263V33.5611H13.3274V35.5534H13.3256ZM44.9073 31.3752H54V37.75H47.1737V35.5534H51.6744V33.5629H44.9073V31.3752ZM51.712 29.2933H44.9037V27.1057H51.712V29.2915V29.2933ZM22.309 31.3752H31.4017V35.6466H29.1371V37.75H22.309V31.3752ZM29.0761 35.5535V33.563H24.6346V35.5517H29.0779L29.0761 35.5535ZM22.309 27H31.4017V29.1876H22.309V27ZM33.6574 31.3752H42.7501V35.6466H40.4855V37.75H33.6592V31.3752H33.6574ZM40.4156 35.5535V33.563H35.9722V35.5517H40.4156V35.5535ZM33.6574 27H42.7501V29.1876H33.6574V27Z" fill="url(#paint0_linear)"/>
<defs>
<linearGradient id="paint0_linear" x2="1" gradientUnits="userSpaceOnUse" gradientTransform="translate(32.5 65) scale(65) rotate(-90)">
<stop stop-color="#002342"/>
<stop offset="1" stop-color="#4C6F8C"/>
</linearGradient>
</defs>
</svg>
