<svg width="65" height="65" viewBox="0 0 65 65" fill="none" xmlns="http://www.w3.org/2000/svg">
<path fill-rule="evenodd" clip-rule="evenodd" d="M32.5 0C14.5506 0 0 14.5508 0 32.5C0 50.4492 14.5506 65 32.5 65C50.4492 65 65 50.4492 65 32.5C65 14.5508 50.4492 0 32.5 0ZM14.672 28.1314C15.8195 28.175 16.9594 28.3372 18.0736 28.6154C18.0292 28.2 18.0079 27.7824 18.0096 27.3646C18.0037 26.964 18.0456 26.5641 18.1343 26.1733C16.6291 26.3704 15.1122 26.4641 13.5942 26.4537C12.0583 26.4627 10.5235 26.3691 9 26.1737C9.07706 26.5662 9.11752 26.965 9.12086 27.365C9.12086 27.9888 9.08633 28.6157 9.08633 28.6157C10.1974 28.341 11.3334 28.1793 12.477 28.1333C12.5867 29.2874 12.6378 30.4463 12.6302 31.6055C12.6302 35.0969 12.2619 36.545 12.2619 36.545C12.6869 36.4898 13.1151 36.4629 13.5437 36.4644C13.9925 36.4647 14.4409 36.4916 14.8865 36.545C14.8865 36.545 14.5182 35.0854 14.5182 31.6055C14.5107 30.4456 14.562 29.2861 14.672 28.1314ZM44.0147 29.0266C43.5847 29.037 43.1549 29.0028 42.732 28.9243C42.732 28.9243 43.1003 29.8698 43.1003 32.6332C43.1003 35.3966 42.7313 36.545 42.7313 36.545C43.6027 36.4344 44.4846 36.4344 45.356 36.545C45.356 36.545 44.9876 35.3895 44.9876 32.6338C44.9876 29.8781 45.356 28.925 45.356 28.925C44.913 29 44.464 29.0339 44.0147 29.0263V29.0266ZM46.2285 26.2027L46.1712 26.0748C44.8743 26.2323 43.5677 26.2964 42.2616 26.2667C40.898 26.2612 39.5361 26.1722 38.1835 26C38.1835 26 38.5294 27.4132 38.5294 31.1949C38.5294 34.9767 38.1608 36.5453 38.1608 36.5453C39.0313 36.421 39.9152 36.421 40.7857 36.5453C40.7857 36.5453 40.5085 35.3546 40.434 32.579C41.0282 32.6138 41.6142 32.7342 42.174 32.9365V30.7051C41.6081 30.9079 41.0157 31.0275 40.4155 31.06C40.4187 29.877 40.465 28.9146 40.5168 28.2144C41.2118 28.0887 41.9156 28.0185 42.6216 28.0044C44.6957 28.0044 45.5385 28.2765 45.5385 28.2765C45.5385 28.2765 45.3556 26.892 46.2285 26.2027ZM47.541 29.8264C47.1017 29.8225 46.6631 29.7883 46.2285 29.7241C46.2285 29.7241 46.5968 30.6974 46.5968 33.119C46.5968 35.5406 46.2285 36.5449 46.2285 36.5449C47.0972 36.3958 47.9848 36.3958 48.8535 36.5449C48.8535 36.5449 48.4864 35.5326 48.4864 33.119C48.4864 30.7054 48.8548 29.7241 48.8548 29.7241C48.4193 29.7849 47.9806 29.8191 47.541 29.8264ZM27.2926 33.1197C27.2926 30.7058 27.661 29.7249 27.661 29.7249C27.2524 29.7954 26.8386 29.8315 26.4239 29.8329C25.9596 29.8266 25.4961 29.7905 25.0363 29.7249C25.3788 30.6313 25.3318 31.9115 25.2982 33.1184C24.3022 34.8399 23.657 34.0322 23.657 33.051C23.657 30.6374 23.9585 29.7258 23.9585 29.7258C23.5144 29.7968 23.0654 29.8329 22.6157 29.8339C22.1855 29.8351 21.7561 29.7989 21.3323 29.7258C22.1844 31.9805 20.6263 36.5469 22.8583 36.5469C24.1005 36.5469 24.9065 35.3169 25.2905 34.5435C25.3397 35.6945 25.5965 36.5469 26.5611 36.5469C27.6437 36.5469 28.372 35.7811 28.8708 34.9083L28.4852 34.4018C27.5762 35.3444 27.2926 34.5953 27.2926 33.1191V33.1197ZM20.0191 29.7065C19.9748 29.7068 19.9306 29.7097 19.8867 29.7152C19.8793 29.7152 19.8723 29.7181 19.8653 29.719C19.8295 29.7241 19.794 29.7305 19.7594 29.7388C19.0957 29.8799 18.5724 30.3595 18.1896 31.1776C18.2268 30.6847 18.3186 30.1974 18.4633 29.7248C17.5943 29.8691 16.7076 29.8691 15.8386 29.7248C15.8386 29.7248 16.2069 30.698 16.2069 33.1196C16.2069 35.5413 15.8386 36.5455 15.8386 36.5455C16.286 36.4935 16.7359 36.4666 17.1863 36.465C17.6132 36.4647 18.0397 36.4916 18.4633 36.5455C18.2446 35.7714 18.1292 34.9718 18.1202 34.1674C18.1483 32.4437 18.6055 31.6994 19.0183 31.3784C19.2815 31.8649 19.8576 32.0901 20.381 31.9112C20.9044 31.7324 21.2221 31.2016 21.1325 30.6558C21.0429 30.11 20.5722 29.7087 20.0191 29.7065ZM32.2311 29.5671C30.4208 29.5671 29.0099 30.8461 29.0099 33.1551C29.0099 35.4642 30.5609 36.6497 32.3229 36.6497C33.4456 36.6827 34.4926 36.0858 35.0361 35.1029L34.5143 34.4782C34.0317 34.9298 33.3834 35.1614 32.7238 35.1176C31.929 35.1232 31.2514 34.5428 31.1348 33.7565H35.4981C35.5784 31.3714 34.7416 29.5671 32.2311 29.5671ZM31.1085 32.8778C31.2217 32.0906 31.6917 31.5074 32.3833 31.5074C32.751 31.4894 33.1092 31.6282 33.3687 31.8895C33.6282 32.1507 33.7646 32.5098 33.744 32.8775H31.1085V32.8778ZM53.3872 29.7239H52.3551C52.3551 29.7239 52.632 29.721 52.1879 29.721C51.7438 29.721 49.6707 29.6216 49.6707 29.6216C49.6707 29.6216 50.0984 31.0668 50.0984 34.4092C50.1227 36.1961 49.9995 37.982 49.7301 39.7486C50.1253 39.3942 50.6095 39.1539 51.1309 39.0536C51.54 38.9862 51.9591 39.0152 52.3551 39.1383C52.1598 38.1997 52.0509 37.2451 52.0299 36.2866C53.7149 36.9469 56 36.38 56 32.9477C56 31.452 55.7353 29.7242 53.3872 29.7242V29.7239ZM51.9922 35.0604C51.989 34.852 51.9874 34.6355 51.9874 34.4091C51.9791 33.2697 52.0335 32.1307 52.1505 30.9973H52.5149C53.6071 30.9973 54.0436 31.4651 54.0436 32.9477C54.0432 34.6138 53.0713 35.1547 51.9922 35.0604ZM47.5409 29.0777C48.0544 29.0853 48.5215 28.7817 48.7232 28.3095C48.9249 27.8372 48.8212 27.2898 48.4608 26.9241C48.1003 26.5583 47.5545 26.4467 47.0793 26.6415C46.6042 26.8364 46.2939 27.299 46.294 27.8126C46.2892 28.5062 46.8473 29.0725 47.5409 29.0777Z" fill="url(#paint0_linear)"/>
<defs>
<linearGradient id="paint0_linear" x2="1" gradientUnits="userSpaceOnUse" gradientTransform="translate(32.5) scale(65) rotate(90)">
<stop stop-color="#8C9AF3"/>
<stop offset="1" stop-color="#343046"/>
</linearGradient>
</defs>
</svg>
