<svg width="65" height="65" viewBox="0 0 65 65" fill="none" xmlns="http://www.w3.org/2000/svg">
<path fill-rule="evenodd" clip-rule="evenodd" d="M32.5 0C14.5506 0 0 14.5508 0 32.5C0 50.4492 14.5506 65 32.5 65C50.4492 65 65 50.4492 65 32.5C65 14.5508 50.4492 0 32.5 0ZM24.6753 47.3247H40.2933V17.6753H24.6753V47.3247ZM22.8376 14H42.1309L43.9685 15.8376V49.1624L42.1309 51H22.8376L21 49.1624V15.8376L22.8376 14ZM38.33 37.7611H34.3347V41.9468H30.7297V37.7611H26.7344V34.156H38.33V37.7611ZM38.33 27.432H34.3347V23.2463H30.7297V27.432H26.7344V31.0371H38.33V27.432Z" fill="url(#paint0_linear)"/>
<defs>
<linearGradient id="paint0_linear" x2="1" gradientUnits="userSpaceOnUse" gradientTransform="translate(32.5001 65) scale(65) rotate(-90.0001)">
<stop stop-color="#2AB8E6"/>
<stop offset="0.53" stop-color="#29CAD2"/>
<stop offset="1" stop-color="#2EE4BE"/>
</linearGradient>
</defs>
</svg>
