<svg width="65" height="65" viewBox="0 0 65 65" fill="none" xmlns="http://www.w3.org/2000/svg">
<path fill-rule="evenodd" clip-rule="evenodd" d="M32.5 65C50.4492 65 65 50.4493 65 32.5C65 14.5507 50.4492 0 32.5 0C14.5508 0 0 14.5507 0 32.5C0 50.4493 14.5508 65 32.5 65ZM25.9301 11C23.7886 11 22.0526 12.7352 22.0526 14.8756L22.0511 14.8757V17.9781L28.8525 16.2351C29.1705 16.1536 29.4893 16.0988 29.806 16.0693V14.9832C29.807 14.9475 29.8075 14.9116 29.8075 14.8756C29.8075 12.7352 28.0715 11 25.9301 11ZM22.0511 25.6701V24.1563C22.4093 24.1305 22.7703 24.0724 23.1304 23.9801L29.806 22.2693V23.759C29.4938 23.7888 29.1799 23.8431 28.8666 23.9234L22.0511 25.6701ZM29.806 29.9621L23.1462 31.6688C22.7808 31.7625 22.4146 31.8209 22.0511 31.8462V42.9171L22.051 42.974V42.993L22.0511 43.0311C22.0511 49.6413 27.4122 55 34.0255 55C40.6389 55 46 49.6413 46 43.0311C46 36.4208 40.6389 31.0622 34.0255 31.0622C32.5404 31.0622 31.1184 31.3324 29.806 31.8264V29.9621ZM26.5725 45.6528H26.1555C24.6447 45.6528 23.4198 44.4279 23.4198 42.917C23.4198 41.4061 24.6447 40.1813 26.1555 40.1813H26.5725C27.616 37.1309 30.5077 34.9377 33.9117 34.9377C37.3157 34.9377 40.2074 37.1309 41.251 40.1813H41.4397C42.9507 40.1813 44.1754 41.4061 44.1754 42.917C44.1754 44.4279 42.9507 45.6528 41.4397 45.6528H41.251C40.2074 48.7031 37.3157 50.8963 33.9117 50.8963C30.5077 50.8963 27.616 48.7031 26.5725 45.6528ZM26.8529 44.7487H27.7871C28.6057 47.2588 30.9655 49.0725 33.7488 49.0725H34.0605C36.8439 49.0725 39.2036 47.2588 40.0222 44.7487H40.9564C41.9116 44.7487 42.6859 43.9744 42.6859 43.0192C42.6859 42.0641 41.9116 41.2897 40.9564 41.2897H40.1461C39.4691 38.5583 37.0013 36.5336 34.0605 36.5336H33.7488C30.808 36.5336 28.3402 38.5583 27.6632 41.2897H26.8529C25.8977 41.2897 25.1234 42.0641 25.1234 43.0192C25.1234 43.9744 25.8977 44.7487 26.8529 44.7487ZM31.1201 42.8031C31.8298 42.8031 32.4052 42.2223 32.4052 41.5059C32.4052 40.7896 31.8298 40.2088 31.1201 40.2088C30.4104 40.2088 29.8351 40.7896 29.8351 41.5059C29.8351 42.2223 30.4104 42.8031 31.1201 42.8031ZM38.4023 41.5059C38.4023 42.2223 37.827 42.8031 37.1173 42.8031C36.4076 42.8031 35.8323 42.2223 35.8323 41.5059C35.8323 40.7896 36.4076 40.2088 37.1173 40.2088C37.827 40.2088 38.4023 40.7896 38.4023 41.5059ZM34.1188 46.0458C32.8176 46.0458 31.7628 44.9812 31.7628 43.6678H36.4747C36.4747 44.9812 35.4199 46.0458 34.1188 46.0458ZM31.2622 16.7498L16 20.6611C16.5319 22.7345 18.6439 23.9845 20.7174 23.4531L35.9796 19.5418C35.4478 17.4684 33.3357 16.2184 31.2622 16.7498ZM31.2622 24.3794L16 28.2908C16.5319 30.3642 18.6439 31.6142 20.7174 31.0828L35.9796 27.1715C35.4478 25.0981 33.3357 23.8481 31.2622 24.3794Z" fill="url(#paint0_linear)"/>
<defs>
<linearGradient id="paint0_linear" x2="1" gradientUnits="userSpaceOnUse" gradientTransform="translate(65) scale(65) rotate(90)">
<stop stop-color="white"/>
<stop offset="1" stop-color="#4FB9DB"/>
</linearGradient>
</defs>
</svg>
