<svg width="65" height="65" viewBox="0 0 65 65" fill="none" xmlns="http://www.w3.org/2000/svg">
<path fill-rule="evenodd" clip-rule="evenodd" d="M32.5 0C14.5506 0 0 14.5508 0 32.5C0 50.4492 14.5506 65 32.5 65C50.4492 65 65 50.4492 65 32.5C65 14.5508 50.4492 0 32.5 0ZM14 23.7152C14 23.3202 14.3202 23 14.7152 23V23.0002C18.1259 23.0002 21.2241 23.0002 24.0097 23.0002C28.2995 23.0002 30.9807 25.212 30.9807 28.3367C30.9807 29.6412 30.3849 30.8271 29.1932 31.8944C30.8615 32.8431 31.6957 34.2662 31.6957 36.1637C31.6957 40.6108 27.4058 41.5002 24.5459 41.5002C21.2689 41.5002 17.9919 41.5002 14.715 41.5002C14.3201 41.5002 14 41.1801 14 40.7852V38.6575C14 38.2626 14.3201 37.9425 14.715 37.9425H24.5459C26.5717 37.9425 27.5845 37.2903 27.5845 35.9858C27.5845 34.6813 26.5717 33.9697 24.5459 33.8512H14.715C14.3201 33.8512 14 33.5311 14 33.1362V31.0084C14 30.6136 14.3201 30.2935 14.715 30.2935H24.5459C25.9758 30.0563 26.6908 29.4633 26.6908 28.5146C26.6908 27.2101 25.9758 26.5579 24.5459 26.5579H14.715C14.3201 26.5579 14 26.2378 14 25.8429V23.7152V23.7152ZM33.3043 23.7152C33.3043 23.3203 33.6244 23.0002 34.0193 23.0002H43.4927C43.8876 23.0002 44.2077 23.3203 44.2077 23.7152V40.7852C44.2077 41.1801 43.8876 41.5002 43.4927 41.5002H40.8116C40.4167 41.5002 40.0966 41.1801 40.0966 40.7852V27.2729C40.0966 26.878 39.7765 26.5579 39.3816 26.5579H34.0193C33.6244 26.5579 33.3043 26.2378 33.3043 25.843V23.7152ZM46.7101 23.0002H50.285C50.6798 23.0002 50.9999 23.3203 50.9999 23.7152V25.843C50.9999 26.2378 50.6798 26.5579 50.285 26.5579H46.7101C46.3152 26.5579 45.9951 26.2378 45.9951 25.843V23.7152C45.9951 23.3203 46.3152 23.0002 46.7101 23.0002Z" fill="url(#paint0_linear)"/>
<defs>
<linearGradient id="paint0_linear" x2="1" gradientUnits="userSpaceOnUse" gradientTransform="translate(32.5) scale(65) rotate(90)">
<stop stop-color="#ED5250"/>
<stop offset="1" stop-color="#EF494D"/>
</linearGradient>
</defs>
</svg>
