<svg width="65" height="65" viewBox="0 0 65 65" fill="none" xmlns="http://www.w3.org/2000/svg">
<path fill-rule="evenodd" clip-rule="evenodd" d="M32.5 0C14.5506 0 0 14.5508 0 32.5C0 50.4492 14.5506 65 32.5 65C50.4492 65 65 50.4492 65 32.5C65 14.5508 50.4492 0 32.5 0ZM28.2702 17.5391L36.4158 14L36.3492 23.3481H46.6002V29.8232H36.2808V41.0398C36.2808 44.4438 42.0528 44.8453 44.2247 43.7112L46.1932 49.5868C41.372 52.3896 28.2018 51.7218 28.2018 41.1064V17.5372H28.2702V17.5391ZM20.6667 31.5584C18.641 31.5584 17 29.5863 17 27.1536C17 24.7189 18.641 22.7468 20.6667 22.7468C22.6906 22.7468 24.3316 24.7189 24.3316 27.1536C24.3316 29.5863 22.6906 31.5584 20.6667 31.5584Z" fill="url(#paint0_linear)"/>
<defs>
<linearGradient id="paint0_linear" x2="1" gradientUnits="userSpaceOnUse" gradientTransform="translate(32.5) scale(64.0281) rotate(90)">
<stop stop-color="#8BEECA"/>
<stop offset="1" stop-color="#24DD7B"/>
</linearGradient>
</defs>
</svg>
