<svg width="65" height="65" viewBox="0 0 65 65" fill="none" xmlns="http://www.w3.org/2000/svg">
<path fill-rule="evenodd" clip-rule="evenodd" d="M32.5 65C50.4492 65 65 50.4493 65 32.5C65 14.5507 50.4492 0 32.5 0C14.5508 0 0 14.5507 0 32.5C0 50.4493 14.5508 65 32.5 65ZM39.0176 11L37.3335 17.7244L39.395 17.7328L40.4219 13.6326L39.0176 11ZM36.3333 11.5077H28.6665L26.8572 19.7999H18.1666L16.6666 26.5691H25.3799L21.9696 42.1982C21.7729 42.8193 21.6666 43.4815 21.6666 44.1689C21.6666 47.7205 24.5022 50.5997 28 50.5997H39.1667L40.6667 43.8305H34.3247H32.6667C31.1938 43.8305 30 42.6182 30 41.1228C30 40.9445 30.0168 40.7703 30.0493 40.6016L30.0989 40.0777L33.0466 26.5691H42.8333L44.3333 19.7999H34.5237L36.3333 11.5077ZM22.8334 28.5999H16L18.1666 30.6306H22.3334L22.8334 28.5999ZM44.3333 28.9383L46.6667 19.4615L48 22.1691L46 30.9691H36.4143L34.0002 41.4613H32L34.6667 29.3077V28.9383H34.7478H44.3333ZM43.0808 43.4921L40.7473 52.9689L37.2122 52.9689H31H30.6667V52.9655C27.1877 52.8932 23.9813 51.6935 21.3877 49.7114C23.3661 52.8893 26.8569 54.9996 30.8335 54.9996L30.8904 54.9998C30.927 55 30.9636 55.0002 31 54.9997L42.3333 54.9996L44.4141 46.1997L43.0808 43.4921Z" fill="url(#paint0_linear)"/>
<defs>
<linearGradient id="paint0_linear" x1="32.5" y1="0" x2="32.5" y2="65" gradientUnits="userSpaceOnUse">
<stop stop-color="#80BCFF"/>
<stop offset="1" stop-color="#0006FF"/>
</linearGradient>
</defs>
</svg>
