<svg width="65" height="65" viewBox="0 0 65 65" fill="none" xmlns="http://www.w3.org/2000/svg">
<path fill-rule="evenodd" clip-rule="evenodd" d="M32.5 65C50.4492 65 65 50.4493 65 32.5C65 14.5507 50.4492 0 32.5 0C14.5508 0 0 14.5507 0 32.5C0 50.4493 14.5508 65 32.5 65ZM35.1021 13.3647C40.9607 13.3647 47.291 16.0531 52.4624 20.5162C48.4211 13.6572 41.9324 9 32.8062 9C17.5721 9 9 18.942 9 29.6115C9 37.6371 12.2821 43.5361 19.3605 45.9667C16.5101 40.8036 14.6796 35.1774 14.6796 31.0663C14.6796 19.6411 26.4014 13.3647 35.1021 13.3647ZM20.7218 28.0353C20.7218 25.2229 23.0017 22.9431 25.814 22.9431H41.9902C41.9902 25.7554 39.7102 28.0353 36.8979 28.0353H33.7563L33.4397 39.5516C33.3584 42.5104 30.7996 44.7873 27.8513 44.5244L29.0168 28.0353H20.7218ZM11.5378 45.4841C15.5791 52.343 22.0679 57 31.1938 57C46.4277 57 55 47.058 55 36.3885C55 28.3628 51.718 22.4638 44.6394 20.0332C47.4897 25.1963 49.3203 30.8226 49.3203 34.9337C49.3203 46.3589 37.5986 52.6353 28.8979 52.6353C23.0393 52.6353 16.7094 49.947 11.5378 45.4841Z" fill="url(#paint0_linear)"/>
<defs>
<linearGradient id="paint0_linear" x1="32.5" y1="0" x2="32.5" y2="65" gradientUnits="userSpaceOnUse">
<stop stop-color="#6CB0FD"/>
<stop offset="1" stop-color="#494DFC"/>
</linearGradient>
</defs>
</svg>
