<svg width="65" height="65" viewBox="0 0 65 65" fill="none" xmlns="http://www.w3.org/2000/svg">
<path fill-rule="evenodd" clip-rule="evenodd" d="M32.5 65C50.4493 65 65 50.4493 65 32.5C65 14.5507 50.4493 0 32.5 0C14.5507 0 0 14.5507 0 32.5C0 50.4493 14.5507 65 32.5 65ZM13 45H15.6201L24.2883 20H21.6681L13 45ZM18.2535 45H20.8736L29.4038 20H26.7837L18.2535 45ZM47.6153 40.9808C46.2927 41.8658 44.7455 42.3083 42.9738 42.3083C39.7548 42.3083 37.2967 41.3619 35.5999 39.469C33.9779 37.6745 33.1669 35.3515 33.1669 32.5C33.1669 29.6485 33.9779 27.3255 35.5999 25.531C36.3984 24.646 37.3842 23.9577 38.557 23.4661C39.7298 22.9499 41.2021 22.6917 42.9738 22.6917C44.7455 22.6917 46.2927 23.1342 47.6153 24.0192C48.9628 24.9041 49.1106 25.0548 49.7673 25.9586L51.8687 24.4093C51.0161 23.212 50.6153 22.9308 49.7094 22.2952C49.6385 22.2454 49.5644 22.1934 49.4868 22.1386C47.4655 20.7129 45.0824 20 42.3375 20C38.7192 20 35.787 21.2168 33.5412 23.6504C31.4201 25.9857 30.3596 28.9356 30.3596 32.5C30.3596 36.0644 31.4201 39.0143 33.5412 41.3496C35.787 43.7832 38.7192 45 42.3375 45C45.0824 45 47.4655 44.2871 49.4868 42.8614C51.3833 41.5339 51.4747 41.3496 52 40.2895L50.03 38.7403C49.242 39.9022 48.9628 40.0959 47.6153 40.9808Z" fill="url(#paint0_linear)"/>
<defs>
<linearGradient id="paint0_linear" x1="33.1084" y1="0" x2="33.1084" y2="65" gradientUnits="userSpaceOnUse">
<stop stop-color="#FBE726"/>
<stop offset="1" stop-color="#EB792A"/>
</linearGradient>
</defs>
</svg>
