<svg width="65" height="65" viewBox="0 0 65 65" fill="none" xmlns="http://www.w3.org/2000/svg">
<path fill-rule="evenodd" clip-rule="evenodd" d="M32.5 0C14.5506 0 0 14.5508 0 32.5C0 50.4492 14.5506 65 32.5 65C50.4492 65 65 50.4492 65 32.5C65 14.5508 50.4492 0 32.5 0ZM36.0587 34.3296V34.326C35.8594 34.3405 34.832 34.4021 32.5399 34.4021C30.7098 34.4021 29.4215 34.3478 28.9685 34.326V34.3315C21.9236 34.0216 16.6652 32.7949 16.6652 31.3272C16.6652 29.8613 21.9236 28.6346 28.9685 28.3193V33.1102C29.4287 33.1428 30.7478 33.2207 32.5707 33.2207C34.7577 33.2207 35.854 33.1301 36.0587 33.112V28.323C43.0892 28.6364 48.3348 29.8631 48.3348 31.3272C48.3348 32.7949 43.0892 34.018 36.0587 34.3296ZM36.0587 27.8247V23.5376H45.8687V17H19.1585V23.5376H28.9685V27.8229C20.9958 28.1889 15 29.7689 15 31.6606C15 33.5523 20.9958 35.1306 28.9685 35.4984V49.2367H36.0587V35.4948C44.0187 35.1288 50 33.5505 50 31.6606C50 29.7708 44.0187 28.1925 36.0587 27.8247Z" fill="url(#paint0_linear)"/>
<defs>
<linearGradient id="paint0_linear" x2="1" gradientUnits="userSpaceOnUse" gradientTransform="translate(32.5) scale(65) rotate(90)">
<stop stop-color="#8BEECA"/>
<stop offset="1" stop-color="#26A17B"/>
</linearGradient>
</defs>
</svg>
