<svg width="65" height="65" viewBox="0 0 65 65" fill="none" xmlns="http://www.w3.org/2000/svg">
<path fill-rule="evenodd" clip-rule="evenodd" d="M32.5 0C14.5506 0 0 14.5508 0 32.5C0 50.4492 14.5506 65 32.5 65C50.4492 65 65 50.4492 65 32.5C65 14.5508 50.4492 0 32.5 0ZM44.104 34.8561C45.3784 35.1987 46.6389 35.5961 47.7732 36.2951C48.2787 36.6054 48.7483 36.9685 49.1737 37.3778C49.8039 38.0768 49.7619 38.8169 49.1877 39.557C48.6836 40.2011 47.9973 40.6123 47.2691 40.9549C45.4204 41.8458 43.4598 42.3529 41.4571 42.6544C39.8326 42.9011 38.18 43.0381 36.5414 43.2437C36.3848 43.2774 36.2486 43.3712 36.1633 43.5041C35.0149 45.2173 33.8805 46.9305 32.7321 48.6436C32.6398 48.7565 32.5555 48.8756 32.4801 49C32.228 48.6162 31.9899 48.2599 31.7518 47.9035C30.7855 46.4508 29.8332 44.9843 28.8808 43.5178C28.7809 43.3439 28.5946 43.2344 28.3907 43.23C25.1136 42.997 21.8785 42.5722 18.7834 41.462C17.8031 41.1194 16.8648 40.6945 16.0525 40.0504C16.0105 40.0093 15.9545 39.9818 15.9124 39.9407C14.722 38.9402 14.694 37.8712 15.8424 36.8433C16.7527 36.021 17.8731 35.555 19.0355 35.1987C20.1979 34.8423 21.3743 34.5819 22.5507 34.2804C22.6067 34.2667 22.6627 34.2667 22.7608 34.2393C20.2259 30.3607 17.7191 26.5232 15.1562 22.6309C15.3102 22.6172 15.4223 22.6035 15.5203 22.6035C17.1028 22.5898 18.6854 22.6035 20.2679 22.5898C20.4984 22.5769 20.7141 22.7014 20.8141 22.905C24.6467 28.748 28.4747 34.5957 32.298 40.4478C32.3541 40.5452 32.4197 40.637 32.4941 40.7219C33.3764 39.3925 34.2307 38.1179 35.0709 36.8433C38.152 32.1881 41.233 27.5374 44.3141 22.8913C44.4261 22.7268 44.5101 22.6035 44.7622 22.6035C46.4288 22.6172 48.0954 22.6172 49.7619 22.6172C49.8415 22.6167 49.921 22.6213 50 22.6309C47.3951 26.5643 44.8042 30.4566 42.1853 34.3901C42.8436 34.5545 43.4738 34.6916 44.104 34.8561ZM20.0719 38.1453C20.3966 38.5095 20.7797 38.8197 21.2062 39.0635C22.9568 39.9955 24.8895 40.3381 26.8922 40.6397C26.8642 40.5437 26.8642 40.5026 26.8502 40.4752C25.7158 38.762 24.5954 37.0352 23.461 35.322C23.3695 35.2319 23.2389 35.191 23.1109 35.2123C22.445 35.43 21.7946 35.691 21.1642 35.9936C20.7533 36.2194 20.3879 36.5166 20.0859 36.8707C19.7316 37.2227 19.7254 37.7859 20.0719 38.1453ZM42.1293 39.6255C42.8957 39.4179 43.5948 39.0216 44.16 38.4743C44.7202 37.9123 44.7202 37.2819 44.16 36.7063C44.0209 36.5567 43.8606 36.4274 43.6839 36.3225C43.0817 36.021 42.4515 35.7332 41.8352 35.4317C41.6252 35.322 41.4991 35.4043 41.3731 35.5961C40.7149 36.6103 40.0426 37.6108 39.3704 38.6113C38.9503 39.2418 38.5301 39.8859 38.096 40.5438C38.2076 40.5578 38.3205 40.5578 38.4321 40.5438C39.6645 40.2422 40.9109 39.9681 42.1293 39.6255ZM42.1433 21L32.5501 36.2814L22.8308 21H42.1433Z" fill="url(#paint0_linear)"/>
<defs>
<linearGradient id="paint0_linear" x2="1" gradientUnits="userSpaceOnUse" gradientTransform="translate(32.5) scale(62.9895) rotate(90)">
<stop stop-color="#61B3FA"/>
<stop offset="1" stop-color="#338BE5"/>
</linearGradient>
</defs>
</svg>
