<svg width="65" height="65" viewBox="0 0 65 65" fill="none" xmlns="http://www.w3.org/2000/svg">
<path fill-rule="evenodd" clip-rule="evenodd" d="M32.5 0C14.5506 0 0 14.5508 0 32.5C0 50.4492 14.5506 65 32.5 65C50.4492 65 65 50.4492 65 32.5C65 14.5508 50.4492 0 32.5 0ZM11.333 39L6.9834 26.8311H9.64795L12.7275 35.8374L15.7075 26.8311H18.314L13.9561 39H11.333ZM19.4927 39V26.8311H21.9497V39H19.4927ZM24.2988 26.8311H29.1631C30.126 26.8311 30.844 26.8712 31.3171 26.9514C31.7903 27.0317 32.2136 27.1991 32.5872 27.4536C32.9607 27.7082 33.272 28.0471 33.521 28.4705C33.77 28.8938 33.8945 29.3683 33.8945 29.894C33.8945 30.464 33.741 30.987 33.4338 31.4629C33.1267 31.9388 32.7103 32.2957 32.1846 32.5337C32.9261 32.7495 33.4961 33.1175 33.8945 33.6377C34.293 34.1579 34.4922 34.7694 34.4922 35.4722C34.4922 36.0256 34.3635 36.5637 34.1062 37.0867C33.8489 37.6096 33.4975 38.0274 33.052 38.3401C32.6065 38.6528 32.0573 38.8451 31.4043 38.917C30.9948 38.9613 30.007 38.9889 28.4409 39H24.2988V26.8311ZM26.7559 28.8564V31.6704H28.3662C29.3236 31.6704 29.9185 31.6566 30.1509 31.6289C30.5715 31.5791 30.9021 31.4338 31.1428 31.1931C31.3835 30.9524 31.5039 30.6356 31.5039 30.2427C31.5039 29.8664 31.4001 29.5606 31.1926 29.3254C30.9851 29.0903 30.6766 28.9478 30.2671 28.8979C30.0236 28.8703 29.3236 28.8564 28.167 28.8564H26.7559ZM26.7559 33.6958V36.9497H29.0303C29.9157 36.9497 30.4774 36.9248 30.7153 36.875C31.0806 36.8086 31.378 36.6467 31.6077 36.3894C31.8373 36.1321 31.9521 35.7876 31.9521 35.356C31.9521 34.9907 31.8636 34.6808 31.6865 34.4263C31.5094 34.1717 31.2535 33.9863 30.9187 33.8701C30.5839 33.7539 29.8576 33.6958 28.7397 33.6958H26.7559ZM36.5674 39V26.8311H45.5903V28.8896H39.0244V31.5874H45.1338V33.6377H39.0244V36.9497H45.8228V39H36.5674ZM46.6694 39L50.8281 32.6499L47.0596 26.8311H49.9316L52.3721 30.7407L54.7627 26.8311H57.6099L53.8247 32.7412L57.9834 39H55.02L52.3223 34.7915L49.6162 39H46.6694Z" fill="url(#paint0_linear)"/>
<defs>
<linearGradient id="paint0_linear" x2="1" gradientUnits="userSpaceOnUse" gradientTransform="translate(32.5) scale(65) rotate(90)">
<stop stop-color="white"/>
<stop offset="1" stop-color="#8785FF"/>
</linearGradient>
</defs>
</svg>
