<svg width="65" height="65" viewBox="0 0 65 65" fill="none" xmlns="http://www.w3.org/2000/svg">
<path fill-rule="evenodd" clip-rule="evenodd" d="M0 32.5C0 14.5508 14.5506 0 32.5 0C50.4492 0 65 14.5508 65 32.5C65 50.4492 50.4492 65 32.5 65C14.5506 65 0 50.4492 0 32.5ZM24.9634 48.76C25.9808 51.3181 28.4565 53 31.2087 53C32.0555 53 32.8906 52.8354 33.6845 52.5237C37.1365 51.1536 38.8242 47.2488 37.4599 43.7966L28.9211 22.2969C27.5215 18.9685 23.7461 17.3394 20.3647 18.6038C16.8892 19.9094 15.125 23.7788 16.4305 27.2544L24.9634 48.76ZM36.1485 33.3113C37.1659 35.8694 39.6417 37.5513 42.3938 37.5513C43.2347 37.5513 44.0757 37.3926 44.8578 37.075C48.3098 35.7048 50.0034 31.8 48.6332 28.3481L46.228 22.2969C46.2162 22.2556 46.2045 22.2205 46.1869 22.1851C44.7872 18.7507 40.8648 17.0984 37.4305 18.4978C33.9962 19.8975 32.3437 23.8198 33.7433 27.2542L36.1485 33.3113Z" fill="url(#paint0_linear)"/>
<defs>
<linearGradient id="paint0_linear" x2="1" gradientUnits="userSpaceOnUse" gradientTransform="translate(32.5) scale(62.9895) rotate(90)">
<stop stop-color="#61B3FA"/>
<stop offset="1" stop-color="#0080FF"/>
</linearGradient>
</defs>
</svg>
