<svg width="65" height="65" viewBox="0 0 65 65" fill="none" xmlns="http://www.w3.org/2000/svg">
<path fill-rule="evenodd" clip-rule="evenodd" d="M32.5 0C14.5505 0 0 14.5508 0 32.5C0 50.4492 14.5505 65 32.5 65C50.4492 65 65 50.4492 65 32.5C65 14.5508 50.4492 0 32.5 0ZM43.2625 27.5801C43.2085 27.5767 43.161 27.5728 43.1177 27.5691L43.1152 27.5688C43.0405 27.563 42.9781 27.5579 42.917 27.5579L40.7555 27.5588H40.5449C37.9587 27.5601 35.3704 27.5613 32.786 27.571C31.9973 27.5742 31.2399 27.7573 30.5463 28.1526C29.0574 29.0007 28.7221 30.7485 29.8023 32.0771C30.5417 32.9863 31.5312 33.428 32.674 33.4958C33.2469 33.5298 33.8217 33.5273 34.3966 33.5249C34.7367 33.5234 35.0768 33.522 35.4167 33.5281C35.6356 33.532 35.8818 33.5388 36.0634 33.6389C36.2316 33.7317 36.4198 33.9453 36.4304 34.1162C36.4389 34.2529 36.2195 34.4646 36.0549 34.5361C35.8502 34.6248 35.5978 34.6262 35.366 34.6267C32.1519 34.6316 28.9376 34.6323 25.7234 34.6252C25.4918 34.6248 25.3399 34.6824 25.1988 34.8787C24.9407 35.2373 24.6698 35.5869 24.3988 35.9365C24.2684 36.1047 24.1381 36.2729 24.0092 36.4421C23.907 36.5764 23.8074 36.7126 23.7018 36.8569L23.6988 36.8611L23.5409 37.0767C23.5721 37.0811 23.5984 37.0857 23.621 37.0894L23.638 37.0923C23.6826 37.1001 23.7127 37.1052 23.7429 37.1052L26.6595 37.1064C29.6185 37.1082 32.5775 37.1096 35.5365 37.1016C36.7097 37.0984 37.7715 36.7654 38.6518 35.9387C39.6214 35.0278 39.7814 33.0881 38.6659 32.1531C37.8963 31.5081 37.0333 31.1233 36.0427 31.0762C35.427 31.0471 34.8099 31.0474 34.1928 31.0476C33.8332 31.0479 33.4735 31.0479 33.1141 31.0422C32.7329 31.0364 32.4866 30.8325 32.4788 30.5525C32.4705 30.2476 32.7106 30.0559 33.1209 30.041C33.1558 30.0398 33.1907 30.04 33.2256 30.0403L33.2692 30.0405H34.3755C36.2175 30.0405 38.0557 30.0405 39.8996 30.0413C39.9841 30.0413 40.072 30.0464 40.1682 30.052L40.2951 30.0588V37.0908H47.1808L47.1871 37.1494C47.1918 37.189 47.1947 37.2148 47.1913 37.2305C47.181 37.2786 47.1649 37.3333 47.1498 37.3801C46.3063 39.9963 44.9105 42.2788 42.8883 44.1406C39.1234 47.6069 34.6635 49.0557 29.6334 48.158C23.4899 47.0615 19.412 43.3672 17.3442 37.5112C16.955 36.4089 16.4844 35.4128 15.7916 34.4878C15.1592 33.6433 14.5486 32.783 13.9379 31.9224C13.6772 31.5549 13.4165 31.1877 13.1541 30.8215L13.0236 30.8809C12.716 38.3645 15.413 44.4512 21.6703 48.7507C27.904 53.0339 36.1232 53.0298 42.3223 49.0505C47.7172 45.5874 50.6356 40.5774 51.3745 34.1975H43.2625V27.5801ZM51.3491 30.887C51.3597 31.0278 51.3705 31.1685 51.3827 31.3086C51.3862 31.3496 51.3853 31.4019 51.3843 31.4546L51.3834 31.5271H47.9391C47.8867 31.2209 47.8389 30.9119 47.7909 30.6023C47.6993 30.0115 47.6075 29.4192 47.484 28.8438C46.1316 22.5469 40.6516 17.5291 34.2631 16.7278C26.7943 15.7913 19.8318 20.1377 17.3864 27.272C17.342 27.4014 17.3421 27.604 17.4146 27.7068C18.5639 29.3379 19.7238 30.9614 20.8835 32.585L21.433 33.3542C21.4418 33.3667 21.4543 33.3765 21.4721 33.3901L21.5084 33.4197L23.84 30.1675L24.2439 29.603C24.6769 28.9973 25.1099 28.3914 25.5515 27.7917C25.6274 27.6887 25.7776 27.5789 25.8948 27.5771C26.7939 27.5647 27.6932 27.5674 28.5924 27.5701L29.1951 27.5718C29.2156 27.5718 29.2361 27.5796 29.2657 27.5906C29.2829 27.5972 29.3032 27.6047 29.3283 27.6128L29.2599 27.7212C29.2151 27.793 29.1733 27.8599 29.1265 27.9233L29.0183 28.0703C27.0468 30.7476 25.0753 33.4248 23.0995 36.0991C22.9313 36.3269 22.7488 36.5491 22.5446 36.7439C21.8232 37.4319 21.0087 37.4397 20.3236 36.7163C19.9417 36.3132 19.6133 35.8572 19.2869 35.4038L19.1835 35.2605C18.455 34.2522 17.7287 33.2424 17.0024 32.2327C15.9612 30.7852 14.92 29.3374 13.8724 27.8945C13.6837 27.6348 13.6453 27.4126 13.7404 27.1145C16.1047 19.7114 20.9958 14.9336 28.6442 13.4041C35.1731 12.0986 40.9297 13.9849 45.6973 18.6526C48.8494 21.7388 50.6428 25.5417 51.2537 29.9033C51.2992 30.2285 51.3242 30.5581 51.3491 30.887Z" fill="url(#paint0_linear)"/>
<defs>
<linearGradient id="paint0_linear" x2="1" gradientUnits="userSpaceOnUse" gradientTransform="translate(32.5) scale(65) rotate(90)">
<stop stop-color="#61B3FA"/>
<stop offset="1" stop-color="#0B549B"/>
</linearGradient>
</defs>
</svg>
