<svg width="65" height="65" viewBox="0 0 65 65" fill="none" xmlns="http://www.w3.org/2000/svg">
<path fill-rule="evenodd" clip-rule="evenodd" d="M0 32.5C0 14.5508 14.5505 0 32.5 0C50.4492 0 65 14.5508 65 32.5C65 50.4492 50.4492 65 32.5 65C14.5505 65 0 50.4492 0 32.5ZM50.9088 31.0727C50.9224 31.2257 50.936 31.3787 50.953 31.5311C50.9568 31.5651 50.9697 31.5981 50.9826 31.6311L50.9828 31.6318C50.9889 31.6471 50.9949 31.6624 51 31.6779V34.4427C50.996 34.4455 50.991 34.4481 50.986 34.4508C50.9752 34.4564 50.9645 34.4621 50.9636 34.4691C50.9301 34.7161 50.8972 34.9633 50.8643 35.2105L50.864 35.2127C50.8129 35.5975 50.7618 35.9822 50.708 36.3666L50.6873 36.5163C50.6472 36.8087 50.607 37.1017 50.5419 37.3888L50.5232 37.4714C50.3959 38.0337 50.2681 38.5977 50.0965 39.1472C49.8466 39.9469 49.5722 40.7403 49.2723 41.5226C48.9879 42.2649 48.6856 43.0033 48.3389 43.718C47.9646 44.4893 47.5452 45.2401 47.1177 45.9838C46.3229 47.3662 45.4124 48.6694 44.3713 49.8796C44.2739 49.9928 44.1844 50.1129 44.095 50.233L44.0936 50.2349C44.0522 50.2906 44.0107 50.3462 43.9686 50.4012H43.8231C43.749 50.3468 43.6746 50.2928 43.6002 50.239L43.5923 50.2333L43.5806 50.2248C43.3809 50.0802 43.1811 49.9356 42.9876 49.7829C42.8797 49.6978 42.7833 49.5876 42.7103 49.4709C42.6035 49.3 42.4957 49.3202 42.3555 49.4188C42.2676 49.4807 42.1812 49.547 42.0948 49.6134C41.8789 49.7793 41.6626 49.9456 41.4191 50.0435C40.9728 50.223 40.5043 50.3347 39.9894 50.1926C38.8845 49.8877 38.0101 49.2122 37.1308 48.533L37.1212 48.5256C37.0605 48.4787 36.9951 48.4379 36.9222 48.3925L36.9188 48.3903C36.8836 48.3684 36.8467 48.3453 36.8077 48.3199L36.9735 48.2068L36.9866 48.1979L36.9931 48.1934C37.0927 48.1254 37.1853 48.0621 37.2785 47.9995C37.8753 47.5989 38.3668 47.0902 38.8032 46.5234C38.9353 46.3518 39.0696 46.1817 39.204 46.0117L39.2047 46.0108L39.2051 46.0103C39.4691 45.6761 39.7332 45.342 39.9802 44.9957C40.2969 44.5521 40.5826 44.085 40.8606 43.6157C41.26 42.9413 41.6543 42.2632 42.0238 41.5722C42.3356 40.989 42.6195 40.3902 42.8967 39.7894L43.016 39.5314L43.0435 39.4721C43.3622 38.7835 43.6813 38.0942 43.9588 37.3889C44.2419 36.6692 44.4679 35.9258 44.6931 35.185C44.8458 34.6828 44.9739 34.1709 45.0729 33.6557C45.1061 33.483 45.0984 33.3024 45.09 33.1009V33.1004C45.0858 33.0027 45.0815 32.9 45.0815 32.7908L45.1796 32.8639C46.1708 33.6016 47.119 34.3073 47.7495 35.4112C47.7657 35.3809 47.7817 35.3554 47.796 35.3329L47.7962 35.3325C47.8218 35.2919 47.8412 35.2609 47.8446 35.2283C47.865 35.0273 47.8875 34.8264 47.91 34.6255L47.91 34.625C48.0026 33.7995 48.0952 32.9737 48.0374 32.1406C48.0026 31.637 47.9461 31.1317 47.8521 30.6363C47.7495 30.0953 47.6351 29.5491 47.4474 29.0338C47.3123 28.6627 47.1426 28.3045 46.9727 27.946C46.8621 27.7126 46.7514 27.4791 46.6503 27.2419C46.3427 26.5205 45.8868 25.893 45.4185 25.2771C44.8453 24.5233 44.218 23.8127 43.4799 23.213L43.4494 23.1882L43.4479 23.187C42.8794 22.725 42.3095 22.262 41.711 21.841C41.2661 21.528 40.7918 21.2409 40.2961 21.0193C39.3295 20.5872 38.3435 20.1965 37.355 19.816C37.1497 19.7369 36.9288 19.6986 36.7078 19.6603C36.6003 19.6416 36.4928 19.623 36.387 19.5996C36.2697 19.5737 36.1526 19.546 36.0356 19.5182L36.0349 19.5181L36.0341 19.5179C35.8076 19.4642 35.5811 19.4105 35.3522 19.3701C35.0939 19.3244 34.8314 19.3006 34.5694 19.2769L34.455 19.2665C33.8986 19.2151 32.6212 19.0986 31.4488 19.2137C31.0165 19.2538 30.5848 19.3021 30.1538 19.3545C30.0779 19.3637 30.0019 19.3723 29.9258 19.381L29.9224 19.3814L29.9191 19.3818C29.6274 19.415 29.3352 19.4483 29.0497 19.5106C28.5469 19.6203 28.0479 19.7538 27.5552 19.9032C26.1695 20.3233 24.8386 20.8727 23.6122 21.6525C23.4962 21.7263 23.3792 21.799 23.262 21.8717C22.8608 22.121 22.4587 22.3707 22.0945 22.6661C21.2094 23.384 20.3237 24.1095 19.6624 25.0595C19.543 25.231 19.4178 25.399 19.2925 25.567C19.0477 25.8954 18.803 26.2237 18.6027 26.5774C18.263 27.1773 17.984 27.8164 17.7303 28.4588C17.5278 28.9719 17.3866 29.5112 17.2466 30.0464L17.2437 30.0573C17.154 30.4002 17.0833 30.7547 17.0622 31.1075C17.0217 31.7819 16.9974 32.4595 17.0141 33.1345C17.0245 33.5546 17.0649 33.9739 17.1071 34.4106L17.1072 34.4122C17.1263 34.6104 17.1458 34.8121 17.163 35.0192C17.3017 34.8676 17.4345 34.7166 17.5651 34.5681L17.5656 34.5675C17.8565 34.2367 18.1366 33.9182 18.4475 33.6334C18.7597 33.3475 19.1024 33.0948 19.4634 32.8287C19.6271 32.708 19.7946 32.5846 19.9646 32.4541C19.9646 32.5011 19.9634 32.5418 19.9624 32.5783V32.5793C19.9605 32.6471 19.959 32.7003 19.9662 32.7523C19.9793 32.8477 19.9922 32.9432 20.0052 33.0386C20.0623 33.46 20.1195 33.8814 20.1899 34.3006C20.2422 34.6114 20.3204 34.9185 20.4003 35.2238L20.4348 35.3564L20.4351 35.3573L20.4352 35.358C20.5202 35.6849 20.6053 36.0126 20.7178 36.3301C20.9198 36.9001 21.1359 37.4661 21.3709 38.0232L21.3766 38.0367L21.3773 38.0383L21.3777 38.0394C21.7192 38.8488 22.0611 39.6592 22.4426 40.4499C22.8782 41.353 23.3372 42.2462 23.8251 43.122C24.2552 43.894 24.7072 44.6581 25.2086 45.3848C25.6564 46.0339 26.1607 46.6491 26.6871 47.2371C26.9062 47.4818 27.1672 47.6889 27.4378 47.9036L27.4394 47.9049C27.5633 48.0032 27.6892 48.1031 27.814 48.209C27.7525 48.2563 27.6895 48.3069 27.6248 48.3588L27.6232 48.3601L27.6216 48.3614C27.4692 48.4837 27.3073 48.6136 27.1347 48.7271C26.9653 48.8385 26.7896 48.9415 26.614 49.0444L26.6135 49.0448C26.3199 49.2169 26.0267 49.3888 25.764 49.5993C25.2772 49.9894 24.7195 50.0271 24.1566 50.0542C23.5408 50.0839 23.0329 49.769 22.5582 49.4196C22.423 49.3201 22.3782 49.3321 22.2859 49.4555C21.968 49.8807 21.5204 50.0903 21.0167 50.2229C20.8586 50.2646 20.7712 50.2352 20.686 50.1274C20.5645 49.9739 20.4413 49.8216 20.318 49.6693L20.3162 49.6671C20.015 49.2949 19.7137 48.9227 19.439 48.5318C18.8703 47.7229 18.3042 46.9081 17.8036 46.0565C17.3547 45.2928 16.9693 44.4902 16.5851 43.6901L16.5272 43.5696C15.8492 42.1584 15.3226 40.6876 14.8942 39.1832C14.7042 38.516 14.5342 37.8412 14.3984 37.1612C14.3022 36.6797 14.2436 36.1903 14.1851 35.7016L14.1802 35.6611C14.1695 35.572 14.1588 35.4829 14.1478 35.394C14.1185 35.1566 14.0992 34.9181 14.08 34.6796L14.0789 34.6664C14.0682 34.5356 14.0576 34.4047 14.0453 34.2741C14.0436 34.2565 14.0305 34.2399 14.0172 34.2234C14.0111 34.2157 14.005 34.208 14 34.2002V31.7264C14.0047 31.7211 14.0105 31.716 14.0163 31.7109C14.0286 31.6999 14.041 31.689 14.0428 31.6766C14.0742 31.4558 14.1009 31.2339 14.1276 31.0121L14.1286 31.0034L14.1287 31.0029C14.1869 30.5185 14.2451 30.0341 14.3509 29.5603C14.5515 28.6616 14.7912 27.7666 15.0928 26.8974C15.3481 26.1616 15.6819 25.4473 16.0424 24.7556C16.4357 24.0007 16.859 23.2545 17.3441 22.5565C17.8373 21.8466 18.3837 21.1643 18.9763 20.5354C19.6189 19.8536 20.3062 19.2025 21.0396 18.621C21.7809 18.0332 22.5754 17.4996 23.3967 17.0297C24.2452 16.5441 25.1431 16.1387 26.0405 15.7466C26.6093 15.4981 27.2061 15.2946 27.8092 15.1486C28.5992 14.9573 29.4055 14.828 30.2091 14.6999C30.7654 14.6112 31.3278 14.5457 31.8899 14.5136C32.2282 14.4943 32.5677 14.4996 32.9074 14.505C33.1176 14.5084 33.3278 14.5117 33.5378 14.5092C34.4507 14.4982 35.696 14.8086 36.386 14.9807C36.4938 15.0075 36.5881 15.031 36.6654 15.0494C37.2482 15.1878 37.8237 15.3701 38.3864 15.5767C39.0673 15.8267 39.7479 16.0886 40.3983 16.4073C41.1111 16.7567 41.8024 17.1555 42.4794 17.5715C43.3685 18.1178 44.1876 18.7666 44.9381 19.4896C45.5682 20.0965 46.1732 20.7336 46.7442 21.3963C47.1824 21.9048 47.5767 22.4568 47.9421 23.0207C48.3237 23.6097 48.6665 24.2265 48.9911 24.8494C49.2961 25.4347 49.5852 26.0322 49.826 26.646C50.0547 27.2293 50.2276 27.8363 50.3959 28.441C50.5519 29.0017 50.6917 29.5689 50.7968 30.141C50.8533 30.448 50.881 30.7604 50.9088 31.0727ZM28.0236 42.8352C27.7222 41.9267 27.3718 41.0316 26.9875 40.1555C26.6005 39.2732 26.1606 38.4134 25.7159 37.5587C25.4282 37.0059 25.1106 36.4687 24.7933 35.932L24.7916 35.9292L24.6591 35.7049C24.4407 35.3347 24.216 34.9662 23.9659 34.6179C23.6763 34.2147 23.3633 33.828 23.046 33.4465C22.824 33.1797 22.5976 32.9099 22.3367 32.6847C22.0569 32.4432 21.744 32.2363 21.4266 32.0465C21.2779 31.9576 21.0562 31.8647 20.9187 31.9156C20.702 31.9959 20.49 32.1585 20.4515 32.4454C20.4337 32.5788 20.4063 32.711 20.3788 32.8431L20.3767 32.8534C20.3652 32.9092 20.3536 32.965 20.3428 33.021L20.3795 33.0328C20.3931 33.1554 20.403 33.2788 20.4128 33.4023C20.4348 33.6768 20.4568 33.9514 20.5192 34.2162C20.6738 34.8733 20.8582 35.5256 21.0731 36.165C21.2516 36.696 21.4534 37.219 21.6552 37.7419L21.656 37.7442C21.7371 37.9542 21.8181 38.1643 21.8976 38.3748C21.9159 38.4231 21.9374 38.4701 21.9589 38.5171C21.9792 38.5613 21.9994 38.6055 22.0169 38.6508C22.0634 38.7709 22.1081 38.8918 22.1528 39.0127L22.1535 39.0146C22.2428 39.2563 22.3321 39.4979 22.436 39.733C22.5812 40.0614 22.7405 40.3835 22.8998 40.7055L22.9124 40.7309C22.962 40.8312 23.0116 40.9315 23.0607 41.032L23.1555 41.2267L23.173 41.2629C23.3126 41.5505 23.4523 41.8381 23.6017 42.1204C23.7227 42.3489 23.8519 42.573 23.981 42.797L23.9835 42.8013C24.0479 42.9129 24.1122 43.0244 24.1755 43.1365C24.2405 43.2516 24.3044 43.3676 24.3682 43.4835L24.3755 43.4969C24.5156 43.7514 24.6556 44.006 24.808 44.2527C25.0356 44.6208 25.2808 44.978 25.5256 45.3349L25.526 45.3355L25.5891 45.4275L25.6624 45.5348C25.8122 45.7546 25.9626 45.9753 26.1361 46.1743C26.4588 46.5446 26.7864 46.9152 27.1492 47.2433C27.4385 47.5049 27.7471 47.7658 28.1865 47.7581C28.4588 47.7534 28.6375 47.6389 28.7007 47.3481C28.8543 46.6398 28.8224 45.9245 28.6553 45.2233L28.5933 44.9616C28.424 44.2468 28.2542 43.5301 28.0236 42.8352ZM38.9873 45.4797C38.8187 45.7156 38.65 45.9518 38.4534 46.1618C38.3713 46.2496 38.2906 46.3393 38.21 46.429C37.8765 46.7999 37.5417 47.1721 37.0938 47.4183C36.8966 47.5267 36.6942 47.631 36.4829 47.7061C36.3622 47.749 36.1583 47.788 36.0981 47.7261C35.9444 47.5681 35.7984 47.3663 35.7426 47.1573C35.5891 46.583 35.7122 46.0068 35.8471 45.446C36.0334 44.6714 36.2415 43.9012 36.4689 43.1376C36.5768 42.7751 36.7237 42.4234 36.8701 42.0729L36.9326 41.9229C37.2034 41.2704 37.475 40.6178 37.7683 39.9752C37.9213 39.6399 38.0974 39.3149 38.2732 38.9901C38.3149 38.9132 38.3565 38.8363 38.3978 38.7593C38.4597 38.644 38.5212 38.5285 38.5827 38.413C38.8127 37.9811 39.0427 37.5491 39.2922 37.1287C39.63 36.5592 39.993 36.0042 40.3583 35.4514L40.4515 35.3098C40.6774 34.9661 40.9044 34.6207 41.171 34.3104C41.3986 34.0455 41.6423 33.7946 41.8862 33.5437C42.1102 33.313 42.3344 33.0823 42.5459 32.8408C42.9067 32.4289 43.3708 32.1766 43.8438 31.9488C44.1728 31.7904 44.5927 32.0408 44.6476 32.494C44.6609 32.6036 44.6575 32.7152 44.6539 32.8268C44.6523 32.8777 44.6508 32.9287 44.6508 32.9794C44.6599 33.7525 44.4808 34.491 44.2411 35.2193C44.1873 35.3829 44.1368 35.5477 44.0864 35.7124C44.0003 35.993 43.9143 36.2736 43.812 36.5482C43.6749 36.9158 43.5149 37.2751 43.355 37.634C43.3228 37.7063 43.2906 37.7786 43.2586 37.8509C43.2018 37.9792 43.1454 38.1078 43.089 38.2363C42.8719 38.7309 42.6547 39.2255 42.4185 39.7109C42.0475 40.4734 41.6672 41.2325 41.2575 41.9748C40.8685 42.6797 40.4495 43.3691 40.0187 44.0497C39.8247 44.3561 39.6057 44.6468 39.3868 44.9374C39.3121 45.0366 39.2375 45.1357 39.1638 45.2354C39.1042 45.3161 39.0458 45.3979 38.9873 45.4797Z" fill="url(#paint0_linear)"/>
<defs>
<linearGradient id="paint0_linear" x2="1" gradientUnits="userSpaceOnUse" gradientTransform="translate(32.5 65) scale(65) rotate(-90)">
<stop stop-color="#929795"/>
<stop offset="1" stop-color="#6A847F"/>
</linearGradient>
</defs>
</svg>
