<svg width="65" height="65" viewBox="0 0 65 65" fill="none" xmlns="http://www.w3.org/2000/svg">
<path fill-rule="evenodd" clip-rule="evenodd" d="M32.5 0C14.5505 0 0 14.5508 0 32.5C0 50.4492 14.5505 65 32.5 65C50.4492 65 65 50.4492 65 32.5C65 14.5508 50.4492 0 32.5 0ZM49.8438 27.8699V22.4688C49.8438 20.553 48.2908 19 46.375 19H17.4688C15.553 19 14 20.553 14 22.4688V42.7031C14 44.6189 15.553 46.1719 17.4688 46.1719H46.375C48.2908 46.1719 49.8438 44.6189 49.8438 42.7031V37.302C50.5669 36.4082 51 35.2703 51 34.0312V31.1406C51 29.9016 50.5669 28.7637 49.8438 27.8699ZM18.3359 20.7344C18.3359 20.894 18.4653 21.0234 18.625 21.0234H20.0703C20.23 21.0234 20.3594 20.894 20.3594 20.7344C20.3594 20.5747 20.23 20.4453 20.0703 20.4453H18.625C18.4653 20.4453 18.3359 20.5747 18.3359 20.7344ZM21.5156 21.0234C21.356 21.0234 21.2266 20.894 21.2266 20.7344C21.2266 20.5747 21.356 20.4453 21.5156 20.4453H22.9609C23.1206 20.4453 23.25 20.5747 23.25 20.7344C23.25 20.894 23.1206 21.0234 22.9609 21.0234H21.5156ZM24.1172 20.7344C24.1172 20.894 24.2466 21.0234 24.4062 21.0234H25.8516C26.0112 21.0234 26.1406 20.894 26.1406 20.7344C26.1406 20.5747 26.0112 20.4453 25.8516 20.4453H24.4062C24.2466 20.4453 24.1172 20.5747 24.1172 20.7344ZM27.2969 21.0234C27.1372 21.0234 27.0078 20.894 27.0078 20.7344C27.0078 20.5747 27.1372 20.4453 27.2969 20.4453H28.7422C28.9019 20.4453 29.0312 20.5747 29.0312 20.7344C29.0312 20.894 28.9019 21.0234 28.7422 21.0234H27.2969ZM29.8984 20.7344C29.8984 20.894 30.0278 21.0234 30.1875 21.0234H31.6328C31.7925 21.0234 31.9219 20.894 31.9219 20.7344C31.9219 20.5747 31.7925 20.4453 31.6328 20.4453H30.1875C30.0278 20.4453 29.8984 20.5747 29.8984 20.7344ZM33.0781 21.0234C32.9185 21.0234 32.7891 20.894 32.7891 20.7344C32.7891 20.5747 32.9185 20.4453 33.0781 20.4453H34.5234C34.6831 20.4453 34.8125 20.5747 34.8125 20.7344C34.8125 20.894 34.6831 21.0234 34.5234 21.0234H33.0781ZM35.6797 20.7344C35.6797 20.894 35.8091 21.0234 35.9688 21.0234H37.4141C37.5737 21.0234 37.7031 20.894 37.7031 20.7344C37.7031 20.5747 37.5737 20.4453 37.4141 20.4453H35.9688C35.8091 20.4453 35.6797 20.5747 35.6797 20.7344ZM38.8594 21.0234C38.6997 21.0234 38.5703 20.894 38.5703 20.7344C38.5703 20.5747 38.6997 20.4453 38.8594 20.4453H40.3047C40.4644 20.4453 40.5938 20.5747 40.5938 20.7344C40.5938 20.894 40.4644 21.0234 40.3047 21.0234H38.8594ZM41.4609 20.7344C41.4609 20.894 41.5903 21.0234 41.75 21.0234H43.1953C43.355 21.0234 43.4844 20.894 43.4844 20.7344C43.4844 20.5747 43.355 20.4453 43.1953 20.4453H41.75C41.5903 20.4453 41.4609 20.5747 41.4609 20.7344ZM44.6406 21.0234C44.481 21.0234 44.3516 20.894 44.3516 20.7344C44.3516 20.5747 44.481 20.4453 44.6406 20.4453H45.2188C45.542 20.4453 45.859 20.4937 46.162 20.5876C46.3145 20.635 46.3998 20.7969 46.3524 20.9495C46.3052 21.1018 46.1432 21.187 45.9907 21.1399C45.743 21.063 45.4838 21.0234 45.2188 21.0234H44.6406ZM47.1027 21.4136C46.9875 21.5244 46.9839 21.7073 47.0946 21.8223C47.3995 22.1396 47.6201 22.5288 47.7333 22.9553C47.7743 23.1096 47.9326 23.2014 48.0869 23.1604C48.2412 23.1194 48.333 22.9612 48.2921 22.8069C48.1536 22.2852 47.8839 21.8093 47.5114 21.4219C47.4008 21.3066 47.2178 21.303 47.1027 21.4136ZM47.8203 24.3162C47.8203 24.1565 47.9497 24.0271 48.1094 24.0271C48.269 24.0271 48.3984 24.1565 48.3984 24.3162V25.7615C48.3984 25.9211 48.269 26.0505 48.1094 26.0505C47.9497 26.0505 47.8203 25.9211 47.8203 25.7615V24.3162ZM48.1094 38.4802C47.9497 38.4802 47.8203 38.6096 47.8203 38.7693V40.2146C47.8203 40.3743 47.9497 40.5037 48.1094 40.5037C48.269 40.5037 48.3984 40.3743 48.3984 40.2146V38.7693C48.3984 38.6096 48.269 38.4802 48.1094 38.4802ZM47.8184 41.6489C47.8246 41.4893 47.9589 41.365 48.1184 41.3711C48.2778 41.3772 48.4022 41.5115 48.3961 41.6711C48.3751 42.2153 48.2167 42.7366 47.939 43.1943C47.8561 43.3308 47.6783 43.3743 47.5419 43.2915C47.4054 43.2087 47.3618 43.0308 47.4447 42.8943C47.6718 42.5203 47.8013 42.0942 47.8184 41.6489ZM46.9054 43.9124C46.826 43.7739 46.6494 43.7261 46.5109 43.8054C46.1316 44.0229 45.703 44.1418 45.2565 44.1482C45.0968 44.1504 44.9692 44.2817 44.9714 44.4412C44.9738 44.6008 45.105 44.7285 45.2645 44.7263C45.8099 44.7185 46.3346 44.573 46.7985 44.3069C46.937 44.2275 46.9849 44.0508 46.9054 43.9124ZM43.8365 44.1484C43.9962 44.1484 44.1256 44.2778 44.1256 44.4375C44.1256 44.5972 43.9962 44.7266 43.8365 44.7266H42.3912C42.2316 44.7266 42.1022 44.5972 42.1022 44.4375C42.1022 44.2778 42.2316 44.1484 42.3912 44.1484H43.8365ZM41.235 44.4375C41.235 44.2778 41.1056 44.1484 40.9459 44.1484H39.5006C39.3409 44.1484 39.2115 44.2778 39.2115 44.4375C39.2115 44.5972 39.3409 44.7266 39.5006 44.7266H40.9459C41.1056 44.7266 41.235 44.5972 41.235 44.4375ZM38.0553 44.1484C38.215 44.1484 38.3444 44.2778 38.3444 44.4375C38.3444 44.5972 38.215 44.7266 38.0553 44.7266H36.61C36.4503 44.7266 36.3209 44.5972 36.3209 44.4375C36.3209 44.2778 36.4503 44.1484 36.61 44.1484H38.0553ZM35.4537 44.4375C35.4537 44.2778 35.3243 44.1484 35.1647 44.1484H33.7194C33.5597 44.1484 33.4303 44.2778 33.4303 44.4375C33.4303 44.5972 33.5597 44.7266 33.7194 44.7266H35.1647C35.3243 44.7266 35.4537 44.5972 35.4537 44.4375ZM32.274 44.1484C32.4337 44.1484 32.5631 44.2778 32.5631 44.4375C32.5631 44.5972 32.4337 44.7266 32.274 44.7266H30.8287C30.6691 44.7266 30.5397 44.5972 30.5397 44.4375C30.5397 44.2778 30.6691 44.1484 30.8287 44.1484H32.274ZM29.6725 44.4375C29.6725 44.2778 29.5431 44.1484 29.3834 44.1484H27.9381C27.7784 44.1484 27.649 44.2778 27.649 44.4375C27.649 44.5972 27.7784 44.7266 27.9381 44.7266H29.3834C29.5431 44.7266 29.6725 44.5972 29.6725 44.4375ZM26.4928 44.1484C26.6525 44.1484 26.7819 44.2778 26.7819 44.4375C26.7819 44.5972 26.6525 44.7266 26.4928 44.7266H25.0475C24.8878 44.7266 24.7584 44.5972 24.7584 44.4375C24.7584 44.2778 24.8878 44.1484 25.0475 44.1484H26.4928ZM23.8912 44.4375C23.8912 44.2778 23.7618 44.1484 23.6022 44.1484H22.1569C21.9972 44.1484 21.8678 44.2778 21.8678 44.4375C21.8678 44.5972 21.9972 44.7266 22.1569 44.7266H23.6022C23.7618 44.7266 23.8912 44.5972 23.8912 44.4375ZM20.7115 44.1484C20.8712 44.1484 21.0006 44.2778 21.0006 44.4375C21.0006 44.5972 20.8712 44.7266 20.7115 44.7266H19.2662C19.1066 44.7266 18.9772 44.5972 18.9772 44.4375C18.9772 44.2778 19.1066 44.1484 19.2662 44.1484H20.7115ZM18.1067 44.406C18.1505 44.2524 18.0618 44.0923 17.9082 44.0486C17.4843 43.9272 17.099 43.6992 16.7875 43.3884C16.6744 43.2756 16.4915 43.2759 16.3787 43.3889C16.2659 43.502 16.2661 43.6848 16.379 43.7976C16.7596 44.1775 17.2306 44.4561 17.7493 44.6042C17.9028 44.6482 18.0627 44.5593 18.1067 44.406ZM16.1294 42.2844C16.1746 42.4375 16.087 42.5984 15.934 42.6436C15.7808 42.6887 15.62 42.6011 15.5748 42.448C15.4904 42.1614 15.4464 41.8628 15.4453 41.5574V40.9189C15.4453 40.7593 15.5747 40.6299 15.7344 40.6299C15.894 40.6299 16.0234 40.7593 16.0234 40.9189V41.5564C16.0243 41.8059 16.0603 42.05 16.1294 42.2844ZM15.7344 39.7627C15.894 39.7627 16.0234 39.6333 16.0234 39.4736V38.0283C16.0234 37.8687 15.894 37.7393 15.7344 37.7393C15.5747 37.7393 15.4453 37.8687 15.4453 38.0283V39.4736C15.4453 39.6333 15.5747 39.7627 15.7344 39.7627ZM16.0234 36.583C16.0234 36.7427 15.894 36.8721 15.7344 36.8721C15.5747 36.8721 15.4453 36.7427 15.4453 36.583V35.1377C15.4453 34.978 15.5747 34.8486 15.7344 34.8486C15.894 34.8486 16.0234 34.978 16.0234 35.1377V36.583ZM15.7344 33.9814C15.894 33.9814 16.0234 33.8521 16.0234 33.6924V32.2471C16.0234 32.0874 15.894 31.958 15.7344 31.958C15.5747 31.958 15.4453 32.0874 15.4453 32.2471V33.6924C15.4453 33.8521 15.5747 33.9814 15.7344 33.9814ZM16.0234 30.8018C16.0234 30.9614 15.894 31.0908 15.7344 31.0908C15.5747 31.0908 15.4453 30.9614 15.4453 30.8018V29.3564C15.4453 29.1968 15.5747 29.0674 15.7344 29.0674C15.894 29.0674 16.0234 29.1968 16.0234 29.3564V30.8018ZM15.7344 28.2002C15.894 28.2002 16.0234 28.0708 16.0234 27.9111V26.4658C16.0234 26.3062 15.894 26.1768 15.7344 26.1768C15.5747 26.1768 15.4453 26.3062 15.4453 26.4658V27.9111C15.4453 28.0708 15.5747 28.2002 15.7344 28.2002ZM16.0234 25.0203C16.0234 25.1799 15.894 25.3093 15.7344 25.3093C15.5747 25.3093 15.4453 25.1799 15.4453 25.0203V23.625L15.4458 23.5703C15.4485 23.4106 15.5801 23.2834 15.7396 23.2861C15.8993 23.2888 16.0265 23.4204 16.0238 23.5801L16.0234 23.625V25.0203ZM15.9758 22.4309C16.1141 22.5107 16.2909 22.4636 16.3708 22.3254C16.5911 21.9443 16.9054 21.624 17.2821 21.3965C17.4187 21.314 17.4626 21.1362 17.3801 20.9995C17.2975 20.8628 17.1199 20.8191 16.9832 20.9016C16.5229 21.1794 16.1393 21.5706 15.8702 22.0361C15.7904 22.1743 15.8376 22.3511 15.9758 22.4309ZM31.0547 27.3828C30.895 27.3828 30.7656 27.2534 30.7656 27.0938C30.7656 26.9341 30.895 26.8047 31.0547 26.8047H32.5C32.6597 26.8047 32.7891 26.9341 32.7891 27.0938C32.7891 27.2534 32.6597 27.3828 32.5 27.3828H31.0547ZM33.6562 27.0938C33.6562 27.2534 33.7856 27.3828 33.9453 27.3828H35.3906C35.5503 27.3828 35.6797 27.2534 35.6797 27.0938C35.6797 26.9341 35.5503 26.8047 35.3906 26.8047H33.9453C33.7856 26.8047 33.6562 26.9341 33.6562 27.0938ZM36.8359 27.3828C36.6763 27.3828 36.5469 27.2534 36.5469 27.0938C36.5469 26.9341 36.6763 26.8047 36.8359 26.8047H38.2812C38.4409 26.8047 38.5703 26.9341 38.5703 27.0938C38.5703 27.2534 38.4409 27.3828 38.2812 27.3828H36.8359ZM39.4375 27.0938C39.4375 27.2534 39.5669 27.3828 39.7266 27.3828H41.1719C41.3315 27.3828 41.4609 27.2534 41.4609 27.0938C41.4609 26.9341 41.3315 26.8047 41.1719 26.8047H39.7266C39.5669 26.8047 39.4375 26.9341 39.4375 27.0938ZM42.6172 27.3828C42.4575 27.3828 42.3281 27.2534 42.3281 27.0938C42.3281 26.9341 42.4575 26.8047 42.6172 26.8047H44.0625C44.2222 26.8047 44.3516 26.9341 44.3516 27.0938C44.3516 27.2534 44.2222 27.3828 44.0625 27.3828H42.6172ZM45.2188 27.0938C45.2188 27.2534 45.3481 27.3828 45.5078 27.3828C45.9664 27.3828 46.4144 27.459 46.8383 27.6064C46.989 27.6589 47.1538 27.5793 47.2063 27.4285C47.2587 27.2778 47.179 27.113 47.0282 27.0605C46.5435 26.8918 46.0314 26.8047 45.5078 26.8047C45.3481 26.8047 45.2188 26.9341 45.2188 27.0938ZM48.0198 28.2566C47.8947 28.1575 47.8737 27.9756 47.9728 27.8506C48.072 27.7253 48.2538 27.7043 48.3789 27.8035C48.7841 28.1248 49.1334 28.512 49.4113 28.948C49.4971 29.0825 49.4574 29.2612 49.3228 29.3469C49.1881 29.4329 49.0094 29.3933 48.9237 29.2585C48.6804 28.8767 48.3745 28.5378 48.0198 28.2566ZM49.6631 30.1538C49.5077 30.1902 49.4113 30.3457 49.4478 30.5012C49.5176 30.7986 49.5537 31.105 49.5547 31.4163V31.8882C49.5547 32.0479 49.6842 32.1772 49.8438 32.1772C50.0034 32.1772 50.1328 32.0479 50.1328 31.8882V31.4153C50.1317 31.0591 50.0905 30.7092 50.0106 30.3691C49.9741 30.2136 49.8186 30.1172 49.6631 30.1538ZM49.5547 33.3335C49.5547 33.1738 49.6842 33.0444 49.8438 33.0444C50.0034 33.0444 50.1328 33.1738 50.1328 33.3335V33.7422C50.1328 34.1155 50.0886 34.4832 50.0017 34.8398C49.964 34.9949 49.8076 35.0901 49.6525 35.0522C49.4974 35.0146 49.4022 34.8582 49.4401 34.7031C49.516 34.3911 49.5547 34.0693 49.5547 33.7422V33.3335ZM49.3058 35.8555C49.1719 35.7686 48.9929 35.8066 48.906 35.9407C48.6598 36.3206 48.3512 36.657 47.9943 36.9353C47.8684 37.0334 47.8459 37.2151 47.9441 37.3411C48.0422 37.467 48.2239 37.4895 48.3497 37.3914C48.7574 37.0732 49.1099 36.689 49.3911 36.2551C49.4779 36.1213 49.4398 35.9421 49.3058 35.8555ZM46.8074 37.5759C46.9586 37.5247 47.1227 37.6057 47.174 37.7568C47.2252 37.9082 47.1442 38.0723 46.9929 38.1235C46.5238 38.2825 46.0297 38.3652 45.5237 38.3672H45.458C45.2983 38.3672 45.1689 38.2378 45.1688 38.0781C45.1687 37.9187 45.2981 37.7891 45.4578 37.7891H45.5226C45.965 37.7874 46.3972 37.7148 46.8074 37.5759ZM44.3016 38.0781C44.3016 37.9185 44.1722 37.7891 44.0126 37.7891H42.5673C42.4076 37.7891 42.2782 37.9185 42.2782 38.0781C42.2782 38.2378 42.4076 38.3672 42.5673 38.3672H44.0126C44.1722 38.3672 44.3016 38.2378 44.3016 38.0781ZM41.1219 37.7891C41.2816 37.7891 41.411 37.9185 41.411 38.0781C41.411 38.2378 41.2816 38.3672 41.1219 38.3672H39.6766C39.517 38.3672 39.3876 38.2378 39.3876 38.0781C39.3876 37.9185 39.517 37.7891 39.6766 37.7891H41.1219ZM38.5204 38.0781C38.5204 37.9185 38.391 37.7891 38.2313 37.7891H36.786C36.6263 37.7891 36.4969 37.9185 36.4969 38.0781C36.4969 38.2378 36.6263 38.3672 36.786 38.3672H38.2313C38.391 38.3672 38.5204 38.2378 38.5204 38.0781ZM35.3407 37.7891C35.5004 37.7891 35.6298 37.9185 35.6298 38.0781C35.6298 38.2378 35.5004 38.3672 35.3407 38.3672H33.8954C33.7357 38.3672 33.6063 38.2378 33.6063 38.0781C33.6063 37.9185 33.7357 37.7891 33.8954 37.7891H35.3407ZM32.7393 38.0781C32.7393 37.9185 32.6097 37.7891 32.4502 37.7891H31.0547L31.0083 37.7888C30.8486 37.7871 30.7178 37.915 30.7159 38.0747C30.7141 38.2344 30.8422 38.3652 31.0017 38.3669L31.0547 38.3672H32.4502C32.6097 38.3672 32.7393 38.2378 32.7393 38.0781ZM29.6798 37.5496C29.83 37.6038 29.9077 37.7693 29.8535 37.9194C29.7992 38.0696 29.6335 38.1475 29.4834 38.0933C28.9961 37.9172 28.5427 37.6602 28.1412 37.3342C28.0173 37.2336 27.9984 37.0515 28.0991 36.9277C28.1997 36.8037 28.3817 36.7849 28.5057 36.8855C28.8571 37.1707 29.2537 37.3955 29.6798 37.5496ZM27.5161 36.2651C27.652 36.1814 27.694 36.0032 27.61 35.8674C27.3724 35.4832 27.2006 35.0615 27.1028 34.6179C27.0684 34.4622 26.9142 34.3635 26.7583 34.3979C26.6023 34.4324 26.5038 34.5867 26.5382 34.7424C26.6501 35.2498 26.8467 35.7322 27.1183 36.1714C27.2023 36.3071 27.3804 36.3491 27.5161 36.2651ZM27.0078 33.2339C27.0078 33.3936 26.8784 33.5229 26.7188 33.5229C26.5591 33.5229 26.4297 33.3936 26.4297 33.2339V31.7886C26.4297 31.6289 26.5591 31.4995 26.7188 31.4995C26.8784 31.4995 27.0078 31.6289 27.0078 31.7886V33.2339ZM26.7822 30.6316C26.9369 30.6711 27.0942 30.5779 27.1339 30.4233C27.2463 29.9836 27.4323 29.5679 27.6826 29.1914C27.7711 29.0583 27.735 28.8792 27.6021 28.7905C27.4691 28.7021 27.2897 28.7383 27.2013 28.8711C26.915 29.3015 26.7025 29.7771 26.5737 30.28C26.5342 30.4346 26.6276 30.592 26.7822 30.6316ZM28.6204 28.1965C28.4929 28.2927 28.3116 28.2673 28.2156 28.1399C28.1194 28.0125 28.1448 27.8311 28.2722 27.7351C28.6851 27.4236 29.1472 27.1831 29.6409 27.0249C29.793 26.9761 29.9557 27.0598 30.0044 27.2119C30.0532 27.3638 29.9695 27.5266 29.8175 27.5754C29.3859 27.7139 28.9816 27.9241 28.6204 28.1965ZM48.1094 32.5859C48.1094 34.1824 46.8152 35.4766 45.2188 35.4766C43.6223 35.4766 42.3281 34.1824 42.3281 32.5859C42.3281 30.9895 43.6223 29.6953 45.2188 29.6953C46.8152 29.6953 48.1094 30.9895 48.1094 32.5859Z" fill="url(#paint0_linear)"/>
<defs>
<linearGradient id="paint0_linear" x2="1" gradientUnits="userSpaceOnUse" gradientTransform="translate(32.5) scale(65) rotate(90)">
<stop stop-color="#F68361"/>
<stop offset="1" stop-color="#F14E10"/>
</linearGradient>
</defs>
</svg>
