<svg width="65" height="65" viewBox="0 0 65 65" fill="none" xmlns="http://www.w3.org/2000/svg">
<path fill-rule="evenodd" clip-rule="evenodd" d="M0 32.5C0 14.5508 14.5505 0 32.5 0C50.4492 0 65 14.5508 65 32.5C65 50.4492 50.4492 65 32.5 65C14.5505 65 0 50.4492 0 32.5ZM46.4294 36.7295L49.0648 35.6184L49.1979 29.0244L53 30.0613L50.1019 23.7063L42.2749 29.6917L36.701 20.2498L12 19L30.825 23.9712L31.3027 25.5762L14.8454 24.7432L29.655 28.6516L32.1985 37.3972L16.6531 49.2847L33.58 42.1475L33.591 42.1853L35.0445 41.53L44.7985 37.4172L46.4326 36.7349L46.4294 36.7295Z" fill="url(#paint0_linear)"/>
<defs>
<linearGradient id="paint0_linear" x2="1" gradientUnits="userSpaceOnUse" gradientTransform="translate(32.5) scale(65) rotate(90)">
<stop stop-color="#93F2FF"/>
<stop offset="1" stop-color="#0DC9F7"/>
</linearGradient>
</defs>
</svg>
