<svg width="65" height="65" viewBox="0 0 65 65" fill="none" xmlns="http://www.w3.org/2000/svg">
<path fill-rule="evenodd" clip-rule="evenodd" d="M32.5 65C50.4492 65 65 50.4493 65 32.5C65 14.5508 50.4492 0 32.5 0C14.5508 0 0 14.5508 0 32.5C0 50.4493 14.5508 65 32.5 65ZM54 33C54 37.31 52.7015 41.3168 50.4745 44.6505L45.2601 25.7168H44.5317H41.2544H40.6473L37.8573 35.8407L35.3064 25.7168H34.5173H31.1185H30.6329L28.0953 35.7879L21.6371 15.3367C24.9126 13.2253 28.8131 12 33 12C44.598 12 54 21.402 54 33ZM33 54C38.5857 54 43.6621 51.8192 47.4242 48.2626L42.9607 31.9519L40.6473 41.1329H39.1908H36.3988H35.3064L32.8818 32.2077L30.6329 41.1329H29.7832H26.7485H25.3525L18.3433 17.9606C14.4301 21.7749 12 27.1037 12 33C12 44.598 21.402 54 33 54Z" fill="url(#paint0_linear)"/>
<defs>
<linearGradient id="paint0_linear" x2="1" gradientUnits="userSpaceOnUse" gradientTransform="translate(65) scale(65) rotate(90)">
<stop stop-color="#FFF986"/>
<stop offset="1" stop-color="#FFF500"/>
</linearGradient>
</defs>
</svg>
