<svg width="65" height="65" viewBox="0 0 65 65" fill="none" xmlns="http://www.w3.org/2000/svg">
<path fill-rule="evenodd" clip-rule="evenodd" d="M32.5 65C50.4492 65 65 50.4492 65 32.5C65 14.5508 50.4492 0 32.5 0C14.5507 0 0 14.5508 0 32.5C0 50.4492 14.5507 65 32.5 65ZM30.9316 45.5779H30.8807C30.3311 45.5629 29.7583 45.321 28.9727 44.7701C28.8384 45.0936 28.6675 45.4075 28.4589 45.706C28.435 45.7408 28.4089 45.7732 28.3827 45.8056L28.3807 45.8081L28.38 45.8089L28.3755 45.8145C28.3632 45.8298 28.3508 45.8452 28.3389 45.8608C25.513 49.7804 21.5267 51.7071 19.3527 50.1619C17.179 48.6181 17.6344 44.184 20.3419 40.1797C20.3549 40.1594 20.3673 40.1389 20.3796 40.1184L20.3806 40.1168C20.4018 40.0818 20.423 40.0468 20.4468 40.0126C20.6532 39.7169 20.886 39.4512 21.14 39.2164C20.4204 38.6878 20.0264 38.2437 19.8361 37.7492C19.5198 36.928 19.8605 36.1749 20.1436 35.6797C20.1653 35.6416 20.1898 35.5986 20.2169 35.5507C16.7392 34.0639 13.8794 34.565 12.4609 35.0069C11.8409 35.2002 11.9534 34.7572 12.1816 34.4633C16.6014 28.7875 21.0308 27.9308 24.2243 28.394C25.4586 26.2289 26.8824 23.7778 28.3729 21.312C29.5161 19.4203 31.2643 17.8329 33.5688 16.5915C34.787 15.9359 36.8221 15.0332 39.5934 14.4563C40.689 14.2282 41.8119 14.0736 42.7554 14.0204C44.2014 13.9391 44.458 14.1213 44.5815 14.209L44.593 14.2174C44.7197 14.3078 44.9739 14.5143 45.3757 15.8819C45.6448 16.7985 45.8784 17.9196 46.0334 19.0388C46.4591 22.1087 46.6819 27.8683 43.3936 31.9505C41.6038 34.1733 39.8058 36.3294 38.2062 38.2162C39.7828 41.0166 40.5935 45.4792 36.6794 51.6061C36.4818 51.9153 36.105 52.1667 36.0782 51.527C36.0155 50.0455 35.5144 47.1713 32.8759 44.4033C32.8149 44.4742 32.7626 44.5356 32.7191 44.587C32.4388 44.919 32.1637 45.1591 31.8777 45.3221C31.5902 45.4888 31.2639 45.577 30.9316 45.5779Z" fill="url(#paint0_linear)"/>
<defs>
<linearGradient id="paint0_linear" x2="1" gradientUnits="userSpaceOnUse" gradientTransform="translate(65) scale(65) rotate(90)">
<stop stop-color="#DCF2F9"/>
<stop offset="1" stop-color="#4DDDFC"/>
</linearGradient>
</defs>
</svg>
