<svg width="65" height="65" viewBox="0 0 65 65" fill="none" xmlns="http://www.w3.org/2000/svg">
<path fill-rule="evenodd" clip-rule="evenodd" d="M32.5 65C50.4493 65 65 50.4493 65 32.5C65 14.5507 50.4493 0 32.5 0C14.5507 0 0 14.5507 0 32.5C0 50.4493 14.5507 65 32.5 65ZM30.9316 45.5778H30.8808C30.331 45.5629 29.7582 45.321 28.9728 44.7701C28.8385 45.0936 28.6675 45.4075 28.459 45.706C28.435 45.7408 28.4089 45.7732 28.3827 45.8056C28.368 45.8239 28.3532 45.8421 28.3389 45.8608C25.513 49.7804 21.5267 51.7071 19.3527 50.1619C17.179 48.6181 17.6344 44.184 20.3419 40.1797C20.3552 40.1589 20.3679 40.1379 20.3805 40.117L20.3806 40.1169C20.4018 40.0818 20.423 40.0468 20.4468 40.0126C20.6532 39.7169 20.886 39.4512 21.1399 39.2164C20.4204 38.6878 20.0264 38.2437 19.8361 37.7492C19.5198 36.928 19.8605 36.1749 20.1436 35.6797C20.1653 35.6416 20.1898 35.5986 20.2169 35.5507C16.7392 34.0639 13.8794 34.565 12.4609 35.0069C11.8409 35.2002 11.9534 34.7572 12.1816 34.4632C16.6014 28.7876 21.0308 27.9308 24.2243 28.394C25.4586 26.2289 26.8824 23.7778 28.3729 21.312C29.5161 19.4203 31.2643 17.8329 33.5689 16.5915C34.787 15.9358 36.8221 15.0332 39.5934 14.4563C40.689 14.2282 41.8119 14.0736 42.7553 14.0204C44.2013 13.9391 44.458 14.1213 44.5815 14.209L44.5815 14.2091L44.593 14.2174C44.7197 14.3078 44.9739 14.5143 45.3757 15.8819C45.6448 16.7985 45.8784 17.9196 46.0335 19.0388C46.4591 22.1087 46.6819 27.8682 43.3935 31.9505C41.6038 34.1733 39.8057 36.3295 38.2061 38.2163C39.7828 41.0166 40.5936 45.4792 36.6795 51.6061C36.4819 51.9153 36.1049 52.1667 36.0783 51.527C36.0155 50.0455 35.5143 47.1713 32.8758 44.4033C32.815 44.4742 32.7626 44.5356 32.7192 44.5871C32.4389 44.919 32.1637 45.1591 31.8777 45.3221C31.5902 45.4888 31.2639 45.577 30.9316 45.5778Z" fill="url(#paint0_linear)"/>
<defs>
<linearGradient id="paint0_linear" x1="32.5" y1="0" x2="32.5" y2="65" gradientUnits="userSpaceOnUse">
<stop stop-color="#ADE7F9"/>
<stop offset="1" stop-color="#4DDDFC"/>
</linearGradient>
</defs>
</svg>
