<svg width="65" height="65" viewBox="0 0 65 65" fill="none" xmlns="http://www.w3.org/2000/svg">
<path fill-rule="evenodd" clip-rule="evenodd" d="M32.5 65C50.4492 65 65 50.4493 65 32.5C65 14.5507 50.4492 0 32.5 0C14.5508 0 0 14.5507 0 32.5C0 50.4493 14.5508 65 32.5 65ZM30.9316 45.5778H30.8807C30.3311 45.5629 29.7583 45.321 28.9728 44.7701C28.8385 45.0936 28.6676 45.4075 28.459 45.706C28.4364 45.7388 28.4117 45.7695 28.3871 45.8001L28.3857 45.8019L28.3833 45.8048C28.3683 45.8234 28.3534 45.8419 28.3389 45.8608C25.5129 49.7804 21.5267 51.7071 19.3528 50.1619C17.179 48.6181 17.6344 44.184 20.3419 40.1797C20.3516 40.1647 20.3607 40.1495 20.3699 40.1344L20.3745 40.1268L20.3804 40.1172C20.4016 40.0821 20.4229 40.0469 20.4468 40.0126C20.6531 39.7169 20.886 39.4511 21.1399 39.2163C20.4204 38.6878 20.0264 38.2437 19.8361 37.7492C19.5198 36.928 19.8606 36.1748 20.1436 35.6797C20.1622 35.6473 20.1826 35.6112 20.205 35.5716L20.2168 35.5507C16.7391 34.0639 13.8794 34.565 12.4609 35.0069C11.8408 35.2002 11.9534 34.7572 12.1816 34.4632C16.6013 28.7876 21.0308 27.9308 24.2242 28.394C25.4586 26.2289 26.8824 23.7778 28.3729 21.3119C29.5161 19.4203 31.2643 17.8329 33.5688 16.5915C34.787 15.9358 36.8221 15.0332 39.5934 14.4563C40.689 14.2282 41.8119 14.0736 42.7554 14.0204C44.2014 13.9391 44.458 14.1213 44.5815 14.209L44.593 14.2174C44.7197 14.3078 44.9739 14.5143 45.3757 15.8819C45.6448 16.7985 45.8784 17.9196 46.0334 19.0388C46.4591 22.1087 46.6819 27.8682 43.3936 31.9505C41.6038 34.1733 39.8058 36.3294 38.2062 38.2162C39.7828 41.0166 40.5935 45.4792 36.6794 51.6061C36.4818 51.9153 36.105 52.1667 36.0782 51.527C36.0155 50.0455 35.5144 47.1713 32.8759 44.4033C32.8149 44.4742 32.7626 44.5356 32.7191 44.587C32.4388 44.919 32.1637 45.1591 31.8777 45.3221C31.5902 45.4888 31.2639 45.577 30.9316 45.5778Z" fill="url(#paint0_linear)"/>
<defs>
<linearGradient id="paint0_linear" x2="1" gradientUnits="userSpaceOnUse" gradientTransform="translate(65) scale(65) rotate(90)">
<stop stop-color="#DCF2F9"/>
<stop offset="1" stop-color="#4DDDFC"/>
</linearGradient>
</defs>
</svg>
