<svg width="65" height="65" viewBox="0 0 65 65" fill="none" xmlns="http://www.w3.org/2000/svg">
<path fill-rule="evenodd" clip-rule="evenodd" d="M32.5 65C50.4493 65 65 50.4493 65 32.5C65 14.5507 50.4493 0 32.5 0C14.5507 0 0 14.5507 0 32.5C0 50.4493 14.5507 65 32.5 65ZM51.8621 28.1718L54 27.0681V23.2894L11 45.4894V49.2681L47.3412 30.5059C47.4328 31.1836 47.4801 31.8756 47.4801 32.5787C47.4801 40.9264 40.808 47.6936 32.5776 47.6936C29.8933 47.6936 27.3749 46.9738 25.1995 45.7142L21.7882 47.4754C24.7959 49.6924 28.4974 51 32.5 51C42.5736 51 50.7401 42.7172 50.7401 32.5C50.7401 31.8488 50.7069 31.2055 50.6421 30.5717C50.5421 29.5922 50.9968 28.6185 51.8621 28.1718ZM54 15.7319V19.5106L11 41.7106V37.9319L13.1379 36.8282C14.0031 36.3815 14.4578 35.4077 14.3578 34.4282C14.2931 33.7945 14.2599 33.1512 14.2599 32.5C14.2599 22.2827 22.4263 14 32.5 14C36.5038 14 40.2063 15.3084 43.2146 17.5266L39.7397 19.3206C37.6144 18.137 35.1735 17.4638 32.5776 17.4638C24.3472 17.4638 17.6751 24.231 17.6751 32.5787C17.6751 33.205 17.7126 33.8224 17.7856 34.4287L54 15.7319Z" fill="url(#paint0_linear)"/>
<defs>
<linearGradient id="paint0_linear" x1="32.5" y1="0" x2="32.5" y2="65" gradientUnits="userSpaceOnUse">
<stop stop-color="#AEADFF"/>
<stop offset="1" stop-color="#8785FF"/>
</linearGradient>
</defs>
</svg>
