<svg width="65" height="65" viewBox="0 0 65 65" fill="none" xmlns="http://www.w3.org/2000/svg">
<path fill-rule="evenodd" clip-rule="evenodd" d="M0 32.5C0 14.5508 14.5505 0 32.5 0C50.4492 0 65 14.5508 65 32.5C65 50.4492 50.4492 65 32.5 65C14.5505 65 0 50.4492 0 32.5ZM15 23.2625L22.9548 31.2166L25.7694 34.0312L15 44.5562V38.8044L20.1709 33.8716L15 29.0139V23.2625ZM39.1083 47.1262L28.5841 36.3567L25.7695 39.1714L17.8147 47.1262H23.5663L28.4246 41.9546L33.3567 47.1262H39.1083ZM41.9229 18.1223H45.7166H50V21.916V47.1262H47.5522H45.7166H44.8599V47.0947L44.8518 47.105L15.0198 18H20.6293L45.7166 42.7344V21.916H41.9229V33.542L37.1503 29.0139L25.9115 18.0293L31.8878 18L37.1503 23.3438V21.916V18.1223H41.9229Z" fill="url(#paint0_linear)"/>
<defs>
<linearGradient id="paint0_linear" x2="1" gradientUnits="userSpaceOnUse" gradientTransform="translate(32.5) scale(63.7862) rotate(90)">
<stop stop-color="#41D4FC"/>
<stop offset="1" stop-color="#1DAFEC"/>
</linearGradient>
</defs>
</svg>
