<svg width="65" height="65" viewBox="0 0 65 65" fill="none" xmlns="http://www.w3.org/2000/svg">
<path fill-rule="evenodd" clip-rule="evenodd" d="M32.5 65C50.4493 65 65 50.4493 65 32.5C65 14.5507 50.4493 0 32.5 0C14.5507 0 0 14.5507 0 32.5C0 50.4493 14.5507 65 32.5 65ZM30.5641 49.9914C31.857 51.3444 33.9159 52 36.7407 52C38.6591 52 40.4369 51.6164 42.0812 50.8214C43.7536 50.0263 44.9763 48.7779 45.7773 47.1529C46.5784 45.5209 47 43.7564 47 41.8525C47 40.9877 46.8595 40.0531 46.6487 38.9791C46.4378 37.905 45.946 36.7961 45.2152 35.6175C44.4844 34.4388 43.4374 33.5043 42.0741 32.8487C40.7531 32.1583 39.5304 31.8095 38.4483 31.8095C37.7877 31.8793 37.1553 32.0188 36.5651 32.2629L46.5362 22.3176L44.9341 20.7275L28.6387 20.7623V13.7951L27.0717 13H22.8837V14.1786L24.3172 15.6014V20.7972H18V23.0848H24.282V35.3455C24.282 37.11 24.802 38.5327 25.8139 39.5719C26.8609 40.611 28.6809 41.1271 31.3652 41.1271C32.4473 41.1271 33.424 40.8133 34.3305 40.2275C35.237 39.6416 35.9326 38.7768 36.4245 37.633C36.4409 37.5062 36.4649 37.393 36.4859 37.2942C36.5099 37.1811 36.5299 37.0868 36.5299 37.0123C36.5299 36.6985 36.4245 36.4265 36.2137 36.1824C35.9748 36.008 35.7991 35.9383 35.6235 35.9383C35.5181 35.9383 35.4478 35.9732 35.3424 36.0429C35.2721 36.0778 35.2018 36.1824 35.1316 36.3219C34.6467 36.9775 34.0846 37.5633 33.424 38.0515C32.7635 38.5327 32.096 38.7768 31.3652 38.7768C30.4587 38.7768 29.763 38.463 29.3063 37.8074C28.8566 37.1448 28.6457 36.3149 28.6457 35.3106V23.0848H40.9569L32.0608 34.8573V35.8267L34.0283 34.8922C35.1105 34.3063 35.9818 33.9925 36.7126 33.9925C37.8299 33.9925 38.8418 34.2715 39.7834 34.8573C40.725 35.4083 41.4206 36.3079 41.9125 37.5215C42.3974 38.7001 42.6433 40.1229 42.6433 41.8176C42.6433 43.3798 42.4395 44.7607 41.9828 45.9742C41.526 47.1878 40.8304 48.1223 39.8888 48.743C38.9472 49.3637 37.9002 49.6776 36.7126 49.6776C35.8694 49.6776 35.0332 49.573 34.197 49.3289C33.3608 49.0848 32.7354 48.7012 32.3489 48.1851C32.8057 48.0456 33.2203 47.7387 33.5365 47.3203C33.8527 46.9088 34.0283 46.3509 34.0283 45.6604C34.0283 45.1025 33.8878 44.6212 33.677 44.2377C33.4662 43.8541 33.157 43.5472 32.7705 43.338C32.3841 43.0939 31.8992 42.9893 31.337 42.9893C30.7749 42.9893 30.29 43.1288 29.9036 43.338C29.5171 43.5472 29.2079 43.8541 28.9971 44.2377C28.7512 44.6212 28.6457 45.1094 28.6457 45.6604C28.6457 47.2226 29.2711 48.6384 30.5641 49.9914Z" fill="url(#paint0_linear)"/>
<defs>
<linearGradient id="paint0_linear" x1="32.5" y1="0" x2="32.5" y2="65" gradientUnits="userSpaceOnUse">
<stop stop-color="#D8D8D8"/>
<stop offset="1" stop-color="#BEBEBE"/>
</linearGradient>
</defs>
</svg>
