<svg width="65" height="65" viewBox="0 0 65 65" fill="none" xmlns="http://www.w3.org/2000/svg">
<path fill-rule="evenodd" clip-rule="evenodd" d="M32.5 65C50.4492 65 65 50.4493 65 32.5C65 14.5507 50.4492 0 32.5 0C14.5508 0 0 14.5507 0 32.5C0 50.4493 14.5508 65 32.5 65ZM30.5642 49.9914C31.8569 51.3444 33.916 52 36.7407 52C38.6592 52 40.4368 51.6164 42.0811 50.8214C43.7537 50.0263 44.9763 48.7779 45.7773 47.1529C46.5784 45.5209 47 43.7564 47 41.8525C47 40.9877 46.8594 40.0531 46.6487 38.9791C46.4377 37.905 45.946 36.7961 45.2151 35.6175C44.4844 34.4388 43.4373 33.5043 42.0742 32.8487C40.7532 32.1583 39.5305 31.8096 38.4482 31.8096C37.7878 31.8793 37.1553 32.0188 36.5649 32.2629L46.5361 22.3176L44.9341 20.7275L28.6387 20.7623V13.795L27.0718 13H22.8838V14.1786L24.3171 15.6014V20.7972H18V23.0848H24.282V35.3455C24.282 37.11 24.802 38.5327 25.814 39.5719C26.8608 40.611 28.6809 41.1271 31.3652 41.1271C32.4473 41.1271 33.4241 40.8133 34.3306 40.2275C35.2371 39.6416 35.9326 38.7768 36.4246 37.6331C36.4597 37.361 36.53 37.1518 36.53 37.0123C36.53 36.6985 36.4246 36.4265 36.2136 36.1824C35.9749 36.0081 35.7991 35.9383 35.6235 35.9383C35.563 35.9383 35.5139 35.9498 35.4631 35.9729C35.4255 35.9899 35.3872 36.0132 35.3423 36.0429C35.2722 36.0778 35.2019 36.1824 35.1316 36.3219C34.6467 36.9775 34.0845 37.5633 33.4241 38.0515C32.7634 38.5327 32.0959 38.7768 31.3652 38.7768C30.4587 38.7768 29.7629 38.463 29.3064 37.8074C28.8564 37.1448 28.6458 36.3149 28.6458 35.3106V23.0848H40.9568L32.0608 34.8573V35.8267L34.0283 34.8922C35.1106 34.3063 35.9819 33.9925 36.7126 33.9925C37.8298 33.9925 38.8418 34.2715 39.7834 34.8573C40.7251 35.4083 41.4207 36.3079 41.9126 37.5215C42.3975 38.7001 42.6433 40.1229 42.6433 41.8176C42.6433 43.3798 42.4395 44.7607 41.9829 45.9742C41.5261 47.1877 40.8303 48.1223 39.8887 48.743C38.9473 49.3637 37.9001 49.6776 36.7126 49.6776C35.8694 49.6776 35.0332 49.5729 34.197 49.3289C33.3608 49.0848 32.7354 48.7012 32.3489 48.1851C32.8057 48.0456 33.2202 47.7387 33.5364 47.3203C33.8528 46.9088 34.0283 46.3508 34.0283 45.6604C34.0283 45.1025 33.8877 44.6212 33.677 44.2377C33.4663 43.8541 33.157 43.5472 32.7705 43.338C32.384 43.0939 31.8992 42.9893 31.3372 42.9893C30.7749 42.9893 30.29 43.1288 29.9036 43.338C29.5171 43.5472 29.208 43.8541 28.9971 44.2377C28.7512 44.6212 28.6458 45.1094 28.6458 45.6604C28.6458 47.2227 29.2712 48.6384 30.5642 49.9914Z" fill="url(#paint0_linear)"/>
<defs>
<linearGradient id="paint0_linear" x1="32.5" y1="0" x2="32.5" y2="65" gradientUnits="userSpaceOnUse">
<stop stop-color="white"/>
<stop offset="1" stop-color="#8785FF"/>
</linearGradient>
</defs>
</svg>
