<svg width="65" height="65" viewBox="0 0 65 65" fill="none" xmlns="http://www.w3.org/2000/svg">
<path fill-rule="evenodd" clip-rule="evenodd" d="M65 32.5C65 50.4492 50.4492 65 32.5 65C14.5508 65 0 50.4492 0 32.5C0 14.5508 14.5508 0 32.5 0C50.4492 0 65 14.5508 65 32.5ZM43.7368 36.3633C44.0125 36.5224 44.2979 36.6481 44.5889 36.7417L42.1062 49.0347L29.7302 44.8636C29.8511 44.156 29.7664 43.4324 29.4995 42.7761L42.5266 35.3325C42.8538 35.7358 43.2595 36.0876 43.7368 36.3633ZM44.283 35.4174C44.4531 35.5157 44.6287 35.5969 44.8071 35.6615L44.8223 35.5866L45.9014 35.8115L45.8926 35.8547C47.0068 35.86 48.0884 35.2896 48.6809 34.2633C49.564 32.7335 49.0271 30.77 47.4814 29.8776C45.9358 28.9853 43.9668 29.502 43.0837 31.0317C42.2004 32.5615 42.7375 34.525 44.283 35.4174ZM49.6362 34.8151C48.8018 36.2604 47.2449 37.0316 45.6729 36.9431L43.563 47.3898L51.699 33.2977L50.1636 33.295C50.0886 33.8164 49.9153 34.3319 49.6362 34.8151ZM43.5444 18.2516L51.6821 32.2027L50.1787 32.2001C50.0276 30.8842 49.2708 29.6497 48.0273 28.9319C47.3159 28.5211 46.5374 28.3329 45.7739 28.3459L43.5444 18.2516ZM23.5425 15.9731L40.1301 16.047L29.3474 19.4561C29.0376 18.9037 28.5786 18.4239 27.9885 18.0833C26.9304 17.4724 25.6953 17.4501 24.6682 17.9155L23.5425 15.9731ZM22.6008 16.5317L14.8279 29.9944L22.9768 22.8056C22.4385 21.7553 22.4248 20.4685 23.0544 19.3781C23.2454 19.0475 23.4814 18.759 23.7507 18.5158L22.6008 16.5317ZM11.0908 33.5908L21.6699 51.7271L43.8394 51.8257L54.8386 32.7744L43.6685 13.6244L21.4988 13.5257L10.4995 32.577L10.9753 33.393L10.9412 33.4232L11.0908 33.5908ZM13.5894 32.5569L23.6265 23.7025C23.8513 23.9296 24.1099 24.131 24.4001 24.2986C24.7256 24.4865 25.0679 24.6187 25.4155 24.6982L25.4856 40.378C24.741 40.4583 24.0278 40.7536 23.4451 41.238L13.5894 32.5569ZM29.571 22.5099C29.8267 21.8516 29.8735 21.149 29.7341 20.4857L42.053 16.591L44.6843 28.5038C43.8313 28.7409 43.0525 29.2386 42.4792 29.9625L29.571 22.5099ZM41.947 34.3961L28.9441 41.8259C28.6487 41.4543 28.2793 41.1306 27.8425 40.8784C27.4417 40.6469 27.0166 40.4948 26.5864 40.4171L26.5164 24.7774C27.4807 24.6994 28.397 24.2379 29.0251 23.4558L41.916 30.8983C41.4141 32.0396 41.4529 33.3104 41.947 34.3961ZM24.5171 47.7414L23.6187 49.2974L39.6772 49.3689L29.3921 45.9026C29.356 45.9757 29.3171 46.0481 29.2759 46.1198C28.313 47.7875 26.2705 48.4478 24.5171 47.7414ZM22.708 48.6677L23.5615 47.1896C22.0732 46.0243 21.6238 43.9254 22.5867 42.2577C22.6274 42.187 22.6702 42.118 22.7148 42.0509L14.7622 35.0458L22.708 48.6677ZM28.3203 45.568C27.5664 46.8739 25.8855 47.315 24.5662 46.5533C23.2468 45.7915 22.7883 44.1153 23.5422 42.8094C24.2964 41.5035 25.9771 41.0624 27.2964 41.8242C28.616 42.586 29.0742 44.2621 28.3203 45.568ZM28.3784 22.452C27.6892 23.6459 26.1523 24.0492 24.946 23.3528C23.7397 22.6563 23.3206 21.1238 24.01 19.9298C24.6992 18.7359 26.2361 18.3326 27.4424 19.0291C28.6487 19.7255 29.0679 21.258 28.3784 22.452Z" fill="url(#paint0_linear)"/>
<defs>
<linearGradient id="paint0_linear" x1="32.5" y1="0" x2="32.5" y2="65" gradientUnits="userSpaceOnUse">
<stop stop-color="#A9AEE1"/>
<stop offset="1" stop-color="#5156A6"/>
</linearGradient>
</defs>
</svg>
