<svg width="65" height="65" viewBox="0 0 65 65" fill="none" xmlns="http://www.w3.org/2000/svg">
<path fill-rule="evenodd" clip-rule="evenodd" d="M32.5 0C14.5505 0 0 14.5508 0 32.5C0 50.4492 14.5505 65 32.5 65C50.4492 65 65 50.4492 65 32.5C65 14.5508 50.4492 0 32.5 0ZM36.1616 33.415C36.8942 33.9641 37.7706 34.3953 38.7255 34.3953C40.6353 34.3953 42.1395 32.9185 42.1395 30.9841C42.1395 28.9714 40.6875 27.5469 38.647 27.5469C37.7706 27.5469 36.8157 27.8997 36.1616 28.501V24.3057C37.2473 23.7566 38.4508 23.5215 39.6542 23.5215C43.8008 23.5215 47.2671 26.606 47.2671 30.8274C47.2671 35.3232 43.8269 38.4338 39.4319 38.4338C38.2808 38.4338 37.1427 38.1594 36.1616 37.6104V33.415ZM28.745 36.2773C27.5939 37.8064 26.2074 38.5122 24.2715 38.5122C20.7266 38.5122 19.0131 36.1729 19 32.6179V25.3381V24.0571V18.3589C20.465 16.9998 22.1393 15.8625 23.9706 15V24.0571V25.3381V31.2324C23.9706 32.8662 24.2191 34.552 26.2074 34.552C28.1694 34.552 28.7974 32.8662 28.7974 31.2324V24.0571H33.7679V44.5242V46.6807V51.9346C33.2578 51.9739 32.7477 52 32.2375 52C31.0603 52 29.9092 51.8955 28.7974 51.6995V44.5374V36.2773H28.745Z" fill="url(#paint0_linear)"/>
<defs>
<linearGradient id="paint0_linear" x2="1" gradientUnits="userSpaceOnUse" gradientTransform="translate(32.5) scale(65) rotate(90)">
<stop stop-color="#ED5250"/>
<stop offset="1" stop-color="#FC3E45"/>
</linearGradient>
</defs>
</svg>
