<svg width="65" height="65" viewBox="0 0 65 65" fill="none" xmlns="http://www.w3.org/2000/svg">
<path fill-rule="evenodd" clip-rule="evenodd" d="M0 32.5C0 14.5508 14.5505 0 32.5 0C50.4492 0 65 14.5508 65 32.5C65 50.4495 50.4492 65 32.5 65C14.5505 65 0 50.4495 0 32.5ZM43.7592 40.5554H30.5704C31.6691 39.3478 32.7295 38.1058 33.7499 36.8314C36.3632 33.6498 38.9561 30.4515 41.5286 27.2368C41.7402 26.9753 41.9797 26.7136 42.2216 26.4493C42.9056 25.7018 43.6091 24.9331 43.7592 24.0867C44.0482 22.5581 43.9949 20.9574 43.9401 19.3102C43.9177 18.6419 43.8953 17.9659 43.8953 17.284H35.7102V11.5557H29.1504V17.4285H21.6398V24.4449H34.2902C33.7844 25.0427 33.3051 25.5992 32.8403 26.1389C32.2483 26.8261 31.6798 27.486 31.1108 28.1688C28.4976 31.3505 25.9045 34.5487 23.332 37.7634C23.1144 38.0565 22.8562 38.3498 22.5947 38.6467C21.9629 39.3642 21.3123 40.1032 21.1685 40.9135C20.8787 42.446 20.933 44.0511 20.988 45.6761C21.0101 46.3297 21.0323 46.9864 21.0323 47.6429H29.1504V53.4446H35.9805C35.9132 52.4404 35.8624 51.4719 35.8115 50.5031C35.7607 49.5382 35.7101 48.5729 35.6432 47.5717H43.7592V40.5554Z" fill="url(#paint0_linear)"/>
<defs>
<linearGradient id="paint0_linear" x2="1" gradientUnits="userSpaceOnUse" gradientTransform="translate(32.5) scale(65) rotate(90)">
<stop stop-color="#F8D175"/>
<stop offset="1" stop-color="#ECB244"/>
</linearGradient>
</defs>
</svg>
