<svg width="65" height="65" viewBox="0 0 65 65" fill="none" xmlns="http://www.w3.org/2000/svg">
<path fill-rule="evenodd" clip-rule="evenodd" d="M0 32.5C0 14.5508 14.5505 0 32.5 0C50.4492 0 65 14.5508 65 32.5C65 50.4492 50.4492 65 32.5 65C14.5505 65 0 50.4492 0 32.5ZM39.8138 31.666L45.1425 29.29V29.2673V23.9785V23.9556L45.1177 23.9666L24.4135 14L19 16.3757V16.3809V21.7468V21.752L33.3988 28.675L19 35.7388V35.7439V41.0334V41.0386L39.8138 51V50.9949L45.1425 48.6191V48.5842V32.0222V31.9883L39.8138 34.3896V34.4236V45.6577L25.6826 38.8638L39.8138 31.6709V31.666Z" fill="url(#paint0_linear)"/>
<defs>
<linearGradient id="paint0_linear" x2="1" gradientUnits="userSpaceOnUse" gradientTransform="translate(32.5 1.91196) scale(61.8742) rotate(90)">
<stop stop-color="#49C1BF"/>
<stop offset="1" stop-color="#298E97"/>
</linearGradient>
</defs>
</svg>
