<svg width="60" height="60" viewBox="0 0 60 60" fill="none" xmlns="http://www.w3.org/2000/svg">
<path d="M18.4246 8.50329e-05C18.0946 0.00276743 17.7519 0.0705806 17.4398 0.21793C16.4485 0.685865 16.0849 1.77069 16.634 2.61422L18.8723 6.05617C13.4796 8.89765 9.9062 13.751 9.9062 19.2902C9.9062 19.3135 9.90613 19.3484 9.9062 19.3828C9.90623 19.395 9.90607 19.4019 9.9062 19.4155C9.90621 19.4336 9.9062 19.46 9.9062 19.4645V20.3196C8.8705 19.3048 7.34803 18.6639 5.64698 18.6639C2.53059 18.6639 0 20.819 0 23.4729V38.2863C0 40.9402 2.53059 43.0952 5.64698 43.0952C7.34803 43.0952 8.8705 42.4544 9.9062 41.4396V43.5146C9.9062 46.3121 12.5943 48.6013 15.8793 48.6013H17.395V55.1911C17.395 57.845 19.9256 60 23.042 60C26.1584 60 28.689 57.845 28.689 55.1911V48.6013H31.311V55.1911C31.311 57.845 33.8416 60 36.958 60C40.0744 60 42.605 57.845 42.605 55.1911V48.6013H44.1207C47.4057 48.6013 50.0938 46.3121 50.0938 43.5146V41.4396C51.1295 42.4544 52.652 43.0952 54.353 43.0952C57.4694 43.0952 60 40.9402 60 38.2863V23.4729C60 20.819 57.4694 18.6639 54.353 18.6639C52.652 18.6639 51.1295 19.3048 50.0938 20.3196V19.4809V19.4645C50.0939 19.4383 50.0938 19.4122 50.0938 19.4155C50.0942 19.3633 50.0938 19.3217 50.0938 19.2903C50.0938 13.752 46.5124 8.90331 41.1213 6.06162L43.366 2.61422C43.9151 1.77069 43.5515 0.68586 42.5602 0.217925C42.2481 0.0705754 41.9054 0.00276572 41.5754 7.9879e-05C40.8433 -0.00588674 40.1248 0.322652 39.7463 0.904136L37.3993 4.51492C35.1043 3.79371 32.6073 3.39846 30 3.39846C27.3954 3.39846 24.8938 3.78966 22.6007 4.50947L20.2537 0.904136C19.8752 0.322651 19.1567 -0.00587299 18.4246 7.9879e-05V8.50329e-05Z" fill="url(#paint0_linear)"/>
<path d="M4.17608 -3.6357e-08C1.8505 -3.6357e-08 -2.31199e-08 1.57587 -2.31199e-08 3.55632V18.3698C-2.31199e-08 20.3502 1.8505 21.9261 4.17608 21.9261C6.50167 21.9261 8.35216 20.3502 8.35216 18.3698V3.55632C8.35216 1.57587 6.50167 -3.6357e-08 4.17608 -3.6357e-08ZM52.8821 -3.6357e-08C50.5565 -3.6357e-08 48.706 1.57587 48.706 3.55632V18.3698C48.706 20.3502 50.5565 21.9261 52.8821 21.9261C55.2077 21.9261 57.0582 20.3502 57.0582 18.3698V3.55632C57.0582 1.57587 55.2077 -3.6357e-08 52.8821 -3.6357e-08Z" transform="translate(1.47119 19.9165)" fill="#9C9A9A"/>
<path d="M4.17608 0C1.8505 0 0 1.57587 0 3.55632V18.3698C0 20.3502 1.8505 21.9261 4.17608 21.9261C6.50167 21.9261 8.35216 20.3502 8.35216 18.3698V3.55632C8.35216 1.57587 6.50167 0 4.17608 0ZM18.0921 0C15.7665 0 13.916 1.57587 13.916 3.55632V18.3698C13.916 20.3502 15.7665 21.9261 18.0921 21.9261C20.4177 21.9261 22.2682 20.3502 22.2682 18.3698V3.55632C22.2682 1.57587 20.4177 0 18.0921 0Z" transform="translate(18.8657 36.8213)" fill="#9C9A9A"/>
<path d="M7.06033 2.46979e-05C6.96161 0.000884441 6.86962 0.022574 6.77894 0.0653772C6.48115 0.205947 6.38323 0.497355 6.54871 0.75159L9.49051 5.27732C3.83062 7.78525 0.00766245 12.5513 3.94842e-07 18.0212H37.2458C37.2381 12.5513 33.4152 7.78525 27.7553 5.27732L30.6971 0.75159C30.8626 0.497355 30.7646 0.205947 30.4669 0.0653772C30.3762 0.022574 30.2842 0.000825979 30.1855 2.46979e-05C29.9741 -0.00171198 29.7738 0.0882104 29.6611 0.261438L26.6809 4.83618C24.243 3.91529 21.5085 3.39841 18.6229 3.39841C15.7373 3.39841 13.0028 3.91529 10.5649 4.83618L7.58474 0.261438C7.47198 0.0882104 7.27166 -0.00170167 7.06033 2.46979e-05ZM3.94842e-07 19.2738V42.2619C3.94842e-07 44.386 2.008 46.096 4.50224 46.096H32.7436C35.2378 46.096 37.2458 44.386 37.2458 42.2619V19.2738H3.94842e-07Z" transform="translate(11.3774 1.25293)" fill="#9C9A9A"/>
<path d="M1.55404 -2.80399e-08C0.703788 -2.80399e-08 1.66939e-07 0.59934 1.66939e-07 1.32341C1.66939e-07 2.04748 0.703788 2.64682 1.55404 2.64682C2.40429 2.64682 3.10808 2.04748 3.10808 1.32341C3.10808 0.59934 2.40429 -2.80399e-08 1.55404 -2.80399e-08ZM18.7444 -2.80399e-08C17.8942 -2.80399e-08 17.1904 0.59934 17.1904 1.32341C17.1904 2.04748 17.8942 2.64682 18.7444 2.64682C19.5947 2.64682 20.2984 2.04748 20.2984 1.32341C20.2984 0.59934 19.5947 -2.80399e-08 18.7444 -2.80399e-08Z" transform="translate(19.8506 10.8208)" fill="white"/>
<defs>
<linearGradient id="paint0_linear" x2="1" gradientUnits="userSpaceOnUse" gradientTransform="translate(60) scale(60) rotate(90)">
<stop stop-color="white"/>
<stop offset="0.370166" stop-color="white" stop-opacity="0"/>
<stop offset="0.535912" stop-color="white" stop-opacity="0"/>
</linearGradient>
</defs>
</svg>
